solid Onshape
  facet normal 0 0 -1
    outer loop
      vertex -29.7937 11.5 -5.3
      vertex -29.1 13.7 -5.3
      vertex -28.8 1 -5.3
    endloop
  endfacet
  facet normal 0 0 -1
    outer loop
      vertex -29.7937 11.5 -5.3
      vertex -30.175 12.1278 -5.3
      vertex -29.1 13.7 -5.3
    endloop
  endfacet
  facet normal 0 0 -1
    outer loop
      vertex -30.175 12.1278 -5.3
      vertex -30.7206 13.1443 -5.3
      vertex -29.1 13.7 -5.3
    endloop
  endfacet
  facet normal 0 0 -1
    outer loop
      vertex -29.1 13.7 -5.3
      vertex -30.7206 13.1443 -5.3
      vertex -30.9962 13.7 -5.3
    endloop
  endfacet
  facet normal 0 0 -1
    outer loop
      vertex -26.9 13.7 -5.3
      vertex -25.0038 13.7 -5.3
      vertex -25.319 13.0666 -5.3
    endloop
  endfacet
  facet normal 0 0 -1
    outer loop
      vertex -30.6954 0.105169 -5.3
      vertex -30.2352 0.966321 -5.3
      vertex -28.8 1 -5.3
    endloop
  endfacet
  facet normal 0 0 -1
    outer loop
      vertex -30.2352 0.966321 -5.3
      vertex -29.7937 1.7 -5.3
      vertex -28.8 1 -5.3
    endloop
  endfacet
  facet normal 0 0 -1
    outer loop
      vertex -28.8 1 -5.3
      vertex -29.7937 1.7 -5.3
      vertex -29.7937 11.5 -5.3
    endloop
  endfacet
  facet normal 0 0 -1
    outer loop
      vertex -25.7648 0.966321 -5.3
      vertex -25.3046 0.105169 -5.3
      vertex -27.2 1 -5.3
    endloop
  endfacet
  facet normal 0 0 -1
    outer loop
      vertex -25.3046 0.105169 -5.3
      vertex -25.2512 -6.50521e-16 -5.3
      vertex -27.2 1 -5.3
    endloop
  endfacet
  facet normal 0 0 -1
    outer loop
      vertex -27.2 1 -5.3
      vertex -25.2512 -6.50521e-16 -5.3
      vertex -28.8 1 -5.3
    endloop
  endfacet
  facet normal 0 0 -1
    outer loop
      vertex -25.2512 -6.50521e-16 -5.3
      vertex -30.7488 8.67362e-16 -5.3
      vertex -28.8 1 -5.3
    endloop
  endfacet
  facet normal 0 0 -1
    outer loop
      vertex -28.8 1 -5.3
      vertex -30.7488 8.67362e-16 -5.3
      vertex -30.6954 0.105169 -5.3
    endloop
  endfacet
  facet normal 0 0 -1
    outer loop
      vertex -25.319 13.0666 -5.3
      vertex -25.7721 12.2208 -5.3
      vertex -26.9 13.7 -5.3
    endloop
  endfacet
  facet normal 0 0 -1
    outer loop
      vertex -25.7721 12.2208 -5.3
      vertex -26.2063 11.5 -5.3
      vertex -26.9 13.7 -5.3
    endloop
  endfacet
  facet normal 0 0 -1
    outer loop
      vertex -26.9 13.7 -5.3
      vertex -26.2063 11.5 -5.3
      vertex -27.2 1 -5.3
    endloop
  endfacet
  facet normal 0 0 -1
    outer loop
      vertex -26.2063 11.5 -5.3
      vertex -26.2063 1.7 -5.3
      vertex -27.2 1 -5.3
    endloop
  endfacet
  facet normal 0 0 -1
    outer loop
      vertex -27.2 1 -5.3
      vertex -26.2063 1.7 -5.3
      vertex -25.7648 0.966321 -5.3
    endloop
  endfacet
  facet normal 3.8008e-16 -7.72745e-17 1
    outer loop
      vertex -26.2063 11.5 1.30104e-15
      vertex -26.9 13.7 1.73472e-15
      vertex -27.2 1 8.67362e-16
    endloop
  endfacet
  facet normal 5.13162e-17 -1.80946e-16 1
    outer loop
      vertex -26.2063 11.5 1.30104e-15
      vertex -25.7721 12.2208 1.40919e-15
      vertex -26.9 13.7 1.73472e-15
    endloop
  endfacet
  facet normal 2.18951e-17 -2.0338e-16 1
    outer loop
      vertex -25.7721 12.2208 1.40919e-15
      vertex -25.319 13.0666 1.57129e-15
      vertex -26.9 13.7 1.73472e-15
    endloop
  endfacet
  facet normal 0 -2.58034e-16 1
    outer loop
      vertex -26.9 13.7 1.73472e-15
      vertex -25.319 13.0666 1.57129e-15
      vertex -25.0038 13.7 1.73472e-15
    endloop
  endfacet
  facet normal -4.5741e-16 -5.37622e-16 1
    outer loop
      vertex -29.1 13.7 1.30104e-15
      vertex -30.9962 13.7 4.33681e-16
      vertex -30.7206 13.1443 2.60992e-16
    endloop
  endfacet
  facet normal 1.04334e-16 1.24642e-16 1
    outer loop
      vertex -25.3046 0.105169 7.81136e-16
      vertex -25.7648 0.966321 7.21819e-16
      vertex -27.2 1 8.67362e-16
    endloop
  endfacet
  facet normal 1.12209e-16 4.60249e-16 1
    outer loop
      vertex -25.7648 0.966321 7.21819e-16
      vertex -26.2063 1.7 4.33681e-16
      vertex -27.2 1 8.67362e-16
    endloop
  endfacet
  facet normal 4.98758e-16 -8.85063e-17 1
    outer loop
      vertex -27.2 1 8.67362e-16
      vertex -26.2063 1.7 4.33681e-16
      vertex -26.2063 11.5 1.30104e-15
    endloop
  endfacet
  facet normal -2.54075e-16 -5.5556e-17 1
    outer loop
      vertex -30.2352 0.966321 -3.66521e-16
      vertex -30.6954 0.105169 -5.31299e-16
      vertex -28.8 1 0
    endloop
  endfacet
  facet normal -9.44881e-16 1.40772e-15 1
    outer loop
      vertex -30.6954 0.105169 -5.31299e-16
      vertex -30.7488 4.33681e-16 -4.33681e-16
      vertex -28.8 1 0
    endloop
  endfacet
  facet normal -5.42101e-16 6.22777e-16 1
    outer loop
      vertex -28.8 1 0
      vertex -30.7488 4.33681e-16 -4.33681e-16
      vertex -27.2 1 8.67362e-16
    endloop
  endfacet
  facet normal -2.36655e-16 -4.61198e-16 1
    outer loop
      vertex -30.7488 4.33681e-16 -4.33681e-16
      vertex -25.2512 -8.67362e-16 8.67362e-16
      vertex -27.2 1 8.67362e-16
    endloop
  endfacet
  facet normal 5.68834e-16 1.10855e-15 1
    outer loop
      vertex -27.2 1 8.67362e-16
      vertex -25.2512 -8.67362e-16 8.67362e-16
      vertex -25.3046 0.105169 7.81136e-16
    endloop
  endfacet
  facet normal -5.62118e-16 -2.32274e-16 1
    outer loop
      vertex -30.7206 13.1443 2.60992e-16
      vertex -30.175 12.1278 3.31574e-16
      vertex -29.1 13.7 1.30104e-15
    endloop
  endfacet
  facet normal -6.03574e-16 -2.03927e-16 1
    outer loop
      vertex -30.175 12.1278 3.31574e-16
      vertex -29.7937 11.5 4.33681e-16
      vertex -29.1 13.7 1.30104e-15
    endloop
  endfacet
  facet normal -8.60907e-16 -1.22781e-16 1
    outer loop
      vertex -29.1 13.7 1.30104e-15
      vertex -29.7937 11.5 4.33681e-16
      vertex -28.8 1 0
    endloop
  endfacet
  facet normal -4.98758e-16 -8.85063e-17 1
    outer loop
      vertex -29.7937 11.5 4.33681e-16
      vertex -29.7937 1.7 -4.33681e-16
      vertex -28.8 1 0
    endloop
  endfacet
  facet normal -2.61215e-16 2.48716e-16 1
    outer loop
      vertex -28.8 1 0
      vertex -29.7937 1.7 -4.33681e-16
      vertex -30.2352 0.966321 -3.66521e-16
    endloop
  endfacet
  facet normal -0.999721 0.0236154 0
    outer loop
      vertex -27.2 1 8.67362e-16
      vertex -26.9 13.7 1.73472e-15
      vertex -27.2 1 -5.3
    endloop
  endfacet
  facet normal -0.999721 0.0236154 0
    outer loop
      vertex -26.9 13.7 1.73472e-15
      vertex -26.9 13.7 -5.3
      vertex -27.2 1 -5.3
    endloop
  endfacet
  facet normal 0.999721 0.0236156 0
    outer loop
      vertex -29.1 13.7 -5.3
      vertex -29.1 13.7 1.30104e-15
      vertex -28.8 1 -5.3
    endloop
  endfacet
  facet normal 0.999721 0.0236156 0
    outer loop
      vertex -29.1 13.7 1.30104e-15
      vertex -28.8 1 0
      vertex -28.8 1 -5.3
    endloop
  endfacet
  facet normal -0.562786 0.338638 -0.754053
    outer loop
      vertex -30.2352 0.966321 -5.3
      vertex -30.0302 1.7 -5.12353
      vertex -29.7937 1.7 -5.3
    endloop
  endfacet
  facet normal -0.562787 0.338639 0.754052
    outer loop
      vertex -29.7937 1.7 -4.33681e-16
      vertex -30.0302 1.7 -0.176474
      vertex -30.2352 0.966321 -3.66521e-16
    endloop
  endfacet
  facet normal -0.60207 0.341806 0.721582
    outer loop
      vertex -30.0302 1.7 -0.176474
      vertex -30.07 1.7 -0.209651
      vertex -30.2352 0.966321 -3.66521e-16
    endloop
  endfacet
  facet normal -0.638029 0.340993 0.690394
    outer loop
      vertex -30.2352 0.966321 -3.66521e-16
      vertex -30.07 1.7 -0.209651
      vertex -30.6954 0.105169 -5.31299e-16
    endloop
  endfacet
  facet normal -0.638901 0.341214 0.689477
    outer loop
      vertex -30.07 1.7 -0.209651
      vertex -30.2759 1.7 -0.40047
      vertex -30.6954 0.105169 -5.31299e-16
    endloop
  endfacet
  facet normal -0.673447 0.341768 0.655488
    outer loop
      vertex -30.6954 0.105169 -5.31299e-16
      vertex -30.2759 1.7 -0.40047
      vertex -30.7488 4.33681e-16 -4.33681e-16
    endloop
  endfacet
  facet normal -0.67515 0.341822 0.653705
    outer loop
      vertex -30.2759 1.7 -0.40047
      vertex -30.3219 1.7 -0.447957
      vertex -30.7488 4.33681e-16 -4.33681e-16
    endloop
  endfacet
  facet normal -0.705926 0.340895 0.620853
    outer loop
      vertex -30.7488 4.33681e-16 -4.33681e-16
      vertex -30.3219 1.7 -0.447957
      vertex -30.9794 5.79126e-16 -0.262142
    endloop
  endfacet
  facet normal -0.705781 0.341428 -0.620726
    outer loop
      vertex -30.9794 8.71554e-16 -5.03786
      vertex -30.497 1.7 -4.65125
      vertex -30.7488 8.67362e-16 -5.3
    endloop
  endfacet
  facet normal -0.708491 0.340784 -0.617986
    outer loop
      vertex -30.497 1.7 -4.65125
      vertex -30.3219 1.7 -4.85204
      vertex -30.7488 8.67362e-16 -5.3
    endloop
  endfacet
  facet normal -0.673607 0.34185 -0.65528
    outer loop
      vertex -30.7488 8.67362e-16 -5.3
      vertex -30.3219 1.7 -4.85204
      vertex -30.6954 0.105169 -5.3
    endloop
  endfacet
  facet normal -0.675162 0.341775 -0.653718
    outer loop
      vertex -30.3219 1.7 -4.85204
      vertex -30.2759 1.7 -4.89953
      vertex -30.6954 0.105169 -5.3
    endloop
  endfacet
  facet normal -0.638419 0.341201 -0.68993
    outer loop
      vertex -30.6954 0.105169 -5.3
      vertex -30.2759 1.7 -4.89953
      vertex -30.2352 0.966321 -5.3
    endloop
  endfacet
  facet normal -0.638963 0.340961 -0.689545
    outer loop
      vertex -30.2759 1.7 -4.89953
      vertex -30.07 1.7 -5.09035
      vertex -30.2352 0.966321 -5.3
    endloop
  endfacet
  facet normal -0.602072 0.341806 -0.72158
    outer loop
      vertex -30.2352 0.966321 -5.3
      vertex -30.07 1.7 -5.09035
      vertex -30.0302 1.7 -5.12353
    endloop
  endfacet
  facet normal -0.81583 0.341336 -0.466809
    outer loop
      vertex -31.211 9.08238e-16 -4.71584
      vertex -31.4081 9.35119e-16 -4.37152
      vertex -30.8563 1.7 -4.0928
    endloop
  endfacet
  facet normal -0.823496 0.338663 -0.45515
    outer loop
      vertex -30.8563 1.7 -4.0928
      vertex -30.7412 1.7 -4.30096
      vertex -31.211 9.08238e-16 -4.71584
    endloop
  endfacet
  facet normal -0.797806 0.341711 -0.496729
    outer loop
      vertex -30.7412 1.7 -4.30096
      vertex -30.6912 1.7 -4.38137
      vertex -31.211 9.08238e-16 -4.71584
    endloop
  endfacet
  facet normal -0.762993 0.341336 -0.548937
    outer loop
      vertex -31.211 9.08238e-16 -4.71584
      vertex -30.6912 1.7 -4.38137
      vertex -30.9794 8.71554e-16 -5.03786
    endloop
  endfacet
  facet normal -0.770502 0.339071 -0.539775
    outer loop
      vertex -30.6912 1.7 -4.38137
      vertex -30.5465 1.7 -4.58788
      vertex -30.9794 8.71554e-16 -5.03786
    endloop
  endfacet
  facet normal -0.740663 0.341719 -0.578485
    outer loop
      vertex -30.9794 8.71554e-16 -5.03786
      vertex -30.5465 1.7 -4.58788
      vertex -30.497 1.7 -4.65125
    endloop
  endfacet
  facet normal -0.894613 0.341335 -0.288371
    outer loop
      vertex -31.5683 9.51905e-16 -4.00862
      vertex -31.69 9.58416e-16 -3.63106
      vertex -31.0926 1.7 -3.47222
    endloop
  endfacet
  facet normal -0.901212 0.33784 -0.271442
    outer loop
      vertex -31.0926 1.7 -3.47222
      vertex -31.0322 1.7 -3.67255
      vertex -31.5683 9.51905e-16 -4.00862
    endloop
  endfacet
  facet normal -0.884585 0.341688 -0.317425
    outer loop
      vertex -31.0322 1.7 -3.67255
      vertex -30.9906 1.7 -3.78866
      vertex -31.5683 9.51905e-16 -4.00862
    endloop
  endfacet
  facet normal -0.859862 0.341336 -0.37964
    outer loop
      vertex -31.5683 9.51905e-16 -4.00862
      vertex -30.9906 1.7 -3.78866
      vertex -31.4081 9.35119e-16 -4.37152
    endloop
  endfacet
  facet normal -0.867233 0.338252 -0.365366
    outer loop
      vertex -30.9906 1.7 -3.78866
      vertex -30.9038 1.7 -3.99465
      vertex -31.4081 9.35119e-16 -4.37152
    endloop
  endfacet
  facet normal -0.845958 0.3417 -0.409385
    outer loop
      vertex -31.4081 9.35119e-16 -4.37152
      vertex -30.9038 1.7 -3.99465
      vertex -30.8563 1.7 -4.0928
    endloop
  endfacet
  facet normal -0.934868 0.341335 -0.0975271
    outer loop
      vertex -31.7719 9.54581e-16 -3.2429
      vertex -31.813 9.40442e-16 -2.84835
      vertex -31.1957 1.7 -2.81623
    endloop
  endfacet
  facet normal -0.938474 0.337011 -0.0754291
    outer loop
      vertex -31.1957 1.7 -2.81623
      vertex -31.1812 1.7 -2.99626
      vertex -31.7719 9.54581e-16 -3.2429
    endloop
  endfacet
  facet normal -0.931629 0.341657 -0.123846
    outer loop
      vertex -31.1812 1.7 -2.99626
      vertex -31.1612 1.7 -3.14691
      vertex -31.7719 9.54581e-16 -3.2429
    endloop
  endfacet
  facet normal -0.919705 0.341335 -0.193995
    outer loop
      vertex -31.7719 9.54581e-16 -3.2429
      vertex -31.1612 1.7 -3.14691
      vertex -31.69 9.58416e-16 -3.63106
    endloop
  endfacet
  facet normal -0.92505 0.337426 -0.174431
    outer loop
      vertex -31.1612 1.7 -3.14691
      vertex -31.1251 1.7 -3.33845
      vertex -31.69 9.58416e-16 -3.63106
    endloop
  endfacet
  facet normal -0.913249 0.341673 -0.22189
    outer loop
      vertex -31.69 9.58416e-16 -3.63106
      vertex -31.1251 1.7 -3.33845
      vertex -31.0926 1.7 -3.47222
    endloop
  endfacet
  facet normal -0.935623 0.339238 0.0976059
    outer loop
      vertex -31.7719 8.81971e-16 -2.0571
      vertex -31.1812 1.7 -2.30374
      vertex -31.813 9.16151e-16 -2.45165
    endloop
  endfacet
  facet normal -0.936816 0.341622 0.0752959
    outer loop
      vertex -31.1812 1.7 -2.30374
      vertex -31.1957 1.7 -2.48377
      vertex -31.813 9.16151e-16 -2.45165
    endloop
  endfacet
  facet normal -0.939942 0.341335 2.09007e-17
    outer loop
      vertex -31.813 9.16151e-16 -2.45165
      vertex -31.1957 1.7 -2.48377
      vertex -31.813 9.40442e-16 -2.84835
    endloop
  endfacet
  facet normal -0.941332 0.336594 0.0244597
    outer loop
      vertex -31.1957 1.7 -2.48377
      vertex -31.2 1.7 -2.65
      vertex -31.813 9.40442e-16 -2.84835
    endloop
  endfacet
  facet normal -0.939514 0.34164 -0.0244125
    outer loop
      vertex -31.813 9.40442e-16 -2.84835
      vertex -31.2 1.7 -2.65
      vertex -31.1957 1.7 -2.81623
    endloop
  endfacet
  facet normal -0.920431 0.339284 0.194148
    outer loop
      vertex -31.69 8.38271e-16 -1.66894
      vertex -31.1251 1.7 -1.96155
      vertex -31.7719 8.81971e-16 -2.0571
    endloop
  endfacet
  facet normal -0.923569 0.341602 0.174152
    outer loop
      vertex -31.1251 1.7 -1.96155
      vertex -31.1612 1.7 -2.15309
      vertex -31.7719 8.81971e-16 -2.0571
    endloop
  endfacet
  facet normal -0.931629 0.341657 0.123846
    outer loop
      vertex -31.7719 8.81971e-16 -2.0571
      vertex -31.1612 1.7 -2.15309
      vertex -31.1812 1.7 -2.30374
    endloop
  endfacet
  facet normal -0.895292 0.339364 0.28859
    outer loop
      vertex -31.5683 7.85522e-16 -1.29138
      vertex -31.0322 1.7 -1.62745
      vertex -31.69 8.38271e-16 -1.66894
    endloop
  endfacet
  facet normal -0.899918 0.341582 0.271052
    outer loop
      vertex -31.0322 1.7 -1.62745
      vertex -31.0926 1.7 -1.82778
      vertex -31.69 8.38271e-16 -1.66894
    endloop
  endfacet
  facet normal -0.913249 0.341673 0.22189
    outer loop
      vertex -31.69 8.38271e-16 -1.66894
      vertex -31.0926 1.7 -1.82778
      vertex -31.1251 1.7 -1.96155
    endloop
  endfacet
  facet normal -0.860479 0.339474 0.379912
    outer loop
      vertex -31.4081 7.24293e-16 -0.928476
      vertex -30.9038 1.7 -1.30535
      vertex -31.5683 7.85522e-16 -1.29138
    endloop
  endfacet
  facet normal -0.866132 0.34156 0.364902
    outer loop
      vertex -30.9038 1.7 -1.30535
      vertex -30.9906 1.7 -1.51134
      vertex -31.5683 7.85522e-16 -1.29138
    endloop
  endfacet
  facet normal -0.884585 0.341688 0.317425
    outer loop
      vertex -31.5683 7.85522e-16 -1.29138
      vertex -30.9906 1.7 -1.51134
      vertex -31.0322 1.7 -1.62745
    endloop
  endfacet
  facet normal -0.816372 0.339615 0.467118
    outer loop
      vertex -31.211 6.55246e-16 -0.584159
      vertex -30.7412 1.7 -0.999044
      vertex -31.4081 7.24293e-16 -0.928476
    endloop
  endfacet
  facet normal -0.822587 0.341535 0.454647
    outer loop
      vertex -30.7412 1.7 -0.999044
      vertex -30.8563 1.7 -1.2072
      vertex -31.4081 7.24293e-16 -0.928476
    endloop
  endfacet
  facet normal -0.845957 0.3417 0.409386
    outer loop
      vertex -31.4081 7.24293e-16 -0.928476
      vertex -30.8563 1.7 -1.2072
      vertex -30.9038 1.7 -1.30535
    endloop
  endfacet
  facet normal -0.7083 0.341482 0.61782
    outer loop
      vertex -30.3219 1.7 -0.447957
      vertex -30.497 1.7 -0.648748
      vertex -30.9794 5.79126e-16 -0.262142
    endloop
  endfacet
  facet normal -0.740664 0.341719 0.578485
    outer loop
      vertex -30.497 1.7 -0.648748
      vertex -30.5465 1.7 -0.712123
      vertex -30.9794 5.79126e-16 -0.262142
    endloop
  endfacet
  facet normal -0.763448 0.339787 0.549265
    outer loop
      vertex -30.9794 5.79126e-16 -0.262142
      vertex -30.5465 1.7 -0.712123
      vertex -31.211 6.55246e-16 -0.584159
    endloop
  endfacet
  facet normal -0.769779 0.341509 0.539269
    outer loop
      vertex -30.5465 1.7 -0.712123
      vertex -30.6912 1.7 -0.918629
      vertex -31.211 6.55246e-16 -0.584159
    endloop
  endfacet
  facet normal -0.797806 0.34171 0.496729
    outer loop
      vertex -31.211 6.55246e-16 -0.584159
      vertex -30.6912 1.7 -0.918629
      vertex -30.7412 1.7 -0.999044
    endloop
  endfacet
  facet normal 0.562787 0.338639 0.754052
    outer loop
      vertex -25.7648 0.966321 7.21819e-16
      vertex -25.9698 1.7 -0.176474
      vertex -26.2063 1.7 4.33681e-16
    endloop
  endfacet
  facet normal 0.705781 0.341428 0.620725
    outer loop
      vertex -25.0206 -1.08839e-15 -0.262142
      vertex -25.503 1.7 -0.648748
      vertex -25.2512 -8.67362e-16 8.67362e-16
    endloop
  endfacet
  facet normal 0.708491 0.340784 0.617986
    outer loop
      vertex -25.503 1.7 -0.648748
      vertex -25.6781 1.7 -0.447957
      vertex -25.2512 -8.67362e-16 8.67362e-16
    endloop
  endfacet
  facet normal 0.673607 0.34185 0.65528
    outer loop
      vertex -25.2512 -8.67362e-16 8.67362e-16
      vertex -25.6781 1.7 -0.447957
      vertex -25.3046 0.105169 7.81136e-16
    endloop
  endfacet
  facet normal 0.675163 0.341775 0.653717
    outer loop
      vertex -25.6781 1.7 -0.447957
      vertex -25.7241 1.7 -0.40047
      vertex -25.3046 0.105169 7.81136e-16
    endloop
  endfacet
  facet normal 0.638419 0.341201 0.68993
    outer loop
      vertex -25.3046 0.105169 7.81136e-16
      vertex -25.7241 1.7 -0.40047
      vertex -25.7648 0.966321 7.21819e-16
    endloop
  endfacet
  facet normal 0.638963 0.340961 0.689545
    outer loop
      vertex -25.7241 1.7 -0.40047
      vertex -25.93 1.7 -0.209651
      vertex -25.7648 0.966321 7.21819e-16
    endloop
  endfacet
  facet normal 0.60207 0.341806 0.721582
    outer loop
      vertex -25.7648 0.966321 7.21819e-16
      vertex -25.93 1.7 -0.209651
      vertex -25.9698 1.7 -0.176474
    endloop
  endfacet
  facet normal 0.562786 0.338638 -0.754053
    outer loop
      vertex -26.2063 1.7 -5.3
      vertex -25.9698 1.7 -5.12353
      vertex -25.7648 0.966321 -5.3
    endloop
  endfacet
  facet normal 0.602072 0.341806 -0.72158
    outer loop
      vertex -25.9698 1.7 -5.12353
      vertex -25.93 1.7 -5.09035
      vertex -25.7648 0.966321 -5.3
    endloop
  endfacet
  facet normal 0.638029 0.340993 -0.690394
    outer loop
      vertex -25.7648 0.966321 -5.3
      vertex -25.93 1.7 -5.09035
      vertex -25.3046 0.105169 -5.3
    endloop
  endfacet
  facet normal 0.638901 0.341214 -0.689477
    outer loop
      vertex -25.93 1.7 -5.09035
      vertex -25.7241 1.7 -4.89953
      vertex -25.3046 0.105169 -5.3
    endloop
  endfacet
  facet normal 0.673447 0.341768 -0.655488
    outer loop
      vertex -25.3046 0.105169 -5.3
      vertex -25.7241 1.7 -4.89953
      vertex -25.2512 -6.50521e-16 -5.3
    endloop
  endfacet
  facet normal 0.675149 0.341822 -0.653706
    outer loop
      vertex -25.7241 1.7 -4.89953
      vertex -25.6781 1.7 -4.85204
      vertex -25.2512 -6.50521e-16 -5.3
    endloop
  endfacet
  facet normal 0.705926 0.340895 -0.620853
    outer loop
      vertex -25.2512 -6.50521e-16 -5.3
      vertex -25.6781 1.7 -4.85204
      vertex -25.0206 -7.95966e-16 -5.03786
    endloop
  endfacet
  facet normal 0.815831 0.341335 0.466809
    outer loop
      vertex -24.789 -1.12508e-15 -0.584159
      vertex -24.5919 -1.15196e-15 -0.928476
      vertex -25.1437 1.7 -1.2072
    endloop
  endfacet
  facet normal 0.823497 0.338662 0.45515
    outer loop
      vertex -25.1437 1.7 -1.2072
      vertex -25.2588 1.7 -0.999044
      vertex -24.789 -1.12508e-15 -0.584159
    endloop
  endfacet
  facet normal 0.797806 0.34171 0.496729
    outer loop
      vertex -25.2588 1.7 -0.999044
      vertex -25.3088 1.7 -0.918629
      vertex -24.789 -1.12508e-15 -0.584159
    endloop
  endfacet
  facet normal 0.762995 0.341335 0.548934
    outer loop
      vertex -24.789 -1.12508e-15 -0.584159
      vertex -25.3088 1.7 -0.918629
      vertex -25.0206 -1.08839e-15 -0.262142
    endloop
  endfacet
  facet normal 0.770502 0.339071 0.539776
    outer loop
      vertex -25.3088 1.7 -0.918629
      vertex -25.4535 1.7 -0.712123
      vertex -25.0206 -1.08839e-15 -0.262142
    endloop
  endfacet
  facet normal 0.740664 0.341719 0.578485
    outer loop
      vertex -25.0206 -1.08839e-15 -0.262142
      vertex -25.4535 1.7 -0.712123
      vertex -25.503 1.7 -0.648748
    endloop
  endfacet
  facet normal 0.894612 0.341335 0.288375
    outer loop
      vertex -24.4317 -1.16875e-15 -1.29138
      vertex -24.31 -1.17526e-15 -1.66894
      vertex -24.9074 1.7 -1.82778
    endloop
  endfacet
  facet normal 0.901212 0.337839 0.271442
    outer loop
      vertex -24.9074 1.7 -1.82778
      vertex -24.9678 1.7 -1.62745
      vertex -24.4317 -1.16875e-15 -1.29138
    endloop
  endfacet
  facet normal 0.884585 0.341687 0.317426
    outer loop
      vertex -24.9678 1.7 -1.62745
      vertex -25.0094 1.7 -1.51134
      vertex -24.4317 -1.16875e-15 -1.29138
    endloop
  endfacet
  facet normal 0.859863 0.341335 0.37964
    outer loop
      vertex -24.4317 -1.16875e-15 -1.29138
      vertex -25.0094 1.7 -1.51134
      vertex -24.5919 -1.15196e-15 -0.928476
    endloop
  endfacet
  facet normal 0.867233 0.338251 0.365366
    outer loop
      vertex -25.0094 1.7 -1.51134
      vertex -25.0962 1.7 -1.30535
      vertex -24.5919 -1.15196e-15 -0.928476
    endloop
  endfacet
  facet normal 0.845958 0.341699 0.409386
    outer loop
      vertex -24.5919 -1.15196e-15 -0.928476
      vertex -25.0962 1.7 -1.30535
      vertex -25.1437 1.7 -1.2072
    endloop
  endfacet
  facet normal 0.934869 0.341335 0.0975228
    outer loop
      vertex -24.2281 -1.17142e-15 -2.0571
      vertex -24.187 -1.15728e-15 -2.45165
      vertex -24.8043 1.7 -2.48377
    endloop
  endfacet
  facet normal 0.938474 0.337012 0.0754291
    outer loop
      vertex -24.8043 1.7 -2.48377
      vertex -24.8188 1.7 -2.30374
      vertex -24.2281 -1.17142e-15 -2.0571
    endloop
  endfacet
  facet normal 0.931629 0.341658 0.123846
    outer loop
      vertex -24.8188 1.7 -2.30374
      vertex -24.8388 1.7 -2.15309
      vertex -24.2281 -1.17142e-15 -2.0571
    endloop
  endfacet
  facet normal 0.919703 0.341335 0.193999
    outer loop
      vertex -24.2281 -1.17142e-15 -2.0571
      vertex -24.8388 1.7 -2.15309
      vertex -24.31 -1.17526e-15 -1.66894
    endloop
  endfacet
  facet normal 0.92505 0.337426 0.174431
    outer loop
      vertex -24.8388 1.7 -2.15309
      vertex -24.8749 1.7 -1.96155
      vertex -24.31 -1.17526e-15 -1.66894
    endloop
  endfacet
  facet normal 0.913249 0.341673 0.22189
    outer loop
      vertex -24.31 -1.17526e-15 -1.66894
      vertex -24.8749 1.7 -1.96155
      vertex -24.9074 1.7 -1.82778
    endloop
  endfacet
  facet normal 0.935624 0.339238 -0.0976015
    outer loop
      vertex -24.2281 -1.09881e-15 -3.2429
      vertex -24.8188 1.7 -2.99626
      vertex -24.187 -1.13299e-15 -2.84835
    endloop
  endfacet
  facet normal 0.936816 0.341622 -0.0752958
    outer loop
      vertex -24.8188 1.7 -2.99626
      vertex -24.8043 1.7 -2.81623
      vertex -24.187 -1.13299e-15 -2.84835
    endloop
  endfacet
  facet normal 0.939942 0.341335 2.09007e-17
    outer loop
      vertex -24.187 -1.13299e-15 -2.84835
      vertex -24.8043 1.7 -2.81623
      vertex -24.187 -1.15728e-15 -2.45165
    endloop
  endfacet
  facet normal 0.941332 0.336594 -0.0244597
    outer loop
      vertex -24.8043 1.7 -2.81623
      vertex -24.8 1.7 -2.65
      vertex -24.187 -1.15728e-15 -2.45165
    endloop
  endfacet
  facet normal 0.939514 0.34164 0.0244125
    outer loop
      vertex -24.187 -1.15728e-15 -2.45165
      vertex -24.8 1.7 -2.65
      vertex -24.8043 1.7 -2.48377
    endloop
  endfacet
  facet normal 0.92043 0.339285 -0.194153
    outer loop
      vertex -24.31 -1.05511e-15 -3.63106
      vertex -24.8749 1.7 -3.33845
      vertex -24.2281 -1.09881e-15 -3.2429
    endloop
  endfacet
  facet normal 0.923568 0.341603 -0.174152
    outer loop
      vertex -24.8749 1.7 -3.33845
      vertex -24.8388 1.7 -3.14691
      vertex -24.2281 -1.09881e-15 -3.2429
    endloop
  endfacet
  facet normal 0.931629 0.341658 -0.123846
    outer loop
      vertex -24.2281 -1.09881e-15 -3.2429
      vertex -24.8388 1.7 -3.14691
      vertex -24.8188 1.7 -2.99626
    endloop
  endfacet
  facet normal 0.895291 0.339363 -0.288594
    outer loop
      vertex -24.4317 -1.00236e-15 -4.00862
      vertex -24.9678 1.7 -3.67255
      vertex -24.31 -1.05511e-15 -3.63106
    endloop
  endfacet
  facet normal 0.899918 0.341582 -0.271052
    outer loop
      vertex -24.9678 1.7 -3.67255
      vertex -24.9074 1.7 -3.47222
      vertex -24.31 -1.05511e-15 -3.63106
    endloop
  endfacet
  facet normal 0.913249 0.341673 -0.22189
    outer loop
      vertex -24.31 -1.05511e-15 -3.63106
      vertex -24.9074 1.7 -3.47222
      vertex -24.8749 1.7 -3.33845
    endloop
  endfacet
  facet normal 0.860479 0.339473 -0.379912
    outer loop
      vertex -24.5919 -9.41133e-16 -4.37152
      vertex -25.0962 1.7 -3.99465
      vertex -24.4317 -1.00236e-15 -4.00862
    endloop
  endfacet
  facet normal 0.866132 0.341559 -0.364902
    outer loop
      vertex -25.0962 1.7 -3.99465
      vertex -25.0094 1.7 -3.78866
      vertex -24.4317 -1.00236e-15 -4.00862
    endloop
  endfacet
  facet normal 0.884585 0.341687 -0.317426
    outer loop
      vertex -24.4317 -1.00236e-15 -4.00862
      vertex -25.0094 1.7 -3.78866
      vertex -24.9678 1.7 -3.67255
    endloop
  endfacet
  facet normal 0.816372 0.339614 -0.467118
    outer loop
      vertex -24.789 -8.72086e-16 -4.71584
      vertex -25.2588 1.7 -4.30096
      vertex -24.5919 -9.41133e-16 -4.37152
    endloop
  endfacet
  facet normal 0.822587 0.341534 -0.454648
    outer loop
      vertex -25.2588 1.7 -4.30096
      vertex -25.1437 1.7 -4.0928
      vertex -24.5919 -9.41133e-16 -4.37152
    endloop
  endfacet
  facet normal 0.845958 0.341699 -0.409386
    outer loop
      vertex -24.5919 -9.41133e-16 -4.37152
      vertex -25.1437 1.7 -4.0928
      vertex -25.0962 1.7 -3.99465
    endloop
  endfacet
  facet normal 0.7083 0.341482 -0.61782
    outer loop
      vertex -25.6781 1.7 -4.85204
      vertex -25.503 1.7 -4.65125
      vertex -25.0206 -7.95966e-16 -5.03786
    endloop
  endfacet
  facet normal 0.740663 0.341719 -0.578485
    outer loop
      vertex -25.503 1.7 -4.65125
      vertex -25.4535 1.7 -4.58788
      vertex -25.0206 -7.95966e-16 -5.03786
    endloop
  endfacet
  facet normal 0.76345 0.339786 -0.549262
    outer loop
      vertex -25.0206 -7.95966e-16 -5.03786
      vertex -25.4535 1.7 -4.58788
      vertex -24.789 -8.72086e-16 -4.71584
    endloop
  endfacet
  facet normal 0.76978 0.341508 -0.539269
    outer loop
      vertex -25.4535 1.7 -4.58788
      vertex -25.3088 1.7 -4.38137
      vertex -24.789 -8.72086e-16 -4.71584
    endloop
  endfacet
  facet normal 0.797806 0.34171 -0.496729
    outer loop
      vertex -24.789 -8.72086e-16 -4.71584
      vertex -25.3088 1.7 -4.38137
      vertex -25.2588 1.7 -4.30096
    endloop
  endfacet
  facet normal -0.598126 -7.09291e-17 0.801402
    outer loop
      vertex -29.7937 1.7 -4.33681e-16
      vertex -29.7937 11.5 4.33681e-16
      vertex -30.0302 1.7 -0.176474
    endloop
  endfacet
  facet normal -0.598126 0 0.801402
    outer loop
      vertex -29.7937 11.5 4.33681e-16
      vertex -30.0302 11.5 -0.176474
      vertex -30.0302 1.7 -0.176474
    endloop
  endfacet
  facet normal -0.640657 0 0.767827
    outer loop
      vertex -30.0302 1.7 -0.176474
      vertex -30.0302 11.5 -0.176474
      vertex -30.07 1.7 -0.209651
    endloop
  endfacet
  facet normal -0.640657 0 0.767827
    outer loop
      vertex -30.0302 11.5 -0.176474
      vertex -30.07 11.5 -0.209651
      vertex -30.07 1.7 -0.209651
    endloop
  endfacet
  facet normal -0.679692 0 0.733498
    outer loop
      vertex -30.07 1.7 -0.209651
      vertex -30.07 11.5 -0.209651
      vertex -30.2759 1.7 -0.40047
    endloop
  endfacet
  facet normal -0.679692 0 0.733498
    outer loop
      vertex -30.07 11.5 -0.209651
      vertex -30.2759 11.5 -0.40047
      vertex -30.2759 1.7 -0.40047
    endloop
  endfacet
  facet normal -0.718425 0 0.695605
    outer loop
      vertex -30.2759 1.7 -0.40047
      vertex -30.2759 11.5 -0.40047
      vertex -30.3219 1.7 -0.447957
    endloop
  endfacet
  facet normal -0.718425 0 0.695605
    outer loop
      vertex -30.2759 11.5 -0.40047
      vertex -30.3219 11.5 -0.447957
      vertex -30.3219 1.7 -0.447957
    endloop
  endfacet
  facet normal -0.7536 0 0.657333
    outer loop
      vertex -30.3219 1.7 -0.447957
      vertex -30.3219 11.5 -0.447957
      vertex -30.497 1.7 -0.648748
    endloop
  endfacet
  facet normal -0.7536 0 0.657333
    outer loop
      vertex -30.3219 11.5 -0.447957
      vertex -30.497 11.5 -0.648748
      vertex -30.497 1.7 -0.648748
    endloop
  endfacet
  facet normal -0.788106 0 0.615539
    outer loop
      vertex -30.497 1.7 -0.648748
      vertex -30.497 11.5 -0.648748
      vertex -30.5465 1.7 -0.712123
    endloop
  endfacet
  facet normal -0.788106 0 0.615539
    outer loop
      vertex -30.497 11.5 -0.648748
      vertex -30.5465 11.5 -0.712123
      vertex -30.5465 1.7 -0.712123
    endloop
  endfacet
  facet normal -0.81902 0 0.573765
    outer loop
      vertex -30.5465 1.7 -0.712123
      vertex -30.5465 11.5 -0.712123
      vertex -30.6912 1.7 -0.918629
    endloop
  endfacet
  facet normal -0.81902 0 0.573765
    outer loop
      vertex -30.5465 11.5 -0.712123
      vertex -30.6912 11.5 -0.918629
      vertex -30.6912 1.7 -0.918629
    endloop
  endfacet
  facet normal -0.848905 0 0.528545
    outer loop
      vertex -30.6912 1.7 -0.918629
      vertex -30.6912 11.5 -0.918629
      vertex -30.7412 1.7 -0.999044
    endloop
  endfacet
  facet normal -0.848905 0 0.528545
    outer loop
      vertex -30.6912 11.5 -0.918629
      vertex -30.7412 11.5 -0.999044
      vertex -30.7412 1.7 -0.999044
    endloop
  endfacet
  facet normal -0.875215 0 0.483735
    outer loop
      vertex -30.7412 1.7 -0.999044
      vertex -30.7412 11.5 -0.999044
      vertex -30.8563 1.7 -1.2072
    endloop
  endfacet
  facet normal -0.875215 0 0.483735
    outer loop
      vertex -30.7412 11.5 -0.999044
      vertex -30.8563 11.5 -1.2072
      vertex -30.8563 1.7 -1.2072
    endloop
  endfacet
  facet normal -0.900138 0 0.435606
    outer loop
      vertex -30.8563 1.7 -1.2072
      vertex -30.8563 11.5 -1.2072
      vertex -30.9038 1.7 -1.30535
    endloop
  endfacet
  facet normal -0.900138 0 0.435606
    outer loop
      vertex -30.8563 11.5 -1.2072
      vertex -30.9038 11.5 -1.30535
      vertex -30.9038 1.7 -1.30535
    endloop
  endfacet
  facet normal -0.921554 0 0.388251
    outer loop
      vertex -30.9038 1.7 -1.30535
      vertex -30.9038 11.5 -1.30535
      vertex -30.9906 1.7 -1.51134
    endloop
  endfacet
  facet normal -0.921554 0 0.388251
    outer loop
      vertex -30.9038 11.5 -1.30535
      vertex -30.9906 11.5 -1.51134
      vertex -30.9906 1.7 -1.51134
    endloop
  endfacet
  facet normal -0.941235 0 0.337754
    outer loop
      vertex -30.9906 1.7 -1.51134
      vertex -30.9906 11.5 -1.51134
      vertex -31.0322 1.7 -1.62745
    endloop
  endfacet
  facet normal -0.941235 0 0.337754
    outer loop
      vertex -30.9906 11.5 -1.51134
      vertex -31.0322 11.5 -1.62745
      vertex -31.0322 1.7 -1.62745
    endloop
  endfacet
  facet normal -0.95751 0 0.288399
    outer loop
      vertex -31.0322 1.7 -1.62745
      vertex -31.0322 11.5 -1.62745
      vertex -31.0926 1.7 -1.82778
    endloop
  endfacet
  facet normal -0.95751 0 0.288399
    outer loop
      vertex -31.0322 11.5 -1.62745
      vertex -31.0926 11.5 -1.82778
      vertex -31.0926 1.7 -1.82778
    endloop
  endfacet
  facet normal -0.971729 0 0.236099
    outer loop
      vertex -31.0926 1.7 -1.82778
      vertex -31.0926 11.5 -1.82778
      vertex -31.1251 1.7 -1.96155
    endloop
  endfacet
  facet normal -0.971729 0 0.236099
    outer loop
      vertex -31.0926 11.5 -1.82778
      vertex -31.1251 11.5 -1.96155
      vertex -31.1251 1.7 -1.96155
    endloop
  endfacet
  facet normal -0.982682 0 0.185298
    outer loop
      vertex -31.1251 1.7 -1.96155
      vertex -31.1251 11.5 -1.96155
      vertex -31.1612 1.7 -2.15309
    endloop
  endfacet
  facet normal -0.982682 0 0.185298
    outer loop
      vertex -31.1251 11.5 -1.96155
      vertex -31.1612 11.5 -2.15309
      vertex -31.1612 1.7 -2.15309
    endloop
  endfacet
  facet normal -0.99128 0 0.131775
    outer loop
      vertex -31.1612 1.7 -2.15309
      vertex -31.1612 11.5 -2.15309
      vertex -31.1812 1.7 -2.30374
    endloop
  endfacet
  facet normal -0.99128 0 0.131775
    outer loop
      vertex -31.1612 11.5 -2.15309
      vertex -31.1812 11.5 -2.30374
      vertex -31.1812 1.7 -2.30374
    endloop
  endfacet
  facet normal -0.996786 0 0.0801159
    outer loop
      vertex -31.1812 1.7 -2.30374
      vertex -31.1812 11.5 -2.30374
      vertex -31.1957 1.7 -2.48377
    endloop
  endfacet
  facet normal -0.996786 0 0.0801159
    outer loop
      vertex -31.1812 11.5 -2.30374
      vertex -31.1957 11.5 -2.48377
      vertex -31.1957 1.7 -2.48377
    endloop
  endfacet
  facet normal -0.999663 0 0.0259754
    outer loop
      vertex -31.1957 1.7 -2.48377
      vertex -31.1957 11.5 -2.48377
      vertex -31.2 1.7 -2.65
    endloop
  endfacet
  facet normal -0.999663 0 0.0259754
    outer loop
      vertex -31.1957 11.5 -2.48377
      vertex -31.2 11.5 -2.65
      vertex -31.2 1.7 -2.65
    endloop
  endfacet
  facet normal -0.999663 0 -0.0259754
    outer loop
      vertex -31.2 1.7 -2.65
      vertex -31.2 11.5 -2.65
      vertex -31.1957 1.7 -2.81623
    endloop
  endfacet
  facet normal -0.999663 0 -0.0259754
    outer loop
      vertex -31.2 11.5 -2.65
      vertex -31.1957 11.5 -2.81623
      vertex -31.1957 1.7 -2.81623
    endloop
  endfacet
  facet normal -0.996786 0 -0.0801158
    outer loop
      vertex -31.1957 1.7 -2.81623
      vertex -31.1957 11.5 -2.81623
      vertex -31.1812 1.7 -2.99626
    endloop
  endfacet
  facet normal -0.996786 0 -0.0801158
    outer loop
      vertex -31.1957 11.5 -2.81623
      vertex -31.1812 11.5 -2.99626
      vertex -31.1812 1.7 -2.99626
    endloop
  endfacet
  facet normal -0.99128 0 -0.131775
    outer loop
      vertex -31.1812 1.7 -2.99626
      vertex -31.1812 11.5 -2.99626
      vertex -31.1612 1.7 -3.14691
    endloop
  endfacet
  facet normal -0.99128 0 -0.131775
    outer loop
      vertex -31.1812 11.5 -2.99626
      vertex -31.1612 11.5 -3.14691
      vertex -31.1612 1.7 -3.14691
    endloop
  endfacet
  facet normal -0.982682 0 -0.185299
    outer loop
      vertex -31.1612 1.7 -3.14691
      vertex -31.1612 11.5 -3.14691
      vertex -31.1251 1.7 -3.33845
    endloop
  endfacet
  facet normal -0.982682 0 -0.185299
    outer loop
      vertex -31.1612 11.5 -3.14691
      vertex -31.1251 11.5 -3.33845
      vertex -31.1251 1.7 -3.33845
    endloop
  endfacet
  facet normal -0.971729 0 -0.236098
    outer loop
      vertex -31.1251 1.7 -3.33845
      vertex -31.1251 11.5 -3.33845
      vertex -31.0926 1.7 -3.47222
    endloop
  endfacet
  facet normal -0.971729 0 -0.236098
    outer loop
      vertex -31.1251 11.5 -3.33845
      vertex -31.0926 11.5 -3.47222
      vertex -31.0926 1.7 -3.47222
    endloop
  endfacet
  facet normal -0.95751 0 -0.288399
    outer loop
      vertex -31.0926 1.7 -3.47222
      vertex -31.0926 11.5 -3.47222
      vertex -31.0322 1.7 -3.67255
    endloop
  endfacet
  facet normal -0.95751 0 -0.288399
    outer loop
      vertex -31.0926 11.5 -3.47222
      vertex -31.0322 11.5 -3.67255
      vertex -31.0322 1.7 -3.67255
    endloop
  endfacet
  facet normal -0.941235 0 -0.337754
    outer loop
      vertex -31.0322 1.7 -3.67255
      vertex -31.0322 11.5 -3.67255
      vertex -30.9906 1.7 -3.78866
    endloop
  endfacet
  facet normal -0.941235 0 -0.337754
    outer loop
      vertex -31.0322 11.5 -3.67255
      vertex -30.9906 11.5 -3.78866
      vertex -30.9906 1.7 -3.78866
    endloop
  endfacet
  facet normal -0.921554 0 -0.388251
    outer loop
      vertex -30.9906 1.7 -3.78866
      vertex -30.9906 11.5 -3.78866
      vertex -30.9038 1.7 -3.99465
    endloop
  endfacet
  facet normal -0.921554 0 -0.388251
    outer loop
      vertex -30.9906 11.5 -3.78866
      vertex -30.9038 11.5 -3.99465
      vertex -30.9038 1.7 -3.99465
    endloop
  endfacet
  facet normal -0.900138 0 -0.435605
    outer loop
      vertex -30.9038 1.7 -3.99465
      vertex -30.9038 11.5 -3.99465
      vertex -30.8563 1.7 -4.0928
    endloop
  endfacet
  facet normal -0.900138 0 -0.435605
    outer loop
      vertex -30.9038 11.5 -3.99465
      vertex -30.8563 11.5 -4.0928
      vertex -30.8563 1.7 -4.0928
    endloop
  endfacet
  facet normal -0.875214 0 -0.483735
    outer loop
      vertex -30.8563 1.7 -4.0928
      vertex -30.8563 11.5 -4.0928
      vertex -30.7412 1.7 -4.30096
    endloop
  endfacet
  facet normal -0.875214 0 -0.483735
    outer loop
      vertex -30.8563 11.5 -4.0928
      vertex -30.7412 11.5 -4.30096
      vertex -30.7412 1.7 -4.30096
    endloop
  endfacet
  facet normal -0.848906 0 -0.528544
    outer loop
      vertex -30.7412 1.7 -4.30096
      vertex -30.7412 11.5 -4.30096
      vertex -30.6912 1.7 -4.38137
    endloop
  endfacet
  facet normal -0.848906 0 -0.528544
    outer loop
      vertex -30.7412 11.5 -4.30096
      vertex -30.6912 11.5 -4.38137
      vertex -30.6912 1.7 -4.38137
    endloop
  endfacet
  facet normal -0.81902 0 -0.573764
    outer loop
      vertex -30.6912 1.7 -4.38137
      vertex -30.6912 11.5 -4.38137
      vertex -30.5465 1.7 -4.58788
    endloop
  endfacet
  facet normal -0.81902 0 -0.573764
    outer loop
      vertex -30.6912 11.5 -4.38137
      vertex -30.5465 11.5 -4.58788
      vertex -30.5465 1.7 -4.58788
    endloop
  endfacet
  facet normal -0.788106 0 -0.61554
    outer loop
      vertex -30.5465 1.7 -4.58788
      vertex -30.5465 11.5 -4.58788
      vertex -30.497 1.7 -4.65125
    endloop
  endfacet
  facet normal -0.788106 0 -0.61554
    outer loop
      vertex -30.5465 11.5 -4.58788
      vertex -30.497 11.5 -4.65125
      vertex -30.497 1.7 -4.65125
    endloop
  endfacet
  facet normal -0.7536 0 -0.657333
    outer loop
      vertex -30.497 1.7 -4.65125
      vertex -30.497 11.5 -4.65125
      vertex -30.3219 1.7 -4.85204
    endloop
  endfacet
  facet normal -0.7536 0 -0.657333
    outer loop
      vertex -30.497 11.5 -4.65125
      vertex -30.3219 11.5 -4.85204
      vertex -30.3219 1.7 -4.85204
    endloop
  endfacet
  facet normal -0.718424 0 -0.695606
    outer loop
      vertex -30.3219 1.7 -4.85204
      vertex -30.3219 11.5 -4.85204
      vertex -30.2759 1.7 -4.89953
    endloop
  endfacet
  facet normal -0.718424 0 -0.695606
    outer loop
      vertex -30.3219 11.5 -4.85204
      vertex -30.2759 11.5 -4.89953
      vertex -30.2759 1.7 -4.89953
    endloop
  endfacet
  facet normal -0.679692 0 -0.733498
    outer loop
      vertex -30.2759 1.7 -4.89953
      vertex -30.2759 11.5 -4.89953
      vertex -30.07 1.7 -5.09035
    endloop
  endfacet
  facet normal -0.679692 0 -0.733498
    outer loop
      vertex -30.2759 11.5 -4.89953
      vertex -30.07 11.5 -5.09035
      vertex -30.07 1.7 -5.09035
    endloop
  endfacet
  facet normal -0.640658 0 -0.767826
    outer loop
      vertex -30.07 1.7 -5.09035
      vertex -30.07 11.5 -5.09035
      vertex -30.0302 1.7 -5.12353
    endloop
  endfacet
  facet normal -0.640658 0 -0.767826
    outer loop
      vertex -30.07 11.5 -5.09035
      vertex -30.0302 11.5 -5.12353
      vertex -30.0302 1.7 -5.12353
    endloop
  endfacet
  facet normal -0.598126 0 -0.801402
    outer loop
      vertex -30.0302 1.7 -5.12353
      vertex -30.0302 11.5 -5.12353
      vertex -29.7937 1.7 -5.3
    endloop
  endfacet
  facet normal -0.598126 0 -0.801402
    outer loop
      vertex -30.0302 11.5 -5.12353
      vertex -29.7937 11.5 -5.3
      vertex -29.7937 1.7 -5.3
    endloop
  endfacet
  facet normal 0.562715 -0.338969 -0.753957
    outer loop
      vertex -25.7721 12.2208 -5.3
      vertex -25.9698 11.5 -5.12353
      vertex -26.2063 11.5 -5.3
    endloop
  endfacet
  facet normal 0.638842 -0.341453 0.689414
    outer loop
      vertex -25.7241 11.5 -0.40047
      vertex -25.319 13.0666 1.57129e-15
      vertex -25.93 11.5 -0.209651
    endloop
  endfacet
  facet normal 0.636125 -0.340773 0.692256
    outer loop
      vertex -25.319 13.0666 1.57129e-15
      vertex -25.7721 12.2208 1.40919e-15
      vertex -25.93 11.5 -0.209651
    endloop
  endfacet
  facet normal 0.602063 -0.341835 0.721573
    outer loop
      vertex -25.93 11.5 -0.209651
      vertex -25.7721 12.2208 1.40919e-15
      vertex -25.9698 11.5 -0.176474
    endloop
  endfacet
  facet normal 0.562715 -0.338969 0.753957
    outer loop
      vertex -25.7721 12.2208 1.40919e-15
      vertex -26.2063 11.5 1.30104e-15
      vertex -25.9698 11.5 -0.176474
    endloop
  endfacet
  facet normal 0.714871 -0.355761 0.601991
    outer loop
      vertex -24.8788 13.7 -0.148435
      vertex -25.0038 13.7 1.73472e-15
      vertex -25.319 13.0666 1.57129e-15
    endloop
  endfacet
  facet normal 0.714871 -0.355761 -0.601992
    outer loop
      vertex -25.319 13.0666 -5.3
      vertex -25.0038 13.7 -5.3
      vertex -24.8788 13.7 -5.15157
    endloop
  endfacet
  facet normal 0.7083 -0.341481 -0.61782
    outer loop
      vertex -24.8788 13.7 -5.15157
      vertex -25.503 11.5 -4.65125
      vertex -25.6781 11.5 -4.85204
    endloop
  endfacet
  facet normal 0.700705 -0.340002 -0.627225
    outer loop
      vertex -24.8788 13.7 -5.15157
      vertex -25.6781 11.5 -4.85204
      vertex -25.319 13.0666 -5.3
    endloop
  endfacet
  facet normal 0.675174 -0.341727 -0.65373
    outer loop
      vertex -25.6781 11.5 -4.85204
      vertex -25.7241 11.5 -4.89953
      vertex -25.319 13.0666 -5.3
    endloop
  endfacet
  facet normal 0.637338 -0.341423 -0.690819
    outer loop
      vertex -25.319 13.0666 -5.3
      vertex -25.7241 11.5 -4.89953
      vertex -25.7721 12.2208 -5.3
    endloop
  endfacet
  facet normal 0.63904 -0.340648 -0.689628
    outer loop
      vertex -25.7241 11.5 -4.89953
      vertex -25.93 11.5 -5.09035
      vertex -25.7721 12.2208 -5.3
    endloop
  endfacet
  facet normal 0.602065 -0.341835 -0.721572
    outer loop
      vertex -25.7721 12.2208 -5.3
      vertex -25.93 11.5 -5.09035
      vertex -25.9698 11.5 -5.12353
    endloop
  endfacet
  facet normal 0.815832 -0.341335 -0.466807
    outer loop
      vertex -24.636 13.7 -4.81421
      vertex -24.4297 13.7 -4.4535
      vertex -25.1437 11.5 -4.0928
    endloop
  endfacet
  facet normal 0.823323 -0.33921 -0.455055
    outer loop
      vertex -25.1437 11.5 -4.0928
      vertex -25.2588 11.5 -4.30096
      vertex -24.636 13.7 -4.81421
    endloop
  endfacet
  facet normal 0.797806 -0.34171 -0.496729
    outer loop
      vertex -25.2588 11.5 -4.30096
      vertex -25.3088 11.5 -4.38137
      vertex -24.636 13.7 -4.81421
    endloop
  endfacet
  facet normal 0.762993 -0.341336 -0.548937
    outer loop
      vertex -24.636 13.7 -4.81421
      vertex -25.3088 11.5 -4.38137
      vertex -24.8788 13.7 -5.15157
    endloop
  endfacet
  facet normal 0.770365 -0.339536 -0.539679
    outer loop
      vertex -25.3088 11.5 -4.38137
      vertex -25.4535 11.5 -4.58788
      vertex -24.8788 13.7 -5.15157
    endloop
  endfacet
  facet normal 0.740664 -0.341719 -0.578486
    outer loop
      vertex -24.8788 13.7 -5.15157
      vertex -25.4535 11.5 -4.58788
      vertex -25.503 11.5 -4.65125
    endloop
  endfacet
  facet normal 0.894612 -0.341336 -0.288374
    outer loop
      vertex -24.2618 13.7 -4.07332
      vertex -24.1343 13.7 -3.67778
      vertex -24.9074 11.5 -3.47222
    endloop
  endfacet
  facet normal 0.900967 -0.338554 -0.271368
    outer loop
      vertex -24.9074 11.5 -3.47222
      vertex -24.9678 11.5 -3.67255
      vertex -24.2618 13.7 -4.07332
    endloop
  endfacet
  facet normal 0.884585 -0.341687 -0.317425
    outer loop
      vertex -24.9678 11.5 -3.67255
      vertex -25.0094 11.5 -3.78866
      vertex -24.2618 13.7 -4.07332
    endloop
  endfacet
  facet normal 0.859861 -0.341336 -0.379643
    outer loop
      vertex -24.2618 13.7 -4.07332
      vertex -25.0094 11.5 -3.78866
      vertex -24.4297 13.7 -4.4535
    endloop
  endfacet
  facet normal 0.867024 -0.338882 -0.365278
    outer loop
      vertex -25.0094 11.5 -3.78866
      vertex -25.0962 11.5 -3.99465
      vertex -24.4297 13.7 -4.4535
    endloop
  endfacet
  facet normal 0.845958 -0.341699 -0.409386
    outer loop
      vertex -24.4297 13.7 -4.4535
      vertex -25.0962 11.5 -3.99465
      vertex -25.1437 11.5 -4.0928
    endloop
  endfacet
  facet normal 0.934868 -0.341336 -0.0975259
    outer loop
      vertex -24.0485 13.7 -3.27114
      vertex -24.0054 13.7 -2.85779
      vertex -24.8043 11.5 -2.81623
    endloop
  endfacet
  facet normal 0.93816 -0.337892 -0.0754038
    outer loop
      vertex -24.8043 11.5 -2.81623
      vertex -24.8188 11.5 -2.99626
      vertex -24.0485 13.7 -3.27114
    endloop
  endfacet
  facet normal 0.931629 -0.341658 -0.123846
    outer loop
      vertex -24.8188 11.5 -2.99626
      vertex -24.8388 11.5 -3.14691
      vertex -24.0485 13.7 -3.27114
    endloop
  endfacet
  facet normal 0.919704 -0.341336 -0.193999
    outer loop
      vertex -24.0485 13.7 -3.27114
      vertex -24.8388 11.5 -3.14691
      vertex -24.1343 13.7 -3.67778
    endloop
  endfacet
  facet normal 0.924769 -0.338223 -0.174378
    outer loop
      vertex -24.8388 11.5 -3.14691
      vertex -24.8749 11.5 -3.33845
      vertex -24.1343 13.7 -3.67778
    endloop
  endfacet
  facet normal 0.913249 -0.341673 -0.22189
    outer loop
      vertex -24.1343 13.7 -3.67778
      vertex -24.8749 11.5 -3.33845
      vertex -24.9074 11.5 -3.47222
    endloop
  endfacet
  facet normal 0.935452 -0.339716 0.0975868
    outer loop
      vertex -24.0485 13.7 -2.02886
      vertex -24.8188 11.5 -2.30374
      vertex -24.0054 13.7 -2.44221
    endloop
  endfacet
  facet normal 0.936816 -0.341623 0.0752959
    outer loop
      vertex -24.8188 11.5 -2.30374
      vertex -24.8043 11.5 -2.48377
      vertex -24.0054 13.7 -2.44221
    endloop
  endfacet
  facet normal 0.939942 -0.341336 0
    outer loop
      vertex -24.0054 13.7 -2.44221
      vertex -24.8043 11.5 -2.48377
      vertex -24.0054 13.7 -2.85779
    endloop
  endfacet
  facet normal 0.940987 -0.337558 0.0244508
    outer loop
      vertex -24.8043 11.5 -2.48377
      vertex -24.8 11.5 -2.65
      vertex -24.0054 13.7 -2.85779
    endloop
  endfacet
  facet normal 0.939513 -0.341641 -0.0244125
    outer loop
      vertex -24.0054 13.7 -2.85779
      vertex -24.8 11.5 -2.65
      vertex -24.8043 11.5 -2.81623
    endloop
  endfacet
  facet normal 0.920265 -0.339751 0.194117
    outer loop
      vertex -24.1343 13.7 -1.62222
      vertex -24.8749 11.5 -1.96155
      vertex -24.0485 13.7 -2.02886
    endloop
  endfacet
  facet normal 0.923568 -0.341603 0.174152
    outer loop
      vertex -24.8749 11.5 -1.96155
      vertex -24.8388 11.5 -2.15309
      vertex -24.0485 13.7 -2.02886
    endloop
  endfacet
  facet normal 0.931629 -0.341658 0.123846
    outer loop
      vertex -24.0485 13.7 -2.02886
      vertex -24.8388 11.5 -2.15309
      vertex -24.8188 11.5 -2.30374
    endloop
  endfacet
  facet normal 0.895137 -0.339812 0.288543
    outer loop
      vertex -24.2618 13.7 -1.22668
      vertex -24.9678 11.5 -1.62745
      vertex -24.1343 13.7 -1.62222
    endloop
  endfacet
  facet normal 0.899918 -0.341582 0.271052
    outer loop
      vertex -24.9678 11.5 -1.62745
      vertex -24.9074 11.5 -1.82778
      vertex -24.1343 13.7 -1.62222
    endloop
  endfacet
  facet normal 0.913249 -0.341673 0.22189
    outer loop
      vertex -24.1343 13.7 -1.62222
      vertex -24.9074 11.5 -1.82778
      vertex -24.8749 11.5 -1.96155
    endloop
  endfacet
  facet normal 0.860338 -0.339897 0.379853
    outer loop
      vertex -24.4297 13.7 -0.846498
      vertex -25.0962 11.5 -1.30535
      vertex -24.2618 13.7 -1.22668
    endloop
  endfacet
  facet normal 0.866132 -0.341559 0.364902
    outer loop
      vertex -25.0962 11.5 -1.30535
      vertex -25.0094 11.5 -1.51134
      vertex -24.2618 13.7 -1.22668
    endloop
  endfacet
  facet normal 0.884585 -0.341687 0.317425
    outer loop
      vertex -24.2618 13.7 -1.22668
      vertex -25.0094 11.5 -1.51134
      vertex -24.9678 11.5 -1.62745
    endloop
  endfacet
  facet normal 0.81625 -0.340006 0.467046
    outer loop
      vertex -24.636 13.7 -0.485786
      vertex -25.2588 11.5 -0.999044
      vertex -24.4297 13.7 -0.846498
    endloop
  endfacet
  facet normal 0.822587 -0.341534 0.454647
    outer loop
      vertex -25.2588 11.5 -0.999044
      vertex -25.1437 11.5 -1.2072
      vertex -24.4297 13.7 -0.846498
    endloop
  endfacet
  facet normal 0.845958 -0.341699 0.409386
    outer loop
      vertex -24.4297 13.7 -0.846498
      vertex -25.1437 11.5 -1.2072
      vertex -25.0962 11.5 -1.30535
    endloop
  endfacet
  facet normal 0.675175 -0.341727 0.653729
    outer loop
      vertex -25.7241 11.5 -0.40047
      vertex -25.6781 11.5 -0.447957
      vertex -25.319 13.0666 1.57129e-15
    endloop
  endfacet
  facet normal 0.708886 -0.339335 0.618331
    outer loop
      vertex -25.6781 11.5 -0.447957
      vertex -25.503 11.5 -0.648748
      vertex -25.319 13.0666 1.57129e-15
    endloop
  endfacet
  facet normal 0.701921 -0.341335 0.625138
    outer loop
      vertex -25.319 13.0666 1.57129e-15
      vertex -25.503 11.5 -0.648748
      vertex -24.8788 13.7 -0.148435
    endloop
  endfacet
  facet normal 0.740664 -0.341719 0.578485
    outer loop
      vertex -25.503 11.5 -0.648748
      vertex -25.4535 11.5 -0.712123
      vertex -24.8788 13.7 -0.148435
    endloop
  endfacet
  facet normal 0.763345 -0.340139 0.549191
    outer loop
      vertex -24.8788 13.7 -0.148435
      vertex -25.4535 11.5 -0.712123
      vertex -24.636 13.7 -0.485786
    endloop
  endfacet
  facet normal 0.769779 -0.341509 0.539269
    outer loop
      vertex -25.4535 11.5 -0.712123
      vertex -25.3088 11.5 -0.918629
      vertex -24.636 13.7 -0.485786
    endloop
  endfacet
  facet normal 0.797806 -0.34171 0.496729
    outer loop
      vertex -24.636 13.7 -0.485786
      vertex -25.3088 11.5 -0.918629
      vertex -25.2588 11.5 -0.999044
    endloop
  endfacet
  facet normal 0 1 0
    outer loop
      vertex -24.8788 13.7 -5.15157
      vertex -25.0038 13.7 -5.3
      vertex -26.9 13.7 -5.3
    endloop
  endfacet
  facet normal 0 1 0
    outer loop
      vertex -26.9 13.7 1.73472e-15
      vertex -25.0038 13.7 1.73472e-15
      vertex -26.9 13.7 -5.3
    endloop
  endfacet
  facet normal 0 1 0
    outer loop
      vertex -25.0038 13.7 1.73472e-15
      vertex -24.8788 13.7 -0.148435
      vertex -26.9 13.7 -5.3
    endloop
  endfacet
  facet normal 0 1 0
    outer loop
      vertex -26.9 13.7 -5.3
      vertex -24.8788 13.7 -0.148435
      vertex -24.636 13.7 -0.485786
    endloop
  endfacet
  facet normal 0 1 0
    outer loop
      vertex -24.636 13.7 -0.485786
      vertex -24.4297 13.7 -0.846498
      vertex -26.9 13.7 -5.3
    endloop
  endfacet
  facet normal 0 1 0
    outer loop
      vertex -24.4297 13.7 -0.846498
      vertex -24.2618 13.7 -1.22668
      vertex -26.9 13.7 -5.3
    endloop
  endfacet
  facet normal 0 1 0
    outer loop
      vertex -26.9 13.7 -5.3
      vertex -24.2618 13.7 -1.22668
      vertex -24.1343 13.7 -1.62222
    endloop
  endfacet
  facet normal 0 1 0
    outer loop
      vertex -24.1343 13.7 -1.62222
      vertex -24.0485 13.7 -2.02886
      vertex -26.9 13.7 -5.3
    endloop
  endfacet
  facet normal 0 1 0
    outer loop
      vertex -24.0485 13.7 -2.02886
      vertex -24.0054 13.7 -2.44221
      vertex -26.9 13.7 -5.3
    endloop
  endfacet
  facet normal 0 1 0
    outer loop
      vertex -26.9 13.7 -5.3
      vertex -24.0054 13.7 -2.44221
      vertex -24.0054 13.7 -2.85779
    endloop
  endfacet
  facet normal 0 1 0
    outer loop
      vertex -24.0054 13.7 -2.85779
      vertex -24.0485 13.7 -3.27114
      vertex -26.9 13.7 -5.3
    endloop
  endfacet
  facet normal 0 1 0
    outer loop
      vertex -24.0485 13.7 -3.27114
      vertex -24.1343 13.7 -3.67778
      vertex -26.9 13.7 -5.3
    endloop
  endfacet
  facet normal 0 1 0
    outer loop
      vertex -26.9 13.7 -5.3
      vertex -24.1343 13.7 -3.67778
      vertex -24.2618 13.7 -4.07332
    endloop
  endfacet
  facet normal 0 1 0
    outer loop
      vertex -24.2618 13.7 -4.07332
      vertex -24.4297 13.7 -4.4535
      vertex -26.9 13.7 -5.3
    endloop
  endfacet
  facet normal 0 1 0
    outer loop
      vertex -24.4297 13.7 -4.4535
      vertex -24.636 13.7 -4.81421
      vertex -26.9 13.7 -5.3
    endloop
  endfacet
  facet normal 0 1 0
    outer loop
      vertex -26.9 13.7 -5.3
      vertex -24.636 13.7 -4.81421
      vertex -24.8788 13.7 -5.15157
    endloop
  endfacet
  facet normal 0 1 0
    outer loop
      vertex -28.8 1 0
      vertex -27.2 1 8.67362e-16
      vertex -28.8 1 -5.3
    endloop
  endfacet
  facet normal 0 1 0
    outer loop
      vertex -27.2 1 8.67362e-16
      vertex -27.2 1 -5.3
      vertex -28.8 1 -5.3
    endloop
  endfacet
  facet normal 0.598126 0 -0.801402
    outer loop
      vertex -26.2063 1.7 -5.3
      vertex -26.2063 11.5 -5.3
      vertex -25.9698 1.7 -5.12353
    endloop
  endfacet
  facet normal 0.598126 0 -0.801402
    outer loop
      vertex -26.2063 11.5 -5.3
      vertex -25.9698 11.5 -5.12353
      vertex -25.9698 1.7 -5.12353
    endloop
  endfacet
  facet normal 0.640658 0 -0.767826
    outer loop
      vertex -25.9698 1.7 -5.12353
      vertex -25.9698 11.5 -5.12353
      vertex -25.93 1.7 -5.09035
    endloop
  endfacet
  facet normal 0.640658 0 -0.767826
    outer loop
      vertex -25.9698 11.5 -5.12353
      vertex -25.93 11.5 -5.09035
      vertex -25.93 1.7 -5.09035
    endloop
  endfacet
  facet normal 0.679692 0 -0.733498
    outer loop
      vertex -25.93 1.7 -5.09035
      vertex -25.93 11.5 -5.09035
      vertex -25.7241 1.7 -4.89953
    endloop
  endfacet
  facet normal 0.679692 0 -0.733498
    outer loop
      vertex -25.93 11.5 -5.09035
      vertex -25.7241 11.5 -4.89953
      vertex -25.7241 1.7 -4.89953
    endloop
  endfacet
  facet normal 0.718424 0 -0.695606
    outer loop
      vertex -25.7241 1.7 -4.89953
      vertex -25.7241 11.5 -4.89953
      vertex -25.6781 1.7 -4.85204
    endloop
  endfacet
  facet normal 0.718424 0 -0.695606
    outer loop
      vertex -25.7241 11.5 -4.89953
      vertex -25.6781 11.5 -4.85204
      vertex -25.6781 1.7 -4.85204
    endloop
  endfacet
  facet normal 0.7536 0 -0.657333
    outer loop
      vertex -25.6781 1.7 -4.85204
      vertex -25.6781 11.5 -4.85204
      vertex -25.503 1.7 -4.65125
    endloop
  endfacet
  facet normal 0.7536 0 -0.657333
    outer loop
      vertex -25.6781 11.5 -4.85204
      vertex -25.503 11.5 -4.65125
      vertex -25.503 1.7 -4.65125
    endloop
  endfacet
  facet normal 0.788106 0 -0.61554
    outer loop
      vertex -25.503 1.7 -4.65125
      vertex -25.503 11.5 -4.65125
      vertex -25.4535 1.7 -4.58788
    endloop
  endfacet
  facet normal 0.788106 0 -0.61554
    outer loop
      vertex -25.503 11.5 -4.65125
      vertex -25.4535 11.5 -4.58788
      vertex -25.4535 1.7 -4.58788
    endloop
  endfacet
  facet normal 0.81902 0 -0.573764
    outer loop
      vertex -25.4535 1.7 -4.58788
      vertex -25.4535 11.5 -4.58788
      vertex -25.3088 1.7 -4.38137
    endloop
  endfacet
  facet normal 0.81902 0 -0.573764
    outer loop
      vertex -25.4535 11.5 -4.58788
      vertex -25.3088 11.5 -4.38137
      vertex -25.3088 1.7 -4.38137
    endloop
  endfacet
  facet normal 0.848906 0 -0.528544
    outer loop
      vertex -25.3088 1.7 -4.38137
      vertex -25.3088 11.5 -4.38137
      vertex -25.2588 1.7 -4.30096
    endloop
  endfacet
  facet normal 0.848906 0 -0.528544
    outer loop
      vertex -25.3088 11.5 -4.38137
      vertex -25.2588 11.5 -4.30096
      vertex -25.2588 1.7 -4.30096
    endloop
  endfacet
  facet normal 0.875214 0 -0.483735
    outer loop
      vertex -25.2588 1.7 -4.30096
      vertex -25.2588 11.5 -4.30096
      vertex -25.1437 1.7 -4.0928
    endloop
  endfacet
  facet normal 0.875214 0 -0.483735
    outer loop
      vertex -25.2588 11.5 -4.30096
      vertex -25.1437 11.5 -4.0928
      vertex -25.1437 1.7 -4.0928
    endloop
  endfacet
  facet normal 0.900138 0 -0.435605
    outer loop
      vertex -25.1437 1.7 -4.0928
      vertex -25.1437 11.5 -4.0928
      vertex -25.0962 1.7 -3.99465
    endloop
  endfacet
  facet normal 0.900138 0 -0.435605
    outer loop
      vertex -25.1437 11.5 -4.0928
      vertex -25.0962 11.5 -3.99465
      vertex -25.0962 1.7 -3.99465
    endloop
  endfacet
  facet normal 0.921554 0 -0.388251
    outer loop
      vertex -25.0962 1.7 -3.99465
      vertex -25.0962 11.5 -3.99465
      vertex -25.0094 1.7 -3.78866
    endloop
  endfacet
  facet normal 0.921554 0 -0.388251
    outer loop
      vertex -25.0962 11.5 -3.99465
      vertex -25.0094 11.5 -3.78866
      vertex -25.0094 1.7 -3.78866
    endloop
  endfacet
  facet normal 0.941235 0 -0.337754
    outer loop
      vertex -25.0094 1.7 -3.78866
      vertex -25.0094 11.5 -3.78866
      vertex -24.9678 1.7 -3.67255
    endloop
  endfacet
  facet normal 0.941235 0 -0.337754
    outer loop
      vertex -25.0094 11.5 -3.78866
      vertex -24.9678 11.5 -3.67255
      vertex -24.9678 1.7 -3.67255
    endloop
  endfacet
  facet normal 0.95751 0 -0.288399
    outer loop
      vertex -24.9678 1.7 -3.67255
      vertex -24.9678 11.5 -3.67255
      vertex -24.9074 1.7 -3.47222
    endloop
  endfacet
  facet normal 0.95751 0 -0.288399
    outer loop
      vertex -24.9678 11.5 -3.67255
      vertex -24.9074 11.5 -3.47222
      vertex -24.9074 1.7 -3.47222
    endloop
  endfacet
  facet normal 0.971729 0 -0.236098
    outer loop
      vertex -24.9074 1.7 -3.47222
      vertex -24.9074 11.5 -3.47222
      vertex -24.8749 1.7 -3.33845
    endloop
  endfacet
  facet normal 0.971729 0 -0.236098
    outer loop
      vertex -24.9074 11.5 -3.47222
      vertex -24.8749 11.5 -3.33845
      vertex -24.8749 1.7 -3.33845
    endloop
  endfacet
  facet normal 0.982682 0 -0.185299
    outer loop
      vertex -24.8749 1.7 -3.33845
      vertex -24.8749 11.5 -3.33845
      vertex -24.8388 1.7 -3.14691
    endloop
  endfacet
  facet normal 0.982682 0 -0.185299
    outer loop
      vertex -24.8749 11.5 -3.33845
      vertex -24.8388 11.5 -3.14691
      vertex -24.8388 1.7 -3.14691
    endloop
  endfacet
  facet normal 0.99128 0 -0.131775
    outer loop
      vertex -24.8388 1.7 -3.14691
      vertex -24.8388 11.5 -3.14691
      vertex -24.8188 1.7 -2.99626
    endloop
  endfacet
  facet normal 0.99128 0 -0.131775
    outer loop
      vertex -24.8388 11.5 -3.14691
      vertex -24.8188 11.5 -2.99626
      vertex -24.8188 1.7 -2.99626
    endloop
  endfacet
  facet normal 0.996786 0 -0.0801158
    outer loop
      vertex -24.8188 1.7 -2.99626
      vertex -24.8188 11.5 -2.99626
      vertex -24.8043 1.7 -2.81623
    endloop
  endfacet
  facet normal 0.996786 0 -0.0801158
    outer loop
      vertex -24.8188 11.5 -2.99626
      vertex -24.8043 11.5 -2.81623
      vertex -24.8043 1.7 -2.81623
    endloop
  endfacet
  facet normal 0.999663 0 -0.0259754
    outer loop
      vertex -24.8043 1.7 -2.81623
      vertex -24.8043 11.5 -2.81623
      vertex -24.8 1.7 -2.65
    endloop
  endfacet
  facet normal 0.999663 0 -0.0259754
    outer loop
      vertex -24.8043 11.5 -2.81623
      vertex -24.8 11.5 -2.65
      vertex -24.8 1.7 -2.65
    endloop
  endfacet
  facet normal 0.999663 0 0.0259754
    outer loop
      vertex -24.8 1.7 -2.65
      vertex -24.8 11.5 -2.65
      vertex -24.8043 1.7 -2.48377
    endloop
  endfacet
  facet normal 0.999663 0 0.0259754
    outer loop
      vertex -24.8 11.5 -2.65
      vertex -24.8043 11.5 -2.48377
      vertex -24.8043 1.7 -2.48377
    endloop
  endfacet
  facet normal 0.996786 0 0.0801159
    outer loop
      vertex -24.8043 1.7 -2.48377
      vertex -24.8043 11.5 -2.48377
      vertex -24.8188 1.7 -2.30374
    endloop
  endfacet
  facet normal 0.996786 0 0.0801159
    outer loop
      vertex -24.8043 11.5 -2.48377
      vertex -24.8188 11.5 -2.30374
      vertex -24.8188 1.7 -2.30374
    endloop
  endfacet
  facet normal 0.99128 0 0.131775
    outer loop
      vertex -24.8188 1.7 -2.30374
      vertex -24.8188 11.5 -2.30374
      vertex -24.8388 1.7 -2.15309
    endloop
  endfacet
  facet normal 0.99128 0 0.131775
    outer loop
      vertex -24.8188 11.5 -2.30374
      vertex -24.8388 11.5 -2.15309
      vertex -24.8388 1.7 -2.15309
    endloop
  endfacet
  facet normal 0.982682 0 0.185298
    outer loop
      vertex -24.8388 1.7 -2.15309
      vertex -24.8388 11.5 -2.15309
      vertex -24.8749 1.7 -1.96155
    endloop
  endfacet
  facet normal 0.982682 0 0.185298
    outer loop
      vertex -24.8388 11.5 -2.15309
      vertex -24.8749 11.5 -1.96155
      vertex -24.8749 1.7 -1.96155
    endloop
  endfacet
  facet normal 0.971729 0 0.236099
    outer loop
      vertex -24.8749 1.7 -1.96155
      vertex -24.8749 11.5 -1.96155
      vertex -24.9074 1.7 -1.82778
    endloop
  endfacet
  facet normal 0.971729 0 0.236099
    outer loop
      vertex -24.8749 11.5 -1.96155
      vertex -24.9074 11.5 -1.82778
      vertex -24.9074 1.7 -1.82778
    endloop
  endfacet
  facet normal 0.95751 0 0.288399
    outer loop
      vertex -24.9074 1.7 -1.82778
      vertex -24.9074 11.5 -1.82778
      vertex -24.9678 1.7 -1.62745
    endloop
  endfacet
  facet normal 0.95751 0 0.288399
    outer loop
      vertex -24.9074 11.5 -1.82778
      vertex -24.9678 11.5 -1.62745
      vertex -24.9678 1.7 -1.62745
    endloop
  endfacet
  facet normal 0.941235 0 0.337754
    outer loop
      vertex -24.9678 1.7 -1.62745
      vertex -24.9678 11.5 -1.62745
      vertex -25.0094 1.7 -1.51134
    endloop
  endfacet
  facet normal 0.941235 0 0.337754
    outer loop
      vertex -24.9678 11.5 -1.62745
      vertex -25.0094 11.5 -1.51134
      vertex -25.0094 1.7 -1.51134
    endloop
  endfacet
  facet normal 0.921554 0 0.388251
    outer loop
      vertex -25.0094 1.7 -1.51134
      vertex -25.0094 11.5 -1.51134
      vertex -25.0962 1.7 -1.30535
    endloop
  endfacet
  facet normal 0.921554 0 0.388251
    outer loop
      vertex -25.0094 11.5 -1.51134
      vertex -25.0962 11.5 -1.30535
      vertex -25.0962 1.7 -1.30535
    endloop
  endfacet
  facet normal 0.900138 0 0.435606
    outer loop
      vertex -25.0962 1.7 -1.30535
      vertex -25.0962 11.5 -1.30535
      vertex -25.1437 1.7 -1.2072
    endloop
  endfacet
  facet normal 0.900138 0 0.435606
    outer loop
      vertex -25.0962 11.5 -1.30535
      vertex -25.1437 11.5 -1.2072
      vertex -25.1437 1.7 -1.2072
    endloop
  endfacet
  facet normal 0.875215 0 0.483735
    outer loop
      vertex -25.1437 1.7 -1.2072
      vertex -25.1437 11.5 -1.2072
      vertex -25.2588 1.7 -0.999044
    endloop
  endfacet
  facet normal 0.875215 0 0.483735
    outer loop
      vertex -25.1437 11.5 -1.2072
      vertex -25.2588 11.5 -0.999044
      vertex -25.2588 1.7 -0.999044
    endloop
  endfacet
  facet normal 0.848905 0 0.528545
    outer loop
      vertex -25.2588 1.7 -0.999044
      vertex -25.2588 11.5 -0.999044
      vertex -25.3088 1.7 -0.918629
    endloop
  endfacet
  facet normal 0.848905 0 0.528545
    outer loop
      vertex -25.2588 11.5 -0.999044
      vertex -25.3088 11.5 -0.918629
      vertex -25.3088 1.7 -0.918629
    endloop
  endfacet
  facet normal 0.81902 0 0.573765
    outer loop
      vertex -25.3088 1.7 -0.918629
      vertex -25.3088 11.5 -0.918629
      vertex -25.4535 1.7 -0.712123
    endloop
  endfacet
  facet normal 0.81902 0 0.573765
    outer loop
      vertex -25.3088 11.5 -0.918629
      vertex -25.4535 11.5 -0.712123
      vertex -25.4535 1.7 -0.712123
    endloop
  endfacet
  facet normal 0.788106 0 0.615539
    outer loop
      vertex -25.4535 1.7 -0.712123
      vertex -25.4535 11.5 -0.712123
      vertex -25.503 1.7 -0.648748
    endloop
  endfacet
  facet normal 0.788106 0 0.615539
    outer loop
      vertex -25.4535 11.5 -0.712123
      vertex -25.503 11.5 -0.648748
      vertex -25.503 1.7 -0.648748
    endloop
  endfacet
  facet normal 0.7536 0 0.657333
    outer loop
      vertex -25.503 1.7 -0.648748
      vertex -25.503 11.5 -0.648748
      vertex -25.6781 1.7 -0.447957
    endloop
  endfacet
  facet normal 0.7536 0 0.657333
    outer loop
      vertex -25.503 11.5 -0.648748
      vertex -25.6781 11.5 -0.447957
      vertex -25.6781 1.7 -0.447957
    endloop
  endfacet
  facet normal 0.718425 0 0.695605
    outer loop
      vertex -25.6781 1.7 -0.447957
      vertex -25.6781 11.5 -0.447957
      vertex -25.7241 1.7 -0.40047
    endloop
  endfacet
  facet normal 0.718425 0 0.695605
    outer loop
      vertex -25.6781 11.5 -0.447957
      vertex -25.7241 11.5 -0.40047
      vertex -25.7241 1.7 -0.40047
    endloop
  endfacet
  facet normal 0.679692 0 0.733498
    outer loop
      vertex -25.7241 1.7 -0.40047
      vertex -25.7241 11.5 -0.40047
      vertex -25.93 1.7 -0.209651
    endloop
  endfacet
  facet normal 0.679692 0 0.733498
    outer loop
      vertex -25.7241 11.5 -0.40047
      vertex -25.93 11.5 -0.209651
      vertex -25.93 1.7 -0.209651
    endloop
  endfacet
  facet normal 0.640657 0 0.767827
    outer loop
      vertex -25.93 1.7 -0.209651
      vertex -25.93 11.5 -0.209651
      vertex -25.9698 1.7 -0.176474
    endloop
  endfacet
  facet normal 0.640657 0 0.767827
    outer loop
      vertex -25.93 11.5 -0.209651
      vertex -25.9698 11.5 -0.176474
      vertex -25.9698 1.7 -0.176474
    endloop
  endfacet
  facet normal 0.598126 0 0.801402
    outer loop
      vertex -25.9698 1.7 -0.176474
      vertex -25.9698 11.5 -0.176474
      vertex -26.2063 1.7 4.33681e-16
    endloop
  endfacet
  facet normal 0.598126 -7.09476e-17 0.801402
    outer loop
      vertex -25.9698 11.5 -0.176474
      vertex -26.2063 11.5 1.30104e-15
      vertex -26.2063 1.7 4.33681e-16
    endloop
  endfacet
  facet normal 0 1 0
    outer loop
      vertex -31.1212 13.7 -0.148435
      vertex -30.9962 13.7 4.33681e-16
      vertex -29.1 13.7 1.30104e-15
    endloop
  endfacet
  facet normal 0 1 0
    outer loop
      vertex -29.1 13.7 -5.3
      vertex -30.9962 13.7 -5.3
      vertex -29.1 13.7 1.30104e-15
    endloop
  endfacet
  facet normal 0 1 0
    outer loop
      vertex -30.9962 13.7 -5.3
      vertex -31.1212 13.7 -5.15157
      vertex -29.1 13.7 1.30104e-15
    endloop
  endfacet
  facet normal 0 1 0
    outer loop
      vertex -29.1 13.7 1.30104e-15
      vertex -31.1212 13.7 -5.15157
      vertex -31.364 13.7 -4.81421
    endloop
  endfacet
  facet normal 0 1 0
    outer loop
      vertex -31.364 13.7 -4.81421
      vertex -31.5703 13.7 -4.4535
      vertex -29.1 13.7 1.30104e-15
    endloop
  endfacet
  facet normal 0 1 0
    outer loop
      vertex -31.5703 13.7 -4.4535
      vertex -31.7382 13.7 -4.07332
      vertex -29.1 13.7 1.30104e-15
    endloop
  endfacet
  facet normal 0 1 0
    outer loop
      vertex -29.1 13.7 1.30104e-15
      vertex -31.7382 13.7 -4.07332
      vertex -31.8657 13.7 -3.67778
    endloop
  endfacet
  facet normal 0 1 0
    outer loop
      vertex -31.8657 13.7 -3.67778
      vertex -31.9515 13.7 -3.27114
      vertex -29.1 13.7 1.30104e-15
    endloop
  endfacet
  facet normal 0 1 0
    outer loop
      vertex -31.9515 13.7 -3.27114
      vertex -31.9946 13.7 -2.85779
      vertex -29.1 13.7 1.30104e-15
    endloop
  endfacet
  facet normal 0 1 0
    outer loop
      vertex -29.1 13.7 1.30104e-15
      vertex -31.9946 13.7 -2.85779
      vertex -31.9946 13.7 -2.44221
    endloop
  endfacet
  facet normal 0 1 0
    outer loop
      vertex -31.9946 13.7 -2.44221
      vertex -31.9515 13.7 -2.02886
      vertex -29.1 13.7 1.30104e-15
    endloop
  endfacet
  facet normal 0 1 0
    outer loop
      vertex -31.9515 13.7 -2.02886
      vertex -31.8657 13.7 -1.62222
      vertex -29.1 13.7 1.30104e-15
    endloop
  endfacet
  facet normal 0 1 0
    outer loop
      vertex -29.1 13.7 1.30104e-15
      vertex -31.8657 13.7 -1.62222
      vertex -31.7382 13.7 -1.22668
    endloop
  endfacet
  facet normal 0 1 0
    outer loop
      vertex -31.7382 13.7 -1.22668
      vertex -31.5703 13.7 -0.846498
      vertex -29.1 13.7 1.30104e-15
    endloop
  endfacet
  facet normal 0 1 0
    outer loop
      vertex -31.5703 13.7 -0.846498
      vertex -31.364 13.7 -0.485786
      vertex -29.1 13.7 1.30104e-15
    endloop
  endfacet
  facet normal 0 1 0
    outer loop
      vertex -29.1 13.7 1.30104e-15
      vertex -31.364 13.7 -0.485786
      vertex -31.1212 13.7 -0.148435
    endloop
  endfacet
  facet normal -2.66535e-16 -1 -7.78385e-17
    outer loop
      vertex -31.211 9.08238e-16 -4.71584
      vertex -30.9794 8.71554e-16 -5.03786
      vertex -25.0206 -1.08839e-15 -0.262142
    endloop
  endfacet
  facet normal -2.36655e-16 -1 6.35043e-16
    outer loop
      vertex -25.2512 -8.67362e-16 8.67362e-16
      vertex -30.7488 4.33681e-16 -4.33681e-16
      vertex -25.0206 -1.08839e-15 -0.262142
    endloop
  endfacet
  facet normal -2.79844e-16 -1 -3.08712e-16
    outer loop
      vertex -30.7488 4.33681e-16 -4.33681e-16
      vertex -30.9794 5.79126e-16 -0.262142
      vertex -25.0206 -1.08839e-15 -0.262142
    endloop
  endfacet
  facet normal -2.76097e-16 -1 -2.26832e-16
    outer loop
      vertex -30.7488 8.67362e-16 -5.3
      vertex -25.2512 -6.50521e-16 -5.3
      vertex -30.9794 8.71554e-16 -5.03786
    endloop
  endfacet
  facet normal -2.79844e-16 -1 -3.08712e-16
    outer loop
      vertex -25.2512 -6.50521e-16 -5.3
      vertex -25.0206 -7.95966e-16 -5.03786
      vertex -30.9794 8.71554e-16 -5.03786
    endloop
  endfacet
  facet normal -2.79844e-16 -1 -3.50524e-17
    outer loop
      vertex -30.9794 8.71554e-16 -5.03786
      vertex -25.0206 -7.95966e-16 -5.03786
      vertex -24.789 -8.72086e-16 -4.71584
    endloop
  endfacet
  facet normal -2.79557e-16 -1 -4.05744e-17
    outer loop
      vertex -24.789 -8.72086e-16 -4.71584
      vertex -24.5919 -9.41133e-16 -4.37152
      vertex -30.9794 8.71554e-16 -5.03786
    endloop
  endfacet
  facet normal -2.79041e-16 -1 -4.55204e-17
    outer loop
      vertex -24.5919 -9.41133e-16 -4.37152
      vertex -24.4317 -1.00236e-15 -4.00862
      vertex -30.9794 8.71554e-16 -5.03786
    endloop
  endfacet
  facet normal -2.78339e-16 -1 -4.99873e-17
    outer loop
      vertex -30.9794 8.71554e-16 -5.03786
      vertex -24.4317 -1.00236e-15 -4.00862
      vertex -24.31 -1.05511e-15 -3.63106
    endloop
  endfacet
  facet normal -2.77481e-16 -1 -5.40542e-17
    outer loop
      vertex -24.31 -1.05511e-15 -3.63106
      vertex -24.2281 -1.09881e-15 -3.2429
      vertex -30.9794 8.71554e-16 -5.03786
    endloop
  endfacet
  facet normal -2.76489e-16 -1 -5.77867e-17
    outer loop
      vertex -24.2281 -1.09881e-15 -3.2429
      vertex -24.187 -1.13299e-15 -2.84835
      vertex -30.9794 8.71554e-16 -5.03786
    endloop
  endfacet
  facet normal -2.75378e-16 -1 -6.12324e-17
    outer loop
      vertex -30.9794 8.71554e-16 -5.03786
      vertex -24.187 -1.13299e-15 -2.84835
      vertex -24.187 -1.15728e-15 -2.45165
    endloop
  endfacet
  facet normal -2.69892e-16 -1 -7.29049e-17
    outer loop
      vertex -24.4317 -1.16875e-15 -1.29138
      vertex -24.5919 -1.15196e-15 -0.928476
      vertex -30.9794 8.71554e-16 -5.03786
    endloop
  endfacet
  facet normal -2.68267e-16 -1 -7.54307e-17
    outer loop
      vertex -24.5919 -1.15196e-15 -0.928476
      vertex -24.789 -1.12508e-15 -0.584159
      vertex -30.9794 8.71554e-16 -5.03786
    endloop
  endfacet
  facet normal -2.66536e-16 -1 -7.78375e-17
    outer loop
      vertex -30.9794 8.71554e-16 -5.03786
      vertex -24.789 -1.12508e-15 -0.584159
      vertex -25.0206 -1.08839e-15 -0.262142
    endloop
  endfacet
  facet normal -2.78339e-16 -1 -4.99888e-17
    outer loop
      vertex -31.5683 7.85522e-16 -1.29138
      vertex -31.69 8.38271e-16 -1.66894
      vertex -25.0206 -1.08839e-15 -0.262142
    endloop
  endfacet
  facet normal -2.77481e-16 -1 -5.40556e-17
    outer loop
      vertex -31.69 8.38271e-16 -1.66894
      vertex -31.7719 8.81971e-16 -2.0571
      vertex -25.0206 -1.08839e-15 -0.262142
    endloop
  endfacet
  facet normal -2.76489e-16 -1 -5.77854e-17
    outer loop
      vertex -25.0206 -1.08839e-15 -0.262142
      vertex -31.7719 8.81971e-16 -2.0571
      vertex -31.813 9.16151e-16 -2.45165
    endloop
  endfacet
  facet normal -2.75378e-16 -1 -6.12324e-17
    outer loop
      vertex -31.813 9.16151e-16 -2.45165
      vertex -31.813 9.40442e-16 -2.84835
      vertex -25.0206 -1.08839e-15 -0.262142
    endloop
  endfacet
  facet normal -2.74158e-16 -1 -6.44362e-17
    outer loop
      vertex -31.813 9.40442e-16 -2.84835
      vertex -31.7719 9.54581e-16 -3.2429
      vertex -25.0206 -1.08839e-15 -0.262142
    endloop
  endfacet
  facet normal -2.72837e-16 -1 -6.74293e-17
    outer loop
      vertex -25.0206 -1.08839e-15 -0.262142
      vertex -31.7719 9.54581e-16 -3.2429
      vertex -31.69 9.58416e-16 -3.63106
    endloop
  endfacet
  facet normal -2.71415e-16 -1 -7.02442e-17
    outer loop
      vertex -31.69 9.58416e-16 -3.63106
      vertex -31.5683 9.51905e-16 -4.00862
      vertex -25.0206 -1.08839e-15 -0.262142
    endloop
  endfacet
  facet normal -2.69892e-16 -1 -7.29049e-17
    outer loop
      vertex -31.5683 9.51905e-16 -4.00862
      vertex -31.4081 9.35119e-16 -4.37152
      vertex -25.0206 -1.08839e-15 -0.262142
    endloop
  endfacet
  facet normal -2.68267e-16 -1 -7.54307e-17
    outer loop
      vertex -25.0206 -1.08839e-15 -0.262142
      vertex -31.4081 9.35119e-16 -4.37152
      vertex -31.211 9.08238e-16 -4.71584
    endloop
  endfacet
  facet normal -2.74159e-16 -1 -6.44349e-17
    outer loop
      vertex -24.187 -1.15728e-15 -2.45165
      vertex -24.2281 -1.17142e-15 -2.0571
      vertex -30.9794 8.71554e-16 -5.03786
    endloop
  endfacet
  facet normal -2.72836e-16 -1 -6.74305e-17
    outer loop
      vertex -24.2281 -1.17142e-15 -2.0571
      vertex -24.31 -1.17526e-15 -1.66894
      vertex -30.9794 8.71554e-16 -5.03786
    endloop
  endfacet
  facet normal -2.71414e-16 -1 -7.02453e-17
    outer loop
      vertex -30.9794 8.71554e-16 -5.03786
      vertex -24.31 -1.17526e-15 -1.66894
      vertex -24.4317 -1.16875e-15 -1.29138
    endloop
  endfacet
  facet normal -2.79844e-16 -1 -3.50508e-17
    outer loop
      vertex -30.9794 5.79126e-16 -0.262142
      vertex -31.211 6.55246e-16 -0.584159
      vertex -25.0206 -1.08839e-15 -0.262142
    endloop
  endfacet
  facet normal -2.79557e-16 -1 -4.05744e-17
    outer loop
      vertex -31.211 6.55246e-16 -0.584159
      vertex -31.4081 7.24293e-16 -0.928476
      vertex -25.0206 -1.08839e-15 -0.262142
    endloop
  endfacet
  facet normal -2.79041e-16 -1 -4.55204e-17
    outer loop
      vertex -25.0206 -1.08839e-15 -0.262142
      vertex -31.4081 7.24293e-16 -0.928476
      vertex -31.5683 7.85522e-16 -1.29138
    endloop
  endfacet
  facet normal -0.562184 -0.341423 0.753246
    outer loop
      vertex -30.175 12.1278 3.31574e-16
      vertex -30.0302 11.5 -0.176474
      vertex -29.7937 11.5 4.33681e-16
    endloop
  endfacet
  facet normal -0.715171 -0.354732 0.602243
    outer loop
      vertex -30.7206 13.1443 2.60992e-16
      vertex -30.9962 13.7 4.33681e-16
      vertex -31.1212 13.7 -0.148435
    endloop
  endfacet
  facet normal -0.7083 -0.341481 0.61782
    outer loop
      vertex -31.1212 13.7 -0.148435
      vertex -30.497 11.5 -0.648748
      vertex -30.3219 11.5 -0.447957
    endloop
  endfacet
  facet normal -0.703485 -0.340547 0.623808
    outer loop
      vertex -31.1212 13.7 -0.148435
      vertex -30.3219 11.5 -0.447957
      vertex -30.7206 13.1443 2.60992e-16
    endloop
  endfacet
  facet normal -0.675151 -0.341821 0.653705
    outer loop
      vertex -30.3219 11.5 -0.447957
      vertex -30.2759 11.5 -0.40047
      vertex -30.7206 13.1443 2.60992e-16
    endloop
  endfacet
  facet normal -0.634567 -0.340602 0.693769
    outer loop
      vertex -30.7206 13.1443 2.60992e-16
      vertex -30.2759 11.5 -0.40047
      vertex -30.175 12.1278 3.31574e-16
    endloop
  endfacet
  facet normal -0.639779 -0.337632 0.690425
    outer loop
      vertex -30.2759 11.5 -0.40047
      vertex -30.07 11.5 -0.209651
      vertex -30.175 12.1278 3.31574e-16
    endloop
  endfacet
  facet normal -0.602087 -0.341734 0.721602
    outer loop
      vertex -30.175 12.1278 3.31574e-16
      vertex -30.07 11.5 -0.209651
      vertex -30.0302 11.5 -0.176474
    endloop
  endfacet
  facet normal -0.639006 -0.340785 -0.689591
    outer loop
      vertex -30.2759 11.5 -4.89953
      vertex -30.7206 13.1443 -5.3
      vertex -30.07 11.5 -5.09035
    endloop
  endfacet
  facet normal -0.630983 -0.338678 -0.697967
    outer loop
      vertex -30.7206 13.1443 -5.3
      vertex -30.175 12.1278 -5.3
      vertex -30.07 11.5 -5.09035
    endloop
  endfacet
  facet normal -0.602089 -0.341734 -0.7216
    outer loop
      vertex -30.07 11.5 -5.09035
      vertex -30.175 12.1278 -5.3
      vertex -30.0302 11.5 -5.12353
    endloop
  endfacet
  facet normal -0.562184 -0.341423 -0.753246
    outer loop
      vertex -30.175 12.1278 -5.3
      vertex -29.7937 11.5 -5.3
      vertex -30.0302 11.5 -5.12353
    endloop
  endfacet
  facet normal -0.71517 -0.354731 -0.602243
    outer loop
      vertex -31.1212 13.7 -5.15157
      vertex -30.9962 13.7 -5.3
      vertex -30.7206 13.1443 -5.3
    endloop
  endfacet
  facet normal -0.81583 -0.341336 0.466809
    outer loop
      vertex -31.364 13.7 -0.485786
      vertex -31.5703 13.7 -0.846498
      vertex -30.8563 11.5 -1.2072
    endloop
  endfacet
  facet normal -0.823324 -0.33921 0.455054
    outer loop
      vertex -30.8563 11.5 -1.2072
      vertex -30.7412 11.5 -0.999044
      vertex -31.364 13.7 -0.485786
    endloop
  endfacet
  facet normal -0.797806 -0.34171 0.496729
    outer loop
      vertex -30.7412 11.5 -0.999044
      vertex -30.6912 11.5 -0.918629
      vertex -31.364 13.7 -0.485786
    endloop
  endfacet
  facet normal -0.762993 -0.341336 0.548937
    outer loop
      vertex -31.364 13.7 -0.485786
      vertex -30.6912 11.5 -0.918629
      vertex -31.1212 13.7 -0.148435
    endloop
  endfacet
  facet normal -0.770365 -0.339536 0.539679
    outer loop
      vertex -30.6912 11.5 -0.918629
      vertex -30.5465 11.5 -0.712123
      vertex -31.1212 13.7 -0.148435
    endloop
  endfacet
  facet normal -0.740664 -0.341719 0.578485
    outer loop
      vertex -31.1212 13.7 -0.148435
      vertex -30.5465 11.5 -0.712123
      vertex -30.497 11.5 -0.648748
    endloop
  endfacet
  facet normal -0.894612 -0.341336 0.288374
    outer loop
      vertex -31.7382 13.7 -1.22668
      vertex -31.8657 13.7 -1.62222
      vertex -31.0926 11.5 -1.82778
    endloop
  endfacet
  facet normal -0.900967 -0.338554 0.271368
    outer loop
      vertex -31.0926 11.5 -1.82778
      vertex -31.0322 11.5 -1.62745
      vertex -31.7382 13.7 -1.22668
    endloop
  endfacet
  facet normal -0.884585 -0.341687 0.317425
    outer loop
      vertex -31.0322 11.5 -1.62745
      vertex -30.9906 11.5 -1.51134
      vertex -31.7382 13.7 -1.22668
    endloop
  endfacet
  facet normal -0.859863 -0.341336 0.379639
    outer loop
      vertex -31.7382 13.7 -1.22668
      vertex -30.9906 11.5 -1.51134
      vertex -31.5703 13.7 -0.846498
    endloop
  endfacet
  facet normal -0.867024 -0.338883 0.365278
    outer loop
      vertex -30.9906 11.5 -1.51134
      vertex -30.9038 11.5 -1.30535
      vertex -31.5703 13.7 -0.846498
    endloop
  endfacet
  facet normal -0.845958 -0.3417 0.409386
    outer loop
      vertex -31.5703 13.7 -0.846498
      vertex -30.9038 11.5 -1.30535
      vertex -30.8563 11.5 -1.2072
    endloop
  endfacet
  facet normal -0.934868 -0.341336 0.0975259
    outer loop
      vertex -31.9515 13.7 -2.02886
      vertex -31.9946 13.7 -2.44221
      vertex -31.1957 11.5 -2.48377
    endloop
  endfacet
  facet normal -0.93816 -0.337892 0.0754039
    outer loop
      vertex -31.1957 11.5 -2.48377
      vertex -31.1812 11.5 -2.30374
      vertex -31.9515 13.7 -2.02886
    endloop
  endfacet
  facet normal -0.931629 -0.341658 0.123846
    outer loop
      vertex -31.1812 11.5 -2.30374
      vertex -31.1612 11.5 -2.15309
      vertex -31.9515 13.7 -2.02886
    endloop
  endfacet
  facet normal -0.919704 -0.341336 0.193999
    outer loop
      vertex -31.9515 13.7 -2.02886
      vertex -31.1612 11.5 -2.15309
      vertex -31.8657 13.7 -1.62222
    endloop
  endfacet
  facet normal -0.924769 -0.338223 0.174378
    outer loop
      vertex -31.1612 11.5 -2.15309
      vertex -31.1251 11.5 -1.96155
      vertex -31.8657 13.7 -1.62222
    endloop
  endfacet
  facet normal -0.913249 -0.341673 0.22189
    outer loop
      vertex -31.8657 13.7 -1.62222
      vertex -31.1251 11.5 -1.96155
      vertex -31.0926 11.5 -1.82778
    endloop
  endfacet
  facet normal -0.935452 -0.339716 -0.0975868
    outer loop
      vertex -31.9515 13.7 -3.27114
      vertex -31.1812 11.5 -2.99626
      vertex -31.9946 13.7 -2.85779
    endloop
  endfacet
  facet normal -0.936816 -0.341623 -0.0752958
    outer loop
      vertex -31.1812 11.5 -2.99626
      vertex -31.1957 11.5 -2.81623
      vertex -31.9946 13.7 -2.85779
    endloop
  endfacet
  facet normal -0.939942 -0.341336 0
    outer loop
      vertex -31.9946 13.7 -2.85779
      vertex -31.1957 11.5 -2.81623
      vertex -31.9946 13.7 -2.44221
    endloop
  endfacet
  facet normal -0.940987 -0.337558 -0.0244508
    outer loop
      vertex -31.1957 11.5 -2.81623
      vertex -31.2 11.5 -2.65
      vertex -31.9946 13.7 -2.44221
    endloop
  endfacet
  facet normal -0.939513 -0.341641 0.0244125
    outer loop
      vertex -31.9946 13.7 -2.44221
      vertex -31.2 11.5 -2.65
      vertex -31.1957 11.5 -2.48377
    endloop
  endfacet
  facet normal -0.920265 -0.339751 -0.194117
    outer loop
      vertex -31.8657 13.7 -3.67778
      vertex -31.1251 11.5 -3.33845
      vertex -31.9515 13.7 -3.27114
    endloop
  endfacet
  facet normal -0.923568 -0.341603 -0.174152
    outer loop
      vertex -31.1251 11.5 -3.33845
      vertex -31.1612 11.5 -3.14691
      vertex -31.9515 13.7 -3.27114
    endloop
  endfacet
  facet normal -0.931629 -0.341658 -0.123846
    outer loop
      vertex -31.9515 13.7 -3.27114
      vertex -31.1612 11.5 -3.14691
      vertex -31.1812 11.5 -2.99626
    endloop
  endfacet
  facet normal -0.895137 -0.339812 -0.288543
    outer loop
      vertex -31.7382 13.7 -4.07332
      vertex -31.0322 11.5 -3.67255
      vertex -31.8657 13.7 -3.67778
    endloop
  endfacet
  facet normal -0.899918 -0.341582 -0.271052
    outer loop
      vertex -31.0322 11.5 -3.67255
      vertex -31.0926 11.5 -3.47222
      vertex -31.8657 13.7 -3.67778
    endloop
  endfacet
  facet normal -0.913249 -0.341673 -0.22189
    outer loop
      vertex -31.8657 13.7 -3.67778
      vertex -31.0926 11.5 -3.47222
      vertex -31.1251 11.5 -3.33845
    endloop
  endfacet
  facet normal -0.86034 -0.339897 -0.37985
    outer loop
      vertex -31.5703 13.7 -4.4535
      vertex -30.9038 11.5 -3.99465
      vertex -31.7382 13.7 -4.07332
    endloop
  endfacet
  facet normal -0.866132 -0.341559 -0.364902
    outer loop
      vertex -30.9038 11.5 -3.99465
      vertex -30.9906 11.5 -3.78866
      vertex -31.7382 13.7 -4.07332
    endloop
  endfacet
  facet normal -0.884585 -0.341687 -0.317425
    outer loop
      vertex -31.7382 13.7 -4.07332
      vertex -30.9906 11.5 -3.78866
      vertex -31.0322 11.5 -3.67255
    endloop
  endfacet
  facet normal -0.816248 -0.340006 -0.467049
    outer loop
      vertex -31.364 13.7 -4.81421
      vertex -30.7412 11.5 -4.30096
      vertex -31.5703 13.7 -4.4535
    endloop
  endfacet
  facet normal -0.822587 -0.341535 -0.454648
    outer loop
      vertex -30.7412 11.5 -4.30096
      vertex -30.8563 11.5 -4.0928
      vertex -31.5703 13.7 -4.4535
    endloop
  endfacet
  facet normal -0.845958 -0.3417 -0.409385
    outer loop
      vertex -31.5703 13.7 -4.4535
      vertex -30.8563 11.5 -4.0928
      vertex -30.9038 11.5 -3.99465
    endloop
  endfacet
  facet normal -0.67515 -0.341821 -0.653706
    outer loop
      vertex -30.2759 11.5 -4.89953
      vertex -30.3219 11.5 -4.85204
      vertex -30.7206 13.1443 -5.3
    endloop
  endfacet
  facet normal -0.708638 -0.340245 -0.618114
    outer loop
      vertex -30.3219 11.5 -4.85204
      vertex -30.497 11.5 -4.65125
      vertex -30.7206 13.1443 -5.3
    endloop
  endfacet
  facet normal -0.704189 -0.341391 -0.622551
    outer loop
      vertex -30.7206 13.1443 -5.3
      vertex -30.497 11.5 -4.65125
      vertex -31.1212 13.7 -5.15157
    endloop
  endfacet
  facet normal -0.740664 -0.341719 -0.578486
    outer loop
      vertex -30.497 11.5 -4.65125
      vertex -30.5465 11.5 -4.58788
      vertex -31.1212 13.7 -5.15157
    endloop
  endfacet
  facet normal -0.763345 -0.340139 -0.549191
    outer loop
      vertex -31.1212 13.7 -5.15157
      vertex -30.5465 11.5 -4.58788
      vertex -31.364 13.7 -4.81421
    endloop
  endfacet
  facet normal -0.76978 -0.341509 -0.539269
    outer loop
      vertex -30.5465 11.5 -4.58788
      vertex -30.6912 11.5 -4.38137
      vertex -31.364 13.7 -4.81421
    endloop
  endfacet
  facet normal -0.797806 -0.34171 -0.496729
    outer loop
      vertex -31.364 13.7 -4.81421
      vertex -30.6912 11.5 -4.38137
      vertex -30.7412 11.5 -4.30096
    endloop
  endfacet
endsolid Onshape
