solid OpenSCAD_Model
  facet normal 0 0 1
    outer loop
      vertex 7.2 5.35 2.4
      vertex 0 5.35 2.4
      vertex 7.2 2.3 2.4
    endloop
  endfacet
  facet normal 0 0 1
    outer loop
      vertex 28.8 19.2 2.4
      vertex 7.2 16.9 2.4
      vertex 27.8 16.9 2.4
    endloop
  endfacet
  facet normal -0 0 1
    outer loop
      vertex 0 19.2 2.4
      vertex 7.2 16.9 2.4
      vertex 28.8 19.2 2.4
    endloop
  endfacet
  facet normal 0 0 1
    outer loop
      vertex 0 13.85 2.4
      vertex 7.2 16.9 2.4
      vertex 0 19.2 2.4
    endloop
  endfacet
  facet normal 0 0 1
    outer loop
      vertex 7.2 16.9 2.4
      vertex 0 13.85 2.4
      vertex 7.2 13.85 2.4
    endloop
  endfacet
  facet normal 0 0 1
    outer loop
      vertex 38.4 19.2 2.4
      vertex 36.7252 13.7121 2.4
      vertex 38.4 0 2.4
    endloop
  endfacet
  facet normal 0 0 1
    outer loop
      vertex 38.4 0 2.4
      vertex 36.7812 5.14598 2.4
      vertex 36.8 4.8 2.4
    endloop
  endfacet
  facet normal -0 0 1
    outer loop
      vertex 36.7252 5.48791 2.4
      vertex 38.4 0 2.4
      vertex 36.7252 13.7121 2.4
    endloop
  endfacet
  facet normal 0 0 1
    outer loop
      vertex 38.4 0 2.4
      vertex 36.7252 5.48791 2.4
      vertex 36.7812 5.14598 2.4
    endloop
  endfacet
  facet normal -0 0 1
    outer loop
      vertex 36.6325 13.3782 2.4
      vertex 36.7252 5.48791 2.4
      vertex 36.7252 13.7121 2.4
    endloop
  endfacet
  facet normal 0 0 1
    outer loop
      vertex 36.6325 13.3782 2.4
      vertex 36.6325 5.82176 2.4
      vertex 36.7252 5.48791 2.4
    endloop
  endfacet
  facet normal -0 0 1
    outer loop
      vertex 36.5042 13.0564 2.4
      vertex 36.6325 5.82176 2.4
      vertex 36.6325 13.3782 2.4
    endloop
  endfacet
  facet normal 0 0 1
    outer loop
      vertex 36.5042 13.0564 2.4
      vertex 36.5042 6.14365 2.4
      vertex 36.6325 5.82176 2.4
    endloop
  endfacet
  facet normal -0 0 1
    outer loop
      vertex 36.3419 12.7502 2.4
      vertex 36.5042 6.14365 2.4
      vertex 36.5042 13.0564 2.4
    endloop
  endfacet
  facet normal 0 0 1
    outer loop
      vertex 36.3419 12.7502 2.4
      vertex 36.3419 6.44977 2.4
      vertex 36.5042 6.14365 2.4
    endloop
  endfacet
  facet normal -0 0 1
    outer loop
      vertex 36.1475 12.4634 2.4
      vertex 36.3419 6.44977 2.4
      vertex 36.3419 12.7502 2.4
    endloop
  endfacet
  facet normal 0 0 1
    outer loop
      vertex 36.1475 12.4634 2.4
      vertex 36.1475 6.73656 2.4
      vertex 36.3419 6.44977 2.4
    endloop
  endfacet
  facet normal -0 0 1
    outer loop
      vertex 35.9232 12.1994 2.4
      vertex 36.1475 6.73656 2.4
      vertex 36.1475 12.4634 2.4
    endloop
  endfacet
  facet normal 0 0 1
    outer loop
      vertex 35.9232 12.1994 2.4
      vertex 35.9232 7.00064 2.4
      vertex 36.1475 6.73656 2.4
    endloop
  endfacet
  facet normal -0 0 1
    outer loop
      vertex 35.6716 11.9611 2.4
      vertex 35.9232 7.00064 2.4
      vertex 35.9232 12.1994 2.4
    endloop
  endfacet
  facet normal 0 0 1
    outer loop
      vertex 35.6716 11.9611 2.4
      vertex 35.6716 7.23892 2.4
      vertex 35.9232 7.00064 2.4
    endloop
  endfacet
  facet normal -0 0 1
    outer loop
      vertex 35.3958 11.7514 2.4
      vertex 35.6716 7.23892 2.4
      vertex 35.6716 11.9611 2.4
    endloop
  endfacet
  facet normal 0 0 1
    outer loop
      vertex 35.3958 11.7514 2.4
      vertex 35.3958 7.4486 2.4
      vertex 35.6716 7.23892 2.4
    endloop
  endfacet
  facet normal -0 0 1
    outer loop
      vertex 35.0989 11.5728 2.4
      vertex 35.3958 7.4486 2.4
      vertex 35.3958 11.7514 2.4
    endloop
  endfacet
  facet normal 0 0 1
    outer loop
      vertex 35.0989 11.5728 2.4
      vertex 35.0989 7.62724 2.4
      vertex 35.3958 7.4486 2.4
    endloop
  endfacet
  facet normal -0 0 1
    outer loop
      vertex 34.7844 11.4273 2.4
      vertex 35.0989 7.62724 2.4
      vertex 35.0989 11.5728 2.4
    endloop
  endfacet
  facet normal 0 0 1
    outer loop
      vertex 34.7844 11.4273 2.4
      vertex 34.7844 7.77273 2.4
      vertex 35.0989 7.62724 2.4
    endloop
  endfacet
  facet normal -0 0 1
    outer loop
      vertex 34.4561 11.3166 2.4
      vertex 34.7844 7.77273 2.4
      vertex 34.7844 11.4273 2.4
    endloop
  endfacet
  facet normal 0 0 1
    outer loop
      vertex 34.4561 11.3166 2.4
      vertex 34.4561 7.88336 2.4
      vertex 34.7844 7.77273 2.4
    endloop
  endfacet
  facet normal -0 0 1
    outer loop
      vertex 34.1177 11.2422 2.4
      vertex 34.4561 7.88336 2.4
      vertex 34.4561 11.3166 2.4
    endloop
  endfacet
  facet normal 0 0 1
    outer loop
      vertex 34.1177 11.2422 2.4
      vertex 34.1177 7.95784 2.4
      vertex 34.4561 7.88336 2.4
    endloop
  endfacet
  facet normal -0 0 1
    outer loop
      vertex 33.7732 11.2047 2.4
      vertex 34.1177 7.95784 2.4
      vertex 34.1177 11.2422 2.4
    endloop
  endfacet
  facet normal 0 0 1
    outer loop
      vertex 33.7732 11.2047 2.4
      vertex 33.7732 7.99531 2.4
      vertex 34.1177 7.95784 2.4
    endloop
  endfacet
  facet normal -0 0 1
    outer loop
      vertex 33.4268 11.2047 2.4
      vertex 33.7732 7.99531 2.4
      vertex 33.7732 11.2047 2.4
    endloop
  endfacet
  facet normal 0 0 1
    outer loop
      vertex 33.4268 11.2047 2.4
      vertex 33.4268 7.99531 2.4
      vertex 33.7732 7.99531 2.4
    endloop
  endfacet
  facet normal 0 0 1
    outer loop
      vertex 33.0823 11.2422 2.4
      vertex 33.4268 7.99531 2.4
      vertex 33.4268 11.2047 2.4
    endloop
  endfacet
  facet normal 0 0 1
    outer loop
      vertex 33.0823 11.2422 2.4
      vertex 33.0823 7.95784 2.4
      vertex 33.4268 7.99531 2.4
    endloop
  endfacet
  facet normal 0 0 1
    outer loop
      vertex 32.7439 11.3166 2.4
      vertex 33.0823 7.95784 2.4
      vertex 33.0823 11.2422 2.4
    endloop
  endfacet
  facet normal 0 0 1
    outer loop
      vertex 32.7439 11.3166 2.4
      vertex 32.7439 7.88336 2.4
      vertex 33.0823 7.95784 2.4
    endloop
  endfacet
  facet normal 0 0 1
    outer loop
      vertex 32.4156 11.4273 2.4
      vertex 32.7439 7.88336 2.4
      vertex 32.7439 11.3166 2.4
    endloop
  endfacet
  facet normal 0 0 1
    outer loop
      vertex 32.4156 11.4273 2.4
      vertex 32.4156 7.77273 2.4
      vertex 32.7439 7.88336 2.4
    endloop
  endfacet
  facet normal 0 0 1
    outer loop
      vertex 32.1011 11.5728 2.4
      vertex 32.4156 7.77273 2.4
      vertex 32.4156 11.4273 2.4
    endloop
  endfacet
  facet normal 0 0 1
    outer loop
      vertex 32.1011 11.5728 2.4
      vertex 32.1011 7.62724 2.4
      vertex 32.4156 7.77273 2.4
    endloop
  endfacet
  facet normal 0 0 1
    outer loop
      vertex 31.8042 11.7514 2.4
      vertex 32.1011 7.62724 2.4
      vertex 32.1011 11.5728 2.4
    endloop
  endfacet
  facet normal 0 0 1
    outer loop
      vertex 31.8042 11.7514 2.4
      vertex 31.8042 7.4486 2.4
      vertex 32.1011 7.62724 2.4
    endloop
  endfacet
  facet normal 0 0 1
    outer loop
      vertex 31.5284 11.9611 2.4
      vertex 31.8042 7.4486 2.4
      vertex 31.8042 11.7514 2.4
    endloop
  endfacet
  facet normal 0 0 1
    outer loop
      vertex 31.5284 11.9611 2.4
      vertex 31.5284 7.23892 2.4
      vertex 31.8042 7.4486 2.4
    endloop
  endfacet
  facet normal 0 0 1
    outer loop
      vertex 31.2768 12.1994 2.4
      vertex 31.5284 7.23892 2.4
      vertex 31.5284 11.9611 2.4
    endloop
  endfacet
  facet normal 0 0 1
    outer loop
      vertex 31.2768 12.1994 2.4
      vertex 31.2768 7.00064 2.4
      vertex 31.5284 7.23892 2.4
    endloop
  endfacet
  facet normal 0 0 1
    outer loop
      vertex 31.0525 12.4634 2.4
      vertex 31.2768 7.00064 2.4
      vertex 31.2768 12.1994 2.4
    endloop
  endfacet
  facet normal 0 0 1
    outer loop
      vertex 31.0525 12.4634 2.4
      vertex 31.0525 6.73656 2.4
      vertex 31.2768 7.00064 2.4
    endloop
  endfacet
  facet normal 0 0 1
    outer loop
      vertex 30.8581 12.7502 2.4
      vertex 31.0525 6.73656 2.4
      vertex 31.0525 12.4634 2.4
    endloop
  endfacet
  facet normal 0 0 1
    outer loop
      vertex 30.8581 12.7502 2.4
      vertex 30.8581 6.44977 2.4
      vertex 31.0525 6.73656 2.4
    endloop
  endfacet
  facet normal 0 0 1
    outer loop
      vertex 30.6958 13.0564 2.4
      vertex 30.8581 6.44977 2.4
      vertex 30.8581 12.7502 2.4
    endloop
  endfacet
  facet normal 0 0 1
    outer loop
      vertex 30.6958 13.0564 2.4
      vertex 30.6958 6.14365 2.4
      vertex 30.8581 6.44977 2.4
    endloop
  endfacet
  facet normal 0 0 1
    outer loop
      vertex 27.8 16.9 2.4
      vertex 30.6958 13.0564 2.4
      vertex 30.5675 13.3782 2.4
    endloop
  endfacet
  facet normal 0 0 1
    outer loop
      vertex 30.6958 13.0564 2.4
      vertex 27.8 16.9 2.4
      vertex 30.6958 6.14365 2.4
    endloop
  endfacet
  facet normal 0 0 1
    outer loop
      vertex 27.8 16.9 2.4
      vertex 30.5675 13.3782 2.4
      vertex 30.4748 13.7121 2.4
    endloop
  endfacet
  facet normal 0 0 1
    outer loop
      vertex 27.8 2.3 2.4
      vertex 30.6958 6.14365 2.4
      vertex 27.8 16.9 2.4
    endloop
  endfacet
  facet normal 0 0 1
    outer loop
      vertex 27.8 16.9 2.4
      vertex 30.4748 13.7121 2.4
      vertex 30.4188 14.054 2.4
    endloop
  endfacet
  facet normal 0 0 1
    outer loop
      vertex 30.6958 6.14365 2.4
      vertex 27.8 2.3 2.4
      vertex 30.5675 5.82176 2.4
    endloop
  endfacet
  facet normal 0 0 1
    outer loop
      vertex 27.8 16.9 2.4
      vertex 30.4188 14.054 2.4
      vertex 30.4 14.4 2.4
    endloop
  endfacet
  facet normal 0 0 1
    outer loop
      vertex 30.5675 5.82176 2.4
      vertex 27.8 2.3 2.4
      vertex 30.4748 5.48791 2.4
    endloop
  endfacet
  facet normal 0 0 1
    outer loop
      vertex 36.7812 14.054 2.4
      vertex 38.4 19.2 2.4
      vertex 36.8 14.4 2.4
    endloop
  endfacet
  facet normal 0 0 1
    outer loop
      vertex 38.4 19.2 2.4
      vertex 36.7812 14.746 2.4
      vertex 36.8 14.4 2.4
    endloop
  endfacet
  facet normal 0 0 1
    outer loop
      vertex 38.4 19.2 2.4
      vertex 36.7252 15.0879 2.4
      vertex 36.7812 14.746 2.4
    endloop
  endfacet
  facet normal 0 0 1
    outer loop
      vertex 38.4 19.2 2.4
      vertex 36.6325 15.4218 2.4
      vertex 36.7252 15.0879 2.4
    endloop
  endfacet
  facet normal 0 0 1
    outer loop
      vertex 38.4 19.2 2.4
      vertex 36.5042 15.7436 2.4
      vertex 36.6325 15.4218 2.4
    endloop
  endfacet
  facet normal 0 0 1
    outer loop
      vertex 38.4 19.2 2.4
      vertex 36.3419 16.0498 2.4
      vertex 36.5042 15.7436 2.4
    endloop
  endfacet
  facet normal 0 0 1
    outer loop
      vertex 38.4 19.2 2.4
      vertex 36.1475 16.3366 2.4
      vertex 36.3419 16.0498 2.4
    endloop
  endfacet
  facet normal 0 0 1
    outer loop
      vertex 38.4 19.2 2.4
      vertex 35.9232 16.6006 2.4
      vertex 36.1475 16.3366 2.4
    endloop
  endfacet
  facet normal 0 0 1
    outer loop
      vertex 38.4 19.2 2.4
      vertex 35.6716 16.8389 2.4
      vertex 35.9232 16.6006 2.4
    endloop
  endfacet
  facet normal 0 0 1
    outer loop
      vertex 38.4 19.2 2.4
      vertex 35.3958 17.0486 2.4
      vertex 35.6716 16.8389 2.4
    endloop
  endfacet
  facet normal 0 0 1
    outer loop
      vertex 38.4 19.2 2.4
      vertex 35.0989 17.2272 2.4
      vertex 35.3958 17.0486 2.4
    endloop
  endfacet
  facet normal 0 0 1
    outer loop
      vertex 38.4 19.2 2.4
      vertex 34.7844 17.3727 2.4
      vertex 35.0989 17.2272 2.4
    endloop
  endfacet
  facet normal 0 0 1
    outer loop
      vertex 38.4 19.2 2.4
      vertex 34.4561 17.4834 2.4
      vertex 34.7844 17.3727 2.4
    endloop
  endfacet
  facet normal 0 0 1
    outer loop
      vertex 38.4 19.2 2.4
      vertex 34.1177 17.5578 2.4
      vertex 34.4561 17.4834 2.4
    endloop
  endfacet
  facet normal 0 0 1
    outer loop
      vertex 38.4 19.2 2.4
      vertex 33.7732 17.5953 2.4
      vertex 34.1177 17.5578 2.4
    endloop
  endfacet
  facet normal 0 0 1
    outer loop
      vertex 38.4 19.2 2.4
      vertex 33.4268 17.5953 2.4
      vertex 33.7732 17.5953 2.4
    endloop
  endfacet
  facet normal -0 0 1
    outer loop
      vertex 28.8 19.2 2.4
      vertex 33.4268 17.5953 2.4
      vertex 38.4 19.2 2.4
    endloop
  endfacet
  facet normal 0 0 1
    outer loop
      vertex 33.4268 17.5953 2.4
      vertex 28.8 19.2 2.4
      vertex 33.0823 17.5578 2.4
    endloop
  endfacet
  facet normal 0 0 1
    outer loop
      vertex 30.4188 14.746 2.4
      vertex 27.8 16.9 2.4
      vertex 30.4 14.4 2.4
    endloop
  endfacet
  facet normal 0 0 1
    outer loop
      vertex 30.4748 15.0879 2.4
      vertex 27.8 16.9 2.4
      vertex 30.4188 14.746 2.4
    endloop
  endfacet
  facet normal 0 0 1
    outer loop
      vertex 30.5675 15.4218 2.4
      vertex 27.8 16.9 2.4
      vertex 30.4748 15.0879 2.4
    endloop
  endfacet
  facet normal 0 0 1
    outer loop
      vertex 30.6958 15.7436 2.4
      vertex 27.8 16.9 2.4
      vertex 30.5675 15.4218 2.4
    endloop
  endfacet
  facet normal 0 0 1
    outer loop
      vertex 30.8581 16.0498 2.4
      vertex 27.8 16.9 2.4
      vertex 30.6958 15.7436 2.4
    endloop
  endfacet
  facet normal 0 0 1
    outer loop
      vertex 31.0525 16.3366 2.4
      vertex 27.8 16.9 2.4
      vertex 30.8581 16.0498 2.4
    endloop
  endfacet
  facet normal -0 0 1
    outer loop
      vertex 27.8 16.9 2.4
      vertex 31.0525 16.3366 2.4
      vertex 28.8 19.2 2.4
    endloop
  endfacet
  facet normal 0 0 1
    outer loop
      vertex 31.2768 16.6006 2.4
      vertex 28.8 19.2 2.4
      vertex 31.0525 16.3366 2.4
    endloop
  endfacet
  facet normal 0 0 1
    outer loop
      vertex 31.5284 16.8389 2.4
      vertex 28.8 19.2 2.4
      vertex 31.2768 16.6006 2.4
    endloop
  endfacet
  facet normal 0 0 1
    outer loop
      vertex 31.8042 17.0486 2.4
      vertex 28.8 19.2 2.4
      vertex 31.5284 16.8389 2.4
    endloop
  endfacet
  facet normal 0 0 1
    outer loop
      vertex 32.1011 17.2272 2.4
      vertex 28.8 19.2 2.4
      vertex 31.8042 17.0486 2.4
    endloop
  endfacet
  facet normal 0 0 1
    outer loop
      vertex 32.4156 17.3727 2.4
      vertex 28.8 19.2 2.4
      vertex 32.1011 17.2272 2.4
    endloop
  endfacet
  facet normal 0 0 1
    outer loop
      vertex 32.7439 17.4834 2.4
      vertex 28.8 19.2 2.4
      vertex 32.4156 17.3727 2.4
    endloop
  endfacet
  facet normal 0 0 1
    outer loop
      vertex 33.0823 17.5578 2.4
      vertex 28.8 19.2 2.4
      vertex 32.7439 17.4834 2.4
    endloop
  endfacet
  facet normal 0 0 1
    outer loop
      vertex 36.7252 13.7121 2.4
      vertex 38.4 19.2 2.4
      vertex 36.7812 14.054 2.4
    endloop
  endfacet
  facet normal -0 0 1
    outer loop
      vertex 36.7812 4.45402 2.4
      vertex 38.4 0 2.4
      vertex 36.8 4.8 2.4
    endloop
  endfacet
  facet normal -0 0 1
    outer loop
      vertex 36.7252 4.11209 2.4
      vertex 38.4 0 2.4
      vertex 36.7812 4.45402 2.4
    endloop
  endfacet
  facet normal -0 0 1
    outer loop
      vertex 36.6325 3.77823 2.4
      vertex 38.4 0 2.4
      vertex 36.7252 4.11209 2.4
    endloop
  endfacet
  facet normal -0 0 1
    outer loop
      vertex 36.5042 3.45635 2.4
      vertex 38.4 0 2.4
      vertex 36.6325 3.77823 2.4
    endloop
  endfacet
  facet normal -0 0 1
    outer loop
      vertex 36.3419 3.15023 2.4
      vertex 38.4 0 2.4
      vertex 36.5042 3.45635 2.4
    endloop
  endfacet
  facet normal -0 0 1
    outer loop
      vertex 36.1475 2.86344 2.4
      vertex 38.4 0 2.4
      vertex 36.3419 3.15023 2.4
    endloop
  endfacet
  facet normal -0 0 1
    outer loop
      vertex 35.9232 2.59936 2.4
      vertex 38.4 0 2.4
      vertex 36.1475 2.86344 2.4
    endloop
  endfacet
  facet normal -0 0 1
    outer loop
      vertex 35.6716 2.36108 2.4
      vertex 38.4 0 2.4
      vertex 35.9232 2.59936 2.4
    endloop
  endfacet
  facet normal -0 0 1
    outer loop
      vertex 35.3958 2.15139 2.4
      vertex 38.4 0 2.4
      vertex 35.6716 2.36108 2.4
    endloop
  endfacet
  facet normal -0 0 1
    outer loop
      vertex 35.0989 1.97276 2.4
      vertex 38.4 0 2.4
      vertex 35.3958 2.15139 2.4
    endloop
  endfacet
  facet normal -0 0 1
    outer loop
      vertex 34.7844 1.82727 2.4
      vertex 38.4 0 2.4
      vertex 35.0989 1.97276 2.4
    endloop
  endfacet
  facet normal -0 0 1
    outer loop
      vertex 34.4561 1.71664 2.4
      vertex 38.4 0 2.4
      vertex 34.7844 1.82727 2.4
    endloop
  endfacet
  facet normal -0 0 1
    outer loop
      vertex 34.1177 1.64216 2.4
      vertex 38.4 0 2.4
      vertex 34.4561 1.71664 2.4
    endloop
  endfacet
  facet normal -0 0 1
    outer loop
      vertex 33.7732 1.60469 2.4
      vertex 38.4 0 2.4
      vertex 34.1177 1.64216 2.4
    endloop
  endfacet
  facet normal -0 0 1
    outer loop
      vertex 33.4268 1.60469 2.4
      vertex 38.4 0 2.4
      vertex 33.7732 1.60469 2.4
    endloop
  endfacet
  facet normal 0 0 1
    outer loop
      vertex 33.0823 1.64216 2.4
      vertex 38.4 0 2.4
      vertex 33.4268 1.60469 2.4
    endloop
  endfacet
  facet normal 0 0 1
    outer loop
      vertex 27.8 2.3 2.4
      vertex 33.0823 1.64216 2.4
      vertex 32.7439 1.71664 2.4
    endloop
  endfacet
  facet normal 0 0 1
    outer loop
      vertex 30.4748 5.48791 2.4
      vertex 27.8 2.3 2.4
      vertex 30.4188 5.14598 2.4
    endloop
  endfacet
  facet normal 0 0 1
    outer loop
      vertex 30.4188 5.14598 2.4
      vertex 27.8 2.3 2.4
      vertex 30.4 4.8 2.4
    endloop
  endfacet
  facet normal 0 0 1
    outer loop
      vertex 30.4 4.8 2.4
      vertex 27.8 2.3 2.4
      vertex 30.4188 4.45402 2.4
    endloop
  endfacet
  facet normal 0 0 1
    outer loop
      vertex 30.4188 4.45402 2.4
      vertex 27.8 2.3 2.4
      vertex 30.4748 4.11209 2.4
    endloop
  endfacet
  facet normal 0 0 1
    outer loop
      vertex 27.8 2.3 2.4
      vertex 30.5675 3.77823 2.4
      vertex 30.4748 4.11209 2.4
    endloop
  endfacet
  facet normal 0 0 1
    outer loop
      vertex 27.8 2.3 2.4
      vertex 30.6958 3.45635 2.4
      vertex 30.5675 3.77823 2.4
    endloop
  endfacet
  facet normal 0 0 1
    outer loop
      vertex 27.8 2.3 2.4
      vertex 30.8581 3.15023 2.4
      vertex 30.6958 3.45635 2.4
    endloop
  endfacet
  facet normal 0 0 1
    outer loop
      vertex 27.8 2.3 2.4
      vertex 31.0525 2.86344 2.4
      vertex 30.8581 3.15023 2.4
    endloop
  endfacet
  facet normal 0 0 1
    outer loop
      vertex 27.8 2.3 2.4
      vertex 31.2768 2.59936 2.4
      vertex 31.0525 2.86344 2.4
    endloop
  endfacet
  facet normal 0 0 1
    outer loop
      vertex 27.8 2.3 2.4
      vertex 31.5284 2.36108 2.4
      vertex 31.2768 2.59936 2.4
    endloop
  endfacet
  facet normal -0 0 1
    outer loop
      vertex 27.8 2.3 2.4
      vertex 31.8042 2.15139 2.4
      vertex 31.5284 2.36108 2.4
    endloop
  endfacet
  facet normal 0 0 1
    outer loop
      vertex 27.8 2.3 2.4
      vertex 32.1011 1.97276 2.4
      vertex 31.8042 2.15139 2.4
    endloop
  endfacet
  facet normal 0 0 1
    outer loop
      vertex 27.8 2.3 2.4
      vertex 32.4156 1.82727 2.4
      vertex 32.1011 1.97276 2.4
    endloop
  endfacet
  facet normal 0 0 1
    outer loop
      vertex 27.8 2.3 2.4
      vertex 32.7439 1.71664 2.4
      vertex 32.4156 1.82727 2.4
    endloop
  endfacet
  facet normal 0 0 1
    outer loop
      vertex 33.0823 1.64216 2.4
      vertex 27.8 2.3 2.4
      vertex 38.4 0 2.4
    endloop
  endfacet
  facet normal 0 0 1
    outer loop
      vertex 0 0 2.4
      vertex 27.8 2.3 2.4
      vertex 7.2 2.3 2.4
    endloop
  endfacet
  facet normal 0 0 1
    outer loop
      vertex 27.8 2.3 2.4
      vertex 0 0 2.4
      vertex 38.4 0 2.4
    endloop
  endfacet
  facet normal 0 0 1
    outer loop
      vertex 0 0 2.4
      vertex 7.2 2.3 2.4
      vertex 0 5.35 2.4
    endloop
  endfacet
  facet normal 0 0 -1
    outer loop
      vertex 37.5766 13.9675 0
      vertex 38.4 19.2 0
      vertex 37.5766 5.23247 0
    endloop
  endfacet
  facet normal 0 0 -1
    outer loop
      vertex 38.4 19.2 0
      vertex 37.5766 13.9675 0
      vertex 37.6 14.4 0
    endloop
  endfacet
  facet normal 0 0 -1
    outer loop
      vertex 37.5065 5.65988 0
      vertex 37.5766 13.9675 0
      vertex 37.5766 5.23247 0
    endloop
  endfacet
  facet normal 0 0 -1
    outer loop
      vertex 37.5065 5.65988 0
      vertex 37.5065 13.5401 0
      vertex 37.5766 13.9675 0
    endloop
  endfacet
  facet normal 0 0 -1
    outer loop
      vertex 37.3906 6.07721 0
      vertex 37.5065 13.5401 0
      vertex 37.5065 5.65988 0
    endloop
  endfacet
  facet normal 0 0 -1
    outer loop
      vertex 37.3906 6.07721 0
      vertex 37.3906 13.1228 0
      vertex 37.5065 13.5401 0
    endloop
  endfacet
  facet normal 0 0 -1
    outer loop
      vertex 37.2303 6.47956 0
      vertex 37.3906 13.1228 0
      vertex 37.3906 6.07721 0
    endloop
  endfacet
  facet normal 0 0 -1
    outer loop
      vertex 37.2303 6.47956 0
      vertex 37.2303 12.7204 0
      vertex 37.3906 13.1228 0
    endloop
  endfacet
  facet normal 0 0 -1
    outer loop
      vertex 37.0274 6.86221 0
      vertex 37.2303 12.7204 0
      vertex 37.2303 6.47956 0
    endloop
  endfacet
  facet normal 0 0 -1
    outer loop
      vertex 37.0274 6.86221 0
      vertex 37.0274 12.3378 0
      vertex 37.2303 12.7204 0
    endloop
  endfacet
  facet normal 0 0 -1
    outer loop
      vertex 36.7844 7.2207 0
      vertex 37.0274 12.3378 0
      vertex 37.0274 6.86221 0
    endloop
  endfacet
  facet normal 0 0 -1
    outer loop
      vertex 36.7844 7.2207 0
      vertex 36.7844 11.9793 0
      vertex 37.0274 12.3378 0
    endloop
  endfacet
  facet normal 0 0 -1
    outer loop
      vertex 36.504 7.5508 0
      vertex 36.7844 11.9793 0
      vertex 36.7844 7.2207 0
    endloop
  endfacet
  facet normal 0 0 -1
    outer loop
      vertex 36.504 7.5508 0
      vertex 36.504 11.6492 0
      vertex 36.7844 11.9793 0
    endloop
  endfacet
  facet normal 0 0 -1
    outer loop
      vertex 36.1895 7.84865 0
      vertex 36.504 11.6492 0
      vertex 36.504 7.5508 0
    endloop
  endfacet
  facet normal 0 0 -1
    outer loop
      vertex 36.1895 7.84865 0
      vertex 36.1895 11.3514 0
      vertex 36.504 11.6492 0
    endloop
  endfacet
  facet normal 0 0 -1
    outer loop
      vertex 35.8447 8.11075 0
      vertex 36.1895 11.3514 0
      vertex 36.1895 7.84865 0
    endloop
  endfacet
  facet normal 0 0 -1
    outer loop
      vertex 35.8447 8.11075 0
      vertex 35.8447 11.0892 0
      vertex 36.1895 11.3514 0
    endloop
  endfacet
  facet normal 0 0 -1
    outer loop
      vertex 35.4736 8.33405 0
      vertex 35.8447 11.0892 0
      vertex 35.8447 8.11075 0
    endloop
  endfacet
  facet normal 0 0 -1
    outer loop
      vertex 35.4736 8.33405 0
      vertex 35.4736 10.866 0
      vertex 35.8447 11.0892 0
    endloop
  endfacet
  facet normal 0 0 -1
    outer loop
      vertex 35.0806 8.51591 0
      vertex 35.4736 10.866 0
      vertex 35.4736 8.33405 0
    endloop
  endfacet
  facet normal 0 0 -1
    outer loop
      vertex 35.0806 8.51591 0
      vertex 35.0806 10.6841 0
      vertex 35.4736 10.866 0
    endloop
  endfacet
  facet normal 0 0 -1
    outer loop
      vertex 34.6701 8.6542 0
      vertex 35.0806 10.6841 0
      vertex 35.0806 8.51591 0
    endloop
  endfacet
  facet normal 0 0 -1
    outer loop
      vertex 34.6701 8.6542 0
      vertex 34.6701 10.5458 0
      vertex 35.0806 10.6841 0
    endloop
  endfacet
  facet normal 0 0 -1
    outer loop
      vertex 34.2471 8.74731 0
      vertex 34.6701 10.5458 0
      vertex 34.6701 8.6542 0
    endloop
  endfacet
  facet normal 0 0 -1
    outer loop
      vertex 34.2471 8.74731 0
      vertex 34.2471 10.4527 0
      vertex 34.6701 10.5458 0
    endloop
  endfacet
  facet normal 0 0 -1
    outer loop
      vertex 33.8166 8.79413 0
      vertex 34.2471 10.4527 0
      vertex 34.2471 8.74731 0
    endloop
  endfacet
  facet normal 0 0 -1
    outer loop
      vertex 33.8166 8.79413 0
      vertex 33.8166 10.4059 0
      vertex 34.2471 10.4527 0
    endloop
  endfacet
  facet normal 0 0 -1
    outer loop
      vertex 33.3834 8.79413 0
      vertex 33.8166 10.4059 0
      vertex 33.8166 8.79413 0
    endloop
  endfacet
  facet normal 0 0 -1
    outer loop
      vertex 33.3834 8.79413 0
      vertex 33.3834 10.4059 0
      vertex 33.8166 10.4059 0
    endloop
  endfacet
  facet normal 0 0 -1
    outer loop
      vertex 32.9529 8.74731 0
      vertex 33.3834 10.4059 0
      vertex 33.3834 8.79413 0
    endloop
  endfacet
  facet normal 0 0 -1
    outer loop
      vertex 32.9529 8.74731 0
      vertex 32.9529 10.4527 0
      vertex 33.3834 10.4059 0
    endloop
  endfacet
  facet normal 0 0 -1
    outer loop
      vertex 32.5299 8.6542 0
      vertex 32.9529 10.4527 0
      vertex 32.9529 8.74731 0
    endloop
  endfacet
  facet normal 0 0 -1
    outer loop
      vertex 32.5299 8.6542 0
      vertex 32.5299 10.5458 0
      vertex 32.9529 10.4527 0
    endloop
  endfacet
  facet normal 0 0 -1
    outer loop
      vertex 32.1194 8.51591 0
      vertex 32.5299 10.5458 0
      vertex 32.5299 8.6542 0
    endloop
  endfacet
  facet normal 0 0 -1
    outer loop
      vertex 32.1194 8.51591 0
      vertex 32.1194 10.6841 0
      vertex 32.5299 10.5458 0
    endloop
  endfacet
  facet normal 0 0 -1
    outer loop
      vertex 31.7264 8.33405 0
      vertex 32.1194 10.6841 0
      vertex 32.1194 8.51591 0
    endloop
  endfacet
  facet normal 0 0 -1
    outer loop
      vertex 31.7264 8.33405 0
      vertex 31.7264 10.866 0
      vertex 32.1194 10.6841 0
    endloop
  endfacet
  facet normal 0 0 -1
    outer loop
      vertex 31.3553 8.11075 0
      vertex 31.7264 10.866 0
      vertex 31.7264 8.33405 0
    endloop
  endfacet
  facet normal 0 0 -1
    outer loop
      vertex 31.3553 8.11075 0
      vertex 31.3553 11.0892 0
      vertex 31.7264 10.866 0
    endloop
  endfacet
  facet normal 0 0 -1
    outer loop
      vertex 31.0105 7.84865 0
      vertex 31.3553 11.0892 0
      vertex 31.3553 8.11075 0
    endloop
  endfacet
  facet normal 0 0 -1
    outer loop
      vertex 31.0105 7.84865 0
      vertex 31.0105 11.3514 0
      vertex 31.3553 11.0892 0
    endloop
  endfacet
  facet normal 0 0 -1
    outer loop
      vertex 30.696 7.5508 0
      vertex 31.0105 11.3514 0
      vertex 31.0105 7.84865 0
    endloop
  endfacet
  facet normal 0 0 -1
    outer loop
      vertex 30.696 7.5508 0
      vertex 30.696 11.6492 0
      vertex 31.0105 11.3514 0
    endloop
  endfacet
  facet normal 0 0 -1
    outer loop
      vertex 30.4156 7.2207 0
      vertex 30.696 11.6492 0
      vertex 30.696 7.5508 0
    endloop
  endfacet
  facet normal 0 0 -1
    outer loop
      vertex 30.4156 7.2207 0
      vertex 30.4156 11.9793 0
      vertex 30.696 11.6492 0
    endloop
  endfacet
  facet normal 0 0 -1
    outer loop
      vertex 30.1726 6.86221 0
      vertex 30.4156 11.9793 0
      vertex 30.4156 7.2207 0
    endloop
  endfacet
  facet normal 0 0 -1
    outer loop
      vertex 30.1726 6.86221 0
      vertex 30.1726 12.3378 0
      vertex 30.4156 11.9793 0
    endloop
  endfacet
  facet normal 0 0 -1
    outer loop
      vertex 29.9697 6.47956 0
      vertex 30.1726 12.3378 0
      vertex 30.1726 6.86221 0
    endloop
  endfacet
  facet normal 0 0 -1
    outer loop
      vertex 29.9697 6.47956 0
      vertex 29.9697 12.7204 0
      vertex 30.1726 12.3378 0
    endloop
  endfacet
  facet normal 0 0 -1
    outer loop
      vertex 25.5 3.1 0
      vertex 29.9697 6.47956 0
      vertex 29.8094 6.07721 0
    endloop
  endfacet
  facet normal -0 0 -1
    outer loop
      vertex 29.9697 6.47956 0
      vertex 25.5 3.1 0
      vertex 29.9697 12.7204 0
    endloop
  endfacet
  facet normal 0 0 -1
    outer loop
      vertex 25.5 3.1 0
      vertex 29.8094 6.07721 0
      vertex 29.6935 5.65988 0
    endloop
  endfacet
  facet normal 0 0 -1
    outer loop
      vertex 25.5 16.1 0
      vertex 29.9697 12.7204 0
      vertex 25.5 3.1 0
    endloop
  endfacet
  facet normal 0 0 -1
    outer loop
      vertex 25.5 3.1 0
      vertex 29.6935 5.65988 0
      vertex 29.6234 5.23247 0
    endloop
  endfacet
  facet normal 0 0 -1
    outer loop
      vertex 29.9697 12.7204 0
      vertex 25.5 16.1 0
      vertex 29.8094 13.1228 0
    endloop
  endfacet
  facet normal 0 0 -1
    outer loop
      vertex 25.5 3.1 0
      vertex 29.6234 5.23247 0
      vertex 29.6 4.8 0
    endloop
  endfacet
  facet normal 0 0 -1
    outer loop
      vertex 29.8094 13.1228 0
      vertex 25.5 16.1 0
      vertex 29.6935 13.5401 0
    endloop
  endfacet
  facet normal 0 0 -1
    outer loop
      vertex 37.5766 5.23247 0
      vertex 38.4 0 0
      vertex 37.6 4.8 0
    endloop
  endfacet
  facet normal 0 0 -1
    outer loop
      vertex 38.4 0 0
      vertex 37.5766 4.36752 0
      vertex 37.6 4.8 0
    endloop
  endfacet
  facet normal 0 0 -1
    outer loop
      vertex 38.4 0 0
      vertex 37.5065 3.94012 0
      vertex 37.5766 4.36752 0
    endloop
  endfacet
  facet normal 0 0 -1
    outer loop
      vertex 38.4 0 0
      vertex 37.3906 3.52279 0
      vertex 37.5065 3.94012 0
    endloop
  endfacet
  facet normal 0 0 -1
    outer loop
      vertex 38.4 0 0
      vertex 37.2303 3.12044 0
      vertex 37.3906 3.52279 0
    endloop
  endfacet
  facet normal 0 0 -1
    outer loop
      vertex 38.4 0 0
      vertex 37.0274 2.73779 0
      vertex 37.2303 3.12044 0
    endloop
  endfacet
  facet normal 0 0 -1
    outer loop
      vertex 38.4 0 0
      vertex 36.7844 2.3793 0
      vertex 37.0274 2.73779 0
    endloop
  endfacet
  facet normal 0 0 -1
    outer loop
      vertex 38.4 0 0
      vertex 36.504 2.0492 0
      vertex 36.7844 2.3793 0
    endloop
  endfacet
  facet normal 0 0 -1
    outer loop
      vertex 38.4 0 0
      vertex 36.1895 1.75135 0
      vertex 36.504 2.0492 0
    endloop
  endfacet
  facet normal 0 0 -1
    outer loop
      vertex 38.4 0 0
      vertex 35.8447 1.48924 0
      vertex 36.1895 1.75135 0
    endloop
  endfacet
  facet normal 0 0 -1
    outer loop
      vertex 38.4 0 0
      vertex 35.4736 1.26595 0
      vertex 35.8447 1.48924 0
    endloop
  endfacet
  facet normal 0 0 -1
    outer loop
      vertex 38.4 0 0
      vertex 35.0806 1.08409 0
      vertex 35.4736 1.26595 0
    endloop
  endfacet
  facet normal 0 0 -1
    outer loop
      vertex 38.4 0 0
      vertex 34.6701 0.945798 0
      vertex 35.0806 1.08409 0
    endloop
  endfacet
  facet normal 0 0 -1
    outer loop
      vertex 38.4 0 0
      vertex 34.2471 0.852692 0
      vertex 34.6701 0.945798 0
    endloop
  endfacet
  facet normal 0 0 -1
    outer loop
      vertex 38.4 0 0
      vertex 33.8166 0.805864 0
      vertex 34.2471 0.852692 0
    endloop
  endfacet
  facet normal 0 0 -1
    outer loop
      vertex 38.4 0 0
      vertex 33.3834 0.805864 0
      vertex 33.8166 0.805864 0
    endloop
  endfacet
  facet normal 0 0 -1
    outer loop
      vertex 38.4 0 0
      vertex 32.9529 0.852692 0
      vertex 33.3834 0.805864 0
    endloop
  endfacet
  facet normal 0 0 -1
    outer loop
      vertex 29.6234 13.9675 0
      vertex 25.5 16.1 0
      vertex 29.6 14.4 0
    endloop
  endfacet
  facet normal 0 0 -1
    outer loop
      vertex 25.5 3.1 0
      vertex 29.6 4.8 0
      vertex 29.6234 4.36752 0
    endloop
  endfacet
  facet normal 0 0 -1
    outer loop
      vertex 29.6 14.4 0
      vertex 25.5 16.1 0
      vertex 28.8 19.2 0
    endloop
  endfacet
  facet normal 0 0 -1
    outer loop
      vertex 29.6935 13.5401 0
      vertex 25.5 16.1 0
      vertex 29.6234 13.9675 0
    endloop
  endfacet
  facet normal -0 0 -1
    outer loop
      vertex 29.6935 3.94012 0
      vertex 25.5 3.1 0
      vertex 29.6234 4.36752 0
    endloop
  endfacet
  facet normal -0 0 -1
    outer loop
      vertex 29.8094 3.52279 0
      vertex 25.5 3.1 0
      vertex 29.6935 3.94012 0
    endloop
  endfacet
  facet normal -0 0 -1
    outer loop
      vertex 29.9697 3.12044 0
      vertex 25.5 3.1 0
      vertex 29.8094 3.52279 0
    endloop
  endfacet
  facet normal 0 0 -1
    outer loop
      vertex 30.1726 2.73779 0
      vertex 25.5 3.1 0
      vertex 29.9697 3.12044 0
    endloop
  endfacet
  facet normal 0 0 -1
    outer loop
      vertex 30.4156 2.3793 0
      vertex 25.5 3.1 0
      vertex 30.1726 2.73779 0
    endloop
  endfacet
  facet normal 0 0 -1
    outer loop
      vertex 30.696 2.0492 0
      vertex 25.5 3.1 0
      vertex 30.4156 2.3793 0
    endloop
  endfacet
  facet normal 0 0 -1
    outer loop
      vertex 31.0105 1.75135 0
      vertex 25.5 3.1 0
      vertex 30.696 2.0492 0
    endloop
  endfacet
  facet normal 0 0 -1
    outer loop
      vertex 31.3553 1.48924 0
      vertex 25.5 3.1 0
      vertex 31.0105 1.75135 0
    endloop
  endfacet
  facet normal 0 0 -1
    outer loop
      vertex 31.7264 1.26595 0
      vertex 25.5 3.1 0
      vertex 31.3553 1.48924 0
    endloop
  endfacet
  facet normal 0 0 -1
    outer loop
      vertex 32.1194 1.08409 0
      vertex 25.5 3.1 0
      vertex 31.7264 1.26595 0
    endloop
  endfacet
  facet normal 0 0 -1
    outer loop
      vertex 12.5 3.1 0
      vertex 32.1194 1.08409 0
      vertex 32.5299 0.945798 0
    endloop
  endfacet
  facet normal 0 0 -1
    outer loop
      vertex 32.1194 1.08409 0
      vertex 12.5 3.1 0
      vertex 25.5 3.1 0
    endloop
  endfacet
  facet normal 0 0 -1
    outer loop
      vertex 0 0 0
      vertex 32.5299 0.945798 0
      vertex 32.9529 0.852692 0
    endloop
  endfacet
  facet normal 0 0 -1
    outer loop
      vertex 0 0 0
      vertex 32.9529 0.852692 0
      vertex 38.4 0 0
    endloop
  endfacet
  facet normal 0 0 -1
    outer loop
      vertex 12.5 3.1 0
      vertex 10.5 5.35 0
      vertex 12.5 16.1 0
    endloop
  endfacet
  facet normal -0 0 -1
    outer loop
      vertex 32.5299 0.945798 0
      vertex 0 0 0
      vertex 12.5 3.1 0
    endloop
  endfacet
  facet normal 0 0 -1
    outer loop
      vertex 0 0 0
      vertex 10.5 5.35 0
      vertex 12.5 3.1 0
    endloop
  endfacet
  facet normal -0 0 -1
    outer loop
      vertex 10.5 5.35 0
      vertex 0 0 0
      vertex 0 5.35 0
    endloop
  endfacet
  facet normal 0 0 -1
    outer loop
      vertex 38.4 0 0
      vertex 37.5766 5.23247 0
      vertex 38.4 19.2 0
    endloop
  endfacet
  facet normal 0 0 -1
    outer loop
      vertex 37.5766 14.8325 0
      vertex 38.4 19.2 0
      vertex 37.6 14.4 0
    endloop
  endfacet
  facet normal 0 0 -1
    outer loop
      vertex 37.5065 15.2599 0
      vertex 38.4 19.2 0
      vertex 37.5766 14.8325 0
    endloop
  endfacet
  facet normal 0 0 -1
    outer loop
      vertex 37.3906 15.6772 0
      vertex 38.4 19.2 0
      vertex 37.5065 15.2599 0
    endloop
  endfacet
  facet normal 0 0 -1
    outer loop
      vertex 37.2303 16.0796 0
      vertex 38.4 19.2 0
      vertex 37.3906 15.6772 0
    endloop
  endfacet
  facet normal 0 0 -1
    outer loop
      vertex 37.0274 16.4622 0
      vertex 38.4 19.2 0
      vertex 37.2303 16.0796 0
    endloop
  endfacet
  facet normal 0 0 -1
    outer loop
      vertex 36.7844 16.8207 0
      vertex 38.4 19.2 0
      vertex 37.0274 16.4622 0
    endloop
  endfacet
  facet normal 0 0 -1
    outer loop
      vertex 36.504 17.1508 0
      vertex 38.4 19.2 0
      vertex 36.7844 16.8207 0
    endloop
  endfacet
  facet normal 0 0 -1
    outer loop
      vertex 36.1895 17.4486 0
      vertex 38.4 19.2 0
      vertex 36.504 17.1508 0
    endloop
  endfacet
  facet normal 0 0 -1
    outer loop
      vertex 35.8447 17.7108 0
      vertex 38.4 19.2 0
      vertex 36.1895 17.4486 0
    endloop
  endfacet
  facet normal 0 0 -1
    outer loop
      vertex 35.4736 17.934 0
      vertex 38.4 19.2 0
      vertex 35.8447 17.7108 0
    endloop
  endfacet
  facet normal 0 0 -1
    outer loop
      vertex 35.0806 18.1159 0
      vertex 38.4 19.2 0
      vertex 35.4736 17.934 0
    endloop
  endfacet
  facet normal 0 0 -1
    outer loop
      vertex 34.6701 18.2542 0
      vertex 38.4 19.2 0
      vertex 35.0806 18.1159 0
    endloop
  endfacet
  facet normal 0 0 -1
    outer loop
      vertex 34.2471 18.3473 0
      vertex 38.4 19.2 0
      vertex 34.6701 18.2542 0
    endloop
  endfacet
  facet normal 0 0 -1
    outer loop
      vertex 33.8166 18.3941 0
      vertex 38.4 19.2 0
      vertex 34.2471 18.3473 0
    endloop
  endfacet
  facet normal 0 0 -1
    outer loop
      vertex 33.3834 18.3941 0
      vertex 38.4 19.2 0
      vertex 33.8166 18.3941 0
    endloop
  endfacet
  facet normal 0 0 -1
    outer loop
      vertex 28.8 19.2 0
      vertex 33.3834 18.3941 0
      vertex 32.9529 18.3473 0
    endloop
  endfacet
  facet normal 0 0 -1
    outer loop
      vertex 33.3834 18.3941 0
      vertex 28.8 19.2 0
      vertex 38.4 19.2 0
    endloop
  endfacet
  facet normal 0 0 -1
    outer loop
      vertex 32.5299 18.2542 0
      vertex 28.8 19.2 0
      vertex 32.9529 18.3473 0
    endloop
  endfacet
  facet normal 0 0 -1
    outer loop
      vertex 32.1194 18.1159 0
      vertex 28.8 19.2 0
      vertex 32.5299 18.2542 0
    endloop
  endfacet
  facet normal 0 0 -1
    outer loop
      vertex 31.7264 17.934 0
      vertex 28.8 19.2 0
      vertex 32.1194 18.1159 0
    endloop
  endfacet
  facet normal 0 0 -1
    outer loop
      vertex 31.3553 17.7108 0
      vertex 28.8 19.2 0
      vertex 31.7264 17.934 0
    endloop
  endfacet
  facet normal 0 0 -1
    outer loop
      vertex 31.0105 17.4486 0
      vertex 28.8 19.2 0
      vertex 31.3553 17.7108 0
    endloop
  endfacet
  facet normal 0 0 -1
    outer loop
      vertex 30.696 17.1508 0
      vertex 28.8 19.2 0
      vertex 31.0105 17.4486 0
    endloop
  endfacet
  facet normal 0 0 -1
    outer loop
      vertex 30.4156 16.8207 0
      vertex 28.8 19.2 0
      vertex 30.696 17.1508 0
    endloop
  endfacet
  facet normal 0 0 -1
    outer loop
      vertex 30.1726 16.4622 0
      vertex 28.8 19.2 0
      vertex 30.4156 16.8207 0
    endloop
  endfacet
  facet normal 0 0 -1
    outer loop
      vertex 29.9697 16.0796 0
      vertex 28.8 19.2 0
      vertex 30.1726 16.4622 0
    endloop
  endfacet
  facet normal 0 0 -1
    outer loop
      vertex 29.8094 15.6772 0
      vertex 28.8 19.2 0
      vertex 29.9697 16.0796 0
    endloop
  endfacet
  facet normal 0 0 -1
    outer loop
      vertex 29.6935 15.2599 0
      vertex 28.8 19.2 0
      vertex 29.8094 15.6772 0
    endloop
  endfacet
  facet normal 0 0 -1
    outer loop
      vertex 29.6234 14.8325 0
      vertex 28.8 19.2 0
      vertex 29.6935 15.2599 0
    endloop
  endfacet
  facet normal 0 0 -1
    outer loop
      vertex 28.8 19.2 0
      vertex 29.6234 14.8325 0
      vertex 29.6 14.4 0
    endloop
  endfacet
  facet normal 0 0 -1
    outer loop
      vertex 12.5 16.1 0
      vertex 28.8 19.2 0
      vertex 25.5 16.1 0
    endloop
  endfacet
  facet normal 0 0 -1
    outer loop
      vertex 10.5 13.85 0
      vertex 12.5 16.1 0
      vertex 10.5 5.35 0
    endloop
  endfacet
  facet normal 0 0 -1
    outer loop
      vertex 0 19.2 0
      vertex 10.5 13.85 0
      vertex 0 13.85 0
    endloop
  endfacet
  facet normal 0 0 -1
    outer loop
      vertex 10.5 13.85 0
      vertex 0 19.2 0
      vertex 12.5 16.1 0
    endloop
  endfacet
  facet normal 0 0 -1
    outer loop
      vertex 12.5 16.1 0
      vertex 0 19.2 0
      vertex 28.8 19.2 0
    endloop
  endfacet
  facet normal -0.936322 0.153505 -0.315811
    outer loop
      vertex 36.7812 4.45402 2.4
      vertex 37.5766 4.36752 0
      vertex 36.7252 4.11209 2.4
    endloop
  endfacet
  facet normal -0.936322 0.153509 -0.31581
    outer loop
      vertex 37.5766 4.36752 0
      vertex 37.5065 3.94012 0
      vertex 36.7252 4.11209 2.4
    endloop
  endfacet
  facet normal -0.914237 0.253839 -0.31581
    outer loop
      vertex 36.7252 4.11209 2.4
      vertex 37.5065 3.94012 0
      vertex 36.6325 3.77823 2.4
    endloop
  endfacet
  facet normal -0.914237 0.25384 -0.31581
    outer loop
      vertex 37.5065 3.94012 0
      vertex 37.3906 3.52279 0
      vertex 36.6325 3.77823 2.4
    endloop
  endfacet
  facet normal -0.881436 0.35119 -0.31581
    outer loop
      vertex 36.6325 3.77823 2.4
      vertex 37.3906 3.52279 0
      vertex 36.5042 3.45635 2.4
    endloop
  endfacet
  facet normal -0.881436 0.351191 -0.31581
    outer loop
      vertex 37.3906 3.52279 0
      vertex 37.2303 3.12044 0
      vertex 36.5042 3.45635 2.4
    endloop
  endfacet
  facet normal -0.838293 0.444442 -0.31581
    outer loop
      vertex 36.5042 3.45635 2.4
      vertex 37.2303 3.12044 0
      vertex 36.3419 3.15023 2.4
    endloop
  endfacet
  facet normal -0.838295 0.444438 -0.31581
    outer loop
      vertex 37.2303 3.12044 0
      vertex 37.0274 2.73779 0
      vertex 36.3419 3.15023 2.4
    endloop
  endfacet
  facet normal -0.785332 0.532464 -0.31581
    outer loop
      vertex 36.3419 3.15023 2.4
      vertex 37.0274 2.73779 0
      vertex 36.1475 2.86344 2.4
    endloop
  endfacet
  facet normal -0.785329 0.532469 -0.315809
    outer loop
      vertex 37.0274 2.73779 0
      vertex 36.7844 2.3793 0
      vertex 36.1475 2.86344 2.4
    endloop
  endfacet
  facet normal -0.723159 0.614253 -0.315809
    outer loop
      vertex 36.1475 2.86344 2.4
      vertex 36.7844 2.3793 0
      vertex 35.9232 2.59936 2.4
    endloop
  endfacet
  facet normal -0.72316 0.614251 -0.31581
    outer loop
      vertex 36.7844 2.3793 0
      vertex 36.504 2.0492 0
      vertex 35.9232 2.59936 2.4
    endloop
  endfacet
  facet normal -0.652502 0.688844 -0.31581
    outer loop
      vertex 35.9232 2.59936 2.4
      vertex 36.504 2.0492 0
      vertex 35.6716 2.36108 2.4
    endloop
  endfacet
  facet normal -0.652505 0.688841 -0.31581
    outer loop
      vertex 36.504 2.0492 0
      vertex 36.1895 1.75135 0
      vertex 35.6716 2.36108 2.4
    endloop
  endfacet
  facet normal -0.574202 0.755352 -0.31581
    outer loop
      vertex 35.6716 2.36108 2.4
      vertex 36.1895 1.75135 0
      vertex 35.3958 2.15139 2.4
    endloop
  endfacet
  facet normal -0.574206 0.755348 -0.315811
    outer loop
      vertex 36.1895 1.75135 0
      vertex 35.8447 1.48924 0
      vertex 35.3958 2.15139 2.4
    endloop
  endfacet
  facet normal -0.489172 0.813003 -0.315811
    outer loop
      vertex 35.3958 2.15139 2.4
      vertex 35.8447 1.48924 0
      vertex 35.0989 1.97276 2.4
    endloop
  endfacet
  facet normal -0.489163 0.813009 -0.315809
    outer loop
      vertex 35.8447 1.48924 0
      vertex 35.4736 1.26595 0
      vertex 35.0989 1.97276 2.4
    endloop
  endfacet
  facet normal -0.398403 0.861127 -0.315809
    outer loop
      vertex 35.0989 1.97276 2.4
      vertex 35.4736 1.26595 0
      vertex 34.7844 1.82727 2.4
    endloop
  endfacet
  facet normal -0.398406 0.861126 -0.31581
    outer loop
      vertex 35.4736 1.26595 0
      vertex 35.0806 1.08409 0
      vertex 34.7844 1.82727 2.4
    endloop
  endfacet
  facet normal -0.302957 0.899156 -0.31581
    outer loop
      vertex 34.7844 1.82727 2.4
      vertex 35.0806 1.08409 0
      vertex 34.4561 1.71664 2.4
    endloop
  endfacet
  facet normal -0.302961 0.899154 -0.315811
    outer loop
      vertex 35.0806 1.08409 0
      vertex 34.6701 0.945798 0
      vertex 34.4561 1.71664 2.4
    endloop
  endfacet
  facet normal -0.203965 0.92664 -0.315811
    outer loop
      vertex 34.4561 1.71664 2.4
      vertex 34.6701 0.945798 0
      vertex 34.1177 1.64216 2.4
    endloop
  endfacet
  facet normal -0.203969 0.926639 -0.315811
    outer loop
      vertex 34.6701 0.945798 0
      vertex 34.2471 0.852692 0
      vertex 34.1177 1.64216 2.4
    endloop
  endfacet
  facet normal -0.102586 0.94326 -0.315811
    outer loop
      vertex 34.1177 1.64216 2.4
      vertex 34.2471 0.852692 0
      vertex 33.7732 1.60469 2.4
    endloop
  endfacet
  facet normal -0.102585 0.94326 -0.315811
    outer loop
      vertex 34.2471 0.852692 0
      vertex 33.8166 0.805864 0
      vertex 33.7732 1.60469 2.4
    endloop
  endfacet
  facet normal 0 0.948822 -0.315811
    outer loop
      vertex 33.8166 0.805864 0
      vertex 33.4268 1.60469 2.4
      vertex 33.7732 1.60469 2.4
    endloop
  endfacet
  facet normal 0 0.948822 -0.315811
    outer loop
      vertex 33.4268 1.60469 2.4
      vertex 33.8166 0.805864 0
      vertex 33.3834 0.805864 0
    endloop
  endfacet
  facet normal 0.102587 0.94326 -0.315811
    outer loop
      vertex 33.4268 1.60469 2.4
      vertex 33.3834 0.805864 0
      vertex 33.0823 1.64216 2.4
    endloop
  endfacet
  facet normal 0.102585 0.94326 -0.315811
    outer loop
      vertex 33.0823 1.64216 2.4
      vertex 33.3834 0.805864 0
      vertex 32.9529 0.852692 0
    endloop
  endfacet
  facet normal 0.203962 0.92664 -0.315811
    outer loop
      vertex 33.0823 1.64216 2.4
      vertex 32.9529 0.852692 0
      vertex 32.7439 1.71664 2.4
    endloop
  endfacet
  facet normal 0.203967 0.92664 -0.315811
    outer loop
      vertex 32.7439 1.71664 2.4
      vertex 32.9529 0.852692 0
      vertex 32.5299 0.945798 0
    endloop
  endfacet
  facet normal 0.30296 0.899155 -0.315811
    outer loop
      vertex 32.7439 1.71664 2.4
      vertex 32.5299 0.945798 0
      vertex 32.4156 1.82727 2.4
    endloop
  endfacet
  facet normal 0.302961 0.899154 -0.31581
    outer loop
      vertex 32.4156 1.82727 2.4
      vertex 32.5299 0.945798 0
      vertex 32.1194 1.08409 0
    endloop
  endfacet
  facet normal 0.398402 0.861127 -0.31581
    outer loop
      vertex 32.4156 1.82727 2.4
      vertex 32.1194 1.08409 0
      vertex 32.1011 1.97276 2.4
    endloop
  endfacet
  facet normal 0.398407 0.861125 -0.31581
    outer loop
      vertex 32.1011 1.97276 2.4
      vertex 32.1194 1.08409 0
      vertex 31.7264 1.26595 0
    endloop
  endfacet
  facet normal 0.48917 0.813005 -0.31581
    outer loop
      vertex 31.8042 2.15139 2.4
      vertex 32.1011 1.97276 2.4
      vertex 31.7264 1.26595 0
    endloop
  endfacet
  facet normal 0.489164 0.813008 -0.315811
    outer loop
      vertex 31.8042 2.15139 2.4
      vertex 31.7264 1.26595 0
      vertex 31.3553 1.48924 0
    endloop
  endfacet
  facet normal 0.574199 0.755353 -0.315811
    outer loop
      vertex 31.5284 2.36108 2.4
      vertex 31.8042 2.15139 2.4
      vertex 31.3553 1.48924 0
    endloop
  endfacet
  facet normal 0.574204 0.75535 -0.31581
    outer loop
      vertex 31.5284 2.36108 2.4
      vertex 31.3553 1.48924 0
      vertex 31.0105 1.75135 0
    endloop
  endfacet
  facet normal 0.652507 0.688839 -0.31581
    outer loop
      vertex 31.2768 2.59936 2.4
      vertex 31.5284 2.36108 2.4
      vertex 31.0105 1.75135 0
    endloop
  endfacet
  facet normal 0.652507 0.688839 -0.31581
    outer loop
      vertex 31.2768 2.59936 2.4
      vertex 31.0105 1.75135 0
      vertex 30.696 2.0492 0
    endloop
  endfacet
  facet normal 0.723158 0.614252 -0.31581
    outer loop
      vertex 31.0525 2.86344 2.4
      vertex 31.2768 2.59936 2.4
      vertex 30.696 2.0492 0
    endloop
  endfacet
  facet normal 0.723156 0.614255 -0.31581
    outer loop
      vertex 31.0525 2.86344 2.4
      vertex 30.696 2.0492 0
      vertex 30.4156 2.3793 0
    endloop
  endfacet
  facet normal 0.78533 0.532467 -0.31581
    outer loop
      vertex 30.8581 3.15023 2.4
      vertex 31.0525 2.86344 2.4
      vertex 30.4156 2.3793 0
    endloop
  endfacet
  facet normal 0.78533 0.532466 -0.31581
    outer loop
      vertex 30.8581 3.15023 2.4
      vertex 30.4156 2.3793 0
      vertex 30.1726 2.73779 0
    endloop
  endfacet
  facet normal 0.838295 0.444438 -0.31581
    outer loop
      vertex 30.6958 3.45635 2.4
      vertex 30.8581 3.15023 2.4
      vertex 30.1726 2.73779 0
    endloop
  endfacet
  facet normal 0.838295 0.444438 -0.31581
    outer loop
      vertex 30.6958 3.45635 2.4
      vertex 30.1726 2.73779 0
      vertex 29.9697 3.12044 0
    endloop
  endfacet
  facet normal 0.881432 0.351199 -0.31581
    outer loop
      vertex 30.5675 3.77823 2.4
      vertex 30.6958 3.45635 2.4
      vertex 29.9697 3.12044 0
    endloop
  endfacet
  facet normal 0.881434 0.351195 -0.31581
    outer loop
      vertex 30.5675 3.77823 2.4
      vertex 29.9697 3.12044 0
      vertex 29.8094 3.52279 0
    endloop
  endfacet
  facet normal 0.914239 0.253835 -0.31581
    outer loop
      vertex 30.4748 4.11209 2.4
      vertex 30.5675 3.77823 2.4
      vertex 29.8094 3.52279 0
    endloop
  endfacet
  facet normal 0.914237 0.25384 -0.315811
    outer loop
      vertex 30.4748 4.11209 2.4
      vertex 29.8094 3.52279 0
      vertex 29.6935 3.94012 0
    endloop
  endfacet
  facet normal 0.936323 0.1535 -0.315811
    outer loop
      vertex 30.4188 4.45402 2.4
      vertex 30.4748 4.11209 2.4
      vertex 29.6935 3.94012 0
    endloop
  endfacet
  facet normal 0.936323 0.153501 -0.315811
    outer loop
      vertex 30.4188 4.45402 2.4
      vertex 29.6935 3.94012 0
      vertex 29.6234 4.36752 0
    endloop
  endfacet
  facet normal 0.947431 0.0513692 -0.315811
    outer loop
      vertex 30.4 4.8 2.4
      vertex 30.4188 4.45402 2.4
      vertex 29.6234 4.36752 0
    endloop
  endfacet
  facet normal 0.947431 0.0513698 -0.315811
    outer loop
      vertex 30.4 4.8 2.4
      vertex 29.6234 4.36752 0
      vertex 29.6 4.8 0
    endloop
  endfacet
  facet normal 0.947431 -0.0513686 -0.315811
    outer loop
      vertex 30.4188 5.14598 2.4
      vertex 30.4 4.8 2.4
      vertex 29.6 4.8 0
    endloop
  endfacet
  facet normal 0.947431 -0.0513699 -0.315811
    outer loop
      vertex 29.6234 5.23247 0
      vertex 30.4188 5.14598 2.4
      vertex 29.6 4.8 0
    endloop
  endfacet
  facet normal 0.936323 -0.1535 -0.31581
    outer loop
      vertex 30.4748 5.48791 2.4
      vertex 30.4188 5.14598 2.4
      vertex 29.6234 5.23247 0
    endloop
  endfacet
  facet normal 0.936323 -0.153499 -0.315811
    outer loop
      vertex 29.6935 5.65988 0
      vertex 30.4748 5.48791 2.4
      vertex 29.6234 5.23247 0
    endloop
  endfacet
  facet normal 0.914238 -0.253837 -0.315811
    outer loop
      vertex 30.5675 5.82176 2.4
      vertex 30.4748 5.48791 2.4
      vertex 29.6935 5.65988 0
    endloop
  endfacet
  facet normal 0.914237 -0.25384 -0.31581
    outer loop
      vertex 29.8094 6.07721 0
      vertex 30.5675 5.82176 2.4
      vertex 29.6935 5.65988 0
    endloop
  endfacet
  facet normal 0.881433 -0.351198 -0.31581
    outer loop
      vertex 30.6958 6.14365 2.4
      vertex 30.5675 5.82176 2.4
      vertex 29.8094 6.07721 0
    endloop
  endfacet
  facet normal 0.881434 -0.351195 -0.31581
    outer loop
      vertex 29.9697 6.47956 0
      vertex 30.6958 6.14365 2.4
      vertex 29.8094 6.07721 0
    endloop
  endfacet
  facet normal 0.838296 -0.444436 -0.31581
    outer loop
      vertex 30.8581 6.44977 2.4
      vertex 30.6958 6.14365 2.4
      vertex 29.9697 6.47956 0
    endloop
  endfacet
  facet normal 0.838295 -0.444438 -0.31581
    outer loop
      vertex 30.1726 6.86221 0
      vertex 30.8581 6.44977 2.4
      vertex 29.9697 6.47956 0
    endloop
  endfacet
  facet normal 0.78533 -0.532467 -0.31581
    outer loop
      vertex 31.0525 6.73656 2.4
      vertex 30.8581 6.44977 2.4
      vertex 30.1726 6.86221 0
    endloop
  endfacet
  facet normal 0.785332 -0.532463 -0.315811
    outer loop
      vertex 30.4156 7.2207 0
      vertex 31.0525 6.73656 2.4
      vertex 30.1726 6.86221 0
    endloop
  endfacet
  facet normal 0.723156 -0.614255 -0.315811
    outer loop
      vertex 31.2768 7.00064 2.4
      vertex 31.0525 6.73656 2.4
      vertex 30.4156 7.2207 0
    endloop
  endfacet
  facet normal 0.723154 -0.614257 -0.31581
    outer loop
      vertex 30.696 7.5508 0
      vertex 31.2768 7.00064 2.4
      vertex 30.4156 7.2207 0
    endloop
  endfacet
  facet normal 0.652506 -0.68884 -0.31581
    outer loop
      vertex 31.5284 7.23892 2.4
      vertex 31.2768 7.00064 2.4
      vertex 30.696 7.5508 0
    endloop
  endfacet
  facet normal 0.652505 -0.688841 -0.31581
    outer loop
      vertex 31.0105 7.84865 0
      vertex 31.5284 7.23892 2.4
      vertex 30.696 7.5508 0
    endloop
  endfacet
  facet normal 0.574203 -0.755351 -0.31581
    outer loop
      vertex 31.8042 7.4486 2.4
      vertex 31.5284 7.23892 2.4
      vertex 31.0105 7.84865 0
    endloop
  endfacet
  facet normal 0.574203 -0.755351 -0.31581
    outer loop
      vertex 31.3553 8.11075 0
      vertex 31.8042 7.4486 2.4
      vertex 31.0105 7.84865 0
    endloop
  endfacet
  facet normal 0.489168 -0.813006 -0.31581
    outer loop
      vertex 32.1011 7.62724 2.4
      vertex 31.8042 7.4486 2.4
      vertex 31.3553 8.11075 0
    endloop
  endfacet
  facet normal 0.489168 -0.813006 -0.31581
    outer loop
      vertex 31.7264 8.33405 0
      vertex 32.1011 7.62724 2.4
      vertex 31.3553 8.11075 0
    endloop
  endfacet
  facet normal 0.398402 -0.861127 -0.31581
    outer loop
      vertex 32.4156 7.77273 2.4
      vertex 32.1011 7.62724 2.4
      vertex 31.7264 8.33405 0
    endloop
  endfacet
  facet normal 0.398404 -0.861126 -0.31581
    outer loop
      vertex 32.1194 8.51591 0
      vertex 32.4156 7.77273 2.4
      vertex 31.7264 8.33405 0
    endloop
  endfacet
  facet normal 0.302958 -0.899156 -0.31581
    outer loop
      vertex 32.7439 7.88336 2.4
      vertex 32.4156 7.77273 2.4
      vertex 32.1194 8.51591 0
    endloop
  endfacet
  facet normal 0.302963 -0.899153 -0.315811
    outer loop
      vertex 32.5299 8.6542 0
      vertex 32.7439 7.88336 2.4
      vertex 32.1194 8.51591 0
    endloop
  endfacet
  facet normal 0.20397 -0.926639 -0.315811
    outer loop
      vertex 33.0823 7.95784 2.4
      vertex 32.7439 7.88336 2.4
      vertex 32.5299 8.6542 0
    endloop
  endfacet
  facet normal 0.203965 -0.92664 -0.31581
    outer loop
      vertex 32.9529 8.74731 0
      vertex 33.0823 7.95784 2.4
      vertex 32.5299 8.6542 0
    endloop
  endfacet
  facet normal 0.102584 -0.94326 -0.31581
    outer loop
      vertex 33.4268 7.99531 2.4
      vertex 33.0823 7.95784 2.4
      vertex 32.9529 8.74731 0
    endloop
  endfacet
  facet normal 0.102585 -0.94326 -0.31581
    outer loop
      vertex 33.3834 8.79413 0
      vertex 33.4268 7.99531 2.4
      vertex 32.9529 8.74731 0
    endloop
  endfacet
  facet normal 0 -0.948822 -0.31581
    outer loop
      vertex 33.3834 8.79413 0
      vertex 33.7732 7.99531 2.4
      vertex 33.4268 7.99531 2.4
    endloop
  endfacet
  facet normal 0 -0.948822 -0.31581
    outer loop
      vertex 33.7732 7.99531 2.4
      vertex 33.3834 8.79413 0
      vertex 33.8166 8.79413 0
    endloop
  endfacet
  facet normal -0.102583 -0.943261 -0.315811
    outer loop
      vertex 33.8166 8.79413 0
      vertex 34.1177 7.95784 2.4
      vertex 33.7732 7.99531 2.4
    endloop
  endfacet
  facet normal -0.102585 -0.94326 -0.31581
    outer loop
      vertex 34.2471 8.74731 0
      vertex 34.1177 7.95784 2.4
      vertex 33.8166 8.79413 0
    endloop
  endfacet
  facet normal -0.203972 -0.926639 -0.31581
    outer loop
      vertex 34.2471 8.74731 0
      vertex 34.4561 7.88336 2.4
      vertex 34.1177 7.95784 2.4
    endloop
  endfacet
  facet normal -0.203967 -0.92664 -0.315811
    outer loop
      vertex 34.6701 8.6542 0
      vertex 34.4561 7.88336 2.4
      vertex 34.2471 8.74731 0
    endloop
  endfacet
  facet normal -0.302954 -0.899156 -0.315811
    outer loop
      vertex 34.6701 8.6542 0
      vertex 34.7844 7.77273 2.4
      vertex 34.4561 7.88336 2.4
    endloop
  endfacet
  facet normal -0.302963 -0.899154 -0.31581
    outer loop
      vertex 35.0806 8.51591 0
      vertex 34.7844 7.77273 2.4
      vertex 34.6701 8.6542 0
    endloop
  endfacet
  facet normal -0.398402 -0.861127 -0.31581
    outer loop
      vertex 35.0806 8.51591 0
      vertex 35.0989 7.62724 2.4
      vertex 34.7844 7.77273 2.4
    endloop
  endfacet
  facet normal -0.398402 -0.861127 -0.31581
    outer loop
      vertex 35.4736 8.33405 0
      vertex 35.0989 7.62724 2.4
      vertex 35.0806 8.51591 0
    endloop
  endfacet
  facet normal -0.489171 -0.813005 -0.31581
    outer loop
      vertex 35.4736 8.33405 0
      vertex 35.3958 7.4486 2.4
      vertex 35.0989 7.62724 2.4
    endloop
  endfacet
  facet normal -0.489166 -0.813007 -0.31581
    outer loop
      vertex 35.4736 8.33405 0
      vertex 35.8447 8.11075 0
      vertex 35.3958 7.4486 2.4
    endloop
  endfacet
  facet normal -0.574205 -0.755349 -0.31581
    outer loop
      vertex 35.8447 8.11075 0
      vertex 35.6716 7.23892 2.4
      vertex 35.3958 7.4486 2.4
    endloop
  endfacet
  facet normal -0.574205 -0.755349 -0.315811
    outer loop
      vertex 35.8447 8.11075 0
      vertex 36.1895 7.84865 0
      vertex 35.6716 7.23892 2.4
    endloop
  endfacet
  facet normal -0.6525 -0.688845 -0.315811
    outer loop
      vertex 36.1895 7.84865 0
      vertex 35.9232 7.00064 2.4
      vertex 35.6716 7.23892 2.4
    endloop
  endfacet
  facet normal -0.652503 -0.688843 -0.31581
    outer loop
      vertex 36.1895 7.84865 0
      vertex 36.504 7.5508 0
      vertex 35.9232 7.00064 2.4
    endloop
  endfacet
  facet normal -0.723158 -0.614253 -0.31581
    outer loop
      vertex 36.7844 7.2207 0
      vertex 35.9232 7.00064 2.4
      vertex 36.504 7.5508 0
    endloop
  endfacet
  facet normal -0.723156 -0.614255 -0.31581
    outer loop
      vertex 35.9232 7.00064 2.4
      vertex 36.7844 7.2207 0
      vertex 36.1475 6.73656 2.4
    endloop
  endfacet
  facet normal -0.785332 -0.532464 -0.31581
    outer loop
      vertex 36.7844 7.2207 0
      vertex 36.3419 6.44977 2.4
      vertex 36.1475 6.73656 2.4
    endloop
  endfacet
  facet normal -0.78533 -0.532466 -0.31581
    outer loop
      vertex 36.7844 7.2207 0
      vertex 37.0274 6.86221 0
      vertex 36.3419 6.44977 2.4
    endloop
  endfacet
  facet normal -0.838294 -0.44444 -0.31581
    outer loop
      vertex 37.0274 6.86221 0
      vertex 36.5042 6.14365 2.4
      vertex 36.3419 6.44977 2.4
    endloop
  endfacet
  facet normal -0.838295 -0.444438 -0.31581
    outer loop
      vertex 37.0274 6.86221 0
      vertex 37.2303 6.47956 0
      vertex 36.5042 6.14365 2.4
    endloop
  endfacet
  facet normal -0.881436 -0.351189 -0.31581
    outer loop
      vertex 37.2303 6.47956 0
      vertex 36.6325 5.82176 2.4
      vertex 36.5042 6.14365 2.4
    endloop
  endfacet
  facet normal -0.881435 -0.351192 -0.31581
    outer loop
      vertex 37.2303 6.47956 0
      vertex 37.3906 6.07721 0
      vertex 36.6325 5.82176 2.4
    endloop
  endfacet
  facet normal -0.914237 -0.253841 -0.31581
    outer loop
      vertex 37.3906 6.07721 0
      vertex 36.7252 5.48791 2.4
      vertex 36.6325 5.82176 2.4
    endloop
  endfacet
  facet normal -0.914237 -0.25384 -0.31581
    outer loop
      vertex 37.3906 6.07721 0
      vertex 37.5065 5.65988 0
      vertex 36.7252 5.48791 2.4
    endloop
  endfacet
  facet normal -0.936323 -0.153505 -0.31581
    outer loop
      vertex 37.5065 5.65988 0
      vertex 36.7812 5.14598 2.4
      vertex 36.7252 5.48791 2.4
    endloop
  endfacet
  facet normal -0.936322 -0.153508 -0.31581
    outer loop
      vertex 37.5065 5.65988 0
      vertex 37.5766 5.23247 0
      vertex 36.7812 5.14598 2.4
    endloop
  endfacet
  facet normal -0.947431 -0.0513634 -0.31581
    outer loop
      vertex 37.5766 5.23247 0
      vertex 36.8 4.8 2.4
      vertex 36.7812 5.14598 2.4
    endloop
  endfacet
  facet normal -0.947431 -0.0513616 -0.31581
    outer loop
      vertex 37.5766 5.23247 0
      vertex 37.6 4.8 0
      vertex 36.8 4.8 2.4
    endloop
  endfacet
  facet normal -0.947431 0.051364 -0.31581
    outer loop
      vertex 36.8 4.8 2.4
      vertex 37.6 4.8 0
      vertex 36.7812 4.45402 2.4
    endloop
  endfacet
  facet normal -0.947431 0.0513614 -0.31581
    outer loop
      vertex 37.6 4.8 0
      vertex 37.5766 4.36752 0
      vertex 36.7812 4.45402 2.4
    endloop
  endfacet
  facet normal 0 -1 0
    outer loop
      vertex 0 0 0
      vertex 38.4 0 2.4
      vertex 0 0 2.4
    endloop
  endfacet
  facet normal 0 -1 -0
    outer loop
      vertex 38.4 0 2.4
      vertex 0 0 0
      vertex 38.4 0 0
    endloop
  endfacet
  facet normal 1 -0 0
    outer loop
      vertex 38.4 0 2.4
      vertex 38.4 19.2 0
      vertex 38.4 19.2 2.4
    endloop
  endfacet
  facet normal 1 0 0
    outer loop
      vertex 38.4 19.2 0
      vertex 38.4 0 2.4
      vertex 38.4 0 0
    endloop
  endfacet
  facet normal 0 1 -0
    outer loop
      vertex 38.4 19.2 0
      vertex 28.8 19.2 2.4
      vertex 38.4 19.2 2.4
    endloop
  endfacet
  facet normal 0 1 0
    outer loop
      vertex 28.8 19.2 2.4
      vertex 38.4 19.2 0
      vertex 28.8 19.2 0
    endloop
  endfacet
  facet normal -0.936322 0.153505 -0.315811
    outer loop
      vertex 36.7812 14.054 2.4
      vertex 37.5766 13.9675 0
      vertex 36.7252 13.7121 2.4
    endloop
  endfacet
  facet normal -0.936322 0.153509 -0.31581
    outer loop
      vertex 37.5766 13.9675 0
      vertex 37.5065 13.5401 0
      vertex 36.7252 13.7121 2.4
    endloop
  endfacet
  facet normal -0.914237 0.25384 -0.31581
    outer loop
      vertex 36.7252 13.7121 2.4
      vertex 37.5065 13.5401 0
      vertex 36.6325 13.3782 2.4
    endloop
  endfacet
  facet normal -0.914237 0.25384 -0.31581
    outer loop
      vertex 37.5065 13.5401 0
      vertex 37.3906 13.1228 0
      vertex 36.6325 13.3782 2.4
    endloop
  endfacet
  facet normal -0.881436 0.351189 -0.31581
    outer loop
      vertex 36.6325 13.3782 2.4
      vertex 37.3906 13.1228 0
      vertex 36.5042 13.0564 2.4
    endloop
  endfacet
  facet normal -0.881436 0.351192 -0.315809
    outer loop
      vertex 37.3906 13.1228 0
      vertex 37.2303 12.7204 0
      vertex 36.5042 13.0564 2.4
    endloop
  endfacet
  facet normal -0.838293 0.444442 -0.315809
    outer loop
      vertex 36.5042 13.0564 2.4
      vertex 37.2303 12.7204 0
      vertex 36.3419 12.7502 2.4
    endloop
  endfacet
  facet normal -0.838295 0.444438 -0.31581
    outer loop
      vertex 37.2303 12.7204 0
      vertex 37.0274 12.3378 0
      vertex 36.3419 12.7502 2.4
    endloop
  endfacet
  facet normal -0.785332 0.532464 -0.31581
    outer loop
      vertex 36.3419 12.7502 2.4
      vertex 37.0274 12.3378 0
      vertex 36.1475 12.4634 2.4
    endloop
  endfacet
  facet normal -0.785329 0.532468 -0.315809
    outer loop
      vertex 37.0274 12.3378 0
      vertex 36.7844 11.9793 0
      vertex 36.1475 12.4634 2.4
    endloop
  endfacet
  facet normal -0.723159 0.614253 -0.315809
    outer loop
      vertex 36.1475 12.4634 2.4
      vertex 36.7844 11.9793 0
      vertex 35.9232 12.1994 2.4
    endloop
  endfacet
  facet normal -0.72316 0.614251 -0.31581
    outer loop
      vertex 36.7844 11.9793 0
      vertex 36.504 11.6492 0
      vertex 35.9232 12.1994 2.4
    endloop
  endfacet
  facet normal -0.6525 0.688845 -0.31581
    outer loop
      vertex 35.9232 12.1994 2.4
      vertex 36.504 11.6492 0
      vertex 35.6716 11.9611 2.4
    endloop
  endfacet
  facet normal -0.652505 0.68884 -0.315811
    outer loop
      vertex 36.504 11.6492 0
      vertex 36.1895 11.3514 0
      vertex 35.6716 11.9611 2.4
    endloop
  endfacet
  facet normal -0.574202 0.755351 -0.315811
    outer loop
      vertex 35.6716 11.9611 2.4
      vertex 36.1895 11.3514 0
      vertex 35.3958 11.7514 2.4
    endloop
  endfacet
  facet normal -0.574205 0.755349 -0.315811
    outer loop
      vertex 36.1895 11.3514 0
      vertex 35.8447 11.0892 0
      vertex 35.3958 11.7514 2.4
    endloop
  endfacet
  facet normal -0.489174 0.813002 -0.315811
    outer loop
      vertex 35.3958 11.7514 2.4
      vertex 35.8447 11.0892 0
      vertex 35.0989 11.5728 2.4
    endloop
  endfacet
  facet normal -0.489163 0.813009 -0.315809
    outer loop
      vertex 35.8447 11.0892 0
      vertex 35.4736 10.866 0
      vertex 35.0989 11.5728 2.4
    endloop
  endfacet
  facet normal -0.398403 0.861127 -0.315809
    outer loop
      vertex 35.0989 11.5728 2.4
      vertex 35.4736 10.866 0
      vertex 34.7844 11.4273 2.4
    endloop
  endfacet
  facet normal -0.398406 0.861126 -0.31581
    outer loop
      vertex 35.4736 10.866 0
      vertex 35.0806 10.6841 0
      vertex 34.7844 11.4273 2.4
    endloop
  endfacet
  facet normal -0.302955 0.899157 -0.31581
    outer loop
      vertex 34.7844 11.4273 2.4
      vertex 35.0806 10.6841 0
      vertex 34.4561 11.3166 2.4
    endloop
  endfacet
  facet normal -0.302961 0.899154 -0.315811
    outer loop
      vertex 35.0806 10.6841 0
      vertex 34.6701 10.5458 0
      vertex 34.4561 11.3166 2.4
    endloop
  endfacet
  facet normal -0.203967 0.92664 -0.315811
    outer loop
      vertex 34.4561 11.3166 2.4
      vertex 34.6701 10.5458 0
      vertex 34.1177 11.2422 2.4
    endloop
  endfacet
  facet normal -0.203969 0.926639 -0.315811
    outer loop
      vertex 34.6701 10.5458 0
      vertex 34.2471 10.4527 0
      vertex 34.1177 11.2422 2.4
    endloop
  endfacet
  facet normal -0.102583 0.94326 -0.315811
    outer loop
      vertex 34.1177 11.2422 2.4
      vertex 34.2471 10.4527 0
      vertex 33.7732 11.2047 2.4
    endloop
  endfacet
  facet normal -0.102585 0.94326 -0.315811
    outer loop
      vertex 34.2471 10.4527 0
      vertex 33.8166 10.4059 0
      vertex 33.7732 11.2047 2.4
    endloop
  endfacet
  facet normal 0 0.948822 -0.315811
    outer loop
      vertex 33.8166 10.4059 0
      vertex 33.4268 11.2047 2.4
      vertex 33.7732 11.2047 2.4
    endloop
  endfacet
  facet normal 0 0.948822 -0.315811
    outer loop
      vertex 33.4268 11.2047 2.4
      vertex 33.8166 10.4059 0
      vertex 33.3834 10.4059 0
    endloop
  endfacet
  facet normal 0.102584 0.94326 -0.315811
    outer loop
      vertex 33.4268 11.2047 2.4
      vertex 33.3834 10.4059 0
      vertex 33.0823 11.2422 2.4
    endloop
  endfacet
  facet normal 0.102585 0.94326 -0.315811
    outer loop
      vertex 33.0823 11.2422 2.4
      vertex 33.3834 10.4059 0
      vertex 32.9529 10.4527 0
    endloop
  endfacet
  facet normal 0.203965 0.92664 -0.315811
    outer loop
      vertex 33.0823 11.2422 2.4
      vertex 32.9529 10.4527 0
      vertex 32.7439 11.3166 2.4
    endloop
  endfacet
  facet normal 0.203967 0.92664 -0.315811
    outer loop
      vertex 32.7439 11.3166 2.4
      vertex 32.9529 10.4527 0
      vertex 32.5299 10.5458 0
    endloop
  endfacet
  facet normal 0.302958 0.899155 -0.315811
    outer loop
      vertex 32.7439 11.3166 2.4
      vertex 32.5299 10.5458 0
      vertex 32.4156 11.4273 2.4
    endloop
  endfacet
  facet normal 0.302961 0.899154 -0.31581
    outer loop
      vertex 32.4156 11.4273 2.4
      vertex 32.5299 10.5458 0
      vertex 32.1194 10.6841 0
    endloop
  endfacet
  facet normal 0.398402 0.861127 -0.31581
    outer loop
      vertex 32.4156 11.4273 2.4
      vertex 32.1194 10.6841 0
      vertex 32.1011 11.5728 2.4
    endloop
  endfacet
  facet normal 0.398407 0.861125 -0.315809
    outer loop
      vertex 32.1011 11.5728 2.4
      vertex 32.1194 10.6841 0
      vertex 31.7264 10.866 0
    endloop
  endfacet
  facet normal 0.489172 0.813004 -0.315809
    outer loop
      vertex 31.8042 11.7514 2.4
      vertex 32.1011 11.5728 2.4
      vertex 31.7264 10.866 0
    endloop
  endfacet
  facet normal 0.489164 0.813008 -0.315811
    outer loop
      vertex 31.8042 11.7514 2.4
      vertex 31.7264 10.866 0
      vertex 31.3553 11.0892 0
    endloop
  endfacet
  facet normal 0.574199 0.755353 -0.315811
    outer loop
      vertex 31.5284 11.9611 2.4
      vertex 31.8042 11.7514 2.4
      vertex 31.3553 11.0892 0
    endloop
  endfacet
  facet normal 0.574203 0.755351 -0.31581
    outer loop
      vertex 31.5284 11.9611 2.4
      vertex 31.3553 11.0892 0
      vertex 31.0105 11.3514 0
    endloop
  endfacet
  facet normal 0.652506 0.68884 -0.31581
    outer loop
      vertex 31.2768 12.1994 2.4
      vertex 31.5284 11.9611 2.4
      vertex 31.0105 11.3514 0
    endloop
  endfacet
  facet normal 0.652507 0.688839 -0.31581
    outer loop
      vertex 31.2768 12.1994 2.4
      vertex 31.0105 11.3514 0
      vertex 30.696 11.6492 0
    endloop
  endfacet
  facet normal 0.723158 0.614252 -0.31581
    outer loop
      vertex 31.0525 12.4634 2.4
      vertex 31.2768 12.1994 2.4
      vertex 30.696 11.6492 0
    endloop
  endfacet
  facet normal 0.723156 0.614255 -0.31581
    outer loop
      vertex 31.0525 12.4634 2.4
      vertex 30.696 11.6492 0
      vertex 30.4156 11.9793 0
    endloop
  endfacet
  facet normal 0.78533 0.532467 -0.31581
    outer loop
      vertex 30.8581 12.7502 2.4
      vertex 31.0525 12.4634 2.4
      vertex 30.4156 11.9793 0
    endloop
  endfacet
  facet normal 0.785331 0.532465 -0.31581
    outer loop
      vertex 30.8581 12.7502 2.4
      vertex 30.4156 11.9793 0
      vertex 30.1726 12.3378 0
    endloop
  endfacet
  facet normal 0.838295 0.444438 -0.31581
    outer loop
      vertex 30.6958 13.0564 2.4
      vertex 30.8581 12.7502 2.4
      vertex 30.1726 12.3378 0
    endloop
  endfacet
  facet normal 0.838295 0.444438 -0.31581
    outer loop
      vertex 30.6958 13.0564 2.4
      vertex 30.1726 12.3378 0
      vertex 29.9697 12.7204 0
    endloop
  endfacet
  facet normal 0.881433 0.351198 -0.31581
    outer loop
      vertex 30.5675 13.3782 2.4
      vertex 30.6958 13.0564 2.4
      vertex 29.9697 12.7204 0
    endloop
  endfacet
  facet normal 0.881434 0.351196 -0.31581
    outer loop
      vertex 30.5675 13.3782 2.4
      vertex 29.9697 12.7204 0
      vertex 29.8094 13.1228 0
    endloop
  endfacet
  facet normal 0.914238 0.253835 -0.31581
    outer loop
      vertex 30.4748 13.7121 2.4
      vertex 30.5675 13.3782 2.4
      vertex 29.8094 13.1228 0
    endloop
  endfacet
  facet normal 0.914237 0.25384 -0.31581
    outer loop
      vertex 30.4748 13.7121 2.4
      vertex 29.8094 13.1228 0
      vertex 29.6935 13.5401 0
    endloop
  endfacet
  facet normal 0.936323 0.1535 -0.315811
    outer loop
      vertex 30.4188 14.054 2.4
      vertex 30.4748 13.7121 2.4
      vertex 29.6935 13.5401 0
    endloop
  endfacet
  facet normal 0.936323 0.153501 -0.315811
    outer loop
      vertex 30.4188 14.054 2.4
      vertex 29.6935 13.5401 0
      vertex 29.6234 13.9675 0
    endloop
  endfacet
  facet normal 0.947431 0.0513692 -0.315811
    outer loop
      vertex 30.4 14.4 2.4
      vertex 30.4188 14.054 2.4
      vertex 29.6234 13.9675 0
    endloop
  endfacet
  facet normal 0.947431 0.0513699 -0.315811
    outer loop
      vertex 30.4 14.4 2.4
      vertex 29.6234 13.9675 0
      vertex 29.6 14.4 0
    endloop
  endfacet
  facet normal 0.947431 -0.0513686 -0.315811
    outer loop
      vertex 30.4188 14.746 2.4
      vertex 30.4 14.4 2.4
      vertex 29.6 14.4 0
    endloop
  endfacet
  facet normal 0.947431 -0.0513698 -0.315811
    outer loop
      vertex 29.6234 14.8325 0
      vertex 30.4188 14.746 2.4
      vertex 29.6 14.4 0
    endloop
  endfacet
  facet normal 0.936323 -0.1535 -0.315811
    outer loop
      vertex 30.4748 15.0879 2.4
      vertex 30.4188 14.746 2.4
      vertex 29.6234 14.8325 0
    endloop
  endfacet
  facet normal 0.936323 -0.153499 -0.315811
    outer loop
      vertex 29.6935 15.2599 0
      vertex 30.4748 15.0879 2.4
      vertex 29.6234 14.8325 0
    endloop
  endfacet
  facet normal 0.914238 -0.253837 -0.315811
    outer loop
      vertex 30.5675 15.4218 2.4
      vertex 30.4748 15.0879 2.4
      vertex 29.6935 15.2599 0
    endloop
  endfacet
  facet normal 0.914237 -0.25384 -0.31581
    outer loop
      vertex 29.8094 15.6772 0
      vertex 30.5675 15.4218 2.4
      vertex 29.6935 15.2599 0
    endloop
  endfacet
  facet normal 0.881432 -0.351199 -0.31581
    outer loop
      vertex 30.6958 15.7436 2.4
      vertex 30.5675 15.4218 2.4
      vertex 29.8094 15.6772 0
    endloop
  endfacet
  facet normal 0.881434 -0.351195 -0.31581
    outer loop
      vertex 29.9697 16.0796 0
      vertex 30.6958 15.7436 2.4
      vertex 29.8094 15.6772 0
    endloop
  endfacet
  facet normal 0.838296 -0.444436 -0.31581
    outer loop
      vertex 30.8581 16.0498 2.4
      vertex 30.6958 15.7436 2.4
      vertex 29.9697 16.0796 0
    endloop
  endfacet
  facet normal 0.838296 -0.444436 -0.31581
    outer loop
      vertex 30.1726 16.4622 0
      vertex 30.8581 16.0498 2.4
      vertex 29.9697 16.0796 0
    endloop
  endfacet
  facet normal 0.785329 -0.532468 -0.31581
    outer loop
      vertex 31.0525 16.3366 2.4
      vertex 30.8581 16.0498 2.4
      vertex 30.1726 16.4622 0
    endloop
  endfacet
  facet normal 0.785331 -0.532464 -0.315811
    outer loop
      vertex 30.4156 16.8207 0
      vertex 31.0525 16.3366 2.4
      vertex 30.1726 16.4622 0
    endloop
  endfacet
  facet normal 0.723156 -0.614255 -0.315811
    outer loop
      vertex 31.2768 16.6006 2.4
      vertex 31.0525 16.3366 2.4
      vertex 30.4156 16.8207 0
    endloop
  endfacet
  facet normal 0.723153 -0.614258 -0.315811
    outer loop
      vertex 30.696 17.1508 0
      vertex 31.2768 16.6006 2.4
      vertex 30.4156 16.8207 0
    endloop
  endfacet
  facet normal 0.652507 -0.688838 -0.315811
    outer loop
      vertex 31.5284 16.8389 2.4
      vertex 31.2768 16.6006 2.4
      vertex 30.696 17.1508 0
    endloop
  endfacet
  facet normal 0.652505 -0.688841 -0.31581
    outer loop
      vertex 31.0105 17.4486 0
      vertex 31.5284 16.8389 2.4
      vertex 30.696 17.1508 0
    endloop
  endfacet
  facet normal 0.574204 -0.75535 -0.31581
    outer loop
      vertex 31.8042 17.0486 2.4
      vertex 31.5284 16.8389 2.4
      vertex 31.0105 17.4486 0
    endloop
  endfacet
  facet normal 0.574203 -0.755351 -0.31581
    outer loop
      vertex 31.3553 17.7108 0
      vertex 31.8042 17.0486 2.4
      vertex 31.0105 17.4486 0
    endloop
  endfacet
  facet normal 0.489166 -0.813007 -0.31581
    outer loop
      vertex 32.1011 17.2272 2.4
      vertex 31.8042 17.0486 2.4
      vertex 31.3553 17.7108 0
    endloop
  endfacet
  facet normal 0.489171 -0.813004 -0.31581
    outer loop
      vertex 31.7264 17.934 0
      vertex 32.1011 17.2272 2.4
      vertex 31.3553 17.7108 0
    endloop
  endfacet
  facet normal 0.398404 -0.861126 -0.315811
    outer loop
      vertex 32.4156 17.3727 2.4
      vertex 32.1011 17.2272 2.4
      vertex 31.7264 17.934 0
    endloop
  endfacet
  facet normal 0.3984 -0.861128 -0.31581
    outer loop
      vertex 32.1194 18.1159 0
      vertex 32.4156 17.3727 2.4
      vertex 31.7264 17.934 0
    endloop
  endfacet
  facet normal 0.30296 -0.899155 -0.31581
    outer loop
      vertex 32.7439 17.4834 2.4
      vertex 32.4156 17.3727 2.4
      vertex 32.1194 18.1159 0
    endloop
  endfacet
  facet normal 0.302963 -0.899154 -0.31581
    outer loop
      vertex 32.5299 18.2542 0
      vertex 32.7439 17.4834 2.4
      vertex 32.1194 18.1159 0
    endloop
  endfacet
  facet normal 0.203965 -0.92664 -0.31581
    outer loop
      vertex 33.0823 17.5578 2.4
      vertex 32.7439 17.4834 2.4
      vertex 32.5299 18.2542 0
    endloop
  endfacet
  facet normal 0.203965 -0.92664 -0.31581
    outer loop
      vertex 32.9529 18.3473 0
      vertex 33.0823 17.5578 2.4
      vertex 32.5299 18.2542 0
    endloop
  endfacet
  facet normal 0.102587 -0.94326 -0.31581
    outer loop
      vertex 33.4268 17.5953 2.4
      vertex 33.0823 17.5578 2.4
      vertex 32.9529 18.3473 0
    endloop
  endfacet
  facet normal 0.102589 -0.94326 -0.315811
    outer loop
      vertex 33.3834 18.3941 0
      vertex 33.4268 17.5953 2.4
      vertex 32.9529 18.3473 0
    endloop
  endfacet
  facet normal 0 -0.948822 -0.315811
    outer loop
      vertex 33.3834 18.3941 0
      vertex 33.7732 17.5953 2.4
      vertex 33.4268 17.5953 2.4
    endloop
  endfacet
  facet normal 0 -0.948822 -0.315811
    outer loop
      vertex 33.7732 17.5953 2.4
      vertex 33.3834 18.3941 0
      vertex 33.8166 18.3941 0
    endloop
  endfacet
  facet normal -0.102586 -0.94326 -0.315811
    outer loop
      vertex 33.8166 18.3941 0
      vertex 34.1177 17.5578 2.4
      vertex 33.7732 17.5953 2.4
    endloop
  endfacet
  facet normal -0.102589 -0.94326 -0.31581
    outer loop
      vertex 34.2471 18.3473 0
      vertex 34.1177 17.5578 2.4
      vertex 33.8166 18.3941 0
    endloop
  endfacet
  facet normal -0.203967 -0.92664 -0.31581
    outer loop
      vertex 34.2471 18.3473 0
      vertex 34.4561 17.4834 2.4
      vertex 34.1177 17.5578 2.4
    endloop
  endfacet
  facet normal -0.203967 -0.92664 -0.31581
    outer loop
      vertex 34.6701 18.2542 0
      vertex 34.4561 17.4834 2.4
      vertex 34.2471 18.3473 0
    endloop
  endfacet
  facet normal -0.302957 -0.899156 -0.31581
    outer loop
      vertex 34.6701 18.2542 0
      vertex 34.7844 17.3727 2.4
      vertex 34.4561 17.4834 2.4
    endloop
  endfacet
  facet normal -0.302963 -0.899154 -0.315809
    outer loop
      vertex 35.0806 18.1159 0
      vertex 34.7844 17.3727 2.4
      vertex 34.6701 18.2542 0
    endloop
  endfacet
  facet normal -0.398405 -0.861126 -0.315809
    outer loop
      vertex 35.0806 18.1159 0
      vertex 35.0989 17.2272 2.4
      vertex 34.7844 17.3727 2.4
    endloop
  endfacet
  facet normal -0.398399 -0.861129 -0.31581
    outer loop
      vertex 35.4736 17.934 0
      vertex 35.0989 17.2272 2.4
      vertex 35.0806 18.1159 0
    endloop
  endfacet
  facet normal -0.489169 -0.813006 -0.31581
    outer loop
      vertex 35.4736 17.934 0
      vertex 35.3958 17.0486 2.4
      vertex 35.0989 17.2272 2.4
    endloop
  endfacet
  facet normal -0.489169 -0.813005 -0.31581
    outer loop
      vertex 35.4736 17.934 0
      vertex 35.8447 17.7108 0
      vertex 35.3958 17.0486 2.4
    endloop
  endfacet
  facet normal -0.574207 -0.755348 -0.31581
    outer loop
      vertex 35.8447 17.7108 0
      vertex 35.6716 16.8389 2.4
      vertex 35.3958 17.0486 2.4
    endloop
  endfacet
  facet normal -0.574205 -0.755349 -0.315811
    outer loop
      vertex 35.8447 17.7108 0
      vertex 36.1895 17.4486 0
      vertex 35.6716 16.8389 2.4
    endloop
  endfacet
  facet normal -0.652502 -0.688843 -0.315811
    outer loop
      vertex 36.1895 17.4486 0
      vertex 35.9232 16.6006 2.4
      vertex 35.6716 16.8389 2.4
    endloop
  endfacet
  facet normal -0.652503 -0.688843 -0.31581
    outer loop
      vertex 36.1895 17.4486 0
      vertex 36.504 17.1508 0
      vertex 35.9232 16.6006 2.4
    endloop
  endfacet
  facet normal -0.723157 -0.614253 -0.31581
    outer loop
      vertex 36.7844 16.8207 0
      vertex 35.9232 16.6006 2.4
      vertex 36.504 17.1508 0
    endloop
  endfacet
  facet normal -0.723156 -0.614255 -0.31581
    outer loop
      vertex 35.9232 16.6006 2.4
      vertex 36.7844 16.8207 0
      vertex 36.1475 16.3366 2.4
    endloop
  endfacet
  facet normal -0.785331 -0.532465 -0.31581
    outer loop
      vertex 36.7844 16.8207 0
      vertex 36.3419 16.0498 2.4
      vertex 36.1475 16.3366 2.4
    endloop
  endfacet
  facet normal -0.78533 -0.532467 -0.31581
    outer loop
      vertex 36.7844 16.8207 0
      vertex 37.0274 16.4622 0
      vertex 36.3419 16.0498 2.4
    endloop
  endfacet
  facet normal -0.838294 -0.44444 -0.31581
    outer loop
      vertex 37.0274 16.4622 0
      vertex 36.5042 15.7436 2.4
      vertex 36.3419 16.0498 2.4
    endloop
  endfacet
  facet normal -0.838296 -0.444436 -0.31581
    outer loop
      vertex 37.0274 16.4622 0
      vertex 37.2303 16.0796 0
      vertex 36.5042 15.7436 2.4
    endloop
  endfacet
  facet normal -0.881436 -0.35119 -0.31581
    outer loop
      vertex 37.2303 16.0796 0
      vertex 36.6325 15.4218 2.4
      vertex 36.5042 15.7436 2.4
    endloop
  endfacet
  facet normal -0.881435 -0.351192 -0.31581
    outer loop
      vertex 37.2303 16.0796 0
      vertex 37.3906 15.6772 0
      vertex 36.6325 15.4218 2.4
    endloop
  endfacet
  facet normal -0.914237 -0.253841 -0.31581
    outer loop
      vertex 37.3906 15.6772 0
      vertex 36.7252 15.0879 2.4
      vertex 36.6325 15.4218 2.4
    endloop
  endfacet
  facet normal -0.914237 -0.25384 -0.31581
    outer loop
      vertex 37.3906 15.6772 0
      vertex 37.5065 15.2599 0
      vertex 36.7252 15.0879 2.4
    endloop
  endfacet
  facet normal -0.936323 -0.153505 -0.31581
    outer loop
      vertex 37.5065 15.2599 0
      vertex 36.7812 14.746 2.4
      vertex 36.7252 15.0879 2.4
    endloop
  endfacet
  facet normal -0.936322 -0.153508 -0.31581
    outer loop
      vertex 37.5065 15.2599 0
      vertex 37.5766 14.8325 0
      vertex 36.7812 14.746 2.4
    endloop
  endfacet
  facet normal -0.947431 -0.0513634 -0.31581
    outer loop
      vertex 37.5766 14.8325 0
      vertex 36.8 14.4 2.4
      vertex 36.7812 14.746 2.4
    endloop
  endfacet
  facet normal -0.947431 -0.0513615 -0.31581
    outer loop
      vertex 37.5766 14.8325 0
      vertex 37.6 14.4 0
      vertex 36.8 14.4 2.4
    endloop
  endfacet
  facet normal -0.947431 0.051364 -0.31581
    outer loop
      vertex 36.8 14.4 2.4
      vertex 37.6 14.4 0
      vertex 36.7812 14.054 2.4
    endloop
  endfacet
  facet normal -0.947431 0.0513616 -0.31581
    outer loop
      vertex 37.6 14.4 0
      vertex 37.5766 13.9675 0
      vertex 36.7812 14.054 2.4
    endloop
  endfacet
  facet normal -1 0 0
    outer loop
      vertex 10.5 5.35 0
      vertex 10.5 13.85 0.599999
      vertex 10.5 13.85 0
    endloop
  endfacet
  facet normal -1 -0 0
    outer loop
      vertex 10.5 13.85 0.599999
      vertex 10.5 5.35 0
      vertex 10.5 5.35 0.599999
    endloop
  endfacet
  facet normal 0 -1 0
    outer loop
      vertex 12.5 16.1 0
      vertex 25.5 16.1 0.599999
      vertex 12.5 16.1 0.599999
    endloop
  endfacet
  facet normal 0 -1 -0
    outer loop
      vertex 25.5 16.1 0.599999
      vertex 12.5 16.1 0
      vertex 25.5 16.1 0
    endloop
  endfacet
  facet normal -1 0 0
    outer loop
      vertex 0 0 0
      vertex 0 5.35 2.4
      vertex 0 5.35 0
    endloop
  endfacet
  facet normal -1 -0 0
    outer loop
      vertex 0 5.35 2.4
      vertex 0 0 0
      vertex 0 0 2.4
    endloop
  endfacet
  facet normal 0 1 0
    outer loop
      vertex 10.5 5.35 0.599999
      vertex 10.5 5.35 0
      vertex 7.2 5.35 0.599999
    endloop
  endfacet
  facet normal 0 1 -0
    outer loop
      vertex 7.2 5.35 0.599999
      vertex 0 5.35 2.4
      vertex 7.2 5.35 2.4
    endloop
  endfacet
  facet normal 0 1 0
    outer loop
      vertex 7.2 5.35 0.599999
      vertex 0 5.35 0
      vertex 0 5.35 2.4
    endloop
  endfacet
  facet normal 0 1 0
    outer loop
      vertex 0 5.35 0
      vertex 7.2 5.35 0.599999
      vertex 10.5 5.35 0
    endloop
  endfacet
  facet normal 1 -0 0
    outer loop
      vertex 7.2 2.3 2.4
      vertex 7.2 5.35 0.599999
      vertex 7.2 5.35 2.4
    endloop
  endfacet
  facet normal 1 0 0
    outer loop
      vertex 7.2 5.35 0.599999
      vertex 7.2 2.3 2.4
      vertex 7.2 2.3 0.599999
    endloop
  endfacet
  facet normal 0 1 -0
    outer loop
      vertex 27.8 2.3 0.599999
      vertex 7.2 2.3 2.4
      vertex 27.8 2.3 2.4
    endloop
  endfacet
  facet normal 0 1 0
    outer loop
      vertex 7.2 2.3 2.4
      vertex 27.8 2.3 0.599999
      vertex 7.2 2.3 0.599999
    endloop
  endfacet
  facet normal 0 -1 0
    outer loop
      vertex 7.2 16.9 0.599999
      vertex 27.8 16.9 2.4
      vertex 7.2 16.9 2.4
    endloop
  endfacet
  facet normal 0 -1 -0
    outer loop
      vertex 27.8 16.9 2.4
      vertex 7.2 16.9 0.599999
      vertex 27.8 16.9 0.599999
    endloop
  endfacet
  facet normal -1 0 0
    outer loop
      vertex 27.8 2.3 0.599999
      vertex 27.8 16.9 2.4
      vertex 27.8 16.9 0.599999
    endloop
  endfacet
  facet normal -1 -0 0
    outer loop
      vertex 27.8 16.9 2.4
      vertex 27.8 2.3 0.599999
      vertex 27.8 2.3 2.4
    endloop
  endfacet
  facet normal 0 1 -0
    outer loop
      vertex 25.5 3.1 0
      vertex 12.5 3.1 0.599999
      vertex 25.5 3.1 0.599999
    endloop
  endfacet
  facet normal 0 1 0
    outer loop
      vertex 12.5 3.1 0.599999
      vertex 25.5 3.1 0
      vertex 12.5 3.1 0
    endloop
  endfacet
  facet normal 0 1 -0
    outer loop
      vertex 28.8 19.2 0
      vertex 0 19.2 2.4
      vertex 28.8 19.2 2.4
    endloop
  endfacet
  facet normal 0 1 0
    outer loop
      vertex 0 19.2 2.4
      vertex 28.8 19.2 0
      vertex 0 19.2 0
    endloop
  endfacet
  facet normal -1 0 0
    outer loop
      vertex 25.5 3.1 0
      vertex 25.5 16.1 0.599999
      vertex 25.5 16.1 0
    endloop
  endfacet
  facet normal -1 -0 0
    outer loop
      vertex 25.5 16.1 0.599999
      vertex 25.5 3.1 0
      vertex 25.5 3.1 0.599999
    endloop
  endfacet
  facet normal -1 0 0
    outer loop
      vertex 0 13.85 0
      vertex 0 19.2 2.4
      vertex 0 19.2 0
    endloop
  endfacet
  facet normal -1 -0 0
    outer loop
      vertex 0 19.2 2.4
      vertex 0 13.85 0
      vertex 0 13.85 2.4
    endloop
  endfacet
  facet normal 1 -0 0
    outer loop
      vertex 12.5 3.1 0.599999
      vertex 12.5 16.1 0
      vertex 12.5 16.1 0.599999
    endloop
  endfacet
  facet normal 1 0 0
    outer loop
      vertex 12.5 16.1 0
      vertex 12.5 3.1 0.599999
      vertex 12.5 3.1 0
    endloop
  endfacet
  facet normal 0 -1 0
    outer loop
      vertex 0 13.85 2.4
      vertex 7.2 13.85 0.599999
      vertex 7.2 13.85 2.4
    endloop
  endfacet
  facet normal 0 -1 0
    outer loop
      vertex 0 13.85 0
      vertex 7.2 13.85 0.599999
      vertex 0 13.85 2.4
    endloop
  endfacet
  facet normal 0 -1 0
    outer loop
      vertex 10.5 13.85 0
      vertex 7.2 13.85 0.599999
      vertex 0 13.85 0
    endloop
  endfacet
  facet normal 0 -1 0
    outer loop
      vertex 7.2 13.85 0.599999
      vertex 10.5 13.85 0
      vertex 10.5 13.85 0.599999
    endloop
  endfacet
  facet normal 0 0 1
    outer loop
      vertex 27.8 16.9 0.599999
      vertex 25.5 16.1 0.599999
      vertex 27.8 2.3 0.599999
    endloop
  endfacet
  facet normal 0 0 1
    outer loop
      vertex 27.8 16.9 0.599999
      vertex 12.5 16.1 0.599999
      vertex 25.5 16.1 0.599999
    endloop
  endfacet
  facet normal 0 0 1
    outer loop
      vertex 12.5 16.1 0.599999
      vertex 10.5 13.85 0.599999
      vertex 12.5 3.1 0.599999
    endloop
  endfacet
  facet normal -0 0 1
    outer loop
      vertex 7.2 16.9 0.599999
      vertex 12.5 16.1 0.599999
      vertex 27.8 16.9 0.599999
    endloop
  endfacet
  facet normal 0 0 1
    outer loop
      vertex 7.2 16.9 0.599999
      vertex 10.5 13.85 0.599999
      vertex 12.5 16.1 0.599999
    endloop
  endfacet
  facet normal 0 0 1
    outer loop
      vertex 10.5 13.85 0.599999
      vertex 7.2 16.9 0.599999
      vertex 7.2 13.85 0.599999
    endloop
  endfacet
  facet normal -0 0 1
    outer loop
      vertex 25.5 3.1 0.599999
      vertex 27.8 2.3 0.599999
      vertex 25.5 16.1 0.599999
    endloop
  endfacet
  facet normal -0 0 1
    outer loop
      vertex 12.5 3.1 0.599999
      vertex 27.8 2.3 0.599999
      vertex 25.5 3.1 0.599999
    endloop
  endfacet
  facet normal -0 0 1
    outer loop
      vertex 10.5 5.35 0.599999
      vertex 12.5 3.1 0.599999
      vertex 10.5 13.85 0.599999
    endloop
  endfacet
  facet normal 0 0 1
    outer loop
      vertex 7.2 2.3 0.599999
      vertex 10.5 5.35 0.599999
      vertex 7.2 5.35 0.599999
    endloop
  endfacet
  facet normal 0 0 1
    outer loop
      vertex 12.5 3.1 0.599999
      vertex 7.2 2.3 0.599999
      vertex 27.8 2.3 0.599999
    endloop
  endfacet
  facet normal 0 0 1
    outer loop
      vertex 10.5 5.35 0.599999
      vertex 7.2 2.3 0.599999
      vertex 12.5 3.1 0.599999
    endloop
  endfacet
  facet normal 1 -0 0
    outer loop
      vertex 7.2 13.85 2.4
      vertex 7.2 16.9 0.599999
      vertex 7.2 16.9 2.4
    endloop
  endfacet
  facet normal 1 0 0
    outer loop
      vertex 7.2 16.9 0.599999
      vertex 7.2 13.85 2.4
      vertex 7.2 13.85 0.599999
    endloop
  endfacet
endsolid OpenSCAD_Model
