solid OpenSCAD_Model
  facet normal 0 0 1
    outer loop
      vertex 28.8 19.2 2.4
      vertex 7.2 16.9 2.4
      vertex 27.8 16.9 2.4
    endloop
  endfacet
  facet normal 0 0 1
    outer loop
      vertex 7.2 16.9 2.4
      vertex 0 19.2 2.4
      vertex 7.2 2.3 2.4
    endloop
  endfacet
  facet normal -0 0 1
    outer loop
      vertex 0 19.2 2.4
      vertex 7.2 16.9 2.4
      vertex 28.8 19.2 2.4
    endloop
  endfacet
  facet normal 0 0 1
    outer loop
      vertex 38.4 19.2 2.4
      vertex 36.7252 13.7121 2.4
      vertex 38.4 0 2.4
    endloop
  endfacet
  facet normal 0 0 1
    outer loop
      vertex 38.4 0 2.4
      vertex 36.7812 5.14598 2.4
      vertex 36.8 4.8 2.4
    endloop
  endfacet
  facet normal -0 0 1
    outer loop
      vertex 36.7252 5.48791 2.4
      vertex 38.4 0 2.4
      vertex 36.7252 13.7121 2.4
    endloop
  endfacet
  facet normal 0 0 1
    outer loop
      vertex 38.4 0 2.4
      vertex 36.7252 5.48791 2.4
      vertex 36.7812 5.14598 2.4
    endloop
  endfacet
  facet normal -0 0 1
    outer loop
      vertex 36.6325 13.3782 2.4
      vertex 36.7252 5.48791 2.4
      vertex 36.7252 13.7121 2.4
    endloop
  endfacet
  facet normal 0 0 1
    outer loop
      vertex 36.6325 13.3782 2.4
      vertex 36.6325 5.82176 2.4
      vertex 36.7252 5.48791 2.4
    endloop
  endfacet
  facet normal -0 0 1
    outer loop
      vertex 36.5042 13.0564 2.4
      vertex 36.6325 5.82176 2.4
      vertex 36.6325 13.3782 2.4
    endloop
  endfacet
  facet normal 0 0 1
    outer loop
      vertex 36.5042 13.0564 2.4
      vertex 36.5042 6.14365 2.4
      vertex 36.6325 5.82176 2.4
    endloop
  endfacet
  facet normal -0 0 1
    outer loop
      vertex 36.3419 12.7502 2.4
      vertex 36.5042 6.14365 2.4
      vertex 36.5042 13.0564 2.4
    endloop
  endfacet
  facet normal 0 0 1
    outer loop
      vertex 36.3419 12.7502 2.4
      vertex 36.3419 6.44977 2.4
      vertex 36.5042 6.14365 2.4
    endloop
  endfacet
  facet normal -0 0 1
    outer loop
      vertex 36.1475 12.4634 2.4
      vertex 36.3419 6.44977 2.4
      vertex 36.3419 12.7502 2.4
    endloop
  endfacet
  facet normal 0 0 1
    outer loop
      vertex 36.1475 12.4634 2.4
      vertex 36.1475 6.73656 2.4
      vertex 36.3419 6.44977 2.4
    endloop
  endfacet
  facet normal -0 0 1
    outer loop
      vertex 35.9232 12.1994 2.4
      vertex 36.1475 6.73656 2.4
      vertex 36.1475 12.4634 2.4
    endloop
  endfacet
  facet normal 0 0 1
    outer loop
      vertex 35.9232 12.1994 2.4
      vertex 35.9232 7.00064 2.4
      vertex 36.1475 6.73656 2.4
    endloop
  endfacet
  facet normal -0 0 1
    outer loop
      vertex 35.6716 11.9611 2.4
      vertex 35.9232 7.00064 2.4
      vertex 35.9232 12.1994 2.4
    endloop
  endfacet
  facet normal 0 0 1
    outer loop
      vertex 35.6716 11.9611 2.4
      vertex 35.6716 7.23892 2.4
      vertex 35.9232 7.00064 2.4
    endloop
  endfacet
  facet normal -0 0 1
    outer loop
      vertex 35.3958 11.7514 2.4
      vertex 35.6716 7.23892 2.4
      vertex 35.6716 11.9611 2.4
    endloop
  endfacet
  facet normal 0 0 1
    outer loop
      vertex 35.3958 11.7514 2.4
      vertex 35.3958 7.4486 2.4
      vertex 35.6716 7.23892 2.4
    endloop
  endfacet
  facet normal -0 0 1
    outer loop
      vertex 35.0989 11.5728 2.4
      vertex 35.3958 7.4486 2.4
      vertex 35.3958 11.7514 2.4
    endloop
  endfacet
  facet normal 0 0 1
    outer loop
      vertex 35.0989 11.5728 2.4
      vertex 35.0989 7.62724 2.4
      vertex 35.3958 7.4486 2.4
    endloop
  endfacet
  facet normal -0 0 1
    outer loop
      vertex 34.7844 11.4273 2.4
      vertex 35.0989 7.62724 2.4
      vertex 35.0989 11.5728 2.4
    endloop
  endfacet
  facet normal 0 0 1
    outer loop
      vertex 34.7844 11.4273 2.4
      vertex 34.7844 7.77273 2.4
      vertex 35.0989 7.62724 2.4
    endloop
  endfacet
  facet normal -0 0 1
    outer loop
      vertex 34.4561 11.3166 2.4
      vertex 34.7844 7.77273 2.4
      vertex 34.7844 11.4273 2.4
    endloop
  endfacet
  facet normal 0 0 1
    outer loop
      vertex 34.4561 11.3166 2.4
      vertex 34.4561 7.88336 2.4
      vertex 34.7844 7.77273 2.4
    endloop
  endfacet
  facet normal -0 0 1
    outer loop
      vertex 34.1177 11.2422 2.4
      vertex 34.4561 7.88336 2.4
      vertex 34.4561 11.3166 2.4
    endloop
  endfacet
  facet normal 0 0 1
    outer loop
      vertex 34.1177 11.2422 2.4
      vertex 34.1177 7.95784 2.4
      vertex 34.4561 7.88336 2.4
    endloop
  endfacet
  facet normal -0 0 1
    outer loop
      vertex 33.7732 11.2047 2.4
      vertex 34.1177 7.95784 2.4
      vertex 34.1177 11.2422 2.4
    endloop
  endfacet
  facet normal 0 0 1
    outer loop
      vertex 33.7732 11.2047 2.4
      vertex 33.7732 7.99531 2.4
      vertex 34.1177 7.95784 2.4
    endloop
  endfacet
  facet normal -0 0 1
    outer loop
      vertex 33.4268 11.2047 2.4
      vertex 33.7732 7.99531 2.4
      vertex 33.7732 11.2047 2.4
    endloop
  endfacet
  facet normal 0 0 1
    outer loop
      vertex 33.4268 11.2047 2.4
      vertex 33.4268 7.99531 2.4
      vertex 33.7732 7.99531 2.4
    endloop
  endfacet
  facet normal 0 0 1
    outer loop
      vertex 33.0823 11.2422 2.4
      vertex 33.4268 7.99531 2.4
      vertex 33.4268 11.2047 2.4
    endloop
  endfacet
  facet normal 0 0 1
    outer loop
      vertex 33.0823 11.2422 2.4
      vertex 33.0823 7.95784 2.4
      vertex 33.4268 7.99531 2.4
    endloop
  endfacet
  facet normal 0 0 1
    outer loop
      vertex 32.7439 11.3166 2.4
      vertex 33.0823 7.95784 2.4
      vertex 33.0823 11.2422 2.4
    endloop
  endfacet
  facet normal 0 0 1
    outer loop
      vertex 32.7439 11.3166 2.4
      vertex 32.7439 7.88336 2.4
      vertex 33.0823 7.95784 2.4
    endloop
  endfacet
  facet normal 0 0 1
    outer loop
      vertex 32.4156 11.4273 2.4
      vertex 32.7439 7.88336 2.4
      vertex 32.7439 11.3166 2.4
    endloop
  endfacet
  facet normal 0 0 1
    outer loop
      vertex 32.4156 11.4273 2.4
      vertex 32.4156 7.77273 2.4
      vertex 32.7439 7.88336 2.4
    endloop
  endfacet
  facet normal 0 0 1
    outer loop
      vertex 32.1011 11.5728 2.4
      vertex 32.4156 7.77273 2.4
      vertex 32.4156 11.4273 2.4
    endloop
  endfacet
  facet normal 0 0 1
    outer loop
      vertex 32.1011 11.5728 2.4
      vertex 32.1011 7.62724 2.4
      vertex 32.4156 7.77273 2.4
    endloop
  endfacet
  facet normal 0 0 1
    outer loop
      vertex 31.8042 11.7514 2.4
      vertex 32.1011 7.62724 2.4
      vertex 32.1011 11.5728 2.4
    endloop
  endfacet
  facet normal 0 0 1
    outer loop
      vertex 31.8042 11.7514 2.4
      vertex 31.8042 7.4486 2.4
      vertex 32.1011 7.62724 2.4
    endloop
  endfacet
  facet normal 0 0 1
    outer loop
      vertex 31.5284 11.9611 2.4
      vertex 31.8042 7.4486 2.4
      vertex 31.8042 11.7514 2.4
    endloop
  endfacet
  facet normal 0 0 1
    outer loop
      vertex 31.5284 11.9611 2.4
      vertex 31.5284 7.23892 2.4
      vertex 31.8042 7.4486 2.4
    endloop
  endfacet
  facet normal 0 0 1
    outer loop
      vertex 31.2768 12.1994 2.4
      vertex 31.5284 7.23892 2.4
      vertex 31.5284 11.9611 2.4
    endloop
  endfacet
  facet normal 0 0 1
    outer loop
      vertex 31.2768 12.1994 2.4
      vertex 31.2768 7.00064 2.4
      vertex 31.5284 7.23892 2.4
    endloop
  endfacet
  facet normal 0 0 1
    outer loop
      vertex 31.0525 12.4634 2.4
      vertex 31.2768 7.00064 2.4
      vertex 31.2768 12.1994 2.4
    endloop
  endfacet
  facet normal 0 0 1
    outer loop
      vertex 31.0525 12.4634 2.4
      vertex 31.0525 6.73656 2.4
      vertex 31.2768 7.00064 2.4
    endloop
  endfacet
  facet normal 0 0 1
    outer loop
      vertex 30.8581 12.7502 2.4
      vertex 31.0525 6.73656 2.4
      vertex 31.0525 12.4634 2.4
    endloop
  endfacet
  facet normal 0 0 1
    outer loop
      vertex 30.8581 12.7502 2.4
      vertex 30.8581 6.44977 2.4
      vertex 31.0525 6.73656 2.4
    endloop
  endfacet
  facet normal 0 0 1
    outer loop
      vertex 30.6958 13.0564 2.4
      vertex 30.8581 6.44977 2.4
      vertex 30.8581 12.7502 2.4
    endloop
  endfacet
  facet normal 0 0 1
    outer loop
      vertex 30.6958 13.0564 2.4
      vertex 30.6958 6.14365 2.4
      vertex 30.8581 6.44977 2.4
    endloop
  endfacet
  facet normal 0 0 1
    outer loop
      vertex 27.8 16.9 2.4
      vertex 30.6958 13.0564 2.4
      vertex 30.5675 13.3782 2.4
    endloop
  endfacet
  facet normal 0 0 1
    outer loop
      vertex 30.6958 13.0564 2.4
      vertex 27.8 16.9 2.4
      vertex 30.6958 6.14365 2.4
    endloop
  endfacet
  facet normal 0 0 1
    outer loop
      vertex 27.8 16.9 2.4
      vertex 30.5675 13.3782 2.4
      vertex 30.4748 13.7121 2.4
    endloop
  endfacet
  facet normal 0 0 1
    outer loop
      vertex 27.8 2.3 2.4
      vertex 30.6958 6.14365 2.4
      vertex 27.8 16.9 2.4
    endloop
  endfacet
  facet normal 0 0 1
    outer loop
      vertex 27.8 16.9 2.4
      vertex 30.4748 13.7121 2.4
      vertex 30.4188 14.054 2.4
    endloop
  endfacet
  facet normal 0 0 1
    outer loop
      vertex 30.6958 6.14365 2.4
      vertex 27.8 2.3 2.4
      vertex 30.5675 5.82176 2.4
    endloop
  endfacet
  facet normal 0 0 1
    outer loop
      vertex 27.8 16.9 2.4
      vertex 30.4188 14.054 2.4
      vertex 30.4 14.4 2.4
    endloop
  endfacet
  facet normal 0 0 1
    outer loop
      vertex 30.5675 5.82176 2.4
      vertex 27.8 2.3 2.4
      vertex 30.4748 5.48791 2.4
    endloop
  endfacet
  facet normal 0 0 1
    outer loop
      vertex 36.7812 14.054 2.4
      vertex 38.4 19.2 2.4
      vertex 36.8 14.4 2.4
    endloop
  endfacet
  facet normal 0 0 1
    outer loop
      vertex 38.4 19.2 2.4
      vertex 36.7812 14.746 2.4
      vertex 36.8 14.4 2.4
    endloop
  endfacet
  facet normal 0 0 1
    outer loop
      vertex 38.4 19.2 2.4
      vertex 36.7252 15.0879 2.4
      vertex 36.7812 14.746 2.4
    endloop
  endfacet
  facet normal 0 0 1
    outer loop
      vertex 38.4 19.2 2.4
      vertex 36.6325 15.4218 2.4
      vertex 36.7252 15.0879 2.4
    endloop
  endfacet
  facet normal 0 0 1
    outer loop
      vertex 38.4 19.2 2.4
      vertex 36.5042 15.7436 2.4
      vertex 36.6325 15.4218 2.4
    endloop
  endfacet
  facet normal 0 0 1
    outer loop
      vertex 38.4 19.2 2.4
      vertex 36.3419 16.0498 2.4
      vertex 36.5042 15.7436 2.4
    endloop
  endfacet
  facet normal 0 0 1
    outer loop
      vertex 38.4 19.2 2.4
      vertex 36.1475 16.3366 2.4
      vertex 36.3419 16.0498 2.4
    endloop
  endfacet
  facet normal 0 0 1
    outer loop
      vertex 38.4 19.2 2.4
      vertex 35.9232 16.6006 2.4
      vertex 36.1475 16.3366 2.4
    endloop
  endfacet
  facet normal 0 0 1
    outer loop
      vertex 38.4 19.2 2.4
      vertex 35.6716 16.8389 2.4
      vertex 35.9232 16.6006 2.4
    endloop
  endfacet
  facet normal 0 0 1
    outer loop
      vertex 38.4 19.2 2.4
      vertex 35.3958 17.0486 2.4
      vertex 35.6716 16.8389 2.4
    endloop
  endfacet
  facet normal 0 0 1
    outer loop
      vertex 38.4 19.2 2.4
      vertex 35.0989 17.2272 2.4
      vertex 35.3958 17.0486 2.4
    endloop
  endfacet
  facet normal 0 0 1
    outer loop
      vertex 38.4 19.2 2.4
      vertex 34.7844 17.3727 2.4
      vertex 35.0989 17.2272 2.4
    endloop
  endfacet
  facet normal 0 0 1
    outer loop
      vertex 38.4 19.2 2.4
      vertex 34.4561 17.4834 2.4
      vertex 34.7844 17.3727 2.4
    endloop
  endfacet
  facet normal 0 0 1
    outer loop
      vertex 38.4 19.2 2.4
      vertex 34.1177 17.5578 2.4
      vertex 34.4561 17.4834 2.4
    endloop
  endfacet
  facet normal 0 0 1
    outer loop
      vertex 38.4 19.2 2.4
      vertex 33.7732 17.5953 2.4
      vertex 34.1177 17.5578 2.4
    endloop
  endfacet
  facet normal 0 0 1
    outer loop
      vertex 38.4 19.2 2.4
      vertex 33.4268 17.5953 2.4
      vertex 33.7732 17.5953 2.4
    endloop
  endfacet
  facet normal -0 0 1
    outer loop
      vertex 28.8 19.2 2.4
      vertex 33.4268 17.5953 2.4
      vertex 38.4 19.2 2.4
    endloop
  endfacet
  facet normal 0 0 1
    outer loop
      vertex 33.4268 17.5953 2.4
      vertex 28.8 19.2 2.4
      vertex 33.0823 17.5578 2.4
    endloop
  endfacet
  facet normal 0 0 1
    outer loop
      vertex 30.4188 14.746 2.4
      vertex 27.8 16.9 2.4
      vertex 30.4 14.4 2.4
    endloop
  endfacet
  facet normal 0 0 1
    outer loop
      vertex 30.4748 15.0879 2.4
      vertex 27.8 16.9 2.4
      vertex 30.4188 14.746 2.4
    endloop
  endfacet
  facet normal 0 0 1
    outer loop
      vertex 30.5675 15.4218 2.4
      vertex 27.8 16.9 2.4
      vertex 30.4748 15.0879 2.4
    endloop
  endfacet
  facet normal 0 0 1
    outer loop
      vertex 30.6958 15.7436 2.4
      vertex 27.8 16.9 2.4
      vertex 30.5675 15.4218 2.4
    endloop
  endfacet
  facet normal 0 0 1
    outer loop
      vertex 30.8581 16.0498 2.4
      vertex 27.8 16.9 2.4
      vertex 30.6958 15.7436 2.4
    endloop
  endfacet
  facet normal 0 0 1
    outer loop
      vertex 31.0525 16.3366 2.4
      vertex 27.8 16.9 2.4
      vertex 30.8581 16.0498 2.4
    endloop
  endfacet
  facet normal -0 0 1
    outer loop
      vertex 27.8 16.9 2.4
      vertex 31.0525 16.3366 2.4
      vertex 28.8 19.2 2.4
    endloop
  endfacet
  facet normal 0 0 1
    outer loop
      vertex 31.2768 16.6006 2.4
      vertex 28.8 19.2 2.4
      vertex 31.0525 16.3366 2.4
    endloop
  endfacet
  facet normal 0 0 1
    outer loop
      vertex 31.5284 16.8389 2.4
      vertex 28.8 19.2 2.4
      vertex 31.2768 16.6006 2.4
    endloop
  endfacet
  facet normal 0 0 1
    outer loop
      vertex 31.8042 17.0486 2.4
      vertex 28.8 19.2 2.4
      vertex 31.5284 16.8389 2.4
    endloop
  endfacet
  facet normal 0 0 1
    outer loop
      vertex 32.1011 17.2272 2.4
      vertex 28.8 19.2 2.4
      vertex 31.8042 17.0486 2.4
    endloop
  endfacet
  facet normal 0 0 1
    outer loop
      vertex 32.4156 17.3727 2.4
      vertex 28.8 19.2 2.4
      vertex 32.1011 17.2272 2.4
    endloop
  endfacet
  facet normal 0 0 1
    outer loop
      vertex 32.7439 17.4834 2.4
      vertex 28.8 19.2 2.4
      vertex 32.4156 17.3727 2.4
    endloop
  endfacet
  facet normal 0 0 1
    outer loop
      vertex 33.0823 17.5578 2.4
      vertex 28.8 19.2 2.4
      vertex 32.7439 17.4834 2.4
    endloop
  endfacet
  facet normal 0 0 1
    outer loop
      vertex 36.7252 13.7121 2.4
      vertex 38.4 19.2 2.4
      vertex 36.7812 14.054 2.4
    endloop
  endfacet
  facet normal -0 0 1
    outer loop
      vertex 36.7812 4.45402 2.4
      vertex 38.4 0 2.4
      vertex 36.8 4.8 2.4
    endloop
  endfacet
  facet normal -0 0 1
    outer loop
      vertex 36.7252 4.11209 2.4
      vertex 38.4 0 2.4
      vertex 36.7812 4.45402 2.4
    endloop
  endfacet
  facet normal -0 0 1
    outer loop
      vertex 36.6325 3.77823 2.4
      vertex 38.4 0 2.4
      vertex 36.7252 4.11209 2.4
    endloop
  endfacet
  facet normal -0 0 1
    outer loop
      vertex 36.5042 3.45635 2.4
      vertex 38.4 0 2.4
      vertex 36.6325 3.77823 2.4
    endloop
  endfacet
  facet normal -0 0 1
    outer loop
      vertex 36.3419 3.15023 2.4
      vertex 38.4 0 2.4
      vertex 36.5042 3.45635 2.4
    endloop
  endfacet
  facet normal -0 0 1
    outer loop
      vertex 36.1475 2.86344 2.4
      vertex 38.4 0 2.4
      vertex 36.3419 3.15023 2.4
    endloop
  endfacet
  facet normal -0 0 1
    outer loop
      vertex 35.9232 2.59936 2.4
      vertex 38.4 0 2.4
      vertex 36.1475 2.86344 2.4
    endloop
  endfacet
  facet normal -0 0 1
    outer loop
      vertex 35.6716 2.36108 2.4
      vertex 38.4 0 2.4
      vertex 35.9232 2.59936 2.4
    endloop
  endfacet
  facet normal -0 0 1
    outer loop
      vertex 35.3958 2.15139 2.4
      vertex 38.4 0 2.4
      vertex 35.6716 2.36108 2.4
    endloop
  endfacet
  facet normal -0 0 1
    outer loop
      vertex 35.0989 1.97276 2.4
      vertex 38.4 0 2.4
      vertex 35.3958 2.15139 2.4
    endloop
  endfacet
  facet normal -0 0 1
    outer loop
      vertex 34.7844 1.82727 2.4
      vertex 38.4 0 2.4
      vertex 35.0989 1.97276 2.4
    endloop
  endfacet
  facet normal -0 0 1
    outer loop
      vertex 34.4561 1.71664 2.4
      vertex 38.4 0 2.4
      vertex 34.7844 1.82727 2.4
    endloop
  endfacet
  facet normal -0 0 1
    outer loop
      vertex 34.1177 1.64216 2.4
      vertex 38.4 0 2.4
      vertex 34.4561 1.71664 2.4
    endloop
  endfacet
  facet normal -0 0 1
    outer loop
      vertex 33.7732 1.60469 2.4
      vertex 38.4 0 2.4
      vertex 34.1177 1.64216 2.4
    endloop
  endfacet
  facet normal -0 0 1
    outer loop
      vertex 33.4268 1.60469 2.4
      vertex 38.4 0 2.4
      vertex 33.7732 1.60469 2.4
    endloop
  endfacet
  facet normal 0 0 1
    outer loop
      vertex 33.0823 1.64216 2.4
      vertex 38.4 0 2.4
      vertex 33.4268 1.60469 2.4
    endloop
  endfacet
  facet normal 0 0 1
    outer loop
      vertex 27.8 2.3 2.4
      vertex 33.0823 1.64216 2.4
      vertex 32.7439 1.71664 2.4
    endloop
  endfacet
  facet normal 0 0 1
    outer loop
      vertex 30.4748 5.48791 2.4
      vertex 27.8 2.3 2.4
      vertex 30.4188 5.14598 2.4
    endloop
  endfacet
  facet normal 0 0 1
    outer loop
      vertex 30.4188 5.14598 2.4
      vertex 27.8 2.3 2.4
      vertex 30.4 4.8 2.4
    endloop
  endfacet
  facet normal 0 0 1
    outer loop
      vertex 30.4 4.8 2.4
      vertex 27.8 2.3 2.4
      vertex 30.4188 4.45402 2.4
    endloop
  endfacet
  facet normal 0 0 1
    outer loop
      vertex 30.4188 4.45402 2.4
      vertex 27.8 2.3 2.4
      vertex 30.4748 4.11209 2.4
    endloop
  endfacet
  facet normal 0 0 1
    outer loop
      vertex 27.8 2.3 2.4
      vertex 30.5675 3.77823 2.4
      vertex 30.4748 4.11209 2.4
    endloop
  endfacet
  facet normal 0 0 1
    outer loop
      vertex 27.8 2.3 2.4
      vertex 30.6958 3.45635 2.4
      vertex 30.5675 3.77823 2.4
    endloop
  endfacet
  facet normal 0 0 1
    outer loop
      vertex 27.8 2.3 2.4
      vertex 30.8581 3.15023 2.4
      vertex 30.6958 3.45635 2.4
    endloop
  endfacet
  facet normal 0 0 1
    outer loop
      vertex 27.8 2.3 2.4
      vertex 31.0525 2.86344 2.4
      vertex 30.8581 3.15023 2.4
    endloop
  endfacet
  facet normal 0 0 1
    outer loop
      vertex 27.8 2.3 2.4
      vertex 31.2768 2.59936 2.4
      vertex 31.0525 2.86344 2.4
    endloop
  endfacet
  facet normal 0 0 1
    outer loop
      vertex 27.8 2.3 2.4
      vertex 31.5284 2.36108 2.4
      vertex 31.2768 2.59936 2.4
    endloop
  endfacet
  facet normal -0 0 1
    outer loop
      vertex 27.8 2.3 2.4
      vertex 31.8042 2.15139 2.4
      vertex 31.5284 2.36108 2.4
    endloop
  endfacet
  facet normal 0 0 1
    outer loop
      vertex 27.8 2.3 2.4
      vertex 32.1011 1.97276 2.4
      vertex 31.8042 2.15139 2.4
    endloop
  endfacet
  facet normal 0 0 1
    outer loop
      vertex 27.8 2.3 2.4
      vertex 32.4156 1.82727 2.4
      vertex 32.1011 1.97276 2.4
    endloop
  endfacet
  facet normal 0 0 1
    outer loop
      vertex 27.8 2.3 2.4
      vertex 32.7439 1.71664 2.4
      vertex 32.4156 1.82727 2.4
    endloop
  endfacet
  facet normal 0 0 1
    outer loop
      vertex 33.0823 1.64216 2.4
      vertex 27.8 2.3 2.4
      vertex 38.4 0 2.4
    endloop
  endfacet
  facet normal 0 0 1
    outer loop
      vertex 0 0 2.4
      vertex 27.8 2.3 2.4
      vertex 7.2 2.3 2.4
    endloop
  endfacet
  facet normal 0 0 1
    outer loop
      vertex 27.8 2.3 2.4
      vertex 0 0 2.4
      vertex 38.4 0 2.4
    endloop
  endfacet
  facet normal 0 0 1
    outer loop
      vertex 0 0 2.4
      vertex 7.2 2.3 2.4
      vertex 0 19.2 2.4
    endloop
  endfacet
  facet normal 0 0 -1
    outer loop
      vertex 37.5766 13.9675 0
      vertex 38.4 19.2 0
      vertex 37.5766 5.23247 0
    endloop
  endfacet
  facet normal 0 0 -1
    outer loop
      vertex 38.4 19.2 0
      vertex 37.5766 13.9675 0
      vertex 37.6 14.4 0
    endloop
  endfacet
  facet normal 0 0 -1
    outer loop
      vertex 37.5065 5.65988 0
      vertex 37.5766 13.9675 0
      vertex 37.5766 5.23247 0
    endloop
  endfacet
  facet normal 0 0 -1
    outer loop
      vertex 37.5065 5.65988 0
      vertex 37.5065 13.5401 0
      vertex 37.5766 13.9675 0
    endloop
  endfacet
  facet normal 0 0 -1
    outer loop
      vertex 37.3906 6.07721 0
      vertex 37.5065 13.5401 0
      vertex 37.5065 5.65988 0
    endloop
  endfacet
  facet normal 0 0 -1
    outer loop
      vertex 37.3906 6.07721 0
      vertex 37.3906 13.1228 0
      vertex 37.5065 13.5401 0
    endloop
  endfacet
  facet normal 0 0 -1
    outer loop
      vertex 37.2303 6.47956 0
      vertex 37.3906 13.1228 0
      vertex 37.3906 6.07721 0
    endloop
  endfacet
  facet normal 0 0 -1
    outer loop
      vertex 37.2303 6.47956 0
      vertex 37.2303 12.7204 0
      vertex 37.3906 13.1228 0
    endloop
  endfacet
  facet normal 0 0 -1
    outer loop
      vertex 37.0274 6.86221 0
      vertex 37.2303 12.7204 0
      vertex 37.2303 6.47956 0
    endloop
  endfacet
  facet normal 0 0 -1
    outer loop
      vertex 37.0274 6.86221 0
      vertex 37.0274 12.3378 0
      vertex 37.2303 12.7204 0
    endloop
  endfacet
  facet normal 0 0 -1
    outer loop
      vertex 36.7844 7.2207 0
      vertex 37.0274 12.3378 0
      vertex 37.0274 6.86221 0
    endloop
  endfacet
  facet normal 0 0 -1
    outer loop
      vertex 36.7844 7.2207 0
      vertex 36.7844 11.9793 0
      vertex 37.0274 12.3378 0
    endloop
  endfacet
  facet normal 0 0 -1
    outer loop
      vertex 36.504 7.5508 0
      vertex 36.7844 11.9793 0
      vertex 36.7844 7.2207 0
    endloop
  endfacet
  facet normal 0 0 -1
    outer loop
      vertex 36.504 7.5508 0
      vertex 36.504 11.6492 0
      vertex 36.7844 11.9793 0
    endloop
  endfacet
  facet normal 0 0 -1
    outer loop
      vertex 36.1895 7.84865 0
      vertex 36.504 11.6492 0
      vertex 36.504 7.5508 0
    endloop
  endfacet
  facet normal 0 0 -1
    outer loop
      vertex 36.1895 7.84865 0
      vertex 36.1895 11.3514 0
      vertex 36.504 11.6492 0
    endloop
  endfacet
  facet normal 0 0 -1
    outer loop
      vertex 35.8447 8.11075 0
      vertex 36.1895 11.3514 0
      vertex 36.1895 7.84865 0
    endloop
  endfacet
  facet normal 0 0 -1
    outer loop
      vertex 35.8447 8.11075 0
      vertex 35.8447 11.0892 0
      vertex 36.1895 11.3514 0
    endloop
  endfacet
  facet normal 0 0 -1
    outer loop
      vertex 35.4736 8.33405 0
      vertex 35.8447 11.0892 0
      vertex 35.8447 8.11075 0
    endloop
  endfacet
  facet normal 0 0 -1
    outer loop
      vertex 35.4736 8.33405 0
      vertex 35.4736 10.866 0
      vertex 35.8447 11.0892 0
    endloop
  endfacet
  facet normal 0 0 -1
    outer loop
      vertex 35.0806 8.51591 0
      vertex 35.4736 10.866 0
      vertex 35.4736 8.33405 0
    endloop
  endfacet
  facet normal 0 0 -1
    outer loop
      vertex 35.0806 8.51591 0
      vertex 35.0806 10.6841 0
      vertex 35.4736 10.866 0
    endloop
  endfacet
  facet normal 0 0 -1
    outer loop
      vertex 34.6701 8.6542 0
      vertex 35.0806 10.6841 0
      vertex 35.0806 8.51591 0
    endloop
  endfacet
  facet normal 0 0 -1
    outer loop
      vertex 34.6701 8.6542 0
      vertex 34.6701 10.5458 0
      vertex 35.0806 10.6841 0
    endloop
  endfacet
  facet normal 0 0 -1
    outer loop
      vertex 34.2471 8.74731 0
      vertex 34.6701 10.5458 0
      vertex 34.6701 8.6542 0
    endloop
  endfacet
  facet normal 0 0 -1
    outer loop
      vertex 34.2471 8.74731 0
      vertex 34.2471 10.4527 0
      vertex 34.6701 10.5458 0
    endloop
  endfacet
  facet normal 0 0 -1
    outer loop
      vertex 33.8166 8.79413 0
      vertex 34.2471 10.4527 0
      vertex 34.2471 8.74731 0
    endloop
  endfacet
  facet normal 0 0 -1
    outer loop
      vertex 33.8166 8.79413 0
      vertex 33.8166 10.4059 0
      vertex 34.2471 10.4527 0
    endloop
  endfacet
  facet normal 0 0 -1
    outer loop
      vertex 33.3834 8.79413 0
      vertex 33.8166 10.4059 0
      vertex 33.8166 8.79413 0
    endloop
  endfacet
  facet normal 0 0 -1
    outer loop
      vertex 33.3834 8.79413 0
      vertex 33.3834 10.4059 0
      vertex 33.8166 10.4059 0
    endloop
  endfacet
  facet normal 0 0 -1
    outer loop
      vertex 32.9529 8.74731 0
      vertex 33.3834 10.4059 0
      vertex 33.3834 8.79413 0
    endloop
  endfacet
  facet normal 0 0 -1
    outer loop
      vertex 32.9529 8.74731 0
      vertex 32.9529 10.4527 0
      vertex 33.3834 10.4059 0
    endloop
  endfacet
  facet normal 0 0 -1
    outer loop
      vertex 32.5299 8.6542 0
      vertex 32.9529 10.4527 0
      vertex 32.9529 8.74731 0
    endloop
  endfacet
  facet normal 0 0 -1
    outer loop
      vertex 32.5299 8.6542 0
      vertex 32.5299 10.5458 0
      vertex 32.9529 10.4527 0
    endloop
  endfacet
  facet normal 0 0 -1
    outer loop
      vertex 32.1194 8.51591 0
      vertex 32.5299 10.5458 0
      vertex 32.5299 8.6542 0
    endloop
  endfacet
  facet normal 0 0 -1
    outer loop
      vertex 32.1194 8.51591 0
      vertex 32.1194 10.6841 0
      vertex 32.5299 10.5458 0
    endloop
  endfacet
  facet normal 0 0 -1
    outer loop
      vertex 31.7264 8.33405 0
      vertex 32.1194 10.6841 0
      vertex 32.1194 8.51591 0
    endloop
  endfacet
  facet normal 0 0 -1
    outer loop
      vertex 31.7264 8.33405 0
      vertex 31.7264 10.866 0
      vertex 32.1194 10.6841 0
    endloop
  endfacet
  facet normal 0 0 -1
    outer loop
      vertex 31.3553 8.11075 0
      vertex 31.7264 10.866 0
      vertex 31.7264 8.33405 0
    endloop
  endfacet
  facet normal 0 0 -1
    outer loop
      vertex 31.3553 8.11075 0
      vertex 31.3553 11.0892 0
      vertex 31.7264 10.866 0
    endloop
  endfacet
  facet normal 0 0 -1
    outer loop
      vertex 31.0105 7.84865 0
      vertex 31.3553 11.0892 0
      vertex 31.3553 8.11075 0
    endloop
  endfacet
  facet normal 0 0 -1
    outer loop
      vertex 31.0105 7.84865 0
      vertex 31.0105 11.3514 0
      vertex 31.3553 11.0892 0
    endloop
  endfacet
  facet normal 0 0 -1
    outer loop
      vertex 30.696 7.5508 0
      vertex 31.0105 11.3514 0
      vertex 31.0105 7.84865 0
    endloop
  endfacet
  facet normal 0 0 -1
    outer loop
      vertex 30.696 7.5508 0
      vertex 30.696 11.6492 0
      vertex 31.0105 11.3514 0
    endloop
  endfacet
  facet normal 0 0 -1
    outer loop
      vertex 30.4156 7.2207 0
      vertex 30.696 11.6492 0
      vertex 30.696 7.5508 0
    endloop
  endfacet
  facet normal 0 0 -1
    outer loop
      vertex 30.4156 7.2207 0
      vertex 30.4156 11.9793 0
      vertex 30.696 11.6492 0
    endloop
  endfacet
  facet normal 0 0 -1
    outer loop
      vertex 30.1726 6.86221 0
      vertex 30.4156 11.9793 0
      vertex 30.4156 7.2207 0
    endloop
  endfacet
  facet normal 0 0 -1
    outer loop
      vertex 30.1726 6.86221 0
      vertex 30.1726 12.3378 0
      vertex 30.4156 11.9793 0
    endloop
  endfacet
  facet normal 0 0 -1
    outer loop
      vertex 29.9697 6.47956 0
      vertex 30.1726 12.3378 0
      vertex 30.1726 6.86221 0
    endloop
  endfacet
  facet normal 0 0 -1
    outer loop
      vertex 29.9697 6.47956 0
      vertex 29.9697 12.7204 0
      vertex 30.1726 12.3378 0
    endloop
  endfacet
  facet normal 0 0 -1
    outer loop
      vertex 29.8094 6.07721 0
      vertex 29.9697 12.7204 0
      vertex 29.9697 6.47956 0
    endloop
  endfacet
  facet normal 0 0 -1
    outer loop
      vertex 29.8094 6.07721 0
      vertex 29.8094 13.1228 0
      vertex 29.9697 12.7204 0
    endloop
  endfacet
  facet normal 0 0 -1
    outer loop
      vertex 27.8 2.3 0
      vertex 29.8094 6.07721 0
      vertex 29.6935 5.65988 0
    endloop
  endfacet
  facet normal -0 0 -1
    outer loop
      vertex 29.8094 6.07721 0
      vertex 27.8 2.3 0
      vertex 29.8094 13.1228 0
    endloop
  endfacet
  facet normal 0 0 -1
    outer loop
      vertex 27.8 2.3 0
      vertex 29.6935 5.65988 0
      vertex 29.6234 5.23247 0
    endloop
  endfacet
  facet normal 0 0 -1
    outer loop
      vertex 27.8 16.9 0
      vertex 29.8094 13.1228 0
      vertex 27.8 2.3 0
    endloop
  endfacet
  facet normal 0 0 -1
    outer loop
      vertex 27.8 2.3 0
      vertex 29.6234 5.23247 0
      vertex 29.6 4.8 0
    endloop
  endfacet
  facet normal 0 0 -1
    outer loop
      vertex 29.8094 13.1228 0
      vertex 27.8 16.9 0
      vertex 29.6935 13.5401 0
    endloop
  endfacet
  facet normal 0 0 -1
    outer loop
      vertex 37.5766 5.23247 0
      vertex 38.4 0 0
      vertex 37.6 4.8 0
    endloop
  endfacet
  facet normal 0 0 -1
    outer loop
      vertex 38.4 0 0
      vertex 37.5766 4.36752 0
      vertex 37.6 4.8 0
    endloop
  endfacet
  facet normal 0 0 -1
    outer loop
      vertex 38.4 0 0
      vertex 37.5065 3.94012 0
      vertex 37.5766 4.36752 0
    endloop
  endfacet
  facet normal 0 0 -1
    outer loop
      vertex 38.4 0 0
      vertex 37.3906 3.52279 0
      vertex 37.5065 3.94012 0
    endloop
  endfacet
  facet normal 0 0 -1
    outer loop
      vertex 38.4 0 0
      vertex 37.2303 3.12044 0
      vertex 37.3906 3.52279 0
    endloop
  endfacet
  facet normal 0 0 -1
    outer loop
      vertex 38.4 0 0
      vertex 37.0274 2.73779 0
      vertex 37.2303 3.12044 0
    endloop
  endfacet
  facet normal 0 0 -1
    outer loop
      vertex 38.4 0 0
      vertex 36.7844 2.3793 0
      vertex 37.0274 2.73779 0
    endloop
  endfacet
  facet normal 0 0 -1
    outer loop
      vertex 38.4 0 0
      vertex 36.504 2.0492 0
      vertex 36.7844 2.3793 0
    endloop
  endfacet
  facet normal 0 0 -1
    outer loop
      vertex 38.4 0 0
      vertex 36.1895 1.75135 0
      vertex 36.504 2.0492 0
    endloop
  endfacet
  facet normal 0 0 -1
    outer loop
      vertex 38.4 0 0
      vertex 35.8447 1.48924 0
      vertex 36.1895 1.75135 0
    endloop
  endfacet
  facet normal 0 0 -1
    outer loop
      vertex 38.4 0 0
      vertex 35.4736 1.26595 0
      vertex 35.8447 1.48924 0
    endloop
  endfacet
  facet normal 0 0 -1
    outer loop
      vertex 38.4 0 0
      vertex 35.0806 1.08409 0
      vertex 35.4736 1.26595 0
    endloop
  endfacet
  facet normal 0 0 -1
    outer loop
      vertex 38.4 0 0
      vertex 34.6701 0.945798 0
      vertex 35.0806 1.08409 0
    endloop
  endfacet
  facet normal 0 0 -1
    outer loop
      vertex 38.4 0 0
      vertex 34.2471 0.852692 0
      vertex 34.6701 0.945798 0
    endloop
  endfacet
  facet normal 0 0 -1
    outer loop
      vertex 38.4 0 0
      vertex 33.8166 0.805864 0
      vertex 34.2471 0.852692 0
    endloop
  endfacet
  facet normal 0 0 -1
    outer loop
      vertex 38.4 0 0
      vertex 33.3834 0.805864 0
      vertex 33.8166 0.805864 0
    endloop
  endfacet
  facet normal 0 0 -1
    outer loop
      vertex 38.4 0 0
      vertex 32.9529 0.852692 0
      vertex 33.3834 0.805864 0
    endloop
  endfacet
  facet normal 0 0 -1
    outer loop
      vertex 29.6234 13.9675 0
      vertex 27.8 16.9 0
      vertex 29.6 14.4 0
    endloop
  endfacet
  facet normal 0 0 -1
    outer loop
      vertex 27.8 2.3 0
      vertex 29.6 4.8 0
      vertex 29.6234 4.36752 0
    endloop
  endfacet
  facet normal 0 0 -1
    outer loop
      vertex 29.6 14.4 0
      vertex 27.8 16.9 0
      vertex 28.8 19.2 0
    endloop
  endfacet
  facet normal 0 0 -1
    outer loop
      vertex 29.6935 13.5401 0
      vertex 27.8 16.9 0
      vertex 29.6234 13.9675 0
    endloop
  endfacet
  facet normal -0 0 -1
    outer loop
      vertex 29.6935 3.94012 0
      vertex 27.8 2.3 0
      vertex 29.6234 4.36752 0
    endloop
  endfacet
  facet normal -0 0 -1
    outer loop
      vertex 29.8094 3.52279 0
      vertex 27.8 2.3 0
      vertex 29.6935 3.94012 0
    endloop
  endfacet
  facet normal -0 0 -1
    outer loop
      vertex 29.9697 3.12044 0
      vertex 27.8 2.3 0
      vertex 29.8094 3.52279 0
    endloop
  endfacet
  facet normal -0 0 -1
    outer loop
      vertex 30.1726 2.73779 0
      vertex 27.8 2.3 0
      vertex 29.9697 3.12044 0
    endloop
  endfacet
  facet normal -0 0 -1
    outer loop
      vertex 30.4156 2.3793 0
      vertex 27.8 2.3 0
      vertex 30.1726 2.73779 0
    endloop
  endfacet
  facet normal 0 0 -1
    outer loop
      vertex 30.696 2.0492 0
      vertex 27.8 2.3 0
      vertex 30.4156 2.3793 0
    endloop
  endfacet
  facet normal 0 0 -1
    outer loop
      vertex 31.0105 1.75135 0
      vertex 27.8 2.3 0
      vertex 30.696 2.0492 0
    endloop
  endfacet
  facet normal 0 0 -1
    outer loop
      vertex 31.3553 1.48924 0
      vertex 27.8 2.3 0
      vertex 31.0105 1.75135 0
    endloop
  endfacet
  facet normal 0 0 -1
    outer loop
      vertex 31.7264 1.26595 0
      vertex 27.8 2.3 0
      vertex 31.3553 1.48924 0
    endloop
  endfacet
  facet normal 0 0 -1
    outer loop
      vertex 32.1194 1.08409 0
      vertex 27.8 2.3 0
      vertex 31.7264 1.26595 0
    endloop
  endfacet
  facet normal 0 0 -1
    outer loop
      vertex 24 2.3 0
      vertex 32.1194 1.08409 0
      vertex 32.5299 0.945798 0
    endloop
  endfacet
  facet normal 0 0 -1
    outer loop
      vertex 32.1194 1.08409 0
      vertex 24 2.3 0
      vertex 27.8 2.3 0
    endloop
  endfacet
  facet normal 0 0 -1
    outer loop
      vertex 13.5 2.3 0
      vertex 32.5299 0.945798 0
      vertex 32.9529 0.852692 0
    endloop
  endfacet
  facet normal 0 0 -1
    outer loop
      vertex 24 2.3 0
      vertex 13.5 2.3 0
      vertex 24 16.9 0
    endloop
  endfacet
  facet normal 0 0 -1
    outer loop
      vertex 32.5299 0.945798 0
      vertex 13.5 2.3 0
      vertex 24 2.3 0
    endloop
  endfacet
  facet normal 0 0 -1
    outer loop
      vertex 0 0 0
      vertex 32.9529 0.852692 0
      vertex 38.4 0 0
    endloop
  endfacet
  facet normal -0 0 -1
    outer loop
      vertex 32.9529 0.852692 0
      vertex 0 0 0
      vertex 13.5 2.3 0
    endloop
  endfacet
  facet normal -0 0 -1
    outer loop
      vertex 7.2 2.3 0
      vertex 0 0 0
      vertex 7.2 16.9 0
    endloop
  endfacet
  facet normal -0 0 -1
    outer loop
      vertex 13.5 2.3 0
      vertex 0 0 0
      vertex 7.2 2.3 0
    endloop
  endfacet
  facet normal 0 0 -1
    outer loop
      vertex 38.4 0 0
      vertex 37.5766 5.23247 0
      vertex 38.4 19.2 0
    endloop
  endfacet
  facet normal 0 0 -1
    outer loop
      vertex 37.5766 14.8325 0
      vertex 38.4 19.2 0
      vertex 37.6 14.4 0
    endloop
  endfacet
  facet normal 0 0 -1
    outer loop
      vertex 37.5065 15.2599 0
      vertex 38.4 19.2 0
      vertex 37.5766 14.8325 0
    endloop
  endfacet
  facet normal 0 0 -1
    outer loop
      vertex 37.3906 15.6772 0
      vertex 38.4 19.2 0
      vertex 37.5065 15.2599 0
    endloop
  endfacet
  facet normal 0 0 -1
    outer loop
      vertex 37.2303 16.0796 0
      vertex 38.4 19.2 0
      vertex 37.3906 15.6772 0
    endloop
  endfacet
  facet normal 0 0 -1
    outer loop
      vertex 37.0274 16.4622 0
      vertex 38.4 19.2 0
      vertex 37.2303 16.0796 0
    endloop
  endfacet
  facet normal 0 0 -1
    outer loop
      vertex 36.7844 16.8207 0
      vertex 38.4 19.2 0
      vertex 37.0274 16.4622 0
    endloop
  endfacet
  facet normal 0 0 -1
    outer loop
      vertex 36.504 17.1508 0
      vertex 38.4 19.2 0
      vertex 36.7844 16.8207 0
    endloop
  endfacet
  facet normal 0 0 -1
    outer loop
      vertex 36.1895 17.4486 0
      vertex 38.4 19.2 0
      vertex 36.504 17.1508 0
    endloop
  endfacet
  facet normal 0 0 -1
    outer loop
      vertex 35.8447 17.7108 0
      vertex 38.4 19.2 0
      vertex 36.1895 17.4486 0
    endloop
  endfacet
  facet normal 0 0 -1
    outer loop
      vertex 35.4736 17.934 0
      vertex 38.4 19.2 0
      vertex 35.8447 17.7108 0
    endloop
  endfacet
  facet normal 0 0 -1
    outer loop
      vertex 35.0806 18.1159 0
      vertex 38.4 19.2 0
      vertex 35.4736 17.934 0
    endloop
  endfacet
  facet normal 0 0 -1
    outer loop
      vertex 34.6701 18.2542 0
      vertex 38.4 19.2 0
      vertex 35.0806 18.1159 0
    endloop
  endfacet
  facet normal 0 0 -1
    outer loop
      vertex 34.2471 18.3473 0
      vertex 38.4 19.2 0
      vertex 34.6701 18.2542 0
    endloop
  endfacet
  facet normal 0 0 -1
    outer loop
      vertex 33.8166 18.3941 0
      vertex 38.4 19.2 0
      vertex 34.2471 18.3473 0
    endloop
  endfacet
  facet normal 0 0 -1
    outer loop
      vertex 33.3834 18.3941 0
      vertex 38.4 19.2 0
      vertex 33.8166 18.3941 0
    endloop
  endfacet
  facet normal 0 0 -1
    outer loop
      vertex 28.8 19.2 0
      vertex 33.3834 18.3941 0
      vertex 32.9529 18.3473 0
    endloop
  endfacet
  facet normal 0 0 -1
    outer loop
      vertex 33.3834 18.3941 0
      vertex 28.8 19.2 0
      vertex 38.4 19.2 0
    endloop
  endfacet
  facet normal 0 0 -1
    outer loop
      vertex 32.5299 18.2542 0
      vertex 28.8 19.2 0
      vertex 32.9529 18.3473 0
    endloop
  endfacet
  facet normal 0 0 -1
    outer loop
      vertex 32.1194 18.1159 0
      vertex 28.8 19.2 0
      vertex 32.5299 18.2542 0
    endloop
  endfacet
  facet normal 0 0 -1
    outer loop
      vertex 31.7264 17.934 0
      vertex 28.8 19.2 0
      vertex 32.1194 18.1159 0
    endloop
  endfacet
  facet normal 0 0 -1
    outer loop
      vertex 31.3553 17.7108 0
      vertex 28.8 19.2 0
      vertex 31.7264 17.934 0
    endloop
  endfacet
  facet normal 0 0 -1
    outer loop
      vertex 31.0105 17.4486 0
      vertex 28.8 19.2 0
      vertex 31.3553 17.7108 0
    endloop
  endfacet
  facet normal 0 0 -1
    outer loop
      vertex 30.696 17.1508 0
      vertex 28.8 19.2 0
      vertex 31.0105 17.4486 0
    endloop
  endfacet
  facet normal 0 0 -1
    outer loop
      vertex 30.4156 16.8207 0
      vertex 28.8 19.2 0
      vertex 30.696 17.1508 0
    endloop
  endfacet
  facet normal 0 0 -1
    outer loop
      vertex 30.1726 16.4622 0
      vertex 28.8 19.2 0
      vertex 30.4156 16.8207 0
    endloop
  endfacet
  facet normal 0 0 -1
    outer loop
      vertex 29.9697 16.0796 0
      vertex 28.8 19.2 0
      vertex 30.1726 16.4622 0
    endloop
  endfacet
  facet normal 0 0 -1
    outer loop
      vertex 29.8094 15.6772 0
      vertex 28.8 19.2 0
      vertex 29.9697 16.0796 0
    endloop
  endfacet
  facet normal 0 0 -1
    outer loop
      vertex 29.6935 15.2599 0
      vertex 28.8 19.2 0
      vertex 29.8094 15.6772 0
    endloop
  endfacet
  facet normal 0 0 -1
    outer loop
      vertex 29.6234 14.8325 0
      vertex 28.8 19.2 0
      vertex 29.6935 15.2599 0
    endloop
  endfacet
  facet normal 0 0 -1
    outer loop
      vertex 28.8 19.2 0
      vertex 29.6234 14.8325 0
      vertex 29.6 14.4 0
    endloop
  endfacet
  facet normal 0 0 -1
    outer loop
      vertex 24 16.9 0
      vertex 28.8 19.2 0
      vertex 27.8 16.9 0
    endloop
  endfacet
  facet normal 0 0 -1
    outer loop
      vertex 13.5 16.9 0
      vertex 24 16.9 0
      vertex 13.5 2.3 0
    endloop
  endfacet
  facet normal 0 0 -1
    outer loop
      vertex 13.5 16.9 0
      vertex 28.8 19.2 0
      vertex 24 16.9 0
    endloop
  endfacet
  facet normal 0 0 -1
    outer loop
      vertex 0 19.2 0
      vertex 13.5 16.9 0
      vertex 7.2 16.9 0
    endloop
  endfacet
  facet normal 0 0 -1
    outer loop
      vertex 13.5 16.9 0
      vertex 0 19.2 0
      vertex 28.8 19.2 0
    endloop
  endfacet
  facet normal 0 0 -1
    outer loop
      vertex 0 19.2 0
      vertex 7.2 16.9 0
      vertex 0 0 0
    endloop
  endfacet
  facet normal -0.936337 0.15335 -0.315845
    outer loop
      vertex 36.7812 4.45402 2.4
      vertex 37.5766 4.36752 0
      vertex 36.7252 4.11209 2.4
    endloop
  endfacet
  facet normal -0.936311 0.153569 -0.315812
    outer loop
      vertex 37.5766 4.36752 0
      vertex 37.5065 3.94012 0
      vertex 36.7252 4.11209 2.4
    endloop
  endfacet
  facet normal -0.914235 0.253848 -0.315811
    outer loop
      vertex 36.7252 4.11209 2.4
      vertex 37.5065 3.94012 0
      vertex 36.6325 3.77823 2.4
    endloop
  endfacet
  facet normal -0.914224 0.253896 -0.315803
    outer loop
      vertex 37.5065 3.94012 0
      vertex 37.3906 3.52279 0
      vertex 36.6325 3.77823 2.4
    endloop
  endfacet
  facet normal -0.881389 0.351318 -0.315801
    outer loop
      vertex 36.6325 3.77823 2.4
      vertex 37.3906 3.52279 0
      vertex 36.5042 3.45635 2.4
    endloop
  endfacet
  facet normal -0.881438 0.351173 -0.315823
    outer loop
      vertex 37.3906 3.52279 0
      vertex 37.2303 3.12044 0
      vertex 36.5042 3.45635 2.4
    endloop
  endfacet
  facet normal -0.838286 0.444446 -0.315822
    outer loop
      vertex 36.5042 3.45635 2.4
      vertex 37.2303 3.12044 0
      vertex 36.3419 3.15023 2.4
    endloop
  endfacet
  facet normal -0.838266 0.44449 -0.315815
    outer loop
      vertex 37.2303 3.12044 0
      vertex 37.0274 2.73779 0
      vertex 36.3419 3.15023 2.4
    endloop
  endfacet
  facet normal -0.78539 0.532375 -0.315816
    outer loop
      vertex 36.3419 3.15023 2.4
      vertex 37.0274 2.73779 0
      vertex 36.1475 2.86344 2.4
    endloop
  endfacet
  facet normal -0.785392 0.532372 -0.315816
    outer loop
      vertex 37.0274 2.73779 0
      vertex 36.7844 2.3793 0
      vertex 36.1475 2.86344 2.4
    endloop
  endfacet
  facet normal -0.72317 0.614235 -0.315818
    outer loop
      vertex 36.1475 2.86344 2.4
      vertex 36.7844 2.3793 0
      vertex 35.9232 2.59936 2.4
    endloop
  endfacet
  facet normal -0.723145 0.614268 -0.315812
    outer loop
      vertex 36.7844 2.3793 0
      vertex 36.504 2.0492 0
      vertex 35.9232 2.59936 2.4
    endloop
  endfacet
  facet normal -0.652435 0.688907 -0.31581
    outer loop
      vertex 35.9232 2.59936 2.4
      vertex 36.504 2.0492 0
      vertex 35.6716 2.36108 2.4
    endloop
  endfacet
  facet normal -0.652435 0.688907 -0.31581
    outer loop
      vertex 36.504 2.0492 0
      vertex 36.1895 1.75135 0
      vertex 35.6716 2.36108 2.4
    endloop
  endfacet
  facet normal -0.574259 0.755308 -0.31581
    outer loop
      vertex 35.6716 2.36108 2.4
      vertex 36.1895 1.75135 0
      vertex 35.3958 2.15139 2.4
    endloop
  endfacet
  facet normal -0.574205 0.755354 -0.315799
    outer loop
      vertex 36.1895 1.75135 0
      vertex 35.8447 1.48924 0
      vertex 35.3958 2.15139 2.4
    endloop
  endfacet
  facet normal -0.489153 0.813019 -0.3158
    outer loop
      vertex 35.3958 2.15139 2.4
      vertex 35.8447 1.48924 0
      vertex 35.0989 1.97276 2.4
    endloop
  endfacet
  facet normal -0.48918 0.813 -0.315805
    outer loop
      vertex 35.8447 1.48924 0
      vertex 35.4736 1.26595 0
      vertex 35.0989 1.97276 2.4
    endloop
  endfacet
  facet normal -0.398371 0.861143 -0.315806
    outer loop
      vertex 35.0989 1.97276 2.4
      vertex 35.4736 1.26595 0
      vertex 34.7844 1.82727 2.4
    endloop
  endfacet
  facet normal -0.398469 0.861092 -0.315822
    outer loop
      vertex 35.4736 1.26595 0
      vertex 35.0806 1.08409 0
      vertex 34.7844 1.82727 2.4
    endloop
  endfacet
  facet normal -0.302991 0.899141 -0.315821
    outer loop
      vertex 34.7844 1.82727 2.4
      vertex 35.0806 1.08409 0
      vertex 34.4561 1.71664 2.4
    endloop
  endfacet
  facet normal -0.302918 0.899169 -0.315809
    outer loop
      vertex 35.0806 1.08409 0
      vertex 34.6701 0.945798 0
      vertex 34.4561 1.71664 2.4
    endloop
  endfacet
  facet normal -0.203949 0.926644 -0.315809
    outer loop
      vertex 34.4561 1.71664 2.4
      vertex 34.6701 0.945798 0
      vertex 34.1177 1.64216 2.4
    endloop
  endfacet
  facet normal -0.203962 0.926641 -0.315811
    outer loop
      vertex 34.6701 0.945798 0
      vertex 34.2471 0.852692 0
      vertex 34.1177 1.64216 2.4
    endloop
  endfacet
  facet normal -0.102595 0.943259 -0.315812
    outer loop
      vertex 34.1177 1.64216 2.4
      vertex 34.2471 0.852692 0
      vertex 33.7732 1.60469 2.4
    endloop
  endfacet
  facet normal -0.102604 0.943257 -0.315813
    outer loop
      vertex 34.2471 0.852692 0
      vertex 33.8166 0.805864 0
      vertex 33.7732 1.60469 2.4
    endloop
  endfacet
  facet normal 0 0.948822 -0.31581
    outer loop
      vertex 33.8166 0.805864 0
      vertex 33.4268 1.60469 2.4
      vertex 33.7732 1.60469 2.4
    endloop
  endfacet
  facet normal 0 0.948822 -0.31581
    outer loop
      vertex 33.4268 1.60469 2.4
      vertex 33.8166 0.805864 0
      vertex 33.3834 0.805864 0
    endloop
  endfacet
  facet normal 0.102595 0.943258 -0.315813
    outer loop
      vertex 33.4268 1.60469 2.4
      vertex 33.3834 0.805864 0
      vertex 33.0823 1.64216 2.4
    endloop
  endfacet
  facet normal 0.102604 0.943258 -0.315812
    outer loop
      vertex 33.0823 1.64216 2.4
      vertex 33.3834 0.805864 0
      vertex 32.9529 0.852692 0
    endloop
  endfacet
  facet normal 0.203949 0.926643 -0.315811
    outer loop
      vertex 33.0823 1.64216 2.4
      vertex 32.9529 0.852692 0
      vertex 32.7439 1.71664 2.4
    endloop
  endfacet
  facet normal 0.203962 0.926641 -0.315809
    outer loop
      vertex 32.7439 1.71664 2.4
      vertex 32.9529 0.852692 0
      vertex 32.5299 0.945798 0
    endloop
  endfacet
  facet normal 0.302992 0.899145 -0.315808
    outer loop
      vertex 32.7439 1.71664 2.4
      vertex 32.5299 0.945798 0
      vertex 32.4156 1.82727 2.4
    endloop
  endfacet
  facet normal 0.302917 0.899166 -0.315819
    outer loop
      vertex 32.4156 1.82727 2.4
      vertex 32.5299 0.945798 0
      vertex 32.1194 1.08409 0
    endloop
  endfacet
  facet normal 0.398369 0.861138 -0.315824
    outer loop
      vertex 32.4156 1.82727 2.4
      vertex 32.1194 1.08409 0
      vertex 32.1011 1.97276 2.4
    endloop
  endfacet
  facet normal 0.398471 0.861096 -0.315808
    outer loop
      vertex 32.1011 1.97276 2.4
      vertex 32.1194 1.08409 0
      vertex 31.7264 1.26595 0
    endloop
  endfacet
  facet normal 0.489152 0.813017 -0.315806
    outer loop
      vertex 31.8042 2.15139 2.4
      vertex 32.1011 1.97276 2.4
      vertex 31.7264 1.26595 0
    endloop
  endfacet
  facet normal 0.489181 0.813002 -0.315801
    outer loop
      vertex 31.8042 2.15139 2.4
      vertex 31.7264 1.26595 0
      vertex 31.3553 1.48924 0
    endloop
  endfacet
  facet normal 0.574261 0.755312 -0.315798
    outer loop
      vertex 31.5284 2.36108 2.4
      vertex 31.8042 2.15139 2.4
      vertex 31.3553 1.48924 0
    endloop
  endfacet
  facet normal 0.574203 0.755352 -0.315808
    outer loop
      vertex 31.5284 2.36108 2.4
      vertex 31.3553 1.48924 0
      vertex 31.0105 1.75135 0
    endloop
  endfacet
  facet normal 0.652435 0.688907 -0.31581
    outer loop
      vertex 31.2768 2.59936 2.4
      vertex 31.5284 2.36108 2.4
      vertex 31.0105 1.75135 0
    endloop
  endfacet
  facet normal 0.652435 0.688907 -0.31581
    outer loop
      vertex 31.2768 2.59936 2.4
      vertex 31.0105 1.75135 0
      vertex 30.696 2.0492 0
    endloop
  endfacet
  facet normal 0.723172 0.614236 -0.315811
    outer loop
      vertex 31.0525 2.86344 2.4
      vertex 31.2768 2.59936 2.4
      vertex 30.696 2.0492 0
    endloop
  endfacet
  facet normal 0.723143 0.614267 -0.315817
    outer loop
      vertex 31.0525 2.86344 2.4
      vertex 30.696 2.0492 0
      vertex 30.4156 2.3793 0
    endloop
  endfacet
  facet normal 0.78539 0.532375 -0.315816
    outer loop
      vertex 30.8581 3.15023 2.4
      vertex 31.0525 2.86344 2.4
      vertex 30.4156 2.3793 0
    endloop
  endfacet
  facet normal 0.785392 0.532372 -0.315816
    outer loop
      vertex 30.8581 3.15023 2.4
      vertex 30.4156 2.3793 0
      vertex 30.1726 2.73779 0
    endloop
  endfacet
  facet normal 0.838289 0.444447 -0.315814
    outer loop
      vertex 30.6958 3.45635 2.4
      vertex 30.8581 3.15023 2.4
      vertex 30.1726 2.73779 0
    endloop
  endfacet
  facet normal 0.838264 0.444489 -0.315822
    outer loop
      vertex 30.6958 3.45635 2.4
      vertex 30.1726 2.73779 0
      vertex 29.9697 3.12044 0
    endloop
  endfacet
  facet normal 0.881381 0.351315 -0.315825
    outer loop
      vertex 30.5675 3.77823 2.4
      vertex 30.6958 3.45635 2.4
      vertex 29.9697 3.12044 0
    endloop
  endfacet
  facet normal 0.881444 0.351176 -0.315803
    outer loop
      vertex 30.5675 3.77823 2.4
      vertex 29.9697 3.12044 0
      vertex 29.8094 3.52279 0
    endloop
  endfacet
  facet normal 0.914237 0.253848 -0.315803
    outer loop
      vertex 30.4748 4.11209 2.4
      vertex 30.5675 3.77823 2.4
      vertex 29.8094 3.52279 0
    endloop
  endfacet
  facet normal 0.914222 0.253896 -0.31581
    outer loop
      vertex 30.4748 4.11209 2.4
      vertex 29.8094 3.52279 0
      vertex 29.6935 3.94012 0
    endloop
  endfacet
  facet normal 0.936348 0.153352 -0.315809
    outer loop
      vertex 30.4188 4.45402 2.4
      vertex 30.4748 4.11209 2.4
      vertex 29.6935 3.94012 0
    endloop
  endfacet
  facet normal 0.936302 0.153568 -0.315841
    outer loop
      vertex 30.4188 4.45402 2.4
      vertex 29.6935 3.94012 0
      vertex 29.6234 4.36752 0
    endloop
  endfacet
  facet normal 0.947413 0.0514809 -0.315844
    outer loop
      vertex 30.4 4.8 2.4
      vertex 30.4188 4.45402 2.4
      vertex 29.6234 4.36752 0
    endloop
  endfacet
  facet normal 0.947436 0.0512625 -0.315812
    outer loop
      vertex 30.4 4.8 2.4
      vertex 29.6234 4.36752 0
      vertex 29.6 4.8 0
    endloop
  endfacet
  facet normal 0.947425 -0.0514816 -0.315808
    outer loop
      vertex 30.4188 5.14598 2.4
      vertex 30.4 4.8 2.4
      vertex 29.6 4.8 0
    endloop
  endfacet
  facet normal 0.947427 -0.0512632 -0.31584
    outer loop
      vertex 29.6234 5.23247 0
      vertex 30.4188 5.14598 2.4
      vertex 29.6 4.8 0
    endloop
  endfacet
  facet normal 0.936337 -0.15335 -0.315844
    outer loop
      vertex 30.4748 5.48791 2.4
      vertex 30.4188 5.14598 2.4
      vertex 29.6234 5.23247 0
    endloop
  endfacet
  facet normal 0.936312 -0.153566 -0.315812
    outer loop
      vertex 29.6935 5.65988 0
      vertex 30.4748 5.48791 2.4
      vertex 29.6234 5.23247 0
    endloop
  endfacet
  facet normal 0.914233 -0.253855 -0.315811
    outer loop
      vertex 30.5675 5.82176 2.4
      vertex 30.4748 5.48791 2.4
      vertex 29.6935 5.65988 0
    endloop
  endfacet
  facet normal 0.914223 -0.253896 -0.315804
    outer loop
      vertex 29.8094 6.07721 0
      vertex 30.5675 5.82176 2.4
      vertex 29.6935 5.65988 0
    endloop
  endfacet
  facet normal 0.881392 -0.351308 -0.315802
    outer loop
      vertex 30.6958 6.14365 2.4
      vertex 30.5675 5.82176 2.4
      vertex 29.8094 6.07721 0
    endloop
  endfacet
  facet normal 0.881438 -0.351173 -0.315823
    outer loop
      vertex 29.9697 6.47956 0
      vertex 30.6958 6.14365 2.4
      vertex 29.8094 6.07721 0
    endloop
  endfacet
  facet normal 0.838286 -0.444446 -0.315822
    outer loop
      vertex 30.8581 6.44977 2.4
      vertex 30.6958 6.14365 2.4
      vertex 29.9697 6.47956 0
    endloop
  endfacet
  facet normal 0.838266 -0.44449 -0.315815
    outer loop
      vertex 30.1726 6.86221 0
      vertex 30.8581 6.44977 2.4
      vertex 29.9697 6.47956 0
    endloop
  endfacet
  facet normal 0.78539 -0.532375 -0.315816
    outer loop
      vertex 31.0525 6.73656 2.4
      vertex 30.8581 6.44977 2.4
      vertex 30.1726 6.86221 0
    endloop
  endfacet
  facet normal 0.785392 -0.532372 -0.315816
    outer loop
      vertex 30.4156 7.2207 0
      vertex 31.0525 6.73656 2.4
      vertex 30.1726 6.86221 0
    endloop
  endfacet
  facet normal 0.72317 -0.614235 -0.315818
    outer loop
      vertex 31.2768 7.00064 2.4
      vertex 31.0525 6.73656 2.4
      vertex 30.4156 7.2207 0
    endloop
  endfacet
  facet normal 0.723145 -0.614268 -0.315812
    outer loop
      vertex 30.696 7.5508 0
      vertex 31.2768 7.00064 2.4
      vertex 30.4156 7.2207 0
    endloop
  endfacet
  facet normal 0.652435 -0.688907 -0.31581
    outer loop
      vertex 31.5284 7.23892 2.4
      vertex 31.2768 7.00064 2.4
      vertex 30.696 7.5508 0
    endloop
  endfacet
  facet normal 0.652435 -0.688907 -0.31581
    outer loop
      vertex 31.0105 7.84865 0
      vertex 31.5284 7.23892 2.4
      vertex 30.696 7.5508 0
    endloop
  endfacet
  facet normal 0.574242 -0.755322 -0.315809
    outer loop
      vertex 31.8042 7.4486 2.4
      vertex 31.5284 7.23892 2.4
      vertex 31.0105 7.84865 0
    endloop
  endfacet
  facet normal 0.574191 -0.755364 -0.3158
    outer loop
      vertex 31.3553 8.11075 0
      vertex 31.8042 7.4486 2.4
      vertex 31.0105 7.84865 0
    endloop
  endfacet
  facet normal 0.489173 -0.813006 -0.315801
    outer loop
      vertex 32.1011 7.62724 2.4
      vertex 31.8042 7.4486 2.4
      vertex 31.3553 8.11075 0
    endloop
  endfacet
  facet normal 0.489197 -0.812991 -0.315805
    outer loop
      vertex 31.7264 8.33405 0
      vertex 32.1011 7.62724 2.4
      vertex 31.3553 8.11075 0
    endloop
  endfacet
  facet normal 0.398371 -0.861143 -0.315806
    outer loop
      vertex 32.4156 7.77273 2.4
      vertex 32.1011 7.62724 2.4
      vertex 31.7264 8.33405 0
    endloop
  endfacet
  facet normal 0.398469 -0.861092 -0.315822
    outer loop
      vertex 32.1194 8.51591 0
      vertex 32.4156 7.77273 2.4
      vertex 31.7264 8.33405 0
    endloop
  endfacet
  facet normal 0.302991 -0.899141 -0.315821
    outer loop
      vertex 32.7439 7.88336 2.4
      vertex 32.4156 7.77273 2.4
      vertex 32.1194 8.51591 0
    endloop
  endfacet
  facet normal 0.302914 -0.899171 -0.315808
    outer loop
      vertex 32.5299 8.6542 0
      vertex 32.7439 7.88336 2.4
      vertex 32.1194 8.51591 0
    endloop
  endfacet
  facet normal 0.203949 -0.926644 -0.315808
    outer loop
      vertex 33.0823 7.95784 2.4
      vertex 32.7439 7.88336 2.4
      vertex 32.5299 8.6542 0
    endloop
  endfacet
  facet normal 0.20397 -0.926639 -0.315811
    outer loop
      vertex 32.9529 8.74731 0
      vertex 33.0823 7.95784 2.4
      vertex 32.5299 8.6542 0
    endloop
  endfacet
  facet normal 0.102595 -0.943259 -0.315813
    outer loop
      vertex 33.4268 7.99531 2.4
      vertex 33.0823 7.95784 2.4
      vertex 32.9529 8.74731 0
    endloop
  endfacet
  facet normal 0.102586 -0.94326 -0.315811
    outer loop
      vertex 33.3834 8.79413 0
      vertex 33.4268 7.99531 2.4
      vertex 32.9529 8.74731 0
    endloop
  endfacet
  facet normal 0 -0.948823 -0.315808
    outer loop
      vertex 33.3834 8.79413 0
      vertex 33.7732 7.99531 2.4
      vertex 33.4268 7.99531 2.4
    endloop
  endfacet
  facet normal 0 -0.948823 -0.315808
    outer loop
      vertex 33.7732 7.99531 2.4
      vertex 33.3834 8.79413 0
      vertex 33.8166 8.79413 0
    endloop
  endfacet
  facet normal -0.102595 -0.943259 -0.315811
    outer loop
      vertex 33.8166 8.79413 0
      vertex 34.1177 7.95784 2.4
      vertex 33.7732 7.99531 2.4
    endloop
  endfacet
  facet normal -0.102586 -0.94326 -0.315812
    outer loop
      vertex 34.2471 8.74731 0
      vertex 34.1177 7.95784 2.4
      vertex 33.8166 8.79413 0
    endloop
  endfacet
  facet normal -0.203949 -0.926643 -0.315812
    outer loop
      vertex 34.2471 8.74731 0
      vertex 34.4561 7.88336 2.4
      vertex 34.1177 7.95784 2.4
    endloop
  endfacet
  facet normal -0.20397 -0.92664 -0.315809
    outer loop
      vertex 34.6701 8.6542 0
      vertex 34.4561 7.88336 2.4
      vertex 34.2471 8.74731 0
    endloop
  endfacet
  facet normal -0.302992 -0.899145 -0.315807
    outer loop
      vertex 34.6701 8.6542 0
      vertex 34.7844 7.77273 2.4
      vertex 34.4561 7.88336 2.4
    endloop
  endfacet
  facet normal -0.302913 -0.899167 -0.315819
    outer loop
      vertex 35.0806 8.51591 0
      vertex 34.7844 7.77273 2.4
      vertex 34.6701 8.6542 0
    endloop
  endfacet
  facet normal -0.398369 -0.861138 -0.315824
    outer loop
      vertex 35.0806 8.51591 0
      vertex 35.0989 7.62724 2.4
      vertex 34.7844 7.77273 2.4
    endloop
  endfacet
  facet normal -0.398471 -0.861096 -0.315808
    outer loop
      vertex 35.4736 8.33405 0
      vertex 35.0989 7.62724 2.4
      vertex 35.0806 8.51591 0
    endloop
  endfacet
  facet normal -0.489172 -0.813005 -0.315805
    outer loop
      vertex 35.4736 8.33405 0
      vertex 35.3958 7.4486 2.4
      vertex 35.0989 7.62724 2.4
    endloop
  endfacet
  facet normal -0.489197 -0.812992 -0.315801
    outer loop
      vertex 35.4736 8.33405 0
      vertex 35.8447 8.11075 0
      vertex 35.3958 7.4486 2.4
    endloop
  endfacet
  facet normal -0.574244 -0.755325 -0.315798
    outer loop
      vertex 35.8447 8.11075 0
      vertex 35.6716 7.23892 2.4
      vertex 35.3958 7.4486 2.4
    endloop
  endfacet
  facet normal -0.574189 -0.755362 -0.315808
    outer loop
      vertex 35.8447 8.11075 0
      vertex 36.1895 7.84865 0
      vertex 35.6716 7.23892 2.4
    endloop
  endfacet
  facet normal -0.652435 -0.688907 -0.31581
    outer loop
      vertex 36.1895 7.84865 0
      vertex 35.9232 7.00064 2.4
      vertex 35.6716 7.23892 2.4
    endloop
  endfacet
  facet normal -0.652435 -0.688907 -0.31581
    outer loop
      vertex 36.1895 7.84865 0
      vertex 36.504 7.5508 0
      vertex 35.9232 7.00064 2.4
    endloop
  endfacet
  facet normal -0.723145 -0.614268 -0.315812
    outer loop
      vertex 36.7844 7.2207 0
      vertex 35.9232 7.00064 2.4
      vertex 36.504 7.5508 0
    endloop
  endfacet
  facet normal -0.72317 -0.614235 -0.315818
    outer loop
      vertex 35.9232 7.00064 2.4
      vertex 36.7844 7.2207 0
      vertex 36.1475 6.73656 2.4
    endloop
  endfacet
  facet normal -0.78539 -0.532375 -0.315816
    outer loop
      vertex 36.7844 7.2207 0
      vertex 36.3419 6.44977 2.4
      vertex 36.1475 6.73656 2.4
    endloop
  endfacet
  facet normal -0.785392 -0.532372 -0.315816
    outer loop
      vertex 36.7844 7.2207 0
      vertex 37.0274 6.86221 0
      vertex 36.3419 6.44977 2.4
    endloop
  endfacet
  facet normal -0.838289 -0.444447 -0.315814
    outer loop
      vertex 37.0274 6.86221 0
      vertex 36.5042 6.14365 2.4
      vertex 36.3419 6.44977 2.4
    endloop
  endfacet
  facet normal -0.838264 -0.444489 -0.315822
    outer loop
      vertex 37.0274 6.86221 0
      vertex 37.2303 6.47956 0
      vertex 36.5042 6.14365 2.4
    endloop
  endfacet
  facet normal -0.881385 -0.351305 -0.315825
    outer loop
      vertex 37.2303 6.47956 0
      vertex 36.6325 5.82176 2.4
      vertex 36.5042 6.14365 2.4
    endloop
  endfacet
  facet normal -0.881444 -0.351175 -0.315804
    outer loop
      vertex 37.2303 6.47956 0
      vertex 37.3906 6.07721 0
      vertex 36.6325 5.82176 2.4
    endloop
  endfacet
  facet normal -0.914235 -0.253855 -0.315804
    outer loop
      vertex 37.3906 6.07721 0
      vertex 36.7252 5.48791 2.4
      vertex 36.6325 5.82176 2.4
    endloop
  endfacet
  facet normal -0.914222 -0.253896 -0.31581
    outer loop
      vertex 37.3906 6.07721 0
      vertex 37.5065 5.65988 0
      vertex 36.7252 5.48791 2.4
    endloop
  endfacet
  facet normal -0.936348 -0.153352 -0.315809
    outer loop
      vertex 37.5065 5.65988 0
      vertex 36.7812 5.14598 2.4
      vertex 36.7252 5.48791 2.4
    endloop
  endfacet
  facet normal -0.936303 -0.153564 -0.31584
    outer loop
      vertex 37.5065 5.65988 0
      vertex 37.5766 5.23247 0
      vertex 36.7812 5.14598 2.4
    endloop
  endfacet
  facet normal -0.947414 -0.0514809 -0.315844
    outer loop
      vertex 37.5766 5.23247 0
      vertex 36.8 4.8 2.4
      vertex 36.7812 5.14598 2.4
    endloop
  endfacet
  facet normal -0.947436 -0.0512637 -0.315812
    outer loop
      vertex 37.5766 5.23247 0
      vertex 37.6 4.8 0
      vertex 36.8 4.8 2.4
    endloop
  endfacet
  facet normal -0.947425 0.0514816 -0.315808
    outer loop
      vertex 36.8 4.8 2.4
      vertex 37.6 4.8 0
      vertex 36.7812 4.45402 2.4
    endloop
  endfacet
  facet normal -0.947427 0.051262 -0.315841
    outer loop
      vertex 37.6 4.8 0
      vertex 37.5766 4.36752 0
      vertex 36.7812 4.45402 2.4
    endloop
  endfacet
  facet normal 0 -1 0
    outer loop
      vertex 0 0 0
      vertex 38.4 0 2.4
      vertex 0 0 2.4
    endloop
  endfacet
  facet normal 0 -1 -0
    outer loop
      vertex 38.4 0 2.4
      vertex 0 0 0
      vertex 38.4 0 0
    endloop
  endfacet
  facet normal 1 -0 0
    outer loop
      vertex 38.4 0 2.4
      vertex 38.4 19.2 0
      vertex 38.4 19.2 2.4
    endloop
  endfacet
  facet normal 1 0 0
    outer loop
      vertex 38.4 19.2 0
      vertex 38.4 0 2.4
      vertex 38.4 0 0
    endloop
  endfacet
  facet normal 0 1 -0
    outer loop
      vertex 38.4 19.2 0
      vertex 28.8 19.2 2.4
      vertex 38.4 19.2 2.4
    endloop
  endfacet
  facet normal 0 1 0
    outer loop
      vertex 28.8 19.2 2.4
      vertex 38.4 19.2 0
      vertex 28.8 19.2 0
    endloop
  endfacet
  facet normal -0.936334 0.153363 -0.315844
    outer loop
      vertex 36.7812 14.054 2.4
      vertex 37.5766 13.9675 0
      vertex 36.7252 13.7121 2.4
    endloop
  endfacet
  facet normal -0.936311 0.153569 -0.315814
    outer loop
      vertex 37.5766 13.9675 0
      vertex 37.5065 13.5401 0
      vertex 36.7252 13.7121 2.4
    endloop
  endfacet
  facet normal -0.914241 0.253819 -0.315814
    outer loop
      vertex 36.7252 13.7121 2.4
      vertex 37.5065 13.5401 0
      vertex 36.6325 13.3782 2.4
    endloop
  endfacet
  facet normal -0.91422 0.253914 -0.3158
    outer loop
      vertex 37.5065 13.5401 0
      vertex 37.3906 13.1228 0
      vertex 36.6325 13.3782 2.4
    endloop
  endfacet
  facet normal -0.881361 0.351394 -0.315794
    outer loop
      vertex 36.6325 13.3782 2.4
      vertex 37.3906 13.1228 0
      vertex 36.5042 13.0564 2.4
    endloop
  endfacet
  facet normal -0.88145 0.351134 -0.315834
    outer loop
      vertex 37.3906 13.1228 0
      vertex 37.2303 12.7204 0
      vertex 36.5042 13.0564 2.4
    endloop
  endfacet
  facet normal -0.838329 0.444353 -0.315839
    outer loop
      vertex 36.5042 13.0564 2.4
      vertex 37.2303 12.7204 0
      vertex 36.3419 12.7502 2.4
    endloop
  endfacet
  facet normal -0.838243 0.444536 -0.315809
    outer loop
      vertex 37.2303 12.7204 0
      vertex 37.0274 12.3378 0
      vertex 36.3419 12.7502 2.4
    endloop
  endfacet
  facet normal -0.785401 0.532364 -0.315808
    outer loop
      vertex 36.3419 12.7502 2.4
      vertex 37.0274 12.3378 0
      vertex 36.1475 12.4634 2.4
    endloop
  endfacet
  facet normal -0.785401 0.532364 -0.315808
    outer loop
      vertex 37.0274 12.3378 0
      vertex 36.7844 11.9793 0
      vertex 36.1475 12.4634 2.4
    endloop
  endfacet
  facet normal -0.723081 0.614345 -0.315806
    outer loop
      vertex 36.1475 12.4634 2.4
      vertex 36.7844 11.9793 0
      vertex 35.9232 12.1994 2.4
    endloop
  endfacet
  facet normal -0.723142 0.614266 -0.315821
    outer loop
      vertex 36.7844 11.9793 0
      vertex 36.504 11.6492 0
      vertex 35.9232 12.1994 2.4
    endloop
  endfacet
  facet normal -0.652462 0.688877 -0.315821
    outer loop
      vertex 35.9232 12.1994 2.4
      vertex 36.504 11.6492 0
      vertex 35.6716 11.9611 2.4
    endloop
  endfacet
  facet normal -0.652379 0.688963 -0.315803
    outer loop
      vertex 36.504 11.6492 0
      vertex 36.1895 11.3514 0
      vertex 35.6716 11.9611 2.4
    endloop
  endfacet
  facet normal -0.574278 0.755297 -0.315801
    outer loop
      vertex 35.6716 11.9611 2.4
      vertex 36.1895 11.3514 0
      vertex 35.3958 11.7514 2.4
    endloop
  endfacet
  facet normal -0.574327 0.755256 -0.315811
    outer loop
      vertex 36.1895 11.3514 0
      vertex 35.8447 11.0892 0
      vertex 35.3958 11.7514 2.4
    endloop
  endfacet
  facet normal -0.48909 0.813051 -0.315815
    outer loop
      vertex 35.3958 11.7514 2.4
      vertex 35.8447 11.0892 0
      vertex 35.0989 11.5728 2.4
    endloop
  endfacet
  facet normal -0.489036 0.813088 -0.315805
    outer loop
      vertex 35.8447 11.0892 0
      vertex 35.4736 10.866 0
      vertex 35.0989 11.5728 2.4
    endloop
  endfacet
  facet normal -0.398394 0.861133 -0.315803
    outer loop
      vertex 35.0989 11.5728 2.4
      vertex 35.4736 10.866 0
      vertex 34.7844 11.4273 2.4
    endloop
  endfacet
  facet normal -0.39854 0.861057 -0.315827
    outer loop
      vertex 35.4736 10.866 0
      vertex 35.0806 10.6841 0
      vertex 34.7844 11.4273 2.4
    endloop
  endfacet
  facet normal -0.303162 0.89908 -0.31583
    outer loop
      vertex 34.7844 11.4273 2.4
      vertex 35.0806 10.6841 0
      vertex 34.4561 11.3166 2.4
    endloop
  endfacet
  facet normal -0.302935 0.899168 -0.315795
    outer loop
      vertex 35.0806 10.6841 0
      vertex 34.6701 10.5458 0
      vertex 34.4561 11.3166 2.4
    endloop
  endfacet
  facet normal -0.203742 0.926696 -0.315791
    outer loop
      vertex 34.4561 11.3166 2.4
      vertex 34.6701 10.5458 0
      vertex 34.1177 11.2422 2.4
    endloop
  endfacet
  facet normal -0.203948 0.92664 -0.315822
    outer loop
      vertex 34.6701 10.5458 0
      vertex 34.2471 10.4527 0
      vertex 34.1177 11.2422 2.4
    endloop
  endfacet
  facet normal -0.102676 0.943246 -0.315824
    outer loop
      vertex 34.1177 11.2422 2.4
      vertex 34.2471 10.4527 0
      vertex 33.7732 11.2047 2.4
    endloop
  endfacet
  facet normal -0.102543 0.943267 -0.315805
    outer loop
      vertex 34.2471 10.4527 0
      vertex 33.8166 10.4059 0
      vertex 33.7732 11.2047 2.4
    endloop
  endfacet
  facet normal 0 0.948826 -0.315801
    outer loop
      vertex 33.8166 10.4059 0
      vertex 33.4268 11.2047 2.4
      vertex 33.7732 11.2047 2.4
    endloop
  endfacet
  facet normal 0 0.948826 -0.315801
    outer loop
      vertex 33.4268 11.2047 2.4
      vertex 33.8166 10.4059 0
      vertex 33.3834 10.4059 0
    endloop
  endfacet
  facet normal 0.102676 0.943253 -0.315803
    outer loop
      vertex 33.4268 11.2047 2.4
      vertex 33.3834 10.4059 0
      vertex 33.0823 11.2422 2.4
    endloop
  endfacet
  facet normal 0.102543 0.943261 -0.315822
    outer loop
      vertex 33.0823 11.2422 2.4
      vertex 33.3834 10.4059 0
      vertex 32.9529 10.4527 0
    endloop
  endfacet
  facet normal 0.203739 0.926685 -0.315826
    outer loop
      vertex 33.0823 11.2422 2.4
      vertex 32.9529 10.4527 0
      vertex 32.7439 11.3166 2.4
    endloop
  endfacet
  facet normal 0.20395 0.926649 -0.315794
    outer loop
      vertex 32.7439 11.3166 2.4
      vertex 32.9529 10.4527 0
      vertex 32.5299 10.5458 0
    endloop
  endfacet
  facet normal 0.303166 0.899092 -0.315791
    outer loop
      vertex 32.7439 11.3166 2.4
      vertex 32.5299 10.5458 0
      vertex 32.4156 11.4273 2.4
    endloop
  endfacet
  facet normal 0.302932 0.899158 -0.315826
    outer loop
      vertex 32.4156 11.4273 2.4
      vertex 32.5299 10.5458 0
      vertex 32.1194 10.6841 0
    endloop
  endfacet
  facet normal 0.39839 0.861125 -0.31583
    outer loop
      vertex 32.4156 11.4273 2.4
      vertex 32.1194 10.6841 0
      vertex 32.1011 11.5728 2.4
    endloop
  endfacet
  facet normal 0.398543 0.861063 -0.315806
    outer loop
      vertex 32.1011 11.5728 2.4
      vertex 32.1194 10.6841 0
      vertex 31.7264 10.866 0
    endloop
  endfacet
  facet normal 0.489092 0.813054 -0.315804
    outer loop
      vertex 31.8042 11.7514 2.4
      vertex 32.1011 11.5728 2.4
      vertex 31.7264 10.866 0
    endloop
  endfacet
  facet normal 0.489034 0.813085 -0.315814
    outer loop
      vertex 31.8042 11.7514 2.4
      vertex 31.7264 10.866 0
      vertex 31.3553 11.0892 0
    endloop
  endfacet
  facet normal 0.574276 0.755295 -0.315812
    outer loop
      vertex 31.5284 11.9611 2.4
      vertex 31.8042 11.7514 2.4
      vertex 31.3553 11.0892 0
    endloop
  endfacet
  facet normal 0.574329 0.755258 -0.315802
    outer loop
      vertex 31.5284 11.9611 2.4
      vertex 31.3553 11.0892 0
      vertex 31.0105 11.3514 0
    endloop
  endfacet
  facet normal 0.652466 0.688881 -0.315801
    outer loop
      vertex 31.2768 12.1994 2.4
      vertex 31.5284 11.9611 2.4
      vertex 31.0105 11.3514 0
    endloop
  endfacet
  facet normal 0.652375 0.688959 -0.315819
    outer loop
      vertex 31.2768 12.1994 2.4
      vertex 31.0105 11.3514 0
      vertex 30.696 11.6492 0
    endloop
  endfacet
  facet normal 0.723077 0.614342 -0.315822
    outer loop
      vertex 31.0525 12.4634 2.4
      vertex 31.2768 12.1994 2.4
      vertex 30.696 11.6492 0
    endloop
  endfacet
  facet normal 0.723146 0.614269 -0.315808
    outer loop
      vertex 31.0525 12.4634 2.4
      vertex 30.696 11.6492 0
      vertex 30.4156 11.9793 0
    endloop
  endfacet
  facet normal 0.785401 0.532364 -0.315808
    outer loop
      vertex 30.8581 12.7502 2.4
      vertex 31.0525 12.4634 2.4
      vertex 30.4156 11.9793 0
    endloop
  endfacet
  facet normal 0.785401 0.532364 -0.315808
    outer loop
      vertex 30.8581 12.7502 2.4
      vertex 30.4156 11.9793 0
      vertex 30.1726 12.3378 0
    endloop
  endfacet
  facet normal 0.838339 0.444358 -0.315806
    outer loop
      vertex 30.6958 13.0564 2.4
      vertex 30.8581 12.7502 2.4
      vertex 30.1726 12.3378 0
    endloop
  endfacet
  facet normal 0.838236 0.444532 -0.315836
    outer loop
      vertex 30.6958 13.0564 2.4
      vertex 30.1726 12.3378 0
      vertex 29.9697 12.7204 0
    endloop
  endfacet
  facet normal 0.881347 0.351388 -0.315839
    outer loop
      vertex 30.5675 13.3782 2.4
      vertex 30.6958 13.0564 2.4
      vertex 29.9697 12.7204 0
    endloop
  endfacet
  facet normal 0.881461 0.351139 -0.315798
    outer loop
      vertex 30.5675 13.3782 2.4
      vertex 29.9697 12.7204 0
      vertex 29.8094 13.1228 0
    endloop
  endfacet
  facet normal 0.914246 0.25382 -0.315798
    outer loop
      vertex 30.4748 13.7121 2.4
      vertex 30.5675 13.3782 2.4
      vertex 29.8094 13.1228 0
    endloop
  endfacet
  facet normal 0.914216 0.253912 -0.315812
    outer loop
      vertex 30.4748 13.7121 2.4
      vertex 29.8094 13.1228 0
      vertex 29.6935 13.5401 0
    endloop
  endfacet
  facet normal 0.936346 0.153365 -0.315811
    outer loop
      vertex 30.4188 14.054 2.4
      vertex 30.4748 13.7121 2.4
      vertex 29.6935 13.5401 0
    endloop
  endfacet
  facet normal 0.936302 0.153568 -0.315841
    outer loop
      vertex 30.4188 14.054 2.4
      vertex 29.6935 13.5401 0
      vertex 29.6234 13.9675 0
    endloop
  endfacet
  facet normal 0.947414 0.051478 -0.315844
    outer loop
      vertex 30.4 14.4 2.4
      vertex 30.4188 14.054 2.4
      vertex 29.6234 13.9675 0
    endloop
  endfacet
  facet normal 0.947436 0.0512601 -0.315812
    outer loop
      vertex 30.4 14.4 2.4
      vertex 29.6234 13.9675 0
      vertex 29.6 14.4 0
    endloop
  endfacet
  facet normal 0.947425 -0.0514786 -0.315808
    outer loop
      vertex 30.4188 14.746 2.4
      vertex 30.4 14.4 2.4
      vertex 29.6 14.4 0
    endloop
  endfacet
  facet normal 0.947427 -0.0512596 -0.31584
    outer loop
      vertex 29.6234 14.8325 0
      vertex 30.4188 14.746 2.4
      vertex 29.6 14.4 0
    endloop
  endfacet
  facet normal 0.936334 -0.153363 -0.315844
    outer loop
      vertex 30.4748 15.0879 2.4
      vertex 30.4188 14.746 2.4
      vertex 29.6234 14.8325 0
    endloop
  endfacet
  facet normal 0.936311 -0.153569 -0.315814
    outer loop
      vertex 29.6935 15.2599 0
      vertex 30.4748 15.0879 2.4
      vertex 29.6234 14.8325 0
    endloop
  endfacet
  facet normal 0.914241 -0.253819 -0.315814
    outer loop
      vertex 30.5675 15.4218 2.4
      vertex 30.4748 15.0879 2.4
      vertex 29.6935 15.2599 0
    endloop
  endfacet
  facet normal 0.91422 -0.253914 -0.3158
    outer loop
      vertex 29.8094 15.6772 0
      vertex 30.5675 15.4218 2.4
      vertex 29.6935 15.2599 0
    endloop
  endfacet
  facet normal 0.881361 -0.351394 -0.315794
    outer loop
      vertex 30.6958 15.7436 2.4
      vertex 30.5675 15.4218 2.4
      vertex 29.8094 15.6772 0
    endloop
  endfacet
  facet normal 0.88145 -0.351134 -0.315834
    outer loop
      vertex 29.9697 16.0796 0
      vertex 30.6958 15.7436 2.4
      vertex 29.8094 15.6772 0
    endloop
  endfacet
  facet normal 0.838329 -0.444353 -0.315839
    outer loop
      vertex 30.8581 16.0498 2.4
      vertex 30.6958 15.7436 2.4
      vertex 29.9697 16.0796 0
    endloop
  endfacet
  facet normal 0.838243 -0.444536 -0.315809
    outer loop
      vertex 30.1726 16.4622 0
      vertex 30.8581 16.0498 2.4
      vertex 29.9697 16.0796 0
    endloop
  endfacet
  facet normal 0.785401 -0.532364 -0.315808
    outer loop
      vertex 31.0525 16.3366 2.4
      vertex 30.8581 16.0498 2.4
      vertex 30.1726 16.4622 0
    endloop
  endfacet
  facet normal 0.785401 -0.532364 -0.315808
    outer loop
      vertex 30.4156 16.8207 0
      vertex 31.0525 16.3366 2.4
      vertex 30.1726 16.4622 0
    endloop
  endfacet
  facet normal 0.723081 -0.614345 -0.315806
    outer loop
      vertex 31.2768 16.6006 2.4
      vertex 31.0525 16.3366 2.4
      vertex 30.4156 16.8207 0
    endloop
  endfacet
  facet normal 0.723142 -0.614266 -0.315821
    outer loop
      vertex 30.696 17.1508 0
      vertex 31.2768 16.6006 2.4
      vertex 30.4156 16.8207 0
    endloop
  endfacet
  facet normal 0.652462 -0.688877 -0.315821
    outer loop
      vertex 31.5284 16.8389 2.4
      vertex 31.2768 16.6006 2.4
      vertex 30.696 17.1508 0
    endloop
  endfacet
  facet normal 0.652379 -0.688963 -0.315803
    outer loop
      vertex 31.0105 17.4486 0
      vertex 31.5284 16.8389 2.4
      vertex 30.696 17.1508 0
    endloop
  endfacet
  facet normal 0.574278 -0.755297 -0.315801
    outer loop
      vertex 31.8042 17.0486 2.4
      vertex 31.5284 16.8389 2.4
      vertex 31.0105 17.4486 0
    endloop
  endfacet
  facet normal 0.574327 -0.755256 -0.315811
    outer loop
      vertex 31.3553 17.7108 0
      vertex 31.8042 17.0486 2.4
      vertex 31.0105 17.4486 0
    endloop
  endfacet
  facet normal 0.48909 -0.813051 -0.315815
    outer loop
      vertex 32.1011 17.2272 2.4
      vertex 31.8042 17.0486 2.4
      vertex 31.3553 17.7108 0
    endloop
  endfacet
  facet normal 0.489036 -0.813088 -0.315805
    outer loop
      vertex 31.7264 17.934 0
      vertex 32.1011 17.2272 2.4
      vertex 31.3553 17.7108 0
    endloop
  endfacet
  facet normal 0.398394 -0.861133 -0.315803
    outer loop
      vertex 32.4156 17.3727 2.4
      vertex 32.1011 17.2272 2.4
      vertex 31.7264 17.934 0
    endloop
  endfacet
  facet normal 0.39854 -0.861057 -0.315827
    outer loop
      vertex 32.1194 18.1159 0
      vertex 32.4156 17.3727 2.4
      vertex 31.7264 17.934 0
    endloop
  endfacet
  facet normal 0.303162 -0.89908 -0.31583
    outer loop
      vertex 32.7439 17.4834 2.4
      vertex 32.4156 17.3727 2.4
      vertex 32.1194 18.1159 0
    endloop
  endfacet
  facet normal 0.302935 -0.899168 -0.315795
    outer loop
      vertex 32.5299 18.2542 0
      vertex 32.7439 17.4834 2.4
      vertex 32.1194 18.1159 0
    endloop
  endfacet
  facet normal 0.203742 -0.926696 -0.315791
    outer loop
      vertex 33.0823 17.5578 2.4
      vertex 32.7439 17.4834 2.4
      vertex 32.5299 18.2542 0
    endloop
  endfacet
  facet normal 0.203948 -0.92664 -0.315822
    outer loop
      vertex 32.9529 18.3473 0
      vertex 33.0823 17.5578 2.4
      vertex 32.5299 18.2542 0
    endloop
  endfacet
  facet normal 0.102676 -0.943246 -0.315824
    outer loop
      vertex 33.4268 17.5953 2.4
      vertex 33.0823 17.5578 2.4
      vertex 32.9529 18.3473 0
    endloop
  endfacet
  facet normal 0.102543 -0.943267 -0.315805
    outer loop
      vertex 33.3834 18.3941 0
      vertex 33.4268 17.5953 2.4
      vertex 32.9529 18.3473 0
    endloop
  endfacet
  facet normal 0 -0.948826 -0.315801
    outer loop
      vertex 33.3834 18.3941 0
      vertex 33.7732 17.5953 2.4
      vertex 33.4268 17.5953 2.4
    endloop
  endfacet
  facet normal 0 -0.948826 -0.315801
    outer loop
      vertex 33.7732 17.5953 2.4
      vertex 33.3834 18.3941 0
      vertex 33.8166 18.3941 0
    endloop
  endfacet
  facet normal -0.102676 -0.943253 -0.315803
    outer loop
      vertex 33.8166 18.3941 0
      vertex 34.1177 17.5578 2.4
      vertex 33.7732 17.5953 2.4
    endloop
  endfacet
  facet normal -0.102543 -0.943261 -0.315822
    outer loop
      vertex 34.2471 18.3473 0
      vertex 34.1177 17.5578 2.4
      vertex 33.8166 18.3941 0
    endloop
  endfacet
  facet normal -0.203739 -0.926685 -0.315826
    outer loop
      vertex 34.2471 18.3473 0
      vertex 34.4561 17.4834 2.4
      vertex 34.1177 17.5578 2.4
    endloop
  endfacet
  facet normal -0.20395 -0.926649 -0.315794
    outer loop
      vertex 34.6701 18.2542 0
      vertex 34.4561 17.4834 2.4
      vertex 34.2471 18.3473 0
    endloop
  endfacet
  facet normal -0.303166 -0.899092 -0.315791
    outer loop
      vertex 34.6701 18.2542 0
      vertex 34.7844 17.3727 2.4
      vertex 34.4561 17.4834 2.4
    endloop
  endfacet
  facet normal -0.302932 -0.899158 -0.315826
    outer loop
      vertex 35.0806 18.1159 0
      vertex 34.7844 17.3727 2.4
      vertex 34.6701 18.2542 0
    endloop
  endfacet
  facet normal -0.39839 -0.861125 -0.31583
    outer loop
      vertex 35.0806 18.1159 0
      vertex 35.0989 17.2272 2.4
      vertex 34.7844 17.3727 2.4
    endloop
  endfacet
  facet normal -0.398543 -0.861063 -0.315806
    outer loop
      vertex 35.4736 17.934 0
      vertex 35.0989 17.2272 2.4
      vertex 35.0806 18.1159 0
    endloop
  endfacet
  facet normal -0.489092 -0.813054 -0.315804
    outer loop
      vertex 35.4736 17.934 0
      vertex 35.3958 17.0486 2.4
      vertex 35.0989 17.2272 2.4
    endloop
  endfacet
  facet normal -0.489034 -0.813085 -0.315814
    outer loop
      vertex 35.4736 17.934 0
      vertex 35.8447 17.7108 0
      vertex 35.3958 17.0486 2.4
    endloop
  endfacet
  facet normal -0.574276 -0.755295 -0.315812
    outer loop
      vertex 35.8447 17.7108 0
      vertex 35.6716 16.8389 2.4
      vertex 35.3958 17.0486 2.4
    endloop
  endfacet
  facet normal -0.574329 -0.755258 -0.315802
    outer loop
      vertex 35.8447 17.7108 0
      vertex 36.1895 17.4486 0
      vertex 35.6716 16.8389 2.4
    endloop
  endfacet
  facet normal -0.652466 -0.688881 -0.315801
    outer loop
      vertex 36.1895 17.4486 0
      vertex 35.9232 16.6006 2.4
      vertex 35.6716 16.8389 2.4
    endloop
  endfacet
  facet normal -0.652375 -0.688959 -0.315819
    outer loop
      vertex 36.1895 17.4486 0
      vertex 36.504 17.1508 0
      vertex 35.9232 16.6006 2.4
    endloop
  endfacet
  facet normal -0.723142 -0.614266 -0.315821
    outer loop
      vertex 36.7844 16.8207 0
      vertex 35.9232 16.6006 2.4
      vertex 36.504 17.1508 0
    endloop
  endfacet
  facet normal -0.723081 -0.614345 -0.315806
    outer loop
      vertex 35.9232 16.6006 2.4
      vertex 36.7844 16.8207 0
      vertex 36.1475 16.3366 2.4
    endloop
  endfacet
  facet normal -0.785401 -0.532364 -0.315808
    outer loop
      vertex 36.7844 16.8207 0
      vertex 36.3419 16.0498 2.4
      vertex 36.1475 16.3366 2.4
    endloop
  endfacet
  facet normal -0.785401 -0.532364 -0.315808
    outer loop
      vertex 36.7844 16.8207 0
      vertex 37.0274 16.4622 0
      vertex 36.3419 16.0498 2.4
    endloop
  endfacet
  facet normal -0.838339 -0.444358 -0.315806
    outer loop
      vertex 37.0274 16.4622 0
      vertex 36.5042 15.7436 2.4
      vertex 36.3419 16.0498 2.4
    endloop
  endfacet
  facet normal -0.838236 -0.444532 -0.315836
    outer loop
      vertex 37.0274 16.4622 0
      vertex 37.2303 16.0796 0
      vertex 36.5042 15.7436 2.4
    endloop
  endfacet
  facet normal -0.881347 -0.351388 -0.315839
    outer loop
      vertex 37.2303 16.0796 0
      vertex 36.6325 15.4218 2.4
      vertex 36.5042 15.7436 2.4
    endloop
  endfacet
  facet normal -0.881461 -0.351139 -0.315798
    outer loop
      vertex 37.2303 16.0796 0
      vertex 37.3906 15.6772 0
      vertex 36.6325 15.4218 2.4
    endloop
  endfacet
  facet normal -0.914246 -0.25382 -0.315798
    outer loop
      vertex 37.3906 15.6772 0
      vertex 36.7252 15.0879 2.4
      vertex 36.6325 15.4218 2.4
    endloop
  endfacet
  facet normal -0.914216 -0.253912 -0.315812
    outer loop
      vertex 37.3906 15.6772 0
      vertex 37.5065 15.2599 0
      vertex 36.7252 15.0879 2.4
    endloop
  endfacet
  facet normal -0.936346 -0.153365 -0.315811
    outer loop
      vertex 37.5065 15.2599 0
      vertex 36.7812 14.746 2.4
      vertex 36.7252 15.0879 2.4
    endloop
  endfacet
  facet normal -0.936302 -0.153568 -0.315841
    outer loop
      vertex 37.5065 15.2599 0
      vertex 37.5766 14.8325 0
      vertex 36.7812 14.746 2.4
    endloop
  endfacet
  facet normal -0.947414 -0.051478 -0.315844
    outer loop
      vertex 37.5766 14.8325 0
      vertex 36.8 14.4 2.4
      vertex 36.7812 14.746 2.4
    endloop
  endfacet
  facet normal -0.947436 -0.0512601 -0.315812
    outer loop
      vertex 37.5766 14.8325 0
      vertex 37.6 14.4 0
      vertex 36.8 14.4 2.4
    endloop
  endfacet
  facet normal -0.947425 0.0514786 -0.315808
    outer loop
      vertex 36.8 14.4 2.4
      vertex 37.6 14.4 0
      vertex 36.7812 14.054 2.4
    endloop
  endfacet
  facet normal -0.947427 0.0512596 -0.31584
    outer loop
      vertex 37.6 14.4 0
      vertex 37.5766 13.9675 0
      vertex 36.7812 14.054 2.4
    endloop
  endfacet
  facet normal -0 0 1
    outer loop
      vertex 13.5 16.9 1
      vertex 24 2.3 1
      vertex 24 16.9 1
    endloop
  endfacet
  facet normal 0 0 1
    outer loop
      vertex 24 2.3 1
      vertex 13.5 16.9 1
      vertex 13.5 2.3 1
    endloop
  endfacet
  facet normal -1 0 0
    outer loop
      vertex 13.5 2.3 0
      vertex 13.5 16.9 1
      vertex 13.5 16.9 0
    endloop
  endfacet
  facet normal -1 -0 0
    outer loop
      vertex 13.5 16.9 1
      vertex 13.5 2.3 0
      vertex 13.5 2.3 1
    endloop
  endfacet
  facet normal 0 1 0
    outer loop
      vertex 13.5 2.3 1
      vertex 27.8 2.3 2.4
      vertex 24 2.3 1
    endloop
  endfacet
  facet normal 0 1 -0
    outer loop
      vertex 27.8 2.3 0
      vertex 24 2.3 1
      vertex 27.8 2.3 2.4
    endloop
  endfacet
  facet normal 0 1 0
    outer loop
      vertex 24 2.3 1
      vertex 27.8 2.3 0
      vertex 24 2.3 0
    endloop
  endfacet
  facet normal 0 1 0
    outer loop
      vertex 27.8 2.3 2.4
      vertex 13.5 2.3 1
      vertex 7.2 2.3 2.4
    endloop
  endfacet
  facet normal 0 1 0
    outer loop
      vertex 7.2 2.3 0
      vertex 13.5 2.3 1
      vertex 13.5 2.3 0
    endloop
  endfacet
  facet normal 0 1 0
    outer loop
      vertex 13.5 2.3 1
      vertex 7.2 2.3 0
      vertex 7.2 2.3 2.4
    endloop
  endfacet
  facet normal 0 1 -0
    outer loop
      vertex 28.8 19.2 0
      vertex 0 19.2 2.4
      vertex 28.8 19.2 2.4
    endloop
  endfacet
  facet normal 0 1 0
    outer loop
      vertex 0 19.2 2.4
      vertex 28.8 19.2 0
      vertex 0 19.2 0
    endloop
  endfacet
  facet normal 0 -1 0
    outer loop
      vertex 7.2 16.9 2.4
      vertex 13.5 16.9 1
      vertex 27.8 16.9 2.4
    endloop
  endfacet
  facet normal 0 -1 0
    outer loop
      vertex 7.2 16.9 0
      vertex 13.5 16.9 1
      vertex 7.2 16.9 2.4
    endloop
  endfacet
  facet normal 0 -1 -0
    outer loop
      vertex 13.5 16.9 1
      vertex 7.2 16.9 0
      vertex 13.5 16.9 0
    endloop
  endfacet
  facet normal 0 -1 0
    outer loop
      vertex 24 16.9 1
      vertex 27.8 16.9 2.4
      vertex 13.5 16.9 1
    endloop
  endfacet
  facet normal 0 -1 0
    outer loop
      vertex 27.8 16.9 0
      vertex 24 16.9 1
      vertex 24 16.9 0
    endloop
  endfacet
  facet normal 0 -1 0
    outer loop
      vertex 24 16.9 1
      vertex 27.8 16.9 0
      vertex 27.8 16.9 2.4
    endloop
  endfacet
  facet normal -1 0 0
    outer loop
      vertex 0 0 0
      vertex 0 19.2 2.4
      vertex 0 19.2 0
    endloop
  endfacet
  facet normal -1 -0 0
    outer loop
      vertex 0 19.2 2.4
      vertex 0 0 0
      vertex 0 0 2.4
    endloop
  endfacet
  facet normal 1 -0 0
    outer loop
      vertex 24 2.3 1
      vertex 24 16.9 0
      vertex 24 16.9 1
    endloop
  endfacet
  facet normal 1 0 0
    outer loop
      vertex 24 16.9 0
      vertex 24 2.3 1
      vertex 24 2.3 0
    endloop
  endfacet
  facet normal 1 -0 0
    outer loop
      vertex 7.2 2.3 2.4
      vertex 7.2 16.9 0
      vertex 7.2 16.9 2.4
    endloop
  endfacet
  facet normal 1 0 0
    outer loop
      vertex 7.2 16.9 0
      vertex 7.2 2.3 2.4
      vertex 7.2 2.3 0
    endloop
  endfacet
  facet normal -1 0 0
    outer loop
      vertex 27.8 2.3 0
      vertex 27.8 16.9 2.4
      vertex 27.8 16.9 0
    endloop
  endfacet
  facet normal -1 -0 0
    outer loop
      vertex 27.8 16.9 2.4
      vertex 27.8 2.3 0
      vertex 27.8 2.3 2.4
    endloop
  endfacet
endsolid OpenSCAD_Model
