solid OpenSCAD_Model
  facet normal 0 -1 0
    outer loop
      vertex -4.5 -3.45 0.799999
      vertex -1 -3.45 8
      vertex -4.5 -3.45 8
    endloop
  endfacet
  facet normal 0 -1 -0
    outer loop
      vertex -1 -3.45 8
      vertex -4.5 -3.45 0.799999
      vertex -1 -3.45 0.799999
    endloop
  endfacet
  facet normal -1 0 0
    outer loop
      vertex -6.5 -38.4 0
      vertex -6.5 0 8
      vertex -6.5 0 0
    endloop
  endfacet
  facet normal -1 -0 0
    outer loop
      vertex -6.5 0 8
      vertex -6.5 -38.4 0
      vertex -6.5 -38.4 8
    endloop
  endfacet
  facet normal 0 1 -0
    outer loop
      vertex 0 0 0
      vertex -6.5 0 8
      vertex 0 0 8
    endloop
  endfacet
  facet normal 0 1 0
    outer loop
      vertex -6.5 0 8
      vertex 0 0 0
      vertex -6.5 0 0
    endloop
  endfacet
  facet normal 1 0 0
    outer loop
      vertex 0 -40.4492 7.70398
      vertex 0 -38.4 8
      vertex 0 -38.4 9.6
    endloop
  endfacet
  facet normal 1 0 0
    outer loop
      vertex 0 -38.4 8
      vertex 0 -39.2527 5.44713
      vertex 0 -39.2059 5.01656
    endloop
  endfacet
  facet normal 1 0 0
    outer loop
      vertex 0 -38.4 8
      vertex 0 -39.3458 5.87011
      vertex 0 -39.2527 5.44713
    endloop
  endfacet
  facet normal 1 0 0
    outer loop
      vertex 0 -38.4 8
      vertex 0 -39.4841 6.28055
      vertex 0 -39.3458 5.87011
    endloop
  endfacet
  facet normal 1 0 0
    outer loop
      vertex 0 -38.4 8
      vertex 0 -39.666 6.67363
      vertex 0 -39.4841 6.28055
    endloop
  endfacet
  facet normal 1 0 0
    outer loop
      vertex 0 -38.4 8
      vertex 0 -39.8892 7.04475
      vertex 0 -39.666 6.67363
    endloop
  endfacet
  facet normal 1 0 0
    outer loop
      vertex 0 -38.4 8
      vertex 0 -40.1514 7.38955
      vertex 0 -39.8892 7.04475
    endloop
  endfacet
  facet normal 1 0 0
    outer loop
      vertex 0 -38.4 8
      vertex 0 -40.4492 7.70398
      vertex 0 -40.1514 7.38955
    endloop
  endfacet
  facet normal 1 0 0
    outer loop
      vertex 0 -38.4 9.6
      vertex 0 -40.7793 7.98437
      vertex 0 -40.4492 7.70398
    endloop
  endfacet
  facet normal 1 0 0
    outer loop
      vertex 0 -38.4 9.6
      vertex 0 -41.1378 8.22743
      vertex 0 -40.7793 7.98437
    endloop
  endfacet
  facet normal 1 0 0
    outer loop
      vertex 0 -38.4 9.6
      vertex 0 -41.5204 8.4303
      vertex 0 -41.1378 8.22743
    endloop
  endfacet
  facet normal 1 0 0
    outer loop
      vertex 0 -38.4 9.6
      vertex 0 -41.9228 8.59061
      vertex 0 -41.5204 8.4303
    endloop
  endfacet
  facet normal 1 0 0
    outer loop
      vertex 0 -38.4 9.6
      vertex 0 -42.3401 8.70648
      vertex 0 -41.9228 8.59061
    endloop
  endfacet
  facet normal 1 0 0
    outer loop
      vertex 0 -38.4 9.6
      vertex 0 -42.7675 8.77655
      vertex 0 -42.3401 8.70648
    endloop
  endfacet
  facet normal 1 0 0
    outer loop
      vertex 0 -38.4 9.6
      vertex 0 -43.2 8.8
      vertex 0 -42.7675 8.77655
    endloop
  endfacet
  facet normal 1 -0 0
    outer loop
      vertex 0 -48 9.6
      vertex 0 -43.2 8.8
      vertex 0 -38.4 9.6
    endloop
  endfacet
  facet normal 1 0 0
    outer loop
      vertex 0 -47.1941 5.01656
      vertex 0 -48 9.6
      vertex 0 -47.1941 4.58344
    endloop
  endfacet
  facet normal 1 0 0
    outer loop
      vertex 0 -47.1473 5.44713
      vertex 0 -48 9.6
      vertex 0 -47.1941 5.01656
    endloop
  endfacet
  facet normal 1 0 0
    outer loop
      vertex 0 -47.0542 5.87011
      vertex 0 -48 9.6
      vertex 0 -47.1473 5.44713
    endloop
  endfacet
  facet normal 1 0 0
    outer loop
      vertex 0 -46.9159 6.28055
      vertex 0 -48 9.6
      vertex 0 -47.0542 5.87011
    endloop
  endfacet
  facet normal 1 0 0
    outer loop
      vertex 0 -46.734 6.67363
      vertex 0 -48 9.6
      vertex 0 -46.9159 6.28055
    endloop
  endfacet
  facet normal 1 0 0
    outer loop
      vertex 0 -46.5108 7.04475
      vertex 0 -48 9.6
      vertex 0 -46.734 6.67363
    endloop
  endfacet
  facet normal 1 0 0
    outer loop
      vertex 0 -46.2486 7.38955
      vertex 0 -48 9.6
      vertex 0 -46.5108 7.04475
    endloop
  endfacet
  facet normal 1 0 0
    outer loop
      vertex 0 -45.9508 7.70398
      vertex 0 -48 9.6
      vertex 0 -46.2486 7.38955
    endloop
  endfacet
  facet normal 1 0 0
    outer loop
      vertex 0 -45.6207 7.98437
      vertex 0 -48 9.6
      vertex 0 -45.9508 7.70398
    endloop
  endfacet
  facet normal 1 0 0
    outer loop
      vertex 0 -45.2622 8.22743
      vertex 0 -48 9.6
      vertex 0 -45.6207 7.98437
    endloop
  endfacet
  facet normal 1 0 0
    outer loop
      vertex 0 -44.8796 8.4303
      vertex 0 -48 9.6
      vertex 0 -45.2622 8.22743
    endloop
  endfacet
  facet normal 1 0 0
    outer loop
      vertex 0 -44.4772 8.59061
      vertex 0 -48 9.6
      vertex 0 -44.8796 8.4303
    endloop
  endfacet
  facet normal 1 0 0
    outer loop
      vertex 0 -44.0599 8.70648
      vertex 0 -48 9.6
      vertex 0 -44.4772 8.59061
    endloop
  endfacet
  facet normal 1 0 0
    outer loop
      vertex 0 -43.6325 8.77655
      vertex 0 -48 9.6
      vertex 0 -44.0599 8.70648
    endloop
  endfacet
  facet normal 1 0 0
    outer loop
      vertex 0 -43.2 8.8
      vertex 0 -48 9.6
      vertex 0 -43.6325 8.77655
    endloop
  endfacet
  facet normal 1 -0 0
    outer loop
      vertex 0 -38.4 8
      vertex 0 0 0
      vertex 0 0 8
    endloop
  endfacet
  facet normal 1 0 0
    outer loop
      vertex 0 -39.2059 4.58344
      vertex 0 -38.4 8
      vertex 0 -39.2059 5.01656
    endloop
  endfacet
  facet normal 1 0 0
    outer loop
      vertex 0 -39.2527 4.15287
      vertex 0 -38.4 8
      vertex 0 -39.2059 4.58344
    endloop
  endfacet
  facet normal 1 0 0
    outer loop
      vertex 0 -38.4 8
      vertex 0 -39.2527 4.15287
      vertex 0 0 0
    endloop
  endfacet
  facet normal 1 -0 0
    outer loop
      vertex 0 -39.3458 3.72989
      vertex 0 0 0
      vertex 0 -39.2527 4.15287
    endloop
  endfacet
  facet normal 1 -0 0
    outer loop
      vertex 0 -39.4841 3.31945
      vertex 0 0 0
      vertex 0 -39.3458 3.72989
    endloop
  endfacet
  facet normal 1 -0 0
    outer loop
      vertex 0 -39.666 2.92637
      vertex 0 0 0
      vertex 0 -39.4841 3.31945
    endloop
  endfacet
  facet normal 1 -0 0
    outer loop
      vertex 0 -39.8892 2.55525
      vertex 0 0 0
      vertex 0 -39.666 2.92637
    endloop
  endfacet
  facet normal 1 -0 0
    outer loop
      vertex 0 -40.1514 2.21045
      vertex 0 0 0
      vertex 0 -39.8892 2.55525
    endloop
  endfacet
  facet normal 1 -0 0
    outer loop
      vertex 0 -40.4492 1.89602
      vertex 0 0 0
      vertex 0 -40.1514 2.21045
    endloop
  endfacet
  facet normal 1 -0 0
    outer loop
      vertex 0 -40.7793 1.61563
      vertex 0 0 0
      vertex 0 -40.4492 1.89602
    endloop
  endfacet
  facet normal 1 -0 0
    outer loop
      vertex 0 -41.1378 1.37257
      vertex 0 0 0
      vertex 0 -40.7793 1.61563
    endloop
  endfacet
  facet normal 1 -0 0
    outer loop
      vertex 0 -41.5204 1.1697
      vertex 0 0 0
      vertex 0 -41.1378 1.37257
    endloop
  endfacet
  facet normal 1 -0 0
    outer loop
      vertex 0 -41.9228 1.00939
      vertex 0 0 0
      vertex 0 -41.5204 1.1697
    endloop
  endfacet
  facet normal 1 -0 0
    outer loop
      vertex 0 -42.3401 0.893517
      vertex 0 0 0
      vertex 0 -41.9228 1.00939
    endloop
  endfacet
  facet normal 1 -0 0
    outer loop
      vertex 0 -42.7675 0.823448
      vertex 0 0 0
      vertex 0 -42.3401 0.893517
    endloop
  endfacet
  facet normal 1 0 0
    outer loop
      vertex 0 -48 0
      vertex 0 -42.7675 0.823448
      vertex 0 -43.2 0.799999
    endloop
  endfacet
  facet normal 1 0 0
    outer loop
      vertex 0 -48 0
      vertex 0 -47.1941 4.58344
      vertex 0 -48 9.6
    endloop
  endfacet
  facet normal 1 0 0
    outer loop
      vertex 0 -42.7675 0.823448
      vertex 0 -48 0
      vertex 0 0 0
    endloop
  endfacet
  facet normal 1 0 0
    outer loop
      vertex 0 -43.6325 0.823448
      vertex 0 -48 0
      vertex 0 -43.2 0.799999
    endloop
  endfacet
  facet normal 1 0 0
    outer loop
      vertex 0 -44.0599 0.893517
      vertex 0 -48 0
      vertex 0 -43.6325 0.823448
    endloop
  endfacet
  facet normal 1 0 0
    outer loop
      vertex 0 -44.4772 1.00939
      vertex 0 -48 0
      vertex 0 -44.0599 0.893517
    endloop
  endfacet
  facet normal 1 0 0
    outer loop
      vertex 0 -44.8796 1.1697
      vertex 0 -48 0
      vertex 0 -44.4772 1.00939
    endloop
  endfacet
  facet normal 1 0 0
    outer loop
      vertex 0 -45.2622 1.37257
      vertex 0 -48 0
      vertex 0 -44.8796 1.1697
    endloop
  endfacet
  facet normal 1 0 0
    outer loop
      vertex 0 -45.6207 1.61563
      vertex 0 -48 0
      vertex 0 -45.2622 1.37257
    endloop
  endfacet
  facet normal 1 0 0
    outer loop
      vertex 0 -45.9508 1.89602
      vertex 0 -48 0
      vertex 0 -45.6207 1.61563
    endloop
  endfacet
  facet normal 1 0 0
    outer loop
      vertex 0 -46.2486 2.21045
      vertex 0 -48 0
      vertex 0 -45.9508 1.89602
    endloop
  endfacet
  facet normal 1 0 0
    outer loop
      vertex 0 -46.5108 2.55525
      vertex 0 -48 0
      vertex 0 -46.2486 2.21045
    endloop
  endfacet
  facet normal 1 0 0
    outer loop
      vertex 0 -46.734 2.92637
      vertex 0 -48 0
      vertex 0 -46.5108 2.55525
    endloop
  endfacet
  facet normal 1 0 0
    outer loop
      vertex 0 -46.9159 3.31945
      vertex 0 -48 0
      vertex 0 -46.734 2.92637
    endloop
  endfacet
  facet normal 1 0 0
    outer loop
      vertex 0 -47.0542 3.72989
      vertex 0 -48 0
      vertex 0 -46.9159 3.31945
    endloop
  endfacet
  facet normal 1 0 0
    outer loop
      vertex 0 -47.1473 4.15287
      vertex 0 -48 0
      vertex 0 -47.0542 3.72989
    endloop
  endfacet
  facet normal 1 0 0
    outer loop
      vertex 0 -47.1941 4.58344
      vertex 0 -48 0
      vertex 0 -47.1473 4.15287
    endloop
  endfacet
  facet normal 0 -1 0
    outer loop
      vertex -6.5 -38.4 0
      vertex -4.8 -38.4 8
      vertex -6.5 -38.4 8
    endloop
  endfacet
  facet normal 0 -1 -0
    outer loop
      vertex -4.8 -38.4 8
      vertex -6.5 -38.4 0
      vertex -4.8 -38.4 0
    endloop
  endfacet
  facet normal 1 -0 0
    outer loop
      vertex -4.5 -9.45 8
      vertex -4.5 -3.45 0.799999
      vertex -4.5 -3.45 8
    endloop
  endfacet
  facet normal 1 0 0
    outer loop
      vertex -4.5 -3.45 0.799999
      vertex -4.5 -9.45 8
      vertex -4.5 -9.45 0.799999
    endloop
  endfacet
  facet normal 1 -0 0
    outer loop
      vertex -3.5 -34.95 8
      vertex -3.5 -28.95 0.799999
      vertex -3.5 -28.95 8
    endloop
  endfacet
  facet normal 1 0 0
    outer loop
      vertex -3.5 -28.95 0.799999
      vertex -3.5 -34.95 8
      vertex -3.5 -34.95 0.799999
    endloop
  endfacet
  facet normal 1 -0 0
    outer loop
      vertex -5.5 -28.95 8
      vertex -5.5 -9.45 0
      vertex -5.5 -9.45 8
    endloop
  endfacet
  facet normal 1 0 0
    outer loop
      vertex -5.5 -9.45 0
      vertex -5.5 -28.95 8
      vertex -5.5 -28.95 0
    endloop
  endfacet
  facet normal 0 1 -0
    outer loop
      vertex -1 -34.95 0.799999
      vertex -3.5 -34.95 8
      vertex -1 -34.95 8
    endloop
  endfacet
  facet normal 0 1 0
    outer loop
      vertex -3.5 -34.95 8
      vertex -1 -34.95 0.799999
      vertex -3.5 -34.95 0.799999
    endloop
  endfacet
  facet normal -0 0 1
    outer loop
      vertex -5.5 -28.95 8
      vertex -3.5 -34.95 8
      vertex -3.5 -28.95 8
    endloop
  endfacet
  facet normal 0 0 1
    outer loop
      vertex -6.5 -38.4 8
      vertex -3.5 -34.95 8
      vertex -5.5 -28.95 8
    endloop
  endfacet
  facet normal 0 0 1
    outer loop
      vertex -3.5 -34.95 8
      vertex -6.5 -38.4 8
      vertex -4.8 -38.4 8
    endloop
  endfacet
  facet normal 0 0 1
    outer loop
      vertex -6.5 -38.4 8
      vertex -5.5 -28.95 8
      vertex -6.5 0 8
    endloop
  endfacet
  facet normal 0 0 1
    outer loop
      vertex 0 0 8
      vertex -1 -3.45 8
      vertex 0 -38.4 8
    endloop
  endfacet
  facet normal 0 0 1
    outer loop
      vertex 0 0 8
      vertex -4.5 -3.45 8
      vertex -1 -3.45 8
    endloop
  endfacet
  facet normal 0 0 1
    outer loop
      vertex -4.5 -3.45 8
      vertex -5.5 -9.45 8
      vertex -4.5 -9.45 8
    endloop
  endfacet
  facet normal 0 0 1
    outer loop
      vertex -5.5 -9.45 8
      vertex -6.5 0 8
      vertex -5.5 -28.95 8
    endloop
  endfacet
  facet normal 0 0 1
    outer loop
      vertex -4.5 -3.45 8
      vertex -6.5 0 8
      vertex -5.5 -9.45 8
    endloop
  endfacet
  facet normal -0 0 1
    outer loop
      vertex -6.5 0 8
      vertex -4.5 -3.45 8
      vertex 0 0 8
    endloop
  endfacet
  facet normal -0 0 1
    outer loop
      vertex -1 -34.95 8
      vertex 0 -38.4 8
      vertex -1 -3.45 8
    endloop
  endfacet
  facet normal -0 0 1
    outer loop
      vertex -3.5 -34.95 8
      vertex 0 -38.4 8
      vertex -1 -34.95 8
    endloop
  endfacet
  facet normal 0 0 1
    outer loop
      vertex 0 -38.4 8
      vertex -3.5 -34.95 8
      vertex -4.8 -38.4 8
    endloop
  endfacet
  facet normal -0 0 1
    outer loop
      vertex -4.5 -3.45 0.799999
      vertex -1 -9.45 0.799999
      vertex -1 -3.45 0.799999
    endloop
  endfacet
  facet normal 0 0 1
    outer loop
      vertex -1 -9.45 0.799999
      vertex -4.5 -3.45 0.799999
      vertex -4.5 -9.45 0.799999
    endloop
  endfacet
  facet normal 0 -1 0
    outer loop
      vertex -5.5 -9.45 8
      vertex -4.5 -9.45 0.799999
      vertex -4.5 -9.45 8
    endloop
  endfacet
  facet normal 0 -1 0
    outer loop
      vertex -5.5 -9.45 0
      vertex -4.5 -9.45 0.799999
      vertex -5.5 -9.45 8
    endloop
  endfacet
  facet normal 0 -1 0
    outer loop
      vertex -1 -9.45 0
      vertex -4.5 -9.45 0.799999
      vertex -5.5 -9.45 0
    endloop
  endfacet
  facet normal 0 -1 0
    outer loop
      vertex -4.5 -9.45 0.799999
      vertex -1 -9.45 0
      vertex -1 -9.45 0.799999
    endloop
  endfacet
  facet normal 0 0 -1
    outer loop
      vertex 0 -48 0
      vertex -1 -28.95 0
      vertex 0 0 0
    endloop
  endfacet
  facet normal 0 0 -1
    outer loop
      vertex -4.8 -38.4 0
      vertex 0 -48 0
      vertex -4.8 -48 0
    endloop
  endfacet
  facet normal 0 0 -1
    outer loop
      vertex 0 -48 0
      vertex -4.8 -38.4 0
      vertex -1 -28.95 0
    endloop
  endfacet
  facet normal 0 0 -1
    outer loop
      vertex -4.8 -38.4 0
      vertex -5.5 -28.95 0
      vertex -1 -28.95 0
    endloop
  endfacet
  facet normal -0 0 -1
    outer loop
      vertex -5.5 -28.95 0
      vertex -6.5 -38.4 0
      vertex -5.5 -9.45 0
    endloop
  endfacet
  facet normal 0 0 -1
    outer loop
      vertex -6.5 -38.4 0
      vertex -5.5 -28.95 0
      vertex -4.8 -38.4 0
    endloop
  endfacet
  facet normal 0 0 -1
    outer loop
      vertex -1 -9.45 0
      vertex 0 0 0
      vertex -1 -28.95 0
    endloop
  endfacet
  facet normal 0 0 -1
    outer loop
      vertex -5.5 -9.45 0
      vertex 0 0 0
      vertex -1 -9.45 0
    endloop
  endfacet
  facet normal 0 0 -1
    outer loop
      vertex -5.5 -9.45 0
      vertex -6.5 0 0
      vertex 0 0 0
    endloop
  endfacet
  facet normal 0 0 -1
    outer loop
      vertex -6.5 0 0
      vertex -5.5 -9.45 0
      vertex -6.5 -38.4 0
    endloop
  endfacet
  facet normal -1 0 0
    outer loop
      vertex -1 -9.45 0
      vertex -1 -28.95 0
      vertex -1 -9.45 0.799999
    endloop
  endfacet
  facet normal -1 0 0
    outer loop
      vertex -1 -9.45 0.799999
      vertex -1 -3.45 8
      vertex -1 -3.45 0.799999
    endloop
  endfacet
  facet normal -1 0 0
    outer loop
      vertex -1 -28.95 0.799999
      vertex -1 -9.45 0.799999
      vertex -1 -28.95 0
    endloop
  endfacet
  facet normal -1 0 0
    outer loop
      vertex -1 -9.45 0.799999
      vertex -1 -28.95 0.799999
      vertex -1 -3.45 8
    endloop
  endfacet
  facet normal -1 0 0
    outer loop
      vertex -1 -34.95 8
      vertex -1 -28.95 0.799999
      vertex -1 -34.95 0.799999
    endloop
  endfacet
  facet normal -1 0 0
    outer loop
      vertex -1 -28.95 0.799999
      vertex -1 -34.95 8
      vertex -1 -3.45 8
    endloop
  endfacet
  facet normal -0 0 1
    outer loop
      vertex -3.5 -28.95 0.799999
      vertex -1 -34.95 0.799999
      vertex -1 -28.95 0.799999
    endloop
  endfacet
  facet normal 0 0 1
    outer loop
      vertex -1 -34.95 0.799999
      vertex -3.5 -28.95 0.799999
      vertex -3.5 -34.95 0.799999
    endloop
  endfacet
  facet normal 0 1 0
    outer loop
      vertex -1 -28.95 0.799999
      vertex -1 -28.95 0
      vertex -3.5 -28.95 0.799999
    endloop
  endfacet
  facet normal 0 1 -0
    outer loop
      vertex -3.5 -28.95 0.799999
      vertex -5.5 -28.95 8
      vertex -3.5 -28.95 8
    endloop
  endfacet
  facet normal 0 1 0
    outer loop
      vertex -3.5 -28.95 0.799999
      vertex -5.5 -28.95 0
      vertex -5.5 -28.95 8
    endloop
  endfacet
  facet normal 0 1 0
    outer loop
      vertex -5.5 -28.95 0
      vertex -3.5 -28.95 0.799999
      vertex -1 -28.95 0
    endloop
  endfacet
  facet normal -1 0 0
    outer loop
      vertex -4.8 -39.2059 4.58344
      vertex -4.8 -38.4 8
      vertex -4.8 -38.4 0
    endloop
  endfacet
  facet normal -1 0 0
    outer loop
      vertex -4.8 -39.2059 5.01656
      vertex -4.8 -38.4 8
      vertex -4.8 -39.2059 4.58344
    endloop
  endfacet
  facet normal -1 0 0
    outer loop
      vertex -4.8 -38.4 0
      vertex -4.8 -39.2527 4.15287
      vertex -4.8 -39.2059 4.58344
    endloop
  endfacet
  facet normal -1 0 0
    outer loop
      vertex -4.8 -38.4 0
      vertex -4.8 -39.3458 3.72989
      vertex -4.8 -39.2527 4.15287
    endloop
  endfacet
  facet normal -1 0 0
    outer loop
      vertex -4.8 -38.4 0
      vertex -4.8 -39.4841 3.31945
      vertex -4.8 -39.3458 3.72989
    endloop
  endfacet
  facet normal -1 0 0
    outer loop
      vertex -4.8 -38.4 0
      vertex -4.8 -39.666 2.92637
      vertex -4.8 -39.4841 3.31945
    endloop
  endfacet
  facet normal -1 0 0
    outer loop
      vertex -4.8 -38.4 0
      vertex -4.8 -39.8892 2.55525
      vertex -4.8 -39.666 2.92637
    endloop
  endfacet
  facet normal -1 0 0
    outer loop
      vertex -4.8 -38.4 0
      vertex -4.8 -40.1514 2.21045
      vertex -4.8 -39.8892 2.55525
    endloop
  endfacet
  facet normal -1 0 0
    outer loop
      vertex -4.8 -38.4 0
      vertex -4.8 -40.4492 1.89602
      vertex -4.8 -40.1514 2.21045
    endloop
  endfacet
  facet normal -1 0 0
    outer loop
      vertex -4.8 -38.4 0
      vertex -4.8 -40.7793 1.61563
      vertex -4.8 -40.4492 1.89602
    endloop
  endfacet
  facet normal -1 0 0
    outer loop
      vertex -4.8 -38.4 0
      vertex -4.8 -41.1378 1.37257
      vertex -4.8 -40.7793 1.61563
    endloop
  endfacet
  facet normal -1 0 0
    outer loop
      vertex -4.8 -38.4 0
      vertex -4.8 -41.5204 1.1697
      vertex -4.8 -41.1378 1.37257
    endloop
  endfacet
  facet normal -1 0 0
    outer loop
      vertex -4.8 -38.4 0
      vertex -4.8 -41.9228 1.00939
      vertex -4.8 -41.5204 1.1697
    endloop
  endfacet
  facet normal -1 0 0
    outer loop
      vertex -4.8 -38.4 0
      vertex -4.8 -42.3401 0.893517
      vertex -4.8 -41.9228 1.00939
    endloop
  endfacet
  facet normal -1 0 0
    outer loop
      vertex -4.8 -38.4 0
      vertex -4.8 -42.7675 0.823448
      vertex -4.8 -42.3401 0.893517
    endloop
  endfacet
  facet normal -1 0 0
    outer loop
      vertex -4.8 -38.4 0
      vertex -4.8 -43.2 0.799999
      vertex -4.8 -42.7675 0.823448
    endloop
  endfacet
  facet normal -1 0 0
    outer loop
      vertex -4.8 -48 0
      vertex -4.8 -43.2 0.799999
      vertex -4.8 -38.4 0
    endloop
  endfacet
  facet normal -1 -0 0
    outer loop
      vertex -4.8 -47.1941 4.58344
      vertex -4.8 -48 0
      vertex -4.8 -47.1941 5.01656
    endloop
  endfacet
  facet normal -1 -0 0
    outer loop
      vertex -4.8 -47.1473 4.15287
      vertex -4.8 -48 0
      vertex -4.8 -47.1941 4.58344
    endloop
  endfacet
  facet normal -1 -0 0
    outer loop
      vertex -4.8 -47.0542 3.72989
      vertex -4.8 -48 0
      vertex -4.8 -47.1473 4.15287
    endloop
  endfacet
  facet normal -1 -0 0
    outer loop
      vertex -4.8 -46.9159 3.31945
      vertex -4.8 -48 0
      vertex -4.8 -47.0542 3.72989
    endloop
  endfacet
  facet normal -1 -0 0
    outer loop
      vertex -4.8 -46.734 2.92637
      vertex -4.8 -48 0
      vertex -4.8 -46.9159 3.31945
    endloop
  endfacet
  facet normal -1 -0 0
    outer loop
      vertex -4.8 -46.5108 2.55525
      vertex -4.8 -48 0
      vertex -4.8 -46.734 2.92637
    endloop
  endfacet
  facet normal -1 -0 0
    outer loop
      vertex -4.8 -46.2486 2.21045
      vertex -4.8 -48 0
      vertex -4.8 -46.5108 2.55525
    endloop
  endfacet
  facet normal -1 -0 0
    outer loop
      vertex -4.8 -45.9508 1.89602
      vertex -4.8 -48 0
      vertex -4.8 -46.2486 2.21045
    endloop
  endfacet
  facet normal -1 -0 0
    outer loop
      vertex -4.8 -45.6207 1.61563
      vertex -4.8 -48 0
      vertex -4.8 -45.9508 1.89602
    endloop
  endfacet
  facet normal -1 -0 0
    outer loop
      vertex -4.8 -45.2622 1.37257
      vertex -4.8 -48 0
      vertex -4.8 -45.6207 1.61563
    endloop
  endfacet
  facet normal -1 -0 0
    outer loop
      vertex -4.8 -44.8796 1.1697
      vertex -4.8 -48 0
      vertex -4.8 -45.2622 1.37257
    endloop
  endfacet
  facet normal -1 -0 0
    outer loop
      vertex -4.8 -44.4772 1.00939
      vertex -4.8 -48 0
      vertex -4.8 -44.8796 1.1697
    endloop
  endfacet
  facet normal -1 -0 0
    outer loop
      vertex -4.8 -44.0599 0.893517
      vertex -4.8 -48 0
      vertex -4.8 -44.4772 1.00939
    endloop
  endfacet
  facet normal -1 -0 0
    outer loop
      vertex -4.8 -43.6325 0.823448
      vertex -4.8 -48 0
      vertex -4.8 -44.0599 0.893517
    endloop
  endfacet
  facet normal -1 -0 0
    outer loop
      vertex -4.8 -43.2 0.799999
      vertex -4.8 -48 0
      vertex -4.8 -43.6325 0.823448
    endloop
  endfacet
  facet normal -1 0 0
    outer loop
      vertex -4.8 -39.2527 5.44713
      vertex -4.8 -38.4 8
      vertex -4.8 -39.2059 5.01656
    endloop
  endfacet
  facet normal -1 0 0
    outer loop
      vertex -4.8 -39.3458 5.87011
      vertex -4.8 -38.4 8
      vertex -4.8 -39.2527 5.44713
    endloop
  endfacet
  facet normal -1 0 0
    outer loop
      vertex -4.8 -39.4841 6.28055
      vertex -4.8 -38.4 8
      vertex -4.8 -39.3458 5.87011
    endloop
  endfacet
  facet normal -1 0 0
    outer loop
      vertex -4.8 -39.666 6.67363
      vertex -4.8 -38.4 8
      vertex -4.8 -39.4841 6.28055
    endloop
  endfacet
  facet normal -1 0 0
    outer loop
      vertex -4.8 -39.8892 7.04475
      vertex -4.8 -38.4 8
      vertex -4.8 -39.666 6.67363
    endloop
  endfacet
  facet normal -1 0 0
    outer loop
      vertex -4.8 -40.1514 7.38955
      vertex -4.8 -38.4 8
      vertex -4.8 -39.8892 7.04475
    endloop
  endfacet
  facet normal -1 0 0
    outer loop
      vertex -4.8 -40.4492 7.70398
      vertex -4.8 -38.4 8
      vertex -4.8 -40.1514 7.38955
    endloop
  endfacet
  facet normal -1 -0 0
    outer loop
      vertex -4.8 -38.4 8
      vertex -4.8 -40.4492 7.70398
      vertex -4.8 -38.4 9.6
    endloop
  endfacet
  facet normal -1 0 0
    outer loop
      vertex -4.8 -40.7793 7.98437
      vertex -4.8 -38.4 9.6
      vertex -4.8 -40.4492 7.70398
    endloop
  endfacet
  facet normal -1 0 0
    outer loop
      vertex -4.8 -41.1378 8.22743
      vertex -4.8 -38.4 9.6
      vertex -4.8 -40.7793 7.98437
    endloop
  endfacet
  facet normal -1 0 0
    outer loop
      vertex -4.8 -41.5204 8.4303
      vertex -4.8 -38.4 9.6
      vertex -4.8 -41.1378 8.22743
    endloop
  endfacet
  facet normal -1 0 0
    outer loop
      vertex -4.8 -41.9228 8.59061
      vertex -4.8 -38.4 9.6
      vertex -4.8 -41.5204 8.4303
    endloop
  endfacet
  facet normal -1 0 0
    outer loop
      vertex -4.8 -42.3401 8.70648
      vertex -4.8 -38.4 9.6
      vertex -4.8 -41.9228 8.59061
    endloop
  endfacet
  facet normal -1 0 0
    outer loop
      vertex -4.8 -42.7675 8.77655
      vertex -4.8 -38.4 9.6
      vertex -4.8 -42.3401 8.70648
    endloop
  endfacet
  facet normal -1 0 0
    outer loop
      vertex -4.8 -43.2 8.8
      vertex -4.8 -38.4 9.6
      vertex -4.8 -42.7675 8.77655
    endloop
  endfacet
  facet normal -1 0 0
    outer loop
      vertex -4.8 -48 9.6
      vertex -4.8 -43.2 8.8
      vertex -4.8 -43.6325 8.77655
    endloop
  endfacet
  facet normal -1 0 0
    outer loop
      vertex -4.8 -48 9.6
      vertex -4.8 -47.1941 5.01656
      vertex -4.8 -48 0
    endloop
  endfacet
  facet normal -1 0 0
    outer loop
      vertex -4.8 -43.2 8.8
      vertex -4.8 -48 9.6
      vertex -4.8 -38.4 9.6
    endloop
  endfacet
  facet normal -1 0 0
    outer loop
      vertex -4.8 -44.0599 8.70648
      vertex -4.8 -48 9.6
      vertex -4.8 -43.6325 8.77655
    endloop
  endfacet
  facet normal -1 0 0
    outer loop
      vertex -4.8 -44.4772 8.59061
      vertex -4.8 -48 9.6
      vertex -4.8 -44.0599 8.70648
    endloop
  endfacet
  facet normal -1 0 0
    outer loop
      vertex -4.8 -44.8796 8.4303
      vertex -4.8 -48 9.6
      vertex -4.8 -44.4772 8.59061
    endloop
  endfacet
  facet normal -1 0 0
    outer loop
      vertex -4.8 -45.2622 8.22743
      vertex -4.8 -48 9.6
      vertex -4.8 -44.8796 8.4303
    endloop
  endfacet
  facet normal -1 0 0
    outer loop
      vertex -4.8 -45.6207 7.98437
      vertex -4.8 -48 9.6
      vertex -4.8 -45.2622 8.22743
    endloop
  endfacet
  facet normal -1 0 0
    outer loop
      vertex -4.8 -45.9508 7.70398
      vertex -4.8 -48 9.6
      vertex -4.8 -45.6207 7.98437
    endloop
  endfacet
  facet normal -1 0 0
    outer loop
      vertex -4.8 -46.2486 7.38955
      vertex -4.8 -48 9.6
      vertex -4.8 -45.9508 7.70398
    endloop
  endfacet
  facet normal -1 0 0
    outer loop
      vertex -4.8 -46.5108 7.04475
      vertex -4.8 -48 9.6
      vertex -4.8 -46.2486 7.38955
    endloop
  endfacet
  facet normal -1 0 0
    outer loop
      vertex -4.8 -46.734 6.67363
      vertex -4.8 -48 9.6
      vertex -4.8 -46.5108 7.04475
    endloop
  endfacet
  facet normal -1 0 0
    outer loop
      vertex -4.8 -46.9159 6.28055
      vertex -4.8 -48 9.6
      vertex -4.8 -46.734 6.67363
    endloop
  endfacet
  facet normal -1 0 0
    outer loop
      vertex -4.8 -47.0542 5.87011
      vertex -4.8 -48 9.6
      vertex -4.8 -46.9159 6.28055
    endloop
  endfacet
  facet normal -1 0 0
    outer loop
      vertex -4.8 -47.1473 5.44713
      vertex -4.8 -48 9.6
      vertex -4.8 -47.0542 5.87011
    endloop
  endfacet
  facet normal -1 0 0
    outer loop
      vertex -4.8 -47.1941 5.01656
      vertex -4.8 -48 9.6
      vertex -4.8 -47.1473 5.44713
    endloop
  endfacet
  facet normal 0 -1 0
    outer loop
      vertex -4.8 -48 0
      vertex 0 -48 9.6
      vertex -4.8 -48 9.6
    endloop
  endfacet
  facet normal 0 -1 -0
    outer loop
      vertex 0 -48 9.6
      vertex -4.8 -48 0
      vertex 0 -48 0
    endloop
  endfacet
  facet normal 0.315811 -0.153498 0.936323
    outer loop
      vertex -2.4 -42.5121 1.67481
      vertex -2.4 -42.854 1.61876
      vertex 0 -42.7675 0.823448
    endloop
  endfacet
  facet normal 0.31581 -0.153503 0.936323
    outer loop
      vertex 0 -42.3401 0.893517
      vertex -2.4 -42.5121 1.67481
      vertex 0 -42.7675 0.823448
    endloop
  endfacet
  facet normal 0.315812 -0.253819 0.914242
    outer loop
      vertex -2.4 -42.1782 1.76751
      vertex -2.4 -42.5121 1.67481
      vertex 0 -42.3401 0.893517
    endloop
  endfacet
  facet normal 0.315806 -0.253858 0.914233
    outer loop
      vertex 0 -41.9228 1.00939
      vertex -2.4 -42.1782 1.76751
      vertex 0 -42.3401 0.893517
    endloop
  endfacet
  facet normal 0.315803 -0.351275 0.881405
    outer loop
      vertex -2.4 -41.8564 1.89576
      vertex -2.4 -42.1782 1.76751
      vertex 0 -41.9228 1.00939
    endloop
  endfacet
  facet normal 0.315821 -0.351155 0.881446
    outer loop
      vertex 0 -41.5204 1.1697
      vertex -2.4 -41.8564 1.89576
      vertex 0 -41.9228 1.00939
    endloop
  endfacet
  facet normal 0.315826 -0.444355 0.838333
    outer loop
      vertex -2.4 -41.5502 2.05806
      vertex -2.4 -41.8564 1.89576
      vertex 0 -41.5204 1.1697
    endloop
  endfacet
  facet normal 0.315805 -0.444486 0.838272
    outer loop
      vertex 0 -41.1378 1.37257
      vertex -2.4 -41.5502 2.05806
      vertex 0 -41.5204 1.1697
    endloop
  endfacet
  facet normal 0.315803 -0.53244 0.785351
    outer loop
      vertex -2.4 -41.2634 2.2525
      vertex -2.4 -41.5502 2.05806
      vertex 0 -41.1378 1.37257
    endloop
  endfacet
  facet normal 0.315801 -0.532455 0.785342
    outer loop
      vertex 0 -40.7793 1.61563
      vertex -2.4 -41.2634 2.2525
      vertex 0 -41.1378 1.37257
    endloop
  endfacet
  facet normal 0.315798 -0.614363 0.72307
    outer loop
      vertex -2.4 -40.9994 2.47681
      vertex -2.4 -41.2634 2.2525
      vertex 0 -40.7793 1.61563
    endloop
  endfacet
  facet normal 0.315818 -0.614254 0.723154
    outer loop
      vertex 0 -40.4492 1.89602
      vertex -2.4 -40.9994 2.47681
      vertex 0 -40.7793 1.61563
    endloop
  endfacet
  facet normal 0.31582 -0.688812 0.65253
    outer loop
      vertex -2.4 -40.7611 2.72836
      vertex -2.4 -40.9994 2.47681
      vertex 0 -40.4492 1.89602
    endloop
  endfacet
  facet normal 0.315804 -0.68889 0.652455
    outer loop
      vertex 0 -40.1514 2.21045
      vertex -2.4 -40.7611 2.72836
      vertex 0 -40.4492 1.89602
    endloop
  endfacet
  facet normal 0.315803 -0.755337 0.574225
    outer loop
      vertex -2.4 -40.5514 3.0042
      vertex -2.4 -40.7611 2.72836
      vertex 0 -40.1514 2.21045
    endloop
  endfacet
  facet normal 0.315822 -0.755253 0.574325
    outer loop
      vertex 0 -39.8892 2.55525
      vertex -2.4 -40.5514 3.0042
      vertex 0 -40.1514 2.21045
    endloop
  endfacet
  facet normal 0.315824 -0.813041 0.489101
    outer loop
      vertex -2.4 -40.3728 3.30109
      vertex -2.4 -40.5514 3.0042
      vertex 0 -39.8892 2.55525
    endloop
  endfacet
  facet normal 0.315809 -0.813098 0.489016
    outer loop
      vertex 0 -39.666 2.92637
      vertex -2.4 -40.3728 3.30109
      vertex 0 -39.8892 2.55525
    endloop
  endfacet
  facet normal 0.315807 -0.861118 0.398425
    outer loop
      vertex -2.4 -40.2273 3.61556
      vertex -2.4 -40.3728 3.30109
      vertex 0 -39.666 2.92637
    endloop
  endfacet
  facet normal 0.315815 -0.861092 0.398475
    outer loop
      vertex 0 -39.4841 3.31945
      vertex -2.4 -40.2273 3.61556
      vertex 0 -39.666 2.92637
    endloop
  endfacet
  facet normal 0.315819 -0.899097 0.303122
    outer loop
      vertex -2.4 -40.1166 3.94391
      vertex -2.4 -40.2273 3.61556
      vertex 0 -39.4841 3.31945
    endloop
  endfacet
  facet normal 0.315796 -0.899155 0.302975
    outer loop
      vertex 0 -39.3458 3.72989
      vertex -2.4 -40.1166 3.94391
      vertex 0 -39.4841 3.31945
    endloop
  endfacet
  facet normal 0.315792 -0.926694 0.203747
    outer loop
      vertex -2.4 -40.0422 4.2823
      vertex -2.4 -40.1166 3.94391
      vertex 0 -39.3458 3.72989
    endloop
  endfacet
  facet normal 0.315824 -0.926637 0.203957
    outer loop
      vertex 0 -39.2527 4.15287
      vertex -2.4 -40.0422 4.2823
      vertex 0 -39.3458 3.72989
    endloop
  endfacet
  facet normal 0.315826 -0.943244 0.102687
    outer loop
      vertex -2.4 -40.0047 4.62676
      vertex -2.4 -40.0422 4.2823
      vertex 0 -39.2527 4.15287
    endloop
  endfacet
  facet normal 0.315802 -0.943269 0.102527
    outer loop
      vertex 0 -39.2059 4.58344
      vertex -2.4 -40.0047 4.62676
      vertex 0 -39.2527 4.15287
    endloop
  endfacet
  facet normal 0.315801 -0.948826 0
    outer loop
      vertex -2.4 -40.0047 4.62676
      vertex 0 -39.2059 5.01656
      vertex -2.4 -40.0047 4.97324
    endloop
  endfacet
  facet normal 0.315801 -0.948826 0
    outer loop
      vertex 0 -39.2059 5.01656
      vertex -2.4 -40.0047 4.62676
      vertex 0 -39.2059 4.58344
    endloop
  endfacet
  facet normal 0.315799 -0.943253 -0.102688
    outer loop
      vertex 0 -39.2059 5.01656
      vertex -2.4 -40.0422 5.3177
      vertex -2.4 -40.0047 4.97324
    endloop
  endfacet
  facet normal 0.315823 -0.943262 -0.102526
    outer loop
      vertex 0 -39.2527 5.44713
      vertex -2.4 -40.0422 5.3177
      vertex 0 -39.2059 5.01656
    endloop
  endfacet
  facet normal 0.315828 -0.926683 -0.203745
    outer loop
      vertex 0 -39.2527 5.44713
      vertex -2.4 -40.1166 5.65609
      vertex -2.4 -40.0422 5.3177
    endloop
  endfacet
  facet normal 0.315796 -0.926646 -0.203959
    outer loop
      vertex 0 -39.3458 5.87011
      vertex -2.4 -40.1166 5.65609
      vertex 0 -39.2527 5.44713
    endloop
  endfacet
  facet normal 0.315794 -0.899105 -0.303124
    outer loop
      vertex 0 -39.3458 5.87011
      vertex -2.4 -40.2273 5.98444
      vertex -2.4 -40.1166 5.65609
    endloop
  endfacet
  facet normal 0.315817 -0.899148 -0.302973
    outer loop
      vertex 0 -39.4841 6.28055
      vertex -2.4 -40.2273 5.98444
      vertex 0 -39.3458 5.87011
    endloop
  endfacet
  facet normal 0.315816 -0.861115 -0.398423
    outer loop
      vertex 0 -39.4841 6.28055
      vertex -2.4 -40.3728 6.29891
      vertex -2.4 -40.2273 5.98444
    endloop
  endfacet
  facet normal 0.315808 -0.861094 -0.398476
    outer loop
      vertex 0 -39.666 6.67363
      vertex -2.4 -40.3728 6.29891
      vertex 0 -39.4841 6.28055
    endloop
  endfacet
  facet normal 0.315807 -0.813046 -0.489104
    outer loop
      vertex 0 -39.666 6.67363
      vertex -2.4 -40.5514 6.5958
      vertex -2.4 -40.3728 6.29891
    endloop
  endfacet
  facet normal 0.315822 -0.813094 -0.489013
    outer loop
      vertex 0 -39.666 6.67363
      vertex 0 -39.8892 7.04475
      vertex -2.4 -40.5514 6.5958
    endloop
  endfacet
  facet normal 0.315824 -0.755332 -0.574221
    outer loop
      vertex 0 -39.8892 7.04475
      vertex -2.4 -40.7611 6.87164
      vertex -2.4 -40.5514 6.5958
    endloop
  endfacet
  facet normal 0.315805 -0.755258 -0.574329
    outer loop
      vertex 0 -39.8892 7.04475
      vertex 0 -40.1514 7.38955
      vertex -2.4 -40.7611 6.87164
    endloop
  endfacet
  facet normal 0.315802 -0.688816 -0.652534
    outer loop
      vertex 0 -40.1514 7.38955
      vertex -2.4 -40.9994 7.12319
      vertex -2.4 -40.7611 6.87164
    endloop
  endfacet
  facet normal 0.315818 -0.688887 -0.652452
    outer loop
      vertex 0 -40.1514 7.38955
      vertex 0 -40.4492 7.70398
      vertex -2.4 -40.9994 7.12319
    endloop
  endfacet
  facet normal 0.31582 -0.614358 -0.723064
    outer loop
      vertex 0 -40.4492 7.70398
      vertex -2.4 -41.2634 7.3475
      vertex -2.4 -40.9994 7.12319
    endloop
  endfacet
  facet normal 0.3158 -0.614257 -0.723158
    outer loop
      vertex 0 -40.4492 7.70398
      vertex 0 -40.7793 7.98437
      vertex -2.4 -41.2634 7.3475
    endloop
  endfacet
  facet normal 0.315801 -0.53244 -0.785352
    outer loop
      vertex 0 -40.7793 7.98437
      vertex -2.4 -41.5502 7.54194
      vertex -2.4 -41.2634 7.3475
    endloop
  endfacet
  facet normal 0.315803 -0.532455 -0.785341
    outer loop
      vertex 0 -40.7793 7.98437
      vertex 0 -41.1378 8.22743
      vertex -2.4 -41.5502 7.54194
    endloop
  endfacet
  facet normal 0.315803 -0.444359 -0.83834
    outer loop
      vertex 0 -41.1378 8.22743
      vertex -2.4 -41.8564 7.70424
      vertex -2.4 -41.5502 7.54194
    endloop
  endfacet
  facet normal 0.315824 -0.444483 -0.838266
    outer loop
      vertex 0 -41.1378 8.22743
      vertex 0 -41.5204 8.4303
      vertex -2.4 -41.8564 7.70424
    endloop
  endfacet
  facet normal 0.315823 -0.351272 -0.881399
    outer loop
      vertex 0 -41.5204 8.4303
      vertex -2.4 -42.1782 7.83249
      vertex -2.4 -41.8564 7.70424
    endloop
  endfacet
  facet normal 0.315805 -0.351157 -0.881451
    outer loop
      vertex 0 -41.5204 8.4303
      vertex 0 -41.9228 8.59061
      vertex -2.4 -42.1782 7.83249
    endloop
  endfacet
  facet normal 0.315805 -0.25382 -0.914244
    outer loop
      vertex 0 -41.9228 8.59061
      vertex -2.4 -42.5121 7.92519
      vertex -2.4 -42.1782 7.83249
    endloop
  endfacet
  facet normal 0.31581 -0.253852 -0.914234
    outer loop
      vertex 0 -41.9228 8.59061
      vertex 0 -42.3401 8.70648
      vertex -2.4 -42.5121 7.92519
    endloop
  endfacet
  facet normal 0.315809 -0.153498 -0.936324
    outer loop
      vertex 0 -42.3401 8.70648
      vertex -2.4 -42.854 7.98124
      vertex -2.4 -42.5121 7.92519
    endloop
  endfacet
  facet normal 0.31581 -0.153505 -0.936323
    outer loop
      vertex 0 -42.3401 8.70648
      vertex 0 -42.7675 8.77655
      vertex -2.4 -42.854 7.98124
    endloop
  endfacet
  facet normal 0.31581 -0.0513694 -0.947431
    outer loop
      vertex 0 -42.7675 8.77655
      vertex -2.4 -43.2 8
      vertex -2.4 -42.854 7.98124
    endloop
  endfacet
  facet normal 0.31581 -0.0513694 -0.947431
    outer loop
      vertex 0 -42.7675 8.77655
      vertex 0 -43.2 8.8
      vertex -2.4 -43.2 8
    endloop
  endfacet
  facet normal 0.31581 0.0513694 -0.947431
    outer loop
      vertex -2.4 -43.2 8
      vertex 0 -43.2 8.8
      vertex -2.4 -43.546 7.98124
    endloop
  endfacet
  facet normal 0.31581 0.0513694 -0.947431
    outer loop
      vertex 0 -43.2 8.8
      vertex 0 -43.6325 8.77655
      vertex -2.4 -43.546 7.98124
    endloop
  endfacet
  facet normal 0.31581 0.153498 -0.936324
    outer loop
      vertex -2.4 -43.546 7.98124
      vertex 0 -43.6325 8.77655
      vertex -2.4 -43.8879 7.92519
    endloop
  endfacet
  facet normal 0.315809 0.153505 -0.936323
    outer loop
      vertex 0 -43.6325 8.77655
      vertex 0 -44.0599 8.70648
      vertex -2.4 -43.8879 7.92519
    endloop
  endfacet
  facet normal 0.315811 0.253819 -0.914243
    outer loop
      vertex -2.4 -43.8879 7.92519
      vertex 0 -44.0599 8.70648
      vertex -2.4 -44.2218 7.83249
    endloop
  endfacet
  facet normal 0.315806 0.253852 -0.914235
    outer loop
      vertex 0 -44.0599 8.70648
      vertex 0 -44.4772 8.59061
      vertex -2.4 -44.2218 7.83249
    endloop
  endfacet
  facet normal 0.315803 0.351275 -0.881405
    outer loop
      vertex -2.4 -44.2218 7.83249
      vertex 0 -44.4772 8.59061
      vertex -2.4 -44.5436 7.70424
    endloop
  endfacet
  facet normal 0.315821 0.351155 -0.881446
    outer loop
      vertex 0 -44.4772 8.59061
      vertex 0 -44.8796 8.4303
      vertex -2.4 -44.5436 7.70424
    endloop
  endfacet
  facet normal 0.315826 0.444355 -0.838333
    outer loop
      vertex -2.4 -44.5436 7.70424
      vertex 0 -44.8796 8.4303
      vertex -2.4 -44.8498 7.54194
    endloop
  endfacet
  facet normal 0.315805 0.444486 -0.838272
    outer loop
      vertex 0 -44.8796 8.4303
      vertex 0 -45.2622 8.22743
      vertex -2.4 -44.8498 7.54194
    endloop
  endfacet
  facet normal 0.315803 0.53244 -0.785351
    outer loop
      vertex -2.4 -44.8498 7.54194
      vertex 0 -45.2622 8.22743
      vertex -2.4 -45.1366 7.3475
    endloop
  endfacet
  facet normal 0.315801 0.532455 -0.785342
    outer loop
      vertex 0 -45.2622 8.22743
      vertex 0 -45.6207 7.98437
      vertex -2.4 -45.1366 7.3475
    endloop
  endfacet
  facet normal 0.315798 0.614363 -0.72307
    outer loop
      vertex -2.4 -45.1366 7.3475
      vertex 0 -45.6207 7.98437
      vertex -2.4 -45.4006 7.12319
    endloop
  endfacet
  facet normal 0.315818 0.614254 -0.723154
    outer loop
      vertex 0 -45.6207 7.98437
      vertex 0 -45.9508 7.70398
      vertex -2.4 -45.4006 7.12319
    endloop
  endfacet
  facet normal 0.31582 0.688812 -0.65253
    outer loop
      vertex -2.4 -45.4006 7.12319
      vertex 0 -45.9508 7.70398
      vertex -2.4 -45.6389 6.87164
    endloop
  endfacet
  facet normal 0.315804 0.68889 -0.652455
    outer loop
      vertex 0 -45.9508 7.70398
      vertex 0 -46.2486 7.38955
      vertex -2.4 -45.6389 6.87164
    endloop
  endfacet
  facet normal 0.315803 0.755337 -0.574225
    outer loop
      vertex -2.4 -45.6389 6.87164
      vertex 0 -46.2486 7.38955
      vertex -2.4 -45.8486 6.5958
    endloop
  endfacet
  facet normal 0.315822 0.755253 -0.574325
    outer loop
      vertex 0 -46.2486 7.38955
      vertex 0 -46.5108 7.04475
      vertex -2.4 -45.8486 6.5958
    endloop
  endfacet
  facet normal 0.315824 0.813041 -0.489101
    outer loop
      vertex -2.4 -45.8486 6.5958
      vertex 0 -46.5108 7.04475
      vertex -2.4 -46.0272 6.29891
    endloop
  endfacet
  facet normal 0.315809 0.813098 -0.489016
    outer loop
      vertex 0 -46.5108 7.04475
      vertex 0 -46.734 6.67363
      vertex -2.4 -46.0272 6.29891
    endloop
  endfacet
  facet normal 0.315807 0.861118 -0.398425
    outer loop
      vertex -2.4 -46.0272 6.29891
      vertex 0 -46.734 6.67363
      vertex -2.4 -46.1727 5.98444
    endloop
  endfacet
  facet normal 0.315815 0.861092 -0.398475
    outer loop
      vertex 0 -46.734 6.67363
      vertex 0 -46.9159 6.28055
      vertex -2.4 -46.1727 5.98444
    endloop
  endfacet
  facet normal 0.315819 0.899097 -0.303122
    outer loop
      vertex -2.4 -46.1727 5.98444
      vertex 0 -46.9159 6.28055
      vertex -2.4 -46.2834 5.65609
    endloop
  endfacet
  facet normal 0.315796 0.899155 -0.302975
    outer loop
      vertex 0 -46.9159 6.28055
      vertex 0 -47.0542 5.87011
      vertex -2.4 -46.2834 5.65609
    endloop
  endfacet
  facet normal 0.315792 0.926694 -0.203747
    outer loop
      vertex -2.4 -46.2834 5.65609
      vertex 0 -47.0542 5.87011
      vertex -2.4 -46.3578 5.3177
    endloop
  endfacet
  facet normal 0.315824 0.926637 -0.203957
    outer loop
      vertex 0 -47.0542 5.87011
      vertex 0 -47.1473 5.44713
      vertex -2.4 -46.3578 5.3177
    endloop
  endfacet
  facet normal 0.315826 0.943244 -0.102687
    outer loop
      vertex -2.4 -46.3578 5.3177
      vertex 0 -47.1473 5.44713
      vertex -2.4 -46.3953 4.97324
    endloop
  endfacet
  facet normal 0.315802 0.943269 -0.102527
    outer loop
      vertex 0 -47.1473 5.44713
      vertex 0 -47.1941 5.01656
      vertex -2.4 -46.3953 4.97324
    endloop
  endfacet
  facet normal 0.315801 0.948826 0
    outer loop
      vertex 0 -47.1941 5.01656
      vertex -2.4 -46.3953 4.62676
      vertex -2.4 -46.3953 4.97324
    endloop
  endfacet
  facet normal 0.315801 0.948826 0
    outer loop
      vertex -2.4 -46.3953 4.62676
      vertex 0 -47.1941 5.01656
      vertex 0 -47.1941 4.58344
    endloop
  endfacet
  facet normal 0.315799 0.943253 0.102688
    outer loop
      vertex -2.4 -46.3953 4.62676
      vertex 0 -47.1941 4.58344
      vertex -2.4 -46.3578 4.2823
    endloop
  endfacet
  facet normal 0.315823 0.943262 0.102526
    outer loop
      vertex -2.4 -46.3578 4.2823
      vertex 0 -47.1941 4.58344
      vertex 0 -47.1473 4.15287
    endloop
  endfacet
  facet normal 0.315828 0.926683 0.203745
    outer loop
      vertex -2.4 -46.3578 4.2823
      vertex 0 -47.1473 4.15287
      vertex -2.4 -46.2834 3.94391
    endloop
  endfacet
  facet normal 0.315796 0.926646 0.203959
    outer loop
      vertex -2.4 -46.2834 3.94391
      vertex 0 -47.1473 4.15287
      vertex 0 -47.0542 3.72989
    endloop
  endfacet
  facet normal 0.315794 0.899105 0.303124
    outer loop
      vertex -2.4 -46.2834 3.94391
      vertex 0 -47.0542 3.72989
      vertex -2.4 -46.1727 3.61556
    endloop
  endfacet
  facet normal 0.315817 0.899148 0.302973
    outer loop
      vertex -2.4 -46.1727 3.61556
      vertex 0 -47.0542 3.72989
      vertex 0 -46.9159 3.31945
    endloop
  endfacet
  facet normal 0.315816 0.861115 0.398423
    outer loop
      vertex -2.4 -46.1727 3.61556
      vertex 0 -46.9159 3.31945
      vertex -2.4 -46.0272 3.30109
    endloop
  endfacet
  facet normal 0.315808 0.861094 0.398476
    outer loop
      vertex -2.4 -46.0272 3.30109
      vertex 0 -46.9159 3.31945
      vertex 0 -46.734 2.92637
    endloop
  endfacet
  facet normal 0.315807 0.813046 0.489104
    outer loop
      vertex -2.4 -45.8486 3.0042
      vertex -2.4 -46.0272 3.30109
      vertex 0 -46.734 2.92637
    endloop
  endfacet
  facet normal 0.315822 0.813094 0.489013
    outer loop
      vertex -2.4 -45.8486 3.0042
      vertex 0 -46.734 2.92637
      vertex 0 -46.5108 2.55525
    endloop
  endfacet
  facet normal 0.315824 0.755332 0.574221
    outer loop
      vertex -2.4 -45.6389 2.72836
      vertex -2.4 -45.8486 3.0042
      vertex 0 -46.5108 2.55525
    endloop
  endfacet
  facet normal 0.315805 0.755258 0.574329
    outer loop
      vertex -2.4 -45.6389 2.72836
      vertex 0 -46.5108 2.55525
      vertex 0 -46.2486 2.21045
    endloop
  endfacet
  facet normal 0.315802 0.688816 0.652534
    outer loop
      vertex -2.4 -45.4006 2.47681
      vertex -2.4 -45.6389 2.72836
      vertex 0 -46.2486 2.21045
    endloop
  endfacet
  facet normal 0.315818 0.688887 0.652452
    outer loop
      vertex -2.4 -45.4006 2.47681
      vertex 0 -46.2486 2.21045
      vertex 0 -45.9508 1.89602
    endloop
  endfacet
  facet normal 0.31582 0.614358 0.723064
    outer loop
      vertex -2.4 -45.1366 2.2525
      vertex -2.4 -45.4006 2.47681
      vertex 0 -45.9508 1.89602
    endloop
  endfacet
  facet normal 0.3158 0.614257 0.723158
    outer loop
      vertex -2.4 -45.1366 2.2525
      vertex 0 -45.9508 1.89602
      vertex 0 -45.6207 1.61563
    endloop
  endfacet
  facet normal 0.315801 0.53244 0.785352
    outer loop
      vertex -2.4 -44.8498 2.05806
      vertex -2.4 -45.1366 2.2525
      vertex 0 -45.6207 1.61563
    endloop
  endfacet
  facet normal 0.315803 0.532455 0.785341
    outer loop
      vertex -2.4 -44.8498 2.05806
      vertex 0 -45.6207 1.61563
      vertex 0 -45.2622 1.37257
    endloop
  endfacet
  facet normal 0.315803 0.444359 0.83834
    outer loop
      vertex -2.4 -44.5436 1.89576
      vertex -2.4 -44.8498 2.05806
      vertex 0 -45.2622 1.37257
    endloop
  endfacet
  facet normal 0.315824 0.444483 0.838266
    outer loop
      vertex -2.4 -44.5436 1.89576
      vertex 0 -45.2622 1.37257
      vertex 0 -44.8796 1.1697
    endloop
  endfacet
  facet normal 0.315823 0.351272 0.881399
    outer loop
      vertex -2.4 -44.2218 1.76751
      vertex -2.4 -44.5436 1.89576
      vertex 0 -44.8796 1.1697
    endloop
  endfacet
  facet normal 0.315805 0.351157 0.881451
    outer loop
      vertex -2.4 -44.2218 1.76751
      vertex 0 -44.8796 1.1697
      vertex 0 -44.4772 1.00939
    endloop
  endfacet
  facet normal 0.315805 0.25382 0.914244
    outer loop
      vertex -2.4 -43.8879 1.67481
      vertex -2.4 -44.2218 1.76751
      vertex 0 -44.4772 1.00939
    endloop
  endfacet
  facet normal 0.315811 0.253858 0.914232
    outer loop
      vertex -2.4 -43.8879 1.67481
      vertex 0 -44.4772 1.00939
      vertex 0 -44.0599 0.893517
    endloop
  endfacet
  facet normal 0.31581 0.153498 0.936324
    outer loop
      vertex -2.4 -43.546 1.61876
      vertex -2.4 -43.8879 1.67481
      vertex 0 -44.0599 0.893517
    endloop
  endfacet
  facet normal 0.315811 0.153503 0.936323
    outer loop
      vertex -2.4 -43.546 1.61876
      vertex 0 -44.0599 0.893517
      vertex 0 -43.6325 0.823448
    endloop
  endfacet
  facet normal 0.315811 0.0513694 0.947431
    outer loop
      vertex -2.4 -43.2 1.6
      vertex -2.4 -43.546 1.61876
      vertex 0 -43.6325 0.823448
    endloop
  endfacet
  facet normal 0.315811 0.0513672 0.947431
    outer loop
      vertex -2.4 -43.2 1.6
      vertex 0 -43.6325 0.823448
      vertex 0 -43.2 0.799999
    endloop
  endfacet
  facet normal 0.315811 -0.0513694 0.947431
    outer loop
      vertex -2.4 -42.854 1.61876
      vertex -2.4 -43.2 1.6
      vertex 0 -43.2 0.799999
    endloop
  endfacet
  facet normal 0.315811 -0.0513672 0.947431
    outer loop
      vertex 0 -42.7675 0.823448
      vertex -2.4 -42.854 1.61876
      vertex 0 -43.2 0.799999
    endloop
  endfacet
  facet normal -0.31581 -0.153498 -0.936324
    outer loop
      vertex -2.4 -42.854 7.98124
      vertex -4.8 -42.7675 8.77655
      vertex -2.4 -42.5121 7.92519
    endloop
  endfacet
  facet normal -0.315809 -0.153505 -0.936323
    outer loop
      vertex -4.8 -42.7675 8.77655
      vertex -4.8 -42.3401 8.70648
      vertex -2.4 -42.5121 7.92519
    endloop
  endfacet
  facet normal -0.315811 -0.253819 -0.914243
    outer loop
      vertex -2.4 -42.5121 7.92519
      vertex -4.8 -42.3401 8.70648
      vertex -2.4 -42.1782 7.83249
    endloop
  endfacet
  facet normal -0.315806 -0.253852 -0.914235
    outer loop
      vertex -4.8 -42.3401 8.70648
      vertex -4.8 -41.9228 8.59061
      vertex -2.4 -42.1782 7.83249
    endloop
  endfacet
  facet normal -0.315803 -0.351275 -0.881405
    outer loop
      vertex -2.4 -42.1782 7.83249
      vertex -4.8 -41.9228 8.59061
      vertex -2.4 -41.8564 7.70424
    endloop
  endfacet
  facet normal -0.315821 -0.351155 -0.881446
    outer loop
      vertex -4.8 -41.9228 8.59061
      vertex -4.8 -41.5204 8.4303
      vertex -2.4 -41.8564 7.70424
    endloop
  endfacet
  facet normal -0.315826 -0.444355 -0.838333
    outer loop
      vertex -2.4 -41.8564 7.70424
      vertex -4.8 -41.5204 8.4303
      vertex -2.4 -41.5502 7.54194
    endloop
  endfacet
  facet normal -0.315805 -0.444486 -0.838272
    outer loop
      vertex -4.8 -41.5204 8.4303
      vertex -4.8 -41.1378 8.22743
      vertex -2.4 -41.5502 7.54194
    endloop
  endfacet
  facet normal -0.315803 -0.53244 -0.785351
    outer loop
      vertex -2.4 -41.5502 7.54194
      vertex -4.8 -41.1378 8.22743
      vertex -2.4 -41.2634 7.3475
    endloop
  endfacet
  facet normal -0.315801 -0.532455 -0.785342
    outer loop
      vertex -4.8 -41.1378 8.22743
      vertex -4.8 -40.7793 7.98437
      vertex -2.4 -41.2634 7.3475
    endloop
  endfacet
  facet normal -0.315798 -0.614363 -0.72307
    outer loop
      vertex -2.4 -41.2634 7.3475
      vertex -4.8 -40.7793 7.98437
      vertex -2.4 -40.9994 7.12319
    endloop
  endfacet
  facet normal -0.315818 -0.614254 -0.723154
    outer loop
      vertex -4.8 -40.7793 7.98437
      vertex -4.8 -40.4492 7.70398
      vertex -2.4 -40.9994 7.12319
    endloop
  endfacet
  facet normal -0.31582 -0.688812 -0.65253
    outer loop
      vertex -2.4 -40.9994 7.12319
      vertex -4.8 -40.4492 7.70398
      vertex -2.4 -40.7611 6.87164
    endloop
  endfacet
  facet normal -0.315804 -0.68889 -0.652455
    outer loop
      vertex -4.8 -40.4492 7.70398
      vertex -4.8 -40.1514 7.38955
      vertex -2.4 -40.7611 6.87164
    endloop
  endfacet
  facet normal -0.315803 -0.755337 -0.574225
    outer loop
      vertex -2.4 -40.7611 6.87164
      vertex -4.8 -40.1514 7.38955
      vertex -2.4 -40.5514 6.5958
    endloop
  endfacet
  facet normal -0.315822 -0.755253 -0.574325
    outer loop
      vertex -4.8 -40.1514 7.38955
      vertex -4.8 -39.8892 7.04475
      vertex -2.4 -40.5514 6.5958
    endloop
  endfacet
  facet normal -0.315824 -0.813041 -0.489101
    outer loop
      vertex -2.4 -40.5514 6.5958
      vertex -4.8 -39.8892 7.04475
      vertex -2.4 -40.3728 6.29891
    endloop
  endfacet
  facet normal -0.315809 -0.813098 -0.489016
    outer loop
      vertex -4.8 -39.8892 7.04475
      vertex -4.8 -39.666 6.67363
      vertex -2.4 -40.3728 6.29891
    endloop
  endfacet
  facet normal -0.315807 -0.861118 -0.398425
    outer loop
      vertex -2.4 -40.3728 6.29891
      vertex -4.8 -39.666 6.67363
      vertex -2.4 -40.2273 5.98444
    endloop
  endfacet
  facet normal -0.315815 -0.861092 -0.398475
    outer loop
      vertex -4.8 -39.666 6.67363
      vertex -4.8 -39.4841 6.28055
      vertex -2.4 -40.2273 5.98444
    endloop
  endfacet
  facet normal -0.315819 -0.899097 -0.303122
    outer loop
      vertex -2.4 -40.2273 5.98444
      vertex -4.8 -39.4841 6.28055
      vertex -2.4 -40.1166 5.65609
    endloop
  endfacet
  facet normal -0.315796 -0.899155 -0.302975
    outer loop
      vertex -4.8 -39.4841 6.28055
      vertex -4.8 -39.3458 5.87011
      vertex -2.4 -40.1166 5.65609
    endloop
  endfacet
  facet normal -0.315792 -0.926694 -0.203747
    outer loop
      vertex -2.4 -40.1166 5.65609
      vertex -4.8 -39.3458 5.87011
      vertex -2.4 -40.0422 5.3177
    endloop
  endfacet
  facet normal -0.315824 -0.926637 -0.203957
    outer loop
      vertex -4.8 -39.3458 5.87011
      vertex -4.8 -39.2527 5.44713
      vertex -2.4 -40.0422 5.3177
    endloop
  endfacet
  facet normal -0.315826 -0.943244 -0.102687
    outer loop
      vertex -2.4 -40.0422 5.3177
      vertex -4.8 -39.2527 5.44713
      vertex -2.4 -40.0047 4.97324
    endloop
  endfacet
  facet normal -0.315802 -0.943269 -0.102527
    outer loop
      vertex -4.8 -39.2527 5.44713
      vertex -4.8 -39.2059 5.01656
      vertex -2.4 -40.0047 4.97324
    endloop
  endfacet
  facet normal -0.315801 -0.948826 0
    outer loop
      vertex -4.8 -39.2059 5.01656
      vertex -2.4 -40.0047 4.62676
      vertex -2.4 -40.0047 4.97324
    endloop
  endfacet
  facet normal -0.315801 -0.948826 0
    outer loop
      vertex -2.4 -40.0047 4.62676
      vertex -4.8 -39.2059 5.01656
      vertex -4.8 -39.2059 4.58344
    endloop
  endfacet
  facet normal -0.315799 -0.943253 0.102688
    outer loop
      vertex -2.4 -40.0047 4.62676
      vertex -4.8 -39.2059 4.58344
      vertex -2.4 -40.0422 4.2823
    endloop
  endfacet
  facet normal -0.315823 -0.943262 0.102526
    outer loop
      vertex -2.4 -40.0422 4.2823
      vertex -4.8 -39.2059 4.58344
      vertex -4.8 -39.2527 4.15287
    endloop
  endfacet
  facet normal -0.315828 -0.926683 0.203745
    outer loop
      vertex -2.4 -40.0422 4.2823
      vertex -4.8 -39.2527 4.15287
      vertex -2.4 -40.1166 3.94391
    endloop
  endfacet
  facet normal -0.315796 -0.926646 0.203959
    outer loop
      vertex -2.4 -40.1166 3.94391
      vertex -4.8 -39.2527 4.15287
      vertex -4.8 -39.3458 3.72989
    endloop
  endfacet
  facet normal -0.315794 -0.899105 0.303124
    outer loop
      vertex -2.4 -40.1166 3.94391
      vertex -4.8 -39.3458 3.72989
      vertex -2.4 -40.2273 3.61556
    endloop
  endfacet
  facet normal -0.315817 -0.899148 0.302973
    outer loop
      vertex -2.4 -40.2273 3.61556
      vertex -4.8 -39.3458 3.72989
      vertex -4.8 -39.4841 3.31945
    endloop
  endfacet
  facet normal -0.315816 -0.861115 0.398423
    outer loop
      vertex -2.4 -40.2273 3.61556
      vertex -4.8 -39.4841 3.31945
      vertex -2.4 -40.3728 3.30109
    endloop
  endfacet
  facet normal -0.315808 -0.861094 0.398476
    outer loop
      vertex -2.4 -40.3728 3.30109
      vertex -4.8 -39.4841 3.31945
      vertex -4.8 -39.666 2.92637
    endloop
  endfacet
  facet normal -0.315807 -0.813046 0.489104
    outer loop
      vertex -2.4 -40.5514 3.0042
      vertex -2.4 -40.3728 3.30109
      vertex -4.8 -39.666 2.92637
    endloop
  endfacet
  facet normal -0.315822 -0.813094 0.489013
    outer loop
      vertex -2.4 -40.5514 3.0042
      vertex -4.8 -39.666 2.92637
      vertex -4.8 -39.8892 2.55525
    endloop
  endfacet
  facet normal -0.315824 -0.755332 0.574221
    outer loop
      vertex -2.4 -40.7611 2.72836
      vertex -2.4 -40.5514 3.0042
      vertex -4.8 -39.8892 2.55525
    endloop
  endfacet
  facet normal -0.315805 -0.755258 0.574329
    outer loop
      vertex -2.4 -40.7611 2.72836
      vertex -4.8 -39.8892 2.55525
      vertex -4.8 -40.1514 2.21045
    endloop
  endfacet
  facet normal -0.315802 -0.688816 0.652534
    outer loop
      vertex -2.4 -40.9994 2.47681
      vertex -2.4 -40.7611 2.72836
      vertex -4.8 -40.1514 2.21045
    endloop
  endfacet
  facet normal -0.315818 -0.688887 0.652452
    outer loop
      vertex -2.4 -40.9994 2.47681
      vertex -4.8 -40.1514 2.21045
      vertex -4.8 -40.4492 1.89602
    endloop
  endfacet
  facet normal -0.31582 -0.614358 0.723064
    outer loop
      vertex -2.4 -41.2634 2.2525
      vertex -2.4 -40.9994 2.47681
      vertex -4.8 -40.4492 1.89602
    endloop
  endfacet
  facet normal -0.3158 -0.614257 0.723158
    outer loop
      vertex -2.4 -41.2634 2.2525
      vertex -4.8 -40.4492 1.89602
      vertex -4.8 -40.7793 1.61563
    endloop
  endfacet
  facet normal -0.315801 -0.53244 0.785352
    outer loop
      vertex -2.4 -41.5502 2.05806
      vertex -2.4 -41.2634 2.2525
      vertex -4.8 -40.7793 1.61563
    endloop
  endfacet
  facet normal -0.315803 -0.532455 0.785341
    outer loop
      vertex -2.4 -41.5502 2.05806
      vertex -4.8 -40.7793 1.61563
      vertex -4.8 -41.1378 1.37257
    endloop
  endfacet
  facet normal -0.315803 -0.444359 0.83834
    outer loop
      vertex -2.4 -41.8564 1.89576
      vertex -2.4 -41.5502 2.05806
      vertex -4.8 -41.1378 1.37257
    endloop
  endfacet
  facet normal -0.315824 -0.444483 0.838266
    outer loop
      vertex -2.4 -41.8564 1.89576
      vertex -4.8 -41.1378 1.37257
      vertex -4.8 -41.5204 1.1697
    endloop
  endfacet
  facet normal -0.315823 -0.351272 0.881399
    outer loop
      vertex -2.4 -42.1782 1.76751
      vertex -2.4 -41.8564 1.89576
      vertex -4.8 -41.5204 1.1697
    endloop
  endfacet
  facet normal -0.315805 -0.351157 0.881451
    outer loop
      vertex -2.4 -42.1782 1.76751
      vertex -4.8 -41.5204 1.1697
      vertex -4.8 -41.9228 1.00939
    endloop
  endfacet
  facet normal -0.315805 -0.25382 0.914244
    outer loop
      vertex -2.4 -42.5121 1.67481
      vertex -2.4 -42.1782 1.76751
      vertex -4.8 -41.9228 1.00939
    endloop
  endfacet
  facet normal -0.315811 -0.253858 0.914232
    outer loop
      vertex -2.4 -42.5121 1.67481
      vertex -4.8 -41.9228 1.00939
      vertex -4.8 -42.3401 0.893517
    endloop
  endfacet
  facet normal -0.31581 -0.153498 0.936324
    outer loop
      vertex -2.4 -42.854 1.61876
      vertex -2.4 -42.5121 1.67481
      vertex -4.8 -42.3401 0.893517
    endloop
  endfacet
  facet normal -0.315811 -0.153503 0.936323
    outer loop
      vertex -2.4 -42.854 1.61876
      vertex -4.8 -42.3401 0.893517
      vertex -4.8 -42.7675 0.823448
    endloop
  endfacet
  facet normal -0.315811 -0.0513694 0.947431
    outer loop
      vertex -2.4 -43.2 1.6
      vertex -2.4 -42.854 1.61876
      vertex -4.8 -42.7675 0.823448
    endloop
  endfacet
  facet normal -0.315811 -0.0513672 0.947431
    outer loop
      vertex -2.4 -43.2 1.6
      vertex -4.8 -42.7675 0.823448
      vertex -4.8 -43.2 0.799999
    endloop
  endfacet
  facet normal -0.315811 0.0513694 0.947431
    outer loop
      vertex -2.4 -43.546 1.61876
      vertex -2.4 -43.2 1.6
      vertex -4.8 -43.2 0.799999
    endloop
  endfacet
  facet normal -0.315811 0.0513672 0.947431
    outer loop
      vertex -4.8 -43.6325 0.823448
      vertex -2.4 -43.546 1.61876
      vertex -4.8 -43.2 0.799999
    endloop
  endfacet
  facet normal -0.315811 0.153498 0.936323
    outer loop
      vertex -2.4 -43.8879 1.67481
      vertex -2.4 -43.546 1.61876
      vertex -4.8 -43.6325 0.823448
    endloop
  endfacet
  facet normal -0.31581 0.153503 0.936323
    outer loop
      vertex -4.8 -44.0599 0.893517
      vertex -2.4 -43.8879 1.67481
      vertex -4.8 -43.6325 0.823448
    endloop
  endfacet
  facet normal -0.315812 0.253819 0.914242
    outer loop
      vertex -2.4 -44.2218 1.76751
      vertex -2.4 -43.8879 1.67481
      vertex -4.8 -44.0599 0.893517
    endloop
  endfacet
  facet normal -0.315806 0.253858 0.914233
    outer loop
      vertex -4.8 -44.4772 1.00939
      vertex -2.4 -44.2218 1.76751
      vertex -4.8 -44.0599 0.893517
    endloop
  endfacet
  facet normal -0.315803 0.351275 0.881405
    outer loop
      vertex -2.4 -44.5436 1.89576
      vertex -2.4 -44.2218 1.76751
      vertex -4.8 -44.4772 1.00939
    endloop
  endfacet
  facet normal -0.315821 0.351155 0.881446
    outer loop
      vertex -4.8 -44.8796 1.1697
      vertex -2.4 -44.5436 1.89576
      vertex -4.8 -44.4772 1.00939
    endloop
  endfacet
  facet normal -0.315826 0.444355 0.838333
    outer loop
      vertex -2.4 -44.8498 2.05806
      vertex -2.4 -44.5436 1.89576
      vertex -4.8 -44.8796 1.1697
    endloop
  endfacet
  facet normal -0.315805 0.444486 0.838272
    outer loop
      vertex -4.8 -45.2622 1.37257
      vertex -2.4 -44.8498 2.05806
      vertex -4.8 -44.8796 1.1697
    endloop
  endfacet
  facet normal -0.315803 0.53244 0.785351
    outer loop
      vertex -2.4 -45.1366 2.2525
      vertex -2.4 -44.8498 2.05806
      vertex -4.8 -45.2622 1.37257
    endloop
  endfacet
  facet normal -0.315801 0.532455 0.785342
    outer loop
      vertex -4.8 -45.6207 1.61563
      vertex -2.4 -45.1366 2.2525
      vertex -4.8 -45.2622 1.37257
    endloop
  endfacet
  facet normal -0.315798 0.614363 0.72307
    outer loop
      vertex -2.4 -45.4006 2.47681
      vertex -2.4 -45.1366 2.2525
      vertex -4.8 -45.6207 1.61563
    endloop
  endfacet
  facet normal -0.315818 0.614254 0.723154
    outer loop
      vertex -4.8 -45.9508 1.89602
      vertex -2.4 -45.4006 2.47681
      vertex -4.8 -45.6207 1.61563
    endloop
  endfacet
  facet normal -0.31582 0.688812 0.65253
    outer loop
      vertex -2.4 -45.6389 2.72836
      vertex -2.4 -45.4006 2.47681
      vertex -4.8 -45.9508 1.89602
    endloop
  endfacet
  facet normal -0.315804 0.68889 0.652455
    outer loop
      vertex -4.8 -46.2486 2.21045
      vertex -2.4 -45.6389 2.72836
      vertex -4.8 -45.9508 1.89602
    endloop
  endfacet
  facet normal -0.315803 0.755337 0.574225
    outer loop
      vertex -2.4 -45.8486 3.0042
      vertex -2.4 -45.6389 2.72836
      vertex -4.8 -46.2486 2.21045
    endloop
  endfacet
  facet normal -0.315822 0.755253 0.574325
    outer loop
      vertex -4.8 -46.5108 2.55525
      vertex -2.4 -45.8486 3.0042
      vertex -4.8 -46.2486 2.21045
    endloop
  endfacet
  facet normal -0.315824 0.813041 0.489101
    outer loop
      vertex -2.4 -46.0272 3.30109
      vertex -2.4 -45.8486 3.0042
      vertex -4.8 -46.5108 2.55525
    endloop
  endfacet
  facet normal -0.315809 0.813098 0.489016
    outer loop
      vertex -4.8 -46.734 2.92637
      vertex -2.4 -46.0272 3.30109
      vertex -4.8 -46.5108 2.55525
    endloop
  endfacet
  facet normal -0.315807 0.861118 0.398425
    outer loop
      vertex -2.4 -46.1727 3.61556
      vertex -2.4 -46.0272 3.30109
      vertex -4.8 -46.734 2.92637
    endloop
  endfacet
  facet normal -0.315815 0.861092 0.398475
    outer loop
      vertex -4.8 -46.9159 3.31945
      vertex -2.4 -46.1727 3.61556
      vertex -4.8 -46.734 2.92637
    endloop
  endfacet
  facet normal -0.315819 0.899097 0.303122
    outer loop
      vertex -2.4 -46.2834 3.94391
      vertex -2.4 -46.1727 3.61556
      vertex -4.8 -46.9159 3.31945
    endloop
  endfacet
  facet normal -0.315796 0.899155 0.302975
    outer loop
      vertex -4.8 -47.0542 3.72989
      vertex -2.4 -46.2834 3.94391
      vertex -4.8 -46.9159 3.31945
    endloop
  endfacet
  facet normal -0.315792 0.926694 0.203747
    outer loop
      vertex -2.4 -46.3578 4.2823
      vertex -2.4 -46.2834 3.94391
      vertex -4.8 -47.0542 3.72989
    endloop
  endfacet
  facet normal -0.315824 0.926637 0.203957
    outer loop
      vertex -4.8 -47.1473 4.15287
      vertex -2.4 -46.3578 4.2823
      vertex -4.8 -47.0542 3.72989
    endloop
  endfacet
  facet normal -0.315826 0.943244 0.102687
    outer loop
      vertex -2.4 -46.3953 4.62676
      vertex -2.4 -46.3578 4.2823
      vertex -4.8 -47.1473 4.15287
    endloop
  endfacet
  facet normal -0.315802 0.943269 0.102527
    outer loop
      vertex -4.8 -47.1941 4.58344
      vertex -2.4 -46.3953 4.62676
      vertex -4.8 -47.1473 4.15287
    endloop
  endfacet
  facet normal -0.315801 0.948826 0
    outer loop
      vertex -2.4 -46.3953 4.62676
      vertex -4.8 -47.1941 5.01656
      vertex -2.4 -46.3953 4.97324
    endloop
  endfacet
  facet normal -0.315801 0.948826 0
    outer loop
      vertex -4.8 -47.1941 5.01656
      vertex -2.4 -46.3953 4.62676
      vertex -4.8 -47.1941 4.58344
    endloop
  endfacet
  facet normal -0.315799 0.943253 -0.102688
    outer loop
      vertex -4.8 -47.1941 5.01656
      vertex -2.4 -46.3578 5.3177
      vertex -2.4 -46.3953 4.97324
    endloop
  endfacet
  facet normal -0.315823 0.943262 -0.102526
    outer loop
      vertex -4.8 -47.1473 5.44713
      vertex -2.4 -46.3578 5.3177
      vertex -4.8 -47.1941 5.01656
    endloop
  endfacet
  facet normal -0.315828 0.926683 -0.203745
    outer loop
      vertex -4.8 -47.1473 5.44713
      vertex -2.4 -46.2834 5.65609
      vertex -2.4 -46.3578 5.3177
    endloop
  endfacet
  facet normal -0.315796 0.926646 -0.203959
    outer loop
      vertex -4.8 -47.0542 5.87011
      vertex -2.4 -46.2834 5.65609
      vertex -4.8 -47.1473 5.44713
    endloop
  endfacet
  facet normal -0.315794 0.899105 -0.303124
    outer loop
      vertex -4.8 -47.0542 5.87011
      vertex -2.4 -46.1727 5.98444
      vertex -2.4 -46.2834 5.65609
    endloop
  endfacet
  facet normal -0.315817 0.899148 -0.302973
    outer loop
      vertex -4.8 -46.9159 6.28055
      vertex -2.4 -46.1727 5.98444
      vertex -4.8 -47.0542 5.87011
    endloop
  endfacet
  facet normal -0.315816 0.861115 -0.398423
    outer loop
      vertex -4.8 -46.9159 6.28055
      vertex -2.4 -46.0272 6.29891
      vertex -2.4 -46.1727 5.98444
    endloop
  endfacet
  facet normal -0.315808 0.861094 -0.398476
    outer loop
      vertex -4.8 -46.734 6.67363
      vertex -2.4 -46.0272 6.29891
      vertex -4.8 -46.9159 6.28055
    endloop
  endfacet
  facet normal -0.315807 0.813046 -0.489104
    outer loop
      vertex -4.8 -46.734 6.67363
      vertex -2.4 -45.8486 6.5958
      vertex -2.4 -46.0272 6.29891
    endloop
  endfacet
  facet normal -0.315822 0.813094 -0.489013
    outer loop
      vertex -4.8 -46.734 6.67363
      vertex -4.8 -46.5108 7.04475
      vertex -2.4 -45.8486 6.5958
    endloop
  endfacet
  facet normal -0.315824 0.755332 -0.574221
    outer loop
      vertex -4.8 -46.5108 7.04475
      vertex -2.4 -45.6389 6.87164
      vertex -2.4 -45.8486 6.5958
    endloop
  endfacet
  facet normal -0.315805 0.755258 -0.574329
    outer loop
      vertex -4.8 -46.5108 7.04475
      vertex -4.8 -46.2486 7.38955
      vertex -2.4 -45.6389 6.87164
    endloop
  endfacet
  facet normal -0.315802 0.688816 -0.652534
    outer loop
      vertex -4.8 -46.2486 7.38955
      vertex -2.4 -45.4006 7.12319
      vertex -2.4 -45.6389 6.87164
    endloop
  endfacet
  facet normal -0.315818 0.688887 -0.652452
    outer loop
      vertex -4.8 -46.2486 7.38955
      vertex -4.8 -45.9508 7.70398
      vertex -2.4 -45.4006 7.12319
    endloop
  endfacet
  facet normal -0.31582 0.614358 -0.723064
    outer loop
      vertex -4.8 -45.9508 7.70398
      vertex -2.4 -45.1366 7.3475
      vertex -2.4 -45.4006 7.12319
    endloop
  endfacet
  facet normal -0.3158 0.614257 -0.723158
    outer loop
      vertex -4.8 -45.9508 7.70398
      vertex -4.8 -45.6207 7.98437
      vertex -2.4 -45.1366 7.3475
    endloop
  endfacet
  facet normal -0.315801 0.53244 -0.785352
    outer loop
      vertex -4.8 -45.6207 7.98437
      vertex -2.4 -44.8498 7.54194
      vertex -2.4 -45.1366 7.3475
    endloop
  endfacet
  facet normal -0.315803 0.532455 -0.785341
    outer loop
      vertex -4.8 -45.6207 7.98437
      vertex -4.8 -45.2622 8.22743
      vertex -2.4 -44.8498 7.54194
    endloop
  endfacet
  facet normal -0.315803 0.444359 -0.83834
    outer loop
      vertex -4.8 -45.2622 8.22743
      vertex -2.4 -44.5436 7.70424
      vertex -2.4 -44.8498 7.54194
    endloop
  endfacet
  facet normal -0.315824 0.444483 -0.838266
    outer loop
      vertex -4.8 -45.2622 8.22743
      vertex -4.8 -44.8796 8.4303
      vertex -2.4 -44.5436 7.70424
    endloop
  endfacet
  facet normal -0.315823 0.351272 -0.881399
    outer loop
      vertex -4.8 -44.8796 8.4303
      vertex -2.4 -44.2218 7.83249
      vertex -2.4 -44.5436 7.70424
    endloop
  endfacet
  facet normal -0.315805 0.351157 -0.881451
    outer loop
      vertex -4.8 -44.8796 8.4303
      vertex -4.8 -44.4772 8.59061
      vertex -2.4 -44.2218 7.83249
    endloop
  endfacet
  facet normal -0.315805 0.25382 -0.914244
    outer loop
      vertex -4.8 -44.4772 8.59061
      vertex -2.4 -43.8879 7.92519
      vertex -2.4 -44.2218 7.83249
    endloop
  endfacet
  facet normal -0.31581 0.253852 -0.914234
    outer loop
      vertex -4.8 -44.4772 8.59061
      vertex -4.8 -44.0599 8.70648
      vertex -2.4 -43.8879 7.92519
    endloop
  endfacet
  facet normal -0.315809 0.153498 -0.936324
    outer loop
      vertex -4.8 -44.0599 8.70648
      vertex -2.4 -43.546 7.98124
      vertex -2.4 -43.8879 7.92519
    endloop
  endfacet
  facet normal -0.31581 0.153505 -0.936323
    outer loop
      vertex -4.8 -44.0599 8.70648
      vertex -4.8 -43.6325 8.77655
      vertex -2.4 -43.546 7.98124
    endloop
  endfacet
  facet normal -0.31581 0.0513694 -0.947431
    outer loop
      vertex -4.8 -43.6325 8.77655
      vertex -2.4 -43.2 8
      vertex -2.4 -43.546 7.98124
    endloop
  endfacet
  facet normal -0.31581 0.0513694 -0.947431
    outer loop
      vertex -4.8 -43.6325 8.77655
      vertex -4.8 -43.2 8.8
      vertex -2.4 -43.2 8
    endloop
  endfacet
  facet normal -0.31581 -0.0513694 -0.947431
    outer loop
      vertex -2.4 -43.2 8
      vertex -4.8 -43.2 8.8
      vertex -2.4 -42.854 7.98124
    endloop
  endfacet
  facet normal -0.31581 -0.0513694 -0.947431
    outer loop
      vertex -4.8 -43.2 8.8
      vertex -4.8 -42.7675 8.77655
      vertex -2.4 -42.854 7.98124
    endloop
  endfacet
  facet normal -0 0 1
    outer loop
      vertex -4.8 -38.4 9.6
      vertex 0 -48 9.6
      vertex 0 -38.4 9.6
    endloop
  endfacet
  facet normal 0 0 1
    outer loop
      vertex 0 -48 9.6
      vertex -4.8 -38.4 9.6
      vertex -4.8 -48 9.6
    endloop
  endfacet
  facet normal 0 1 -0
    outer loop
      vertex 0 -38.4 8
      vertex -4.8 -38.4 9.6
      vertex 0 -38.4 9.6
    endloop
  endfacet
  facet normal 0 1 0
    outer loop
      vertex -4.8 -38.4 9.6
      vertex 0 -38.4 8
      vertex -4.8 -38.4 8
    endloop
  endfacet
endsolid OpenSCAD_Model
