solid OpenSCAD_Model
  facet normal 0 1 -0
    outer loop
      vertex 0 9.6 0.7
      vertex -9.6 9.6 2.4
      vertex 0 9.6 2.4
    endloop
  endfacet
  facet normal 0 1 0
    outer loop
      vertex -9.6 9.6 0
      vertex 0 9.6 0.7
      vertex 0 9.6 0
    endloop
  endfacet
  facet normal 0 1 0
    outer loop
      vertex 0 9.6 0.7
      vertex -9.6 9.6 0
      vertex -9.6 9.6 2.4
    endloop
  endfacet
  facet normal 0 0 1
    outer loop
      vertex 0 9.6 2.4
      vertex -1.6 4.8 2.4
      vertex 0 0 2.4
    endloop
  endfacet
  facet normal 0 0 1
    outer loop
      vertex 0 9.6 2.4
      vertex -1.61876 5.14598 2.4
      vertex -1.6 4.8 2.4
    endloop
  endfacet
  facet normal 0 0 1
    outer loop
      vertex 0 9.6 2.4
      vertex -1.67481 5.48791 2.4
      vertex -1.61876 5.14598 2.4
    endloop
  endfacet
  facet normal 0 0 1
    outer loop
      vertex 0 9.6 2.4
      vertex -1.76751 5.82176 2.4
      vertex -1.67481 5.48791 2.4
    endloop
  endfacet
  facet normal 0 0 1
    outer loop
      vertex 0 9.6 2.4
      vertex -1.89576 6.14365 2.4
      vertex -1.76751 5.82176 2.4
    endloop
  endfacet
  facet normal 0 0 1
    outer loop
      vertex 0 9.6 2.4
      vertex -2.05806 6.44977 2.4
      vertex -1.89576 6.14365 2.4
    endloop
  endfacet
  facet normal 0 0 1
    outer loop
      vertex 0 9.6 2.4
      vertex -2.2525 6.73656 2.4
      vertex -2.05806 6.44977 2.4
    endloop
  endfacet
  facet normal 0 0 1
    outer loop
      vertex 0 9.6 2.4
      vertex -2.47681 7.00064 2.4
      vertex -2.2525 6.73656 2.4
    endloop
  endfacet
  facet normal 0 0 1
    outer loop
      vertex 0 9.6 2.4
      vertex -2.72836 7.23892 2.4
      vertex -2.47681 7.00064 2.4
    endloop
  endfacet
  facet normal 0 0 1
    outer loop
      vertex 0 9.6 2.4
      vertex -3.0042 7.4486 2.4
      vertex -2.72836 7.23892 2.4
    endloop
  endfacet
  facet normal 0 0 1
    outer loop
      vertex 0 9.6 2.4
      vertex -3.30109 7.62724 2.4
      vertex -3.0042 7.4486 2.4
    endloop
  endfacet
  facet normal 0 0 1
    outer loop
      vertex 0 9.6 2.4
      vertex -3.61556 7.77273 2.4
      vertex -3.30109 7.62724 2.4
    endloop
  endfacet
  facet normal 0 0 1
    outer loop
      vertex 0 9.6 2.4
      vertex -3.94391 7.88336 2.4
      vertex -3.61556 7.77273 2.4
    endloop
  endfacet
  facet normal 0 0 1
    outer loop
      vertex 0 9.6 2.4
      vertex -4.2823 7.95784 2.4
      vertex -3.94391 7.88336 2.4
    endloop
  endfacet
  facet normal 0 0 1
    outer loop
      vertex 0 9.6 2.4
      vertex -4.62675 7.99531 2.4
      vertex -4.2823 7.95784 2.4
    endloop
  endfacet
  facet normal 0 0 1
    outer loop
      vertex 0 9.6 2.4
      vertex -4.97324 7.99531 2.4
      vertex -4.62675 7.99531 2.4
    endloop
  endfacet
  facet normal -0 0 1
    outer loop
      vertex -9.6 9.6 2.4
      vertex -4.97324 7.99531 2.4
      vertex 0 9.6 2.4
    endloop
  endfacet
  facet normal 0 0 1
    outer loop
      vertex -4.97324 7.99531 2.4
      vertex -9.6 9.6 2.4
      vertex -5.3177 7.95784 2.4
    endloop
  endfacet
  facet normal 0 0 1
    outer loop
      vertex -7.98124 5.14598 2.4
      vertex -9.6 9.6 2.4
      vertex -8 4.8 2.4
    endloop
  endfacet
  facet normal 0 0 1
    outer loop
      vertex -7.92519 5.48791 2.4
      vertex -9.6 9.6 2.4
      vertex -7.98124 5.14598 2.4
    endloop
  endfacet
  facet normal 0 0 1
    outer loop
      vertex -7.83249 5.82176 2.4
      vertex -9.6 9.6 2.4
      vertex -7.92519 5.48791 2.4
    endloop
  endfacet
  facet normal 0 0 1
    outer loop
      vertex -7.70424 6.14365 2.4
      vertex -9.6 9.6 2.4
      vertex -7.83249 5.82176 2.4
    endloop
  endfacet
  facet normal 0 0 1
    outer loop
      vertex -7.54194 6.44977 2.4
      vertex -9.6 9.6 2.4
      vertex -7.70424 6.14365 2.4
    endloop
  endfacet
  facet normal 0 0 1
    outer loop
      vertex -7.3475 6.73656 2.4
      vertex -9.6 9.6 2.4
      vertex -7.54194 6.44977 2.4
    endloop
  endfacet
  facet normal 0 0 1
    outer loop
      vertex -7.12319 7.00064 2.4
      vertex -9.6 9.6 2.4
      vertex -7.3475 6.73656 2.4
    endloop
  endfacet
  facet normal 0 0 1
    outer loop
      vertex -6.87164 7.23892 2.4
      vertex -9.6 9.6 2.4
      vertex -7.12319 7.00064 2.4
    endloop
  endfacet
  facet normal 0 0 1
    outer loop
      vertex -6.5958 7.4486 2.4
      vertex -9.6 9.6 2.4
      vertex -6.87164 7.23892 2.4
    endloop
  endfacet
  facet normal 0 0 1
    outer loop
      vertex -6.29891 7.62724 2.4
      vertex -9.6 9.6 2.4
      vertex -6.5958 7.4486 2.4
    endloop
  endfacet
  facet normal 0 0 1
    outer loop
      vertex -5.98444 7.77273 2.4
      vertex -9.6 9.6 2.4
      vertex -6.29891 7.62724 2.4
    endloop
  endfacet
  facet normal 0 0 1
    outer loop
      vertex -5.65609 7.88336 2.4
      vertex -9.6 9.6 2.4
      vertex -5.98444 7.77273 2.4
    endloop
  endfacet
  facet normal 0 0 1
    outer loop
      vertex -5.3177 7.95784 2.4
      vertex -9.6 9.6 2.4
      vertex -5.65609 7.88336 2.4
    endloop
  endfacet
  facet normal -0 0 1
    outer loop
      vertex -1.61876 4.45402 2.4
      vertex 0 0 2.4
      vertex -1.6 4.8 2.4
    endloop
  endfacet
  facet normal -0 0 1
    outer loop
      vertex -1.67481 4.11209 2.4
      vertex 0 0 2.4
      vertex -1.61876 4.45402 2.4
    endloop
  endfacet
  facet normal -0 0 1
    outer loop
      vertex -1.76751 3.77823 2.4
      vertex 0 0 2.4
      vertex -1.67481 4.11209 2.4
    endloop
  endfacet
  facet normal -0 0 1
    outer loop
      vertex -1.89576 3.45635 2.4
      vertex 0 0 2.4
      vertex -1.76751 3.77823 2.4
    endloop
  endfacet
  facet normal -0 0 1
    outer loop
      vertex -2.05806 3.15023 2.4
      vertex 0 0 2.4
      vertex -1.89576 3.45635 2.4
    endloop
  endfacet
  facet normal -0 0 1
    outer loop
      vertex -2.2525 2.86344 2.4
      vertex 0 0 2.4
      vertex -2.05806 3.15023 2.4
    endloop
  endfacet
  facet normal -0 0 1
    outer loop
      vertex -2.47681 2.59936 2.4
      vertex 0 0 2.4
      vertex -2.2525 2.86344 2.4
    endloop
  endfacet
  facet normal -0 0 1
    outer loop
      vertex -2.72836 2.36108 2.4
      vertex 0 0 2.4
      vertex -2.47681 2.59936 2.4
    endloop
  endfacet
  facet normal -0 0 1
    outer loop
      vertex -3.0042 2.15139 2.4
      vertex 0 0 2.4
      vertex -2.72836 2.36108 2.4
    endloop
  endfacet
  facet normal -0 0 1
    outer loop
      vertex -3.30109 1.97276 2.4
      vertex 0 0 2.4
      vertex -3.0042 2.15139 2.4
    endloop
  endfacet
  facet normal -0 0 1
    outer loop
      vertex -3.61556 1.82727 2.4
      vertex 0 0 2.4
      vertex -3.30109 1.97276 2.4
    endloop
  endfacet
  facet normal -0 0 1
    outer loop
      vertex -3.94391 1.71664 2.4
      vertex 0 0 2.4
      vertex -3.61556 1.82727 2.4
    endloop
  endfacet
  facet normal -0 0 1
    outer loop
      vertex -4.2823 1.64216 2.4
      vertex 0 0 2.4
      vertex -3.94391 1.71664 2.4
    endloop
  endfacet
  facet normal -0 0 1
    outer loop
      vertex -4.62675 1.60469 2.4
      vertex 0 0 2.4
      vertex -4.2823 1.64216 2.4
    endloop
  endfacet
  facet normal -0 0 1
    outer loop
      vertex -4.97324 1.60469 2.4
      vertex 0 0 2.4
      vertex -4.62675 1.60469 2.4
    endloop
  endfacet
  facet normal 0 0 1
    outer loop
      vertex -9.6 0 2.4
      vertex -4.97324 1.60469 2.4
      vertex -5.3177 1.64216 2.4
    endloop
  endfacet
  facet normal 0 0 1
    outer loop
      vertex -9.6 0 2.4
      vertex -5.3177 1.64216 2.4
      vertex -5.65609 1.71664 2.4
    endloop
  endfacet
  facet normal 0 0 1
    outer loop
      vertex -9.6 0 2.4
      vertex -8 4.8 2.4
      vertex -9.6 9.6 2.4
    endloop
  endfacet
  facet normal 0 0 1
    outer loop
      vertex -8 4.8 2.4
      vertex -9.6 0 2.4
      vertex -7.98124 4.45402 2.4
    endloop
  endfacet
  facet normal 0 0 1
    outer loop
      vertex -7.98124 4.45402 2.4
      vertex -9.6 0 2.4
      vertex -7.92519 4.11209 2.4
    endloop
  endfacet
  facet normal 0 0 1
    outer loop
      vertex -4.97324 1.60469 2.4
      vertex -9.6 0 2.4
      vertex 0 0 2.4
    endloop
  endfacet
  facet normal 0 0 1
    outer loop
      vertex -5.98444 1.82727 2.4
      vertex -9.6 0 2.4
      vertex -5.65609 1.71664 2.4
    endloop
  endfacet
  facet normal 0 0 1
    outer loop
      vertex -6.29891 1.97276 2.4
      vertex -9.6 0 2.4
      vertex -5.98444 1.82727 2.4
    endloop
  endfacet
  facet normal 0 0 1
    outer loop
      vertex -6.5958 2.15139 2.4
      vertex -9.6 0 2.4
      vertex -6.29891 1.97276 2.4
    endloop
  endfacet
  facet normal 0 0 1
    outer loop
      vertex -6.87164 2.36108 2.4
      vertex -9.6 0 2.4
      vertex -6.5958 2.15139 2.4
    endloop
  endfacet
  facet normal 0 0 1
    outer loop
      vertex -7.12319 2.59936 2.4
      vertex -9.6 0 2.4
      vertex -6.87164 2.36108 2.4
    endloop
  endfacet
  facet normal 0 0 1
    outer loop
      vertex -7.3475 2.86344 2.4
      vertex -9.6 0 2.4
      vertex -7.12319 2.59936 2.4
    endloop
  endfacet
  facet normal 0 0 1
    outer loop
      vertex -7.54194 3.15023 2.4
      vertex -9.6 0 2.4
      vertex -7.3475 2.86344 2.4
    endloop
  endfacet
  facet normal 0 0 1
    outer loop
      vertex -7.70424 3.45635 2.4
      vertex -9.6 0 2.4
      vertex -7.54194 3.15023 2.4
    endloop
  endfacet
  facet normal 0 0 1
    outer loop
      vertex -7.83249 3.77823 2.4
      vertex -9.6 0 2.4
      vertex -7.70424 3.45635 2.4
    endloop
  endfacet
  facet normal 0 0 1
    outer loop
      vertex -7.92519 4.11209 2.4
      vertex -9.6 0 2.4
      vertex -7.83249 3.77823 2.4
    endloop
  endfacet
  facet normal -1 0 0
    outer loop
      vertex -9.6 0 0
      vertex -9.6 9.6 2.4
      vertex -9.6 9.6 0
    endloop
  endfacet
  facet normal -1 -0 0
    outer loop
      vertex -9.6 9.6 2.4
      vertex -9.6 0 0
      vertex -9.6 0 2.4
    endloop
  endfacet
  facet normal 0 0 -1
    outer loop
      vertex 48 0 0
      vertex 47.2 4.8 0
      vertex 48 9.6 0
    endloop
  endfacet
  facet normal 0 0 -1
    outer loop
      vertex 48 0 0
      vertex 47.1766 4.36752 0
      vertex 47.2 4.8 0
    endloop
  endfacet
  facet normal 0 0 -1
    outer loop
      vertex 48 0 0
      vertex 47.1065 3.94012 0
      vertex 47.1766 4.36752 0
    endloop
  endfacet
  facet normal 0 0 -1
    outer loop
      vertex 48 0 0
      vertex 46.9906 3.52279 0
      vertex 47.1065 3.94012 0
    endloop
  endfacet
  facet normal 0 0 -1
    outer loop
      vertex 48 0 0
      vertex 46.8303 3.12044 0
      vertex 46.9906 3.52279 0
    endloop
  endfacet
  facet normal 0 0 -1
    outer loop
      vertex 48 0 0
      vertex 46.6274 2.73779 0
      vertex 46.8303 3.12044 0
    endloop
  endfacet
  facet normal 0 0 -1
    outer loop
      vertex 48 0 0
      vertex 46.3844 2.3793 0
      vertex 46.6274 2.73779 0
    endloop
  endfacet
  facet normal 0 0 -1
    outer loop
      vertex 48 0 0
      vertex 46.104 2.0492 0
      vertex 46.3844 2.3793 0
    endloop
  endfacet
  facet normal 0 0 -1
    outer loop
      vertex 48 0 0
      vertex 45.7895 1.75135 0
      vertex 46.104 2.0492 0
    endloop
  endfacet
  facet normal 0 0 -1
    outer loop
      vertex 48 0 0
      vertex 45.4447 1.48924 0
      vertex 45.7895 1.75135 0
    endloop
  endfacet
  facet normal 0 0 -1
    outer loop
      vertex 48 0 0
      vertex 45.0736 1.26595 0
      vertex 45.4447 1.48924 0
    endloop
  endfacet
  facet normal 0 0 -1
    outer loop
      vertex 48 0 0
      vertex 44.6805 1.08409 0
      vertex 45.0736 1.26595 0
    endloop
  endfacet
  facet normal 0 0 -1
    outer loop
      vertex 48 0 0
      vertex 44.2701 0.945798 0
      vertex 44.6805 1.08409 0
    endloop
  endfacet
  facet normal 0 0 -1
    outer loop
      vertex 48 0 0
      vertex 43.8471 0.852692 0
      vertex 44.2701 0.945798 0
    endloop
  endfacet
  facet normal 0 0 -1
    outer loop
      vertex 48 0 0
      vertex 43.4166 0.805864 0
      vertex 43.8471 0.852692 0
    endloop
  endfacet
  facet normal 0 0 -1
    outer loop
      vertex 48 0 0
      vertex 42.9834 0.805864 0
      vertex 43.4166 0.805864 0
    endloop
  endfacet
  facet normal 0 0 -1
    outer loop
      vertex 48 0 0
      vertex 42.5529 0.852692 0
      vertex 42.9834 0.805864 0
    endloop
  endfacet
  facet normal 0 0 -1
    outer loop
      vertex -0.799999 4.8 0
      vertex 39.2 4.8 0
      vertex 39.2234 4.36752 0
    endloop
  endfacet
  facet normal 0 0 -1
    outer loop
      vertex 39.2 4.8 0
      vertex 0 9.6 0
      vertex 38.4 9.6 0
    endloop
  endfacet
  facet normal 0 0 -1
    outer loop
      vertex -0.823447 4.36752 0
      vertex 39.2234 4.36752 0
      vertex 39.2935 3.94012 0
    endloop
  endfacet
  facet normal 0 0 -1
    outer loop
      vertex -0.893517 3.94012 0
      vertex 39.2935 3.94012 0
      vertex 39.4094 3.52279 0
    endloop
  endfacet
  facet normal 0 0 -1
    outer loop
      vertex -1.00939 3.52279 0
      vertex 39.4094 3.52279 0
      vertex 39.5697 3.12044 0
    endloop
  endfacet
  facet normal 0 0 -1
    outer loop
      vertex -1.1697 3.12044 0
      vertex 39.5697 3.12044 0
      vertex 39.7726 2.73779 0
    endloop
  endfacet
  facet normal 0 0 -1
    outer loop
      vertex -1.37257 2.73779 0
      vertex 39.7726 2.73779 0
      vertex 40.0156 2.3793 0
    endloop
  endfacet
  facet normal 0 0 -1
    outer loop
      vertex -1.61563 2.3793 0
      vertex 40.0156 2.3793 0
      vertex 40.296 2.0492 0
    endloop
  endfacet
  facet normal 0 0 -1
    outer loop
      vertex -1.89602 2.0492 0
      vertex 40.296 2.0492 0
      vertex 40.6105 1.75135 0
    endloop
  endfacet
  facet normal 0 0 -1
    outer loop
      vertex -2.21045 1.75135 0
      vertex 40.6105 1.75135 0
      vertex 40.9553 1.48924 0
    endloop
  endfacet
  facet normal 0 0 -1
    outer loop
      vertex -2.55525 1.48924 0
      vertex 40.9553 1.48924 0
      vertex 41.3264 1.26595 0
    endloop
  endfacet
  facet normal 0 0 -1
    outer loop
      vertex -2.92637 1.26595 0
      vertex 41.3264 1.26595 0
      vertex 41.7194 1.08409 0
    endloop
  endfacet
  facet normal 0 0 -1
    outer loop
      vertex -3.31945 1.08409 0
      vertex 41.7194 1.08409 0
      vertex 42.1299 0.945798 0
    endloop
  endfacet
  facet normal 0 0 -1
    outer loop
      vertex -3.72989 0.945798 0
      vertex 42.1299 0.945798 0
      vertex 42.5529 0.852692 0
    endloop
  endfacet
  facet normal 0 0 -1
    outer loop
      vertex 39.2 4.8 0
      vertex -0.799999 4.8 0
      vertex 0 9.6 0
    endloop
  endfacet
  facet normal 0 0 -1
    outer loop
      vertex -4.15287 0.852692 0
      vertex 42.5529 0.852692 0
      vertex 48 0 0
    endloop
  endfacet
  facet normal 0 0 -1
    outer loop
      vertex 39.2234 4.36752 0
      vertex -0.823447 4.36752 0
      vertex -0.799999 4.8 0
    endloop
  endfacet
  facet normal 0 0 -1
    outer loop
      vertex 39.2935 3.94012 0
      vertex -0.893517 3.94012 0
      vertex -0.823447 4.36752 0
    endloop
  endfacet
  facet normal 0 0 -1
    outer loop
      vertex 39.4094 3.52279 0
      vertex -1.00939 3.52279 0
      vertex -0.893517 3.94012 0
    endloop
  endfacet
  facet normal 0 0 -1
    outer loop
      vertex 39.5697 3.12044 0
      vertex -1.1697 3.12044 0
      vertex -1.00939 3.52279 0
    endloop
  endfacet
  facet normal 0 0 -1
    outer loop
      vertex 39.7726 2.73779 0
      vertex -1.37257 2.73779 0
      vertex -1.1697 3.12044 0
    endloop
  endfacet
  facet normal 0 0 -1
    outer loop
      vertex 40.0156 2.3793 0
      vertex -1.61563 2.3793 0
      vertex -1.37257 2.73779 0
    endloop
  endfacet
  facet normal 0 0 -1
    outer loop
      vertex 40.296 2.0492 0
      vertex -1.89602 2.0492 0
      vertex -1.61563 2.3793 0
    endloop
  endfacet
  facet normal 0 0 -1
    outer loop
      vertex 40.6105 1.75135 0
      vertex -2.21045 1.75135 0
      vertex -1.89602 2.0492 0
    endloop
  endfacet
  facet normal 0 0 -1
    outer loop
      vertex 40.9553 1.48924 0
      vertex -2.55525 1.48924 0
      vertex -2.21045 1.75135 0
    endloop
  endfacet
  facet normal 0 0 -1
    outer loop
      vertex 41.3264 1.26595 0
      vertex -2.92637 1.26595 0
      vertex -2.55525 1.48924 0
    endloop
  endfacet
  facet normal 0 0 -1
    outer loop
      vertex 41.7194 1.08409 0
      vertex -3.31945 1.08409 0
      vertex -2.92637 1.26595 0
    endloop
  endfacet
  facet normal 0 0 -1
    outer loop
      vertex 42.1299 0.945798 0
      vertex -3.72989 0.945798 0
      vertex -3.31945 1.08409 0
    endloop
  endfacet
  facet normal 0 0 -1
    outer loop
      vertex 42.5529 0.852692 0
      vertex -4.15287 0.852692 0
      vertex -3.72989 0.945798 0
    endloop
  endfacet
  facet normal 0 0 -1
    outer loop
      vertex -9.6 0 0
      vertex -4.15287 0.852692 0
      vertex 48 0 0
    endloop
  endfacet
  facet normal 0 0 -1
    outer loop
      vertex -4.15287 0.852692 0
      vertex -9.6 0 0
      vertex -4.58344 0.805864 0
    endloop
  endfacet
  facet normal -0 0 -1
    outer loop
      vertex -8.77655 4.36752 0
      vertex -9.6 0 0
      vertex -8.8 4.8 0
    endloop
  endfacet
  facet normal -0 0 -1
    outer loop
      vertex -8.70648 3.94012 0
      vertex -9.6 0 0
      vertex -8.77655 4.36752 0
    endloop
  endfacet
  facet normal -0 0 -1
    outer loop
      vertex -8.59061 3.52279 0
      vertex -9.6 0 0
      vertex -8.70648 3.94012 0
    endloop
  endfacet
  facet normal -0 0 -1
    outer loop
      vertex -8.4303 3.12044 0
      vertex -9.6 0 0
      vertex -8.59061 3.52279 0
    endloop
  endfacet
  facet normal -0 0 -1
    outer loop
      vertex -8.22743 2.73779 0
      vertex -9.6 0 0
      vertex -8.4303 3.12044 0
    endloop
  endfacet
  facet normal -0 0 -1
    outer loop
      vertex -7.98437 2.3793 0
      vertex -9.6 0 0
      vertex -8.22743 2.73779 0
    endloop
  endfacet
  facet normal -0 0 -1
    outer loop
      vertex -7.70398 2.0492 0
      vertex -9.6 0 0
      vertex -7.98437 2.3793 0
    endloop
  endfacet
  facet normal -0 0 -1
    outer loop
      vertex -7.38954 1.75135 0
      vertex -9.6 0 0
      vertex -7.70398 2.0492 0
    endloop
  endfacet
  facet normal -0 0 -1
    outer loop
      vertex -7.04475 1.48924 0
      vertex -9.6 0 0
      vertex -7.38954 1.75135 0
    endloop
  endfacet
  facet normal -0 0 -1
    outer loop
      vertex -6.67363 1.26595 0
      vertex -9.6 0 0
      vertex -7.04475 1.48924 0
    endloop
  endfacet
  facet normal -0 0 -1
    outer loop
      vertex -6.28055 1.08409 0
      vertex -9.6 0 0
      vertex -6.67363 1.26595 0
    endloop
  endfacet
  facet normal -0 0 -1
    outer loop
      vertex -5.87011 0.945798 0
      vertex -9.6 0 0
      vertex -6.28055 1.08409 0
    endloop
  endfacet
  facet normal -0 0 -1
    outer loop
      vertex -5.44713 0.852692 0
      vertex -9.6 0 0
      vertex -5.87011 0.945798 0
    endloop
  endfacet
  facet normal -0 0 -1
    outer loop
      vertex -5.01655 0.805864 0
      vertex -9.6 0 0
      vertex -5.44713 0.852692 0
    endloop
  endfacet
  facet normal -0 0 -1
    outer loop
      vertex -4.58344 0.805864 0
      vertex -9.6 0 0
      vertex -5.01655 0.805864 0
    endloop
  endfacet
  facet normal 0 0 -1
    outer loop
      vertex 47.1766 5.23247 0
      vertex 48 9.6 0
      vertex 47.2 4.8 0
    endloop
  endfacet
  facet normal 0 0 -1
    outer loop
      vertex 47.1065 5.65988 0
      vertex 48 9.6 0
      vertex 47.1766 5.23247 0
    endloop
  endfacet
  facet normal 0 0 -1
    outer loop
      vertex 46.9906 6.07721 0
      vertex 48 9.6 0
      vertex 47.1065 5.65988 0
    endloop
  endfacet
  facet normal 0 0 -1
    outer loop
      vertex 46.8303 6.47956 0
      vertex 48 9.6 0
      vertex 46.9906 6.07721 0
    endloop
  endfacet
  facet normal 0 0 -1
    outer loop
      vertex 46.6274 6.86221 0
      vertex 48 9.6 0
      vertex 46.8303 6.47956 0
    endloop
  endfacet
  facet normal 0 0 -1
    outer loop
      vertex 46.3844 7.2207 0
      vertex 48 9.6 0
      vertex 46.6274 6.86221 0
    endloop
  endfacet
  facet normal 0 0 -1
    outer loop
      vertex 46.104 7.5508 0
      vertex 48 9.6 0
      vertex 46.3844 7.2207 0
    endloop
  endfacet
  facet normal 0 0 -1
    outer loop
      vertex 45.7895 7.84865 0
      vertex 48 9.6 0
      vertex 46.104 7.5508 0
    endloop
  endfacet
  facet normal 0 0 -1
    outer loop
      vertex 45.4447 8.11075 0
      vertex 48 9.6 0
      vertex 45.7895 7.84865 0
    endloop
  endfacet
  facet normal 0 0 -1
    outer loop
      vertex 45.0736 8.33405 0
      vertex 48 9.6 0
      vertex 45.4447 8.11075 0
    endloop
  endfacet
  facet normal 0 0 -1
    outer loop
      vertex 44.6805 8.51591 0
      vertex 48 9.6 0
      vertex 45.0736 8.33405 0
    endloop
  endfacet
  facet normal 0 0 -1
    outer loop
      vertex 44.2701 8.6542 0
      vertex 48 9.6 0
      vertex 44.6805 8.51591 0
    endloop
  endfacet
  facet normal 0 0 -1
    outer loop
      vertex 43.8471 8.74731 0
      vertex 48 9.6 0
      vertex 44.2701 8.6542 0
    endloop
  endfacet
  facet normal 0 0 -1
    outer loop
      vertex 43.4166 8.79413 0
      vertex 48 9.6 0
      vertex 43.8471 8.74731 0
    endloop
  endfacet
  facet normal 0 0 -1
    outer loop
      vertex 42.9834 8.79413 0
      vertex 48 9.6 0
      vertex 43.4166 8.79413 0
    endloop
  endfacet
  facet normal 0 0 -1
    outer loop
      vertex 38.4 9.6 0
      vertex 42.9834 8.79413 0
      vertex 42.5529 8.74731 0
    endloop
  endfacet
  facet normal 0 0 -1
    outer loop
      vertex 42.9834 8.79413 0
      vertex 38.4 9.6 0
      vertex 48 9.6 0
    endloop
  endfacet
  facet normal 0 0 -1
    outer loop
      vertex 42.1299 8.6542 0
      vertex 38.4 9.6 0
      vertex 42.5529 8.74731 0
    endloop
  endfacet
  facet normal 0 0 -1
    outer loop
      vertex 41.7194 8.51591 0
      vertex 38.4 9.6 0
      vertex 42.1299 8.6542 0
    endloop
  endfacet
  facet normal 0 0 -1
    outer loop
      vertex 41.3264 8.33405 0
      vertex 38.4 9.6 0
      vertex 41.7194 8.51591 0
    endloop
  endfacet
  facet normal 0 0 -1
    outer loop
      vertex 40.9553 8.11075 0
      vertex 38.4 9.6 0
      vertex 41.3264 8.33405 0
    endloop
  endfacet
  facet normal 0 0 -1
    outer loop
      vertex 40.6105 7.84865 0
      vertex 38.4 9.6 0
      vertex 40.9553 8.11075 0
    endloop
  endfacet
  facet normal 0 0 -1
    outer loop
      vertex 40.296 7.5508 0
      vertex 38.4 9.6 0
      vertex 40.6105 7.84865 0
    endloop
  endfacet
  facet normal 0 0 -1
    outer loop
      vertex 40.0156 7.2207 0
      vertex 38.4 9.6 0
      vertex 40.296 7.5508 0
    endloop
  endfacet
  facet normal 0 0 -1
    outer loop
      vertex 39.7726 6.86221 0
      vertex 38.4 9.6 0
      vertex 40.0156 7.2207 0
    endloop
  endfacet
  facet normal 0 0 -1
    outer loop
      vertex 39.5697 6.47956 0
      vertex 38.4 9.6 0
      vertex 39.7726 6.86221 0
    endloop
  endfacet
  facet normal 0 0 -1
    outer loop
      vertex 39.4094 6.07721 0
      vertex 38.4 9.6 0
      vertex 39.5697 6.47956 0
    endloop
  endfacet
  facet normal 0 0 -1
    outer loop
      vertex 39.2935 5.65988 0
      vertex 38.4 9.6 0
      vertex 39.4094 6.07721 0
    endloop
  endfacet
  facet normal 0 0 -1
    outer loop
      vertex 39.2234 5.23247 0
      vertex 38.4 9.6 0
      vertex 39.2935 5.65988 0
    endloop
  endfacet
  facet normal 0 0 -1
    outer loop
      vertex 38.4 9.6 0
      vertex 39.2234 5.23247 0
      vertex 39.2 4.8 0
    endloop
  endfacet
  facet normal 0 0 -1
    outer loop
      vertex -0.823447 5.23247 0
      vertex 0 9.6 0
      vertex -0.799999 4.8 0
    endloop
  endfacet
  facet normal 0 0 -1
    outer loop
      vertex -0.893517 5.65988 0
      vertex 0 9.6 0
      vertex -0.823447 5.23247 0
    endloop
  endfacet
  facet normal 0 0 -1
    outer loop
      vertex -1.00939 6.07721 0
      vertex 0 9.6 0
      vertex -0.893517 5.65988 0
    endloop
  endfacet
  facet normal 0 0 -1
    outer loop
      vertex -1.1697 6.47956 0
      vertex 0 9.6 0
      vertex -1.00939 6.07721 0
    endloop
  endfacet
  facet normal 0 0 -1
    outer loop
      vertex -1.37257 6.86221 0
      vertex 0 9.6 0
      vertex -1.1697 6.47956 0
    endloop
  endfacet
  facet normal 0 0 -1
    outer loop
      vertex -1.61563 7.2207 0
      vertex 0 9.6 0
      vertex -1.37257 6.86221 0
    endloop
  endfacet
  facet normal 0 0 -1
    outer loop
      vertex -1.89602 7.5508 0
      vertex 0 9.6 0
      vertex -1.61563 7.2207 0
    endloop
  endfacet
  facet normal 0 0 -1
    outer loop
      vertex -2.21045 7.84865 0
      vertex 0 9.6 0
      vertex -1.89602 7.5508 0
    endloop
  endfacet
  facet normal 0 0 -1
    outer loop
      vertex -2.55525 8.11075 0
      vertex 0 9.6 0
      vertex -2.21045 7.84865 0
    endloop
  endfacet
  facet normal 0 0 -1
    outer loop
      vertex -2.92637 8.33405 0
      vertex 0 9.6 0
      vertex -2.55525 8.11075 0
    endloop
  endfacet
  facet normal 0 0 -1
    outer loop
      vertex -3.31945 8.51591 0
      vertex 0 9.6 0
      vertex -2.92637 8.33405 0
    endloop
  endfacet
  facet normal 0 0 -1
    outer loop
      vertex -3.72989 8.6542 0
      vertex 0 9.6 0
      vertex -3.31945 8.51591 0
    endloop
  endfacet
  facet normal 0 0 -1
    outer loop
      vertex -4.15287 8.74731 0
      vertex 0 9.6 0
      vertex -3.72989 8.6542 0
    endloop
  endfacet
  facet normal 0 0 -1
    outer loop
      vertex -4.58344 8.79413 0
      vertex 0 9.6 0
      vertex -4.15287 8.74731 0
    endloop
  endfacet
  facet normal 0 0 -1
    outer loop
      vertex -5.01655 8.79413 0
      vertex 0 9.6 0
      vertex -4.58344 8.79413 0
    endloop
  endfacet
  facet normal 0 0 -1
    outer loop
      vertex -9.6 9.6 0
      vertex -5.01655 8.79413 0
      vertex -5.44713 8.74731 0
    endloop
  endfacet
  facet normal 0 0 -1
    outer loop
      vertex -9.6 9.6 0
      vertex -8.8 4.8 0
      vertex -9.6 0 0
    endloop
  endfacet
  facet normal 0 0 -1
    outer loop
      vertex -5.01655 8.79413 0
      vertex -9.6 9.6 0
      vertex 0 9.6 0
    endloop
  endfacet
  facet normal 0 0 -1
    outer loop
      vertex -5.87011 8.6542 0
      vertex -9.6 9.6 0
      vertex -5.44713 8.74731 0
    endloop
  endfacet
  facet normal 0 0 -1
    outer loop
      vertex -6.28055 8.51591 0
      vertex -9.6 9.6 0
      vertex -5.87011 8.6542 0
    endloop
  endfacet
  facet normal 0 0 -1
    outer loop
      vertex -6.67363 8.33405 0
      vertex -9.6 9.6 0
      vertex -6.28055 8.51591 0
    endloop
  endfacet
  facet normal 0 0 -1
    outer loop
      vertex -7.04475 8.11075 0
      vertex -9.6 9.6 0
      vertex -6.67363 8.33405 0
    endloop
  endfacet
  facet normal 0 0 -1
    outer loop
      vertex -7.38954 7.84865 0
      vertex -9.6 9.6 0
      vertex -7.04475 8.11075 0
    endloop
  endfacet
  facet normal 0 0 -1
    outer loop
      vertex -7.70398 7.5508 0
      vertex -9.6 9.6 0
      vertex -7.38954 7.84865 0
    endloop
  endfacet
  facet normal 0 0 -1
    outer loop
      vertex -7.98437 7.2207 0
      vertex -9.6 9.6 0
      vertex -7.70398 7.5508 0
    endloop
  endfacet
  facet normal 0 0 -1
    outer loop
      vertex -8.22743 6.86221 0
      vertex -9.6 9.6 0
      vertex -7.98437 7.2207 0
    endloop
  endfacet
  facet normal 0 0 -1
    outer loop
      vertex -8.4303 6.47956 0
      vertex -9.6 9.6 0
      vertex -8.22743 6.86221 0
    endloop
  endfacet
  facet normal 0 0 -1
    outer loop
      vertex -8.59061 6.07721 0
      vertex -9.6 9.6 0
      vertex -8.4303 6.47956 0
    endloop
  endfacet
  facet normal 0 0 -1
    outer loop
      vertex -8.70648 5.65988 0
      vertex -9.6 9.6 0
      vertex -8.59061 6.07721 0
    endloop
  endfacet
  facet normal 0 0 -1
    outer loop
      vertex -8.77655 5.23247 0
      vertex -9.6 9.6 0
      vertex -8.70648 5.65988 0
    endloop
  endfacet
  facet normal 0 0 -1
    outer loop
      vertex -8.8 4.8 0
      vertex -9.6 9.6 0
      vertex -8.77655 5.23247 0
    endloop
  endfacet
  facet normal -0.936325 0.153485 -0.315812
    outer loop
      vertex -1.61876 4.45402 2.4
      vertex -0.823447 4.36752 0
      vertex -1.67481 4.11209 2.4
    endloop
  endfacet
  facet normal -0.936323 0.153505 -0.315809
    outer loop
      vertex -0.823447 4.36752 0
      vertex -0.893517 3.94012 0
      vertex -1.67481 4.11209 2.4
    endloop
  endfacet
  facet normal -0.914235 0.253848 -0.315808
    outer loop
      vertex -1.67481 4.11209 2.4
      vertex -0.893517 3.94012 0
      vertex -1.76751 3.77823 2.4
    endloop
  endfacet
  facet normal -0.914237 0.253841 -0.315809
    outer loop
      vertex -0.893517 3.94012 0
      vertex -1.00939 3.52279 0
      vertex -1.76751 3.77823 2.4
    endloop
  endfacet
  facet normal -0.881433 0.351199 -0.315809
    outer loop
      vertex -1.76751 3.77823 2.4
      vertex -1.00939 3.52279 0
      vertex -1.89576 3.45635 2.4
    endloop
  endfacet
  facet normal -0.881435 0.351194 -0.31581
    outer loop
      vertex -1.00939 3.52279 0
      vertex -1.1697 3.12044 0
      vertex -1.89576 3.45635 2.4
    endloop
  endfacet
  facet normal -0.83829 0.444448 -0.31581
    outer loop
      vertex -1.89576 3.45635 2.4
      vertex -1.1697 3.12044 0
      vertex -2.05806 3.15023 2.4
    endloop
  endfacet
  facet normal -0.838294 0.444439 -0.315811
    outer loop
      vertex -1.1697 3.12044 0
      vertex -1.37257 2.73779 0
      vertex -2.05806 3.15023 2.4
    endloop
  endfacet
  facet normal -0.78534 0.532451 -0.315811
    outer loop
      vertex -2.05806 3.15023 2.4
      vertex -1.37257 2.73779 0
      vertex -2.2525 2.86344 2.4
    endloop
  endfacet
  facet normal -0.785332 0.532464 -0.315809
    outer loop
      vertex -1.37257 2.73779 0
      vertex -1.61563 2.3793 0
      vertex -2.2525 2.86344 2.4
    endloop
  endfacet
  facet normal -0.723159 0.614252 -0.315809
    outer loop
      vertex -2.2525 2.86344 2.4
      vertex -1.61563 2.3793 0
      vertex -2.47681 2.59936 2.4
    endloop
  endfacet
  facet normal -0.723156 0.614256 -0.315809
    outer loop
      vertex -1.61563 2.3793 0
      vertex -1.89602 2.0492 0
      vertex -2.47681 2.59936 2.4
    endloop
  endfacet
  facet normal -0.652504 0.688842 -0.315809
    outer loop
      vertex -2.47681 2.59936 2.4
      vertex -1.89602 2.0492 0
      vertex -2.72836 2.36108 2.4
    endloop
  endfacet
  facet normal -0.652512 0.688834 -0.31581
    outer loop
      vertex -1.89602 2.0492 0
      vertex -2.21045 1.75135 0
      vertex -2.72836 2.36108 2.4
    endloop
  endfacet
  facet normal -0.574206 0.755348 -0.315811
    outer loop
      vertex -2.72836 2.36108 2.4
      vertex -2.21045 1.75135 0
      vertex -3.0042 2.15139 2.4
    endloop
  endfacet
  facet normal -0.574203 0.755351 -0.31581
    outer loop
      vertex -2.21045 1.75135 0
      vertex -2.55525 1.48924 0
      vertex -3.0042 2.15139 2.4
    endloop
  endfacet
  facet normal -0.489163 0.813009 -0.31581
    outer loop
      vertex -3.0042 2.15139 2.4
      vertex -2.55525 1.48924 0
      vertex -3.30109 1.97276 2.4
    endloop
  endfacet
  facet normal -0.48916 0.813011 -0.315809
    outer loop
      vertex -2.55525 1.48924 0
      vertex -2.92637 1.26595 0
      vertex -3.30109 1.97276 2.4
    endloop
  endfacet
  facet normal -0.398402 0.861127 -0.315809
    outer loop
      vertex -3.30109 1.97276 2.4
      vertex -2.92637 1.26595 0
      vertex -3.61556 1.82727 2.4
    endloop
  endfacet
  facet normal -0.398404 0.861127 -0.31581
    outer loop
      vertex -2.92637 1.26595 0
      vertex -3.31945 1.08409 0
      vertex -3.61556 1.82727 2.4
    endloop
  endfacet
  facet normal -0.302951 0.899158 -0.31581
    outer loop
      vertex -3.61556 1.82727 2.4
      vertex -3.31945 1.08409 0
      vertex -3.94391 1.71664 2.4
    endloop
  endfacet
  facet normal -0.302958 0.899155 -0.315811
    outer loop
      vertex -3.31945 1.08409 0
      vertex -3.72989 0.945798 0
      vertex -3.94391 1.71664 2.4
    endloop
  endfacet
  facet normal -0.203955 0.926642 -0.315811
    outer loop
      vertex -3.94391 1.71664 2.4
      vertex -3.72989 0.945798 0
      vertex -4.2823 1.64216 2.4
    endloop
  endfacet
  facet normal -0.203971 0.926638 -0.315813
    outer loop
      vertex -3.72989 0.945798 0
      vertex -4.15287 0.852692 0
      vertex -4.2823 1.64216 2.4
    endloop
  endfacet
  facet normal -0.102609 0.943257 -0.315813
    outer loop
      vertex -4.2823 1.64216 2.4
      vertex -4.15287 0.852692 0
      vertex -4.62675 1.60469 2.4
    endloop
  endfacet
  facet normal -0.102587 0.94326 -0.31581
    outer loop
      vertex -4.15287 0.852692 0
      vertex -4.58344 0.805864 0
      vertex -4.62675 1.60469 2.4
    endloop
  endfacet
  facet normal 0 0.948822 -0.31581
    outer loop
      vertex -4.58344 0.805864 0
      vertex -4.97324 1.60469 2.4
      vertex -4.62675 1.60469 2.4
    endloop
  endfacet
  facet normal 0 0.948822 -0.31581
    outer loop
      vertex -4.97324 1.60469 2.4
      vertex -4.58344 0.805864 0
      vertex -5.01655 0.805864 0
    endloop
  endfacet
  facet normal 0.102607 0.943258 -0.31581
    outer loop
      vertex -4.97324 1.60469 2.4
      vertex -5.01655 0.805864 0
      vertex -5.3177 1.64216 2.4
    endloop
  endfacet
  facet normal 0.102585 0.94326 -0.315813
    outer loop
      vertex -5.3177 1.64216 2.4
      vertex -5.01655 0.805864 0
      vertex -5.44713 0.852692 0
    endloop
  endfacet
  facet normal 0.203955 0.926641 -0.315813
    outer loop
      vertex -5.3177 1.64216 2.4
      vertex -5.44713 0.852692 0
      vertex -5.65609 1.71664 2.4
    endloop
  endfacet
  facet normal 0.203971 0.926639 -0.315811
    outer loop
      vertex -5.65609 1.71664 2.4
      vertex -5.44713 0.852692 0
      vertex -5.87011 0.945798 0
    endloop
  endfacet
  facet normal 0.302951 0.899158 -0.315811
    outer loop
      vertex -5.65609 1.71664 2.4
      vertex -5.87011 0.945798 0
      vertex -5.98444 1.82727 2.4
    endloop
  endfacet
  facet normal 0.302958 0.899156 -0.31581
    outer loop
      vertex -5.98444 1.82727 2.4
      vertex -5.87011 0.945798 0
      vertex -6.28055 1.08409 0
    endloop
  endfacet
  facet normal 0.398402 0.861127 -0.31581
    outer loop
      vertex -5.98444 1.82727 2.4
      vertex -6.28055 1.08409 0
      vertex -6.29891 1.97276 2.4
    endloop
  endfacet
  facet normal 0.398404 0.861127 -0.315809
    outer loop
      vertex -6.29891 1.97276 2.4
      vertex -6.28055 1.08409 0
      vertex -6.67363 1.26595 0
    endloop
  endfacet
  facet normal 0.489164 0.813009 -0.315809
    outer loop
      vertex -6.5958 2.15139 2.4
      vertex -6.29891 1.97276 2.4
      vertex -6.67363 1.26595 0
    endloop
  endfacet
  facet normal 0.48916 0.813011 -0.31581
    outer loop
      vertex -6.5958 2.15139 2.4
      vertex -6.67363 1.26595 0
      vertex -7.04475 1.48924 0
    endloop
  endfacet
  facet normal 0.574206 0.755349 -0.31581
    outer loop
      vertex -6.87164 2.36108 2.4
      vertex -6.5958 2.15139 2.4
      vertex -7.04475 1.48924 0
    endloop
  endfacet
  facet normal 0.574214 0.755343 -0.315809
    outer loop
      vertex -6.87164 2.36108 2.4
      vertex -7.04475 1.48924 0
      vertex -7.38954 1.75135 0
    endloop
  endfacet
  facet normal 0.652504 0.688842 -0.315808
    outer loop
      vertex -7.12319 2.59936 2.4
      vertex -6.87164 2.36108 2.4
      vertex -7.38954 1.75135 0
    endloop
  endfacet
  facet normal 0.652501 0.688845 -0.315809
    outer loop
      vertex -7.12319 2.59936 2.4
      vertex -7.38954 1.75135 0
      vertex -7.70398 2.0492 0
    endloop
  endfacet
  facet normal 0.723159 0.614252 -0.315809
    outer loop
      vertex -7.3475 2.86344 2.4
      vertex -7.12319 2.59936 2.4
      vertex -7.70398 2.0492 0
    endloop
  endfacet
  facet normal 0.723156 0.614255 -0.315809
    outer loop
      vertex -7.3475 2.86344 2.4
      vertex -7.70398 2.0492 0
      vertex -7.98437 2.3793 0
    endloop
  endfacet
  facet normal 0.785341 0.532451 -0.315809
    outer loop
      vertex -7.54194 3.15023 2.4
      vertex -7.3475 2.86344 2.4
      vertex -7.98437 2.3793 0
    endloop
  endfacet
  facet normal 0.785332 0.532463 -0.315811
    outer loop
      vertex -7.54194 3.15023 2.4
      vertex -7.98437 2.3793 0
      vertex -8.22743 2.73779 0
    endloop
  endfacet
  facet normal 0.83829 0.444448 -0.315811
    outer loop
      vertex -7.70424 3.45635 2.4
      vertex -7.54194 3.15023 2.4
      vertex -8.22743 2.73779 0
    endloop
  endfacet
  facet normal 0.838294 0.44444 -0.31581
    outer loop
      vertex -7.70424 3.45635 2.4
      vertex -8.22743 2.73779 0
      vertex -8.4303 3.12044 0
    endloop
  endfacet
  facet normal 0.881433 0.351198 -0.31581
    outer loop
      vertex -7.83249 3.77823 2.4
      vertex -7.70424 3.45635 2.4
      vertex -8.4303 3.12044 0
    endloop
  endfacet
  facet normal 0.881435 0.351194 -0.315809
    outer loop
      vertex -7.83249 3.77823 2.4
      vertex -8.4303 3.12044 0
      vertex -8.59061 3.52279 0
    endloop
  endfacet
  facet normal 0.914235 0.253848 -0.315809
    outer loop
      vertex -7.92519 4.11209 2.4
      vertex -7.83249 3.77823 2.4
      vertex -8.59061 3.52279 0
    endloop
  endfacet
  facet normal 0.914239 0.253835 -0.315807
    outer loop
      vertex -7.92519 4.11209 2.4
      vertex -8.59061 3.52279 0
      vertex -8.70648 3.94012 0
    endloop
  endfacet
  facet normal 0.936327 0.153485 -0.315807
    outer loop
      vertex -7.98124 4.45402 2.4
      vertex -7.92519 4.11209 2.4
      vertex -8.70648 3.94012 0
    endloop
  endfacet
  facet normal 0.936323 0.153505 -0.31581
    outer loop
      vertex -7.98124 4.45402 2.4
      vertex -8.70648 3.94012 0
      vertex -8.77655 4.36752 0
    endloop
  endfacet
  facet normal 0.947431 0.0513723 -0.31581
    outer loop
      vertex -8 4.8 2.4
      vertex -7.98124 4.45402 2.4
      vertex -8.77655 4.36752 0
    endloop
  endfacet
  facet normal 0.947431 0.0513717 -0.31581
    outer loop
      vertex -8 4.8 2.4
      vertex -8.77655 4.36752 0
      vertex -8.8 4.8 0
    endloop
  endfacet
  facet normal 0.947431 -0.0513723 -0.31581
    outer loop
      vertex -7.98124 5.14598 2.4
      vertex -8 4.8 2.4
      vertex -8.8 4.8 0
    endloop
  endfacet
  facet normal 0.947431 -0.0513729 -0.31581
    outer loop
      vertex -8.77655 5.23247 0
      vertex -7.98124 5.14598 2.4
      vertex -8.8 4.8 0
    endloop
  endfacet
  facet normal 0.936326 -0.153485 -0.31581
    outer loop
      vertex -7.92519 5.48791 2.4
      vertex -7.98124 5.14598 2.4
      vertex -8.77655 5.23247 0
    endloop
  endfacet
  facet normal 0.936324 -0.153502 -0.315808
    outer loop
      vertex -8.70648 5.65988 0
      vertex -7.92519 5.48791 2.4
      vertex -8.77655 5.23247 0
    endloop
  endfacet
  facet normal 0.914234 -0.253855 -0.315807
    outer loop
      vertex -7.83249 5.82176 2.4
      vertex -7.92519 5.48791 2.4
      vertex -8.70648 5.65988 0
    endloop
  endfacet
  facet normal 0.914238 -0.253835 -0.31581
    outer loop
      vertex -8.59061 6.07721 0
      vertex -7.83249 5.82176 2.4
      vertex -8.70648 5.65988 0
    endloop
  endfacet
  facet normal 0.881436 -0.351189 -0.315811
    outer loop
      vertex -7.70424 6.14365 2.4
      vertex -7.83249 5.82176 2.4
      vertex -8.59061 6.07721 0
    endloop
  endfacet
  facet normal 0.881435 -0.351194 -0.31581
    outer loop
      vertex -8.4303 6.47956 0
      vertex -7.70424 6.14365 2.4
      vertex -8.59061 6.07721 0
    endloop
  endfacet
  facet normal 0.83829 -0.444448 -0.31581
    outer loop
      vertex -7.54194 6.44977 2.4
      vertex -7.70424 6.14365 2.4
      vertex -8.4303 6.47956 0
    endloop
  endfacet
  facet normal 0.838294 -0.444439 -0.315811
    outer loop
      vertex -8.22743 6.86221 0
      vertex -7.54194 6.44977 2.4
      vertex -8.4303 6.47956 0
    endloop
  endfacet
  facet normal 0.78534 -0.532451 -0.315811
    outer loop
      vertex -7.3475 6.73656 2.4
      vertex -7.54194 6.44977 2.4
      vertex -8.22743 6.86221 0
    endloop
  endfacet
  facet normal 0.785332 -0.532464 -0.315809
    outer loop
      vertex -7.98437 7.2207 0
      vertex -7.3475 6.73656 2.4
      vertex -8.22743 6.86221 0
    endloop
  endfacet
  facet normal 0.723159 -0.614252 -0.315809
    outer loop
      vertex -7.12319 7.00064 2.4
      vertex -7.3475 6.73656 2.4
      vertex -7.98437 7.2207 0
    endloop
  endfacet
  facet normal 0.723156 -0.614256 -0.315809
    outer loop
      vertex -7.70398 7.5508 0
      vertex -7.12319 7.00064 2.4
      vertex -7.98437 7.2207 0
    endloop
  endfacet
  facet normal 0.652504 -0.688842 -0.315809
    outer loop
      vertex -6.87164 7.23892 2.4
      vertex -7.12319 7.00064 2.4
      vertex -7.70398 7.5508 0
    endloop
  endfacet
  facet normal 0.652501 -0.688845 -0.315808
    outer loop
      vertex -7.38954 7.84865 0
      vertex -6.87164 7.23892 2.4
      vertex -7.70398 7.5508 0
    endloop
  endfacet
  facet normal 0.574189 -0.755362 -0.315808
    outer loop
      vertex -6.5958 7.4486 2.4
      vertex -6.87164 7.23892 2.4
      vertex -7.38954 7.84865 0
    endloop
  endfacet
  facet normal 0.574199 -0.755354 -0.31581
    outer loop
      vertex -7.04475 8.11075 0
      vertex -6.5958 7.4486 2.4
      vertex -7.38954 7.84865 0
    endloop
  endfacet
  facet normal 0.489184 -0.812997 -0.31581
    outer loop
      vertex -6.29891 7.62724 2.4
      vertex -6.5958 7.4486 2.4
      vertex -7.04475 8.11075 0
    endloop
  endfacet
  facet normal 0.489176 -0.813001 -0.315809
    outer loop
      vertex -6.67363 8.33405 0
      vertex -6.29891 7.62724 2.4
      vertex -7.04475 8.11075 0
    endloop
  endfacet
  facet normal 0.398402 -0.861127 -0.315809
    outer loop
      vertex -5.98444 7.77273 2.4
      vertex -6.29891 7.62724 2.4
      vertex -6.67363 8.33405 0
    endloop
  endfacet
  facet normal 0.398404 -0.861127 -0.31581
    outer loop
      vertex -6.28055 8.51591 0
      vertex -5.98444 7.77273 2.4
      vertex -6.67363 8.33405 0
    endloop
  endfacet
  facet normal 0.302951 -0.899158 -0.31581
    outer loop
      vertex -5.65609 7.88336 2.4
      vertex -5.98444 7.77273 2.4
      vertex -6.28055 8.51591 0
    endloop
  endfacet
  facet normal 0.302954 -0.899157 -0.31581
    outer loop
      vertex -5.87011 8.6542 0
      vertex -5.65609 7.88336 2.4
      vertex -6.28055 8.51591 0
    endloop
  endfacet
  facet normal 0.203955 -0.926643 -0.31581
    outer loop
      vertex -5.3177 7.95784 2.4
      vertex -5.65609 7.88336 2.4
      vertex -5.87011 8.6542 0
    endloop
  endfacet
  facet normal 0.203979 -0.926636 -0.315813
    outer loop
      vertex -5.44713 8.74731 0
      vertex -5.3177 7.95784 2.4
      vertex -5.87011 8.6542 0
    endloop
  endfacet
  facet normal 0.102606 -0.943257 -0.315814
    outer loop
      vertex -4.97324 7.99531 2.4
      vertex -5.3177 7.95784 2.4
      vertex -5.44713 8.74731 0
    endloop
  endfacet
  facet normal 0.102568 -0.943263 -0.315808
    outer loop
      vertex -5.01655 8.79413 0
      vertex -4.97324 7.99531 2.4
      vertex -5.44713 8.74731 0
    endloop
  endfacet
  facet normal 0 -0.948823 -0.315808
    outer loop
      vertex -5.01655 8.79413 0
      vertex -4.62675 7.99531 2.4
      vertex -4.97324 7.99531 2.4
    endloop
  endfacet
  facet normal 0 -0.948823 -0.315808
    outer loop
      vertex -4.62675 7.99531 2.4
      vertex -5.01655 8.79413 0
      vertex -4.58344 8.79413 0
    endloop
  endfacet
  facet normal -0.10261 -0.943259 -0.315807
    outer loop
      vertex -4.58344 8.79413 0
      vertex -4.2823 7.95784 2.4
      vertex -4.62675 7.99531 2.4
    endloop
  endfacet
  facet normal -0.10257 -0.943261 -0.315813
    outer loop
      vertex -4.15287 8.74731 0
      vertex -4.2823 7.95784 2.4
      vertex -4.58344 8.79413 0
    endloop
  endfacet
  facet normal -0.203955 -0.926641 -0.315814
    outer loop
      vertex -4.15287 8.74731 0
      vertex -3.94391 7.88336 2.4
      vertex -4.2823 7.95784 2.4
    endloop
  endfacet
  facet normal -0.203979 -0.926637 -0.31581
    outer loop
      vertex -3.72989 8.6542 0
      vertex -3.94391 7.88336 2.4
      vertex -4.15287 8.74731 0
    endloop
  endfacet
  facet normal -0.302951 -0.899158 -0.31581
    outer loop
      vertex -3.72989 8.6542 0
      vertex -3.61556 7.77273 2.4
      vertex -3.94391 7.88336 2.4
    endloop
  endfacet
  facet normal -0.302954 -0.899157 -0.31581
    outer loop
      vertex -3.31945 8.51591 0
      vertex -3.61556 7.77273 2.4
      vertex -3.72989 8.6542 0
    endloop
  endfacet
  facet normal -0.398402 -0.861127 -0.31581
    outer loop
      vertex -3.31945 8.51591 0
      vertex -3.30109 7.62724 2.4
      vertex -3.61556 7.77273 2.4
    endloop
  endfacet
  facet normal -0.398404 -0.861127 -0.315809
    outer loop
      vertex -2.92637 8.33405 0
      vertex -3.30109 7.62724 2.4
      vertex -3.31945 8.51591 0
    endloop
  endfacet
  facet normal -0.489184 -0.812997 -0.315809
    outer loop
      vertex -2.92637 8.33405 0
      vertex -3.0042 7.4486 2.4
      vertex -3.30109 7.62724 2.4
    endloop
  endfacet
  facet normal -0.489176 -0.813001 -0.31581
    outer loop
      vertex -2.92637 8.33405 0
      vertex -2.55525 8.11075 0
      vertex -3.0042 7.4486 2.4
    endloop
  endfacet
  facet normal -0.574189 -0.755362 -0.31581
    outer loop
      vertex -2.55525 8.11075 0
      vertex -2.72836 7.23892 2.4
      vertex -3.0042 7.4486 2.4
    endloop
  endfacet
  facet normal -0.574189 -0.755362 -0.31581
    outer loop
      vertex -2.55525 8.11075 0
      vertex -2.21045 7.84865 0
      vertex -2.72836 7.23892 2.4
    endloop
  endfacet
  facet normal -0.652503 -0.688842 -0.315811
    outer loop
      vertex -2.21045 7.84865 0
      vertex -2.47681 7.00064 2.4
      vertex -2.72836 7.23892 2.4
    endloop
  endfacet
  facet normal -0.652512 -0.688834 -0.315809
    outer loop
      vertex -2.21045 7.84865 0
      vertex -1.89602 7.5508 0
      vertex -2.47681 7.00064 2.4
    endloop
  endfacet
  facet normal -0.723159 -0.614252 -0.315809
    outer loop
      vertex -1.89602 7.5508 0
      vertex -2.2525 6.73656 2.4
      vertex -2.47681 7.00064 2.4
    endloop
  endfacet
  facet normal -0.723156 -0.614255 -0.315809
    outer loop
      vertex -1.89602 7.5508 0
      vertex -1.61563 7.2207 0
      vertex -2.2525 6.73656 2.4
    endloop
  endfacet
  facet normal -0.785341 -0.532451 -0.315809
    outer loop
      vertex -1.61563 7.2207 0
      vertex -2.05806 6.44977 2.4
      vertex -2.2525 6.73656 2.4
    endloop
  endfacet
  facet normal -0.785332 -0.532463 -0.315811
    outer loop
      vertex -1.61563 7.2207 0
      vertex -1.37257 6.86221 0
      vertex -2.05806 6.44977 2.4
    endloop
  endfacet
  facet normal -0.83829 -0.444448 -0.315811
    outer loop
      vertex -1.37257 6.86221 0
      vertex -1.89576 6.14365 2.4
      vertex -2.05806 6.44977 2.4
    endloop
  endfacet
  facet normal -0.838294 -0.44444 -0.31581
    outer loop
      vertex -1.37257 6.86221 0
      vertex -1.1697 6.47956 0
      vertex -1.89576 6.14365 2.4
    endloop
  endfacet
  facet normal -0.881437 -0.351189 -0.31581
    outer loop
      vertex -1.1697 6.47956 0
      vertex -1.76751 5.82176 2.4
      vertex -1.89576 6.14365 2.4
    endloop
  endfacet
  facet normal -0.881434 -0.351194 -0.315811
    outer loop
      vertex -1.1697 6.47956 0
      vertex -1.00939 6.07721 0
      vertex -1.76751 5.82176 2.4
    endloop
  endfacet
  facet normal -0.914233 -0.253855 -0.315811
    outer loop
      vertex -1.00939 6.07721 0
      vertex -1.67481 5.48791 2.4
      vertex -1.76751 5.82176 2.4
    endloop
  endfacet
  facet normal -0.914237 -0.253841 -0.315808
    outer loop
      vertex -1.00939 6.07721 0
      vertex -0.893517 5.65988 0
      vertex -1.67481 5.48791 2.4
    endloop
  endfacet
  facet normal -0.936327 -0.153485 -0.315808
    outer loop
      vertex -0.893517 5.65988 0
      vertex -1.61876 5.14598 2.4
      vertex -1.67481 5.48791 2.4
    endloop
  endfacet
  facet normal -0.936323 -0.153502 -0.315811
    outer loop
      vertex -0.893517 5.65988 0
      vertex -0.823447 5.23247 0
      vertex -1.61876 5.14598 2.4
    endloop
  endfacet
  facet normal -0.94743 -0.0513723 -0.315811
    outer loop
      vertex -0.823447 5.23247 0
      vertex -1.6 4.8 2.4
      vertex -1.61876 5.14598 2.4
    endloop
  endfacet
  facet normal -0.947431 -0.0513685 -0.315811
    outer loop
      vertex -0.823447 5.23247 0
      vertex -0.799999 4.8 0
      vertex -1.6 4.8 2.4
    endloop
  endfacet
  facet normal -0.947431 0.0513723 -0.315811
    outer loop
      vertex -1.6 4.8 2.4
      vertex -0.799999 4.8 0
      vertex -1.61876 4.45402 2.4
    endloop
  endfacet
  facet normal -0.947431 0.0513673 -0.315811
    outer loop
      vertex -0.799999 4.8 0
      vertex -0.823447 4.36752 0
      vertex -1.61876 4.45402 2.4
    endloop
  endfacet
  facet normal 0 -1 0
    outer loop
      vertex -9.6 0 2.4
      vertex 0 0 1.65
      vertex 0 0 2.4
    endloop
  endfacet
  facet normal 0 -1 -0
    outer loop
      vertex 0 0 1.65
      vertex -9.6 0 0
      vertex 38.4 0 1.65
    endloop
  endfacet
  facet normal 0 -1 0
    outer loop
      vertex -9.6 0 0
      vertex 0 0 1.65
      vertex -9.6 0 2.4
    endloop
  endfacet
  facet normal 0 -1 0
    outer loop
      vertex 38.4 0 1.65
      vertex 48 0 2.4
      vertex 38.4 0 2.4
    endloop
  endfacet
  facet normal 0 -1 0
    outer loop
      vertex 38.4 0 1.65
      vertex 48 0 0
      vertex 48 0 2.4
    endloop
  endfacet
  facet normal 0 -1 0
    outer loop
      vertex 48 0 0
      vertex 38.4 0 1.65
      vertex -9.6 0 0
    endloop
  endfacet
  facet normal 1 0 0
    outer loop
      vertex 0 9.6 2.4
      vertex 0 1 1.65
      vertex 0 9.6 0.7
    endloop
  endfacet
  facet normal 1 -0 0
    outer loop
      vertex 0 0 2.4
      vertex 0 1 1.65
      vertex 0 9.6 2.4
    endloop
  endfacet
  facet normal 1 0 0
    outer loop
      vertex 0 1 1.65
      vertex 0 0 2.4
      vertex 0 0 1.65
    endloop
  endfacet
  facet normal 1 0 0
    outer loop
      vertex 0 9.6 0.7
      vertex 0 1 1.65
      vertex 0 1 0.7
    endloop
  endfacet
  facet normal 0 1 0
    outer loop
      vertex 48 9.6 2.4
      vertex 38.4 9.6 0.7
      vertex 38.4 9.6 2.4
    endloop
  endfacet
  facet normal 0 1 -0
    outer loop
      vertex 48 9.6 0
      vertex 38.4 9.6 0.7
      vertex 48 9.6 2.4
    endloop
  endfacet
  facet normal 0 1 0
    outer loop
      vertex 38.4 9.6 0.7
      vertex 48 9.6 0
      vertex 38.4 9.6 0
    endloop
  endfacet
  facet normal 0 0 1
    outer loop
      vertex 48 9.6 2.4
      vertex 46.4 4.8 2.4
      vertex 48 0 2.4
    endloop
  endfacet
  facet normal 0 0 1
    outer loop
      vertex 48 9.6 2.4
      vertex 46.3812 5.14598 2.4
      vertex 46.4 4.8 2.4
    endloop
  endfacet
  facet normal 0 0 1
    outer loop
      vertex 48 9.6 2.4
      vertex 46.3252 5.48791 2.4
      vertex 46.3812 5.14598 2.4
    endloop
  endfacet
  facet normal 0 0 1
    outer loop
      vertex 48 9.6 2.4
      vertex 46.2325 5.82176 2.4
      vertex 46.3252 5.48791 2.4
    endloop
  endfacet
  facet normal 0 0 1
    outer loop
      vertex 48 9.6 2.4
      vertex 46.1042 6.14365 2.4
      vertex 46.2325 5.82176 2.4
    endloop
  endfacet
  facet normal 0 0 1
    outer loop
      vertex 48 9.6 2.4
      vertex 45.9419 6.44977 2.4
      vertex 46.1042 6.14365 2.4
    endloop
  endfacet
  facet normal 0 0 1
    outer loop
      vertex 48 9.6 2.4
      vertex 45.7475 6.73656 2.4
      vertex 45.9419 6.44977 2.4
    endloop
  endfacet
  facet normal 0 0 1
    outer loop
      vertex 48 9.6 2.4
      vertex 45.5232 7.00064 2.4
      vertex 45.7475 6.73656 2.4
    endloop
  endfacet
  facet normal 0 0 1
    outer loop
      vertex 48 9.6 2.4
      vertex 45.2716 7.23892 2.4
      vertex 45.5232 7.00064 2.4
    endloop
  endfacet
  facet normal 0 0 1
    outer loop
      vertex 48 9.6 2.4
      vertex 44.9958 7.4486 2.4
      vertex 45.2716 7.23892 2.4
    endloop
  endfacet
  facet normal 0 0 1
    outer loop
      vertex 48 9.6 2.4
      vertex 44.6989 7.62724 2.4
      vertex 44.9958 7.4486 2.4
    endloop
  endfacet
  facet normal 0 0 1
    outer loop
      vertex 48 9.6 2.4
      vertex 44.3844 7.77273 2.4
      vertex 44.6989 7.62724 2.4
    endloop
  endfacet
  facet normal 0 0 1
    outer loop
      vertex 48 9.6 2.4
      vertex 44.0561 7.88336 2.4
      vertex 44.3844 7.77273 2.4
    endloop
  endfacet
  facet normal 0 0 1
    outer loop
      vertex 48 9.6 2.4
      vertex 43.7177 7.95784 2.4
      vertex 44.0561 7.88336 2.4
    endloop
  endfacet
  facet normal 0 0 1
    outer loop
      vertex 48 9.6 2.4
      vertex 43.3732 7.99531 2.4
      vertex 43.7177 7.95784 2.4
    endloop
  endfacet
  facet normal 0 0 1
    outer loop
      vertex 48 9.6 2.4
      vertex 43.0268 7.99531 2.4
      vertex 43.3732 7.99531 2.4
    endloop
  endfacet
  facet normal -0 0 1
    outer loop
      vertex 38.4 9.6 2.4
      vertex 43.0268 7.99531 2.4
      vertex 48 9.6 2.4
    endloop
  endfacet
  facet normal 0 0 1
    outer loop
      vertex 43.0268 7.99531 2.4
      vertex 38.4 9.6 2.4
      vertex 42.6823 7.95784 2.4
    endloop
  endfacet
  facet normal 0 0 1
    outer loop
      vertex 40.0188 5.14598 2.4
      vertex 38.4 9.6 2.4
      vertex 40 4.8 2.4
    endloop
  endfacet
  facet normal 0 0 1
    outer loop
      vertex 40.0748 5.48791 2.4
      vertex 38.4 9.6 2.4
      vertex 40.0188 5.14598 2.4
    endloop
  endfacet
  facet normal 0 0 1
    outer loop
      vertex 40.1675 5.82176 2.4
      vertex 38.4 9.6 2.4
      vertex 40.0748 5.48791 2.4
    endloop
  endfacet
  facet normal 0 0 1
    outer loop
      vertex 40.2958 6.14365 2.4
      vertex 38.4 9.6 2.4
      vertex 40.1675 5.82176 2.4
    endloop
  endfacet
  facet normal 0 0 1
    outer loop
      vertex 40.4581 6.44977 2.4
      vertex 38.4 9.6 2.4
      vertex 40.2958 6.14365 2.4
    endloop
  endfacet
  facet normal 0 0 1
    outer loop
      vertex 40.6525 6.73656 2.4
      vertex 38.4 9.6 2.4
      vertex 40.4581 6.44977 2.4
    endloop
  endfacet
  facet normal 0 0 1
    outer loop
      vertex 40.8768 7.00064 2.4
      vertex 38.4 9.6 2.4
      vertex 40.6525 6.73656 2.4
    endloop
  endfacet
  facet normal 0 0 1
    outer loop
      vertex 41.1284 7.23892 2.4
      vertex 38.4 9.6 2.4
      vertex 40.8768 7.00064 2.4
    endloop
  endfacet
  facet normal 0 0 1
    outer loop
      vertex 41.4042 7.4486 2.4
      vertex 38.4 9.6 2.4
      vertex 41.1284 7.23892 2.4
    endloop
  endfacet
  facet normal 0 0 1
    outer loop
      vertex 41.7011 7.62724 2.4
      vertex 38.4 9.6 2.4
      vertex 41.4042 7.4486 2.4
    endloop
  endfacet
  facet normal 0 0 1
    outer loop
      vertex 42.0156 7.77273 2.4
      vertex 38.4 9.6 2.4
      vertex 41.7011 7.62724 2.4
    endloop
  endfacet
  facet normal 0 0 1
    outer loop
      vertex 42.3439 7.88336 2.4
      vertex 38.4 9.6 2.4
      vertex 42.0156 7.77273 2.4
    endloop
  endfacet
  facet normal 0 0 1
    outer loop
      vertex 42.6823 7.95784 2.4
      vertex 38.4 9.6 2.4
      vertex 42.3439 7.88336 2.4
    endloop
  endfacet
  facet normal -0 0 1
    outer loop
      vertex 46.3812 4.45402 2.4
      vertex 48 0 2.4
      vertex 46.4 4.8 2.4
    endloop
  endfacet
  facet normal -0 0 1
    outer loop
      vertex 46.3252 4.11209 2.4
      vertex 48 0 2.4
      vertex 46.3812 4.45402 2.4
    endloop
  endfacet
  facet normal -0 0 1
    outer loop
      vertex 46.2325 3.77823 2.4
      vertex 48 0 2.4
      vertex 46.3252 4.11209 2.4
    endloop
  endfacet
  facet normal -0 0 1
    outer loop
      vertex 46.1042 3.45635 2.4
      vertex 48 0 2.4
      vertex 46.2325 3.77823 2.4
    endloop
  endfacet
  facet normal -0 0 1
    outer loop
      vertex 45.9419 3.15023 2.4
      vertex 48 0 2.4
      vertex 46.1042 3.45635 2.4
    endloop
  endfacet
  facet normal -0 0 1
    outer loop
      vertex 45.7475 2.86344 2.4
      vertex 48 0 2.4
      vertex 45.9419 3.15023 2.4
    endloop
  endfacet
  facet normal -0 0 1
    outer loop
      vertex 45.5232 2.59936 2.4
      vertex 48 0 2.4
      vertex 45.7475 2.86344 2.4
    endloop
  endfacet
  facet normal -0 0 1
    outer loop
      vertex 45.2716 2.36108 2.4
      vertex 48 0 2.4
      vertex 45.5232 2.59936 2.4
    endloop
  endfacet
  facet normal -0 0 1
    outer loop
      vertex 44.9958 2.15139 2.4
      vertex 48 0 2.4
      vertex 45.2716 2.36108 2.4
    endloop
  endfacet
  facet normal -0 0 1
    outer loop
      vertex 44.6989 1.97276 2.4
      vertex 48 0 2.4
      vertex 44.9958 2.15139 2.4
    endloop
  endfacet
  facet normal -0 0 1
    outer loop
      vertex 44.3844 1.82727 2.4
      vertex 48 0 2.4
      vertex 44.6989 1.97276 2.4
    endloop
  endfacet
  facet normal -0 0 1
    outer loop
      vertex 44.0561 1.71664 2.4
      vertex 48 0 2.4
      vertex 44.3844 1.82727 2.4
    endloop
  endfacet
  facet normal -0 0 1
    outer loop
      vertex 43.7177 1.64216 2.4
      vertex 48 0 2.4
      vertex 44.0561 1.71664 2.4
    endloop
  endfacet
  facet normal -0 0 1
    outer loop
      vertex 43.3732 1.60469 2.4
      vertex 48 0 2.4
      vertex 43.7177 1.64216 2.4
    endloop
  endfacet
  facet normal -0 0 1
    outer loop
      vertex 43.0268 1.60469 2.4
      vertex 48 0 2.4
      vertex 43.3732 1.60469 2.4
    endloop
  endfacet
  facet normal 0 0 1
    outer loop
      vertex 38.4 0 2.4
      vertex 43.0268 1.60469 2.4
      vertex 42.6823 1.64216 2.4
    endloop
  endfacet
  facet normal 0 0 1
    outer loop
      vertex 38.4 0 2.4
      vertex 42.6823 1.64216 2.4
      vertex 42.3439 1.71664 2.4
    endloop
  endfacet
  facet normal 0 0 1
    outer loop
      vertex 38.4 0 2.4
      vertex 40 4.8 2.4
      vertex 38.4 9.6 2.4
    endloop
  endfacet
  facet normal 0 0 1
    outer loop
      vertex 40 4.8 2.4
      vertex 38.4 0 2.4
      vertex 40.0188 4.45402 2.4
    endloop
  endfacet
  facet normal 0 0 1
    outer loop
      vertex 40.0188 4.45402 2.4
      vertex 38.4 0 2.4
      vertex 40.0748 4.11209 2.4
    endloop
  endfacet
  facet normal 0 0 1
    outer loop
      vertex 43.0268 1.60469 2.4
      vertex 38.4 0 2.4
      vertex 48 0 2.4
    endloop
  endfacet
  facet normal 0 0 1
    outer loop
      vertex 42.0156 1.82727 2.4
      vertex 38.4 0 2.4
      vertex 42.3439 1.71664 2.4
    endloop
  endfacet
  facet normal 0 0 1
    outer loop
      vertex 41.7011 1.97276 2.4
      vertex 38.4 0 2.4
      vertex 42.0156 1.82727 2.4
    endloop
  endfacet
  facet normal 0 0 1
    outer loop
      vertex 41.4042 2.15139 2.4
      vertex 38.4 0 2.4
      vertex 41.7011 1.97276 2.4
    endloop
  endfacet
  facet normal 0 0 1
    outer loop
      vertex 41.1284 2.36108 2.4
      vertex 38.4 0 2.4
      vertex 41.4042 2.15139 2.4
    endloop
  endfacet
  facet normal 0 0 1
    outer loop
      vertex 40.8768 2.59936 2.4
      vertex 38.4 0 2.4
      vertex 41.1284 2.36108 2.4
    endloop
  endfacet
  facet normal 0 0 1
    outer loop
      vertex 40.6525 2.86344 2.4
      vertex 38.4 0 2.4
      vertex 40.8768 2.59936 2.4
    endloop
  endfacet
  facet normal 0 0 1
    outer loop
      vertex 40.4581 3.15023 2.4
      vertex 38.4 0 2.4
      vertex 40.6525 2.86344 2.4
    endloop
  endfacet
  facet normal 0 0 1
    outer loop
      vertex 40.2958 3.45635 2.4
      vertex 38.4 0 2.4
      vertex 40.4581 3.15023 2.4
    endloop
  endfacet
  facet normal 0 0 1
    outer loop
      vertex 40.1675 3.77823 2.4
      vertex 38.4 0 2.4
      vertex 40.2958 3.45635 2.4
    endloop
  endfacet
  facet normal 0 0 1
    outer loop
      vertex 40.0748 4.11209 2.4
      vertex 38.4 0 2.4
      vertex 40.1675 3.77823 2.4
    endloop
  endfacet
  facet normal -1 0 0
    outer loop
      vertex 38.4 1 1.65
      vertex 38.4 9.6 0.7
      vertex 38.4 1 0.7
    endloop
  endfacet
  facet normal -1 0 0
    outer loop
      vertex 38.4 9.6 0.7
      vertex 38.4 1 1.65
      vertex 38.4 9.6 2.4
    endloop
  endfacet
  facet normal -1 0 0
    outer loop
      vertex 38.4 0 2.4
      vertex 38.4 1 1.65
      vertex 38.4 0 1.65
    endloop
  endfacet
  facet normal -1 0 0
    outer loop
      vertex 38.4 1 1.65
      vertex 38.4 0 2.4
      vertex 38.4 9.6 2.4
    endloop
  endfacet
  facet normal -0.936337 0.15335 -0.315845
    outer loop
      vertex 46.3812 4.45402 2.4
      vertex 47.1766 4.36752 0
      vertex 46.3252 4.11209 2.4
    endloop
  endfacet
  facet normal -0.936311 0.153569 -0.315812
    outer loop
      vertex 47.1766 4.36752 0
      vertex 47.1065 3.94012 0
      vertex 46.3252 4.11209 2.4
    endloop
  endfacet
  facet normal -0.914235 0.253848 -0.315811
    outer loop
      vertex 46.3252 4.11209 2.4
      vertex 47.1065 3.94012 0
      vertex 46.2325 3.77823 2.4
    endloop
  endfacet
  facet normal -0.914224 0.253896 -0.315803
    outer loop
      vertex 47.1065 3.94012 0
      vertex 46.9906 3.52279 0
      vertex 46.2325 3.77823 2.4
    endloop
  endfacet
  facet normal -0.881389 0.351318 -0.315801
    outer loop
      vertex 46.2325 3.77823 2.4
      vertex 46.9906 3.52279 0
      vertex 46.1042 3.45635 2.4
    endloop
  endfacet
  facet normal -0.881438 0.351173 -0.315823
    outer loop
      vertex 46.9906 3.52279 0
      vertex 46.8303 3.12044 0
      vertex 46.1042 3.45635 2.4
    endloop
  endfacet
  facet normal -0.838286 0.444446 -0.315822
    outer loop
      vertex 46.1042 3.45635 2.4
      vertex 46.8303 3.12044 0
      vertex 45.9419 3.15023 2.4
    endloop
  endfacet
  facet normal -0.838266 0.44449 -0.315815
    outer loop
      vertex 46.8303 3.12044 0
      vertex 46.6274 2.73779 0
      vertex 45.9419 3.15023 2.4
    endloop
  endfacet
  facet normal -0.78539 0.532375 -0.315816
    outer loop
      vertex 45.9419 3.15023 2.4
      vertex 46.6274 2.73779 0
      vertex 45.7475 2.86344 2.4
    endloop
  endfacet
  facet normal -0.785392 0.532372 -0.315816
    outer loop
      vertex 46.6274 2.73779 0
      vertex 46.3844 2.3793 0
      vertex 45.7475 2.86344 2.4
    endloop
  endfacet
  facet normal -0.72317 0.614235 -0.315818
    outer loop
      vertex 45.7475 2.86344 2.4
      vertex 46.3844 2.3793 0
      vertex 45.5232 2.59936 2.4
    endloop
  endfacet
  facet normal -0.723145 0.614268 -0.315812
    outer loop
      vertex 46.3844 2.3793 0
      vertex 46.104 2.0492 0
      vertex 45.5232 2.59936 2.4
    endloop
  endfacet
  facet normal -0.652435 0.688907 -0.31581
    outer loop
      vertex 45.5232 2.59936 2.4
      vertex 46.104 2.0492 0
      vertex 45.2716 2.36108 2.4
    endloop
  endfacet
  facet normal -0.652435 0.688907 -0.31581
    outer loop
      vertex 46.104 2.0492 0
      vertex 45.7895 1.75135 0
      vertex 45.2716 2.36108 2.4
    endloop
  endfacet
  facet normal -0.574259 0.755308 -0.31581
    outer loop
      vertex 45.2716 2.36108 2.4
      vertex 45.7895 1.75135 0
      vertex 44.9958 2.15139 2.4
    endloop
  endfacet
  facet normal -0.574205 0.755354 -0.315799
    outer loop
      vertex 45.7895 1.75135 0
      vertex 45.4447 1.48924 0
      vertex 44.9958 2.15139 2.4
    endloop
  endfacet
  facet normal -0.489153 0.813019 -0.3158
    outer loop
      vertex 44.9958 2.15139 2.4
      vertex 45.4447 1.48924 0
      vertex 44.6989 1.97276 2.4
    endloop
  endfacet
  facet normal -0.48918 0.813 -0.315805
    outer loop
      vertex 45.4447 1.48924 0
      vertex 45.0736 1.26595 0
      vertex 44.6989 1.97276 2.4
    endloop
  endfacet
  facet normal -0.398371 0.861143 -0.315806
    outer loop
      vertex 44.6989 1.97276 2.4
      vertex 45.0736 1.26595 0
      vertex 44.3844 1.82727 2.4
    endloop
  endfacet
  facet normal -0.398387 0.861135 -0.315808
    outer loop
      vertex 45.0736 1.26595 0
      vertex 44.6805 1.08409 0
      vertex 44.3844 1.82727 2.4
    endloop
  endfacet
  facet normal -0.302992 0.899144 -0.315809
    outer loop
      vertex 44.3844 1.82727 2.4
      vertex 44.6805 1.08409 0
      vertex 44.0561 1.71664 2.4
    endloop
  endfacet
  facet normal -0.302985 0.899147 -0.315808
    outer loop
      vertex 44.6805 1.08409 0
      vertex 44.2701 0.945798 0
      vertex 44.0561 1.71664 2.4
    endloop
  endfacet
  facet normal -0.203949 0.926644 -0.315809
    outer loop
      vertex 44.0561 1.71664 2.4
      vertex 44.2701 0.945798 0
      vertex 43.7177 1.64216 2.4
    endloop
  endfacet
  facet normal -0.203962 0.926641 -0.315811
    outer loop
      vertex 44.2701 0.945798 0
      vertex 43.8471 0.852692 0
      vertex 43.7177 1.64216 2.4
    endloop
  endfacet
  facet normal -0.102595 0.943259 -0.315812
    outer loop
      vertex 43.7177 1.64216 2.4
      vertex 43.8471 0.852692 0
      vertex 43.3732 1.60469 2.4
    endloop
  endfacet
  facet normal -0.102604 0.943257 -0.315813
    outer loop
      vertex 43.8471 0.852692 0
      vertex 43.4166 0.805864 0
      vertex 43.3732 1.60469 2.4
    endloop
  endfacet
  facet normal 0 0.948822 -0.31581
    outer loop
      vertex 43.4166 0.805864 0
      vertex 43.0268 1.60469 2.4
      vertex 43.3732 1.60469 2.4
    endloop
  endfacet
  facet normal 0 0.948822 -0.31581
    outer loop
      vertex 43.0268 1.60469 2.4
      vertex 43.4166 0.805864 0
      vertex 42.9834 0.805864 0
    endloop
  endfacet
  facet normal 0.102595 0.943258 -0.315813
    outer loop
      vertex 43.0268 1.60469 2.4
      vertex 42.9834 0.805864 0
      vertex 42.6823 1.64216 2.4
    endloop
  endfacet
  facet normal 0.102604 0.943258 -0.315812
    outer loop
      vertex 42.6823 1.64216 2.4
      vertex 42.9834 0.805864 0
      vertex 42.5529 0.852692 0
    endloop
  endfacet
  facet normal 0.203949 0.926643 -0.315811
    outer loop
      vertex 42.6823 1.64216 2.4
      vertex 42.5529 0.852692 0
      vertex 42.3439 1.71664 2.4
    endloop
  endfacet
  facet normal 0.203962 0.926641 -0.315809
    outer loop
      vertex 42.3439 1.71664 2.4
      vertex 42.5529 0.852692 0
      vertex 42.1299 0.945798 0
    endloop
  endfacet
  facet normal 0.302992 0.899145 -0.315808
    outer loop
      vertex 42.3439 1.71664 2.4
      vertex 42.1299 0.945798 0
      vertex 42.0156 1.82727 2.4
    endloop
  endfacet
  facet normal 0.302917 0.899166 -0.315819
    outer loop
      vertex 42.0156 1.82727 2.4
      vertex 42.1299 0.945798 0
      vertex 41.7194 1.08409 0
    endloop
  endfacet
  facet normal 0.398369 0.861138 -0.315824
    outer loop
      vertex 42.0156 1.82727 2.4
      vertex 41.7194 1.08409 0
      vertex 41.7011 1.97276 2.4
    endloop
  endfacet
  facet normal 0.398471 0.861096 -0.315808
    outer loop
      vertex 41.7011 1.97276 2.4
      vertex 41.7194 1.08409 0
      vertex 41.3264 1.26595 0
    endloop
  endfacet
  facet normal 0.489152 0.813017 -0.315806
    outer loop
      vertex 41.4042 2.15139 2.4
      vertex 41.7011 1.97276 2.4
      vertex 41.3264 1.26595 0
    endloop
  endfacet
  facet normal 0.489181 0.813002 -0.315801
    outer loop
      vertex 41.4042 2.15139 2.4
      vertex 41.3264 1.26595 0
      vertex 40.9553 1.48924 0
    endloop
  endfacet
  facet normal 0.574261 0.755312 -0.315798
    outer loop
      vertex 41.1284 2.36108 2.4
      vertex 41.4042 2.15139 2.4
      vertex 40.9553 1.48924 0
    endloop
  endfacet
  facet normal 0.574203 0.755352 -0.315808
    outer loop
      vertex 41.1284 2.36108 2.4
      vertex 40.9553 1.48924 0
      vertex 40.6105 1.75135 0
    endloop
  endfacet
  facet normal 0.652435 0.688907 -0.31581
    outer loop
      vertex 40.8768 2.59936 2.4
      vertex 41.1284 2.36108 2.4
      vertex 40.6105 1.75135 0
    endloop
  endfacet
  facet normal 0.652435 0.688907 -0.31581
    outer loop
      vertex 40.8768 2.59936 2.4
      vertex 40.6105 1.75135 0
      vertex 40.296 2.0492 0
    endloop
  endfacet
  facet normal 0.723172 0.614236 -0.315811
    outer loop
      vertex 40.6525 2.86344 2.4
      vertex 40.8768 2.59936 2.4
      vertex 40.296 2.0492 0
    endloop
  endfacet
  facet normal 0.723143 0.614267 -0.315817
    outer loop
      vertex 40.6525 2.86344 2.4
      vertex 40.296 2.0492 0
      vertex 40.0156 2.3793 0
    endloop
  endfacet
  facet normal 0.78539 0.532375 -0.315816
    outer loop
      vertex 40.4581 3.15023 2.4
      vertex 40.6525 2.86344 2.4
      vertex 40.0156 2.3793 0
    endloop
  endfacet
  facet normal 0.785392 0.532372 -0.315816
    outer loop
      vertex 40.4581 3.15023 2.4
      vertex 40.0156 2.3793 0
      vertex 39.7726 2.73779 0
    endloop
  endfacet
  facet normal 0.838289 0.444447 -0.315814
    outer loop
      vertex 40.2958 3.45635 2.4
      vertex 40.4581 3.15023 2.4
      vertex 39.7726 2.73779 0
    endloop
  endfacet
  facet normal 0.838264 0.444489 -0.315822
    outer loop
      vertex 40.2958 3.45635 2.4
      vertex 39.7726 2.73779 0
      vertex 39.5697 3.12044 0
    endloop
  endfacet
  facet normal 0.881381 0.351315 -0.315825
    outer loop
      vertex 40.1675 3.77823 2.4
      vertex 40.2958 3.45635 2.4
      vertex 39.5697 3.12044 0
    endloop
  endfacet
  facet normal 0.881444 0.351176 -0.315803
    outer loop
      vertex 40.1675 3.77823 2.4
      vertex 39.5697 3.12044 0
      vertex 39.4094 3.52279 0
    endloop
  endfacet
  facet normal 0.914237 0.253848 -0.315803
    outer loop
      vertex 40.0748 4.11209 2.4
      vertex 40.1675 3.77823 2.4
      vertex 39.4094 3.52279 0
    endloop
  endfacet
  facet normal 0.914222 0.253896 -0.31581
    outer loop
      vertex 40.0748 4.11209 2.4
      vertex 39.4094 3.52279 0
      vertex 39.2935 3.94012 0
    endloop
  endfacet
  facet normal 0.936348 0.153352 -0.315809
    outer loop
      vertex 40.0188 4.45402 2.4
      vertex 40.0748 4.11209 2.4
      vertex 39.2935 3.94012 0
    endloop
  endfacet
  facet normal 0.936302 0.153568 -0.315841
    outer loop
      vertex 40.0188 4.45402 2.4
      vertex 39.2935 3.94012 0
      vertex 39.2234 4.36752 0
    endloop
  endfacet
  facet normal 0.947413 0.0514809 -0.315844
    outer loop
      vertex 40 4.8 2.4
      vertex 40.0188 4.45402 2.4
      vertex 39.2234 4.36752 0
    endloop
  endfacet
  facet normal 0.947436 0.0512625 -0.315812
    outer loop
      vertex 40 4.8 2.4
      vertex 39.2234 4.36752 0
      vertex 39.2 4.8 0
    endloop
  endfacet
  facet normal 0.947425 -0.0514816 -0.315808
    outer loop
      vertex 40.0188 5.14598 2.4
      vertex 40 4.8 2.4
      vertex 39.2 4.8 0
    endloop
  endfacet
  facet normal 0.947427 -0.0512632 -0.31584
    outer loop
      vertex 39.2234 5.23247 0
      vertex 40.0188 5.14598 2.4
      vertex 39.2 4.8 0
    endloop
  endfacet
  facet normal 0.936337 -0.15335 -0.315844
    outer loop
      vertex 40.0748 5.48791 2.4
      vertex 40.0188 5.14598 2.4
      vertex 39.2234 5.23247 0
    endloop
  endfacet
  facet normal 0.936312 -0.153566 -0.315812
    outer loop
      vertex 39.2935 5.65988 0
      vertex 40.0748 5.48791 2.4
      vertex 39.2234 5.23247 0
    endloop
  endfacet
  facet normal 0.914233 -0.253855 -0.315811
    outer loop
      vertex 40.1675 5.82176 2.4
      vertex 40.0748 5.48791 2.4
      vertex 39.2935 5.65988 0
    endloop
  endfacet
  facet normal 0.914223 -0.253896 -0.315804
    outer loop
      vertex 39.4094 6.07721 0
      vertex 40.1675 5.82176 2.4
      vertex 39.2935 5.65988 0
    endloop
  endfacet
  facet normal 0.881392 -0.351308 -0.315802
    outer loop
      vertex 40.2958 6.14365 2.4
      vertex 40.1675 5.82176 2.4
      vertex 39.4094 6.07721 0
    endloop
  endfacet
  facet normal 0.881438 -0.351173 -0.315823
    outer loop
      vertex 39.5697 6.47956 0
      vertex 40.2958 6.14365 2.4
      vertex 39.4094 6.07721 0
    endloop
  endfacet
  facet normal 0.838286 -0.444446 -0.315822
    outer loop
      vertex 40.4581 6.44977 2.4
      vertex 40.2958 6.14365 2.4
      vertex 39.5697 6.47956 0
    endloop
  endfacet
  facet normal 0.838266 -0.44449 -0.315815
    outer loop
      vertex 39.7726 6.86221 0
      vertex 40.4581 6.44977 2.4
      vertex 39.5697 6.47956 0
    endloop
  endfacet
  facet normal 0.78539 -0.532375 -0.315816
    outer loop
      vertex 40.6525 6.73656 2.4
      vertex 40.4581 6.44977 2.4
      vertex 39.7726 6.86221 0
    endloop
  endfacet
  facet normal 0.785392 -0.532372 -0.315816
    outer loop
      vertex 40.0156 7.2207 0
      vertex 40.6525 6.73656 2.4
      vertex 39.7726 6.86221 0
    endloop
  endfacet
  facet normal 0.72317 -0.614235 -0.315818
    outer loop
      vertex 40.8768 7.00064 2.4
      vertex 40.6525 6.73656 2.4
      vertex 40.0156 7.2207 0
    endloop
  endfacet
  facet normal 0.723145 -0.614268 -0.315812
    outer loop
      vertex 40.296 7.5508 0
      vertex 40.8768 7.00064 2.4
      vertex 40.0156 7.2207 0
    endloop
  endfacet
  facet normal 0.652435 -0.688907 -0.31581
    outer loop
      vertex 41.1284 7.23892 2.4
      vertex 40.8768 7.00064 2.4
      vertex 40.296 7.5508 0
    endloop
  endfacet
  facet normal 0.652435 -0.688907 -0.31581
    outer loop
      vertex 40.6105 7.84865 0
      vertex 41.1284 7.23892 2.4
      vertex 40.296 7.5508 0
    endloop
  endfacet
  facet normal 0.574242 -0.755322 -0.315809
    outer loop
      vertex 41.4042 7.4486 2.4
      vertex 41.1284 7.23892 2.4
      vertex 40.6105 7.84865 0
    endloop
  endfacet
  facet normal 0.574191 -0.755364 -0.3158
    outer loop
      vertex 40.9553 8.11075 0
      vertex 41.4042 7.4486 2.4
      vertex 40.6105 7.84865 0
    endloop
  endfacet
  facet normal 0.489173 -0.813006 -0.315801
    outer loop
      vertex 41.7011 7.62724 2.4
      vertex 41.4042 7.4486 2.4
      vertex 40.9553 8.11075 0
    endloop
  endfacet
  facet normal 0.489197 -0.812991 -0.315805
    outer loop
      vertex 41.3264 8.33405 0
      vertex 41.7011 7.62724 2.4
      vertex 40.9553 8.11075 0
    endloop
  endfacet
  facet normal 0.398371 -0.861143 -0.315806
    outer loop
      vertex 42.0156 7.77273 2.4
      vertex 41.7011 7.62724 2.4
      vertex 41.3264 8.33405 0
    endloop
  endfacet
  facet normal 0.398469 -0.861092 -0.315822
    outer loop
      vertex 41.7194 8.51591 0
      vertex 42.0156 7.77273 2.4
      vertex 41.3264 8.33405 0
    endloop
  endfacet
  facet normal 0.302991 -0.899141 -0.315821
    outer loop
      vertex 42.3439 7.88336 2.4
      vertex 42.0156 7.77273 2.4
      vertex 41.7194 8.51591 0
    endloop
  endfacet
  facet normal 0.302914 -0.899171 -0.315808
    outer loop
      vertex 42.1299 8.6542 0
      vertex 42.3439 7.88336 2.4
      vertex 41.7194 8.51591 0
    endloop
  endfacet
  facet normal 0.203949 -0.926644 -0.315808
    outer loop
      vertex 42.6823 7.95784 2.4
      vertex 42.3439 7.88336 2.4
      vertex 42.1299 8.6542 0
    endloop
  endfacet
  facet normal 0.20397 -0.926639 -0.315811
    outer loop
      vertex 42.5529 8.74731 0
      vertex 42.6823 7.95784 2.4
      vertex 42.1299 8.6542 0
    endloop
  endfacet
  facet normal 0.102595 -0.943259 -0.315813
    outer loop
      vertex 43.0268 7.99531 2.4
      vertex 42.6823 7.95784 2.4
      vertex 42.5529 8.74731 0
    endloop
  endfacet
  facet normal 0.102586 -0.94326 -0.315811
    outer loop
      vertex 42.9834 8.79413 0
      vertex 43.0268 7.99531 2.4
      vertex 42.5529 8.74731 0
    endloop
  endfacet
  facet normal 0 -0.948823 -0.315808
    outer loop
      vertex 42.9834 8.79413 0
      vertex 43.3732 7.99531 2.4
      vertex 43.0268 7.99531 2.4
    endloop
  endfacet
  facet normal 0 -0.948823 -0.315808
    outer loop
      vertex 43.3732 7.99531 2.4
      vertex 42.9834 8.79413 0
      vertex 43.4166 8.79413 0
    endloop
  endfacet
  facet normal -0.102595 -0.943259 -0.315811
    outer loop
      vertex 43.4166 8.79413 0
      vertex 43.7177 7.95784 2.4
      vertex 43.3732 7.99531 2.4
    endloop
  endfacet
  facet normal -0.102586 -0.94326 -0.315812
    outer loop
      vertex 43.8471 8.74731 0
      vertex 43.7177 7.95784 2.4
      vertex 43.4166 8.79413 0
    endloop
  endfacet
  facet normal -0.203949 -0.926643 -0.315812
    outer loop
      vertex 43.8471 8.74731 0
      vertex 44.0561 7.88336 2.4
      vertex 43.7177 7.95784 2.4
    endloop
  endfacet
  facet normal -0.20397 -0.92664 -0.315809
    outer loop
      vertex 44.2701 8.6542 0
      vertex 44.0561 7.88336 2.4
      vertex 43.8471 8.74731 0
    endloop
  endfacet
  facet normal -0.302992 -0.899145 -0.315807
    outer loop
      vertex 44.2701 8.6542 0
      vertex 44.3844 7.77273 2.4
      vertex 44.0561 7.88336 2.4
    endloop
  endfacet
  facet normal -0.302981 -0.899148 -0.315809
    outer loop
      vertex 44.6805 8.51591 0
      vertex 44.3844 7.77273 2.4
      vertex 44.2701 8.6542 0
    endloop
  endfacet
  facet normal -0.398371 -0.861142 -0.315809
    outer loop
      vertex 44.6805 8.51591 0
      vertex 44.6989 7.62724 2.4
      vertex 44.3844 7.77273 2.4
    endloop
  endfacet
  facet normal -0.398387 -0.861135 -0.315806
    outer loop
      vertex 45.0736 8.33405 0
      vertex 44.6989 7.62724 2.4
      vertex 44.6805 8.51591 0
    endloop
  endfacet
  facet normal -0.489172 -0.813005 -0.315805
    outer loop
      vertex 45.0736 8.33405 0
      vertex 44.9958 7.4486 2.4
      vertex 44.6989 7.62724 2.4
    endloop
  endfacet
  facet normal -0.489197 -0.812992 -0.315801
    outer loop
      vertex 45.0736 8.33405 0
      vertex 45.4447 8.11075 0
      vertex 44.9958 7.4486 2.4
    endloop
  endfacet
  facet normal -0.574244 -0.755325 -0.315798
    outer loop
      vertex 45.4447 8.11075 0
      vertex 45.2716 7.23892 2.4
      vertex 44.9958 7.4486 2.4
    endloop
  endfacet
  facet normal -0.574189 -0.755362 -0.315808
    outer loop
      vertex 45.4447 8.11075 0
      vertex 45.7895 7.84865 0
      vertex 45.2716 7.23892 2.4
    endloop
  endfacet
  facet normal -0.652435 -0.688907 -0.31581
    outer loop
      vertex 45.7895 7.84865 0
      vertex 45.5232 7.00064 2.4
      vertex 45.2716 7.23892 2.4
    endloop
  endfacet
  facet normal -0.652435 -0.688907 -0.31581
    outer loop
      vertex 45.7895 7.84865 0
      vertex 46.104 7.5508 0
      vertex 45.5232 7.00064 2.4
    endloop
  endfacet
  facet normal -0.723172 -0.614236 -0.315811
    outer loop
      vertex 46.104 7.5508 0
      vertex 45.7475 6.73656 2.4
      vertex 45.5232 7.00064 2.4
    endloop
  endfacet
  facet normal -0.723143 -0.614267 -0.315817
    outer loop
      vertex 46.104 7.5508 0
      vertex 46.3844 7.2207 0
      vertex 45.7475 6.73656 2.4
    endloop
  endfacet
  facet normal -0.78539 -0.532375 -0.315816
    outer loop
      vertex 46.3844 7.2207 0
      vertex 45.9419 6.44977 2.4
      vertex 45.7475 6.73656 2.4
    endloop
  endfacet
  facet normal -0.785392 -0.532372 -0.315816
    outer loop
      vertex 46.3844 7.2207 0
      vertex 46.6274 6.86221 0
      vertex 45.9419 6.44977 2.4
    endloop
  endfacet
  facet normal -0.838289 -0.444447 -0.315814
    outer loop
      vertex 46.6274 6.86221 0
      vertex 46.1042 6.14365 2.4
      vertex 45.9419 6.44977 2.4
    endloop
  endfacet
  facet normal -0.838264 -0.444489 -0.315822
    outer loop
      vertex 46.6274 6.86221 0
      vertex 46.8303 6.47956 0
      vertex 46.1042 6.14365 2.4
    endloop
  endfacet
  facet normal -0.881385 -0.351305 -0.315825
    outer loop
      vertex 46.8303 6.47956 0
      vertex 46.2325 5.82176 2.4
      vertex 46.1042 6.14365 2.4
    endloop
  endfacet
  facet normal -0.881444 -0.351175 -0.315804
    outer loop
      vertex 46.8303 6.47956 0
      vertex 46.9906 6.07721 0
      vertex 46.2325 5.82176 2.4
    endloop
  endfacet
  facet normal -0.914235 -0.253855 -0.315804
    outer loop
      vertex 46.9906 6.07721 0
      vertex 46.3252 5.48791 2.4
      vertex 46.2325 5.82176 2.4
    endloop
  endfacet
  facet normal -0.914222 -0.253896 -0.31581
    outer loop
      vertex 46.9906 6.07721 0
      vertex 47.1065 5.65988 0
      vertex 46.3252 5.48791 2.4
    endloop
  endfacet
  facet normal -0.936348 -0.153352 -0.315809
    outer loop
      vertex 47.1065 5.65988 0
      vertex 46.3812 5.14598 2.4
      vertex 46.3252 5.48791 2.4
    endloop
  endfacet
  facet normal -0.936303 -0.153564 -0.31584
    outer loop
      vertex 47.1065 5.65988 0
      vertex 47.1766 5.23247 0
      vertex 46.3812 5.14598 2.4
    endloop
  endfacet
  facet normal -0.947414 -0.0514809 -0.315844
    outer loop
      vertex 47.1766 5.23247 0
      vertex 46.4 4.8 2.4
      vertex 46.3812 5.14598 2.4
    endloop
  endfacet
  facet normal -0.947436 -0.0512637 -0.315812
    outer loop
      vertex 47.1766 5.23247 0
      vertex 47.2 4.8 0
      vertex 46.4 4.8 2.4
    endloop
  endfacet
  facet normal -0.947425 0.0514816 -0.315808
    outer loop
      vertex 46.4 4.8 2.4
      vertex 47.2 4.8 0
      vertex 46.3812 4.45402 2.4
    endloop
  endfacet
  facet normal -0.947427 0.051262 -0.315841
    outer loop
      vertex 47.2 4.8 0
      vertex 47.1766 4.36752 0
      vertex 46.3812 4.45402 2.4
    endloop
  endfacet
  facet normal 1 -0 0
    outer loop
      vertex 48 0 2.4
      vertex 48 9.6 0
      vertex 48 9.6 2.4
    endloop
  endfacet
  facet normal 1 0 0
    outer loop
      vertex 48 9.6 0
      vertex 48 0 2.4
      vertex 48 0 0
    endloop
  endfacet
  facet normal -0 0 1
    outer loop
      vertex 0 1 1.65
      vertex 38.4 0 1.65
      vertex 38.4 1 1.65
    endloop
  endfacet
  facet normal 0 0 1
    outer loop
      vertex 38.4 0 1.65
      vertex 0 1 1.65
      vertex 0 0 1.65
    endloop
  endfacet
  facet normal 0 1 -0
    outer loop
      vertex 38.4 9.6 0
      vertex 0 9.6 0.7
      vertex 38.4 9.6 0.7
    endloop
  endfacet
  facet normal 0 1 0
    outer loop
      vertex 0 9.6 0.7
      vertex 38.4 9.6 0
      vertex 0 9.6 0
    endloop
  endfacet
  facet normal 0 1 -0
    outer loop
      vertex 38.4 1 0.7
      vertex 0 1 1.65
      vertex 38.4 1 1.65
    endloop
  endfacet
  facet normal 0 1 0
    outer loop
      vertex 0 1 1.65
      vertex 38.4 1 0.7
      vertex 0 1 0.7
    endloop
  endfacet
  facet normal 0 0 1
    outer loop
      vertex 38.4 9.6 0.7
      vertex 0 9.6 0.7
      vertex 38.4 1 0.7
    endloop
  endfacet
  facet normal 0 0 1
    outer loop
      vertex 38.4 1 0.7
      vertex 0 9.6 0.7
      vertex 0 1 0.7
    endloop
  endfacet
endsolid OpenSCAD_Model
