solid OpenSCAD_Model
  facet normal 0.936325 -0.153487 -0.31581
    outer loop
      vertex -3.18124 0.345981 2.4
      vertex -3.97655 0.432476 0
      vertex -3.12519 0.687905 2.4
    endloop
  endfacet
  facet normal 0.936324 -0.153503 -0.315808
    outer loop
      vertex -3.97655 0.432476 0
      vertex -3.90648 0.859882 0
      vertex -3.12519 0.687905 2.4
    endloop
  endfacet
  facet normal 0.914235 -0.253851 -0.315808
    outer loop
      vertex -3.12519 0.687905 2.4
      vertex -3.90648 0.859882 0
      vertex -3.03249 1.02176 2.4
    endloop
  endfacet
  facet normal 0.914238 -0.253836 -0.31581
    outer loop
      vertex -3.90648 0.859882 0
      vertex -3.79061 1.27721 0
      vertex -3.03249 1.02176 2.4
    endloop
  endfacet
  facet normal 0.881436 -0.351189 -0.315811
    outer loop
      vertex -3.03249 1.02176 2.4
      vertex -3.79061 1.27721 0
      vertex -2.90424 1.34365 2.4
    endloop
  endfacet
  facet normal 0.881435 -0.351194 -0.31581
    outer loop
      vertex -3.79061 1.27721 0
      vertex -3.6303 1.67956 0
      vertex -2.90424 1.34365 2.4
    endloop
  endfacet
  facet normal 0.83829 -0.444448 -0.31581
    outer loop
      vertex -2.90424 1.34365 2.4
      vertex -3.6303 1.67956 0
      vertex -2.74194 1.64977 2.4
    endloop
  endfacet
  facet normal 0.838298 -0.44443 -0.315813
    outer loop
      vertex -3.6303 1.67956 0
      vertex -3.42743 2.06222 0
      vertex -2.74194 1.64977 2.4
    endloop
  endfacet
  facet normal 0.78534 -0.53245 -0.315813
    outer loop
      vertex -2.74194 1.64977 2.4
      vertex -3.42743 2.06222 0
      vertex -2.5475 1.93656 2.4
    endloop
  endfacet
  facet normal 0.785326 -0.532474 -0.315809
    outer loop
      vertex -3.42743 2.06222 0
      vertex -3.18437 2.4207 0
      vertex -2.5475 1.93656 2.4
    endloop
  endfacet
  facet normal 0.723159 -0.614252 -0.315809
    outer loop
      vertex -2.5475 1.93656 2.4
      vertex -3.18437 2.4207 0
      vertex -2.32319 2.20064 2.4
    endloop
  endfacet
  facet normal 0.723156 -0.614256 -0.315809
    outer loop
      vertex -3.18437 2.4207 0
      vertex -2.90398 2.7508 0
      vertex -2.32319 2.20064 2.4
    endloop
  endfacet
  facet normal 0.652504 -0.688842 -0.315809
    outer loop
      vertex -2.32319 2.20064 2.4
      vertex -2.90398 2.7508 0
      vertex -2.07164 2.43892 2.4
    endloop
  endfacet
  facet normal 0.652512 -0.688834 -0.31581
    outer loop
      vertex -2.90398 2.7508 0
      vertex -2.58955 3.04865 0
      vertex -2.07164 2.43892 2.4
    endloop
  endfacet
  facet normal 0.574189 -0.755362 -0.31581
    outer loop
      vertex -2.07164 2.43892 2.4
      vertex -2.58955 3.04865 0
      vertex -1.7958 2.6486 2.4
    endloop
  endfacet
  facet normal 0.574202 -0.75535 -0.315813
    outer loop
      vertex -2.58955 3.04865 0
      vertex -2.24475 3.31076 0
      vertex -1.7958 2.6486 2.4
    endloop
  endfacet
  facet normal 0.489183 -0.812996 -0.315813
    outer loop
      vertex -1.7958 2.6486 2.4
      vertex -2.24475 3.31076 0
      vertex -1.49891 2.82724 2.4
    endloop
  endfacet
  facet normal 0.48916 -0.813011 -0.315809
    outer loop
      vertex -2.24475 3.31076 0
      vertex -1.87363 3.53405 0
      vertex -1.49891 2.82724 2.4
    endloop
  endfacet
  facet normal 0.398402 -0.861127 -0.315809
    outer loop
      vertex -1.49891 2.82724 2.4
      vertex -1.87363 3.53405 0
      vertex -1.18444 2.97273 2.4
    endloop
  endfacet
  facet normal 0.398404 -0.861127 -0.31581
    outer loop
      vertex -1.87363 3.53405 0
      vertex -1.48055 3.71591 0
      vertex -1.18444 2.97273 2.4
    endloop
  endfacet
  facet normal 0.302952 -0.899158 -0.31581
    outer loop
      vertex -1.18444 2.97273 2.4
      vertex -1.48055 3.71591 0
      vertex -0.856091 3.08336 2.4
    endloop
  endfacet
  facet normal 0.302954 -0.899157 -0.31581
    outer loop
      vertex -1.48055 3.71591 0
      vertex -1.07011 3.8542 0
      vertex -0.856091 3.08336 2.4
    endloop
  endfacet
  facet normal 0.203956 -0.926642 -0.31581
    outer loop
      vertex -0.856091 3.08336 2.4
      vertex -1.07011 3.8542 0
      vertex -0.517702 3.15784 2.4
    endloop
  endfacet
  facet normal 0.203978 -0.926636 -0.315813
    outer loop
      vertex -1.07011 3.8542 0
      vertex -0.647128 3.94731 0
      vertex -0.517702 3.15784 2.4
    endloop
  endfacet
  facet normal 0.102607 -0.943257 -0.315814
    outer loop
      vertex -0.517702 3.15784 2.4
      vertex -0.647128 3.94731 0
      vertex -0.173245 3.19531 2.4
    endloop
  endfacet
  facet normal 0.10257 -0.943263 -0.315808
    outer loop
      vertex -0.647128 3.94731 0
      vertex -0.216556 3.99413 0
      vertex -0.173245 3.19531 2.4
    endloop
  endfacet
  facet normal 0 -0.948823 -0.315808
    outer loop
      vertex -0.173245 3.19531 2.4
      vertex -0.216556 3.99413 0
      vertex 0.173245 3.19531 2.4
    endloop
  endfacet
  facet normal 0 -0.948823 -0.315808
    outer loop
      vertex -0.216556 3.99413 0
      vertex 0.216556 3.99413 0
      vertex 0.173245 3.19531 2.4
    endloop
  endfacet
  facet normal -0.102608 -0.943259 -0.315808
    outer loop
      vertex 0.173245 3.19531 2.4
      vertex 0.216556 3.99413 0
      vertex 0.517702 3.15784 2.4
    endloop
  endfacet
  facet normal -0.102569 -0.943261 -0.315813
    outer loop
      vertex 0.216556 3.99413 0
      vertex 0.647128 3.94731 0
      vertex 0.517702 3.15784 2.4
    endloop
  endfacet
  facet normal -0.203955 -0.926641 -0.315814
    outer loop
      vertex 0.517702 3.15784 2.4
      vertex 0.647128 3.94731 0
      vertex 0.856091 3.08336 2.4
    endloop
  endfacet
  facet normal -0.203978 -0.926637 -0.31581
    outer loop
      vertex 0.647128 3.94731 0
      vertex 1.07011 3.8542 0
      vertex 0.856091 3.08336 2.4
    endloop
  endfacet
  facet normal -0.302951 -0.899158 -0.31581
    outer loop
      vertex 0.856091 3.08336 2.4
      vertex 1.07011 3.8542 0
      vertex 1.18444 2.97273 2.4
    endloop
  endfacet
  facet normal -0.302954 -0.899157 -0.31581
    outer loop
      vertex 1.07011 3.8542 0
      vertex 1.48055 3.71591 0
      vertex 1.18444 2.97273 2.4
    endloop
  endfacet
  facet normal -0.398402 -0.861127 -0.31581
    outer loop
      vertex 1.18444 2.97273 2.4
      vertex 1.48055 3.71591 0
      vertex 1.49891 2.82724 2.4
    endloop
  endfacet
  facet normal -0.398404 -0.861127 -0.315809
    outer loop
      vertex 1.48055 3.71591 0
      vertex 1.87363 3.53405 0
      vertex 1.49891 2.82724 2.4
    endloop
  endfacet
  facet normal -0.489184 -0.812997 -0.315809
    outer loop
      vertex 1.49891 2.82724 2.4
      vertex 1.87363 3.53405 0
      vertex 1.7958 2.6486 2.4
    endloop
  endfacet
  facet normal -0.48916 -0.81301 -0.315813
    outer loop
      vertex 1.87363 3.53405 0
      vertex 2.24475 3.31076 0
      vertex 1.7958 2.6486 2.4
    endloop
  endfacet
  facet normal -0.574188 -0.755361 -0.315813
    outer loop
      vertex 1.7958 2.6486 2.4
      vertex 2.24475 3.31076 0
      vertex 2.07164 2.43892 2.4
    endloop
  endfacet
  facet normal -0.574203 -0.755351 -0.315811
    outer loop
      vertex 2.24475 3.31076 0
      vertex 2.58955 3.04865 0
      vertex 2.07164 2.43892 2.4
    endloop
  endfacet
  facet normal -0.652503 -0.688842 -0.315811
    outer loop
      vertex 2.07164 2.43892 2.4
      vertex 2.58955 3.04865 0
      vertex 2.32319 2.20064 2.4
    endloop
  endfacet
  facet normal -0.652512 -0.688834 -0.315809
    outer loop
      vertex 2.58955 3.04865 0
      vertex 2.90398 2.7508 0
      vertex 2.32319 2.20064 2.4
    endloop
  endfacet
  facet normal -0.723159 -0.614252 -0.315809
    outer loop
      vertex 2.32319 2.20064 2.4
      vertex 2.90398 2.7508 0
      vertex 2.5475 1.93656 2.4
    endloop
  endfacet
  facet normal -0.723156 -0.614255 -0.315809
    outer loop
      vertex 2.90398 2.7508 0
      vertex 3.18437 2.4207 0
      vertex 2.5475 1.93656 2.4
    endloop
  endfacet
  facet normal -0.785341 -0.532451 -0.315809
    outer loop
      vertex 2.5475 1.93656 2.4
      vertex 3.18437 2.4207 0
      vertex 2.74194 1.64977 2.4
    endloop
  endfacet
  facet normal -0.785325 -0.532473 -0.315813
    outer loop
      vertex 3.18437 2.4207 0
      vertex 3.42743 2.06222 0
      vertex 2.74194 1.64977 2.4
    endloop
  endfacet
  facet normal -0.838289 -0.444448 -0.315813
    outer loop
      vertex 2.74194 1.64977 2.4
      vertex 3.42743 2.06222 0
      vertex 2.90424 1.34365 2.4
    endloop
  endfacet
  facet normal -0.838299 -0.44443 -0.31581
    outer loop
      vertex 3.42743 2.06222 0
      vertex 3.6303 1.67956 0
      vertex 2.90424 1.34365 2.4
    endloop
  endfacet
  facet normal -0.881437 -0.351189 -0.31581
    outer loop
      vertex 2.90424 1.34365 2.4
      vertex 3.6303 1.67956 0
      vertex 3.03249 1.02176 2.4
    endloop
  endfacet
  facet normal -0.881434 -0.351194 -0.315811
    outer loop
      vertex 3.6303 1.67956 0
      vertex 3.79061 1.27721 0
      vertex 3.03249 1.02176 2.4
    endloop
  endfacet
  facet normal -0.914234 -0.253851 -0.31581
    outer loop
      vertex 3.03249 1.02176 2.4
      vertex 3.79061 1.27721 0
      vertex 3.12519 0.687905 2.4
    endloop
  endfacet
  facet normal -0.914239 -0.253836 -0.315808
    outer loop
      vertex 3.79061 1.27721 0
      vertex 3.90648 0.859882 0
      vertex 3.12519 0.687905 2.4
    endloop
  endfacet
  facet normal -0.936326 -0.153488 -0.315808
    outer loop
      vertex 3.12519 0.687905 2.4
      vertex 3.90648 0.859882 0
      vertex 3.18124 0.345981 2.4
    endloop
  endfacet
  facet normal -0.936323 -0.153503 -0.31581
    outer loop
      vertex 3.90648 0.859882 0
      vertex 3.97655 0.432476 0
      vertex 3.18124 0.345981 2.4
    endloop
  endfacet
  facet normal -0.947431 -0.0513722 -0.31581
    outer loop
      vertex 3.18124 0.345981 2.4
      vertex 3.97655 0.432476 0
      vertex 3.2 1.95943e-16 2.4
    endloop
  endfacet
  facet normal -0.947431 -0.0513722 -0.31581
    outer loop
      vertex 3.97655 0.432476 0
      vertex 4 1.66552e-15 0
      vertex 3.2 1.95943e-16 2.4
    endloop
  endfacet
  facet normal -0.947431 0.0513722 -0.31581
    outer loop
      vertex 3.2 1.95943e-16 2.4
      vertex 4 1.66552e-15 0
      vertex 3.18124 -0.345981 2.4
    endloop
  endfacet
  facet normal -0.947431 0.0513722 -0.31581
    outer loop
      vertex 4 1.66552e-15 0
      vertex 3.97655 -0.432476 0
      vertex 3.18124 -0.345981 2.4
    endloop
  endfacet
  facet normal -0.936325 0.153487 -0.31581
    outer loop
      vertex 3.18124 -0.345981 2.4
      vertex 3.97655 -0.432476 0
      vertex 3.12519 -0.687905 2.4
    endloop
  endfacet
  facet normal -0.936324 0.153503 -0.315808
    outer loop
      vertex 3.97655 -0.432476 0
      vertex 3.90648 -0.859882 0
      vertex 3.12519 -0.687905 2.4
    endloop
  endfacet
  facet normal -0.914235 0.253851 -0.315808
    outer loop
      vertex 3.12519 -0.687905 2.4
      vertex 3.90648 -0.859882 0
      vertex 3.03249 -1.02176 2.4
    endloop
  endfacet
  facet normal -0.914238 0.253836 -0.31581
    outer loop
      vertex 3.90648 -0.859882 0
      vertex 3.79061 -1.27721 0
      vertex 3.03249 -1.02176 2.4
    endloop
  endfacet
  facet normal -0.881436 0.351189 -0.315811
    outer loop
      vertex 3.03249 -1.02176 2.4
      vertex 3.79061 -1.27721 0
      vertex 2.90424 -1.34365 2.4
    endloop
  endfacet
  facet normal -0.881435 0.351194 -0.31581
    outer loop
      vertex 3.79061 -1.27721 0
      vertex 3.6303 -1.67956 0
      vertex 2.90424 -1.34365 2.4
    endloop
  endfacet
  facet normal -0.83829 0.444448 -0.31581
    outer loop
      vertex 2.90424 -1.34365 2.4
      vertex 3.6303 -1.67956 0
      vertex 2.74194 -1.64977 2.4
    endloop
  endfacet
  facet normal -0.838298 0.44443 -0.315813
    outer loop
      vertex 3.6303 -1.67956 0
      vertex 3.42743 -2.06222 0
      vertex 2.74194 -1.64977 2.4
    endloop
  endfacet
  facet normal -0.78534 0.53245 -0.315813
    outer loop
      vertex 2.74194 -1.64977 2.4
      vertex 3.42743 -2.06222 0
      vertex 2.5475 -1.93656 2.4
    endloop
  endfacet
  facet normal -0.785326 0.532474 -0.315809
    outer loop
      vertex 3.42743 -2.06222 0
      vertex 3.18437 -2.4207 0
      vertex 2.5475 -1.93656 2.4
    endloop
  endfacet
  facet normal -0.723159 0.614252 -0.315809
    outer loop
      vertex 2.5475 -1.93656 2.4
      vertex 3.18437 -2.4207 0
      vertex 2.32319 -2.20064 2.4
    endloop
  endfacet
  facet normal -0.723156 0.614256 -0.315809
    outer loop
      vertex 3.18437 -2.4207 0
      vertex 2.90398 -2.7508 0
      vertex 2.32319 -2.20064 2.4
    endloop
  endfacet
  facet normal -0.652504 0.688842 -0.315809
    outer loop
      vertex 2.32319 -2.20064 2.4
      vertex 2.90398 -2.7508 0
      vertex 2.07164 -2.43892 2.4
    endloop
  endfacet
  facet normal -0.652512 0.688834 -0.31581
    outer loop
      vertex 2.90398 -2.7508 0
      vertex 2.58955 -3.04865 0
      vertex 2.07164 -2.43892 2.4
    endloop
  endfacet
  facet normal -0.574189 0.755362 -0.31581
    outer loop
      vertex 2.07164 -2.43892 2.4
      vertex 2.58955 -3.04865 0
      vertex 1.7958 -2.6486 2.4
    endloop
  endfacet
  facet normal -0.574202 0.75535 -0.315813
    outer loop
      vertex 2.58955 -3.04865 0
      vertex 2.24475 -3.31076 0
      vertex 1.7958 -2.6486 2.4
    endloop
  endfacet
  facet normal -0.489183 0.812996 -0.315813
    outer loop
      vertex 1.7958 -2.6486 2.4
      vertex 2.24475 -3.31076 0
      vertex 1.49891 -2.82724 2.4
    endloop
  endfacet
  facet normal -0.48916 0.813011 -0.315809
    outer loop
      vertex 2.24475 -3.31076 0
      vertex 1.87363 -3.53405 0
      vertex 1.49891 -2.82724 2.4
    endloop
  endfacet
  facet normal -0.398402 0.861127 -0.315809
    outer loop
      vertex 1.49891 -2.82724 2.4
      vertex 1.87363 -3.53405 0
      vertex 1.18444 -2.97273 2.4
    endloop
  endfacet
  facet normal -0.398404 0.861127 -0.31581
    outer loop
      vertex 1.87363 -3.53405 0
      vertex 1.48055 -3.71591 0
      vertex 1.18444 -2.97273 2.4
    endloop
  endfacet
  facet normal -0.302952 0.899158 -0.31581
    outer loop
      vertex 1.18444 -2.97273 2.4
      vertex 1.48055 -3.71591 0
      vertex 0.856091 -3.08336 2.4
    endloop
  endfacet
  facet normal -0.302954 0.899157 -0.31581
    outer loop
      vertex 1.48055 -3.71591 0
      vertex 1.07011 -3.8542 0
      vertex 0.856091 -3.08336 2.4
    endloop
  endfacet
  facet normal -0.203956 0.926642 -0.31581
    outer loop
      vertex 0.856091 -3.08336 2.4
      vertex 1.07011 -3.8542 0
      vertex 0.517702 -3.15784 2.4
    endloop
  endfacet
  facet normal -0.203978 0.926636 -0.315813
    outer loop
      vertex 1.07011 -3.8542 0
      vertex 0.647128 -3.94731 0
      vertex 0.517702 -3.15784 2.4
    endloop
  endfacet
  facet normal -0.102607 0.943257 -0.315814
    outer loop
      vertex 0.517702 -3.15784 2.4
      vertex 0.647128 -3.94731 0
      vertex 0.173245 -3.19531 2.4
    endloop
  endfacet
  facet normal -0.10257 0.943263 -0.315808
    outer loop
      vertex 0.647128 -3.94731 0
      vertex 0.216556 -3.99413 0
      vertex 0.173245 -3.19531 2.4
    endloop
  endfacet
  facet normal 0 0.948823 -0.315808
    outer loop
      vertex 0.173245 -3.19531 2.4
      vertex 0.216556 -3.99413 0
      vertex -0.173245 -3.19531 2.4
    endloop
  endfacet
  facet normal 0 0.948823 -0.315808
    outer loop
      vertex 0.216556 -3.99413 0
      vertex -0.216556 -3.99413 0
      vertex -0.173245 -3.19531 2.4
    endloop
  endfacet
  facet normal 0.102608 0.943259 -0.315808
    outer loop
      vertex -0.173245 -3.19531 2.4
      vertex -0.216556 -3.99413 0
      vertex -0.517702 -3.15784 2.4
    endloop
  endfacet
  facet normal 0.102569 0.943261 -0.315813
    outer loop
      vertex -0.216556 -3.99413 0
      vertex -0.647128 -3.94731 0
      vertex -0.517702 -3.15784 2.4
    endloop
  endfacet
  facet normal 0.203955 0.926641 -0.315814
    outer loop
      vertex -0.517702 -3.15784 2.4
      vertex -0.647128 -3.94731 0
      vertex -0.856091 -3.08336 2.4
    endloop
  endfacet
  facet normal 0.203978 0.926637 -0.31581
    outer loop
      vertex -0.647128 -3.94731 0
      vertex -1.07011 -3.8542 0
      vertex -0.856091 -3.08336 2.4
    endloop
  endfacet
  facet normal 0.302951 0.899158 -0.31581
    outer loop
      vertex -0.856091 -3.08336 2.4
      vertex -1.07011 -3.8542 0
      vertex -1.18444 -2.97273 2.4
    endloop
  endfacet
  facet normal 0.302954 0.899157 -0.31581
    outer loop
      vertex -1.07011 -3.8542 0
      vertex -1.48055 -3.71591 0
      vertex -1.18444 -2.97273 2.4
    endloop
  endfacet
  facet normal 0.398402 0.861127 -0.31581
    outer loop
      vertex -1.18444 -2.97273 2.4
      vertex -1.48055 -3.71591 0
      vertex -1.49891 -2.82724 2.4
    endloop
  endfacet
  facet normal 0.398404 0.861127 -0.315809
    outer loop
      vertex -1.48055 -3.71591 0
      vertex -1.87363 -3.53405 0
      vertex -1.49891 -2.82724 2.4
    endloop
  endfacet
  facet normal 0.489184 0.812997 -0.315809
    outer loop
      vertex -1.49891 -2.82724 2.4
      vertex -1.87363 -3.53405 0
      vertex -1.7958 -2.6486 2.4
    endloop
  endfacet
  facet normal 0.48916 0.81301 -0.315813
    outer loop
      vertex -1.87363 -3.53405 0
      vertex -2.24475 -3.31076 0
      vertex -1.7958 -2.6486 2.4
    endloop
  endfacet
  facet normal 0.574188 0.755361 -0.315813
    outer loop
      vertex -1.7958 -2.6486 2.4
      vertex -2.24475 -3.31076 0
      vertex -2.07164 -2.43892 2.4
    endloop
  endfacet
  facet normal 0.574203 0.755351 -0.315811
    outer loop
      vertex -2.24475 -3.31076 0
      vertex -2.58955 -3.04865 0
      vertex -2.07164 -2.43892 2.4
    endloop
  endfacet
  facet normal 0.652503 0.688842 -0.315811
    outer loop
      vertex -2.07164 -2.43892 2.4
      vertex -2.58955 -3.04865 0
      vertex -2.32319 -2.20064 2.4
    endloop
  endfacet
  facet normal 0.652512 0.688834 -0.315809
    outer loop
      vertex -2.58955 -3.04865 0
      vertex -2.90398 -2.7508 0
      vertex -2.32319 -2.20064 2.4
    endloop
  endfacet
  facet normal 0.723159 0.614252 -0.315809
    outer loop
      vertex -2.32319 -2.20064 2.4
      vertex -2.90398 -2.7508 0
      vertex -2.5475 -1.93656 2.4
    endloop
  endfacet
  facet normal 0.723156 0.614255 -0.315809
    outer loop
      vertex -2.90398 -2.7508 0
      vertex -3.18437 -2.4207 0
      vertex -2.5475 -1.93656 2.4
    endloop
  endfacet
  facet normal 0.785341 0.532451 -0.315809
    outer loop
      vertex -2.5475 -1.93656 2.4
      vertex -3.18437 -2.4207 0
      vertex -2.74194 -1.64977 2.4
    endloop
  endfacet
  facet normal 0.785325 0.532473 -0.315813
    outer loop
      vertex -3.18437 -2.4207 0
      vertex -3.42743 -2.06222 0
      vertex -2.74194 -1.64977 2.4
    endloop
  endfacet
  facet normal 0.838289 0.444448 -0.315813
    outer loop
      vertex -2.74194 -1.64977 2.4
      vertex -3.42743 -2.06222 0
      vertex -2.90424 -1.34365 2.4
    endloop
  endfacet
  facet normal 0.838299 0.44443 -0.31581
    outer loop
      vertex -3.42743 -2.06222 0
      vertex -3.6303 -1.67956 0
      vertex -2.90424 -1.34365 2.4
    endloop
  endfacet
  facet normal 0.881437 0.351189 -0.31581
    outer loop
      vertex -2.90424 -1.34365 2.4
      vertex -3.6303 -1.67956 0
      vertex -3.03249 -1.02176 2.4
    endloop
  endfacet
  facet normal 0.881434 0.351194 -0.315811
    outer loop
      vertex -3.6303 -1.67956 0
      vertex -3.79061 -1.27721 0
      vertex -3.03249 -1.02176 2.4
    endloop
  endfacet
  facet normal 0.914234 0.253851 -0.31581
    outer loop
      vertex -3.03249 -1.02176 2.4
      vertex -3.79061 -1.27721 0
      vertex -3.12519 -0.687905 2.4
    endloop
  endfacet
  facet normal 0.914239 0.253836 -0.315808
    outer loop
      vertex -3.79061 -1.27721 0
      vertex -3.90648 -0.859882 0
      vertex -3.12519 -0.687905 2.4
    endloop
  endfacet
  facet normal 0.936326 0.153488 -0.315808
    outer loop
      vertex -3.12519 -0.687905 2.4
      vertex -3.90648 -0.859882 0
      vertex -3.18124 -0.345981 2.4
    endloop
  endfacet
  facet normal 0.936323 0.153503 -0.31581
    outer loop
      vertex -3.90648 -0.859882 0
      vertex -3.97655 -0.432476 0
      vertex -3.18124 -0.345981 2.4
    endloop
  endfacet
  facet normal 0.947431 0.0513722 -0.31581
    outer loop
      vertex -3.18124 -0.345981 2.4
      vertex -3.97655 -0.432476 0
      vertex -3.2 -2.25434e-15 2.4
    endloop
  endfacet
  facet normal 0.947431 0.0513722 -0.31581
    outer loop
      vertex -3.97655 -0.432476 0
      vertex -4 1.95943e-16 0
      vertex -3.2 -2.25434e-15 2.4
    endloop
  endfacet
  facet normal 0.947431 -0.0513722 -0.31581
    outer loop
      vertex -3.2 -2.25434e-15 2.4
      vertex -4 1.95943e-16 0
      vertex -3.18124 0.345981 2.4
    endloop
  endfacet
  facet normal 0.947431 -0.0513722 -0.31581
    outer loop
      vertex -4 1.95943e-16 0
      vertex -3.97655 0.432476 0
      vertex -3.18124 0.345981 2.4
    endloop
  endfacet
  facet normal 0 0 -1
    outer loop
      vertex -3.18437 2.4207 0
      vertex -3.82125 2.90484 0
      vertex -2.90398 2.7508 0
    endloop
  endfacet
  facet normal 0 0 -1
    outer loop
      vertex -3.82125 2.90484 0
      vertex -3.48478 3.30096 0
      vertex -2.90398 2.7508 0
    endloop
  endfacet
  facet normal 0 0 -1
    outer loop
      vertex -2.90398 2.7508 0
      vertex -3.48478 3.30096 0
      vertex -2.58955 3.04865 0
    endloop
  endfacet
  facet normal 0 0 -1
    outer loop
      vertex -3.48478 3.30096 0
      vertex -3.10745 3.65838 0
      vertex -2.58955 3.04865 0
    endloop
  endfacet
  facet normal 0 0 -1
    outer loop
      vertex -2.58955 3.04865 0
      vertex -3.10745 3.65838 0
      vertex -2.24475 3.31076 0
    endloop
  endfacet
  facet normal 0 0 -1
    outer loop
      vertex -3.10745 3.65838 0
      vertex -2.6937 3.97291 0
      vertex -2.24475 3.31076 0
    endloop
  endfacet
  facet normal 0 0 -1
    outer loop
      vertex -2.24475 3.31076 0
      vertex -2.6937 3.97291 0
      vertex -1.87363 3.53405 0
    endloop
  endfacet
  facet normal 0 0 -1
    outer loop
      vertex -2.6937 3.97291 0
      vertex -2.24836 4.24086 0
      vertex -1.87363 3.53405 0
    endloop
  endfacet
  facet normal 0 0 -1
    outer loop
      vertex -1.87363 3.53405 0
      vertex -2.24836 4.24086 0
      vertex -1.48055 3.71591 0
    endloop
  endfacet
  facet normal 0 0 -1
    outer loop
      vertex -2.24836 4.24086 0
      vertex -1.77666 4.45909 0
      vertex -1.48055 3.71591 0
    endloop
  endfacet
  facet normal 0 0 -1
    outer loop
      vertex -1.48055 3.71591 0
      vertex -1.77666 4.45909 0
      vertex -1.07011 3.8542 0
    endloop
  endfacet
  facet normal 0 0 -1
    outer loop
      vertex -1.77666 4.45909 0
      vertex -1.28414 4.62504 0
      vertex -1.07011 3.8542 0
    endloop
  endfacet
  facet normal 0 0 -1
    outer loop
      vertex -1.07011 3.8542 0
      vertex -1.28414 4.62504 0
      vertex -0.647128 3.94731 0
    endloop
  endfacet
  facet normal 0 0 -1
    outer loop
      vertex -1.28414 4.62504 0
      vertex -0.776554 4.73677 0
      vertex -0.647128 3.94731 0
    endloop
  endfacet
  facet normal 0 0 -1
    outer loop
      vertex -0.647128 3.94731 0
      vertex -0.776554 4.73677 0
      vertex -0.216556 3.99413 0
    endloop
  endfacet
  facet normal 0 0 -1
    outer loop
      vertex -0.776554 4.73677 0
      vertex -0.259867 4.79296 0
      vertex -0.216556 3.99413 0
    endloop
  endfacet
  facet normal 0 0 -1
    outer loop
      vertex -0.216556 3.99413 0
      vertex -0.259867 4.79296 0
      vertex 0.216556 3.99413 0
    endloop
  endfacet
  facet normal 0 0 -1
    outer loop
      vertex -0.259867 4.79296 0
      vertex 0.259867 4.79296 0
      vertex 0.216556 3.99413 0
    endloop
  endfacet
  facet normal 0 0 -1
    outer loop
      vertex 0.216556 3.99413 0
      vertex 0.259867 4.79296 0
      vertex 0.647128 3.94731 0
    endloop
  endfacet
  facet normal 0 0 -1
    outer loop
      vertex 0.259867 4.79296 0
      vertex 0.776554 4.73677 0
      vertex 0.647128 3.94731 0
    endloop
  endfacet
  facet normal 0 0 -1
    outer loop
      vertex 0.647128 3.94731 0
      vertex 0.776554 4.73677 0
      vertex 1.07011 3.8542 0
    endloop
  endfacet
  facet normal 0 0 -1
    outer loop
      vertex 0.776554 4.73677 0
      vertex 1.28414 4.62504 0
      vertex 1.07011 3.8542 0
    endloop
  endfacet
  facet normal 0 0 -1
    outer loop
      vertex 1.07011 3.8542 0
      vertex 1.28414 4.62504 0
      vertex 1.48055 3.71591 0
    endloop
  endfacet
  facet normal 0 0 -1
    outer loop
      vertex 1.28414 4.62504 0
      vertex 1.77666 4.45909 0
      vertex 1.48055 3.71591 0
    endloop
  endfacet
  facet normal 0 0 -1
    outer loop
      vertex 1.48055 3.71591 0
      vertex 1.77666 4.45909 0
      vertex 1.87363 3.53405 0
    endloop
  endfacet
  facet normal 0 0 -1
    outer loop
      vertex 1.77666 4.45909 0
      vertex 2.24836 4.24086 0
      vertex 1.87363 3.53405 0
    endloop
  endfacet
  facet normal 0 0 -1
    outer loop
      vertex 1.87363 3.53405 0
      vertex 2.24836 4.24086 0
      vertex 2.24475 3.31076 0
    endloop
  endfacet
  facet normal 0 -0 -1
    outer loop
      vertex 2.24836 4.24086 0
      vertex 2.6937 3.97291 0
      vertex 2.24475 3.31076 0
    endloop
  endfacet
  facet normal 0 0 -1
    outer loop
      vertex 2.24475 3.31076 0
      vertex 2.6937 3.97291 0
      vertex 2.58955 3.04865 0
    endloop
  endfacet
  facet normal 0 -0 -1
    outer loop
      vertex 2.6937 3.97291 0
      vertex 3.10745 3.65838 0
      vertex 2.58955 3.04865 0
    endloop
  endfacet
  facet normal 0 0 -1
    outer loop
      vertex 2.58955 3.04865 0
      vertex 3.10745 3.65838 0
      vertex 2.90398 2.7508 0
    endloop
  endfacet
  facet normal 0 -0 -1
    outer loop
      vertex 3.10745 3.65838 0
      vertex 3.48478 3.30096 0
      vertex 2.90398 2.7508 0
    endloop
  endfacet
  facet normal 0 0 -1
    outer loop
      vertex 2.90398 2.7508 0
      vertex 3.48478 3.30096 0
      vertex 3.18437 2.4207 0
    endloop
  endfacet
  facet normal 0 -0 -1
    outer loop
      vertex 3.48478 3.30096 0
      vertex 3.82125 2.90484 0
      vertex 3.18437 2.4207 0
    endloop
  endfacet
  facet normal 0 0 -1
    outer loop
      vertex 3.18437 2.4207 0
      vertex 3.82125 2.90484 0
      vertex 3.42743 2.06222 0
    endloop
  endfacet
  facet normal 0 -0 -1
    outer loop
      vertex 3.82125 2.90484 0
      vertex 4.11291 2.47466 0
      vertex 3.42743 2.06222 0
    endloop
  endfacet
  facet normal 0 0 -1
    outer loop
      vertex 3.42743 2.06222 0
      vertex 4.11291 2.47466 0
      vertex 3.6303 1.67956 0
    endloop
  endfacet
  facet normal 0 -0 -1
    outer loop
      vertex 4.11291 2.47466 0
      vertex 4.35636 2.01547 0
      vertex 3.6303 1.67956 0
    endloop
  endfacet
  facet normal 0 0 -1
    outer loop
      vertex 3.6303 1.67956 0
      vertex 4.35636 2.01547 0
      vertex 3.79061 1.27721 0
    endloop
  endfacet
  facet normal 0 -0 -1
    outer loop
      vertex 4.35636 2.01547 0
      vertex 4.54874 1.53265 0
      vertex 3.79061 1.27721 0
    endloop
  endfacet
  facet normal 0 0 -1
    outer loop
      vertex 3.79061 1.27721 0
      vertex 4.54874 1.53265 0
      vertex 3.90648 0.859882 0
    endloop
  endfacet
  facet normal 0 -0 -1
    outer loop
      vertex 4.54874 1.53265 0
      vertex 4.68778 1.03186 0
      vertex 3.90648 0.859882 0
    endloop
  endfacet
  facet normal 0 0 -1
    outer loop
      vertex 3.90648 0.859882 0
      vertex 4.68778 1.03186 0
      vertex 3.97655 0.432476 0
    endloop
  endfacet
  facet normal 0 -0 -1
    outer loop
      vertex 4.68778 1.03186 0
      vertex 4.77186 0.518971 0
      vertex 3.97655 0.432476 0
    endloop
  endfacet
  facet normal 0 0 -1
    outer loop
      vertex 3.97655 0.432476 0
      vertex 4.77186 0.518971 0
      vertex 4 1.66552e-15 0
    endloop
  endfacet
  facet normal 0 -0 -1
    outer loop
      vertex 4.77186 0.518971 0
      vertex 4.8 8.81746e-16 0
      vertex 4 1.66552e-15 0
    endloop
  endfacet
  facet normal 0 -0 -1
    outer loop
      vertex 4 1.66552e-15 0
      vertex 4.8 8.81746e-16 0
      vertex 3.97655 -0.432476 0
    endloop
  endfacet
  facet normal 0 0 -1
    outer loop
      vertex 4.8 8.81746e-16 0
      vertex 4.77186 -0.518971 0
      vertex 3.97655 -0.432476 0
    endloop
  endfacet
  facet normal 0 -0 -1
    outer loop
      vertex 3.97655 -0.432476 0
      vertex 4.77186 -0.518971 0
      vertex 3.90648 -0.859882 0
    endloop
  endfacet
  facet normal 0 0 -1
    outer loop
      vertex 4.77186 -0.518971 0
      vertex 4.68778 -1.03186 0
      vertex 3.90648 -0.859882 0
    endloop
  endfacet
  facet normal 0 -0 -1
    outer loop
      vertex 3.90648 -0.859882 0
      vertex 4.68778 -1.03186 0
      vertex 3.79061 -1.27721 0
    endloop
  endfacet
  facet normal 0 0 -1
    outer loop
      vertex 4.68778 -1.03186 0
      vertex 4.54874 -1.53265 0
      vertex 3.79061 -1.27721 0
    endloop
  endfacet
  facet normal 0 -0 -1
    outer loop
      vertex 3.79061 -1.27721 0
      vertex 4.54874 -1.53265 0
      vertex 3.6303 -1.67956 0
    endloop
  endfacet
  facet normal 0 0 -1
    outer loop
      vertex 4.54874 -1.53265 0
      vertex 4.35636 -2.01547 0
      vertex 3.6303 -1.67956 0
    endloop
  endfacet
  facet normal 0 -0 -1
    outer loop
      vertex 3.6303 -1.67956 0
      vertex 4.35636 -2.01547 0
      vertex 3.42743 -2.06222 0
    endloop
  endfacet
  facet normal 0 0 -1
    outer loop
      vertex 4.35636 -2.01547 0
      vertex 4.11291 -2.47466 0
      vertex 3.42743 -2.06222 0
    endloop
  endfacet
  facet normal 0 -0 -1
    outer loop
      vertex 3.42743 -2.06222 0
      vertex 4.11291 -2.47466 0
      vertex 3.18437 -2.4207 0
    endloop
  endfacet
  facet normal -0 0 -1
    outer loop
      vertex 4.11291 -2.47466 0
      vertex 3.82125 -2.90484 0
      vertex 3.18437 -2.4207 0
    endloop
  endfacet
  facet normal 0 -0 -1
    outer loop
      vertex 3.18437 -2.4207 0
      vertex 3.82125 -2.90484 0
      vertex 2.90398 -2.7508 0
    endloop
  endfacet
  facet normal -0 0 -1
    outer loop
      vertex 3.82125 -2.90484 0
      vertex 3.48478 -3.30096 0
      vertex 2.90398 -2.7508 0
    endloop
  endfacet
  facet normal 0 -0 -1
    outer loop
      vertex 2.90398 -2.7508 0
      vertex 3.48478 -3.30096 0
      vertex 2.58955 -3.04865 0
    endloop
  endfacet
  facet normal -0 0 -1
    outer loop
      vertex 3.48478 -3.30096 0
      vertex 3.10745 -3.65838 0
      vertex 2.58955 -3.04865 0
    endloop
  endfacet
  facet normal 0 -0 -1
    outer loop
      vertex 2.58955 -3.04865 0
      vertex 3.10745 -3.65838 0
      vertex 2.24475 -3.31076 0
    endloop
  endfacet
  facet normal -0 0 -1
    outer loop
      vertex 3.10745 -3.65838 0
      vertex 2.6937 -3.97291 0
      vertex 2.24475 -3.31076 0
    endloop
  endfacet
  facet normal 0 -0 -1
    outer loop
      vertex 2.24475 -3.31076 0
      vertex 2.6937 -3.97291 0
      vertex 1.87363 -3.53405 0
    endloop
  endfacet
  facet normal -0 0 -1
    outer loop
      vertex 2.6937 -3.97291 0
      vertex 2.24836 -4.24086 0
      vertex 1.87363 -3.53405 0
    endloop
  endfacet
  facet normal 0 -0 -1
    outer loop
      vertex 1.87363 -3.53405 0
      vertex 2.24836 -4.24086 0
      vertex 1.48055 -3.71591 0
    endloop
  endfacet
  facet normal -0 0 -1
    outer loop
      vertex 2.24836 -4.24086 0
      vertex 1.77666 -4.45909 0
      vertex 1.48055 -3.71591 0
    endloop
  endfacet
  facet normal 0 -0 -1
    outer loop
      vertex 1.48055 -3.71591 0
      vertex 1.77666 -4.45909 0
      vertex 1.07011 -3.8542 0
    endloop
  endfacet
  facet normal -0 0 -1
    outer loop
      vertex 1.77666 -4.45909 0
      vertex 1.28414 -4.62504 0
      vertex 1.07011 -3.8542 0
    endloop
  endfacet
  facet normal 0 -0 -1
    outer loop
      vertex 1.07011 -3.8542 0
      vertex 1.28414 -4.62504 0
      vertex 0.647128 -3.94731 0
    endloop
  endfacet
  facet normal -0 0 -1
    outer loop
      vertex 1.28414 -4.62504 0
      vertex 0.776554 -4.73677 0
      vertex 0.647128 -3.94731 0
    endloop
  endfacet
  facet normal 0 -0 -1
    outer loop
      vertex 0.647128 -3.94731 0
      vertex 0.776554 -4.73677 0
      vertex 0.216556 -3.99413 0
    endloop
  endfacet
  facet normal -0 0 -1
    outer loop
      vertex 0.776554 -4.73677 0
      vertex 0.259867 -4.79296 0
      vertex 0.216556 -3.99413 0
    endloop
  endfacet
  facet normal -0 -0 -1
    outer loop
      vertex 0.216556 -3.99413 0
      vertex 0.259867 -4.79296 0
      vertex -0.216556 -3.99413 0
    endloop
  endfacet
  facet normal 0 0 -1
    outer loop
      vertex 0.259867 -4.79296 0
      vertex -0.259867 -4.79296 0
      vertex -0.216556 -3.99413 0
    endloop
  endfacet
  facet normal -0 0 -1
    outer loop
      vertex -0.216556 -3.99413 0
      vertex -0.259867 -4.79296 0
      vertex -0.647128 -3.94731 0
    endloop
  endfacet
  facet normal 0 0 -1
    outer loop
      vertex -0.259867 -4.79296 0
      vertex -0.776554 -4.73677 0
      vertex -0.647128 -3.94731 0
    endloop
  endfacet
  facet normal -0 0 -1
    outer loop
      vertex -0.647128 -3.94731 0
      vertex -0.776554 -4.73677 0
      vertex -1.07011 -3.8542 0
    endloop
  endfacet
  facet normal 0 0 -1
    outer loop
      vertex -0.776554 -4.73677 0
      vertex -1.28414 -4.62504 0
      vertex -1.07011 -3.8542 0
    endloop
  endfacet
  facet normal -0 0 -1
    outer loop
      vertex -1.07011 -3.8542 0
      vertex -1.28414 -4.62504 0
      vertex -1.48055 -3.71591 0
    endloop
  endfacet
  facet normal 0 0 -1
    outer loop
      vertex -1.28414 -4.62504 0
      vertex -1.77666 -4.45909 0
      vertex -1.48055 -3.71591 0
    endloop
  endfacet
  facet normal -0 0 -1
    outer loop
      vertex -1.48055 -3.71591 0
      vertex -1.77666 -4.45909 0
      vertex -1.87363 -3.53405 0
    endloop
  endfacet
  facet normal 0 0 -1
    outer loop
      vertex -1.77666 -4.45909 0
      vertex -2.24836 -4.24086 0
      vertex -1.87363 -3.53405 0
    endloop
  endfacet
  facet normal -0 0 -1
    outer loop
      vertex -1.87363 -3.53405 0
      vertex -2.24836 -4.24086 0
      vertex -2.24475 -3.31076 0
    endloop
  endfacet
  facet normal 0 0 -1
    outer loop
      vertex -2.24836 -4.24086 0
      vertex -2.6937 -3.97291 0
      vertex -2.24475 -3.31076 0
    endloop
  endfacet
  facet normal -0 0 -1
    outer loop
      vertex -2.24475 -3.31076 0
      vertex -2.6937 -3.97291 0
      vertex -2.58955 -3.04865 0
    endloop
  endfacet
  facet normal 0 0 -1
    outer loop
      vertex -2.6937 -3.97291 0
      vertex -3.10745 -3.65838 0
      vertex -2.58955 -3.04865 0
    endloop
  endfacet
  facet normal -0 0 -1
    outer loop
      vertex -2.58955 -3.04865 0
      vertex -3.10745 -3.65838 0
      vertex -2.90398 -2.7508 0
    endloop
  endfacet
  facet normal 0 0 -1
    outer loop
      vertex -3.10745 -3.65838 0
      vertex -3.48478 -3.30096 0
      vertex -2.90398 -2.7508 0
    endloop
  endfacet
  facet normal -0 0 -1
    outer loop
      vertex -2.90398 -2.7508 0
      vertex -3.48478 -3.30096 0
      vertex -3.18437 -2.4207 0
    endloop
  endfacet
  facet normal 0 0 -1
    outer loop
      vertex -3.48478 -3.30096 0
      vertex -3.82125 -2.90484 0
      vertex -3.18437 -2.4207 0
    endloop
  endfacet
  facet normal -0 0 -1
    outer loop
      vertex -3.18437 -2.4207 0
      vertex -3.82125 -2.90484 0
      vertex -3.42743 -2.06222 0
    endloop
  endfacet
  facet normal 0 0 -1
    outer loop
      vertex -3.82125 -2.90484 0
      vertex -4.11291 -2.47466 0
      vertex -3.42743 -2.06222 0
    endloop
  endfacet
  facet normal -0 0 -1
    outer loop
      vertex -3.42743 -2.06222 0
      vertex -4.11291 -2.47466 0
      vertex -3.6303 -1.67956 0
    endloop
  endfacet
  facet normal 0 0 -1
    outer loop
      vertex -4.11291 -2.47466 0
      vertex -4.35636 -2.01547 0
      vertex -3.6303 -1.67956 0
    endloop
  endfacet
  facet normal -0 0 -1
    outer loop
      vertex -3.6303 -1.67956 0
      vertex -4.35636 -2.01547 0
      vertex -3.79061 -1.27721 0
    endloop
  endfacet
  facet normal 0 0 -1
    outer loop
      vertex -4.35636 -2.01547 0
      vertex -4.54874 -1.53265 0
      vertex -3.79061 -1.27721 0
    endloop
  endfacet
  facet normal -0 0 -1
    outer loop
      vertex -3.79061 -1.27721 0
      vertex -4.54874 -1.53265 0
      vertex -3.90648 -0.859882 0
    endloop
  endfacet
  facet normal 0 0 -1
    outer loop
      vertex -4.54874 -1.53265 0
      vertex -4.68778 -1.03186 0
      vertex -3.90648 -0.859882 0
    endloop
  endfacet
  facet normal -0 0 -1
    outer loop
      vertex -3.90648 -0.859882 0
      vertex -4.68778 -1.03186 0
      vertex -3.97655 -0.432476 0
    endloop
  endfacet
  facet normal 0 0 -1
    outer loop
      vertex -4.68778 -1.03186 0
      vertex -4.77186 -0.518971 0
      vertex -3.97655 -0.432476 0
    endloop
  endfacet
  facet normal -0 0 -1
    outer loop
      vertex -3.97655 -0.432476 0
      vertex -4.77186 -0.518971 0
      vertex -4 1.95943e-16 0
    endloop
  endfacet
  facet normal 0 0 -1
    outer loop
      vertex -4.77186 -0.518971 0
      vertex -4.8 2.93915e-16 0
      vertex -4 1.95943e-16 0
    endloop
  endfacet
  facet normal 0 0 -1
    outer loop
      vertex -4 1.95943e-16 0
      vertex -4.8 2.93915e-16 0
      vertex -3.97655 0.432476 0
    endloop
  endfacet
  facet normal 0 0 -1
    outer loop
      vertex -4.8 2.93915e-16 0
      vertex -4.77186 0.518971 0
      vertex -3.97655 0.432476 0
    endloop
  endfacet
  facet normal 0 0 -1
    outer loop
      vertex -3.97655 0.432476 0
      vertex -4.77186 0.518971 0
      vertex -3.90648 0.859882 0
    endloop
  endfacet
  facet normal 0 0 -1
    outer loop
      vertex -4.77186 0.518971 0
      vertex -4.68778 1.03186 0
      vertex -3.90648 0.859882 0
    endloop
  endfacet
  facet normal 0 0 -1
    outer loop
      vertex -3.90648 0.859882 0
      vertex -4.68778 1.03186 0
      vertex -3.79061 1.27721 0
    endloop
  endfacet
  facet normal 0 0 -1
    outer loop
      vertex -4.68778 1.03186 0
      vertex -4.54874 1.53265 0
      vertex -3.79061 1.27721 0
    endloop
  endfacet
  facet normal 0 0 -1
    outer loop
      vertex -3.79061 1.27721 0
      vertex -4.54874 1.53265 0
      vertex -3.6303 1.67956 0
    endloop
  endfacet
  facet normal 0 0 -1
    outer loop
      vertex -4.54874 1.53265 0
      vertex -4.35636 2.01547 0
      vertex -3.6303 1.67956 0
    endloop
  endfacet
  facet normal 0 0 -1
    outer loop
      vertex -3.6303 1.67956 0
      vertex -4.35636 2.01547 0
      vertex -3.42743 2.06222 0
    endloop
  endfacet
  facet normal 0 0 -1
    outer loop
      vertex -4.35636 2.01547 0
      vertex -4.11291 2.47466 0
      vertex -3.42743 2.06222 0
    endloop
  endfacet
  facet normal 0 0 -1
    outer loop
      vertex -3.42743 2.06222 0
      vertex -4.11291 2.47466 0
      vertex -3.18437 2.4207 0
    endloop
  endfacet
  facet normal 0 0 -1
    outer loop
      vertex -4.11291 2.47466 0
      vertex -3.82125 2.90484 0
      vertex -3.18437 2.4207 0
    endloop
  endfacet
  facet normal -0.998533 0.0541431 0
    outer loop
      vertex -4.8 2.93915e-16 0
      vertex -4.77186 0.518971 4.8
      vertex -4.77186 0.518971 0
    endloop
  endfacet
  facet normal -0.986828 0.161775 0
    outer loop
      vertex -4.77186 0.518971 4.8
      vertex -4.68778 1.03186 4.8
      vertex -4.77186 0.518971 0
    endloop
  endfacet
  facet normal -0.986828 0.161775 0
    outer loop
      vertex -4.77186 0.518971 0
      vertex -4.68778 1.03186 4.8
      vertex -4.68778 1.03186 0
    endloop
  endfacet
  facet normal -0.963552 0.267522 0
    outer loop
      vertex -4.68778 1.03186 4.8
      vertex -4.54874 1.53265 4.8
      vertex -4.68778 1.03186 0
    endloop
  endfacet
  facet normal -0.963552 0.267522 0
    outer loop
      vertex -4.68778 1.03186 0
      vertex -4.54874 1.53265 4.8
      vertex -4.54874 1.53265 0
    endloop
  endfacet
  facet normal -0.928972 0.37015 0
    outer loop
      vertex -4.54874 1.53265 4.8
      vertex -4.35636 2.01547 4.8
      vertex -4.54874 1.53265 0
    endloop
  endfacet
  facet normal -0.928972 0.37015 0
    outer loop
      vertex -4.54874 1.53265 0
      vertex -4.35636 2.01547 4.8
      vertex -4.35636 2.01547 0
    endloop
  endfacet
  facet normal -0.88351 0.468413 0
    outer loop
      vertex -4.35636 2.01547 4.8
      vertex -4.11291 2.47466 4.8
      vertex -4.35636 2.01547 0
    endloop
  endfacet
  facet normal -0.88351 0.468413 0
    outer loop
      vertex -4.35636 2.01547 0
      vertex -4.11291 2.47466 4.8
      vertex -4.11291 2.47466 0
    endloop
  endfacet
  facet normal -0.827697 0.561175 0
    outer loop
      vertex -4.11291 2.47466 4.8
      vertex -3.82125 2.90484 4.8
      vertex -4.11291 2.47466 0
    endloop
  endfacet
  facet normal -0.827697 0.561175 0
    outer loop
      vertex -4.11291 2.47466 0
      vertex -3.82125 2.90484 4.8
      vertex -3.82125 2.90484 0
    endloop
  endfacet
  facet normal -0.76216 0.647389 0
    outer loop
      vertex -3.82125 2.90484 4.8
      vertex -3.48478 3.30096 4.8
      vertex -3.82125 2.90484 0
    endloop
  endfacet
  facet normal -0.76216 0.647389 0
    outer loop
      vertex -3.82125 2.90484 0
      vertex -3.48478 3.30096 4.8
      vertex -3.48478 3.30096 0
    endloop
  endfacet
  facet normal -0.687693 0.726001 0
    outer loop
      vertex -3.48478 3.30096 4.8
      vertex -3.10745 3.65838 4.8
      vertex -3.48478 3.30096 0
    endloop
  endfacet
  facet normal -0.687693 0.726001 0
    outer loop
      vertex -3.48478 3.30096 0
      vertex -3.10745 3.65838 4.8
      vertex -3.10745 3.65838 0
    endloop
  endfacet
  facet normal -0.605181 0.796088 0
    outer loop
      vertex -3.10745 3.65838 4.8
      vertex -2.6937 3.97291 4.8
      vertex -3.10745 3.65838 0
    endloop
  endfacet
  facet normal -0.605181 0.796088 0
    outer loop
      vertex -3.10745 3.65838 0
      vertex -2.6937 3.97291 4.8
      vertex -2.6937 3.97291 0
    endloop
  endfacet
  facet normal -0.515551 0.856859 0
    outer loop
      vertex -2.6937 3.97291 4.8
      vertex -2.24836 4.24086 4.8
      vertex -2.6937 3.97291 0
    endloop
  endfacet
  facet normal -0.515551 0.856859 0
    outer loop
      vertex -2.6937 3.97291 0
      vertex -2.24836 4.24086 4.8
      vertex -2.24836 4.24086 0
    endloop
  endfacet
  facet normal -0.419886 0.907577 0
    outer loop
      vertex -2.24836 4.24086 4.8
      vertex -1.77666 4.45909 4.8
      vertex -2.24836 4.24086 0
    endloop
  endfacet
  facet normal -0.419886 0.907577 0
    outer loop
      vertex -2.24836 4.24086 0
      vertex -1.77666 4.45909 4.8
      vertex -1.77666 4.45909 0
    endloop
  endfacet
  facet normal -0.319303 0.947653 0
    outer loop
      vertex -1.77666 4.45909 4.8
      vertex -1.28414 4.62504 4.8
      vertex -1.77666 4.45909 0
    endloop
  endfacet
  facet normal -0.319303 0.947653 0
    outer loop
      vertex -1.77666 4.45909 0
      vertex -1.28414 4.62504 4.8
      vertex -1.28414 4.62504 0
    endloop
  endfacet
  facet normal -0.214974 0.97662 0
    outer loop
      vertex -1.28414 4.62504 4.8
      vertex -0.776554 4.73677 4.8
      vertex -1.28414 4.62504 0
    endloop
  endfacet
  facet normal -0.214974 0.97662 0
    outer loop
      vertex -1.28414 4.62504 0
      vertex -0.776554 4.73677 4.8
      vertex -0.776554 4.73677 0
    endloop
  endfacet
  facet normal -0.108113 0.994139 0
    outer loop
      vertex -0.776554 4.73677 4.8
      vertex -0.259867 4.79296 4.8
      vertex -0.776554 4.73677 0
    endloop
  endfacet
  facet normal -0.108113 0.994139 0
    outer loop
      vertex -0.776554 4.73677 0
      vertex -0.259867 4.79296 4.8
      vertex -0.259867 4.79296 0
    endloop
  endfacet
  facet normal -0 1 0
    outer loop
      vertex -0.259867 4.79296 4.8
      vertex 0.259867 4.79296 4.8
      vertex -0.259867 4.79296 0
    endloop
  endfacet
  facet normal 0 1 0
    outer loop
      vertex -0.259867 4.79296 0
      vertex 0.259867 4.79296 4.8
      vertex 0.259867 4.79296 0
    endloop
  endfacet
  facet normal 0.108113 0.994139 0
    outer loop
      vertex 0.259867 4.79296 4.8
      vertex 0.776554 4.73677 4.8
      vertex 0.259867 4.79296 0
    endloop
  endfacet
  facet normal 0.108113 0.994139 0
    outer loop
      vertex 0.259867 4.79296 0
      vertex 0.776554 4.73677 4.8
      vertex 0.776554 4.73677 0
    endloop
  endfacet
  facet normal 0.214974 0.97662 0
    outer loop
      vertex 0.776554 4.73677 4.8
      vertex 1.28414 4.62504 4.8
      vertex 0.776554 4.73677 0
    endloop
  endfacet
  facet normal 0.214974 0.97662 0
    outer loop
      vertex 0.776554 4.73677 0
      vertex 1.28414 4.62504 4.8
      vertex 1.28414 4.62504 0
    endloop
  endfacet
  facet normal 0.319303 0.947653 0
    outer loop
      vertex 1.28414 4.62504 4.8
      vertex 1.77666 4.45909 4.8
      vertex 1.28414 4.62504 0
    endloop
  endfacet
  facet normal 0.319303 0.947653 0
    outer loop
      vertex 1.28414 4.62504 0
      vertex 1.77666 4.45909 4.8
      vertex 1.77666 4.45909 0
    endloop
  endfacet
  facet normal 0.419886 0.907577 0
    outer loop
      vertex 1.77666 4.45909 4.8
      vertex 2.24836 4.24086 4.8
      vertex 1.77666 4.45909 0
    endloop
  endfacet
  facet normal 0.419886 0.907577 0
    outer loop
      vertex 1.77666 4.45909 0
      vertex 2.24836 4.24086 4.8
      vertex 2.24836 4.24086 0
    endloop
  endfacet
  facet normal 0.515551 0.856859 0
    outer loop
      vertex 2.24836 4.24086 4.8
      vertex 2.6937 3.97291 4.8
      vertex 2.24836 4.24086 0
    endloop
  endfacet
  facet normal 0.515551 0.856859 0
    outer loop
      vertex 2.24836 4.24086 0
      vertex 2.6937 3.97291 4.8
      vertex 2.6937 3.97291 0
    endloop
  endfacet
  facet normal 0.605181 0.796088 0
    outer loop
      vertex 2.6937 3.97291 4.8
      vertex 3.10745 3.65838 4.8
      vertex 2.6937 3.97291 0
    endloop
  endfacet
  facet normal 0.605181 0.796088 0
    outer loop
      vertex 2.6937 3.97291 0
      vertex 3.10745 3.65838 4.8
      vertex 3.10745 3.65838 0
    endloop
  endfacet
  facet normal 0.687693 0.726001 0
    outer loop
      vertex 3.10745 3.65838 4.8
      vertex 3.48478 3.30096 4.8
      vertex 3.10745 3.65838 0
    endloop
  endfacet
  facet normal 0.687693 0.726001 0
    outer loop
      vertex 3.10745 3.65838 0
      vertex 3.48478 3.30096 4.8
      vertex 3.48478 3.30096 0
    endloop
  endfacet
  facet normal 0.76216 0.647389 0
    outer loop
      vertex 3.48478 3.30096 4.8
      vertex 3.82125 2.90484 4.8
      vertex 3.48478 3.30096 0
    endloop
  endfacet
  facet normal 0.76216 0.647389 0
    outer loop
      vertex 3.48478 3.30096 0
      vertex 3.82125 2.90484 4.8
      vertex 3.82125 2.90484 0
    endloop
  endfacet
  facet normal 0.827697 0.561175 0
    outer loop
      vertex 3.82125 2.90484 4.8
      vertex 4.11291 2.47466 4.8
      vertex 3.82125 2.90484 0
    endloop
  endfacet
  facet normal 0.827697 0.561175 0
    outer loop
      vertex 3.82125 2.90484 0
      vertex 4.11291 2.47466 4.8
      vertex 4.11291 2.47466 0
    endloop
  endfacet
  facet normal 0.88351 0.468413 0
    outer loop
      vertex 4.11291 2.47466 4.8
      vertex 4.35636 2.01547 4.8
      vertex 4.11291 2.47466 0
    endloop
  endfacet
  facet normal 0.88351 0.468413 0
    outer loop
      vertex 4.11291 2.47466 0
      vertex 4.35636 2.01547 4.8
      vertex 4.35636 2.01547 0
    endloop
  endfacet
  facet normal 0.928972 0.37015 0
    outer loop
      vertex 4.35636 2.01547 4.8
      vertex 4.54874 1.53265 4.8
      vertex 4.35636 2.01547 0
    endloop
  endfacet
  facet normal 0.928972 0.37015 0
    outer loop
      vertex 4.35636 2.01547 0
      vertex 4.54874 1.53265 4.8
      vertex 4.54874 1.53265 0
    endloop
  endfacet
  facet normal 0.963552 0.267522 0
    outer loop
      vertex 4.54874 1.53265 4.8
      vertex 4.68778 1.03186 4.8
      vertex 4.54874 1.53265 0
    endloop
  endfacet
  facet normal 0.963552 0.267522 0
    outer loop
      vertex 4.54874 1.53265 0
      vertex 4.68778 1.03186 4.8
      vertex 4.68778 1.03186 0
    endloop
  endfacet
  facet normal 0.986828 0.161775 0
    outer loop
      vertex 4.68778 1.03186 4.8
      vertex 4.77186 0.518971 4.8
      vertex 4.68778 1.03186 0
    endloop
  endfacet
  facet normal 0.986828 0.161775 0
    outer loop
      vertex 4.68778 1.03186 0
      vertex 4.77186 0.518971 4.8
      vertex 4.77186 0.518971 0
    endloop
  endfacet
  facet normal 0.998533 0.0541431 0
    outer loop
      vertex 4.77186 0.518971 4.8
      vertex 4.8 2.05741e-15 4.8
      vertex 4.77186 0.518971 0
    endloop
  endfacet
  facet normal 0.998533 0.0541431 -1.32118e-17
    outer loop
      vertex 4.77186 0.518971 0
      vertex 4.8 2.05741e-15 4.8
      vertex 4.8 8.81746e-16 0
    endloop
  endfacet
  facet normal 0.998533 -0.0541431 1.32613e-17
    outer loop
      vertex 4.8 2.05741e-15 4.8
      vertex 4.77186 -0.518971 4.8
      vertex 4.8 8.81746e-16 0
    endloop
  endfacet
  facet normal 0.998533 -0.0541431 0
    outer loop
      vertex 4.8 8.81746e-16 0
      vertex 4.77186 -0.518971 4.8
      vertex 4.77186 -0.518971 0
    endloop
  endfacet
  facet normal 0.986828 -0.161775 0
    outer loop
      vertex 4.77186 -0.518971 4.8
      vertex 4.68778 -1.03186 4.8
      vertex 4.77186 -0.518971 0
    endloop
  endfacet
  facet normal 0.986828 -0.161775 0
    outer loop
      vertex 4.77186 -0.518971 0
      vertex 4.68778 -1.03186 4.8
      vertex 4.68778 -1.03186 0
    endloop
  endfacet
  facet normal 0.963552 -0.267522 0
    outer loop
      vertex 4.68778 -1.03186 4.8
      vertex 4.54874 -1.53265 4.8
      vertex 4.68778 -1.03186 0
    endloop
  endfacet
  facet normal 0.963552 -0.267522 0
    outer loop
      vertex 4.68778 -1.03186 0
      vertex 4.54874 -1.53265 4.8
      vertex 4.54874 -1.53265 0
    endloop
  endfacet
  facet normal 0.928972 -0.37015 0
    outer loop
      vertex 4.54874 -1.53265 4.8
      vertex 4.35636 -2.01547 4.8
      vertex 4.54874 -1.53265 0
    endloop
  endfacet
  facet normal 0.928972 -0.37015 0
    outer loop
      vertex 4.54874 -1.53265 0
      vertex 4.35636 -2.01547 4.8
      vertex 4.35636 -2.01547 0
    endloop
  endfacet
  facet normal 0.88351 -0.468413 0
    outer loop
      vertex 4.35636 -2.01547 4.8
      vertex 4.11291 -2.47466 4.8
      vertex 4.35636 -2.01547 0
    endloop
  endfacet
  facet normal 0.88351 -0.468413 0
    outer loop
      vertex 4.35636 -2.01547 0
      vertex 4.11291 -2.47466 4.8
      vertex 4.11291 -2.47466 0
    endloop
  endfacet
  facet normal 0.827697 -0.561175 0
    outer loop
      vertex 4.11291 -2.47466 4.8
      vertex 3.82125 -2.90484 4.8
      vertex 4.11291 -2.47466 0
    endloop
  endfacet
  facet normal 0.827697 -0.561175 0
    outer loop
      vertex 4.11291 -2.47466 0
      vertex 3.82125 -2.90484 4.8
      vertex 3.82125 -2.90484 0
    endloop
  endfacet
  facet normal 0.76216 -0.647389 0
    outer loop
      vertex 3.82125 -2.90484 4.8
      vertex 3.48478 -3.30096 4.8
      vertex 3.82125 -2.90484 0
    endloop
  endfacet
  facet normal 0.76216 -0.647389 0
    outer loop
      vertex 3.82125 -2.90484 0
      vertex 3.48478 -3.30096 4.8
      vertex 3.48478 -3.30096 0
    endloop
  endfacet
  facet normal 0.687693 -0.726001 0
    outer loop
      vertex 3.48478 -3.30096 4.8
      vertex 3.10745 -3.65838 4.8
      vertex 3.48478 -3.30096 0
    endloop
  endfacet
  facet normal 0.687693 -0.726001 0
    outer loop
      vertex 3.48478 -3.30096 0
      vertex 3.10745 -3.65838 4.8
      vertex 3.10745 -3.65838 0
    endloop
  endfacet
  facet normal 0.605181 -0.796088 0
    outer loop
      vertex 3.10745 -3.65838 4.8
      vertex 2.6937 -3.97291 4.8
      vertex 3.10745 -3.65838 0
    endloop
  endfacet
  facet normal 0.605181 -0.796088 0
    outer loop
      vertex 3.10745 -3.65838 0
      vertex 2.6937 -3.97291 4.8
      vertex 2.6937 -3.97291 0
    endloop
  endfacet
  facet normal 0.515551 -0.856859 0
    outer loop
      vertex 2.6937 -3.97291 4.8
      vertex 2.24836 -4.24086 4.8
      vertex 2.6937 -3.97291 0
    endloop
  endfacet
  facet normal 0.515551 -0.856859 0
    outer loop
      vertex 2.6937 -3.97291 0
      vertex 2.24836 -4.24086 4.8
      vertex 2.24836 -4.24086 0
    endloop
  endfacet
  facet normal 0.419886 -0.907577 0
    outer loop
      vertex 2.24836 -4.24086 4.8
      vertex 1.77666 -4.45909 4.8
      vertex 2.24836 -4.24086 0
    endloop
  endfacet
  facet normal 0.419886 -0.907577 0
    outer loop
      vertex 2.24836 -4.24086 0
      vertex 1.77666 -4.45909 4.8
      vertex 1.77666 -4.45909 0
    endloop
  endfacet
  facet normal 0.319303 -0.947653 0
    outer loop
      vertex 1.77666 -4.45909 4.8
      vertex 1.28414 -4.62504 4.8
      vertex 1.77666 -4.45909 0
    endloop
  endfacet
  facet normal 0.319303 -0.947653 0
    outer loop
      vertex 1.77666 -4.45909 0
      vertex 1.28414 -4.62504 4.8
      vertex 1.28414 -4.62504 0
    endloop
  endfacet
  facet normal 0.214974 -0.97662 0
    outer loop
      vertex 1.28414 -4.62504 4.8
      vertex 0.776554 -4.73677 4.8
      vertex 1.28414 -4.62504 0
    endloop
  endfacet
  facet normal 0.214974 -0.97662 0
    outer loop
      vertex 1.28414 -4.62504 0
      vertex 0.776554 -4.73677 4.8
      vertex 0.776554 -4.73677 0
    endloop
  endfacet
  facet normal 0.108113 -0.994139 0
    outer loop
      vertex 0.776554 -4.73677 4.8
      vertex 0.259867 -4.79296 4.8
      vertex 0.776554 -4.73677 0
    endloop
  endfacet
  facet normal 0.108113 -0.994139 0
    outer loop
      vertex 0.776554 -4.73677 0
      vertex 0.259867 -4.79296 4.8
      vertex 0.259867 -4.79296 0
    endloop
  endfacet
  facet normal -0 -1 -0
    outer loop
      vertex 0.259867 -4.79296 4.8
      vertex -0.259867 -4.79296 4.8
      vertex 0.259867 -4.79296 0
    endloop
  endfacet
  facet normal 0 -1 0
    outer loop
      vertex 0.259867 -4.79296 0
      vertex -0.259867 -4.79296 4.8
      vertex -0.259867 -4.79296 0
    endloop
  endfacet
  facet normal -0.108113 -0.994139 -0
    outer loop
      vertex -0.259867 -4.79296 4.8
      vertex -0.776554 -4.73677 4.8
      vertex -0.259867 -4.79296 0
    endloop
  endfacet
  facet normal -0.108113 -0.994139 0
    outer loop
      vertex -0.259867 -4.79296 0
      vertex -0.776554 -4.73677 4.8
      vertex -0.776554 -4.73677 0
    endloop
  endfacet
  facet normal -0.214974 -0.97662 -0
    outer loop
      vertex -0.776554 -4.73677 4.8
      vertex -1.28414 -4.62504 4.8
      vertex -0.776554 -4.73677 0
    endloop
  endfacet
  facet normal -0.214974 -0.97662 0
    outer loop
      vertex -0.776554 -4.73677 0
      vertex -1.28414 -4.62504 4.8
      vertex -1.28414 -4.62504 0
    endloop
  endfacet
  facet normal -0.319303 -0.947653 -0
    outer loop
      vertex -1.28414 -4.62504 4.8
      vertex -1.77666 -4.45909 4.8
      vertex -1.28414 -4.62504 0
    endloop
  endfacet
  facet normal -0.319303 -0.947653 0
    outer loop
      vertex -1.28414 -4.62504 0
      vertex -1.77666 -4.45909 4.8
      vertex -1.77666 -4.45909 0
    endloop
  endfacet
  facet normal -0.419886 -0.907577 -0
    outer loop
      vertex -1.77666 -4.45909 4.8
      vertex -2.24836 -4.24086 4.8
      vertex -1.77666 -4.45909 0
    endloop
  endfacet
  facet normal -0.419886 -0.907577 0
    outer loop
      vertex -1.77666 -4.45909 0
      vertex -2.24836 -4.24086 4.8
      vertex -2.24836 -4.24086 0
    endloop
  endfacet
  facet normal -0.515551 -0.856859 -0
    outer loop
      vertex -2.24836 -4.24086 4.8
      vertex -2.6937 -3.97291 4.8
      vertex -2.24836 -4.24086 0
    endloop
  endfacet
  facet normal -0.515551 -0.856859 0
    outer loop
      vertex -2.24836 -4.24086 0
      vertex -2.6937 -3.97291 4.8
      vertex -2.6937 -3.97291 0
    endloop
  endfacet
  facet normal -0.605181 -0.796088 -0
    outer loop
      vertex -2.6937 -3.97291 4.8
      vertex -3.10745 -3.65838 4.8
      vertex -2.6937 -3.97291 0
    endloop
  endfacet
  facet normal -0.605181 -0.796088 0
    outer loop
      vertex -2.6937 -3.97291 0
      vertex -3.10745 -3.65838 4.8
      vertex -3.10745 -3.65838 0
    endloop
  endfacet
  facet normal -0.687693 -0.726001 -0
    outer loop
      vertex -3.10745 -3.65838 4.8
      vertex -3.48478 -3.30096 4.8
      vertex -3.10745 -3.65838 0
    endloop
  endfacet
  facet normal -0.687693 -0.726001 0
    outer loop
      vertex -3.10745 -3.65838 0
      vertex -3.48478 -3.30096 4.8
      vertex -3.48478 -3.30096 0
    endloop
  endfacet
  facet normal -0.76216 -0.647389 -0
    outer loop
      vertex -3.48478 -3.30096 4.8
      vertex -3.82125 -2.90484 4.8
      vertex -3.48478 -3.30096 0
    endloop
  endfacet
  facet normal -0.76216 -0.647389 0
    outer loop
      vertex -3.48478 -3.30096 0
      vertex -3.82125 -2.90484 4.8
      vertex -3.82125 -2.90484 0
    endloop
  endfacet
  facet normal -0.827697 -0.561175 -0
    outer loop
      vertex -3.82125 -2.90484 4.8
      vertex -4.11291 -2.47466 4.8
      vertex -3.82125 -2.90484 0
    endloop
  endfacet
  facet normal -0.827697 -0.561175 0
    outer loop
      vertex -3.82125 -2.90484 0
      vertex -4.11291 -2.47466 4.8
      vertex -4.11291 -2.47466 0
    endloop
  endfacet
  facet normal -0.88351 -0.468413 -0
    outer loop
      vertex -4.11291 -2.47466 4.8
      vertex -4.35636 -2.01547 4.8
      vertex -4.11291 -2.47466 0
    endloop
  endfacet
  facet normal -0.88351 -0.468413 0
    outer loop
      vertex -4.11291 -2.47466 0
      vertex -4.35636 -2.01547 4.8
      vertex -4.35636 -2.01547 0
    endloop
  endfacet
  facet normal -0.928972 -0.37015 -0
    outer loop
      vertex -4.35636 -2.01547 4.8
      vertex -4.54874 -1.53265 4.8
      vertex -4.35636 -2.01547 0
    endloop
  endfacet
  facet normal -0.928972 -0.37015 0
    outer loop
      vertex -4.35636 -2.01547 0
      vertex -4.54874 -1.53265 4.8
      vertex -4.54874 -1.53265 0
    endloop
  endfacet
  facet normal -0.963552 -0.267522 -0
    outer loop
      vertex -4.54874 -1.53265 4.8
      vertex -4.68778 -1.03186 4.8
      vertex -4.54874 -1.53265 0
    endloop
  endfacet
  facet normal -0.963552 -0.267522 0
    outer loop
      vertex -4.54874 -1.53265 0
      vertex -4.68778 -1.03186 4.8
      vertex -4.68778 -1.03186 0
    endloop
  endfacet
  facet normal -0.986828 -0.161775 -0
    outer loop
      vertex -4.68778 -1.03186 4.8
      vertex -4.77186 -0.518971 4.8
      vertex -4.68778 -1.03186 0
    endloop
  endfacet
  facet normal -0.986828 -0.161775 0
    outer loop
      vertex -4.68778 -1.03186 0
      vertex -4.77186 -0.518971 4.8
      vertex -4.77186 -0.518971 0
    endloop
  endfacet
  facet normal -0.998533 -0.0541431 -0
    outer loop
      vertex -4.77186 -0.518971 4.8
      vertex -4.8 2.93915e-16 4.8
      vertex -4.77186 -0.518971 0
    endloop
  endfacet
  facet normal -0.998533 -0.0541431 0
    outer loop
      vertex -4.77186 -0.518971 0
      vertex -4.8 2.93915e-16 4.8
      vertex -4.8 2.93915e-16 0
    endloop
  endfacet
  facet normal -0.998533 0.0541431 0
    outer loop
      vertex -4.8 2.93915e-16 4.8
      vertex -4.77186 0.518971 4.8
      vertex -4.8 2.93915e-16 0
    endloop
  endfacet
  facet normal -0.936325 -0.153487 0.31581
    outer loop
      vertex 3.18124 0.345981 2.4
      vertex 3.97655 0.432476 4.8
      vertex 3.12519 0.687905 2.4
    endloop
  endfacet
  facet normal -0.936324 -0.153503 0.315808
    outer loop
      vertex 3.97655 0.432476 4.8
      vertex 3.90648 0.859882 4.8
      vertex 3.12519 0.687905 2.4
    endloop
  endfacet
  facet normal -0.914235 -0.253851 0.315808
    outer loop
      vertex 3.12519 0.687905 2.4
      vertex 3.90648 0.859882 4.8
      vertex 3.03249 1.02176 2.4
    endloop
  endfacet
  facet normal -0.914238 -0.253836 0.31581
    outer loop
      vertex 3.90648 0.859882 4.8
      vertex 3.79061 1.27721 4.8
      vertex 3.03249 1.02176 2.4
    endloop
  endfacet
  facet normal -0.881436 -0.351189 0.315811
    outer loop
      vertex 3.03249 1.02176 2.4
      vertex 3.79061 1.27721 4.8
      vertex 2.90424 1.34365 2.4
    endloop
  endfacet
  facet normal -0.881435 -0.351194 0.31581
    outer loop
      vertex 3.79061 1.27721 4.8
      vertex 3.6303 1.67956 4.8
      vertex 2.90424 1.34365 2.4
    endloop
  endfacet
  facet normal -0.83829 -0.444448 0.31581
    outer loop
      vertex 2.90424 1.34365 2.4
      vertex 3.6303 1.67956 4.8
      vertex 2.74194 1.64977 2.4
    endloop
  endfacet
  facet normal -0.838298 -0.44443 0.315813
    outer loop
      vertex 3.6303 1.67956 4.8
      vertex 3.42743 2.06222 4.8
      vertex 2.74194 1.64977 2.4
    endloop
  endfacet
  facet normal -0.78534 -0.53245 0.315813
    outer loop
      vertex 2.74194 1.64977 2.4
      vertex 3.42743 2.06222 4.8
      vertex 2.5475 1.93656 2.4
    endloop
  endfacet
  facet normal -0.785326 -0.532474 0.315809
    outer loop
      vertex 3.42743 2.06222 4.8
      vertex 3.18437 2.4207 4.8
      vertex 2.5475 1.93656 2.4
    endloop
  endfacet
  facet normal -0.723159 -0.614252 0.315809
    outer loop
      vertex 2.5475 1.93656 2.4
      vertex 3.18437 2.4207 4.8
      vertex 2.32319 2.20064 2.4
    endloop
  endfacet
  facet normal -0.723156 -0.614256 0.315809
    outer loop
      vertex 3.18437 2.4207 4.8
      vertex 2.90398 2.7508 4.8
      vertex 2.32319 2.20064 2.4
    endloop
  endfacet
  facet normal -0.652504 -0.688842 0.315809
    outer loop
      vertex 2.32319 2.20064 2.4
      vertex 2.90398 2.7508 4.8
      vertex 2.07164 2.43892 2.4
    endloop
  endfacet
  facet normal -0.652512 -0.688834 0.31581
    outer loop
      vertex 2.90398 2.7508 4.8
      vertex 2.58955 3.04865 4.8
      vertex 2.07164 2.43892 2.4
    endloop
  endfacet
  facet normal -0.574189 -0.755362 0.31581
    outer loop
      vertex 2.07164 2.43892 2.4
      vertex 2.58955 3.04865 4.8
      vertex 1.7958 2.6486 2.4
    endloop
  endfacet
  facet normal -0.574202 -0.75535 0.315813
    outer loop
      vertex 2.58955 3.04865 4.8
      vertex 2.24475 3.31076 4.8
      vertex 1.7958 2.6486 2.4
    endloop
  endfacet
  facet normal -0.489183 -0.812996 0.315813
    outer loop
      vertex 1.7958 2.6486 2.4
      vertex 2.24475 3.31076 4.8
      vertex 1.49891 2.82724 2.4
    endloop
  endfacet
  facet normal -0.48916 -0.813011 0.315809
    outer loop
      vertex 2.24475 3.31076 4.8
      vertex 1.87363 3.53405 4.8
      vertex 1.49891 2.82724 2.4
    endloop
  endfacet
  facet normal -0.398402 -0.861127 0.315809
    outer loop
      vertex 1.49891 2.82724 2.4
      vertex 1.87363 3.53405 4.8
      vertex 1.18444 2.97273 2.4
    endloop
  endfacet
  facet normal -0.398404 -0.861127 0.31581
    outer loop
      vertex 1.87363 3.53405 4.8
      vertex 1.48055 3.71591 4.8
      vertex 1.18444 2.97273 2.4
    endloop
  endfacet
  facet normal -0.302952 -0.899158 0.31581
    outer loop
      vertex 1.18444 2.97273 2.4
      vertex 1.48055 3.71591 4.8
      vertex 0.856091 3.08336 2.4
    endloop
  endfacet
  facet normal -0.302954 -0.899157 0.31581
    outer loop
      vertex 1.48055 3.71591 4.8
      vertex 1.07011 3.8542 4.8
      vertex 0.856091 3.08336 2.4
    endloop
  endfacet
  facet normal -0.203956 -0.926642 0.31581
    outer loop
      vertex 0.856091 3.08336 2.4
      vertex 1.07011 3.8542 4.8
      vertex 0.517702 3.15784 2.4
    endloop
  endfacet
  facet normal -0.203978 -0.926636 0.315813
    outer loop
      vertex 1.07011 3.8542 4.8
      vertex 0.647128 3.94731 4.8
      vertex 0.517702 3.15784 2.4
    endloop
  endfacet
  facet normal -0.102607 -0.943257 0.315814
    outer loop
      vertex 0.517702 3.15784 2.4
      vertex 0.647128 3.94731 4.8
      vertex 0.173245 3.19531 2.4
    endloop
  endfacet
  facet normal -0.10257 -0.943263 0.315808
    outer loop
      vertex 0.647128 3.94731 4.8
      vertex 0.216556 3.99413 4.8
      vertex 0.173245 3.19531 2.4
    endloop
  endfacet
  facet normal 0 -0.948823 0.315808
    outer loop
      vertex 0.173245 3.19531 2.4
      vertex 0.216556 3.99413 4.8
      vertex -0.173245 3.19531 2.4
    endloop
  endfacet
  facet normal 0 -0.948823 0.315808
    outer loop
      vertex 0.216556 3.99413 4.8
      vertex -0.216556 3.99413 4.8
      vertex -0.173245 3.19531 2.4
    endloop
  endfacet
  facet normal 0.102608 -0.943259 0.315808
    outer loop
      vertex -0.173245 3.19531 2.4
      vertex -0.216556 3.99413 4.8
      vertex -0.517702 3.15784 2.4
    endloop
  endfacet
  facet normal 0.102569 -0.943261 0.315813
    outer loop
      vertex -0.216556 3.99413 4.8
      vertex -0.647128 3.94731 4.8
      vertex -0.517702 3.15784 2.4
    endloop
  endfacet
  facet normal 0.203955 -0.926641 0.315814
    outer loop
      vertex -0.517702 3.15784 2.4
      vertex -0.647128 3.94731 4.8
      vertex -0.856091 3.08336 2.4
    endloop
  endfacet
  facet normal 0.203978 -0.926637 0.31581
    outer loop
      vertex -0.647128 3.94731 4.8
      vertex -1.07011 3.8542 4.8
      vertex -0.856091 3.08336 2.4
    endloop
  endfacet
  facet normal 0.302951 -0.899158 0.31581
    outer loop
      vertex -0.856091 3.08336 2.4
      vertex -1.07011 3.8542 4.8
      vertex -1.18444 2.97273 2.4
    endloop
  endfacet
  facet normal 0.302954 -0.899157 0.31581
    outer loop
      vertex -1.07011 3.8542 4.8
      vertex -1.48055 3.71591 4.8
      vertex -1.18444 2.97273 2.4
    endloop
  endfacet
  facet normal 0.398402 -0.861127 0.31581
    outer loop
      vertex -1.18444 2.97273 2.4
      vertex -1.48055 3.71591 4.8
      vertex -1.49891 2.82724 2.4
    endloop
  endfacet
  facet normal 0.398404 -0.861127 0.315809
    outer loop
      vertex -1.48055 3.71591 4.8
      vertex -1.87363 3.53405 4.8
      vertex -1.49891 2.82724 2.4
    endloop
  endfacet
  facet normal 0.489184 -0.812997 0.315809
    outer loop
      vertex -1.49891 2.82724 2.4
      vertex -1.87363 3.53405 4.8
      vertex -1.7958 2.6486 2.4
    endloop
  endfacet
  facet normal 0.48916 -0.81301 0.315813
    outer loop
      vertex -1.87363 3.53405 4.8
      vertex -2.24475 3.31076 4.8
      vertex -1.7958 2.6486 2.4
    endloop
  endfacet
  facet normal 0.574188 -0.755361 0.315813
    outer loop
      vertex -1.7958 2.6486 2.4
      vertex -2.24475 3.31076 4.8
      vertex -2.07164 2.43892 2.4
    endloop
  endfacet
  facet normal 0.574203 -0.755351 0.315811
    outer loop
      vertex -2.24475 3.31076 4.8
      vertex -2.58955 3.04865 4.8
      vertex -2.07164 2.43892 2.4
    endloop
  endfacet
  facet normal 0.652503 -0.688842 0.315811
    outer loop
      vertex -2.07164 2.43892 2.4
      vertex -2.58955 3.04865 4.8
      vertex -2.32319 2.20064 2.4
    endloop
  endfacet
  facet normal 0.652512 -0.688834 0.315809
    outer loop
      vertex -2.58955 3.04865 4.8
      vertex -2.90398 2.7508 4.8
      vertex -2.32319 2.20064 2.4
    endloop
  endfacet
  facet normal 0.723159 -0.614252 0.315809
    outer loop
      vertex -2.32319 2.20064 2.4
      vertex -2.90398 2.7508 4.8
      vertex -2.5475 1.93656 2.4
    endloop
  endfacet
  facet normal 0.723156 -0.614255 0.315809
    outer loop
      vertex -2.90398 2.7508 4.8
      vertex -3.18437 2.4207 4.8
      vertex -2.5475 1.93656 2.4
    endloop
  endfacet
  facet normal 0.785341 -0.532451 0.315809
    outer loop
      vertex -2.5475 1.93656 2.4
      vertex -3.18437 2.4207 4.8
      vertex -2.74194 1.64977 2.4
    endloop
  endfacet
  facet normal 0.785325 -0.532473 0.315813
    outer loop
      vertex -3.18437 2.4207 4.8
      vertex -3.42743 2.06222 4.8
      vertex -2.74194 1.64977 2.4
    endloop
  endfacet
  facet normal 0.838289 -0.444448 0.315813
    outer loop
      vertex -2.74194 1.64977 2.4
      vertex -3.42743 2.06222 4.8
      vertex -2.90424 1.34365 2.4
    endloop
  endfacet
  facet normal 0.838299 -0.44443 0.31581
    outer loop
      vertex -3.42743 2.06222 4.8
      vertex -3.6303 1.67956 4.8
      vertex -2.90424 1.34365 2.4
    endloop
  endfacet
  facet normal 0.881437 -0.351189 0.31581
    outer loop
      vertex -2.90424 1.34365 2.4
      vertex -3.6303 1.67956 4.8
      vertex -3.03249 1.02176 2.4
    endloop
  endfacet
  facet normal 0.881434 -0.351194 0.315811
    outer loop
      vertex -3.6303 1.67956 4.8
      vertex -3.79061 1.27721 4.8
      vertex -3.03249 1.02176 2.4
    endloop
  endfacet
  facet normal 0.914234 -0.253851 0.31581
    outer loop
      vertex -3.03249 1.02176 2.4
      vertex -3.79061 1.27721 4.8
      vertex -3.12519 0.687905 2.4
    endloop
  endfacet
  facet normal 0.914239 -0.253836 0.315808
    outer loop
      vertex -3.79061 1.27721 4.8
      vertex -3.90648 0.859882 4.8
      vertex -3.12519 0.687905 2.4
    endloop
  endfacet
  facet normal 0.936326 -0.153488 0.315808
    outer loop
      vertex -3.12519 0.687905 2.4
      vertex -3.90648 0.859882 4.8
      vertex -3.18124 0.345981 2.4
    endloop
  endfacet
  facet normal 0.936323 -0.153503 0.31581
    outer loop
      vertex -3.90648 0.859882 4.8
      vertex -3.97655 0.432476 4.8
      vertex -3.18124 0.345981 2.4
    endloop
  endfacet
  facet normal 0.947431 -0.0513722 0.31581
    outer loop
      vertex -3.18124 0.345981 2.4
      vertex -3.97655 0.432476 4.8
      vertex -3.2 -2.25434e-15 2.4
    endloop
  endfacet
  facet normal 0.947431 -0.0513722 0.31581
    outer loop
      vertex -3.97655 0.432476 4.8
      vertex -4 -2.86691e-15 4.8
      vertex -3.2 -2.25434e-15 2.4
    endloop
  endfacet
  facet normal 0.947431 0.0513722 0.31581
    outer loop
      vertex -3.2 -2.25434e-15 2.4
      vertex -4 -2.86691e-15 4.8
      vertex -3.18124 -0.345981 2.4
    endloop
  endfacet
  facet normal 0.947431 0.0513722 0.31581
    outer loop
      vertex -4 -2.86691e-15 4.8
      vertex -3.97655 -0.432476 4.8
      vertex -3.18124 -0.345981 2.4
    endloop
  endfacet
  facet normal 0.936325 0.153487 0.31581
    outer loop
      vertex -3.18124 -0.345981 2.4
      vertex -3.97655 -0.432476 4.8
      vertex -3.12519 -0.687905 2.4
    endloop
  endfacet
  facet normal 0.936324 0.153503 0.315808
    outer loop
      vertex -3.97655 -0.432476 4.8
      vertex -3.90648 -0.859882 4.8
      vertex -3.12519 -0.687905 2.4
    endloop
  endfacet
  facet normal 0.914235 0.253851 0.315808
    outer loop
      vertex -3.12519 -0.687905 2.4
      vertex -3.90648 -0.859882 4.8
      vertex -3.03249 -1.02176 2.4
    endloop
  endfacet
  facet normal 0.914238 0.253836 0.31581
    outer loop
      vertex -3.90648 -0.859882 4.8
      vertex -3.79061 -1.27721 4.8
      vertex -3.03249 -1.02176 2.4
    endloop
  endfacet
  facet normal 0.881436 0.351189 0.315811
    outer loop
      vertex -3.03249 -1.02176 2.4
      vertex -3.79061 -1.27721 4.8
      vertex -2.90424 -1.34365 2.4
    endloop
  endfacet
  facet normal 0.881435 0.351194 0.31581
    outer loop
      vertex -3.79061 -1.27721 4.8
      vertex -3.6303 -1.67956 4.8
      vertex -2.90424 -1.34365 2.4
    endloop
  endfacet
  facet normal 0.83829 0.444448 0.31581
    outer loop
      vertex -2.90424 -1.34365 2.4
      vertex -3.6303 -1.67956 4.8
      vertex -2.74194 -1.64977 2.4
    endloop
  endfacet
  facet normal 0.838298 0.44443 0.315813
    outer loop
      vertex -3.6303 -1.67956 4.8
      vertex -3.42743 -2.06222 4.8
      vertex -2.74194 -1.64977 2.4
    endloop
  endfacet
  facet normal 0.78534 0.53245 0.315813
    outer loop
      vertex -2.74194 -1.64977 2.4
      vertex -3.42743 -2.06222 4.8
      vertex -2.5475 -1.93656 2.4
    endloop
  endfacet
  facet normal 0.785326 0.532474 0.315809
    outer loop
      vertex -3.42743 -2.06222 4.8
      vertex -3.18437 -2.4207 4.8
      vertex -2.5475 -1.93656 2.4
    endloop
  endfacet
  facet normal 0.723159 0.614252 0.315809
    outer loop
      vertex -2.5475 -1.93656 2.4
      vertex -3.18437 -2.4207 4.8
      vertex -2.32319 -2.20064 2.4
    endloop
  endfacet
  facet normal 0.723156 0.614256 0.315809
    outer loop
      vertex -3.18437 -2.4207 4.8
      vertex -2.90398 -2.7508 4.8
      vertex -2.32319 -2.20064 2.4
    endloop
  endfacet
  facet normal 0.652504 0.688842 0.315809
    outer loop
      vertex -2.32319 -2.20064 2.4
      vertex -2.90398 -2.7508 4.8
      vertex -2.07164 -2.43892 2.4
    endloop
  endfacet
  facet normal 0.652512 0.688834 0.31581
    outer loop
      vertex -2.90398 -2.7508 4.8
      vertex -2.58955 -3.04865 4.8
      vertex -2.07164 -2.43892 2.4
    endloop
  endfacet
  facet normal 0.574189 0.755362 0.31581
    outer loop
      vertex -2.07164 -2.43892 2.4
      vertex -2.58955 -3.04865 4.8
      vertex -1.7958 -2.6486 2.4
    endloop
  endfacet
  facet normal 0.574202 0.75535 0.315813
    outer loop
      vertex -2.58955 -3.04865 4.8
      vertex -2.24475 -3.31076 4.8
      vertex -1.7958 -2.6486 2.4
    endloop
  endfacet
  facet normal 0.489183 0.812996 0.315813
    outer loop
      vertex -1.7958 -2.6486 2.4
      vertex -2.24475 -3.31076 4.8
      vertex -1.49891 -2.82724 2.4
    endloop
  endfacet
  facet normal 0.48916 0.813011 0.315809
    outer loop
      vertex -2.24475 -3.31076 4.8
      vertex -1.87363 -3.53405 4.8
      vertex -1.49891 -2.82724 2.4
    endloop
  endfacet
  facet normal 0.398402 0.861127 0.315809
    outer loop
      vertex -1.49891 -2.82724 2.4
      vertex -1.87363 -3.53405 4.8
      vertex -1.18444 -2.97273 2.4
    endloop
  endfacet
  facet normal 0.398404 0.861127 0.31581
    outer loop
      vertex -1.87363 -3.53405 4.8
      vertex -1.48055 -3.71591 4.8
      vertex -1.18444 -2.97273 2.4
    endloop
  endfacet
  facet normal 0.302952 0.899158 0.31581
    outer loop
      vertex -1.18444 -2.97273 2.4
      vertex -1.48055 -3.71591 4.8
      vertex -0.856091 -3.08336 2.4
    endloop
  endfacet
  facet normal 0.302954 0.899157 0.31581
    outer loop
      vertex -1.48055 -3.71591 4.8
      vertex -1.07011 -3.8542 4.8
      vertex -0.856091 -3.08336 2.4
    endloop
  endfacet
  facet normal 0.203956 0.926642 0.31581
    outer loop
      vertex -0.856091 -3.08336 2.4
      vertex -1.07011 -3.8542 4.8
      vertex -0.517702 -3.15784 2.4
    endloop
  endfacet
  facet normal 0.203978 0.926636 0.315813
    outer loop
      vertex -1.07011 -3.8542 4.8
      vertex -0.647128 -3.94731 4.8
      vertex -0.517702 -3.15784 2.4
    endloop
  endfacet
  facet normal 0.102607 0.943257 0.315814
    outer loop
      vertex -0.517702 -3.15784 2.4
      vertex -0.647128 -3.94731 4.8
      vertex -0.173245 -3.19531 2.4
    endloop
  endfacet
  facet normal 0.10257 0.943263 0.315808
    outer loop
      vertex -0.647128 -3.94731 4.8
      vertex -0.216556 -3.99413 4.8
      vertex -0.173245 -3.19531 2.4
    endloop
  endfacet
  facet normal -0 0.948823 0.315808
    outer loop
      vertex -0.173245 -3.19531 2.4
      vertex -0.216556 -3.99413 4.8
      vertex 0.173245 -3.19531 2.4
    endloop
  endfacet
  facet normal -0 0.948823 0.315808
    outer loop
      vertex -0.216556 -3.99413 4.8
      vertex 0.216556 -3.99413 4.8
      vertex 0.173245 -3.19531 2.4
    endloop
  endfacet
  facet normal -0.102608 0.943259 0.315808
    outer loop
      vertex 0.173245 -3.19531 2.4
      vertex 0.216556 -3.99413 4.8
      vertex 0.517702 -3.15784 2.4
    endloop
  endfacet
  facet normal -0.102569 0.943261 0.315813
    outer loop
      vertex 0.216556 -3.99413 4.8
      vertex 0.647128 -3.94731 4.8
      vertex 0.517702 -3.15784 2.4
    endloop
  endfacet
  facet normal -0.203955 0.926641 0.315814
    outer loop
      vertex 0.517702 -3.15784 2.4
      vertex 0.647128 -3.94731 4.8
      vertex 0.856091 -3.08336 2.4
    endloop
  endfacet
  facet normal -0.203978 0.926637 0.31581
    outer loop
      vertex 0.647128 -3.94731 4.8
      vertex 1.07011 -3.8542 4.8
      vertex 0.856091 -3.08336 2.4
    endloop
  endfacet
  facet normal -0.302951 0.899158 0.31581
    outer loop
      vertex 0.856091 -3.08336 2.4
      vertex 1.07011 -3.8542 4.8
      vertex 1.18444 -2.97273 2.4
    endloop
  endfacet
  facet normal -0.302954 0.899157 0.31581
    outer loop
      vertex 1.07011 -3.8542 4.8
      vertex 1.48055 -3.71591 4.8
      vertex 1.18444 -2.97273 2.4
    endloop
  endfacet
  facet normal -0.398402 0.861127 0.31581
    outer loop
      vertex 1.18444 -2.97273 2.4
      vertex 1.48055 -3.71591 4.8
      vertex 1.49891 -2.82724 2.4
    endloop
  endfacet
  facet normal -0.398404 0.861127 0.315809
    outer loop
      vertex 1.48055 -3.71591 4.8
      vertex 1.87363 -3.53405 4.8
      vertex 1.49891 -2.82724 2.4
    endloop
  endfacet
  facet normal -0.489184 0.812997 0.315809
    outer loop
      vertex 1.49891 -2.82724 2.4
      vertex 1.87363 -3.53405 4.8
      vertex 1.7958 -2.6486 2.4
    endloop
  endfacet
  facet normal -0.48916 0.81301 0.315813
    outer loop
      vertex 1.87363 -3.53405 4.8
      vertex 2.24475 -3.31076 4.8
      vertex 1.7958 -2.6486 2.4
    endloop
  endfacet
  facet normal -0.574188 0.755361 0.315813
    outer loop
      vertex 1.7958 -2.6486 2.4
      vertex 2.24475 -3.31076 4.8
      vertex 2.07164 -2.43892 2.4
    endloop
  endfacet
  facet normal -0.574203 0.755351 0.315811
    outer loop
      vertex 2.24475 -3.31076 4.8
      vertex 2.58955 -3.04865 4.8
      vertex 2.07164 -2.43892 2.4
    endloop
  endfacet
  facet normal -0.652503 0.688842 0.315811
    outer loop
      vertex 2.07164 -2.43892 2.4
      vertex 2.58955 -3.04865 4.8
      vertex 2.32319 -2.20064 2.4
    endloop
  endfacet
  facet normal -0.652512 0.688834 0.315809
    outer loop
      vertex 2.58955 -3.04865 4.8
      vertex 2.90398 -2.7508 4.8
      vertex 2.32319 -2.20064 2.4
    endloop
  endfacet
  facet normal -0.723159 0.614252 0.315809
    outer loop
      vertex 2.32319 -2.20064 2.4
      vertex 2.90398 -2.7508 4.8
      vertex 2.5475 -1.93656 2.4
    endloop
  endfacet
  facet normal -0.723156 0.614255 0.315809
    outer loop
      vertex 2.90398 -2.7508 4.8
      vertex 3.18437 -2.4207 4.8
      vertex 2.5475 -1.93656 2.4
    endloop
  endfacet
  facet normal -0.785341 0.532451 0.315809
    outer loop
      vertex 2.5475 -1.93656 2.4
      vertex 3.18437 -2.4207 4.8
      vertex 2.74194 -1.64977 2.4
    endloop
  endfacet
  facet normal -0.785325 0.532473 0.315813
    outer loop
      vertex 3.18437 -2.4207 4.8
      vertex 3.42743 -2.06222 4.8
      vertex 2.74194 -1.64977 2.4
    endloop
  endfacet
  facet normal -0.838289 0.444448 0.315813
    outer loop
      vertex 2.74194 -1.64977 2.4
      vertex 3.42743 -2.06222 4.8
      vertex 2.90424 -1.34365 2.4
    endloop
  endfacet
  facet normal -0.838299 0.44443 0.31581
    outer loop
      vertex 3.42743 -2.06222 4.8
      vertex 3.6303 -1.67956 4.8
      vertex 2.90424 -1.34365 2.4
    endloop
  endfacet
  facet normal -0.881437 0.351189 0.31581
    outer loop
      vertex 2.90424 -1.34365 2.4
      vertex 3.6303 -1.67956 4.8
      vertex 3.03249 -1.02176 2.4
    endloop
  endfacet
  facet normal -0.881434 0.351194 0.315811
    outer loop
      vertex 3.6303 -1.67956 4.8
      vertex 3.79061 -1.27721 4.8
      vertex 3.03249 -1.02176 2.4
    endloop
  endfacet
  facet normal -0.914234 0.253851 0.31581
    outer loop
      vertex 3.03249 -1.02176 2.4
      vertex 3.79061 -1.27721 4.8
      vertex 3.12519 -0.687905 2.4
    endloop
  endfacet
  facet normal -0.914239 0.253836 0.315808
    outer loop
      vertex 3.79061 -1.27721 4.8
      vertex 3.90648 -0.859882 4.8
      vertex 3.12519 -0.687905 2.4
    endloop
  endfacet
  facet normal -0.936326 0.153488 0.315808
    outer loop
      vertex 3.12519 -0.687905 2.4
      vertex 3.90648 -0.859882 4.8
      vertex 3.18124 -0.345981 2.4
    endloop
  endfacet
  facet normal -0.936323 0.153503 0.31581
    outer loop
      vertex 3.90648 -0.859882 4.8
      vertex 3.97655 -0.432476 4.8
      vertex 3.18124 -0.345981 2.4
    endloop
  endfacet
  facet normal -0.947431 0.0513722 0.31581
    outer loop
      vertex 3.18124 -0.345981 2.4
      vertex 3.97655 -0.432476 4.8
      vertex 3.2 1.95943e-16 2.4
    endloop
  endfacet
  facet normal -0.947431 0.0513722 0.31581
    outer loop
      vertex 3.97655 -0.432476 4.8
      vertex 4 -7.83774e-16 4.8
      vertex 3.2 1.95943e-16 2.4
    endloop
  endfacet
  facet normal -0.947431 -0.0513722 0.31581
    outer loop
      vertex 3.2 1.95943e-16 2.4
      vertex 4 -7.83774e-16 4.8
      vertex 3.18124 0.345981 2.4
    endloop
  endfacet
  facet normal -0.947431 -0.0513722 0.31581
    outer loop
      vertex 4 -7.83774e-16 4.8
      vertex 3.97655 0.432476 4.8
      vertex 3.18124 0.345981 2.4
    endloop
  endfacet
  facet normal 0 -0 1
    outer loop
      vertex 3.97655 0.432476 4.8
      vertex 4.77186 0.518971 4.8
      vertex 3.90648 0.859882 4.8
    endloop
  endfacet
  facet normal 0 0 1
    outer loop
      vertex 4.77186 0.518971 4.8
      vertex 4.68778 1.03186 4.8
      vertex 3.90648 0.859882 4.8
    endloop
  endfacet
  facet normal 0 -0 1
    outer loop
      vertex 3.90648 0.859882 4.8
      vertex 4.68778 1.03186 4.8
      vertex 3.79061 1.27721 4.8
    endloop
  endfacet
  facet normal 0 0 1
    outer loop
      vertex 4.68778 1.03186 4.8
      vertex 4.54874 1.53265 4.8
      vertex 3.79061 1.27721 4.8
    endloop
  endfacet
  facet normal 0 -0 1
    outer loop
      vertex 3.79061 1.27721 4.8
      vertex 4.54874 1.53265 4.8
      vertex 3.6303 1.67956 4.8
    endloop
  endfacet
  facet normal 0 0 1
    outer loop
      vertex 4.54874 1.53265 4.8
      vertex 4.35636 2.01547 4.8
      vertex 3.6303 1.67956 4.8
    endloop
  endfacet
  facet normal 0 -0 1
    outer loop
      vertex 3.6303 1.67956 4.8
      vertex 4.35636 2.01547 4.8
      vertex 3.42743 2.06222 4.8
    endloop
  endfacet
  facet normal 0 0 1
    outer loop
      vertex 4.35636 2.01547 4.8
      vertex 4.11291 2.47466 4.8
      vertex 3.42743 2.06222 4.8
    endloop
  endfacet
  facet normal 0 -0 1
    outer loop
      vertex 3.42743 2.06222 4.8
      vertex 4.11291 2.47466 4.8
      vertex 3.18437 2.4207 4.8
    endloop
  endfacet
  facet normal 0 0 1
    outer loop
      vertex 4.11291 2.47466 4.8
      vertex 3.82125 2.90484 4.8
      vertex 3.18437 2.4207 4.8
    endloop
  endfacet
  facet normal 0 -0 1
    outer loop
      vertex 3.18437 2.4207 4.8
      vertex 3.82125 2.90484 4.8
      vertex 2.90398 2.7508 4.8
    endloop
  endfacet
  facet normal 0 0 1
    outer loop
      vertex 3.82125 2.90484 4.8
      vertex 3.48478 3.30096 4.8
      vertex 2.90398 2.7508 4.8
    endloop
  endfacet
  facet normal 0 -0 1
    outer loop
      vertex 2.90398 2.7508 4.8
      vertex 3.48478 3.30096 4.8
      vertex 2.58955 3.04865 4.8
    endloop
  endfacet
  facet normal 0 0 1
    outer loop
      vertex 3.48478 3.30096 4.8
      vertex 3.10745 3.65838 4.8
      vertex 2.58955 3.04865 4.8
    endloop
  endfacet
  facet normal 0 -0 1
    outer loop
      vertex 2.58955 3.04865 4.8
      vertex 3.10745 3.65838 4.8
      vertex 2.24475 3.31076 4.8
    endloop
  endfacet
  facet normal 0 0 1
    outer loop
      vertex 3.10745 3.65838 4.8
      vertex 2.6937 3.97291 4.8
      vertex 2.24475 3.31076 4.8
    endloop
  endfacet
  facet normal 0 -0 1
    outer loop
      vertex 2.24475 3.31076 4.8
      vertex 2.6937 3.97291 4.8
      vertex 1.87363 3.53405 4.8
    endloop
  endfacet
  facet normal 0 0 1
    outer loop
      vertex 2.6937 3.97291 4.8
      vertex 2.24836 4.24086 4.8
      vertex 1.87363 3.53405 4.8
    endloop
  endfacet
  facet normal 0 -0 1
    outer loop
      vertex 1.87363 3.53405 4.8
      vertex 2.24836 4.24086 4.8
      vertex 1.48055 3.71591 4.8
    endloop
  endfacet
  facet normal 0 0 1
    outer loop
      vertex 2.24836 4.24086 4.8
      vertex 1.77666 4.45909 4.8
      vertex 1.48055 3.71591 4.8
    endloop
  endfacet
  facet normal 0 -0 1
    outer loop
      vertex 1.48055 3.71591 4.8
      vertex 1.77666 4.45909 4.8
      vertex 1.07011 3.8542 4.8
    endloop
  endfacet
  facet normal 0 0 1
    outer loop
      vertex 1.77666 4.45909 4.8
      vertex 1.28414 4.62504 4.8
      vertex 1.07011 3.8542 4.8
    endloop
  endfacet
  facet normal 0 -0 1
    outer loop
      vertex 1.07011 3.8542 4.8
      vertex 1.28414 4.62504 4.8
      vertex 0.647128 3.94731 4.8
    endloop
  endfacet
  facet normal 0 0 1
    outer loop
      vertex 1.28414 4.62504 4.8
      vertex 0.776554 4.73677 4.8
      vertex 0.647128 3.94731 4.8
    endloop
  endfacet
  facet normal 0 -0 1
    outer loop
      vertex 0.647128 3.94731 4.8
      vertex 0.776554 4.73677 4.8
      vertex 0.216556 3.99413 4.8
    endloop
  endfacet
  facet normal 0 0 1
    outer loop
      vertex 0.776554 4.73677 4.8
      vertex 0.259867 4.79296 4.8
      vertex 0.216556 3.99413 4.8
    endloop
  endfacet
  facet normal 0 -0 1
    outer loop
      vertex 0.216556 3.99413 4.8
      vertex 0.259867 4.79296 4.8
      vertex -0.216556 3.99413 4.8
    endloop
  endfacet
  facet normal 0 0 1
    outer loop
      vertex 0.259867 4.79296 4.8
      vertex -0.259867 4.79296 4.8
      vertex -0.216556 3.99413 4.8
    endloop
  endfacet
  facet normal 0 0 1
    outer loop
      vertex -0.216556 3.99413 4.8
      vertex -0.259867 4.79296 4.8
      vertex -0.647128 3.94731 4.8
    endloop
  endfacet
  facet normal 0 0 1
    outer loop
      vertex -0.259867 4.79296 4.8
      vertex -0.776554 4.73677 4.8
      vertex -0.647128 3.94731 4.8
    endloop
  endfacet
  facet normal 0 0 1
    outer loop
      vertex -0.647128 3.94731 4.8
      vertex -0.776554 4.73677 4.8
      vertex -1.07011 3.8542 4.8
    endloop
  endfacet
  facet normal 0 0 1
    outer loop
      vertex -0.776554 4.73677 4.8
      vertex -1.28414 4.62504 4.8
      vertex -1.07011 3.8542 4.8
    endloop
  endfacet
  facet normal 0 0 1
    outer loop
      vertex -1.07011 3.8542 4.8
      vertex -1.28414 4.62504 4.8
      vertex -1.48055 3.71591 4.8
    endloop
  endfacet
  facet normal 0 0 1
    outer loop
      vertex -1.28414 4.62504 4.8
      vertex -1.77666 4.45909 4.8
      vertex -1.48055 3.71591 4.8
    endloop
  endfacet
  facet normal 0 0 1
    outer loop
      vertex -1.48055 3.71591 4.8
      vertex -1.77666 4.45909 4.8
      vertex -1.87363 3.53405 4.8
    endloop
  endfacet
  facet normal 0 0 1
    outer loop
      vertex -1.77666 4.45909 4.8
      vertex -2.24836 4.24086 4.8
      vertex -1.87363 3.53405 4.8
    endloop
  endfacet
  facet normal 0 0 1
    outer loop
      vertex -1.87363 3.53405 4.8
      vertex -2.24836 4.24086 4.8
      vertex -2.24475 3.31076 4.8
    endloop
  endfacet
  facet normal 0 0 1
    outer loop
      vertex -2.24836 4.24086 4.8
      vertex -2.6937 3.97291 4.8
      vertex -2.24475 3.31076 4.8
    endloop
  endfacet
  facet normal 0 0 1
    outer loop
      vertex -2.24475 3.31076 4.8
      vertex -2.6937 3.97291 4.8
      vertex -2.58955 3.04865 4.8
    endloop
  endfacet
  facet normal 0 0 1
    outer loop
      vertex -2.6937 3.97291 4.8
      vertex -3.10745 3.65838 4.8
      vertex -2.58955 3.04865 4.8
    endloop
  endfacet
  facet normal 0 0 1
    outer loop
      vertex -2.58955 3.04865 4.8
      vertex -3.10745 3.65838 4.8
      vertex -2.90398 2.7508 4.8
    endloop
  endfacet
  facet normal 0 0 1
    outer loop
      vertex -3.10745 3.65838 4.8
      vertex -3.48478 3.30096 4.8
      vertex -2.90398 2.7508 4.8
    endloop
  endfacet
  facet normal 0 0 1
    outer loop
      vertex -2.90398 2.7508 4.8
      vertex -3.48478 3.30096 4.8
      vertex -3.18437 2.4207 4.8
    endloop
  endfacet
  facet normal 0 0 1
    outer loop
      vertex -3.48478 3.30096 4.8
      vertex -3.82125 2.90484 4.8
      vertex -3.18437 2.4207 4.8
    endloop
  endfacet
  facet normal 0 0 1
    outer loop
      vertex -3.18437 2.4207 4.8
      vertex -3.82125 2.90484 4.8
      vertex -3.42743 2.06222 4.8
    endloop
  endfacet
  facet normal 0 0 1
    outer loop
      vertex -3.82125 2.90484 4.8
      vertex -4.11291 2.47466 4.8
      vertex -3.42743 2.06222 4.8
    endloop
  endfacet
  facet normal 0 0 1
    outer loop
      vertex -3.42743 2.06222 4.8
      vertex -4.11291 2.47466 4.8
      vertex -3.6303 1.67956 4.8
    endloop
  endfacet
  facet normal 0 0 1
    outer loop
      vertex -4.11291 2.47466 4.8
      vertex -4.35636 2.01547 4.8
      vertex -3.6303 1.67956 4.8
    endloop
  endfacet
  facet normal 0 0 1
    outer loop
      vertex -3.6303 1.67956 4.8
      vertex -4.35636 2.01547 4.8
      vertex -3.79061 1.27721 4.8
    endloop
  endfacet
  facet normal 0 0 1
    outer loop
      vertex -4.35636 2.01547 4.8
      vertex -4.54874 1.53265 4.8
      vertex -3.79061 1.27721 4.8
    endloop
  endfacet
  facet normal 0 0 1
    outer loop
      vertex -3.79061 1.27721 4.8
      vertex -4.54874 1.53265 4.8
      vertex -3.90648 0.859882 4.8
    endloop
  endfacet
  facet normal 0 0 1
    outer loop
      vertex -4.54874 1.53265 4.8
      vertex -4.68778 1.03186 4.8
      vertex -3.90648 0.859882 4.8
    endloop
  endfacet
  facet normal 0 0 1
    outer loop
      vertex -3.90648 0.859882 4.8
      vertex -4.68778 1.03186 4.8
      vertex -3.97655 0.432476 4.8
    endloop
  endfacet
  facet normal 0 0 1
    outer loop
      vertex -4.68778 1.03186 4.8
      vertex -4.77186 0.518971 4.8
      vertex -3.97655 0.432476 4.8
    endloop
  endfacet
  facet normal 0 0 1
    outer loop
      vertex -3.97655 0.432476 4.8
      vertex -4.77186 0.518971 4.8
      vertex -4 -2.86691e-15 4.8
    endloop
  endfacet
  facet normal 0 0 1
    outer loop
      vertex -4.77186 0.518971 4.8
      vertex -4.8 2.93915e-16 4.8
      vertex -4 -2.86691e-15 4.8
    endloop
  endfacet
  facet normal 0 0 1
    outer loop
      vertex -4 -2.86691e-15 4.8
      vertex -4.8 2.93915e-16 4.8
      vertex -3.97655 -0.432476 4.8
    endloop
  endfacet
  facet normal 0 0 1
    outer loop
      vertex -4.8 2.93915e-16 4.8
      vertex -4.77186 -0.518971 4.8
      vertex -3.97655 -0.432476 4.8
    endloop
  endfacet
  facet normal 0 0 1
    outer loop
      vertex -3.97655 -0.432476 4.8
      vertex -4.77186 -0.518971 4.8
      vertex -3.90648 -0.859882 4.8
    endloop
  endfacet
  facet normal 0 0 1
    outer loop
      vertex -4.77186 -0.518971 4.8
      vertex -4.68778 -1.03186 4.8
      vertex -3.90648 -0.859882 4.8
    endloop
  endfacet
  facet normal 0 0 1
    outer loop
      vertex -3.90648 -0.859882 4.8
      vertex -4.68778 -1.03186 4.8
      vertex -3.79061 -1.27721 4.8
    endloop
  endfacet
  facet normal 0 0 1
    outer loop
      vertex -4.68778 -1.03186 4.8
      vertex -4.54874 -1.53265 4.8
      vertex -3.79061 -1.27721 4.8
    endloop
  endfacet
  facet normal 0 0 1
    outer loop
      vertex -3.79061 -1.27721 4.8
      vertex -4.54874 -1.53265 4.8
      vertex -3.6303 -1.67956 4.8
    endloop
  endfacet
  facet normal 0 0 1
    outer loop
      vertex -4.54874 -1.53265 4.8
      vertex -4.35636 -2.01547 4.8
      vertex -3.6303 -1.67956 4.8
    endloop
  endfacet
  facet normal 0 0 1
    outer loop
      vertex -3.6303 -1.67956 4.8
      vertex -4.35636 -2.01547 4.8
      vertex -3.42743 -2.06222 4.8
    endloop
  endfacet
  facet normal 0 0 1
    outer loop
      vertex -4.35636 -2.01547 4.8
      vertex -4.11291 -2.47466 4.8
      vertex -3.42743 -2.06222 4.8
    endloop
  endfacet
  facet normal 0 0 1
    outer loop
      vertex -3.42743 -2.06222 4.8
      vertex -4.11291 -2.47466 4.8
      vertex -3.18437 -2.4207 4.8
    endloop
  endfacet
  facet normal -0 0 1
    outer loop
      vertex -4.11291 -2.47466 4.8
      vertex -3.82125 -2.90484 4.8
      vertex -3.18437 -2.4207 4.8
    endloop
  endfacet
  facet normal 0 0 1
    outer loop
      vertex -3.18437 -2.4207 4.8
      vertex -3.82125 -2.90484 4.8
      vertex -2.90398 -2.7508 4.8
    endloop
  endfacet
  facet normal -0 0 1
    outer loop
      vertex -3.82125 -2.90484 4.8
      vertex -3.48478 -3.30096 4.8
      vertex -2.90398 -2.7508 4.8
    endloop
  endfacet
  facet normal 0 0 1
    outer loop
      vertex -2.90398 -2.7508 4.8
      vertex -3.48478 -3.30096 4.8
      vertex -2.58955 -3.04865 4.8
    endloop
  endfacet
  facet normal -0 0 1
    outer loop
      vertex -3.48478 -3.30096 4.8
      vertex -3.10745 -3.65838 4.8
      vertex -2.58955 -3.04865 4.8
    endloop
  endfacet
  facet normal 0 0 1
    outer loop
      vertex -2.58955 -3.04865 4.8
      vertex -3.10745 -3.65838 4.8
      vertex -2.24475 -3.31076 4.8
    endloop
  endfacet
  facet normal -0 0 1
    outer loop
      vertex -3.10745 -3.65838 4.8
      vertex -2.6937 -3.97291 4.8
      vertex -2.24475 -3.31076 4.8
    endloop
  endfacet
  facet normal 0 0 1
    outer loop
      vertex -2.24475 -3.31076 4.8
      vertex -2.6937 -3.97291 4.8
      vertex -1.87363 -3.53405 4.8
    endloop
  endfacet
  facet normal -0 0 1
    outer loop
      vertex -2.6937 -3.97291 4.8
      vertex -2.24836 -4.24086 4.8
      vertex -1.87363 -3.53405 4.8
    endloop
  endfacet
  facet normal 0 0 1
    outer loop
      vertex -1.87363 -3.53405 4.8
      vertex -2.24836 -4.24086 4.8
      vertex -1.48055 -3.71591 4.8
    endloop
  endfacet
  facet normal -0 0 1
    outer loop
      vertex -2.24836 -4.24086 4.8
      vertex -1.77666 -4.45909 4.8
      vertex -1.48055 -3.71591 4.8
    endloop
  endfacet
  facet normal 0 0 1
    outer loop
      vertex -1.48055 -3.71591 4.8
      vertex -1.77666 -4.45909 4.8
      vertex -1.07011 -3.8542 4.8
    endloop
  endfacet
  facet normal -0 0 1
    outer loop
      vertex -1.77666 -4.45909 4.8
      vertex -1.28414 -4.62504 4.8
      vertex -1.07011 -3.8542 4.8
    endloop
  endfacet
  facet normal 0 0 1
    outer loop
      vertex -1.07011 -3.8542 4.8
      vertex -1.28414 -4.62504 4.8
      vertex -0.647128 -3.94731 4.8
    endloop
  endfacet
  facet normal -0 0 1
    outer loop
      vertex -1.28414 -4.62504 4.8
      vertex -0.776554 -4.73677 4.8
      vertex -0.647128 -3.94731 4.8
    endloop
  endfacet
  facet normal 0 0 1
    outer loop
      vertex -0.647128 -3.94731 4.8
      vertex -0.776554 -4.73677 4.8
      vertex -0.216556 -3.99413 4.8
    endloop
  endfacet
  facet normal -0 0 1
    outer loop
      vertex -0.776554 -4.73677 4.8
      vertex -0.259867 -4.79296 4.8
      vertex -0.216556 -3.99413 4.8
    endloop
  endfacet
  facet normal -0 0 1
    outer loop
      vertex -0.216556 -3.99413 4.8
      vertex -0.259867 -4.79296 4.8
      vertex 0.216556 -3.99413 4.8
    endloop
  endfacet
  facet normal 0 0 1
    outer loop
      vertex -0.259867 -4.79296 4.8
      vertex 0.259867 -4.79296 4.8
      vertex 0.216556 -3.99413 4.8
    endloop
  endfacet
  facet normal -0 0 1
    outer loop
      vertex 0.216556 -3.99413 4.8
      vertex 0.259867 -4.79296 4.8
      vertex 0.647128 -3.94731 4.8
    endloop
  endfacet
  facet normal 0 0 1
    outer loop
      vertex 0.259867 -4.79296 4.8
      vertex 0.776554 -4.73677 4.8
      vertex 0.647128 -3.94731 4.8
    endloop
  endfacet
  facet normal -0 0 1
    outer loop
      vertex 0.647128 -3.94731 4.8
      vertex 0.776554 -4.73677 4.8
      vertex 1.07011 -3.8542 4.8
    endloop
  endfacet
  facet normal 0 0 1
    outer loop
      vertex 0.776554 -4.73677 4.8
      vertex 1.28414 -4.62504 4.8
      vertex 1.07011 -3.8542 4.8
    endloop
  endfacet
  facet normal -0 0 1
    outer loop
      vertex 1.07011 -3.8542 4.8
      vertex 1.28414 -4.62504 4.8
      vertex 1.48055 -3.71591 4.8
    endloop
  endfacet
  facet normal 0 0 1
    outer loop
      vertex 1.28414 -4.62504 4.8
      vertex 1.77666 -4.45909 4.8
      vertex 1.48055 -3.71591 4.8
    endloop
  endfacet
  facet normal -0 0 1
    outer loop
      vertex 1.48055 -3.71591 4.8
      vertex 1.77666 -4.45909 4.8
      vertex 1.87363 -3.53405 4.8
    endloop
  endfacet
  facet normal 0 0 1
    outer loop
      vertex 1.77666 -4.45909 4.8
      vertex 2.24836 -4.24086 4.8
      vertex 1.87363 -3.53405 4.8
    endloop
  endfacet
  facet normal -0 0 1
    outer loop
      vertex 1.87363 -3.53405 4.8
      vertex 2.24836 -4.24086 4.8
      vertex 2.24475 -3.31076 4.8
    endloop
  endfacet
  facet normal 0 -0 1
    outer loop
      vertex 2.24836 -4.24086 4.8
      vertex 2.6937 -3.97291 4.8
      vertex 2.24475 -3.31076 4.8
    endloop
  endfacet
  facet normal -0 0 1
    outer loop
      vertex 2.24475 -3.31076 4.8
      vertex 2.6937 -3.97291 4.8
      vertex 2.58955 -3.04865 4.8
    endloop
  endfacet
  facet normal 0 -0 1
    outer loop
      vertex 2.6937 -3.97291 4.8
      vertex 3.10745 -3.65838 4.8
      vertex 2.58955 -3.04865 4.8
    endloop
  endfacet
  facet normal -0 0 1
    outer loop
      vertex 2.58955 -3.04865 4.8
      vertex 3.10745 -3.65838 4.8
      vertex 2.90398 -2.7508 4.8
    endloop
  endfacet
  facet normal 0 -0 1
    outer loop
      vertex 3.10745 -3.65838 4.8
      vertex 3.48478 -3.30096 4.8
      vertex 2.90398 -2.7508 4.8
    endloop
  endfacet
  facet normal -0 0 1
    outer loop
      vertex 2.90398 -2.7508 4.8
      vertex 3.48478 -3.30096 4.8
      vertex 3.18437 -2.4207 4.8
    endloop
  endfacet
  facet normal 0 -0 1
    outer loop
      vertex 3.48478 -3.30096 4.8
      vertex 3.82125 -2.90484 4.8
      vertex 3.18437 -2.4207 4.8
    endloop
  endfacet
  facet normal -0 0 1
    outer loop
      vertex 3.18437 -2.4207 4.8
      vertex 3.82125 -2.90484 4.8
      vertex 3.42743 -2.06222 4.8
    endloop
  endfacet
  facet normal 0 -0 1
    outer loop
      vertex 3.82125 -2.90484 4.8
      vertex 4.11291 -2.47466 4.8
      vertex 3.42743 -2.06222 4.8
    endloop
  endfacet
  facet normal -0 0 1
    outer loop
      vertex 3.42743 -2.06222 4.8
      vertex 4.11291 -2.47466 4.8
      vertex 3.6303 -1.67956 4.8
    endloop
  endfacet
  facet normal 0 -0 1
    outer loop
      vertex 4.11291 -2.47466 4.8
      vertex 4.35636 -2.01547 4.8
      vertex 3.6303 -1.67956 4.8
    endloop
  endfacet
  facet normal -0 0 1
    outer loop
      vertex 3.6303 -1.67956 4.8
      vertex 4.35636 -2.01547 4.8
      vertex 3.79061 -1.27721 4.8
    endloop
  endfacet
  facet normal 0 -0 1
    outer loop
      vertex 4.35636 -2.01547 4.8
      vertex 4.54874 -1.53265 4.8
      vertex 3.79061 -1.27721 4.8
    endloop
  endfacet
  facet normal -0 0 1
    outer loop
      vertex 3.79061 -1.27721 4.8
      vertex 4.54874 -1.53265 4.8
      vertex 3.90648 -0.859882 4.8
    endloop
  endfacet
  facet normal 0 -0 1
    outer loop
      vertex 4.54874 -1.53265 4.8
      vertex 4.68778 -1.03186 4.8
      vertex 3.90648 -0.859882 4.8
    endloop
  endfacet
  facet normal -0 0 1
    outer loop
      vertex 3.90648 -0.859882 4.8
      vertex 4.68778 -1.03186 4.8
      vertex 3.97655 -0.432476 4.8
    endloop
  endfacet
  facet normal 0 -0 1
    outer loop
      vertex 4.68778 -1.03186 4.8
      vertex 4.77186 -0.518971 4.8
      vertex 3.97655 -0.432476 4.8
    endloop
  endfacet
  facet normal -0 0 1
    outer loop
      vertex 3.97655 -0.432476 4.8
      vertex 4.77186 -0.518971 4.8
      vertex 4 -7.83774e-16 4.8
    endloop
  endfacet
  facet normal 0 -0 1
    outer loop
      vertex 4.77186 -0.518971 4.8
      vertex 4.8 2.05741e-15 4.8
      vertex 4 -7.83774e-16 4.8
    endloop
  endfacet
  facet normal 0 -0 1
    outer loop
      vertex 4 -7.83774e-16 4.8
      vertex 4.8 2.05741e-15 4.8
      vertex 3.97655 0.432476 4.8
    endloop
  endfacet
  facet normal 0 0 1
    outer loop
      vertex 4.8 2.05741e-15 4.8
      vertex 4.77186 0.518971 4.8
      vertex 3.97655 0.432476 4.8
    endloop
  endfacet
endsolid OpenSCAD_Model
