solid OpenSCAD_Model
  facet normal -0.153487 -0.936325 -0.31581
    outer loop
      vertex 0.345981 3.18124 2.4
      vertex 0.432476 3.97655 0
      vertex 0.687905 3.12519 2.4
    endloop
  endfacet
  facet normal -0.153503 -0.936324 -0.315808
    outer loop
      vertex 0.432476 3.97655 0
      vertex 0.859882 3.90648 0
      vertex 0.687905 3.12519 2.4
    endloop
  endfacet
  facet normal -0.253851 -0.914235 -0.315808
    outer loop
      vertex 0.687905 3.12519 2.4
      vertex 0.859882 3.90648 0
      vertex 1.02176 3.03249 2.4
    endloop
  endfacet
  facet normal -0.253836 -0.914238 -0.31581
    outer loop
      vertex 0.859882 3.90648 0
      vertex 1.27721 3.79061 0
      vertex 1.02176 3.03249 2.4
    endloop
  endfacet
  facet normal -0.351189 -0.881436 -0.315811
    outer loop
      vertex 1.02176 3.03249 2.4
      vertex 1.27721 3.79061 0
      vertex 1.34365 2.90424 2.4
    endloop
  endfacet
  facet normal -0.351194 -0.881435 -0.31581
    outer loop
      vertex 1.27721 3.79061 0
      vertex 1.67956 3.6303 0
      vertex 1.34365 2.90424 2.4
    endloop
  endfacet
  facet normal -0.444448 -0.83829 -0.31581
    outer loop
      vertex 1.34365 2.90424 2.4
      vertex 1.67956 3.6303 0
      vertex 1.64977 2.74194 2.4
    endloop
  endfacet
  facet normal -0.44443 -0.838298 -0.315813
    outer loop
      vertex 1.67956 3.6303 0
      vertex 2.06222 3.42743 0
      vertex 1.64977 2.74194 2.4
    endloop
  endfacet
  facet normal -0.53245 -0.78534 -0.315813
    outer loop
      vertex 1.64977 2.74194 2.4
      vertex 2.06222 3.42743 0
      vertex 1.93656 2.5475 2.4
    endloop
  endfacet
  facet normal -0.532474 -0.785326 -0.315809
    outer loop
      vertex 2.06222 3.42743 0
      vertex 2.4207 3.18437 0
      vertex 1.93656 2.5475 2.4
    endloop
  endfacet
  facet normal -0.614252 -0.723159 -0.315809
    outer loop
      vertex 1.93656 2.5475 2.4
      vertex 2.4207 3.18437 0
      vertex 2.20064 2.32319 2.4
    endloop
  endfacet
  facet normal -0.614256 -0.723156 -0.315809
    outer loop
      vertex 2.4207 3.18437 0
      vertex 2.7508 2.90398 0
      vertex 2.20064 2.32319 2.4
    endloop
  endfacet
  facet normal -0.688842 -0.652504 -0.315809
    outer loop
      vertex 2.20064 2.32319 2.4
      vertex 2.7508 2.90398 0
      vertex 2.43892 2.07164 2.4
    endloop
  endfacet
  facet normal -0.688834 -0.652512 -0.31581
    outer loop
      vertex 2.7508 2.90398 0
      vertex 3.04865 2.58955 0
      vertex 2.43892 2.07164 2.4
    endloop
  endfacet
  facet normal -0.755362 -0.574189 -0.31581
    outer loop
      vertex 2.43892 2.07164 2.4
      vertex 3.04865 2.58955 0
      vertex 2.6486 1.7958 2.4
    endloop
  endfacet
  facet normal -0.75535 -0.574202 -0.315813
    outer loop
      vertex 3.04865 2.58955 0
      vertex 3.31076 2.24475 0
      vertex 2.6486 1.7958 2.4
    endloop
  endfacet
  facet normal -0.812996 -0.489183 -0.315813
    outer loop
      vertex 2.6486 1.7958 2.4
      vertex 3.31076 2.24475 0
      vertex 2.82724 1.49891 2.4
    endloop
  endfacet
  facet normal -0.813011 -0.48916 -0.315809
    outer loop
      vertex 3.31076 2.24475 0
      vertex 3.53405 1.87363 0
      vertex 2.82724 1.49891 2.4
    endloop
  endfacet
  facet normal -0.861127 -0.398402 -0.315809
    outer loop
      vertex 2.82724 1.49891 2.4
      vertex 3.53405 1.87363 0
      vertex 2.97273 1.18444 2.4
    endloop
  endfacet
  facet normal -0.861127 -0.398404 -0.31581
    outer loop
      vertex 3.53405 1.87363 0
      vertex 3.71591 1.48055 0
      vertex 2.97273 1.18444 2.4
    endloop
  endfacet
  facet normal -0.899158 -0.302952 -0.31581
    outer loop
      vertex 2.97273 1.18444 2.4
      vertex 3.71591 1.48055 0
      vertex 3.08336 0.856091 2.4
    endloop
  endfacet
  facet normal -0.899157 -0.302954 -0.31581
    outer loop
      vertex 3.71591 1.48055 0
      vertex 3.8542 1.07011 0
      vertex 3.08336 0.856091 2.4
    endloop
  endfacet
  facet normal -0.926642 -0.203956 -0.31581
    outer loop
      vertex 3.08336 0.856091 2.4
      vertex 3.8542 1.07011 0
      vertex 3.15784 0.517702 2.4
    endloop
  endfacet
  facet normal -0.926636 -0.203978 -0.315813
    outer loop
      vertex 3.8542 1.07011 0
      vertex 3.94731 0.647128 0
      vertex 3.15784 0.517702 2.4
    endloop
  endfacet
  facet normal -0.943257 -0.102607 -0.315814
    outer loop
      vertex 3.15784 0.517702 2.4
      vertex 3.94731 0.647128 0
      vertex 3.19531 0.173245 2.4
    endloop
  endfacet
  facet normal -0.943263 -0.10257 -0.315808
    outer loop
      vertex 3.94731 0.647128 0
      vertex 3.99413 0.216556 0
      vertex 3.19531 0.173245 2.4
    endloop
  endfacet
  facet normal -0.948823 -0 -0.315808
    outer loop
      vertex 3.19531 0.173245 2.4
      vertex 3.99413 0.216556 0
      vertex 3.19531 -0.173245 2.4
    endloop
  endfacet
  facet normal -0.948823 -0 -0.315808
    outer loop
      vertex 3.99413 0.216556 0
      vertex 3.99413 -0.216556 0
      vertex 3.19531 -0.173245 2.4
    endloop
  endfacet
  facet normal -0.943259 0.102608 -0.315808
    outer loop
      vertex 3.19531 -0.173245 2.4
      vertex 3.99413 -0.216556 0
      vertex 3.15784 -0.517702 2.4
    endloop
  endfacet
  facet normal -0.943261 0.102569 -0.315813
    outer loop
      vertex 3.99413 -0.216556 0
      vertex 3.94731 -0.647128 0
      vertex 3.15784 -0.517702 2.4
    endloop
  endfacet
  facet normal -0.926641 0.203955 -0.315814
    outer loop
      vertex 3.15784 -0.517702 2.4
      vertex 3.94731 -0.647128 0
      vertex 3.08336 -0.856091 2.4
    endloop
  endfacet
  facet normal -0.926637 0.203978 -0.31581
    outer loop
      vertex 3.94731 -0.647128 0
      vertex 3.8542 -1.07011 0
      vertex 3.08336 -0.856091 2.4
    endloop
  endfacet
  facet normal -0.899158 0.302951 -0.31581
    outer loop
      vertex 3.08336 -0.856091 2.4
      vertex 3.8542 -1.07011 0
      vertex 2.97273 -1.18444 2.4
    endloop
  endfacet
  facet normal -0.899157 0.302954 -0.31581
    outer loop
      vertex 3.8542 -1.07011 0
      vertex 3.71591 -1.48055 0
      vertex 2.97273 -1.18444 2.4
    endloop
  endfacet
  facet normal -0.861127 0.398402 -0.31581
    outer loop
      vertex 2.97273 -1.18444 2.4
      vertex 3.71591 -1.48055 0
      vertex 2.82724 -1.49891 2.4
    endloop
  endfacet
  facet normal -0.861127 0.398404 -0.315809
    outer loop
      vertex 3.71591 -1.48055 0
      vertex 3.53405 -1.87363 0
      vertex 2.82724 -1.49891 2.4
    endloop
  endfacet
  facet normal -0.812997 0.489184 -0.315809
    outer loop
      vertex 2.82724 -1.49891 2.4
      vertex 3.53405 -1.87363 0
      vertex 2.6486 -1.7958 2.4
    endloop
  endfacet
  facet normal -0.81301 0.48916 -0.315813
    outer loop
      vertex 3.53405 -1.87363 0
      vertex 3.31076 -2.24475 0
      vertex 2.6486 -1.7958 2.4
    endloop
  endfacet
  facet normal -0.755361 0.574188 -0.315813
    outer loop
      vertex 2.6486 -1.7958 2.4
      vertex 3.31076 -2.24475 0
      vertex 2.43892 -2.07164 2.4
    endloop
  endfacet
  facet normal -0.755351 0.574203 -0.315811
    outer loop
      vertex 3.31076 -2.24475 0
      vertex 3.04865 -2.58955 0
      vertex 2.43892 -2.07164 2.4
    endloop
  endfacet
  facet normal -0.688842 0.652503 -0.315811
    outer loop
      vertex 2.43892 -2.07164 2.4
      vertex 3.04865 -2.58955 0
      vertex 2.20064 -2.32319 2.4
    endloop
  endfacet
  facet normal -0.688834 0.652512 -0.315809
    outer loop
      vertex 3.04865 -2.58955 0
      vertex 2.7508 -2.90398 0
      vertex 2.20064 -2.32319 2.4
    endloop
  endfacet
  facet normal -0.614252 0.723159 -0.315809
    outer loop
      vertex 2.20064 -2.32319 2.4
      vertex 2.7508 -2.90398 0
      vertex 1.93656 -2.5475 2.4
    endloop
  endfacet
  facet normal -0.614255 0.723156 -0.315809
    outer loop
      vertex 2.7508 -2.90398 0
      vertex 2.4207 -3.18437 0
      vertex 1.93656 -2.5475 2.4
    endloop
  endfacet
  facet normal -0.532451 0.785341 -0.315809
    outer loop
      vertex 1.93656 -2.5475 2.4
      vertex 2.4207 -3.18437 0
      vertex 1.64977 -2.74194 2.4
    endloop
  endfacet
  facet normal -0.532473 0.785325 -0.315813
    outer loop
      vertex 2.4207 -3.18437 0
      vertex 2.06222 -3.42743 0
      vertex 1.64977 -2.74194 2.4
    endloop
  endfacet
  facet normal -0.444448 0.838289 -0.315813
    outer loop
      vertex 1.64977 -2.74194 2.4
      vertex 2.06222 -3.42743 0
      vertex 1.34365 -2.90424 2.4
    endloop
  endfacet
  facet normal -0.44443 0.838299 -0.31581
    outer loop
      vertex 2.06222 -3.42743 0
      vertex 1.67956 -3.6303 0
      vertex 1.34365 -2.90424 2.4
    endloop
  endfacet
  facet normal -0.351189 0.881437 -0.31581
    outer loop
      vertex 1.34365 -2.90424 2.4
      vertex 1.67956 -3.6303 0
      vertex 1.02176 -3.03249 2.4
    endloop
  endfacet
  facet normal -0.351194 0.881434 -0.315811
    outer loop
      vertex 1.67956 -3.6303 0
      vertex 1.27721 -3.79061 0
      vertex 1.02176 -3.03249 2.4
    endloop
  endfacet
  facet normal -0.253851 0.914234 -0.31581
    outer loop
      vertex 1.02176 -3.03249 2.4
      vertex 1.27721 -3.79061 0
      vertex 0.687905 -3.12519 2.4
    endloop
  endfacet
  facet normal -0.253836 0.914239 -0.315808
    outer loop
      vertex 1.27721 -3.79061 0
      vertex 0.859882 -3.90648 0
      vertex 0.687905 -3.12519 2.4
    endloop
  endfacet
  facet normal -0.153488 0.936326 -0.315808
    outer loop
      vertex 0.687905 -3.12519 2.4
      vertex 0.859882 -3.90648 0
      vertex 0.345981 -3.18124 2.4
    endloop
  endfacet
  facet normal -0.153503 0.936323 -0.31581
    outer loop
      vertex 0.859882 -3.90648 0
      vertex 0.432476 -3.97655 0
      vertex 0.345981 -3.18124 2.4
    endloop
  endfacet
  facet normal -0.0513722 0.947431 -0.31581
    outer loop
      vertex 0.345981 -3.18124 2.4
      vertex 0.432476 -3.97655 0
      vertex 1.95943e-16 -3.2 2.4
    endloop
  endfacet
  facet normal -0.0513722 0.947431 -0.31581
    outer loop
      vertex 0.432476 -3.97655 0
      vertex 1.66552e-15 -4 0
      vertex 1.95943e-16 -3.2 2.4
    endloop
  endfacet
  facet normal 0.0513722 0.947431 -0.31581
    outer loop
      vertex 1.95943e-16 -3.2 2.4
      vertex 1.66552e-15 -4 0
      vertex -0.345981 -3.18124 2.4
    endloop
  endfacet
  facet normal 0.0513722 0.947431 -0.31581
    outer loop
      vertex 1.66552e-15 -4 0
      vertex -0.432476 -3.97655 0
      vertex -0.345981 -3.18124 2.4
    endloop
  endfacet
  facet normal 0.153487 0.936325 -0.31581
    outer loop
      vertex -0.345981 -3.18124 2.4
      vertex -0.432476 -3.97655 0
      vertex -0.687905 -3.12519 2.4
    endloop
  endfacet
  facet normal 0.153503 0.936324 -0.315808
    outer loop
      vertex -0.432476 -3.97655 0
      vertex -0.859882 -3.90648 0
      vertex -0.687905 -3.12519 2.4
    endloop
  endfacet
  facet normal 0.253851 0.914235 -0.315808
    outer loop
      vertex -0.687905 -3.12519 2.4
      vertex -0.859882 -3.90648 0
      vertex -1.02176 -3.03249 2.4
    endloop
  endfacet
  facet normal 0.253836 0.914238 -0.31581
    outer loop
      vertex -0.859882 -3.90648 0
      vertex -1.27721 -3.79061 0
      vertex -1.02176 -3.03249 2.4
    endloop
  endfacet
  facet normal 0.351189 0.881436 -0.315811
    outer loop
      vertex -1.02176 -3.03249 2.4
      vertex -1.27721 -3.79061 0
      vertex -1.34365 -2.90424 2.4
    endloop
  endfacet
  facet normal 0.351194 0.881435 -0.31581
    outer loop
      vertex -1.27721 -3.79061 0
      vertex -1.67956 -3.6303 0
      vertex -1.34365 -2.90424 2.4
    endloop
  endfacet
  facet normal 0.444448 0.83829 -0.31581
    outer loop
      vertex -1.34365 -2.90424 2.4
      vertex -1.67956 -3.6303 0
      vertex -1.64977 -2.74194 2.4
    endloop
  endfacet
  facet normal 0.44443 0.838298 -0.315813
    outer loop
      vertex -1.67956 -3.6303 0
      vertex -2.06222 -3.42743 0
      vertex -1.64977 -2.74194 2.4
    endloop
  endfacet
  facet normal 0.53245 0.78534 -0.315813
    outer loop
      vertex -1.64977 -2.74194 2.4
      vertex -2.06222 -3.42743 0
      vertex -1.93656 -2.5475 2.4
    endloop
  endfacet
  facet normal 0.532474 0.785326 -0.315809
    outer loop
      vertex -2.06222 -3.42743 0
      vertex -2.4207 -3.18437 0
      vertex -1.93656 -2.5475 2.4
    endloop
  endfacet
  facet normal 0.614252 0.723159 -0.315809
    outer loop
      vertex -1.93656 -2.5475 2.4
      vertex -2.4207 -3.18437 0
      vertex -2.20064 -2.32319 2.4
    endloop
  endfacet
  facet normal 0.614256 0.723156 -0.315809
    outer loop
      vertex -2.4207 -3.18437 0
      vertex -2.7508 -2.90398 0
      vertex -2.20064 -2.32319 2.4
    endloop
  endfacet
  facet normal 0.688842 0.652504 -0.315809
    outer loop
      vertex -2.20064 -2.32319 2.4
      vertex -2.7508 -2.90398 0
      vertex -2.43892 -2.07164 2.4
    endloop
  endfacet
  facet normal 0.688834 0.652512 -0.31581
    outer loop
      vertex -2.7508 -2.90398 0
      vertex -3.04865 -2.58955 0
      vertex -2.43892 -2.07164 2.4
    endloop
  endfacet
  facet normal 0.755362 0.574189 -0.31581
    outer loop
      vertex -2.43892 -2.07164 2.4
      vertex -3.04865 -2.58955 0
      vertex -2.6486 -1.7958 2.4
    endloop
  endfacet
  facet normal 0.75535 0.574202 -0.315813
    outer loop
      vertex -3.04865 -2.58955 0
      vertex -3.31076 -2.24475 0
      vertex -2.6486 -1.7958 2.4
    endloop
  endfacet
  facet normal 0.812996 0.489183 -0.315813
    outer loop
      vertex -2.6486 -1.7958 2.4
      vertex -3.31076 -2.24475 0
      vertex -2.82724 -1.49891 2.4
    endloop
  endfacet
  facet normal 0.813011 0.48916 -0.315809
    outer loop
      vertex -3.31076 -2.24475 0
      vertex -3.53405 -1.87363 0
      vertex -2.82724 -1.49891 2.4
    endloop
  endfacet
  facet normal 0.861127 0.398402 -0.315809
    outer loop
      vertex -2.82724 -1.49891 2.4
      vertex -3.53405 -1.87363 0
      vertex -2.97273 -1.18444 2.4
    endloop
  endfacet
  facet normal 0.861127 0.398404 -0.31581
    outer loop
      vertex -3.53405 -1.87363 0
      vertex -3.71591 -1.48055 0
      vertex -2.97273 -1.18444 2.4
    endloop
  endfacet
  facet normal 0.899158 0.302952 -0.31581
    outer loop
      vertex -2.97273 -1.18444 2.4
      vertex -3.71591 -1.48055 0
      vertex -3.08336 -0.856091 2.4
    endloop
  endfacet
  facet normal 0.899157 0.302954 -0.31581
    outer loop
      vertex -3.71591 -1.48055 0
      vertex -3.8542 -1.07011 0
      vertex -3.08336 -0.856091 2.4
    endloop
  endfacet
  facet normal 0.926642 0.203956 -0.31581
    outer loop
      vertex -3.08336 -0.856091 2.4
      vertex -3.8542 -1.07011 0
      vertex -3.15784 -0.517702 2.4
    endloop
  endfacet
  facet normal 0.926636 0.203978 -0.315813
    outer loop
      vertex -3.8542 -1.07011 0
      vertex -3.94731 -0.647128 0
      vertex -3.15784 -0.517702 2.4
    endloop
  endfacet
  facet normal 0.943257 0.102607 -0.315814
    outer loop
      vertex -3.15784 -0.517702 2.4
      vertex -3.94731 -0.647128 0
      vertex -3.19531 -0.173245 2.4
    endloop
  endfacet
  facet normal 0.943263 0.10257 -0.315808
    outer loop
      vertex -3.94731 -0.647128 0
      vertex -3.99413 -0.216556 0
      vertex -3.19531 -0.173245 2.4
    endloop
  endfacet
  facet normal 0.948823 0 -0.315808
    outer loop
      vertex -3.19531 -0.173245 2.4
      vertex -3.99413 -0.216556 0
      vertex -3.19531 0.173245 2.4
    endloop
  endfacet
  facet normal 0.948823 0 -0.315808
    outer loop
      vertex -3.99413 -0.216556 0
      vertex -3.99413 0.216556 0
      vertex -3.19531 0.173245 2.4
    endloop
  endfacet
  facet normal 0.943259 -0.102608 -0.315808
    outer loop
      vertex -3.19531 0.173245 2.4
      vertex -3.99413 0.216556 0
      vertex -3.15784 0.517702 2.4
    endloop
  endfacet
  facet normal 0.943261 -0.102569 -0.315813
    outer loop
      vertex -3.99413 0.216556 0
      vertex -3.94731 0.647128 0
      vertex -3.15784 0.517702 2.4
    endloop
  endfacet
  facet normal 0.926641 -0.203955 -0.315814
    outer loop
      vertex -3.15784 0.517702 2.4
      vertex -3.94731 0.647128 0
      vertex -3.08336 0.856091 2.4
    endloop
  endfacet
  facet normal 0.926637 -0.203978 -0.31581
    outer loop
      vertex -3.94731 0.647128 0
      vertex -3.8542 1.07011 0
      vertex -3.08336 0.856091 2.4
    endloop
  endfacet
  facet normal 0.899158 -0.302951 -0.31581
    outer loop
      vertex -3.08336 0.856091 2.4
      vertex -3.8542 1.07011 0
      vertex -2.97273 1.18444 2.4
    endloop
  endfacet
  facet normal 0.899157 -0.302954 -0.31581
    outer loop
      vertex -3.8542 1.07011 0
      vertex -3.71591 1.48055 0
      vertex -2.97273 1.18444 2.4
    endloop
  endfacet
  facet normal 0.861127 -0.398402 -0.31581
    outer loop
      vertex -2.97273 1.18444 2.4
      vertex -3.71591 1.48055 0
      vertex -2.82724 1.49891 2.4
    endloop
  endfacet
  facet normal 0.861127 -0.398404 -0.315809
    outer loop
      vertex -3.71591 1.48055 0
      vertex -3.53405 1.87363 0
      vertex -2.82724 1.49891 2.4
    endloop
  endfacet
  facet normal 0.812997 -0.489184 -0.315809
    outer loop
      vertex -2.82724 1.49891 2.4
      vertex -3.53405 1.87363 0
      vertex -2.6486 1.7958 2.4
    endloop
  endfacet
  facet normal 0.81301 -0.48916 -0.315813
    outer loop
      vertex -3.53405 1.87363 0
      vertex -3.31076 2.24475 0
      vertex -2.6486 1.7958 2.4
    endloop
  endfacet
  facet normal 0.755361 -0.574188 -0.315813
    outer loop
      vertex -2.6486 1.7958 2.4
      vertex -3.31076 2.24475 0
      vertex -2.43892 2.07164 2.4
    endloop
  endfacet
  facet normal 0.755351 -0.574203 -0.315811
    outer loop
      vertex -3.31076 2.24475 0
      vertex -3.04865 2.58955 0
      vertex -2.43892 2.07164 2.4
    endloop
  endfacet
  facet normal 0.688842 -0.652503 -0.315811
    outer loop
      vertex -2.43892 2.07164 2.4
      vertex -3.04865 2.58955 0
      vertex -2.20064 2.32319 2.4
    endloop
  endfacet
  facet normal 0.688834 -0.652512 -0.315809
    outer loop
      vertex -3.04865 2.58955 0
      vertex -2.7508 2.90398 0
      vertex -2.20064 2.32319 2.4
    endloop
  endfacet
  facet normal 0.614252 -0.723159 -0.315809
    outer loop
      vertex -2.20064 2.32319 2.4
      vertex -2.7508 2.90398 0
      vertex -1.93656 2.5475 2.4
    endloop
  endfacet
  facet normal 0.614255 -0.723156 -0.315809
    outer loop
      vertex -2.7508 2.90398 0
      vertex -2.4207 3.18437 0
      vertex -1.93656 2.5475 2.4
    endloop
  endfacet
  facet normal 0.532451 -0.785341 -0.315809
    outer loop
      vertex -1.93656 2.5475 2.4
      vertex -2.4207 3.18437 0
      vertex -1.64977 2.74194 2.4
    endloop
  endfacet
  facet normal 0.532473 -0.785325 -0.315813
    outer loop
      vertex -2.4207 3.18437 0
      vertex -2.06222 3.42743 0
      vertex -1.64977 2.74194 2.4
    endloop
  endfacet
  facet normal 0.444448 -0.838289 -0.315813
    outer loop
      vertex -1.64977 2.74194 2.4
      vertex -2.06222 3.42743 0
      vertex -1.34365 2.90424 2.4
    endloop
  endfacet
  facet normal 0.44443 -0.838299 -0.31581
    outer loop
      vertex -2.06222 3.42743 0
      vertex -1.67956 3.6303 0
      vertex -1.34365 2.90424 2.4
    endloop
  endfacet
  facet normal 0.351189 -0.881437 -0.31581
    outer loop
      vertex -1.34365 2.90424 2.4
      vertex -1.67956 3.6303 0
      vertex -1.02176 3.03249 2.4
    endloop
  endfacet
  facet normal 0.351194 -0.881434 -0.315811
    outer loop
      vertex -1.67956 3.6303 0
      vertex -1.27721 3.79061 0
      vertex -1.02176 3.03249 2.4
    endloop
  endfacet
  facet normal 0.253851 -0.914234 -0.31581
    outer loop
      vertex -1.02176 3.03249 2.4
      vertex -1.27721 3.79061 0
      vertex -0.687905 3.12519 2.4
    endloop
  endfacet
  facet normal 0.253836 -0.914239 -0.315808
    outer loop
      vertex -1.27721 3.79061 0
      vertex -0.859882 3.90648 0
      vertex -0.687905 3.12519 2.4
    endloop
  endfacet
  facet normal 0.153488 -0.936326 -0.315808
    outer loop
      vertex -0.687905 3.12519 2.4
      vertex -0.859882 3.90648 0
      vertex -0.345981 3.18124 2.4
    endloop
  endfacet
  facet normal 0.153503 -0.936323 -0.31581
    outer loop
      vertex -0.859882 3.90648 0
      vertex -0.432476 3.97655 0
      vertex -0.345981 3.18124 2.4
    endloop
  endfacet
  facet normal 0.0513722 -0.947431 -0.31581
    outer loop
      vertex -0.345981 3.18124 2.4
      vertex -0.432476 3.97655 0
      vertex -2.25434e-15 3.2 2.4
    endloop
  endfacet
  facet normal 0.0513722 -0.947431 -0.31581
    outer loop
      vertex -0.432476 3.97655 0
      vertex 1.95943e-16 4 0
      vertex -2.25434e-15 3.2 2.4
    endloop
  endfacet
  facet normal -0.0513722 -0.947431 -0.31581
    outer loop
      vertex -2.25434e-15 3.2 2.4
      vertex 1.95943e-16 4 0
      vertex 0.345981 3.18124 2.4
    endloop
  endfacet
  facet normal -0.0513722 -0.947431 -0.31581
    outer loop
      vertex 1.95943e-16 4 0
      vertex 0.432476 3.97655 0
      vertex 0.345981 3.18124 2.4
    endloop
  endfacet
  facet normal 0 0 -1
    outer loop
      vertex 2.4207 3.18437 0
      vertex 2.90484 3.82125 0
      vertex 2.7508 2.90398 0
    endloop
  endfacet
  facet normal 0 -0 -1
    outer loop
      vertex 2.90484 3.82125 0
      vertex 3.30096 3.48478 0
      vertex 2.7508 2.90398 0
    endloop
  endfacet
  facet normal 0 0 -1
    outer loop
      vertex 2.7508 2.90398 0
      vertex 3.30096 3.48478 0
      vertex 3.04865 2.58955 0
    endloop
  endfacet
  facet normal 0 -0 -1
    outer loop
      vertex 3.30096 3.48478 0
      vertex 3.65838 3.10745 0
      vertex 3.04865 2.58955 0
    endloop
  endfacet
  facet normal 0 0 -1
    outer loop
      vertex 3.04865 2.58955 0
      vertex 3.65838 3.10745 0
      vertex 3.31076 2.24475 0
    endloop
  endfacet
  facet normal 0 -0 -1
    outer loop
      vertex 3.65838 3.10745 0
      vertex 3.97291 2.6937 0
      vertex 3.31076 2.24475 0
    endloop
  endfacet
  facet normal 0 0 -1
    outer loop
      vertex 3.31076 2.24475 0
      vertex 3.97291 2.6937 0
      vertex 3.53405 1.87363 0
    endloop
  endfacet
  facet normal 0 -0 -1
    outer loop
      vertex 3.97291 2.6937 0
      vertex 4.24086 2.24836 0
      vertex 3.53405 1.87363 0
    endloop
  endfacet
  facet normal 0 0 -1
    outer loop
      vertex 3.53405 1.87363 0
      vertex 4.24086 2.24836 0
      vertex 3.71591 1.48055 0
    endloop
  endfacet
  facet normal 0 -0 -1
    outer loop
      vertex 4.24086 2.24836 0
      vertex 4.45909 1.77666 0
      vertex 3.71591 1.48055 0
    endloop
  endfacet
  facet normal 0 0 -1
    outer loop
      vertex 3.71591 1.48055 0
      vertex 4.45909 1.77666 0
      vertex 3.8542 1.07011 0
    endloop
  endfacet
  facet normal 0 -0 -1
    outer loop
      vertex 4.45909 1.77666 0
      vertex 4.62504 1.28414 0
      vertex 3.8542 1.07011 0
    endloop
  endfacet
  facet normal 0 0 -1
    outer loop
      vertex 3.8542 1.07011 0
      vertex 4.62504 1.28414 0
      vertex 3.94731 0.647128 0
    endloop
  endfacet
  facet normal 0 -0 -1
    outer loop
      vertex 4.62504 1.28414 0
      vertex 4.73677 0.776554 0
      vertex 3.94731 0.647128 0
    endloop
  endfacet
  facet normal 0 0 -1
    outer loop
      vertex 3.94731 0.647128 0
      vertex 4.73677 0.776554 0
      vertex 3.99413 0.216556 0
    endloop
  endfacet
  facet normal 0 -0 -1
    outer loop
      vertex 4.73677 0.776554 0
      vertex 4.79296 0.259867 0
      vertex 3.99413 0.216556 0
    endloop
  endfacet
  facet normal 0 0 -1
    outer loop
      vertex 3.99413 0.216556 0
      vertex 4.79296 0.259867 0
      vertex 3.99413 -0.216556 0
    endloop
  endfacet
  facet normal 0 -0 -1
    outer loop
      vertex 4.79296 0.259867 0
      vertex 4.79296 -0.259867 0
      vertex 3.99413 -0.216556 0
    endloop
  endfacet
  facet normal 0 -0 -1
    outer loop
      vertex 3.99413 -0.216556 0
      vertex 4.79296 -0.259867 0
      vertex 3.94731 -0.647128 0
    endloop
  endfacet
  facet normal 0 0 -1
    outer loop
      vertex 4.79296 -0.259867 0
      vertex 4.73677 -0.776554 0
      vertex 3.94731 -0.647128 0
    endloop
  endfacet
  facet normal 0 -0 -1
    outer loop
      vertex 3.94731 -0.647128 0
      vertex 4.73677 -0.776554 0
      vertex 3.8542 -1.07011 0
    endloop
  endfacet
  facet normal 0 0 -1
    outer loop
      vertex 4.73677 -0.776554 0
      vertex 4.62504 -1.28414 0
      vertex 3.8542 -1.07011 0
    endloop
  endfacet
  facet normal 0 -0 -1
    outer loop
      vertex 3.8542 -1.07011 0
      vertex 4.62504 -1.28414 0
      vertex 3.71591 -1.48055 0
    endloop
  endfacet
  facet normal 0 0 -1
    outer loop
      vertex 4.62504 -1.28414 0
      vertex 4.45909 -1.77666 0
      vertex 3.71591 -1.48055 0
    endloop
  endfacet
  facet normal 0 -0 -1
    outer loop
      vertex 3.71591 -1.48055 0
      vertex 4.45909 -1.77666 0
      vertex 3.53405 -1.87363 0
    endloop
  endfacet
  facet normal 0 0 -1
    outer loop
      vertex 4.45909 -1.77666 0
      vertex 4.24086 -2.24836 0
      vertex 3.53405 -1.87363 0
    endloop
  endfacet
  facet normal 0 -0 -1
    outer loop
      vertex 3.53405 -1.87363 0
      vertex 4.24086 -2.24836 0
      vertex 3.31076 -2.24475 0
    endloop
  endfacet
  facet normal -0 0 -1
    outer loop
      vertex 4.24086 -2.24836 0
      vertex 3.97291 -2.6937 0
      vertex 3.31076 -2.24475 0
    endloop
  endfacet
  facet normal 0 -0 -1
    outer loop
      vertex 3.31076 -2.24475 0
      vertex 3.97291 -2.6937 0
      vertex 3.04865 -2.58955 0
    endloop
  endfacet
  facet normal -0 0 -1
    outer loop
      vertex 3.97291 -2.6937 0
      vertex 3.65838 -3.10745 0
      vertex 3.04865 -2.58955 0
    endloop
  endfacet
  facet normal 0 -0 -1
    outer loop
      vertex 3.04865 -2.58955 0
      vertex 3.65838 -3.10745 0
      vertex 2.7508 -2.90398 0
    endloop
  endfacet
  facet normal -0 0 -1
    outer loop
      vertex 3.65838 -3.10745 0
      vertex 3.30096 -3.48478 0
      vertex 2.7508 -2.90398 0
    endloop
  endfacet
  facet normal 0 -0 -1
    outer loop
      vertex 2.7508 -2.90398 0
      vertex 3.30096 -3.48478 0
      vertex 2.4207 -3.18437 0
    endloop
  endfacet
  facet normal -0 0 -1
    outer loop
      vertex 3.30096 -3.48478 0
      vertex 2.90484 -3.82125 0
      vertex 2.4207 -3.18437 0
    endloop
  endfacet
  facet normal 0 -0 -1
    outer loop
      vertex 2.4207 -3.18437 0
      vertex 2.90484 -3.82125 0
      vertex 2.06222 -3.42743 0
    endloop
  endfacet
  facet normal -0 0 -1
    outer loop
      vertex 2.90484 -3.82125 0
      vertex 2.47466 -4.11291 0
      vertex 2.06222 -3.42743 0
    endloop
  endfacet
  facet normal 0 -0 -1
    outer loop
      vertex 2.06222 -3.42743 0
      vertex 2.47466 -4.11291 0
      vertex 1.67956 -3.6303 0
    endloop
  endfacet
  facet normal -0 0 -1
    outer loop
      vertex 2.47466 -4.11291 0
      vertex 2.01547 -4.35636 0
      vertex 1.67956 -3.6303 0
    endloop
  endfacet
  facet normal 0 -0 -1
    outer loop
      vertex 1.67956 -3.6303 0
      vertex 2.01547 -4.35636 0
      vertex 1.27721 -3.79061 0
    endloop
  endfacet
  facet normal -0 0 -1
    outer loop
      vertex 2.01547 -4.35636 0
      vertex 1.53265 -4.54874 0
      vertex 1.27721 -3.79061 0
    endloop
  endfacet
  facet normal 0 -0 -1
    outer loop
      vertex 1.27721 -3.79061 0
      vertex 1.53265 -4.54874 0
      vertex 0.859882 -3.90648 0
    endloop
  endfacet
  facet normal -0 0 -1
    outer loop
      vertex 1.53265 -4.54874 0
      vertex 1.03186 -4.68778 0
      vertex 0.859882 -3.90648 0
    endloop
  endfacet
  facet normal 0 -0 -1
    outer loop
      vertex 0.859882 -3.90648 0
      vertex 1.03186 -4.68778 0
      vertex 0.432476 -3.97655 0
    endloop
  endfacet
  facet normal -0 0 -1
    outer loop
      vertex 1.03186 -4.68778 0
      vertex 0.518971 -4.77186 0
      vertex 0.432476 -3.97655 0
    endloop
  endfacet
  facet normal 0 -0 -1
    outer loop
      vertex 0.432476 -3.97655 0
      vertex 0.518971 -4.77186 0
      vertex 1.66552e-15 -4 0
    endloop
  endfacet
  facet normal -0 0 -1
    outer loop
      vertex 0.518971 -4.77186 0
      vertex 8.81746e-16 -4.8 0
      vertex 1.66552e-15 -4 0
    endloop
  endfacet
  facet normal -0 0 -1
    outer loop
      vertex 1.66552e-15 -4 0
      vertex 8.81746e-16 -4.8 0
      vertex -0.432476 -3.97655 0
    endloop
  endfacet
  facet normal 0 0 -1
    outer loop
      vertex 8.81746e-16 -4.8 0
      vertex -0.518971 -4.77186 0
      vertex -0.432476 -3.97655 0
    endloop
  endfacet
  facet normal -0 0 -1
    outer loop
      vertex -0.432476 -3.97655 0
      vertex -0.518971 -4.77186 0
      vertex -0.859882 -3.90648 0
    endloop
  endfacet
  facet normal 0 0 -1
    outer loop
      vertex -0.518971 -4.77186 0
      vertex -1.03186 -4.68778 0
      vertex -0.859882 -3.90648 0
    endloop
  endfacet
  facet normal -0 0 -1
    outer loop
      vertex -0.859882 -3.90648 0
      vertex -1.03186 -4.68778 0
      vertex -1.27721 -3.79061 0
    endloop
  endfacet
  facet normal 0 0 -1
    outer loop
      vertex -1.03186 -4.68778 0
      vertex -1.53265 -4.54874 0
      vertex -1.27721 -3.79061 0
    endloop
  endfacet
  facet normal -0 0 -1
    outer loop
      vertex -1.27721 -3.79061 0
      vertex -1.53265 -4.54874 0
      vertex -1.67956 -3.6303 0
    endloop
  endfacet
  facet normal 0 0 -1
    outer loop
      vertex -1.53265 -4.54874 0
      vertex -2.01547 -4.35636 0
      vertex -1.67956 -3.6303 0
    endloop
  endfacet
  facet normal -0 0 -1
    outer loop
      vertex -1.67956 -3.6303 0
      vertex -2.01547 -4.35636 0
      vertex -2.06222 -3.42743 0
    endloop
  endfacet
  facet normal 0 0 -1
    outer loop
      vertex -2.01547 -4.35636 0
      vertex -2.47466 -4.11291 0
      vertex -2.06222 -3.42743 0
    endloop
  endfacet
  facet normal -0 0 -1
    outer loop
      vertex -2.06222 -3.42743 0
      vertex -2.47466 -4.11291 0
      vertex -2.4207 -3.18437 0
    endloop
  endfacet
  facet normal 0 0 -1
    outer loop
      vertex -2.47466 -4.11291 0
      vertex -2.90484 -3.82125 0
      vertex -2.4207 -3.18437 0
    endloop
  endfacet
  facet normal -0 0 -1
    outer loop
      vertex -2.4207 -3.18437 0
      vertex -2.90484 -3.82125 0
      vertex -2.7508 -2.90398 0
    endloop
  endfacet
  facet normal 0 0 -1
    outer loop
      vertex -2.90484 -3.82125 0
      vertex -3.30096 -3.48478 0
      vertex -2.7508 -2.90398 0
    endloop
  endfacet
  facet normal -0 0 -1
    outer loop
      vertex -2.7508 -2.90398 0
      vertex -3.30096 -3.48478 0
      vertex -3.04865 -2.58955 0
    endloop
  endfacet
  facet normal 0 0 -1
    outer loop
      vertex -3.30096 -3.48478 0
      vertex -3.65838 -3.10745 0
      vertex -3.04865 -2.58955 0
    endloop
  endfacet
  facet normal -0 0 -1
    outer loop
      vertex -3.04865 -2.58955 0
      vertex -3.65838 -3.10745 0
      vertex -3.31076 -2.24475 0
    endloop
  endfacet
  facet normal 0 0 -1
    outer loop
      vertex -3.65838 -3.10745 0
      vertex -3.97291 -2.6937 0
      vertex -3.31076 -2.24475 0
    endloop
  endfacet
  facet normal -0 0 -1
    outer loop
      vertex -3.31076 -2.24475 0
      vertex -3.97291 -2.6937 0
      vertex -3.53405 -1.87363 0
    endloop
  endfacet
  facet normal 0 0 -1
    outer loop
      vertex -3.97291 -2.6937 0
      vertex -4.24086 -2.24836 0
      vertex -3.53405 -1.87363 0
    endloop
  endfacet
  facet normal -0 0 -1
    outer loop
      vertex -3.53405 -1.87363 0
      vertex -4.24086 -2.24836 0
      vertex -3.71591 -1.48055 0
    endloop
  endfacet
  facet normal 0 0 -1
    outer loop
      vertex -4.24086 -2.24836 0
      vertex -4.45909 -1.77666 0
      vertex -3.71591 -1.48055 0
    endloop
  endfacet
  facet normal -0 0 -1
    outer loop
      vertex -3.71591 -1.48055 0
      vertex -4.45909 -1.77666 0
      vertex -3.8542 -1.07011 0
    endloop
  endfacet
  facet normal 0 0 -1
    outer loop
      vertex -4.45909 -1.77666 0
      vertex -4.62504 -1.28414 0
      vertex -3.8542 -1.07011 0
    endloop
  endfacet
  facet normal -0 0 -1
    outer loop
      vertex -3.8542 -1.07011 0
      vertex -4.62504 -1.28414 0
      vertex -3.94731 -0.647128 0
    endloop
  endfacet
  facet normal 0 0 -1
    outer loop
      vertex -4.62504 -1.28414 0
      vertex -4.73677 -0.776554 0
      vertex -3.94731 -0.647128 0
    endloop
  endfacet
  facet normal -0 0 -1
    outer loop
      vertex -3.94731 -0.647128 0
      vertex -4.73677 -0.776554 0
      vertex -3.99413 -0.216556 0
    endloop
  endfacet
  facet normal 0 0 -1
    outer loop
      vertex -4.73677 -0.776554 0
      vertex -4.79296 -0.259867 0
      vertex -3.99413 -0.216556 0
    endloop
  endfacet
  facet normal -0 0 -1
    outer loop
      vertex -3.99413 -0.216556 0
      vertex -4.79296 -0.259867 0
      vertex -3.99413 0.216556 0
    endloop
  endfacet
  facet normal 0 0 -1
    outer loop
      vertex -4.79296 -0.259867 0
      vertex -4.79296 0.259867 0
      vertex -3.99413 0.216556 0
    endloop
  endfacet
  facet normal 0 0 -1
    outer loop
      vertex -3.99413 0.216556 0
      vertex -4.79296 0.259867 0
      vertex -3.94731 0.647128 0
    endloop
  endfacet
  facet normal 0 0 -1
    outer loop
      vertex -4.79296 0.259867 0
      vertex -4.73677 0.776554 0
      vertex -3.94731 0.647128 0
    endloop
  endfacet
  facet normal 0 0 -1
    outer loop
      vertex -3.94731 0.647128 0
      vertex -4.73677 0.776554 0
      vertex -3.8542 1.07011 0
    endloop
  endfacet
  facet normal 0 0 -1
    outer loop
      vertex -4.73677 0.776554 0
      vertex -4.62504 1.28414 0
      vertex -3.8542 1.07011 0
    endloop
  endfacet
  facet normal 0 0 -1
    outer loop
      vertex -3.8542 1.07011 0
      vertex -4.62504 1.28414 0
      vertex -3.71591 1.48055 0
    endloop
  endfacet
  facet normal 0 0 -1
    outer loop
      vertex -4.62504 1.28414 0
      vertex -4.45909 1.77666 0
      vertex -3.71591 1.48055 0
    endloop
  endfacet
  facet normal 0 0 -1
    outer loop
      vertex -3.71591 1.48055 0
      vertex -4.45909 1.77666 0
      vertex -3.53405 1.87363 0
    endloop
  endfacet
  facet normal 0 0 -1
    outer loop
      vertex -4.45909 1.77666 0
      vertex -4.24086 2.24836 0
      vertex -3.53405 1.87363 0
    endloop
  endfacet
  facet normal 0 0 -1
    outer loop
      vertex -3.53405 1.87363 0
      vertex -4.24086 2.24836 0
      vertex -3.31076 2.24475 0
    endloop
  endfacet
  facet normal 0 0 -1
    outer loop
      vertex -4.24086 2.24836 0
      vertex -3.97291 2.6937 0
      vertex -3.31076 2.24475 0
    endloop
  endfacet
  facet normal 0 0 -1
    outer loop
      vertex -3.31076 2.24475 0
      vertex -3.97291 2.6937 0
      vertex -3.04865 2.58955 0
    endloop
  endfacet
  facet normal 0 0 -1
    outer loop
      vertex -3.97291 2.6937 0
      vertex -3.65838 3.10745 0
      vertex -3.04865 2.58955 0
    endloop
  endfacet
  facet normal 0 0 -1
    outer loop
      vertex -3.04865 2.58955 0
      vertex -3.65838 3.10745 0
      vertex -2.7508 2.90398 0
    endloop
  endfacet
  facet normal 0 0 -1
    outer loop
      vertex -3.65838 3.10745 0
      vertex -3.30096 3.48478 0
      vertex -2.7508 2.90398 0
    endloop
  endfacet
  facet normal 0 0 -1
    outer loop
      vertex -2.7508 2.90398 0
      vertex -3.30096 3.48478 0
      vertex -2.4207 3.18437 0
    endloop
  endfacet
  facet normal 0 0 -1
    outer loop
      vertex -3.30096 3.48478 0
      vertex -2.90484 3.82125 0
      vertex -2.4207 3.18437 0
    endloop
  endfacet
  facet normal 0 0 -1
    outer loop
      vertex -2.4207 3.18437 0
      vertex -2.90484 3.82125 0
      vertex -2.06222 3.42743 0
    endloop
  endfacet
  facet normal 0 0 -1
    outer loop
      vertex -2.90484 3.82125 0
      vertex -2.47466 4.11291 0
      vertex -2.06222 3.42743 0
    endloop
  endfacet
  facet normal 0 0 -1
    outer loop
      vertex -2.06222 3.42743 0
      vertex -2.47466 4.11291 0
      vertex -1.67956 3.6303 0
    endloop
  endfacet
  facet normal 0 0 -1
    outer loop
      vertex -2.47466 4.11291 0
      vertex -2.01547 4.35636 0
      vertex -1.67956 3.6303 0
    endloop
  endfacet
  facet normal 0 0 -1
    outer loop
      vertex -1.67956 3.6303 0
      vertex -2.01547 4.35636 0
      vertex -1.27721 3.79061 0
    endloop
  endfacet
  facet normal 0 0 -1
    outer loop
      vertex -2.01547 4.35636 0
      vertex -1.53265 4.54874 0
      vertex -1.27721 3.79061 0
    endloop
  endfacet
  facet normal 0 0 -1
    outer loop
      vertex -1.27721 3.79061 0
      vertex -1.53265 4.54874 0
      vertex -0.859882 3.90648 0
    endloop
  endfacet
  facet normal 0 0 -1
    outer loop
      vertex -1.53265 4.54874 0
      vertex -1.03186 4.68778 0
      vertex -0.859882 3.90648 0
    endloop
  endfacet
  facet normal 0 0 -1
    outer loop
      vertex -0.859882 3.90648 0
      vertex -1.03186 4.68778 0
      vertex -0.432476 3.97655 0
    endloop
  endfacet
  facet normal 0 0 -1
    outer loop
      vertex -1.03186 4.68778 0
      vertex -0.518971 4.77186 0
      vertex -0.432476 3.97655 0
    endloop
  endfacet
  facet normal 0 0 -1
    outer loop
      vertex -0.432476 3.97655 0
      vertex -0.518971 4.77186 0
      vertex 1.95943e-16 4 0
    endloop
  endfacet
  facet normal 0 0 -1
    outer loop
      vertex -0.518971 4.77186 0
      vertex 2.93915e-16 4.8 0
      vertex 1.95943e-16 4 0
    endloop
  endfacet
  facet normal 0 0 -1
    outer loop
      vertex 1.95943e-16 4 0
      vertex 2.93915e-16 4.8 0
      vertex 0.432476 3.97655 0
    endloop
  endfacet
  facet normal 0 0 -1
    outer loop
      vertex 2.93915e-16 4.8 0
      vertex 0.518971 4.77186 0
      vertex 0.432476 3.97655 0
    endloop
  endfacet
  facet normal 0 0 -1
    outer loop
      vertex 0.432476 3.97655 0
      vertex 0.518971 4.77186 0
      vertex 0.859882 3.90648 0
    endloop
  endfacet
  facet normal 0 0 -1
    outer loop
      vertex 0.518971 4.77186 0
      vertex 1.03186 4.68778 0
      vertex 0.859882 3.90648 0
    endloop
  endfacet
  facet normal 0 0 -1
    outer loop
      vertex 0.859882 3.90648 0
      vertex 1.03186 4.68778 0
      vertex 1.27721 3.79061 0
    endloop
  endfacet
  facet normal 0 0 -1
    outer loop
      vertex 1.03186 4.68778 0
      vertex 1.53265 4.54874 0
      vertex 1.27721 3.79061 0
    endloop
  endfacet
  facet normal 0 0 -1
    outer loop
      vertex 1.27721 3.79061 0
      vertex 1.53265 4.54874 0
      vertex 1.67956 3.6303 0
    endloop
  endfacet
  facet normal 0 0 -1
    outer loop
      vertex 1.53265 4.54874 0
      vertex 2.01547 4.35636 0
      vertex 1.67956 3.6303 0
    endloop
  endfacet
  facet normal 0 0 -1
    outer loop
      vertex 1.67956 3.6303 0
      vertex 2.01547 4.35636 0
      vertex 2.06222 3.42743 0
    endloop
  endfacet
  facet normal 0 0 -1
    outer loop
      vertex 2.01547 4.35636 0
      vertex 2.47466 4.11291 0
      vertex 2.06222 3.42743 0
    endloop
  endfacet
  facet normal 0 0 -1
    outer loop
      vertex 2.06222 3.42743 0
      vertex 2.47466 4.11291 0
      vertex 2.4207 3.18437 0
    endloop
  endfacet
  facet normal 0 -0 -1
    outer loop
      vertex 2.47466 4.11291 0
      vertex 2.90484 3.82125 0
      vertex 2.4207 3.18437 0
    endloop
  endfacet
  facet normal 0.0541431 0.998533 0
    outer loop
      vertex 2.93915e-16 4.8 0
      vertex 0.518971 4.77186 4.8
      vertex 0.518971 4.77186 0
    endloop
  endfacet
  facet normal 0.161775 0.986828 0
    outer loop
      vertex 0.518971 4.77186 4.8
      vertex 1.03186 4.68778 4.8
      vertex 0.518971 4.77186 0
    endloop
  endfacet
  facet normal 0.161775 0.986828 0
    outer loop
      vertex 0.518971 4.77186 0
      vertex 1.03186 4.68778 4.8
      vertex 1.03186 4.68778 0
    endloop
  endfacet
  facet normal 0.267522 0.963552 0
    outer loop
      vertex 1.03186 4.68778 4.8
      vertex 1.53265 4.54874 4.8
      vertex 1.03186 4.68778 0
    endloop
  endfacet
  facet normal 0.267522 0.963552 0
    outer loop
      vertex 1.03186 4.68778 0
      vertex 1.53265 4.54874 4.8
      vertex 1.53265 4.54874 0
    endloop
  endfacet
  facet normal 0.37015 0.928972 0
    outer loop
      vertex 1.53265 4.54874 4.8
      vertex 2.01547 4.35636 4.8
      vertex 1.53265 4.54874 0
    endloop
  endfacet
  facet normal 0.37015 0.928972 0
    outer loop
      vertex 1.53265 4.54874 0
      vertex 2.01547 4.35636 4.8
      vertex 2.01547 4.35636 0
    endloop
  endfacet
  facet normal 0.468413 0.88351 0
    outer loop
      vertex 2.01547 4.35636 4.8
      vertex 2.47466 4.11291 4.8
      vertex 2.01547 4.35636 0
    endloop
  endfacet
  facet normal 0.468413 0.88351 0
    outer loop
      vertex 2.01547 4.35636 0
      vertex 2.47466 4.11291 4.8
      vertex 2.47466 4.11291 0
    endloop
  endfacet
  facet normal 0.561175 0.827697 0
    outer loop
      vertex 2.47466 4.11291 4.8
      vertex 2.90484 3.82125 4.8
      vertex 2.47466 4.11291 0
    endloop
  endfacet
  facet normal 0.561175 0.827697 0
    outer loop
      vertex 2.47466 4.11291 0
      vertex 2.90484 3.82125 4.8
      vertex 2.90484 3.82125 0
    endloop
  endfacet
  facet normal 0.647389 0.76216 0
    outer loop
      vertex 2.90484 3.82125 4.8
      vertex 3.30096 3.48478 4.8
      vertex 2.90484 3.82125 0
    endloop
  endfacet
  facet normal 0.647389 0.76216 0
    outer loop
      vertex 2.90484 3.82125 0
      vertex 3.30096 3.48478 4.8
      vertex 3.30096 3.48478 0
    endloop
  endfacet
  facet normal 0.726001 0.687693 0
    outer loop
      vertex 3.30096 3.48478 4.8
      vertex 3.65838 3.10745 4.8
      vertex 3.30096 3.48478 0
    endloop
  endfacet
  facet normal 0.726001 0.687693 0
    outer loop
      vertex 3.30096 3.48478 0
      vertex 3.65838 3.10745 4.8
      vertex 3.65838 3.10745 0
    endloop
  endfacet
  facet normal 0.796088 0.605181 0
    outer loop
      vertex 3.65838 3.10745 4.8
      vertex 3.97291 2.6937 4.8
      vertex 3.65838 3.10745 0
    endloop
  endfacet
  facet normal 0.796088 0.605181 0
    outer loop
      vertex 3.65838 3.10745 0
      vertex 3.97291 2.6937 4.8
      vertex 3.97291 2.6937 0
    endloop
  endfacet
  facet normal 0.856859 0.515551 0
    outer loop
      vertex 3.97291 2.6937 4.8
      vertex 4.24086 2.24836 4.8
      vertex 3.97291 2.6937 0
    endloop
  endfacet
  facet normal 0.856859 0.515551 0
    outer loop
      vertex 3.97291 2.6937 0
      vertex 4.24086 2.24836 4.8
      vertex 4.24086 2.24836 0
    endloop
  endfacet
  facet normal 0.907577 0.419886 0
    outer loop
      vertex 4.24086 2.24836 4.8
      vertex 4.45909 1.77666 4.8
      vertex 4.24086 2.24836 0
    endloop
  endfacet
  facet normal 0.907577 0.419886 0
    outer loop
      vertex 4.24086 2.24836 0
      vertex 4.45909 1.77666 4.8
      vertex 4.45909 1.77666 0
    endloop
  endfacet
  facet normal 0.947653 0.319303 0
    outer loop
      vertex 4.45909 1.77666 4.8
      vertex 4.62504 1.28414 4.8
      vertex 4.45909 1.77666 0
    endloop
  endfacet
  facet normal 0.947653 0.319303 0
    outer loop
      vertex 4.45909 1.77666 0
      vertex 4.62504 1.28414 4.8
      vertex 4.62504 1.28414 0
    endloop
  endfacet
  facet normal 0.97662 0.214974 0
    outer loop
      vertex 4.62504 1.28414 4.8
      vertex 4.73677 0.776554 4.8
      vertex 4.62504 1.28414 0
    endloop
  endfacet
  facet normal 0.97662 0.214974 0
    outer loop
      vertex 4.62504 1.28414 0
      vertex 4.73677 0.776554 4.8
      vertex 4.73677 0.776554 0
    endloop
  endfacet
  facet normal 0.994139 0.108113 0
    outer loop
      vertex 4.73677 0.776554 4.8
      vertex 4.79296 0.259867 4.8
      vertex 4.73677 0.776554 0
    endloop
  endfacet
  facet normal 0.994139 0.108113 0
    outer loop
      vertex 4.73677 0.776554 0
      vertex 4.79296 0.259867 4.8
      vertex 4.79296 0.259867 0
    endloop
  endfacet
  facet normal 1 0 0
    outer loop
      vertex 4.79296 0.259867 4.8
      vertex 4.79296 -0.259867 4.8
      vertex 4.79296 0.259867 0
    endloop
  endfacet
  facet normal 1 0 0
    outer loop
      vertex 4.79296 0.259867 0
      vertex 4.79296 -0.259867 4.8
      vertex 4.79296 -0.259867 0
    endloop
  endfacet
  facet normal 0.994139 -0.108113 0
    outer loop
      vertex 4.79296 -0.259867 4.8
      vertex 4.73677 -0.776554 4.8
      vertex 4.79296 -0.259867 0
    endloop
  endfacet
  facet normal 0.994139 -0.108113 0
    outer loop
      vertex 4.79296 -0.259867 0
      vertex 4.73677 -0.776554 4.8
      vertex 4.73677 -0.776554 0
    endloop
  endfacet
  facet normal 0.97662 -0.214974 0
    outer loop
      vertex 4.73677 -0.776554 4.8
      vertex 4.62504 -1.28414 4.8
      vertex 4.73677 -0.776554 0
    endloop
  endfacet
  facet normal 0.97662 -0.214974 0
    outer loop
      vertex 4.73677 -0.776554 0
      vertex 4.62504 -1.28414 4.8
      vertex 4.62504 -1.28414 0
    endloop
  endfacet
  facet normal 0.947653 -0.319303 0
    outer loop
      vertex 4.62504 -1.28414 4.8
      vertex 4.45909 -1.77666 4.8
      vertex 4.62504 -1.28414 0
    endloop
  endfacet
  facet normal 0.947653 -0.319303 0
    outer loop
      vertex 4.62504 -1.28414 0
      vertex 4.45909 -1.77666 4.8
      vertex 4.45909 -1.77666 0
    endloop
  endfacet
  facet normal 0.907577 -0.419886 0
    outer loop
      vertex 4.45909 -1.77666 4.8
      vertex 4.24086 -2.24836 4.8
      vertex 4.45909 -1.77666 0
    endloop
  endfacet
  facet normal 0.907577 -0.419886 0
    outer loop
      vertex 4.45909 -1.77666 0
      vertex 4.24086 -2.24836 4.8
      vertex 4.24086 -2.24836 0
    endloop
  endfacet
  facet normal 0.856859 -0.515551 0
    outer loop
      vertex 4.24086 -2.24836 4.8
      vertex 3.97291 -2.6937 4.8
      vertex 4.24086 -2.24836 0
    endloop
  endfacet
  facet normal 0.856859 -0.515551 0
    outer loop
      vertex 4.24086 -2.24836 0
      vertex 3.97291 -2.6937 4.8
      vertex 3.97291 -2.6937 0
    endloop
  endfacet
  facet normal 0.796088 -0.605181 0
    outer loop
      vertex 3.97291 -2.6937 4.8
      vertex 3.65838 -3.10745 4.8
      vertex 3.97291 -2.6937 0
    endloop
  endfacet
  facet normal 0.796088 -0.605181 0
    outer loop
      vertex 3.97291 -2.6937 0
      vertex 3.65838 -3.10745 4.8
      vertex 3.65838 -3.10745 0
    endloop
  endfacet
  facet normal 0.726001 -0.687693 0
    outer loop
      vertex 3.65838 -3.10745 4.8
      vertex 3.30096 -3.48478 4.8
      vertex 3.65838 -3.10745 0
    endloop
  endfacet
  facet normal 0.726001 -0.687693 0
    outer loop
      vertex 3.65838 -3.10745 0
      vertex 3.30096 -3.48478 4.8
      vertex 3.30096 -3.48478 0
    endloop
  endfacet
  facet normal 0.647389 -0.76216 0
    outer loop
      vertex 3.30096 -3.48478 4.8
      vertex 2.90484 -3.82125 4.8
      vertex 3.30096 -3.48478 0
    endloop
  endfacet
  facet normal 0.647389 -0.76216 0
    outer loop
      vertex 3.30096 -3.48478 0
      vertex 2.90484 -3.82125 4.8
      vertex 2.90484 -3.82125 0
    endloop
  endfacet
  facet normal 0.561175 -0.827697 0
    outer loop
      vertex 2.90484 -3.82125 4.8
      vertex 2.47466 -4.11291 4.8
      vertex 2.90484 -3.82125 0
    endloop
  endfacet
  facet normal 0.561175 -0.827697 0
    outer loop
      vertex 2.90484 -3.82125 0
      vertex 2.47466 -4.11291 4.8
      vertex 2.47466 -4.11291 0
    endloop
  endfacet
  facet normal 0.468413 -0.88351 0
    outer loop
      vertex 2.47466 -4.11291 4.8
      vertex 2.01547 -4.35636 4.8
      vertex 2.47466 -4.11291 0
    endloop
  endfacet
  facet normal 0.468413 -0.88351 0
    outer loop
      vertex 2.47466 -4.11291 0
      vertex 2.01547 -4.35636 4.8
      vertex 2.01547 -4.35636 0
    endloop
  endfacet
  facet normal 0.37015 -0.928972 0
    outer loop
      vertex 2.01547 -4.35636 4.8
      vertex 1.53265 -4.54874 4.8
      vertex 2.01547 -4.35636 0
    endloop
  endfacet
  facet normal 0.37015 -0.928972 0
    outer loop
      vertex 2.01547 -4.35636 0
      vertex 1.53265 -4.54874 4.8
      vertex 1.53265 -4.54874 0
    endloop
  endfacet
  facet normal 0.267522 -0.963552 0
    outer loop
      vertex 1.53265 -4.54874 4.8
      vertex 1.03186 -4.68778 4.8
      vertex 1.53265 -4.54874 0
    endloop
  endfacet
  facet normal 0.267522 -0.963552 0
    outer loop
      vertex 1.53265 -4.54874 0
      vertex 1.03186 -4.68778 4.8
      vertex 1.03186 -4.68778 0
    endloop
  endfacet
  facet normal 0.161775 -0.986828 0
    outer loop
      vertex 1.03186 -4.68778 4.8
      vertex 0.518971 -4.77186 4.8
      vertex 1.03186 -4.68778 0
    endloop
  endfacet
  facet normal 0.161775 -0.986828 0
    outer loop
      vertex 1.03186 -4.68778 0
      vertex 0.518971 -4.77186 4.8
      vertex 0.518971 -4.77186 0
    endloop
  endfacet
  facet normal 0.0541431 -0.998533 0
    outer loop
      vertex 0.518971 -4.77186 4.8
      vertex 2.05741e-15 -4.8 4.8
      vertex 0.518971 -4.77186 0
    endloop
  endfacet
  facet normal 0.0541431 -0.998533 -1.32118e-17
    outer loop
      vertex 0.518971 -4.77186 0
      vertex 2.05741e-15 -4.8 4.8
      vertex 8.81746e-16 -4.8 0
    endloop
  endfacet
  facet normal -0.0541431 -0.998533 1.32613e-17
    outer loop
      vertex 2.05741e-15 -4.8 4.8
      vertex -0.518971 -4.77186 4.8
      vertex 8.81746e-16 -4.8 0
    endloop
  endfacet
  facet normal -0.0541431 -0.998533 0
    outer loop
      vertex 8.81746e-16 -4.8 0
      vertex -0.518971 -4.77186 4.8
      vertex -0.518971 -4.77186 0
    endloop
  endfacet
  facet normal -0.161775 -0.986828 -0
    outer loop
      vertex -0.518971 -4.77186 4.8
      vertex -1.03186 -4.68778 4.8
      vertex -0.518971 -4.77186 0
    endloop
  endfacet
  facet normal -0.161775 -0.986828 0
    outer loop
      vertex -0.518971 -4.77186 0
      vertex -1.03186 -4.68778 4.8
      vertex -1.03186 -4.68778 0
    endloop
  endfacet
  facet normal -0.267522 -0.963552 -0
    outer loop
      vertex -1.03186 -4.68778 4.8
      vertex -1.53265 -4.54874 4.8
      vertex -1.03186 -4.68778 0
    endloop
  endfacet
  facet normal -0.267522 -0.963552 0
    outer loop
      vertex -1.03186 -4.68778 0
      vertex -1.53265 -4.54874 4.8
      vertex -1.53265 -4.54874 0
    endloop
  endfacet
  facet normal -0.37015 -0.928972 -0
    outer loop
      vertex -1.53265 -4.54874 4.8
      vertex -2.01547 -4.35636 4.8
      vertex -1.53265 -4.54874 0
    endloop
  endfacet
  facet normal -0.37015 -0.928972 0
    outer loop
      vertex -1.53265 -4.54874 0
      vertex -2.01547 -4.35636 4.8
      vertex -2.01547 -4.35636 0
    endloop
  endfacet
  facet normal -0.468413 -0.88351 -0
    outer loop
      vertex -2.01547 -4.35636 4.8
      vertex -2.47466 -4.11291 4.8
      vertex -2.01547 -4.35636 0
    endloop
  endfacet
  facet normal -0.468413 -0.88351 0
    outer loop
      vertex -2.01547 -4.35636 0
      vertex -2.47466 -4.11291 4.8
      vertex -2.47466 -4.11291 0
    endloop
  endfacet
  facet normal -0.561175 -0.827697 -0
    outer loop
      vertex -2.47466 -4.11291 4.8
      vertex -2.90484 -3.82125 4.8
      vertex -2.47466 -4.11291 0
    endloop
  endfacet
  facet normal -0.561175 -0.827697 0
    outer loop
      vertex -2.47466 -4.11291 0
      vertex -2.90484 -3.82125 4.8
      vertex -2.90484 -3.82125 0
    endloop
  endfacet
  facet normal -0.647389 -0.76216 -0
    outer loop
      vertex -2.90484 -3.82125 4.8
      vertex -3.30096 -3.48478 4.8
      vertex -2.90484 -3.82125 0
    endloop
  endfacet
  facet normal -0.647389 -0.76216 0
    outer loop
      vertex -2.90484 -3.82125 0
      vertex -3.30096 -3.48478 4.8
      vertex -3.30096 -3.48478 0
    endloop
  endfacet
  facet normal -0.726001 -0.687693 -0
    outer loop
      vertex -3.30096 -3.48478 4.8
      vertex -3.65838 -3.10745 4.8
      vertex -3.30096 -3.48478 0
    endloop
  endfacet
  facet normal -0.726001 -0.687693 0
    outer loop
      vertex -3.30096 -3.48478 0
      vertex -3.65838 -3.10745 4.8
      vertex -3.65838 -3.10745 0
    endloop
  endfacet
  facet normal -0.796088 -0.605181 -0
    outer loop
      vertex -3.65838 -3.10745 4.8
      vertex -3.97291 -2.6937 4.8
      vertex -3.65838 -3.10745 0
    endloop
  endfacet
  facet normal -0.796088 -0.605181 0
    outer loop
      vertex -3.65838 -3.10745 0
      vertex -3.97291 -2.6937 4.8
      vertex -3.97291 -2.6937 0
    endloop
  endfacet
  facet normal -0.856859 -0.515551 -0
    outer loop
      vertex -3.97291 -2.6937 4.8
      vertex -4.24086 -2.24836 4.8
      vertex -3.97291 -2.6937 0
    endloop
  endfacet
  facet normal -0.856859 -0.515551 0
    outer loop
      vertex -3.97291 -2.6937 0
      vertex -4.24086 -2.24836 4.8
      vertex -4.24086 -2.24836 0
    endloop
  endfacet
  facet normal -0.907577 -0.419886 -0
    outer loop
      vertex -4.24086 -2.24836 4.8
      vertex -4.45909 -1.77666 4.8
      vertex -4.24086 -2.24836 0
    endloop
  endfacet
  facet normal -0.907577 -0.419886 0
    outer loop
      vertex -4.24086 -2.24836 0
      vertex -4.45909 -1.77666 4.8
      vertex -4.45909 -1.77666 0
    endloop
  endfacet
  facet normal -0.947653 -0.319303 -0
    outer loop
      vertex -4.45909 -1.77666 4.8
      vertex -4.62504 -1.28414 4.8
      vertex -4.45909 -1.77666 0
    endloop
  endfacet
  facet normal -0.947653 -0.319303 0
    outer loop
      vertex -4.45909 -1.77666 0
      vertex -4.62504 -1.28414 4.8
      vertex -4.62504 -1.28414 0
    endloop
  endfacet
  facet normal -0.97662 -0.214974 -0
    outer loop
      vertex -4.62504 -1.28414 4.8
      vertex -4.73677 -0.776554 4.8
      vertex -4.62504 -1.28414 0
    endloop
  endfacet
  facet normal -0.97662 -0.214974 0
    outer loop
      vertex -4.62504 -1.28414 0
      vertex -4.73677 -0.776554 4.8
      vertex -4.73677 -0.776554 0
    endloop
  endfacet
  facet normal -0.994139 -0.108113 -0
    outer loop
      vertex -4.73677 -0.776554 4.8
      vertex -4.79296 -0.259867 4.8
      vertex -4.73677 -0.776554 0
    endloop
  endfacet
  facet normal -0.994139 -0.108113 0
    outer loop
      vertex -4.73677 -0.776554 0
      vertex -4.79296 -0.259867 4.8
      vertex -4.79296 -0.259867 0
    endloop
  endfacet
  facet normal -1 0 0
    outer loop
      vertex -4.79296 -0.259867 4.8
      vertex -4.79296 0.259867 4.8
      vertex -4.79296 -0.259867 0
    endloop
  endfacet
  facet normal -1 0 0
    outer loop
      vertex -4.79296 -0.259867 0
      vertex -4.79296 0.259867 4.8
      vertex -4.79296 0.259867 0
    endloop
  endfacet
  facet normal -0.994139 0.108113 0
    outer loop
      vertex -4.79296 0.259867 4.8
      vertex -4.73677 0.776554 4.8
      vertex -4.79296 0.259867 0
    endloop
  endfacet
  facet normal -0.994139 0.108113 0
    outer loop
      vertex -4.79296 0.259867 0
      vertex -4.73677 0.776554 4.8
      vertex -4.73677 0.776554 0
    endloop
  endfacet
  facet normal -0.97662 0.214974 0
    outer loop
      vertex -4.73677 0.776554 4.8
      vertex -4.62504 1.28414 4.8
      vertex -4.73677 0.776554 0
    endloop
  endfacet
  facet normal -0.97662 0.214974 0
    outer loop
      vertex -4.73677 0.776554 0
      vertex -4.62504 1.28414 4.8
      vertex -4.62504 1.28414 0
    endloop
  endfacet
  facet normal -0.947653 0.319303 0
    outer loop
      vertex -4.62504 1.28414 4.8
      vertex -4.45909 1.77666 4.8
      vertex -4.62504 1.28414 0
    endloop
  endfacet
  facet normal -0.947653 0.319303 0
    outer loop
      vertex -4.62504 1.28414 0
      vertex -4.45909 1.77666 4.8
      vertex -4.45909 1.77666 0
    endloop
  endfacet
  facet normal -0.907577 0.419886 0
    outer loop
      vertex -4.45909 1.77666 4.8
      vertex -4.24086 2.24836 4.8
      vertex -4.45909 1.77666 0
    endloop
  endfacet
  facet normal -0.907577 0.419886 0
    outer loop
      vertex -4.45909 1.77666 0
      vertex -4.24086 2.24836 4.8
      vertex -4.24086 2.24836 0
    endloop
  endfacet
  facet normal -0.856859 0.515551 0
    outer loop
      vertex -4.24086 2.24836 4.8
      vertex -3.97291 2.6937 4.8
      vertex -4.24086 2.24836 0
    endloop
  endfacet
  facet normal -0.856859 0.515551 0
    outer loop
      vertex -4.24086 2.24836 0
      vertex -3.97291 2.6937 4.8
      vertex -3.97291 2.6937 0
    endloop
  endfacet
  facet normal -0.796088 0.605181 0
    outer loop
      vertex -3.97291 2.6937 4.8
      vertex -3.65838 3.10745 4.8
      vertex -3.97291 2.6937 0
    endloop
  endfacet
  facet normal -0.796088 0.605181 0
    outer loop
      vertex -3.97291 2.6937 0
      vertex -3.65838 3.10745 4.8
      vertex -3.65838 3.10745 0
    endloop
  endfacet
  facet normal -0.726001 0.687693 0
    outer loop
      vertex -3.65838 3.10745 4.8
      vertex -3.30096 3.48478 4.8
      vertex -3.65838 3.10745 0
    endloop
  endfacet
  facet normal -0.726001 0.687693 0
    outer loop
      vertex -3.65838 3.10745 0
      vertex -3.30096 3.48478 4.8
      vertex -3.30096 3.48478 0
    endloop
  endfacet
  facet normal -0.647389 0.76216 0
    outer loop
      vertex -3.30096 3.48478 4.8
      vertex -2.90484 3.82125 4.8
      vertex -3.30096 3.48478 0
    endloop
  endfacet
  facet normal -0.647389 0.76216 0
    outer loop
      vertex -3.30096 3.48478 0
      vertex -2.90484 3.82125 4.8
      vertex -2.90484 3.82125 0
    endloop
  endfacet
  facet normal -0.561175 0.827697 0
    outer loop
      vertex -2.90484 3.82125 4.8
      vertex -2.47466 4.11291 4.8
      vertex -2.90484 3.82125 0
    endloop
  endfacet
  facet normal -0.561175 0.827697 0
    outer loop
      vertex -2.90484 3.82125 0
      vertex -2.47466 4.11291 4.8
      vertex -2.47466 4.11291 0
    endloop
  endfacet
  facet normal -0.468413 0.88351 0
    outer loop
      vertex -2.47466 4.11291 4.8
      vertex -2.01547 4.35636 4.8
      vertex -2.47466 4.11291 0
    endloop
  endfacet
  facet normal -0.468413 0.88351 0
    outer loop
      vertex -2.47466 4.11291 0
      vertex -2.01547 4.35636 4.8
      vertex -2.01547 4.35636 0
    endloop
  endfacet
  facet normal -0.37015 0.928972 0
    outer loop
      vertex -2.01547 4.35636 4.8
      vertex -1.53265 4.54874 4.8
      vertex -2.01547 4.35636 0
    endloop
  endfacet
  facet normal -0.37015 0.928972 0
    outer loop
      vertex -2.01547 4.35636 0
      vertex -1.53265 4.54874 4.8
      vertex -1.53265 4.54874 0
    endloop
  endfacet
  facet normal -0.267522 0.963552 0
    outer loop
      vertex -1.53265 4.54874 4.8
      vertex -1.03186 4.68778 4.8
      vertex -1.53265 4.54874 0
    endloop
  endfacet
  facet normal -0.267522 0.963552 0
    outer loop
      vertex -1.53265 4.54874 0
      vertex -1.03186 4.68778 4.8
      vertex -1.03186 4.68778 0
    endloop
  endfacet
  facet normal -0.161775 0.986828 0
    outer loop
      vertex -1.03186 4.68778 4.8
      vertex -0.518971 4.77186 4.8
      vertex -1.03186 4.68778 0
    endloop
  endfacet
  facet normal -0.161775 0.986828 0
    outer loop
      vertex -1.03186 4.68778 0
      vertex -0.518971 4.77186 4.8
      vertex -0.518971 4.77186 0
    endloop
  endfacet
  facet normal -0.0541431 0.998533 0
    outer loop
      vertex -0.518971 4.77186 4.8
      vertex 2.93915e-16 4.8 4.8
      vertex -0.518971 4.77186 0
    endloop
  endfacet
  facet normal -0.0541431 0.998533 0
    outer loop
      vertex -0.518971 4.77186 0
      vertex 2.93915e-16 4.8 4.8
      vertex 2.93915e-16 4.8 0
    endloop
  endfacet
  facet normal 0.0541431 0.998533 0
    outer loop
      vertex 2.93915e-16 4.8 4.8
      vertex 0.518971 4.77186 4.8
      vertex 2.93915e-16 4.8 0
    endloop
  endfacet
  facet normal -0.153487 0.936325 0.31581
    outer loop
      vertex 0.345981 -3.18124 2.4
      vertex 0.432476 -3.97655 4.8
      vertex 0.687905 -3.12519 2.4
    endloop
  endfacet
  facet normal -0.153503 0.936324 0.315808
    outer loop
      vertex 0.432476 -3.97655 4.8
      vertex 0.859882 -3.90648 4.8
      vertex 0.687905 -3.12519 2.4
    endloop
  endfacet
  facet normal -0.253851 0.914235 0.315808
    outer loop
      vertex 0.687905 -3.12519 2.4
      vertex 0.859882 -3.90648 4.8
      vertex 1.02176 -3.03249 2.4
    endloop
  endfacet
  facet normal -0.253836 0.914238 0.31581
    outer loop
      vertex 0.859882 -3.90648 4.8
      vertex 1.27721 -3.79061 4.8
      vertex 1.02176 -3.03249 2.4
    endloop
  endfacet
  facet normal -0.351189 0.881436 0.315811
    outer loop
      vertex 1.02176 -3.03249 2.4
      vertex 1.27721 -3.79061 4.8
      vertex 1.34365 -2.90424 2.4
    endloop
  endfacet
  facet normal -0.351194 0.881435 0.31581
    outer loop
      vertex 1.27721 -3.79061 4.8
      vertex 1.67956 -3.6303 4.8
      vertex 1.34365 -2.90424 2.4
    endloop
  endfacet
  facet normal -0.444448 0.83829 0.31581
    outer loop
      vertex 1.34365 -2.90424 2.4
      vertex 1.67956 -3.6303 4.8
      vertex 1.64977 -2.74194 2.4
    endloop
  endfacet
  facet normal -0.44443 0.838298 0.315813
    outer loop
      vertex 1.67956 -3.6303 4.8
      vertex 2.06222 -3.42743 4.8
      vertex 1.64977 -2.74194 2.4
    endloop
  endfacet
  facet normal -0.53245 0.78534 0.315813
    outer loop
      vertex 1.64977 -2.74194 2.4
      vertex 2.06222 -3.42743 4.8
      vertex 1.93656 -2.5475 2.4
    endloop
  endfacet
  facet normal -0.532474 0.785326 0.315809
    outer loop
      vertex 2.06222 -3.42743 4.8
      vertex 2.4207 -3.18437 4.8
      vertex 1.93656 -2.5475 2.4
    endloop
  endfacet
  facet normal -0.614252 0.723159 0.315809
    outer loop
      vertex 1.93656 -2.5475 2.4
      vertex 2.4207 -3.18437 4.8
      vertex 2.20064 -2.32319 2.4
    endloop
  endfacet
  facet normal -0.614256 0.723156 0.315809
    outer loop
      vertex 2.4207 -3.18437 4.8
      vertex 2.7508 -2.90398 4.8
      vertex 2.20064 -2.32319 2.4
    endloop
  endfacet
  facet normal -0.688842 0.652504 0.315809
    outer loop
      vertex 2.20064 -2.32319 2.4
      vertex 2.7508 -2.90398 4.8
      vertex 2.43892 -2.07164 2.4
    endloop
  endfacet
  facet normal -0.688834 0.652512 0.31581
    outer loop
      vertex 2.7508 -2.90398 4.8
      vertex 3.04865 -2.58955 4.8
      vertex 2.43892 -2.07164 2.4
    endloop
  endfacet
  facet normal -0.755362 0.574189 0.31581
    outer loop
      vertex 2.43892 -2.07164 2.4
      vertex 3.04865 -2.58955 4.8
      vertex 2.6486 -1.7958 2.4
    endloop
  endfacet
  facet normal -0.75535 0.574202 0.315813
    outer loop
      vertex 3.04865 -2.58955 4.8
      vertex 3.31076 -2.24475 4.8
      vertex 2.6486 -1.7958 2.4
    endloop
  endfacet
  facet normal -0.812996 0.489183 0.315813
    outer loop
      vertex 2.6486 -1.7958 2.4
      vertex 3.31076 -2.24475 4.8
      vertex 2.82724 -1.49891 2.4
    endloop
  endfacet
  facet normal -0.813011 0.48916 0.315809
    outer loop
      vertex 3.31076 -2.24475 4.8
      vertex 3.53405 -1.87363 4.8
      vertex 2.82724 -1.49891 2.4
    endloop
  endfacet
  facet normal -0.861127 0.398402 0.315809
    outer loop
      vertex 2.82724 -1.49891 2.4
      vertex 3.53405 -1.87363 4.8
      vertex 2.97273 -1.18444 2.4
    endloop
  endfacet
  facet normal -0.861127 0.398404 0.31581
    outer loop
      vertex 3.53405 -1.87363 4.8
      vertex 3.71591 -1.48055 4.8
      vertex 2.97273 -1.18444 2.4
    endloop
  endfacet
  facet normal -0.899158 0.302952 0.31581
    outer loop
      vertex 2.97273 -1.18444 2.4
      vertex 3.71591 -1.48055 4.8
      vertex 3.08336 -0.856091 2.4
    endloop
  endfacet
  facet normal -0.899157 0.302954 0.31581
    outer loop
      vertex 3.71591 -1.48055 4.8
      vertex 3.8542 -1.07011 4.8
      vertex 3.08336 -0.856091 2.4
    endloop
  endfacet
  facet normal -0.926642 0.203956 0.31581
    outer loop
      vertex 3.08336 -0.856091 2.4
      vertex 3.8542 -1.07011 4.8
      vertex 3.15784 -0.517702 2.4
    endloop
  endfacet
  facet normal -0.926636 0.203978 0.315813
    outer loop
      vertex 3.8542 -1.07011 4.8
      vertex 3.94731 -0.647128 4.8
      vertex 3.15784 -0.517702 2.4
    endloop
  endfacet
  facet normal -0.943257 0.102607 0.315814
    outer loop
      vertex 3.15784 -0.517702 2.4
      vertex 3.94731 -0.647128 4.8
      vertex 3.19531 -0.173245 2.4
    endloop
  endfacet
  facet normal -0.943263 0.10257 0.315808
    outer loop
      vertex 3.94731 -0.647128 4.8
      vertex 3.99413 -0.216556 4.8
      vertex 3.19531 -0.173245 2.4
    endloop
  endfacet
  facet normal -0.948823 0 0.315808
    outer loop
      vertex 3.19531 -0.173245 2.4
      vertex 3.99413 -0.216556 4.8
      vertex 3.19531 0.173245 2.4
    endloop
  endfacet
  facet normal -0.948823 0 0.315808
    outer loop
      vertex 3.99413 -0.216556 4.8
      vertex 3.99413 0.216556 4.8
      vertex 3.19531 0.173245 2.4
    endloop
  endfacet
  facet normal -0.943259 -0.102608 0.315808
    outer loop
      vertex 3.19531 0.173245 2.4
      vertex 3.99413 0.216556 4.8
      vertex 3.15784 0.517702 2.4
    endloop
  endfacet
  facet normal -0.943261 -0.102569 0.315813
    outer loop
      vertex 3.99413 0.216556 4.8
      vertex 3.94731 0.647128 4.8
      vertex 3.15784 0.517702 2.4
    endloop
  endfacet
  facet normal -0.926641 -0.203955 0.315814
    outer loop
      vertex 3.15784 0.517702 2.4
      vertex 3.94731 0.647128 4.8
      vertex 3.08336 0.856091 2.4
    endloop
  endfacet
  facet normal -0.926637 -0.203978 0.31581
    outer loop
      vertex 3.94731 0.647128 4.8
      vertex 3.8542 1.07011 4.8
      vertex 3.08336 0.856091 2.4
    endloop
  endfacet
  facet normal -0.899158 -0.302951 0.31581
    outer loop
      vertex 3.08336 0.856091 2.4
      vertex 3.8542 1.07011 4.8
      vertex 2.97273 1.18444 2.4
    endloop
  endfacet
  facet normal -0.899157 -0.302954 0.31581
    outer loop
      vertex 3.8542 1.07011 4.8
      vertex 3.71591 1.48055 4.8
      vertex 2.97273 1.18444 2.4
    endloop
  endfacet
  facet normal -0.861127 -0.398402 0.31581
    outer loop
      vertex 2.97273 1.18444 2.4
      vertex 3.71591 1.48055 4.8
      vertex 2.82724 1.49891 2.4
    endloop
  endfacet
  facet normal -0.861127 -0.398404 0.315809
    outer loop
      vertex 3.71591 1.48055 4.8
      vertex 3.53405 1.87363 4.8
      vertex 2.82724 1.49891 2.4
    endloop
  endfacet
  facet normal -0.812997 -0.489184 0.315809
    outer loop
      vertex 2.82724 1.49891 2.4
      vertex 3.53405 1.87363 4.8
      vertex 2.6486 1.7958 2.4
    endloop
  endfacet
  facet normal -0.81301 -0.48916 0.315813
    outer loop
      vertex 3.53405 1.87363 4.8
      vertex 3.31076 2.24475 4.8
      vertex 2.6486 1.7958 2.4
    endloop
  endfacet
  facet normal -0.755361 -0.574188 0.315813
    outer loop
      vertex 2.6486 1.7958 2.4
      vertex 3.31076 2.24475 4.8
      vertex 2.43892 2.07164 2.4
    endloop
  endfacet
  facet normal -0.755351 -0.574203 0.315811
    outer loop
      vertex 3.31076 2.24475 4.8
      vertex 3.04865 2.58955 4.8
      vertex 2.43892 2.07164 2.4
    endloop
  endfacet
  facet normal -0.688842 -0.652503 0.315811
    outer loop
      vertex 2.43892 2.07164 2.4
      vertex 3.04865 2.58955 4.8
      vertex 2.20064 2.32319 2.4
    endloop
  endfacet
  facet normal -0.688834 -0.652512 0.315809
    outer loop
      vertex 3.04865 2.58955 4.8
      vertex 2.7508 2.90398 4.8
      vertex 2.20064 2.32319 2.4
    endloop
  endfacet
  facet normal -0.614252 -0.723159 0.315809
    outer loop
      vertex 2.20064 2.32319 2.4
      vertex 2.7508 2.90398 4.8
      vertex 1.93656 2.5475 2.4
    endloop
  endfacet
  facet normal -0.614255 -0.723156 0.315809
    outer loop
      vertex 2.7508 2.90398 4.8
      vertex 2.4207 3.18437 4.8
      vertex 1.93656 2.5475 2.4
    endloop
  endfacet
  facet normal -0.532451 -0.785341 0.315809
    outer loop
      vertex 1.93656 2.5475 2.4
      vertex 2.4207 3.18437 4.8
      vertex 1.64977 2.74194 2.4
    endloop
  endfacet
  facet normal -0.532473 -0.785325 0.315813
    outer loop
      vertex 2.4207 3.18437 4.8
      vertex 2.06222 3.42743 4.8
      vertex 1.64977 2.74194 2.4
    endloop
  endfacet
  facet normal -0.444448 -0.838289 0.315813
    outer loop
      vertex 1.64977 2.74194 2.4
      vertex 2.06222 3.42743 4.8
      vertex 1.34365 2.90424 2.4
    endloop
  endfacet
  facet normal -0.44443 -0.838299 0.31581
    outer loop
      vertex 2.06222 3.42743 4.8
      vertex 1.67956 3.6303 4.8
      vertex 1.34365 2.90424 2.4
    endloop
  endfacet
  facet normal -0.351189 -0.881437 0.31581
    outer loop
      vertex 1.34365 2.90424 2.4
      vertex 1.67956 3.6303 4.8
      vertex 1.02176 3.03249 2.4
    endloop
  endfacet
  facet normal -0.351194 -0.881434 0.315811
    outer loop
      vertex 1.67956 3.6303 4.8
      vertex 1.27721 3.79061 4.8
      vertex 1.02176 3.03249 2.4
    endloop
  endfacet
  facet normal -0.253851 -0.914234 0.31581
    outer loop
      vertex 1.02176 3.03249 2.4
      vertex 1.27721 3.79061 4.8
      vertex 0.687905 3.12519 2.4
    endloop
  endfacet
  facet normal -0.253836 -0.914239 0.315808
    outer loop
      vertex 1.27721 3.79061 4.8
      vertex 0.859882 3.90648 4.8
      vertex 0.687905 3.12519 2.4
    endloop
  endfacet
  facet normal -0.153488 -0.936326 0.315808
    outer loop
      vertex 0.687905 3.12519 2.4
      vertex 0.859882 3.90648 4.8
      vertex 0.345981 3.18124 2.4
    endloop
  endfacet
  facet normal -0.153503 -0.936323 0.31581
    outer loop
      vertex 0.859882 3.90648 4.8
      vertex 0.432476 3.97655 4.8
      vertex 0.345981 3.18124 2.4
    endloop
  endfacet
  facet normal -0.0513722 -0.947431 0.31581
    outer loop
      vertex 0.345981 3.18124 2.4
      vertex 0.432476 3.97655 4.8
      vertex -2.25434e-15 3.2 2.4
    endloop
  endfacet
  facet normal -0.0513722 -0.947431 0.31581
    outer loop
      vertex 0.432476 3.97655 4.8
      vertex -2.86691e-15 4 4.8
      vertex -2.25434e-15 3.2 2.4
    endloop
  endfacet
  facet normal 0.0513722 -0.947431 0.31581
    outer loop
      vertex -2.25434e-15 3.2 2.4
      vertex -2.86691e-15 4 4.8
      vertex -0.345981 3.18124 2.4
    endloop
  endfacet
  facet normal 0.0513722 -0.947431 0.31581
    outer loop
      vertex -2.86691e-15 4 4.8
      vertex -0.432476 3.97655 4.8
      vertex -0.345981 3.18124 2.4
    endloop
  endfacet
  facet normal 0.153487 -0.936325 0.31581
    outer loop
      vertex -0.345981 3.18124 2.4
      vertex -0.432476 3.97655 4.8
      vertex -0.687905 3.12519 2.4
    endloop
  endfacet
  facet normal 0.153503 -0.936324 0.315808
    outer loop
      vertex -0.432476 3.97655 4.8
      vertex -0.859882 3.90648 4.8
      vertex -0.687905 3.12519 2.4
    endloop
  endfacet
  facet normal 0.253851 -0.914235 0.315808
    outer loop
      vertex -0.687905 3.12519 2.4
      vertex -0.859882 3.90648 4.8
      vertex -1.02176 3.03249 2.4
    endloop
  endfacet
  facet normal 0.253836 -0.914238 0.31581
    outer loop
      vertex -0.859882 3.90648 4.8
      vertex -1.27721 3.79061 4.8
      vertex -1.02176 3.03249 2.4
    endloop
  endfacet
  facet normal 0.351189 -0.881436 0.315811
    outer loop
      vertex -1.02176 3.03249 2.4
      vertex -1.27721 3.79061 4.8
      vertex -1.34365 2.90424 2.4
    endloop
  endfacet
  facet normal 0.351194 -0.881435 0.31581
    outer loop
      vertex -1.27721 3.79061 4.8
      vertex -1.67956 3.6303 4.8
      vertex -1.34365 2.90424 2.4
    endloop
  endfacet
  facet normal 0.444448 -0.83829 0.31581
    outer loop
      vertex -1.34365 2.90424 2.4
      vertex -1.67956 3.6303 4.8
      vertex -1.64977 2.74194 2.4
    endloop
  endfacet
  facet normal 0.44443 -0.838298 0.315813
    outer loop
      vertex -1.67956 3.6303 4.8
      vertex -2.06222 3.42743 4.8
      vertex -1.64977 2.74194 2.4
    endloop
  endfacet
  facet normal 0.53245 -0.78534 0.315813
    outer loop
      vertex -1.64977 2.74194 2.4
      vertex -2.06222 3.42743 4.8
      vertex -1.93656 2.5475 2.4
    endloop
  endfacet
  facet normal 0.532474 -0.785326 0.315809
    outer loop
      vertex -2.06222 3.42743 4.8
      vertex -2.4207 3.18437 4.8
      vertex -1.93656 2.5475 2.4
    endloop
  endfacet
  facet normal 0.614252 -0.723159 0.315809
    outer loop
      vertex -1.93656 2.5475 2.4
      vertex -2.4207 3.18437 4.8
      vertex -2.20064 2.32319 2.4
    endloop
  endfacet
  facet normal 0.614256 -0.723156 0.315809
    outer loop
      vertex -2.4207 3.18437 4.8
      vertex -2.7508 2.90398 4.8
      vertex -2.20064 2.32319 2.4
    endloop
  endfacet
  facet normal 0.688842 -0.652504 0.315809
    outer loop
      vertex -2.20064 2.32319 2.4
      vertex -2.7508 2.90398 4.8
      vertex -2.43892 2.07164 2.4
    endloop
  endfacet
  facet normal 0.688834 -0.652512 0.31581
    outer loop
      vertex -2.7508 2.90398 4.8
      vertex -3.04865 2.58955 4.8
      vertex -2.43892 2.07164 2.4
    endloop
  endfacet
  facet normal 0.755362 -0.574189 0.31581
    outer loop
      vertex -2.43892 2.07164 2.4
      vertex -3.04865 2.58955 4.8
      vertex -2.6486 1.7958 2.4
    endloop
  endfacet
  facet normal 0.75535 -0.574202 0.315813
    outer loop
      vertex -3.04865 2.58955 4.8
      vertex -3.31076 2.24475 4.8
      vertex -2.6486 1.7958 2.4
    endloop
  endfacet
  facet normal 0.812996 -0.489183 0.315813
    outer loop
      vertex -2.6486 1.7958 2.4
      vertex -3.31076 2.24475 4.8
      vertex -2.82724 1.49891 2.4
    endloop
  endfacet
  facet normal 0.813011 -0.48916 0.315809
    outer loop
      vertex -3.31076 2.24475 4.8
      vertex -3.53405 1.87363 4.8
      vertex -2.82724 1.49891 2.4
    endloop
  endfacet
  facet normal 0.861127 -0.398402 0.315809
    outer loop
      vertex -2.82724 1.49891 2.4
      vertex -3.53405 1.87363 4.8
      vertex -2.97273 1.18444 2.4
    endloop
  endfacet
  facet normal 0.861127 -0.398404 0.31581
    outer loop
      vertex -3.53405 1.87363 4.8
      vertex -3.71591 1.48055 4.8
      vertex -2.97273 1.18444 2.4
    endloop
  endfacet
  facet normal 0.899158 -0.302952 0.31581
    outer loop
      vertex -2.97273 1.18444 2.4
      vertex -3.71591 1.48055 4.8
      vertex -3.08336 0.856091 2.4
    endloop
  endfacet
  facet normal 0.899157 -0.302954 0.31581
    outer loop
      vertex -3.71591 1.48055 4.8
      vertex -3.8542 1.07011 4.8
      vertex -3.08336 0.856091 2.4
    endloop
  endfacet
  facet normal 0.926642 -0.203956 0.31581
    outer loop
      vertex -3.08336 0.856091 2.4
      vertex -3.8542 1.07011 4.8
      vertex -3.15784 0.517702 2.4
    endloop
  endfacet
  facet normal 0.926636 -0.203978 0.315813
    outer loop
      vertex -3.8542 1.07011 4.8
      vertex -3.94731 0.647128 4.8
      vertex -3.15784 0.517702 2.4
    endloop
  endfacet
  facet normal 0.943257 -0.102607 0.315814
    outer loop
      vertex -3.15784 0.517702 2.4
      vertex -3.94731 0.647128 4.8
      vertex -3.19531 0.173245 2.4
    endloop
  endfacet
  facet normal 0.943263 -0.10257 0.315808
    outer loop
      vertex -3.94731 0.647128 4.8
      vertex -3.99413 0.216556 4.8
      vertex -3.19531 0.173245 2.4
    endloop
  endfacet
  facet normal 0.948823 0 0.315808
    outer loop
      vertex -3.19531 0.173245 2.4
      vertex -3.99413 0.216556 4.8
      vertex -3.19531 -0.173245 2.4
    endloop
  endfacet
  facet normal 0.948823 0 0.315808
    outer loop
      vertex -3.99413 0.216556 4.8
      vertex -3.99413 -0.216556 4.8
      vertex -3.19531 -0.173245 2.4
    endloop
  endfacet
  facet normal 0.943259 0.102608 0.315808
    outer loop
      vertex -3.19531 -0.173245 2.4
      vertex -3.99413 -0.216556 4.8
      vertex -3.15784 -0.517702 2.4
    endloop
  endfacet
  facet normal 0.943261 0.102569 0.315813
    outer loop
      vertex -3.99413 -0.216556 4.8
      vertex -3.94731 -0.647128 4.8
      vertex -3.15784 -0.517702 2.4
    endloop
  endfacet
  facet normal 0.926641 0.203955 0.315814
    outer loop
      vertex -3.15784 -0.517702 2.4
      vertex -3.94731 -0.647128 4.8
      vertex -3.08336 -0.856091 2.4
    endloop
  endfacet
  facet normal 0.926637 0.203978 0.31581
    outer loop
      vertex -3.94731 -0.647128 4.8
      vertex -3.8542 -1.07011 4.8
      vertex -3.08336 -0.856091 2.4
    endloop
  endfacet
  facet normal 0.899158 0.302951 0.31581
    outer loop
      vertex -3.08336 -0.856091 2.4
      vertex -3.8542 -1.07011 4.8
      vertex -2.97273 -1.18444 2.4
    endloop
  endfacet
  facet normal 0.899157 0.302954 0.31581
    outer loop
      vertex -3.8542 -1.07011 4.8
      vertex -3.71591 -1.48055 4.8
      vertex -2.97273 -1.18444 2.4
    endloop
  endfacet
  facet normal 0.861127 0.398402 0.31581
    outer loop
      vertex -2.97273 -1.18444 2.4
      vertex -3.71591 -1.48055 4.8
      vertex -2.82724 -1.49891 2.4
    endloop
  endfacet
  facet normal 0.861127 0.398404 0.315809
    outer loop
      vertex -3.71591 -1.48055 4.8
      vertex -3.53405 -1.87363 4.8
      vertex -2.82724 -1.49891 2.4
    endloop
  endfacet
  facet normal 0.812997 0.489184 0.315809
    outer loop
      vertex -2.82724 -1.49891 2.4
      vertex -3.53405 -1.87363 4.8
      vertex -2.6486 -1.7958 2.4
    endloop
  endfacet
  facet normal 0.81301 0.48916 0.315813
    outer loop
      vertex -3.53405 -1.87363 4.8
      vertex -3.31076 -2.24475 4.8
      vertex -2.6486 -1.7958 2.4
    endloop
  endfacet
  facet normal 0.755361 0.574188 0.315813
    outer loop
      vertex -2.6486 -1.7958 2.4
      vertex -3.31076 -2.24475 4.8
      vertex -2.43892 -2.07164 2.4
    endloop
  endfacet
  facet normal 0.755351 0.574203 0.315811
    outer loop
      vertex -3.31076 -2.24475 4.8
      vertex -3.04865 -2.58955 4.8
      vertex -2.43892 -2.07164 2.4
    endloop
  endfacet
  facet normal 0.688842 0.652503 0.315811
    outer loop
      vertex -2.43892 -2.07164 2.4
      vertex -3.04865 -2.58955 4.8
      vertex -2.20064 -2.32319 2.4
    endloop
  endfacet
  facet normal 0.688834 0.652512 0.315809
    outer loop
      vertex -3.04865 -2.58955 4.8
      vertex -2.7508 -2.90398 4.8
      vertex -2.20064 -2.32319 2.4
    endloop
  endfacet
  facet normal 0.614252 0.723159 0.315809
    outer loop
      vertex -2.20064 -2.32319 2.4
      vertex -2.7508 -2.90398 4.8
      vertex -1.93656 -2.5475 2.4
    endloop
  endfacet
  facet normal 0.614255 0.723156 0.315809
    outer loop
      vertex -2.7508 -2.90398 4.8
      vertex -2.4207 -3.18437 4.8
      vertex -1.93656 -2.5475 2.4
    endloop
  endfacet
  facet normal 0.532451 0.785341 0.315809
    outer loop
      vertex -1.93656 -2.5475 2.4
      vertex -2.4207 -3.18437 4.8
      vertex -1.64977 -2.74194 2.4
    endloop
  endfacet
  facet normal 0.532473 0.785325 0.315813
    outer loop
      vertex -2.4207 -3.18437 4.8
      vertex -2.06222 -3.42743 4.8
      vertex -1.64977 -2.74194 2.4
    endloop
  endfacet
  facet normal 0.444448 0.838289 0.315813
    outer loop
      vertex -1.64977 -2.74194 2.4
      vertex -2.06222 -3.42743 4.8
      vertex -1.34365 -2.90424 2.4
    endloop
  endfacet
  facet normal 0.44443 0.838299 0.31581
    outer loop
      vertex -2.06222 -3.42743 4.8
      vertex -1.67956 -3.6303 4.8
      vertex -1.34365 -2.90424 2.4
    endloop
  endfacet
  facet normal 0.351189 0.881437 0.31581
    outer loop
      vertex -1.34365 -2.90424 2.4
      vertex -1.67956 -3.6303 4.8
      vertex -1.02176 -3.03249 2.4
    endloop
  endfacet
  facet normal 0.351194 0.881434 0.315811
    outer loop
      vertex -1.67956 -3.6303 4.8
      vertex -1.27721 -3.79061 4.8
      vertex -1.02176 -3.03249 2.4
    endloop
  endfacet
  facet normal 0.253851 0.914234 0.31581
    outer loop
      vertex -1.02176 -3.03249 2.4
      vertex -1.27721 -3.79061 4.8
      vertex -0.687905 -3.12519 2.4
    endloop
  endfacet
  facet normal 0.253836 0.914239 0.315808
    outer loop
      vertex -1.27721 -3.79061 4.8
      vertex -0.859882 -3.90648 4.8
      vertex -0.687905 -3.12519 2.4
    endloop
  endfacet
  facet normal 0.153488 0.936326 0.315808
    outer loop
      vertex -0.687905 -3.12519 2.4
      vertex -0.859882 -3.90648 4.8
      vertex -0.345981 -3.18124 2.4
    endloop
  endfacet
  facet normal 0.153503 0.936323 0.31581
    outer loop
      vertex -0.859882 -3.90648 4.8
      vertex -0.432476 -3.97655 4.8
      vertex -0.345981 -3.18124 2.4
    endloop
  endfacet
  facet normal 0.0513722 0.947431 0.31581
    outer loop
      vertex -0.345981 -3.18124 2.4
      vertex -0.432476 -3.97655 4.8
      vertex 1.95943e-16 -3.2 2.4
    endloop
  endfacet
  facet normal 0.0513722 0.947431 0.31581
    outer loop
      vertex -0.432476 -3.97655 4.8
      vertex -7.83774e-16 -4 4.8
      vertex 1.95943e-16 -3.2 2.4
    endloop
  endfacet
  facet normal -0.0513722 0.947431 0.31581
    outer loop
      vertex 1.95943e-16 -3.2 2.4
      vertex -7.83774e-16 -4 4.8
      vertex 0.345981 -3.18124 2.4
    endloop
  endfacet
  facet normal -0.0513722 0.947431 0.31581
    outer loop
      vertex -7.83774e-16 -4 4.8
      vertex 0.432476 -3.97655 4.8
      vertex 0.345981 -3.18124 2.4
    endloop
  endfacet
  facet normal -0 0 1
    outer loop
      vertex 0.432476 -3.97655 4.8
      vertex 0.518971 -4.77186 4.8
      vertex 0.859882 -3.90648 4.8
    endloop
  endfacet
  facet normal 0 0 1
    outer loop
      vertex 0.518971 -4.77186 4.8
      vertex 1.03186 -4.68778 4.8
      vertex 0.859882 -3.90648 4.8
    endloop
  endfacet
  facet normal -0 0 1
    outer loop
      vertex 0.859882 -3.90648 4.8
      vertex 1.03186 -4.68778 4.8
      vertex 1.27721 -3.79061 4.8
    endloop
  endfacet
  facet normal 0 0 1
    outer loop
      vertex 1.03186 -4.68778 4.8
      vertex 1.53265 -4.54874 4.8
      vertex 1.27721 -3.79061 4.8
    endloop
  endfacet
  facet normal -0 0 1
    outer loop
      vertex 1.27721 -3.79061 4.8
      vertex 1.53265 -4.54874 4.8
      vertex 1.67956 -3.6303 4.8
    endloop
  endfacet
  facet normal 0 0 1
    outer loop
      vertex 1.53265 -4.54874 4.8
      vertex 2.01547 -4.35636 4.8
      vertex 1.67956 -3.6303 4.8
    endloop
  endfacet
  facet normal -0 0 1
    outer loop
      vertex 1.67956 -3.6303 4.8
      vertex 2.01547 -4.35636 4.8
      vertex 2.06222 -3.42743 4.8
    endloop
  endfacet
  facet normal 0 0 1
    outer loop
      vertex 2.01547 -4.35636 4.8
      vertex 2.47466 -4.11291 4.8
      vertex 2.06222 -3.42743 4.8
    endloop
  endfacet
  facet normal -0 0 1
    outer loop
      vertex 2.06222 -3.42743 4.8
      vertex 2.47466 -4.11291 4.8
      vertex 2.4207 -3.18437 4.8
    endloop
  endfacet
  facet normal 0 -0 1
    outer loop
      vertex 2.47466 -4.11291 4.8
      vertex 2.90484 -3.82125 4.8
      vertex 2.4207 -3.18437 4.8
    endloop
  endfacet
  facet normal -0 0 1
    outer loop
      vertex 2.4207 -3.18437 4.8
      vertex 2.90484 -3.82125 4.8
      vertex 2.7508 -2.90398 4.8
    endloop
  endfacet
  facet normal 0 -0 1
    outer loop
      vertex 2.90484 -3.82125 4.8
      vertex 3.30096 -3.48478 4.8
      vertex 2.7508 -2.90398 4.8
    endloop
  endfacet
  facet normal -0 0 1
    outer loop
      vertex 2.7508 -2.90398 4.8
      vertex 3.30096 -3.48478 4.8
      vertex 3.04865 -2.58955 4.8
    endloop
  endfacet
  facet normal 0 -0 1
    outer loop
      vertex 3.30096 -3.48478 4.8
      vertex 3.65838 -3.10745 4.8
      vertex 3.04865 -2.58955 4.8
    endloop
  endfacet
  facet normal -0 0 1
    outer loop
      vertex 3.04865 -2.58955 4.8
      vertex 3.65838 -3.10745 4.8
      vertex 3.31076 -2.24475 4.8
    endloop
  endfacet
  facet normal 0 -0 1
    outer loop
      vertex 3.65838 -3.10745 4.8
      vertex 3.97291 -2.6937 4.8
      vertex 3.31076 -2.24475 4.8
    endloop
  endfacet
  facet normal -0 0 1
    outer loop
      vertex 3.31076 -2.24475 4.8
      vertex 3.97291 -2.6937 4.8
      vertex 3.53405 -1.87363 4.8
    endloop
  endfacet
  facet normal 0 -0 1
    outer loop
      vertex 3.97291 -2.6937 4.8
      vertex 4.24086 -2.24836 4.8
      vertex 3.53405 -1.87363 4.8
    endloop
  endfacet
  facet normal -0 0 1
    outer loop
      vertex 3.53405 -1.87363 4.8
      vertex 4.24086 -2.24836 4.8
      vertex 3.71591 -1.48055 4.8
    endloop
  endfacet
  facet normal 0 -0 1
    outer loop
      vertex 4.24086 -2.24836 4.8
      vertex 4.45909 -1.77666 4.8
      vertex 3.71591 -1.48055 4.8
    endloop
  endfacet
  facet normal -0 0 1
    outer loop
      vertex 3.71591 -1.48055 4.8
      vertex 4.45909 -1.77666 4.8
      vertex 3.8542 -1.07011 4.8
    endloop
  endfacet
  facet normal 0 -0 1
    outer loop
      vertex 4.45909 -1.77666 4.8
      vertex 4.62504 -1.28414 4.8
      vertex 3.8542 -1.07011 4.8
    endloop
  endfacet
  facet normal -0 0 1
    outer loop
      vertex 3.8542 -1.07011 4.8
      vertex 4.62504 -1.28414 4.8
      vertex 3.94731 -0.647128 4.8
    endloop
  endfacet
  facet normal 0 -0 1
    outer loop
      vertex 4.62504 -1.28414 4.8
      vertex 4.73677 -0.776554 4.8
      vertex 3.94731 -0.647128 4.8
    endloop
  endfacet
  facet normal -0 0 1
    outer loop
      vertex 3.94731 -0.647128 4.8
      vertex 4.73677 -0.776554 4.8
      vertex 3.99413 -0.216556 4.8
    endloop
  endfacet
  facet normal 0 -0 1
    outer loop
      vertex 4.73677 -0.776554 4.8
      vertex 4.79296 -0.259867 4.8
      vertex 3.99413 -0.216556 4.8
    endloop
  endfacet
  facet normal -0 0 1
    outer loop
      vertex 3.99413 -0.216556 4.8
      vertex 4.79296 -0.259867 4.8
      vertex 3.99413 0.216556 4.8
    endloop
  endfacet
  facet normal 0 -0 1
    outer loop
      vertex 4.79296 -0.259867 4.8
      vertex 4.79296 0.259867 4.8
      vertex 3.99413 0.216556 4.8
    endloop
  endfacet
  facet normal 0 -0 1
    outer loop
      vertex 3.99413 0.216556 4.8
      vertex 4.79296 0.259867 4.8
      vertex 3.94731 0.647128 4.8
    endloop
  endfacet
  facet normal 0 0 1
    outer loop
      vertex 4.79296 0.259867 4.8
      vertex 4.73677 0.776554 4.8
      vertex 3.94731 0.647128 4.8
    endloop
  endfacet
  facet normal 0 -0 1
    outer loop
      vertex 3.94731 0.647128 4.8
      vertex 4.73677 0.776554 4.8
      vertex 3.8542 1.07011 4.8
    endloop
  endfacet
  facet normal 0 0 1
    outer loop
      vertex 4.73677 0.776554 4.8
      vertex 4.62504 1.28414 4.8
      vertex 3.8542 1.07011 4.8
    endloop
  endfacet
  facet normal 0 -0 1
    outer loop
      vertex 3.8542 1.07011 4.8
      vertex 4.62504 1.28414 4.8
      vertex 3.71591 1.48055 4.8
    endloop
  endfacet
  facet normal 0 0 1
    outer loop
      vertex 4.62504 1.28414 4.8
      vertex 4.45909 1.77666 4.8
      vertex 3.71591 1.48055 4.8
    endloop
  endfacet
  facet normal 0 -0 1
    outer loop
      vertex 3.71591 1.48055 4.8
      vertex 4.45909 1.77666 4.8
      vertex 3.53405 1.87363 4.8
    endloop
  endfacet
  facet normal 0 0 1
    outer loop
      vertex 4.45909 1.77666 4.8
      vertex 4.24086 2.24836 4.8
      vertex 3.53405 1.87363 4.8
    endloop
  endfacet
  facet normal 0 -0 1
    outer loop
      vertex 3.53405 1.87363 4.8
      vertex 4.24086 2.24836 4.8
      vertex 3.31076 2.24475 4.8
    endloop
  endfacet
  facet normal 0 0 1
    outer loop
      vertex 4.24086 2.24836 4.8
      vertex 3.97291 2.6937 4.8
      vertex 3.31076 2.24475 4.8
    endloop
  endfacet
  facet normal 0 -0 1
    outer loop
      vertex 3.31076 2.24475 4.8
      vertex 3.97291 2.6937 4.8
      vertex 3.04865 2.58955 4.8
    endloop
  endfacet
  facet normal 0 0 1
    outer loop
      vertex 3.97291 2.6937 4.8
      vertex 3.65838 3.10745 4.8
      vertex 3.04865 2.58955 4.8
    endloop
  endfacet
  facet normal 0 -0 1
    outer loop
      vertex 3.04865 2.58955 4.8
      vertex 3.65838 3.10745 4.8
      vertex 2.7508 2.90398 4.8
    endloop
  endfacet
  facet normal 0 0 1
    outer loop
      vertex 3.65838 3.10745 4.8
      vertex 3.30096 3.48478 4.8
      vertex 2.7508 2.90398 4.8
    endloop
  endfacet
  facet normal 0 -0 1
    outer loop
      vertex 2.7508 2.90398 4.8
      vertex 3.30096 3.48478 4.8
      vertex 2.4207 3.18437 4.8
    endloop
  endfacet
  facet normal 0 0 1
    outer loop
      vertex 3.30096 3.48478 4.8
      vertex 2.90484 3.82125 4.8
      vertex 2.4207 3.18437 4.8
    endloop
  endfacet
  facet normal 0 -0 1
    outer loop
      vertex 2.4207 3.18437 4.8
      vertex 2.90484 3.82125 4.8
      vertex 2.06222 3.42743 4.8
    endloop
  endfacet
  facet normal 0 0 1
    outer loop
      vertex 2.90484 3.82125 4.8
      vertex 2.47466 4.11291 4.8
      vertex 2.06222 3.42743 4.8
    endloop
  endfacet
  facet normal 0 -0 1
    outer loop
      vertex 2.06222 3.42743 4.8
      vertex 2.47466 4.11291 4.8
      vertex 1.67956 3.6303 4.8
    endloop
  endfacet
  facet normal 0 0 1
    outer loop
      vertex 2.47466 4.11291 4.8
      vertex 2.01547 4.35636 4.8
      vertex 1.67956 3.6303 4.8
    endloop
  endfacet
  facet normal 0 -0 1
    outer loop
      vertex 1.67956 3.6303 4.8
      vertex 2.01547 4.35636 4.8
      vertex 1.27721 3.79061 4.8
    endloop
  endfacet
  facet normal 0 0 1
    outer loop
      vertex 2.01547 4.35636 4.8
      vertex 1.53265 4.54874 4.8
      vertex 1.27721 3.79061 4.8
    endloop
  endfacet
  facet normal 0 -0 1
    outer loop
      vertex 1.27721 3.79061 4.8
      vertex 1.53265 4.54874 4.8
      vertex 0.859882 3.90648 4.8
    endloop
  endfacet
  facet normal 0 0 1
    outer loop
      vertex 1.53265 4.54874 4.8
      vertex 1.03186 4.68778 4.8
      vertex 0.859882 3.90648 4.8
    endloop
  endfacet
  facet normal 0 -0 1
    outer loop
      vertex 0.859882 3.90648 4.8
      vertex 1.03186 4.68778 4.8
      vertex 0.432476 3.97655 4.8
    endloop
  endfacet
  facet normal 0 0 1
    outer loop
      vertex 1.03186 4.68778 4.8
      vertex 0.518971 4.77186 4.8
      vertex 0.432476 3.97655 4.8
    endloop
  endfacet
  facet normal 0 -0 1
    outer loop
      vertex 0.432476 3.97655 4.8
      vertex 0.518971 4.77186 4.8
      vertex -2.86691e-15 4 4.8
    endloop
  endfacet
  facet normal 0 0 1
    outer loop
      vertex 0.518971 4.77186 4.8
      vertex 2.93915e-16 4.8 4.8
      vertex -2.86691e-15 4 4.8
    endloop
  endfacet
  facet normal 0 -0 1
    outer loop
      vertex -2.86691e-15 4 4.8
      vertex 2.93915e-16 4.8 4.8
      vertex -0.432476 3.97655 4.8
    endloop
  endfacet
  facet normal 0 0 1
    outer loop
      vertex 2.93915e-16 4.8 4.8
      vertex -0.518971 4.77186 4.8
      vertex -0.432476 3.97655 4.8
    endloop
  endfacet
  facet normal 0 0 1
    outer loop
      vertex -0.432476 3.97655 4.8
      vertex -0.518971 4.77186 4.8
      vertex -0.859882 3.90648 4.8
    endloop
  endfacet
  facet normal 0 0 1
    outer loop
      vertex -0.518971 4.77186 4.8
      vertex -1.03186 4.68778 4.8
      vertex -0.859882 3.90648 4.8
    endloop
  endfacet
  facet normal 0 0 1
    outer loop
      vertex -0.859882 3.90648 4.8
      vertex -1.03186 4.68778 4.8
      vertex -1.27721 3.79061 4.8
    endloop
  endfacet
  facet normal 0 0 1
    outer loop
      vertex -1.03186 4.68778 4.8
      vertex -1.53265 4.54874 4.8
      vertex -1.27721 3.79061 4.8
    endloop
  endfacet
  facet normal 0 0 1
    outer loop
      vertex -1.27721 3.79061 4.8
      vertex -1.53265 4.54874 4.8
      vertex -1.67956 3.6303 4.8
    endloop
  endfacet
  facet normal 0 0 1
    outer loop
      vertex -1.53265 4.54874 4.8
      vertex -2.01547 4.35636 4.8
      vertex -1.67956 3.6303 4.8
    endloop
  endfacet
  facet normal 0 0 1
    outer loop
      vertex -1.67956 3.6303 4.8
      vertex -2.01547 4.35636 4.8
      vertex -2.06222 3.42743 4.8
    endloop
  endfacet
  facet normal 0 0 1
    outer loop
      vertex -2.01547 4.35636 4.8
      vertex -2.47466 4.11291 4.8
      vertex -2.06222 3.42743 4.8
    endloop
  endfacet
  facet normal 0 0 1
    outer loop
      vertex -2.06222 3.42743 4.8
      vertex -2.47466 4.11291 4.8
      vertex -2.4207 3.18437 4.8
    endloop
  endfacet
  facet normal 0 0 1
    outer loop
      vertex -2.47466 4.11291 4.8
      vertex -2.90484 3.82125 4.8
      vertex -2.4207 3.18437 4.8
    endloop
  endfacet
  facet normal 0 0 1
    outer loop
      vertex -2.4207 3.18437 4.8
      vertex -2.90484 3.82125 4.8
      vertex -2.7508 2.90398 4.8
    endloop
  endfacet
  facet normal 0 0 1
    outer loop
      vertex -2.90484 3.82125 4.8
      vertex -3.30096 3.48478 4.8
      vertex -2.7508 2.90398 4.8
    endloop
  endfacet
  facet normal 0 0 1
    outer loop
      vertex -2.7508 2.90398 4.8
      vertex -3.30096 3.48478 4.8
      vertex -3.04865 2.58955 4.8
    endloop
  endfacet
  facet normal 0 0 1
    outer loop
      vertex -3.30096 3.48478 4.8
      vertex -3.65838 3.10745 4.8
      vertex -3.04865 2.58955 4.8
    endloop
  endfacet
  facet normal 0 0 1
    outer loop
      vertex -3.04865 2.58955 4.8
      vertex -3.65838 3.10745 4.8
      vertex -3.31076 2.24475 4.8
    endloop
  endfacet
  facet normal 0 0 1
    outer loop
      vertex -3.65838 3.10745 4.8
      vertex -3.97291 2.6937 4.8
      vertex -3.31076 2.24475 4.8
    endloop
  endfacet
  facet normal 0 0 1
    outer loop
      vertex -3.31076 2.24475 4.8
      vertex -3.97291 2.6937 4.8
      vertex -3.53405 1.87363 4.8
    endloop
  endfacet
  facet normal 0 0 1
    outer loop
      vertex -3.97291 2.6937 4.8
      vertex -4.24086 2.24836 4.8
      vertex -3.53405 1.87363 4.8
    endloop
  endfacet
  facet normal 0 0 1
    outer loop
      vertex -3.53405 1.87363 4.8
      vertex -4.24086 2.24836 4.8
      vertex -3.71591 1.48055 4.8
    endloop
  endfacet
  facet normal 0 0 1
    outer loop
      vertex -4.24086 2.24836 4.8
      vertex -4.45909 1.77666 4.8
      vertex -3.71591 1.48055 4.8
    endloop
  endfacet
  facet normal 0 0 1
    outer loop
      vertex -3.71591 1.48055 4.8
      vertex -4.45909 1.77666 4.8
      vertex -3.8542 1.07011 4.8
    endloop
  endfacet
  facet normal 0 0 1
    outer loop
      vertex -4.45909 1.77666 4.8
      vertex -4.62504 1.28414 4.8
      vertex -3.8542 1.07011 4.8
    endloop
  endfacet
  facet normal 0 0 1
    outer loop
      vertex -3.8542 1.07011 4.8
      vertex -4.62504 1.28414 4.8
      vertex -3.94731 0.647128 4.8
    endloop
  endfacet
  facet normal 0 0 1
    outer loop
      vertex -4.62504 1.28414 4.8
      vertex -4.73677 0.776554 4.8
      vertex -3.94731 0.647128 4.8
    endloop
  endfacet
  facet normal 0 0 1
    outer loop
      vertex -3.94731 0.647128 4.8
      vertex -4.73677 0.776554 4.8
      vertex -3.99413 0.216556 4.8
    endloop
  endfacet
  facet normal 0 0 1
    outer loop
      vertex -4.73677 0.776554 4.8
      vertex -4.79296 0.259867 4.8
      vertex -3.99413 0.216556 4.8
    endloop
  endfacet
  facet normal 0 0 1
    outer loop
      vertex -3.99413 0.216556 4.8
      vertex -4.79296 0.259867 4.8
      vertex -3.99413 -0.216556 4.8
    endloop
  endfacet
  facet normal 0 0 1
    outer loop
      vertex -4.79296 0.259867 4.8
      vertex -4.79296 -0.259867 4.8
      vertex -3.99413 -0.216556 4.8
    endloop
  endfacet
  facet normal 0 0 1
    outer loop
      vertex -3.99413 -0.216556 4.8
      vertex -4.79296 -0.259867 4.8
      vertex -3.94731 -0.647128 4.8
    endloop
  endfacet
  facet normal 0 0 1
    outer loop
      vertex -4.79296 -0.259867 4.8
      vertex -4.73677 -0.776554 4.8
      vertex -3.94731 -0.647128 4.8
    endloop
  endfacet
  facet normal 0 0 1
    outer loop
      vertex -3.94731 -0.647128 4.8
      vertex -4.73677 -0.776554 4.8
      vertex -3.8542 -1.07011 4.8
    endloop
  endfacet
  facet normal 0 0 1
    outer loop
      vertex -4.73677 -0.776554 4.8
      vertex -4.62504 -1.28414 4.8
      vertex -3.8542 -1.07011 4.8
    endloop
  endfacet
  facet normal 0 0 1
    outer loop
      vertex -3.8542 -1.07011 4.8
      vertex -4.62504 -1.28414 4.8
      vertex -3.71591 -1.48055 4.8
    endloop
  endfacet
  facet normal 0 0 1
    outer loop
      vertex -4.62504 -1.28414 4.8
      vertex -4.45909 -1.77666 4.8
      vertex -3.71591 -1.48055 4.8
    endloop
  endfacet
  facet normal 0 0 1
    outer loop
      vertex -3.71591 -1.48055 4.8
      vertex -4.45909 -1.77666 4.8
      vertex -3.53405 -1.87363 4.8
    endloop
  endfacet
  facet normal 0 0 1
    outer loop
      vertex -4.45909 -1.77666 4.8
      vertex -4.24086 -2.24836 4.8
      vertex -3.53405 -1.87363 4.8
    endloop
  endfacet
  facet normal 0 0 1
    outer loop
      vertex -3.53405 -1.87363 4.8
      vertex -4.24086 -2.24836 4.8
      vertex -3.31076 -2.24475 4.8
    endloop
  endfacet
  facet normal -0 0 1
    outer loop
      vertex -4.24086 -2.24836 4.8
      vertex -3.97291 -2.6937 4.8
      vertex -3.31076 -2.24475 4.8
    endloop
  endfacet
  facet normal 0 0 1
    outer loop
      vertex -3.31076 -2.24475 4.8
      vertex -3.97291 -2.6937 4.8
      vertex -3.04865 -2.58955 4.8
    endloop
  endfacet
  facet normal -0 0 1
    outer loop
      vertex -3.97291 -2.6937 4.8
      vertex -3.65838 -3.10745 4.8
      vertex -3.04865 -2.58955 4.8
    endloop
  endfacet
  facet normal 0 0 1
    outer loop
      vertex -3.04865 -2.58955 4.8
      vertex -3.65838 -3.10745 4.8
      vertex -2.7508 -2.90398 4.8
    endloop
  endfacet
  facet normal -0 0 1
    outer loop
      vertex -3.65838 -3.10745 4.8
      vertex -3.30096 -3.48478 4.8
      vertex -2.7508 -2.90398 4.8
    endloop
  endfacet
  facet normal 0 0 1
    outer loop
      vertex -2.7508 -2.90398 4.8
      vertex -3.30096 -3.48478 4.8
      vertex -2.4207 -3.18437 4.8
    endloop
  endfacet
  facet normal -0 0 1
    outer loop
      vertex -3.30096 -3.48478 4.8
      vertex -2.90484 -3.82125 4.8
      vertex -2.4207 -3.18437 4.8
    endloop
  endfacet
  facet normal 0 0 1
    outer loop
      vertex -2.4207 -3.18437 4.8
      vertex -2.90484 -3.82125 4.8
      vertex -2.06222 -3.42743 4.8
    endloop
  endfacet
  facet normal -0 0 1
    outer loop
      vertex -2.90484 -3.82125 4.8
      vertex -2.47466 -4.11291 4.8
      vertex -2.06222 -3.42743 4.8
    endloop
  endfacet
  facet normal 0 0 1
    outer loop
      vertex -2.06222 -3.42743 4.8
      vertex -2.47466 -4.11291 4.8
      vertex -1.67956 -3.6303 4.8
    endloop
  endfacet
  facet normal -0 0 1
    outer loop
      vertex -2.47466 -4.11291 4.8
      vertex -2.01547 -4.35636 4.8
      vertex -1.67956 -3.6303 4.8
    endloop
  endfacet
  facet normal 0 0 1
    outer loop
      vertex -1.67956 -3.6303 4.8
      vertex -2.01547 -4.35636 4.8
      vertex -1.27721 -3.79061 4.8
    endloop
  endfacet
  facet normal -0 0 1
    outer loop
      vertex -2.01547 -4.35636 4.8
      vertex -1.53265 -4.54874 4.8
      vertex -1.27721 -3.79061 4.8
    endloop
  endfacet
  facet normal 0 0 1
    outer loop
      vertex -1.27721 -3.79061 4.8
      vertex -1.53265 -4.54874 4.8
      vertex -0.859882 -3.90648 4.8
    endloop
  endfacet
  facet normal -0 0 1
    outer loop
      vertex -1.53265 -4.54874 4.8
      vertex -1.03186 -4.68778 4.8
      vertex -0.859882 -3.90648 4.8
    endloop
  endfacet
  facet normal 0 0 1
    outer loop
      vertex -0.859882 -3.90648 4.8
      vertex -1.03186 -4.68778 4.8
      vertex -0.432476 -3.97655 4.8
    endloop
  endfacet
  facet normal -0 0 1
    outer loop
      vertex -1.03186 -4.68778 4.8
      vertex -0.518971 -4.77186 4.8
      vertex -0.432476 -3.97655 4.8
    endloop
  endfacet
  facet normal 0 0 1
    outer loop
      vertex -0.432476 -3.97655 4.8
      vertex -0.518971 -4.77186 4.8
      vertex -7.83774e-16 -4 4.8
    endloop
  endfacet
  facet normal -0 0 1
    outer loop
      vertex -0.518971 -4.77186 4.8
      vertex 2.05741e-15 -4.8 4.8
      vertex -7.83774e-16 -4 4.8
    endloop
  endfacet
  facet normal -0 0 1
    outer loop
      vertex -7.83774e-16 -4 4.8
      vertex 2.05741e-15 -4.8 4.8
      vertex 0.432476 -3.97655 4.8
    endloop
  endfacet
  facet normal 0 0 1
    outer loop
      vertex 2.05741e-15 -4.8 4.8
      vertex 0.518971 -4.77186 4.8
      vertex 0.432476 -3.97655 4.8
    endloop
  endfacet
endsolid OpenSCAD_Model
