solid OpenSCAD_Model
  facet normal 1 -0 0
    outer loop
      vertex 1 0 3.2
      vertex 1 3 1.6
      vertex 1 3 3.2
    endloop
  endfacet
  facet normal 1 0 0
    outer loop
      vertex 1 3 1.6
      vertex 1 0 3.2
      vertex 1 0 1.6
    endloop
  endfacet
  facet normal 0 0 1
    outer loop
      vertex 1 3 1.6
      vertex 2.4 0 1.6
      vertex 4 0 1.6
    endloop
  endfacet
  facet normal 0 0 1
    outer loop
      vertex 2.4 0 1.6
      vertex 1 3 1.6
      vertex 1 0 1.6
    endloop
  endfacet
  facet normal 0 0 -1
    outer loop
      vertex 1 3 3.2
      vertex 2.4 0 3.2
      vertex 1 0 3.2
    endloop
  endfacet
  facet normal 0 0 -1
    outer loop
      vertex 2.4 0 3.2
      vertex 1 3 3.2
      vertex 4 0 3.2
    endloop
  endfacet
  facet normal 0 0 -1
    outer loop
      vertex -0.155252 -1.48924 0
      vertex 0 0 0
      vertex 0.189545 -1.75135 0
    endloop
  endfacet
  facet normal 0 0 -1
    outer loop
      vertex -0.526366 -1.26595 0
      vertex 0 0 0
      vertex -0.155252 -1.48924 0
    endloop
  endfacet
  facet normal 0 0 -1
    outer loop
      vertex -0.919447 -1.08409 0
      vertex 0 0 0
      vertex -0.526366 -1.26595 0
    endloop
  endfacet
  facet normal 0 0 -1
    outer loop
      vertex -1.32989 -0.9458 0
      vertex 0 0 0
      vertex -0.919447 -1.08409 0
    endloop
  endfacet
  facet normal 0 0 -1
    outer loop
      vertex -1.75287 -0.852695 0
      vertex 0 0 0
      vertex -1.32989 -0.9458 0
    endloop
  endfacet
  facet normal 0 0 -1
    outer loop
      vertex -2.18344 -0.805865 0
      vertex 0 0 0
      vertex -1.75287 -0.852695 0
    endloop
  endfacet
  facet normal 0 0 -1
    outer loop
      vertex -2.61656 -0.805865 0
      vertex 0 0 0
      vertex -2.18344 -0.805865 0
    endloop
  endfacet
  facet normal 0 0 -1
    outer loop
      vertex -7.2 0 0
      vertex -2.61656 -0.805865 0
      vertex -3.04713 -0.852695 0
    endloop
  endfacet
  facet normal 0 0 -1
    outer loop
      vertex -7.2 0 0
      vertex -3.04713 -0.852695 0
      vertex -3.47011 -0.9458 0
    endloop
  endfacet
  facet normal 0 0 -1
    outer loop
      vertex -7.2 0 0
      vertex -6.4 -4.8 0
      vertex -7.2 -9.6 0
    endloop
  endfacet
  facet normal 0 0 -1
    outer loop
      vertex -2.61656 -0.805865 0
      vertex -7.2 0 0
      vertex 0 0 0
    endloop
  endfacet
  facet normal 0 0 -1
    outer loop
      vertex -3.88055 -1.08409 0
      vertex -7.2 0 0
      vertex -3.47011 -0.9458 0
    endloop
  endfacet
  facet normal 0 0 -1
    outer loop
      vertex -4.27363 -1.26595 0
      vertex -7.2 0 0
      vertex -3.88055 -1.08409 0
    endloop
  endfacet
  facet normal 0 0 -1
    outer loop
      vertex -4.64475 -1.48924 0
      vertex -7.2 0 0
      vertex -4.27363 -1.26595 0
    endloop
  endfacet
  facet normal 0 0 -1
    outer loop
      vertex -4.98954 -1.75135 0
      vertex -7.2 0 0
      vertex -4.64475 -1.48924 0
    endloop
  endfacet
  facet normal 0 0 -1
    outer loop
      vertex -5.30398 -2.0492 0
      vertex -7.2 0 0
      vertex -4.98954 -1.75135 0
    endloop
  endfacet
  facet normal 0 0 -1
    outer loop
      vertex -5.58437 -2.3793 0
      vertex -7.2 0 0
      vertex -5.30398 -2.0492 0
    endloop
  endfacet
  facet normal 0 0 -1
    outer loop
      vertex -5.82743 -2.73778 0
      vertex -7.2 0 0
      vertex -5.58437 -2.3793 0
    endloop
  endfacet
  facet normal 0 0 -1
    outer loop
      vertex -6.0303 -3.12044 0
      vertex -7.2 0 0
      vertex -5.82743 -2.73778 0
    endloop
  endfacet
  facet normal 0 0 -1
    outer loop
      vertex -6.19061 -3.52279 0
      vertex -7.2 0 0
      vertex -6.0303 -3.12044 0
    endloop
  endfacet
  facet normal 0 0 -1
    outer loop
      vertex -6.30648 -3.94012 0
      vertex -7.2 0 0
      vertex -6.19061 -3.52279 0
    endloop
  endfacet
  facet normal 0 0 -1
    outer loop
      vertex -6.37655 -4.36752 0
      vertex -7.2 0 0
      vertex -6.30648 -3.94012 0
    endloop
  endfacet
  facet normal 0 0 -1
    outer loop
      vertex -6.4 -4.8 0
      vertex -7.2 0 0
      vertex -6.37655 -4.36752 0
    endloop
  endfacet
  facet normal 0 0 -1
    outer loop
      vertex 2.4 -9.6 0
      vertex 1.6 -4.8 0
      vertex 2.4 0 0
    endloop
  endfacet
  facet normal 0 0 -1
    outer loop
      vertex 2.4 -9.6 0
      vertex 1.57655 -5.23248 0
      vertex 1.6 -4.8 0
    endloop
  endfacet
  facet normal 0 0 -1
    outer loop
      vertex 2.4 -9.6 0
      vertex 1.50648 -5.65988 0
      vertex 1.57655 -5.23248 0
    endloop
  endfacet
  facet normal 0 0 -1
    outer loop
      vertex 2.4 -9.6 0
      vertex 1.39061 -6.07721 0
      vertex 1.50648 -5.65988 0
    endloop
  endfacet
  facet normal 0 0 -1
    outer loop
      vertex 2.4 -9.6 0
      vertex 1.2303 -6.47956 0
      vertex 1.39061 -6.07721 0
    endloop
  endfacet
  facet normal 0 0 -1
    outer loop
      vertex 2.4 -9.6 0
      vertex 1.02743 -6.86222 0
      vertex 1.2303 -6.47956 0
    endloop
  endfacet
  facet normal 0 0 -1
    outer loop
      vertex 2.4 -9.6 0
      vertex 0.784371 -7.2207 0
      vertex 1.02743 -6.86222 0
    endloop
  endfacet
  facet normal 0 0 -1
    outer loop
      vertex 2.4 -9.6 0
      vertex 0.503982 -7.5508 0
      vertex 0.784371 -7.2207 0
    endloop
  endfacet
  facet normal 0 0 -1
    outer loop
      vertex 2.4 -9.6 0
      vertex 0.189545 -7.84865 0
      vertex 0.503982 -7.5508 0
    endloop
  endfacet
  facet normal 0 0 -1
    outer loop
      vertex 2.4 -9.6 0
      vertex -0.155252 -8.11076 0
      vertex 0.189545 -7.84865 0
    endloop
  endfacet
  facet normal 0 0 -1
    outer loop
      vertex 2.4 -9.6 0
      vertex -0.526366 -8.33405 0
      vertex -0.155252 -8.11076 0
    endloop
  endfacet
  facet normal 0 0 -1
    outer loop
      vertex 2.4 -9.6 0
      vertex -0.919447 -8.51591 0
      vertex -0.526366 -8.33405 0
    endloop
  endfacet
  facet normal 0 0 -1
    outer loop
      vertex 2.4 -9.6 0
      vertex -1.32989 -8.6542 0
      vertex -0.919447 -8.51591 0
    endloop
  endfacet
  facet normal 0 0 -1
    outer loop
      vertex 2.4 -9.6 0
      vertex -1.75287 -8.7473 0
      vertex -1.32989 -8.6542 0
    endloop
  endfacet
  facet normal 0 0 -1
    outer loop
      vertex 2.4 -9.6 0
      vertex -2.18344 -8.79413 0
      vertex -1.75287 -8.7473 0
    endloop
  endfacet
  facet normal 0 0 -1
    outer loop
      vertex 2.4 -9.6 0
      vertex -2.61656 -8.79413 0
      vertex -2.18344 -8.79413 0
    endloop
  endfacet
  facet normal 0 0 -1
    outer loop
      vertex -7.2 -9.6 0
      vertex -2.61656 -8.79413 0
      vertex 2.4 -9.6 0
    endloop
  endfacet
  facet normal -0 0 -1
    outer loop
      vertex -6.37655 -5.23248 0
      vertex -7.2 -9.6 0
      vertex -6.4 -4.8 0
    endloop
  endfacet
  facet normal -0 0 -1
    outer loop
      vertex -6.30648 -5.65988 0
      vertex -7.2 -9.6 0
      vertex -6.37655 -5.23248 0
    endloop
  endfacet
  facet normal -0 0 -1
    outer loop
      vertex -6.19061 -6.07721 0
      vertex -7.2 -9.6 0
      vertex -6.30648 -5.65988 0
    endloop
  endfacet
  facet normal -0 0 -1
    outer loop
      vertex -6.0303 -6.47956 0
      vertex -7.2 -9.6 0
      vertex -6.19061 -6.07721 0
    endloop
  endfacet
  facet normal -0 0 -1
    outer loop
      vertex -5.82743 -6.86222 0
      vertex -7.2 -9.6 0
      vertex -6.0303 -6.47956 0
    endloop
  endfacet
  facet normal -0 0 -1
    outer loop
      vertex -5.58437 -7.2207 0
      vertex -7.2 -9.6 0
      vertex -5.82743 -6.86222 0
    endloop
  endfacet
  facet normal -0 0 -1
    outer loop
      vertex -5.30398 -7.5508 0
      vertex -7.2 -9.6 0
      vertex -5.58437 -7.2207 0
    endloop
  endfacet
  facet normal -0 0 -1
    outer loop
      vertex -4.98954 -7.84865 0
      vertex -7.2 -9.6 0
      vertex -5.30398 -7.5508 0
    endloop
  endfacet
  facet normal -0 0 -1
    outer loop
      vertex -4.64475 -8.11076 0
      vertex -7.2 -9.6 0
      vertex -4.98954 -7.84865 0
    endloop
  endfacet
  facet normal -0 0 -1
    outer loop
      vertex -4.27363 -8.33405 0
      vertex -7.2 -9.6 0
      vertex -4.64475 -8.11076 0
    endloop
  endfacet
  facet normal -0 0 -1
    outer loop
      vertex -3.88055 -8.51591 0
      vertex -7.2 -9.6 0
      vertex -4.27363 -8.33405 0
    endloop
  endfacet
  facet normal -0 0 -1
    outer loop
      vertex -3.47011 -8.6542 0
      vertex -7.2 -9.6 0
      vertex -3.88055 -8.51591 0
    endloop
  endfacet
  facet normal -0 0 -1
    outer loop
      vertex -3.04713 -8.7473 0
      vertex -7.2 -9.6 0
      vertex -3.47011 -8.6542 0
    endloop
  endfacet
  facet normal -0 0 -1
    outer loop
      vertex -2.61656 -8.79413 0
      vertex -7.2 -9.6 0
      vertex -3.04713 -8.7473 0
    endloop
  endfacet
  facet normal 0 0 -1
    outer loop
      vertex 1.57655 -4.36752 0
      vertex 2.4 0 0
      vertex 1.6 -4.8 0
    endloop
  endfacet
  facet normal 0 0 -1
    outer loop
      vertex 1.50648 -3.94012 0
      vertex 2.4 0 0
      vertex 1.57655 -4.36752 0
    endloop
  endfacet
  facet normal 0 0 -1
    outer loop
      vertex 1.39061 -3.52279 0
      vertex 2.4 0 0
      vertex 1.50648 -3.94012 0
    endloop
  endfacet
  facet normal 0 0 -1
    outer loop
      vertex 1.2303 -3.12044 0
      vertex 2.4 0 0
      vertex 1.39061 -3.52279 0
    endloop
  endfacet
  facet normal 0 0 -1
    outer loop
      vertex 1.02743 -2.73778 0
      vertex 2.4 0 0
      vertex 1.2303 -3.12044 0
    endloop
  endfacet
  facet normal 0 0 -1
    outer loop
      vertex 2.4 0 0
      vertex 1 3 0
      vertex 4 0 0
    endloop
  endfacet
  facet normal 0 0 -1
    outer loop
      vertex 0.784371 -2.3793 0
      vertex 2.4 0 0
      vertex 1.02743 -2.73778 0
    endloop
  endfacet
  facet normal 0 0 -1
    outer loop
      vertex 0.503982 -2.0492 0
      vertex 2.4 0 0
      vertex 0.784371 -2.3793 0
    endloop
  endfacet
  facet normal 0 0 -1
    outer loop
      vertex 0.189545 -1.75135 0
      vertex 2.4 0 0
      vertex 0.503982 -2.0492 0
    endloop
  endfacet
  facet normal -0 0 -1
    outer loop
      vertex 2.4 0 0
      vertex 0.189545 -1.75135 0
      vertex 0 0 0
    endloop
  endfacet
  facet normal 0 0 -1
    outer loop
      vertex 2.4 0 0
      vertex 0 0 0
      vertex 1 3 0
    endloop
  endfacet
  facet normal -0 0 -1
    outer loop
      vertex 1 3 0
      vertex 0 0 0
      vertex 0 3 0
    endloop
  endfacet
  facet normal 0.707107 0.707107 0
    outer loop
      vertex 4 0 1.6
      vertex 1 3 0
      vertex 1 3 1.6
    endloop
  endfacet
  facet normal 0.707107 0.707107 0
    outer loop
      vertex 1 3 0
      vertex 4 0 1.6
      vertex 4 0 0
    endloop
  endfacet
  facet normal 0 1 -0
    outer loop
      vertex 2.4 0 1.6
      vertex 1 0 3.2
      vertex 2.4 0 3.2
    endloop
  endfacet
  facet normal 0 1 0
    outer loop
      vertex 1 0 3.2
      vertex 2.4 0 1.6
      vertex 1 0 1.6
    endloop
  endfacet
  facet normal 0 -1 0
    outer loop
      vertex 2.4 0 0
      vertex 4 0 1.6
      vertex 2.4 0 1.6
    endloop
  endfacet
  facet normal 0 -1 -0
    outer loop
      vertex 4 0 1.6
      vertex 2.4 0 0
      vertex 4 0 0
    endloop
  endfacet
  facet normal 0 -1 0
    outer loop
      vertex 2.4 0 3.2
      vertex 4 0 4.8
      vertex 2.4 0 4.8
    endloop
  endfacet
  facet normal 0 -1 -0
    outer loop
      vertex 4 0 4.8
      vertex 2.4 0 3.2
      vertex 4 0 3.2
    endloop
  endfacet
  facet normal 0 1 -0
    outer loop
      vertex 0 0 0
      vertex -7.2 0 4.8
      vertex 0 0 4.8
    endloop
  endfacet
  facet normal 0 1 0
    outer loop
      vertex -7.2 0 4.8
      vertex 0 0 0
      vertex -7.2 0 0
    endloop
  endfacet
  facet normal -1 0 0
    outer loop
      vertex 0 0 0
      vertex 0 3 4.8
      vertex 0 3 0
    endloop
  endfacet
  facet normal -1 -0 0
    outer loop
      vertex 0 3 4.8
      vertex 0 0 0
      vertex 0 0 4.8
    endloop
  endfacet
  facet normal 0 1 -0
    outer loop
      vertex 1 3 3.2
      vertex 0 3 4.8
      vertex 1 3 4.8
    endloop
  endfacet
  facet normal 0 1 -0
    outer loop
      vertex 1 3 1.6
      vertex 0 3 4.8
      vertex 1 3 3.2
    endloop
  endfacet
  facet normal 0 1 0
    outer loop
      vertex 0 3 0
      vertex 1 3 1.6
      vertex 1 3 0
    endloop
  endfacet
  facet normal 0 1 0
    outer loop
      vertex 1 3 1.6
      vertex 0 3 0
      vertex 0 3 4.8
    endloop
  endfacet
  facet normal 0.707107 0.707107 0
    outer loop
      vertex 4 0 4.8
      vertex 1 3 3.2
      vertex 1 3 4.8
    endloop
  endfacet
  facet normal 0.707107 0.707107 0
    outer loop
      vertex 1 3 3.2
      vertex 4 0 4.8
      vertex 4 0 3.2
    endloop
  endfacet
  facet normal 0 0 1
    outer loop
      vertex 2.4 0 4.8
      vertex 1.6 -4.8 4.8
      vertex 2.4 -9.6 4.8
    endloop
  endfacet
  facet normal 0 0 1
    outer loop
      vertex 2.4 0 4.8
      vertex 1.57655 -4.36752 4.8
      vertex 1.6 -4.8 4.8
    endloop
  endfacet
  facet normal 0 0 1
    outer loop
      vertex 2.4 0 4.8
      vertex 1.50648 -3.94012 4.8
      vertex 1.57655 -4.36752 4.8
    endloop
  endfacet
  facet normal 0 0 1
    outer loop
      vertex 2.4 0 4.8
      vertex 1.39061 -3.52279 4.8
      vertex 1.50648 -3.94012 4.8
    endloop
  endfacet
  facet normal 0 0 1
    outer loop
      vertex 2.4 0 4.8
      vertex 1.2303 -3.12044 4.8
      vertex 1.39061 -3.52279 4.8
    endloop
  endfacet
  facet normal 0 0 1
    outer loop
      vertex 2.4 0 4.8
      vertex 1.02743 -2.73778 4.8
      vertex 1.2303 -3.12044 4.8
    endloop
  endfacet
  facet normal 0 0 1
    outer loop
      vertex 1 3 4.8
      vertex 2.4 0 4.8
      vertex 4 0 4.8
    endloop
  endfacet
  facet normal 0 0 1
    outer loop
      vertex 0 0 4.8
      vertex 2.4 0 4.8
      vertex 1 3 4.8
    endloop
  endfacet
  facet normal 0 0 1
    outer loop
      vertex 2.4 0 4.8
      vertex 0.784371 -2.3793 4.8
      vertex 1.02743 -2.73778 4.8
    endloop
  endfacet
  facet normal 0 -0 1
    outer loop
      vertex 0.189545 -1.75135 4.8
      vertex 2.4 0 4.8
      vertex 0 0 4.8
    endloop
  endfacet
  facet normal 0 0 1
    outer loop
      vertex 2.4 0 4.8
      vertex 0.503982 -2.0492 4.8
      vertex 0.784371 -2.3793 4.8
    endloop
  endfacet
  facet normal 0 0 1
    outer loop
      vertex 0 0 4.8
      vertex 1 3 4.8
      vertex 0 3 4.8
    endloop
  endfacet
  facet normal 0 0 1
    outer loop
      vertex 2.4 0 4.8
      vertex 0.189545 -1.75135 4.8
      vertex 0.503982 -2.0492 4.8
    endloop
  endfacet
  facet normal 0 0 1
    outer loop
      vertex 0 0 4.8
      vertex -0.155252 -1.48924 4.8
      vertex 0.189545 -1.75135 4.8
    endloop
  endfacet
  facet normal 0 0 1
    outer loop
      vertex 0 0 4.8
      vertex -0.526366 -1.26595 4.8
      vertex -0.155252 -1.48924 4.8
    endloop
  endfacet
  facet normal 0 0 1
    outer loop
      vertex 0 0 4.8
      vertex -0.919447 -1.08409 4.8
      vertex -0.526366 -1.26595 4.8
    endloop
  endfacet
  facet normal 0 0 1
    outer loop
      vertex 0 0 4.8
      vertex -1.32989 -0.9458 4.8
      vertex -0.919447 -1.08409 4.8
    endloop
  endfacet
  facet normal 0 0 1
    outer loop
      vertex 0 0 4.8
      vertex -1.75287 -0.852695 4.8
      vertex -1.32989 -0.9458 4.8
    endloop
  endfacet
  facet normal 0 0 1
    outer loop
      vertex 0 0 4.8
      vertex -2.18344 -0.805865 4.8
      vertex -1.75287 -0.852695 4.8
    endloop
  endfacet
  facet normal 0 0 1
    outer loop
      vertex 0 0 4.8
      vertex -2.61656 -0.805865 4.8
      vertex -2.18344 -0.805865 4.8
    endloop
  endfacet
  facet normal -0 0 1
    outer loop
      vertex -7.2 0 4.8
      vertex -2.61656 -0.805865 4.8
      vertex 0 0 4.8
    endloop
  endfacet
  facet normal 0 0 1
    outer loop
      vertex -2.61656 -0.805865 4.8
      vertex -7.2 0 4.8
      vertex -3.04713 -0.852695 4.8
    endloop
  endfacet
  facet normal 0 0 1
    outer loop
      vertex -6.37655 -4.36752 4.8
      vertex -7.2 0 4.8
      vertex -6.4 -4.8 4.8
    endloop
  endfacet
  facet normal 0 0 1
    outer loop
      vertex -6.30648 -3.94012 4.8
      vertex -7.2 0 4.8
      vertex -6.37655 -4.36752 4.8
    endloop
  endfacet
  facet normal 0 0 1
    outer loop
      vertex -6.19061 -3.52279 4.8
      vertex -7.2 0 4.8
      vertex -6.30648 -3.94012 4.8
    endloop
  endfacet
  facet normal 0 0 1
    outer loop
      vertex -6.0303 -3.12044 4.8
      vertex -7.2 0 4.8
      vertex -6.19061 -3.52279 4.8
    endloop
  endfacet
  facet normal 0 0 1
    outer loop
      vertex -5.82743 -2.73778 4.8
      vertex -7.2 0 4.8
      vertex -6.0303 -3.12044 4.8
    endloop
  endfacet
  facet normal 0 0 1
    outer loop
      vertex -5.58437 -2.3793 4.8
      vertex -7.2 0 4.8
      vertex -5.82743 -2.73778 4.8
    endloop
  endfacet
  facet normal 0 0 1
    outer loop
      vertex -5.30398 -2.0492 4.8
      vertex -7.2 0 4.8
      vertex -5.58437 -2.3793 4.8
    endloop
  endfacet
  facet normal 0 0 1
    outer loop
      vertex -4.98954 -1.75135 4.8
      vertex -7.2 0 4.8
      vertex -5.30398 -2.0492 4.8
    endloop
  endfacet
  facet normal 0 0 1
    outer loop
      vertex -4.64475 -1.48924 4.8
      vertex -7.2 0 4.8
      vertex -4.98954 -1.75135 4.8
    endloop
  endfacet
  facet normal 0 0 1
    outer loop
      vertex -4.27363 -1.26595 4.8
      vertex -7.2 0 4.8
      vertex -4.64475 -1.48924 4.8
    endloop
  endfacet
  facet normal 0 0 1
    outer loop
      vertex -3.88055 -1.08409 4.8
      vertex -7.2 0 4.8
      vertex -4.27363 -1.26595 4.8
    endloop
  endfacet
  facet normal 0 0 1
    outer loop
      vertex -3.47011 -0.9458 4.8
      vertex -7.2 0 4.8
      vertex -3.88055 -1.08409 4.8
    endloop
  endfacet
  facet normal 0 0 1
    outer loop
      vertex -3.04713 -0.852695 4.8
      vertex -7.2 0 4.8
      vertex -3.47011 -0.9458 4.8
    endloop
  endfacet
  facet normal -0 0 1
    outer loop
      vertex 1.57655 -5.23248 4.8
      vertex 2.4 -9.6 4.8
      vertex 1.6 -4.8 4.8
    endloop
  endfacet
  facet normal -0 0 1
    outer loop
      vertex 1.50648 -5.65988 4.8
      vertex 2.4 -9.6 4.8
      vertex 1.57655 -5.23248 4.8
    endloop
  endfacet
  facet normal -0 0 1
    outer loop
      vertex 1.39061 -6.07721 4.8
      vertex 2.4 -9.6 4.8
      vertex 1.50648 -5.65988 4.8
    endloop
  endfacet
  facet normal -0 0 1
    outer loop
      vertex 1.2303 -6.47956 4.8
      vertex 2.4 -9.6 4.8
      vertex 1.39061 -6.07721 4.8
    endloop
  endfacet
  facet normal -0 0 1
    outer loop
      vertex 1.02743 -6.86222 4.8
      vertex 2.4 -9.6 4.8
      vertex 1.2303 -6.47956 4.8
    endloop
  endfacet
  facet normal -0 0 1
    outer loop
      vertex 0.784371 -7.2207 4.8
      vertex 2.4 -9.6 4.8
      vertex 1.02743 -6.86222 4.8
    endloop
  endfacet
  facet normal -0 0 1
    outer loop
      vertex 0.503982 -7.5508 4.8
      vertex 2.4 -9.6 4.8
      vertex 0.784371 -7.2207 4.8
    endloop
  endfacet
  facet normal -0 0 1
    outer loop
      vertex 0.189545 -7.84865 4.8
      vertex 2.4 -9.6 4.8
      vertex 0.503982 -7.5508 4.8
    endloop
  endfacet
  facet normal -0 0 1
    outer loop
      vertex -0.155252 -8.11076 4.8
      vertex 2.4 -9.6 4.8
      vertex 0.189545 -7.84865 4.8
    endloop
  endfacet
  facet normal -0 0 1
    outer loop
      vertex -0.526366 -8.33405 4.8
      vertex 2.4 -9.6 4.8
      vertex -0.155252 -8.11076 4.8
    endloop
  endfacet
  facet normal -0 0 1
    outer loop
      vertex -0.919447 -8.51591 4.8
      vertex 2.4 -9.6 4.8
      vertex -0.526366 -8.33405 4.8
    endloop
  endfacet
  facet normal -0 0 1
    outer loop
      vertex -1.32989 -8.6542 4.8
      vertex 2.4 -9.6 4.8
      vertex -0.919447 -8.51591 4.8
    endloop
  endfacet
  facet normal -0 0 1
    outer loop
      vertex -1.75287 -8.7473 4.8
      vertex 2.4 -9.6 4.8
      vertex -1.32989 -8.6542 4.8
    endloop
  endfacet
  facet normal -0 0 1
    outer loop
      vertex -2.18344 -8.79413 4.8
      vertex 2.4 -9.6 4.8
      vertex -1.75287 -8.7473 4.8
    endloop
  endfacet
  facet normal -0 0 1
    outer loop
      vertex -2.61656 -8.79413 4.8
      vertex 2.4 -9.6 4.8
      vertex -2.18344 -8.79413 4.8
    endloop
  endfacet
  facet normal 0 0 1
    outer loop
      vertex -7.2 -9.6 4.8
      vertex -2.61656 -8.79413 4.8
      vertex -3.04713 -8.7473 4.8
    endloop
  endfacet
  facet normal 0 0 1
    outer loop
      vertex -7.2 -9.6 4.8
      vertex -6.4 -4.8 4.8
      vertex -7.2 0 4.8
    endloop
  endfacet
  facet normal 0 0 1
    outer loop
      vertex -2.61656 -8.79413 4.8
      vertex -7.2 -9.6 4.8
      vertex 2.4 -9.6 4.8
    endloop
  endfacet
  facet normal 0 0 1
    outer loop
      vertex -3.47011 -8.6542 4.8
      vertex -7.2 -9.6 4.8
      vertex -3.04713 -8.7473 4.8
    endloop
  endfacet
  facet normal 0 0 1
    outer loop
      vertex -3.88055 -8.51591 4.8
      vertex -7.2 -9.6 4.8
      vertex -3.47011 -8.6542 4.8
    endloop
  endfacet
  facet normal 0 0 1
    outer loop
      vertex -4.27363 -8.33405 4.8
      vertex -7.2 -9.6 4.8
      vertex -3.88055 -8.51591 4.8
    endloop
  endfacet
  facet normal 0 0 1
    outer loop
      vertex -4.64475 -8.11076 4.8
      vertex -7.2 -9.6 4.8
      vertex -4.27363 -8.33405 4.8
    endloop
  endfacet
  facet normal 0 0 1
    outer loop
      vertex -4.98954 -7.84865 4.8
      vertex -7.2 -9.6 4.8
      vertex -4.64475 -8.11076 4.8
    endloop
  endfacet
  facet normal 0 0 1
    outer loop
      vertex -5.30398 -7.5508 4.8
      vertex -7.2 -9.6 4.8
      vertex -4.98954 -7.84865 4.8
    endloop
  endfacet
  facet normal 0 0 1
    outer loop
      vertex -5.58437 -7.2207 4.8
      vertex -7.2 -9.6 4.8
      vertex -5.30398 -7.5508 4.8
    endloop
  endfacet
  facet normal 0 0 1
    outer loop
      vertex -5.82743 -6.86222 4.8
      vertex -7.2 -9.6 4.8
      vertex -5.58437 -7.2207 4.8
    endloop
  endfacet
  facet normal 0 0 1
    outer loop
      vertex -6.0303 -6.47956 4.8
      vertex -7.2 -9.6 4.8
      vertex -5.82743 -6.86222 4.8
    endloop
  endfacet
  facet normal 0 0 1
    outer loop
      vertex -6.19061 -6.07721 4.8
      vertex -7.2 -9.6 4.8
      vertex -6.0303 -6.47956 4.8
    endloop
  endfacet
  facet normal 0 0 1
    outer loop
      vertex -6.30648 -5.65988 4.8
      vertex -7.2 -9.6 4.8
      vertex -6.19061 -6.07721 4.8
    endloop
  endfacet
  facet normal 0 0 1
    outer loop
      vertex -6.37655 -5.23248 4.8
      vertex -7.2 -9.6 4.8
      vertex -6.30648 -5.65988 4.8
    endloop
  endfacet
  facet normal 0 0 1
    outer loop
      vertex -6.4 -4.8 4.8
      vertex -7.2 -9.6 4.8
      vertex -6.37655 -5.23248 4.8
    endloop
  endfacet
  facet normal -1 0 0
    outer loop
      vertex -7.2 -9.6 0
      vertex -7.2 0 4.8
      vertex -7.2 0 0
    endloop
  endfacet
  facet normal -1 -0 0
    outer loop
      vertex -7.2 0 4.8
      vertex -7.2 -9.6 0
      vertex -7.2 -9.6 4.8
    endloop
  endfacet
  facet normal 0 -1 0
    outer loop
      vertex -7.2 -9.6 0
      vertex 2.4 -9.6 4.8
      vertex -7.2 -9.6 4.8
    endloop
  endfacet
  facet normal 0 -1 -0
    outer loop
      vertex 2.4 -9.6 4.8
      vertex -7.2 -9.6 0
      vertex 2.4 -9.6 0
    endloop
  endfacet
  facet normal 0.936326 -0.153485 -0.315811
    outer loop
      vertex -5.52519 -4.11209 2.4
      vertex -5.58124 -4.45402 2.4
      vertex -6.37655 -4.36752 0
    endloop
  endfacet
  facet normal 0.936323 -0.153505 -0.315808
    outer loop
      vertex -6.30648 -3.94012 0
      vertex -5.52519 -4.11209 2.4
      vertex -6.37655 -4.36752 0
    endloop
  endfacet
  facet normal 0.914234 -0.253855 -0.315807
    outer loop
      vertex -5.43249 -3.77824 2.4
      vertex -5.52519 -4.11209 2.4
      vertex -6.30648 -3.94012 0
    endloop
  endfacet
  facet normal 0.914238 -0.253835 -0.31581
    outer loop
      vertex -6.19061 -3.52279 0
      vertex -5.43249 -3.77824 2.4
      vertex -6.30648 -3.94012 0
    endloop
  endfacet
  facet normal 0.881436 -0.351189 -0.315811
    outer loop
      vertex -5.30424 -3.45635 2.4
      vertex -5.43249 -3.77824 2.4
      vertex -6.19061 -3.52279 0
    endloop
  endfacet
  facet normal 0.881435 -0.351194 -0.31581
    outer loop
      vertex -6.0303 -3.12044 0
      vertex -5.30424 -3.45635 2.4
      vertex -6.19061 -3.52279 0
    endloop
  endfacet
  facet normal 0.83829 -0.444448 -0.31581
    outer loop
      vertex -5.14194 -3.15023 2.4
      vertex -5.30424 -3.45635 2.4
      vertex -6.0303 -3.12044 0
    endloop
  endfacet
  facet normal 0.838298 -0.44443 -0.315813
    outer loop
      vertex -5.82743 -2.73778 0
      vertex -5.14194 -3.15023 2.4
      vertex -6.0303 -3.12044 0
    endloop
  endfacet
  facet normal 0.78534 -0.53245 -0.315813
    outer loop
      vertex -4.9475 -2.86344 2.4
      vertex -5.14194 -3.15023 2.4
      vertex -5.82743 -2.73778 0
    endloop
  endfacet
  facet normal 0.785326 -0.532474 -0.315809
    outer loop
      vertex -5.58437 -2.3793 0
      vertex -4.9475 -2.86344 2.4
      vertex -5.82743 -2.73778 0
    endloop
  endfacet
  facet normal 0.723145 -0.614268 -0.315809
    outer loop
      vertex -4.72318 -2.59936 2.4
      vertex -4.9475 -2.86344 2.4
      vertex -5.58437 -2.3793 0
    endloop
  endfacet
  facet normal 0.723156 -0.614255 -0.315811
    outer loop
      vertex -5.30398 -2.0492 0
      vertex -4.72318 -2.59936 2.4
      vertex -5.58437 -2.3793 0
    endloop
  endfacet
  facet normal 0.652517 -0.688829 -0.315812
    outer loop
      vertex -4.47164 -2.36108 2.4
      vertex -4.72318 -2.59936 2.4
      vertex -5.30398 -2.0492 0
    endloop
  endfacet
  facet normal 0.652501 -0.688845 -0.315808
    outer loop
      vertex -4.98954 -1.75135 0
      vertex -4.47164 -2.36108 2.4
      vertex -5.30398 -2.0492 0
    endloop
  endfacet
  facet normal 0.574189 -0.755362 -0.315808
    outer loop
      vertex -4.1958 -2.1514 2.4
      vertex -4.47164 -2.36108 2.4
      vertex -4.98954 -1.75135 0
    endloop
  endfacet
  facet normal 0.574213 -0.755342 -0.315813
    outer loop
      vertex -4.64475 -1.48924 0
      vertex -4.1958 -2.1514 2.4
      vertex -4.98954 -1.75135 0
    endloop
  endfacet
  facet normal 0.489183 -0.812996 -0.315813
    outer loop
      vertex -3.89891 -1.97276 2.4
      vertex -4.1958 -2.1514 2.4
      vertex -4.64475 -1.48924 0
    endloop
  endfacet
  facet normal 0.48916 -0.813011 -0.315809
    outer loop
      vertex -4.27363 -1.26595 0
      vertex -3.89891 -1.97276 2.4
      vertex -4.64475 -1.48924 0
    endloop
  endfacet
  facet normal 0.398379 -0.861138 -0.315809
    outer loop
      vertex -3.58444 -1.82728 2.4
      vertex -3.89891 -1.97276 2.4
      vertex -4.27363 -1.26595 0
    endloop
  endfacet
  facet normal 0.398403 -0.861126 -0.315813
    outer loop
      vertex -3.88055 -1.08409 0
      vertex -3.58444 -1.82728 2.4
      vertex -4.27363 -1.26595 0
    endloop
  endfacet
  facet normal 0.302975 -0.899149 -0.315813
    outer loop
      vertex -3.25609 -1.71664 2.4
      vertex -3.58444 -1.82728 2.4
      vertex -3.88055 -1.08409 0
    endloop
  endfacet
  facet normal 0.302954 -0.899157 -0.31581
    outer loop
      vertex -3.47011 -0.9458 0
      vertex -3.25609 -1.71664 2.4
      vertex -3.88055 -1.08409 0
    endloop
  endfacet
  facet normal 0.203981 -0.926637 -0.31581
    outer loop
      vertex -2.9177 -1.64215 2.4
      vertex -3.25609 -1.71664 2.4
      vertex -3.47011 -0.9458 0
    endloop
  endfacet
  facet normal 0.203969 -0.92664 -0.315808
    outer loop
      vertex -3.04713 -0.852695 0
      vertex -2.9177 -1.64215 2.4
      vertex -3.47011 -0.9458 0
    endloop
  endfacet
  facet normal 0.10258 -0.943262 -0.315808
    outer loop
      vertex -2.57324 -1.60469 2.4
      vertex -2.9177 -1.64215 2.4
      vertex -3.04713 -0.852695 0
    endloop
  endfacet
  facet normal 0.102592 -0.94326 -0.31581
    outer loop
      vertex -2.61656 -0.805865 0
      vertex -2.57324 -1.60469 2.4
      vertex -3.04713 -0.852695 0
    endloop
  endfacet
  facet normal 0 -0.948823 -0.31581
    outer loop
      vertex -2.61656 -0.805865 0
      vertex -2.22676 -1.60469 2.4
      vertex -2.57324 -1.60469 2.4
    endloop
  endfacet
  facet normal 0 -0.948823 -0.31581
    outer loop
      vertex -2.22676 -1.60469 2.4
      vertex -2.61656 -0.805865 0
      vertex -2.18344 -0.805865 0
    endloop
  endfacet
  facet normal -0.10258 -0.943261 -0.31581
    outer loop
      vertex -2.18344 -0.805865 0
      vertex -1.8823 -1.64215 2.4
      vertex -2.22676 -1.60469 2.4
    endloop
  endfacet
  facet normal -0.102592 -0.94326 -0.315808
    outer loop
      vertex -1.75287 -0.852695 0
      vertex -1.8823 -1.64215 2.4
      vertex -2.18344 -0.805865 0
    endloop
  endfacet
  facet normal -0.203981 -0.926637 -0.315808
    outer loop
      vertex -1.75287 -0.852695 0
      vertex -1.54391 -1.71664 2.4
      vertex -1.8823 -1.64215 2.4
    endloop
  endfacet
  facet normal -0.203969 -0.926639 -0.31581
    outer loop
      vertex -1.32989 -0.9458 0
      vertex -1.54391 -1.71664 2.4
      vertex -1.75287 -0.852695 0
    endloop
  endfacet
  facet normal -0.302975 -0.89915 -0.31581
    outer loop
      vertex -1.32989 -0.9458 0
      vertex -1.21556 -1.82728 2.4
      vertex -1.54391 -1.71664 2.4
    endloop
  endfacet
  facet normal -0.302952 -0.899156 -0.315813
    outer loop
      vertex -0.919447 -1.08409 0
      vertex -1.21556 -1.82728 2.4
      vertex -1.32989 -0.9458 0
    endloop
  endfacet
  facet normal -0.398382 -0.861135 -0.315814
    outer loop
      vertex -0.919447 -1.08409 0
      vertex -0.901093 -1.97276 2.4
      vertex -1.21556 -1.82728 2.4
    endloop
  endfacet
  facet normal -0.398403 -0.861127 -0.31581
    outer loop
      vertex -0.526366 -1.26595 0
      vertex -0.901093 -1.97276 2.4
      vertex -0.919447 -1.08409 0
    endloop
  endfacet
  facet normal -0.489181 -0.812998 -0.31581
    outer loop
      vertex -0.526366 -1.26595 0
      vertex -0.604201 -2.1514 2.4
      vertex -0.901093 -1.97276 2.4
    endloop
  endfacet
  facet normal -0.489166 -0.813006 -0.315813
    outer loop
      vertex -0.526366 -1.26595 0
      vertex -0.155252 -1.48924 0
      vertex -0.604201 -2.1514 2.4
    endloop
  endfacet
  facet normal -0.574191 -0.755359 -0.315813
    outer loop
      vertex -0.155252 -1.48924 0
      vertex -0.328363 -2.36108 2.4
      vertex -0.604201 -2.1514 2.4
    endloop
  endfacet
  facet normal -0.574206 -0.755349 -0.31581
    outer loop
      vertex -0.155252 -1.48924 0
      vertex 0.189545 -1.75135 0
      vertex -0.328363 -2.36108 2.4
    endloop
  endfacet
  facet normal -0.652504 -0.688841 -0.31581
    outer loop
      vertex 0.189545 -1.75135 0
      vertex -0.0768137 -2.59936 2.4
      vertex -0.328363 -2.36108 2.4
    endloop
  endfacet
  facet normal -0.652504 -0.688841 -0.31581
    outer loop
      vertex 0.189545 -1.75135 0
      vertex 0.503982 -2.0492 0
      vertex -0.0768137 -2.59936 2.4
    endloop
  endfacet
  facet normal -0.723158 -0.614253 -0.31581
    outer loop
      vertex 0.503982 -2.0492 0
      vertex 0.147497 -2.86344 2.4
      vertex -0.0768137 -2.59936 2.4
    endloop
  endfacet
  facet normal -0.723157 -0.614254 -0.31581
    outer loop
      vertex 0.503982 -2.0492 0
      vertex 0.784371 -2.3793 0
      vertex 0.147497 -2.86344 2.4
    endloop
  endfacet
  facet normal -0.785333 -0.532462 -0.31581
    outer loop
      vertex 0.784371 -2.3793 0
      vertex 0.341943 -3.15023 2.4
      vertex 0.147497 -2.86344 2.4
    endloop
  endfacet
  facet normal -0.785326 -0.532472 -0.315812
    outer loop
      vertex 0.784371 -2.3793 0
      vertex 1.02743 -2.73778 0
      vertex 0.341943 -3.15023 2.4
    endloop
  endfacet
  facet normal -0.838292 -0.444444 -0.315812
    outer loop
      vertex 1.02743 -2.73778 0
      vertex 0.504241 -3.45635 2.4
      vertex 0.341943 -3.15023 2.4
    endloop
  endfacet
  facet normal -0.838299 -0.444431 -0.31581
    outer loop
      vertex 1.02743 -2.73778 0
      vertex 1.2303 -3.12044 0
      vertex 0.504241 -3.45635 2.4
    endloop
  endfacet
  facet normal -0.881439 -0.351184 -0.315809
    outer loop
      vertex 1.2303 -3.12044 0
      vertex 0.632489 -3.77824 2.4
      vertex 0.504241 -3.45635 2.4
    endloop
  endfacet
  facet normal -0.881434 -0.351194 -0.315811
    outer loop
      vertex 1.2303 -3.12044 0
      vertex 1.39061 -3.52279 0
      vertex 0.632489 -3.77824 2.4
    endloop
  endfacet
  facet normal -0.914236 -0.253844 -0.315811
    outer loop
      vertex 1.39061 -3.52279 0
      vertex 0.725185 -4.11209 2.4
      vertex 0.632489 -3.77824 2.4
    endloop
  endfacet
  facet normal -0.914239 -0.253835 -0.315809
    outer loop
      vertex 1.39061 -3.52279 0
      vertex 1.50648 -3.94012 0
      vertex 0.725185 -4.11209 2.4
    endloop
  endfacet
  facet normal -0.936324 -0.153498 -0.315809
    outer loop
      vertex 1.50648 -3.94012 0
      vertex 0.78124 -4.45402 2.4
      vertex 0.725185 -4.11209 2.4
    endloop
  endfacet
  facet normal -0.936323 -0.153505 -0.31581
    outer loop
      vertex 1.50648 -3.94012 0
      vertex 1.57655 -4.36752 0
      vertex 0.78124 -4.45402 2.4
    endloop
  endfacet
  facet normal -0.947431 -0.0513696 -0.31581
    outer loop
      vertex 1.57655 -4.36752 0
      vertex 0.799999 -4.8 2.4
      vertex 0.78124 -4.45402 2.4
    endloop
  endfacet
  facet normal -0.947431 -0.0513717 -0.315811
    outer loop
      vertex 1.57655 -4.36752 0
      vertex 1.6 -4.8 0
      vertex 0.799999 -4.8 2.4
    endloop
  endfacet
  facet normal -0.947431 0.0513696 -0.315811
    outer loop
      vertex 0.799999 -4.8 2.4
      vertex 1.6 -4.8 0
      vertex 0.78124 -5.14598 2.4
    endloop
  endfacet
  facet normal -0.947431 0.0513717 -0.31581
    outer loop
      vertex 1.6 -4.8 0
      vertex 1.57655 -5.23248 0
      vertex 0.78124 -5.14598 2.4
    endloop
  endfacet
  facet normal -0.936324 0.153498 -0.31581
    outer loop
      vertex 0.78124 -5.14598 2.4
      vertex 1.57655 -5.23248 0
      vertex 0.725185 -5.48791 2.4
    endloop
  endfacet
  facet normal -0.936323 0.153505 -0.315809
    outer loop
      vertex 1.57655 -5.23248 0
      vertex 1.50648 -5.65988 0
      vertex 0.725185 -5.48791 2.4
    endloop
  endfacet
  facet normal -0.914236 0.253845 -0.315809
    outer loop
      vertex 0.725185 -5.48791 2.4
      vertex 1.50648 -5.65988 0
      vertex 0.632489 -5.82176 2.4
    endloop
  endfacet
  facet normal -0.914238 0.253835 -0.315811
    outer loop
      vertex 1.50648 -5.65988 0
      vertex 1.39061 -6.07721 0
      vertex 0.632489 -5.82176 2.4
    endloop
  endfacet
  facet normal -0.881438 0.351184 -0.315811
    outer loop
      vertex 0.632489 -5.82176 2.4
      vertex 1.39061 -6.07721 0
      vertex 0.504241 -6.14365 2.4
    endloop
  endfacet
  facet normal -0.881435 0.351194 -0.31581
    outer loop
      vertex 1.39061 -6.07721 0
      vertex 1.2303 -6.47956 0
      vertex 0.504241 -6.14365 2.4
    endloop
  endfacet
  facet normal -0.838292 0.444444 -0.31581
    outer loop
      vertex 0.504241 -6.14365 2.4
      vertex 1.2303 -6.47956 0
      vertex 0.341943 -6.44977 2.4
    endloop
  endfacet
  facet normal -0.838299 0.44443 -0.315812
    outer loop
      vertex 1.2303 -6.47956 0
      vertex 1.02743 -6.86222 0
      vertex 0.341943 -6.44977 2.4
    endloop
  endfacet
  facet normal -0.785332 0.532462 -0.315812
    outer loop
      vertex 0.341943 -6.44977 2.4
      vertex 1.02743 -6.86222 0
      vertex 0.147497 -6.73656 2.4
    endloop
  endfacet
  facet normal -0.785326 0.532472 -0.31581
    outer loop
      vertex 1.02743 -6.86222 0
      vertex 0.784371 -7.2207 0
      vertex 0.147497 -6.73656 2.4
    endloop
  endfacet
  facet normal -0.723158 0.614253 -0.31581
    outer loop
      vertex 0.147497 -6.73656 2.4
      vertex 0.784371 -7.2207 0
      vertex -0.0768137 -7.00064 2.4
    endloop
  endfacet
  facet normal -0.723157 0.614254 -0.31581
    outer loop
      vertex 0.784371 -7.2207 0
      vertex 0.503982 -7.5508 0
      vertex -0.0768137 -7.00064 2.4
    endloop
  endfacet
  facet normal -0.652504 0.688841 -0.31581
    outer loop
      vertex -0.0768137 -7.00064 2.4
      vertex 0.503982 -7.5508 0
      vertex -0.328363 -7.23892 2.4
    endloop
  endfacet
  facet normal -0.652504 0.688841 -0.31581
    outer loop
      vertex 0.503982 -7.5508 0
      vertex 0.189545 -7.84865 0
      vertex -0.328363 -7.23892 2.4
    endloop
  endfacet
  facet normal -0.574191 0.75536 -0.31581
    outer loop
      vertex -0.328363 -7.23892 2.4
      vertex 0.189545 -7.84865 0
      vertex -0.604201 -7.4486 2.4
    endloop
  endfacet
  facet normal -0.574205 0.755348 -0.315813
    outer loop
      vertex 0.189545 -7.84865 0
      vertex -0.155252 -8.11076 0
      vertex -0.604201 -7.4486 2.4
    endloop
  endfacet
  facet normal -0.489181 0.812997 -0.315813
    outer loop
      vertex -0.604201 -7.4486 2.4
      vertex -0.155252 -8.11076 0
      vertex -0.901093 -7.62724 2.4
    endloop
  endfacet
  facet normal -0.489166 0.813007 -0.31581
    outer loop
      vertex -0.155252 -8.11076 0
      vertex -0.526366 -8.33405 0
      vertex -0.901093 -7.62724 2.4
    endloop
  endfacet
  facet normal -0.398405 0.861126 -0.315811
    outer loop
      vertex -0.901093 -7.62724 2.4
      vertex -0.526366 -8.33405 0
      vertex -1.21556 -7.77273 2.4
    endloop
  endfacet
  facet normal -0.398403 0.861127 -0.31581
    outer loop
      vertex -0.526366 -8.33405 0
      vertex -0.919447 -8.51591 0
      vertex -1.21556 -7.77273 2.4
    endloop
  endfacet
  facet normal -0.302951 0.899158 -0.31581
    outer loop
      vertex -1.21556 -7.77273 2.4
      vertex -0.919447 -8.51591 0
      vertex -1.54391 -7.88336 2.4
    endloop
  endfacet
  facet normal -0.302952 0.899157 -0.31581
    outer loop
      vertex -0.919447 -8.51591 0
      vertex -1.32989 -8.6542 0
      vertex -1.54391 -7.88336 2.4
    endloop
  endfacet
  facet normal -0.203955 0.926643 -0.31581
    outer loop
      vertex -1.54391 -7.88336 2.4
      vertex -1.32989 -8.6542 0
      vertex -1.8823 -7.95784 2.4
    endloop
  endfacet
  facet normal -0.203958 0.926642 -0.31581
    outer loop
      vertex -1.32989 -8.6542 0
      vertex -1.75287 -8.7473 0
      vertex -1.8823 -7.95784 2.4
    endloop
  endfacet
  facet normal -0.102607 0.943258 -0.31581
    outer loop
      vertex -1.8823 -7.95784 2.4
      vertex -1.75287 -8.7473 0
      vertex -2.22676 -7.99531 2.4
    endloop
  endfacet
  facet normal -0.102592 0.94326 -0.315808
    outer loop
      vertex -1.75287 -8.7473 0
      vertex -2.18344 -8.79413 0
      vertex -2.22676 -7.99531 2.4
    endloop
  endfacet
  facet normal 0 0.948823 -0.315808
    outer loop
      vertex -2.18344 -8.79413 0
      vertex -2.57324 -7.99531 2.4
      vertex -2.22676 -7.99531 2.4
    endloop
  endfacet
  facet normal 0 0.948823 -0.315808
    outer loop
      vertex -2.57324 -7.99531 2.4
      vertex -2.18344 -8.79413 0
      vertex -2.61656 -8.79413 0
    endloop
  endfacet
  facet normal 0.102607 0.943259 -0.315808
    outer loop
      vertex -2.57324 -7.99531 2.4
      vertex -2.61656 -8.79413 0
      vertex -2.9177 -7.95784 2.4
    endloop
  endfacet
  facet normal 0.102592 0.94326 -0.31581
    outer loop
      vertex -2.9177 -7.95784 2.4
      vertex -2.61656 -8.79413 0
      vertex -3.04713 -8.7473 0
    endloop
  endfacet
  facet normal 0.203955 0.926642 -0.31581
    outer loop
      vertex -2.9177 -7.95784 2.4
      vertex -3.04713 -8.7473 0
      vertex -3.25609 -7.88336 2.4
    endloop
  endfacet
  facet normal 0.203958 0.926642 -0.31581
    outer loop
      vertex -3.25609 -7.88336 2.4
      vertex -3.04713 -8.7473 0
      vertex -3.47011 -8.6542 0
    endloop
  endfacet
  facet normal 0.302951 0.899158 -0.31581
    outer loop
      vertex -3.25609 -7.88336 2.4
      vertex -3.47011 -8.6542 0
      vertex -3.58444 -7.77273 2.4
    endloop
  endfacet
  facet normal 0.302954 0.899157 -0.31581
    outer loop
      vertex -3.58444 -7.77273 2.4
      vertex -3.47011 -8.6542 0
      vertex -3.88055 -8.51591 0
    endloop
  endfacet
  facet normal 0.398402 0.861127 -0.31581
    outer loop
      vertex -3.58444 -7.77273 2.4
      vertex -3.88055 -8.51591 0
      vertex -3.89891 -7.62724 2.4
    endloop
  endfacet
  facet normal 0.398404 0.861127 -0.315809
    outer loop
      vertex -3.89891 -7.62724 2.4
      vertex -3.88055 -8.51591 0
      vertex -4.27363 -8.33405 0
    endloop
  endfacet
  facet normal 0.489184 0.812997 -0.315809
    outer loop
      vertex -4.1958 -7.4486 2.4
      vertex -3.89891 -7.62724 2.4
      vertex -4.27363 -8.33405 0
    endloop
  endfacet
  facet normal 0.48916 0.81301 -0.315813
    outer loop
      vertex -4.1958 -7.4486 2.4
      vertex -4.27363 -8.33405 0
      vertex -4.64475 -8.11076 0
    endloop
  endfacet
  facet normal 0.574188 0.755361 -0.315813
    outer loop
      vertex -4.47164 -7.23892 2.4
      vertex -4.1958 -7.4486 2.4
      vertex -4.64475 -8.11076 0
    endloop
  endfacet
  facet normal 0.574214 0.755343 -0.315809
    outer loop
      vertex -4.47164 -7.23892 2.4
      vertex -4.64475 -8.11076 0
      vertex -4.98954 -7.84865 0
    endloop
  endfacet
  facet normal 0.652518 0.68883 -0.315808
    outer loop
      vertex -4.72318 -7.00064 2.4
      vertex -4.47164 -7.23892 2.4
      vertex -4.98954 -7.84865 0
    endloop
  endfacet
  facet normal 0.652501 0.688844 -0.315811
    outer loop
      vertex -4.72318 -7.00064 2.4
      vertex -4.98954 -7.84865 0
      vertex -5.30398 -7.5508 0
    endloop
  endfacet
  facet normal 0.723145 0.614268 -0.315812
    outer loop
      vertex -4.9475 -6.73656 2.4
      vertex -4.72318 -7.00064 2.4
      vertex -5.30398 -7.5508 0
    endloop
  endfacet
  facet normal 0.723156 0.614255 -0.315809
    outer loop
      vertex -4.9475 -6.73656 2.4
      vertex -5.30398 -7.5508 0
      vertex -5.58437 -7.2207 0
    endloop
  endfacet
  facet normal 0.785341 0.532451 -0.315809
    outer loop
      vertex -5.14194 -6.44977 2.4
      vertex -4.9475 -6.73656 2.4
      vertex -5.58437 -7.2207 0
    endloop
  endfacet
  facet normal 0.785325 0.532473 -0.315813
    outer loop
      vertex -5.14194 -6.44977 2.4
      vertex -5.58437 -7.2207 0
      vertex -5.82743 -6.86222 0
    endloop
  endfacet
  facet normal 0.838289 0.444448 -0.315813
    outer loop
      vertex -5.30424 -6.14365 2.4
      vertex -5.14194 -6.44977 2.4
      vertex -5.82743 -6.86222 0
    endloop
  endfacet
  facet normal 0.838299 0.44443 -0.31581
    outer loop
      vertex -5.30424 -6.14365 2.4
      vertex -5.82743 -6.86222 0
      vertex -6.0303 -6.47956 0
    endloop
  endfacet
  facet normal 0.881437 0.351189 -0.31581
    outer loop
      vertex -5.43249 -5.82176 2.4
      vertex -5.30424 -6.14365 2.4
      vertex -6.0303 -6.47956 0
    endloop
  endfacet
  facet normal 0.881434 0.351194 -0.315811
    outer loop
      vertex -5.43249 -5.82176 2.4
      vertex -6.0303 -6.47956 0
      vertex -6.19061 -6.07721 0
    endloop
  endfacet
  facet normal 0.914233 0.253855 -0.315811
    outer loop
      vertex -5.52519 -5.48791 2.4
      vertex -5.43249 -5.82176 2.4
      vertex -6.19061 -6.07721 0
    endloop
  endfacet
  facet normal 0.914239 0.253835 -0.315807
    outer loop
      vertex -5.52519 -5.48791 2.4
      vertex -6.19061 -6.07721 0
      vertex -6.30648 -5.65988 0
    endloop
  endfacet
  facet normal 0.936327 0.153485 -0.315807
    outer loop
      vertex -5.58124 -5.14598 2.4
      vertex -5.52519 -5.48791 2.4
      vertex -6.30648 -5.65988 0
    endloop
  endfacet
  facet normal 0.936323 0.153505 -0.31581
    outer loop
      vertex -5.58124 -5.14598 2.4
      vertex -6.30648 -5.65988 0
      vertex -6.37655 -5.23248 0
    endloop
  endfacet
  facet normal 0.947431 0.0513723 -0.31581
    outer loop
      vertex -5.6 -4.8 2.4
      vertex -5.58124 -5.14598 2.4
      vertex -6.37655 -5.23248 0
    endloop
  endfacet
  facet normal 0.947431 0.0513717 -0.31581
    outer loop
      vertex -5.6 -4.8 2.4
      vertex -6.37655 -5.23248 0
      vertex -6.4 -4.8 0
    endloop
  endfacet
  facet normal 0.947431 -0.0513723 -0.31581
    outer loop
      vertex -5.58124 -4.45402 2.4
      vertex -5.6 -4.8 2.4
      vertex -6.4 -4.8 0
    endloop
  endfacet
  facet normal 0.947431 -0.0513717 -0.31581
    outer loop
      vertex -6.37655 -4.36752 0
      vertex -5.58124 -4.45402 2.4
      vertex -6.4 -4.8 0
    endloop
  endfacet
  facet normal -0.936324 -0.153498 0.31581
    outer loop
      vertex 0.78124 -4.45402 2.4
      vertex 1.57655 -4.36752 4.8
      vertex 0.725185 -4.11209 2.4
    endloop
  endfacet
  facet normal -0.936323 -0.153505 0.315809
    outer loop
      vertex 1.57655 -4.36752 4.8
      vertex 1.50648 -3.94012 4.8
      vertex 0.725185 -4.11209 2.4
    endloop
  endfacet
  facet normal -0.914236 -0.253845 0.315809
    outer loop
      vertex 0.725185 -4.11209 2.4
      vertex 1.50648 -3.94012 4.8
      vertex 0.632489 -3.77824 2.4
    endloop
  endfacet
  facet normal -0.914238 -0.253835 0.315811
    outer loop
      vertex 1.50648 -3.94012 4.8
      vertex 1.39061 -3.52279 4.8
      vertex 0.632489 -3.77824 2.4
    endloop
  endfacet
  facet normal -0.881438 -0.351184 0.315811
    outer loop
      vertex 0.632489 -3.77824 2.4
      vertex 1.39061 -3.52279 4.8
      vertex 0.504241 -3.45635 2.4
    endloop
  endfacet
  facet normal -0.881435 -0.351194 0.31581
    outer loop
      vertex 1.39061 -3.52279 4.8
      vertex 1.2303 -3.12044 4.8
      vertex 0.504241 -3.45635 2.4
    endloop
  endfacet
  facet normal -0.838292 -0.444444 0.31581
    outer loop
      vertex 0.504241 -3.45635 2.4
      vertex 1.2303 -3.12044 4.8
      vertex 0.341943 -3.15023 2.4
    endloop
  endfacet
  facet normal -0.838299 -0.44443 0.315812
    outer loop
      vertex 1.2303 -3.12044 4.8
      vertex 1.02743 -2.73778 4.8
      vertex 0.341943 -3.15023 2.4
    endloop
  endfacet
  facet normal -0.785332 -0.532462 0.315812
    outer loop
      vertex 0.341943 -3.15023 2.4
      vertex 1.02743 -2.73778 4.8
      vertex 0.147497 -2.86344 2.4
    endloop
  endfacet
  facet normal -0.785326 -0.532472 0.31581
    outer loop
      vertex 1.02743 -2.73778 4.8
      vertex 0.784371 -2.3793 4.8
      vertex 0.147497 -2.86344 2.4
    endloop
  endfacet
  facet normal -0.723158 -0.614253 0.31581
    outer loop
      vertex 0.147497 -2.86344 2.4
      vertex 0.784371 -2.3793 4.8
      vertex -0.0768137 -2.59936 2.4
    endloop
  endfacet
  facet normal -0.723157 -0.614254 0.31581
    outer loop
      vertex 0.784371 -2.3793 4.8
      vertex 0.503982 -2.0492 4.8
      vertex -0.0768137 -2.59936 2.4
    endloop
  endfacet
  facet normal -0.652504 -0.688841 0.31581
    outer loop
      vertex -0.0768137 -2.59936 2.4
      vertex 0.503982 -2.0492 4.8
      vertex -0.328363 -2.36108 2.4
    endloop
  endfacet
  facet normal -0.652504 -0.688841 0.31581
    outer loop
      vertex 0.503982 -2.0492 4.8
      vertex 0.189545 -1.75135 4.8
      vertex -0.328363 -2.36108 2.4
    endloop
  endfacet
  facet normal -0.574191 -0.75536 0.31581
    outer loop
      vertex -0.328363 -2.36108 2.4
      vertex 0.189545 -1.75135 4.8
      vertex -0.604201 -2.1514 2.4
    endloop
  endfacet
  facet normal -0.574205 -0.755348 0.315813
    outer loop
      vertex 0.189545 -1.75135 4.8
      vertex -0.155252 -1.48924 4.8
      vertex -0.604201 -2.1514 2.4
    endloop
  endfacet
  facet normal -0.489181 -0.812997 0.315813
    outer loop
      vertex -0.604201 -2.1514 2.4
      vertex -0.155252 -1.48924 4.8
      vertex -0.901093 -1.97276 2.4
    endloop
  endfacet
  facet normal -0.489166 -0.813007 0.31581
    outer loop
      vertex -0.155252 -1.48924 4.8
      vertex -0.526366 -1.26595 4.8
      vertex -0.901093 -1.97276 2.4
    endloop
  endfacet
  facet normal -0.398382 -0.861136 0.31581
    outer loop
      vertex -0.901093 -1.97276 2.4
      vertex -0.526366 -1.26595 4.8
      vertex -1.21556 -1.82728 2.4
    endloop
  endfacet
  facet normal -0.398402 -0.861126 0.315813
    outer loop
      vertex -0.526366 -1.26595 4.8
      vertex -0.919447 -1.08409 4.8
      vertex -1.21556 -1.82728 2.4
    endloop
  endfacet
  facet normal -0.302975 -0.899148 0.315814
    outer loop
      vertex -1.21556 -1.82728 2.4
      vertex -0.919447 -1.08409 4.8
      vertex -1.54391 -1.71664 2.4
    endloop
  endfacet
  facet normal -0.302952 -0.899157 0.31581
    outer loop
      vertex -0.919447 -1.08409 4.8
      vertex -1.32989 -0.9458 4.8
      vertex -1.54391 -1.71664 2.4
    endloop
  endfacet
  facet normal -0.203981 -0.926637 0.31581
    outer loop
      vertex -1.54391 -1.71664 2.4
      vertex -1.32989 -0.9458 4.8
      vertex -1.8823 -1.64215 2.4
    endloop
  endfacet
  facet normal -0.203969 -0.92664 0.315808
    outer loop
      vertex -1.32989 -0.9458 4.8
      vertex -1.75287 -0.852695 4.8
      vertex -1.8823 -1.64215 2.4
    endloop
  endfacet
  facet normal -0.10258 -0.943262 0.315808
    outer loop
      vertex -1.8823 -1.64215 2.4
      vertex -1.75287 -0.852695 4.8
      vertex -2.22676 -1.60469 2.4
    endloop
  endfacet
  facet normal -0.102592 -0.94326 0.31581
    outer loop
      vertex -1.75287 -0.852695 4.8
      vertex -2.18344 -0.805865 4.8
      vertex -2.22676 -1.60469 2.4
    endloop
  endfacet
  facet normal 0 -0.948823 0.31581
    outer loop
      vertex -2.57324 -1.60469 2.4
      vertex -2.18344 -0.805865 4.8
      vertex -2.61656 -0.805865 4.8
    endloop
  endfacet
  facet normal 0 -0.948823 0.31581
    outer loop
      vertex -2.18344 -0.805865 4.8
      vertex -2.57324 -1.60469 2.4
      vertex -2.22676 -1.60469 2.4
    endloop
  endfacet
  facet normal 0.10258 -0.943261 0.31581
    outer loop
      vertex -2.57324 -1.60469 2.4
      vertex -2.61656 -0.805865 4.8
      vertex -2.9177 -1.64215 2.4
    endloop
  endfacet
  facet normal 0.102592 -0.94326 0.315808
    outer loop
      vertex -2.9177 -1.64215 2.4
      vertex -2.61656 -0.805865 4.8
      vertex -3.04713 -0.852695 4.8
    endloop
  endfacet
  facet normal 0.203981 -0.926637 0.315808
    outer loop
      vertex -2.9177 -1.64215 2.4
      vertex -3.04713 -0.852695 4.8
      vertex -3.25609 -1.71664 2.4
    endloop
  endfacet
  facet normal 0.203969 -0.926639 0.31581
    outer loop
      vertex -3.25609 -1.71664 2.4
      vertex -3.04713 -0.852695 4.8
      vertex -3.47011 -0.9458 4.8
    endloop
  endfacet
  facet normal 0.302975 -0.89915 0.31581
    outer loop
      vertex -3.25609 -1.71664 2.4
      vertex -3.47011 -0.9458 4.8
      vertex -3.58444 -1.82728 2.4
    endloop
  endfacet
  facet normal 0.302954 -0.899156 0.315813
    outer loop
      vertex -3.58444 -1.82728 2.4
      vertex -3.47011 -0.9458 4.8
      vertex -3.88055 -1.08409 4.8
    endloop
  endfacet
  facet normal 0.398379 -0.861137 0.315813
    outer loop
      vertex -3.58444 -1.82728 2.4
      vertex -3.88055 -1.08409 4.8
      vertex -3.89891 -1.97276 2.4
    endloop
  endfacet
  facet normal 0.398404 -0.861127 0.315809
    outer loop
      vertex -3.89891 -1.97276 2.4
      vertex -3.88055 -1.08409 4.8
      vertex -4.27363 -1.26595 4.8
    endloop
  endfacet
  facet normal 0.489184 -0.812997 0.315809
    outer loop
      vertex -4.1958 -2.1514 2.4
      vertex -3.89891 -1.97276 2.4
      vertex -4.27363 -1.26595 4.8
    endloop
  endfacet
  facet normal 0.48916 -0.81301 0.315813
    outer loop
      vertex -4.1958 -2.1514 2.4
      vertex -4.27363 -1.26595 4.8
      vertex -4.64475 -1.48924 4.8
    endloop
  endfacet
  facet normal 0.574188 -0.755361 0.315813
    outer loop
      vertex -4.47164 -2.36108 2.4
      vertex -4.1958 -2.1514 2.4
      vertex -4.64475 -1.48924 4.8
    endloop
  endfacet
  facet normal 0.574214 -0.755343 0.315809
    outer loop
      vertex -4.47164 -2.36108 2.4
      vertex -4.64475 -1.48924 4.8
      vertex -4.98954 -1.75135 4.8
    endloop
  endfacet
  facet normal 0.652518 -0.68883 0.315808
    outer loop
      vertex -4.72318 -2.59936 2.4
      vertex -4.47164 -2.36108 2.4
      vertex -4.98954 -1.75135 4.8
    endloop
  endfacet
  facet normal 0.652501 -0.688844 0.315811
    outer loop
      vertex -4.72318 -2.59936 2.4
      vertex -4.98954 -1.75135 4.8
      vertex -5.30398 -2.0492 4.8
    endloop
  endfacet
  facet normal 0.723145 -0.614268 0.315812
    outer loop
      vertex -4.9475 -2.86344 2.4
      vertex -4.72318 -2.59936 2.4
      vertex -5.30398 -2.0492 4.8
    endloop
  endfacet
  facet normal 0.723156 -0.614255 0.315809
    outer loop
      vertex -4.9475 -2.86344 2.4
      vertex -5.30398 -2.0492 4.8
      vertex -5.58437 -2.3793 4.8
    endloop
  endfacet
  facet normal 0.785341 -0.532451 0.315809
    outer loop
      vertex -5.14194 -3.15023 2.4
      vertex -4.9475 -2.86344 2.4
      vertex -5.58437 -2.3793 4.8
    endloop
  endfacet
  facet normal 0.785325 -0.532473 0.315813
    outer loop
      vertex -5.14194 -3.15023 2.4
      vertex -5.58437 -2.3793 4.8
      vertex -5.82743 -2.73778 4.8
    endloop
  endfacet
  facet normal 0.838289 -0.444448 0.315813
    outer loop
      vertex -5.30424 -3.45635 2.4
      vertex -5.14194 -3.15023 2.4
      vertex -5.82743 -2.73778 4.8
    endloop
  endfacet
  facet normal 0.838299 -0.44443 0.31581
    outer loop
      vertex -5.30424 -3.45635 2.4
      vertex -5.82743 -2.73778 4.8
      vertex -6.0303 -3.12044 4.8
    endloop
  endfacet
  facet normal 0.881437 -0.351189 0.31581
    outer loop
      vertex -5.43249 -3.77824 2.4
      vertex -5.30424 -3.45635 2.4
      vertex -6.0303 -3.12044 4.8
    endloop
  endfacet
  facet normal 0.881434 -0.351194 0.315811
    outer loop
      vertex -5.43249 -3.77824 2.4
      vertex -6.0303 -3.12044 4.8
      vertex -6.19061 -3.52279 4.8
    endloop
  endfacet
  facet normal 0.914233 -0.253855 0.315811
    outer loop
      vertex -5.52519 -4.11209 2.4
      vertex -5.43249 -3.77824 2.4
      vertex -6.19061 -3.52279 4.8
    endloop
  endfacet
  facet normal 0.914239 -0.253835 0.315807
    outer loop
      vertex -5.52519 -4.11209 2.4
      vertex -6.19061 -3.52279 4.8
      vertex -6.30648 -3.94012 4.8
    endloop
  endfacet
  facet normal 0.936327 -0.153485 0.315807
    outer loop
      vertex -5.58124 -4.45402 2.4
      vertex -5.52519 -4.11209 2.4
      vertex -6.30648 -3.94012 4.8
    endloop
  endfacet
  facet normal 0.936323 -0.153505 0.31581
    outer loop
      vertex -5.58124 -4.45402 2.4
      vertex -6.30648 -3.94012 4.8
      vertex -6.37655 -4.36752 4.8
    endloop
  endfacet
  facet normal 0.947431 -0.0513723 0.31581
    outer loop
      vertex -5.6 -4.8 2.4
      vertex -5.58124 -4.45402 2.4
      vertex -6.37655 -4.36752 4.8
    endloop
  endfacet
  facet normal 0.947431 -0.0513717 0.31581
    outer loop
      vertex -5.6 -4.8 2.4
      vertex -6.37655 -4.36752 4.8
      vertex -6.4 -4.8 4.8
    endloop
  endfacet
  facet normal 0.947431 0.0513723 0.31581
    outer loop
      vertex -5.58124 -5.14598 2.4
      vertex -5.6 -4.8 2.4
      vertex -6.4 -4.8 4.8
    endloop
  endfacet
  facet normal 0.947431 0.0513717 0.31581
    outer loop
      vertex -6.37655 -5.23248 4.8
      vertex -5.58124 -5.14598 2.4
      vertex -6.4 -4.8 4.8
    endloop
  endfacet
  facet normal 0.936326 0.153485 0.315811
    outer loop
      vertex -5.52519 -5.48791 2.4
      vertex -5.58124 -5.14598 2.4
      vertex -6.37655 -5.23248 4.8
    endloop
  endfacet
  facet normal 0.936323 0.153505 0.315808
    outer loop
      vertex -6.30648 -5.65988 4.8
      vertex -5.52519 -5.48791 2.4
      vertex -6.37655 -5.23248 4.8
    endloop
  endfacet
  facet normal 0.914234 0.253855 0.315807
    outer loop
      vertex -5.43249 -5.82176 2.4
      vertex -5.52519 -5.48791 2.4
      vertex -6.30648 -5.65988 4.8
    endloop
  endfacet
  facet normal 0.914238 0.253835 0.31581
    outer loop
      vertex -6.19061 -6.07721 4.8
      vertex -5.43249 -5.82176 2.4
      vertex -6.30648 -5.65988 4.8
    endloop
  endfacet
  facet normal 0.881436 0.351189 0.315811
    outer loop
      vertex -5.30424 -6.14365 2.4
      vertex -5.43249 -5.82176 2.4
      vertex -6.19061 -6.07721 4.8
    endloop
  endfacet
  facet normal 0.881435 0.351194 0.31581
    outer loop
      vertex -6.0303 -6.47956 4.8
      vertex -5.30424 -6.14365 2.4
      vertex -6.19061 -6.07721 4.8
    endloop
  endfacet
  facet normal 0.83829 0.444448 0.31581
    outer loop
      vertex -5.14194 -6.44977 2.4
      vertex -5.30424 -6.14365 2.4
      vertex -6.0303 -6.47956 4.8
    endloop
  endfacet
  facet normal 0.838298 0.44443 0.315813
    outer loop
      vertex -5.82743 -6.86222 4.8
      vertex -5.14194 -6.44977 2.4
      vertex -6.0303 -6.47956 4.8
    endloop
  endfacet
  facet normal 0.78534 0.53245 0.315813
    outer loop
      vertex -4.9475 -6.73656 2.4
      vertex -5.14194 -6.44977 2.4
      vertex -5.82743 -6.86222 4.8
    endloop
  endfacet
  facet normal 0.785326 0.532474 0.315809
    outer loop
      vertex -5.58437 -7.2207 4.8
      vertex -4.9475 -6.73656 2.4
      vertex -5.82743 -6.86222 4.8
    endloop
  endfacet
  facet normal 0.723145 0.614268 0.315809
    outer loop
      vertex -4.72318 -7.00064 2.4
      vertex -4.9475 -6.73656 2.4
      vertex -5.58437 -7.2207 4.8
    endloop
  endfacet
  facet normal 0.723156 0.614255 0.315811
    outer loop
      vertex -5.30398 -7.5508 4.8
      vertex -4.72318 -7.00064 2.4
      vertex -5.58437 -7.2207 4.8
    endloop
  endfacet
  facet normal 0.652517 0.688829 0.315812
    outer loop
      vertex -4.47164 -7.23892 2.4
      vertex -4.72318 -7.00064 2.4
      vertex -5.30398 -7.5508 4.8
    endloop
  endfacet
  facet normal 0.652501 0.688845 0.315808
    outer loop
      vertex -4.98954 -7.84865 4.8
      vertex -4.47164 -7.23892 2.4
      vertex -5.30398 -7.5508 4.8
    endloop
  endfacet
  facet normal 0.574189 0.755362 0.315808
    outer loop
      vertex -4.1958 -7.4486 2.4
      vertex -4.47164 -7.23892 2.4
      vertex -4.98954 -7.84865 4.8
    endloop
  endfacet
  facet normal 0.574213 0.755342 0.315813
    outer loop
      vertex -4.64475 -8.11076 4.8
      vertex -4.1958 -7.4486 2.4
      vertex -4.98954 -7.84865 4.8
    endloop
  endfacet
  facet normal 0.489183 0.812996 0.315813
    outer loop
      vertex -3.89891 -7.62724 2.4
      vertex -4.1958 -7.4486 2.4
      vertex -4.64475 -8.11076 4.8
    endloop
  endfacet
  facet normal 0.48916 0.813011 0.315809
    outer loop
      vertex -4.27363 -8.33405 4.8
      vertex -3.89891 -7.62724 2.4
      vertex -4.64475 -8.11076 4.8
    endloop
  endfacet
  facet normal 0.398402 0.861127 0.315809
    outer loop
      vertex -3.58444 -7.77273 2.4
      vertex -3.89891 -7.62724 2.4
      vertex -4.27363 -8.33405 4.8
    endloop
  endfacet
  facet normal 0.398404 0.861127 0.31581
    outer loop
      vertex -3.88055 -8.51591 4.8
      vertex -3.58444 -7.77273 2.4
      vertex -4.27363 -8.33405 4.8
    endloop
  endfacet
  facet normal 0.302951 0.899158 0.31581
    outer loop
      vertex -3.25609 -7.88336 2.4
      vertex -3.58444 -7.77273 2.4
      vertex -3.88055 -8.51591 4.8
    endloop
  endfacet
  facet normal 0.302954 0.899157 0.31581
    outer loop
      vertex -3.47011 -8.6542 4.8
      vertex -3.25609 -7.88336 2.4
      vertex -3.88055 -8.51591 4.8
    endloop
  endfacet
  facet normal 0.203955 0.926643 0.31581
    outer loop
      vertex -2.9177 -7.95784 2.4
      vertex -3.25609 -7.88336 2.4
      vertex -3.47011 -8.6542 4.8
    endloop
  endfacet
  facet normal 0.203958 0.926642 0.31581
    outer loop
      vertex -3.04713 -8.7473 4.8
      vertex -2.9177 -7.95784 2.4
      vertex -3.47011 -8.6542 4.8
    endloop
  endfacet
  facet normal 0.102607 0.943258 0.31581
    outer loop
      vertex -2.57324 -7.99531 2.4
      vertex -2.9177 -7.95784 2.4
      vertex -3.04713 -8.7473 4.8
    endloop
  endfacet
  facet normal 0.102592 0.94326 0.315808
    outer loop
      vertex -2.61656 -8.79413 4.8
      vertex -2.57324 -7.99531 2.4
      vertex -3.04713 -8.7473 4.8
    endloop
  endfacet
  facet normal 0 0.948823 0.315808
    outer loop
      vertex -2.22676 -7.99531 2.4
      vertex -2.61656 -8.79413 4.8
      vertex -2.18344 -8.79413 4.8
    endloop
  endfacet
  facet normal 0 0.948823 0.315808
    outer loop
      vertex -2.61656 -8.79413 4.8
      vertex -2.22676 -7.99531 2.4
      vertex -2.57324 -7.99531 2.4
    endloop
  endfacet
  facet normal -0.102607 0.943259 0.315808
    outer loop
      vertex -2.18344 -8.79413 4.8
      vertex -1.8823 -7.95784 2.4
      vertex -2.22676 -7.99531 2.4
    endloop
  endfacet
  facet normal -0.102592 0.94326 0.31581
    outer loop
      vertex -1.75287 -8.7473 4.8
      vertex -1.8823 -7.95784 2.4
      vertex -2.18344 -8.79413 4.8
    endloop
  endfacet
  facet normal -0.203955 0.926642 0.31581
    outer loop
      vertex -1.75287 -8.7473 4.8
      vertex -1.54391 -7.88336 2.4
      vertex -1.8823 -7.95784 2.4
    endloop
  endfacet
  facet normal -0.203958 0.926642 0.31581
    outer loop
      vertex -1.32989 -8.6542 4.8
      vertex -1.54391 -7.88336 2.4
      vertex -1.75287 -8.7473 4.8
    endloop
  endfacet
  facet normal -0.302951 0.899158 0.31581
    outer loop
      vertex -1.32989 -8.6542 4.8
      vertex -1.21556 -7.77273 2.4
      vertex -1.54391 -7.88336 2.4
    endloop
  endfacet
  facet normal -0.302952 0.899158 0.31581
    outer loop
      vertex -0.919447 -8.51591 4.8
      vertex -1.21556 -7.77273 2.4
      vertex -1.32989 -8.6542 4.8
    endloop
  endfacet
  facet normal -0.398405 0.861126 0.31581
    outer loop
      vertex -0.919447 -8.51591 4.8
      vertex -0.901093 -7.62724 2.4
      vertex -1.21556 -7.77273 2.4
    endloop
  endfacet
  facet normal -0.398403 0.861127 0.31581
    outer loop
      vertex -0.526366 -8.33405 4.8
      vertex -0.901093 -7.62724 2.4
      vertex -0.919447 -8.51591 4.8
    endloop
  endfacet
  facet normal -0.489181 0.812998 0.31581
    outer loop
      vertex -0.526366 -8.33405 4.8
      vertex -0.604201 -7.4486 2.4
      vertex -0.901093 -7.62724 2.4
    endloop
  endfacet
  facet normal -0.489166 0.813006 0.315813
    outer loop
      vertex -0.526366 -8.33405 4.8
      vertex -0.155252 -8.11076 4.8
      vertex -0.604201 -7.4486 2.4
    endloop
  endfacet
  facet normal -0.574191 0.755359 0.315813
    outer loop
      vertex -0.155252 -8.11076 4.8
      vertex -0.328363 -7.23892 2.4
      vertex -0.604201 -7.4486 2.4
    endloop
  endfacet
  facet normal -0.574206 0.755349 0.31581
    outer loop
      vertex -0.155252 -8.11076 4.8
      vertex 0.189545 -7.84865 4.8
      vertex -0.328363 -7.23892 2.4
    endloop
  endfacet
  facet normal -0.652504 0.688841 0.31581
    outer loop
      vertex 0.189545 -7.84865 4.8
      vertex -0.0768137 -7.00064 2.4
      vertex -0.328363 -7.23892 2.4
    endloop
  endfacet
  facet normal -0.652504 0.688841 0.31581
    outer loop
      vertex 0.189545 -7.84865 4.8
      vertex 0.503982 -7.5508 4.8
      vertex -0.0768137 -7.00064 2.4
    endloop
  endfacet
  facet normal -0.723158 0.614253 0.31581
    outer loop
      vertex 0.503982 -7.5508 4.8
      vertex 0.147497 -6.73656 2.4
      vertex -0.0768137 -7.00064 2.4
    endloop
  endfacet
  facet normal -0.723157 0.614254 0.31581
    outer loop
      vertex 0.503982 -7.5508 4.8
      vertex 0.784371 -7.2207 4.8
      vertex 0.147497 -6.73656 2.4
    endloop
  endfacet
  facet normal -0.785333 0.532462 0.31581
    outer loop
      vertex 0.784371 -7.2207 4.8
      vertex 0.341943 -6.44977 2.4
      vertex 0.147497 -6.73656 2.4
    endloop
  endfacet
  facet normal -0.785326 0.532472 0.315812
    outer loop
      vertex 0.784371 -7.2207 4.8
      vertex 1.02743 -6.86222 4.8
      vertex 0.341943 -6.44977 2.4
    endloop
  endfacet
  facet normal -0.838292 0.444444 0.315812
    outer loop
      vertex 1.02743 -6.86222 4.8
      vertex 0.504241 -6.14365 2.4
      vertex 0.341943 -6.44977 2.4
    endloop
  endfacet
  facet normal -0.838299 0.444431 0.31581
    outer loop
      vertex 1.02743 -6.86222 4.8
      vertex 1.2303 -6.47956 4.8
      vertex 0.504241 -6.14365 2.4
    endloop
  endfacet
  facet normal -0.881439 0.351184 0.315809
    outer loop
      vertex 1.2303 -6.47956 4.8
      vertex 0.632489 -5.82176 2.4
      vertex 0.504241 -6.14365 2.4
    endloop
  endfacet
  facet normal -0.881434 0.351194 0.315811
    outer loop
      vertex 1.2303 -6.47956 4.8
      vertex 1.39061 -6.07721 4.8
      vertex 0.632489 -5.82176 2.4
    endloop
  endfacet
  facet normal -0.914236 0.253844 0.315811
    outer loop
      vertex 1.39061 -6.07721 4.8
      vertex 0.725185 -5.48791 2.4
      vertex 0.632489 -5.82176 2.4
    endloop
  endfacet
  facet normal -0.914239 0.253835 0.315809
    outer loop
      vertex 1.39061 -6.07721 4.8
      vertex 1.50648 -5.65988 4.8
      vertex 0.725185 -5.48791 2.4
    endloop
  endfacet
  facet normal -0.936324 0.153498 0.315809
    outer loop
      vertex 1.50648 -5.65988 4.8
      vertex 0.78124 -5.14598 2.4
      vertex 0.725185 -5.48791 2.4
    endloop
  endfacet
  facet normal -0.936323 0.153505 0.31581
    outer loop
      vertex 1.50648 -5.65988 4.8
      vertex 1.57655 -5.23248 4.8
      vertex 0.78124 -5.14598 2.4
    endloop
  endfacet
  facet normal -0.947431 0.0513696 0.31581
    outer loop
      vertex 1.57655 -5.23248 4.8
      vertex 0.799999 -4.8 2.4
      vertex 0.78124 -5.14598 2.4
    endloop
  endfacet
  facet normal -0.947431 0.0513717 0.315811
    outer loop
      vertex 1.57655 -5.23248 4.8
      vertex 1.6 -4.8 4.8
      vertex 0.799999 -4.8 2.4
    endloop
  endfacet
  facet normal -0.947431 -0.0513696 0.315811
    outer loop
      vertex 0.799999 -4.8 2.4
      vertex 1.6 -4.8 4.8
      vertex 0.78124 -4.45402 2.4
    endloop
  endfacet
  facet normal -0.947431 -0.0513717 0.31581
    outer loop
      vertex 1.6 -4.8 4.8
      vertex 1.57655 -4.36752 4.8
      vertex 0.78124 -4.45402 2.4
    endloop
  endfacet
  facet normal 1 -0 0
    outer loop
      vertex 2.4 -9.6 4.8
      vertex 2.4 0 3.2
      vertex 2.4 0 4.8
    endloop
  endfacet
  facet normal 1 0 0
    outer loop
      vertex 2.4 0 3.2
      vertex 2.4 -9.6 4.8
      vertex 2.4 0 1.6
    endloop
  endfacet
  facet normal 1 0 0
    outer loop
      vertex 2.4 -9.6 0
      vertex 2.4 0 1.6
      vertex 2.4 -9.6 4.8
    endloop
  endfacet
  facet normal 1 0 0
    outer loop
      vertex 2.4 0 1.6
      vertex 2.4 -9.6 0
      vertex 2.4 0 0
    endloop
  endfacet
endsolid OpenSCAD_Model
