solid OpenSCAD_Model
  facet normal 1 -0 0
    outer loop
      vertex 1 0 1.8
      vertex 1 2 0.599999
      vertex 1 2 1.8
    endloop
  endfacet
  facet normal 1 0 0
    outer loop
      vertex 1 2 0.599999
      vertex 1 0 1.8
      vertex 1 0 0.599999
    endloop
  endfacet
  facet normal 0 0 1
    outer loop
      vertex 3 0 0.599999
      vertex 1 2 0.599999
      vertex 1 0 0.599999
    endloop
  endfacet
  facet normal 0 0 -1
    outer loop
      vertex 1 2 1.8
      vertex 3 0 1.8
      vertex 1 0 1.8
    endloop
  endfacet
  facet normal 0 0 -1
    outer loop
      vertex -0.216555 -0.805866 0
      vertex 0 0 0
      vertex 0.216556 -0.805866 0
    endloop
  endfacet
  facet normal 0 0 -1
    outer loop
      vertex -0.647127 -0.852693 0
      vertex 0 0 0
      vertex -0.216555 -0.805866 0
    endloop
  endfacet
  facet normal 0 0 -1
    outer loop
      vertex -1.07011 -0.945799 0
      vertex 0 0 0
      vertex -0.647127 -0.852693 0
    endloop
  endfacet
  facet normal 0 0 -1
    outer loop
      vertex -1.48055 -1.08409 0
      vertex 0 0 0
      vertex -1.07011 -0.945799 0
    endloop
  endfacet
  facet normal 0 0 -1
    outer loop
      vertex -4.8 0 0
      vertex -1.48055 -1.08409 0
      vertex -1.87363 -1.26595 0
    endloop
  endfacet
  facet normal 0 0 -1
    outer loop
      vertex -4.8 0 0
      vertex -1.87363 -1.26595 0
      vertex -2.24475 -1.48924 0
    endloop
  endfacet
  facet normal 0 0 -1
    outer loop
      vertex -4.8 0 0
      vertex -4 -4.8 0
      vertex -4.8 -9.6 0
    endloop
  endfacet
  facet normal 0 0 -1
    outer loop
      vertex -1.48055 -1.08409 0
      vertex -4.8 0 0
      vertex 0 0 0
    endloop
  endfacet
  facet normal 0 0 -1
    outer loop
      vertex -2.58955 -1.75135 0
      vertex -4.8 0 0
      vertex -2.24475 -1.48924 0
    endloop
  endfacet
  facet normal 0 0 -1
    outer loop
      vertex -2.90398 -2.0492 0
      vertex -4.8 0 0
      vertex -2.58955 -1.75135 0
    endloop
  endfacet
  facet normal 0 0 -1
    outer loop
      vertex -3.18437 -2.3793 0
      vertex -4.8 0 0
      vertex -2.90398 -2.0492 0
    endloop
  endfacet
  facet normal 0 0 -1
    outer loop
      vertex -3.42743 -2.73778 0
      vertex -4.8 0 0
      vertex -3.18437 -2.3793 0
    endloop
  endfacet
  facet normal 0 0 -1
    outer loop
      vertex -3.6303 -3.12044 0
      vertex -4.8 0 0
      vertex -3.42743 -2.73778 0
    endloop
  endfacet
  facet normal 0 0 -1
    outer loop
      vertex -3.79061 -3.52279 0
      vertex -4.8 0 0
      vertex -3.6303 -3.12044 0
    endloop
  endfacet
  facet normal 0 0 -1
    outer loop
      vertex -3.90648 -3.94012 0
      vertex -4.8 0 0
      vertex -3.79061 -3.52279 0
    endloop
  endfacet
  facet normal 0 0 -1
    outer loop
      vertex -3.97655 -4.36753 0
      vertex -4.8 0 0
      vertex -3.90648 -3.94012 0
    endloop
  endfacet
  facet normal 0 0 -1
    outer loop
      vertex -4 -4.8 0
      vertex -4.8 0 0
      vertex -3.97655 -4.36753 0
    endloop
  endfacet
  facet normal 0 0 -1
    outer loop
      vertex 4.8 -9.6 0
      vertex 4 -4.8 0
      vertex 4.8 0 0
    endloop
  endfacet
  facet normal 0 0 -1
    outer loop
      vertex 4.8 -9.6 0
      vertex 3.97655 -5.23248 0
      vertex 4 -4.8 0
    endloop
  endfacet
  facet normal 0 0 -1
    outer loop
      vertex 4.8 -9.6 0
      vertex 3.90648 -5.65988 0
      vertex 3.97655 -5.23248 0
    endloop
  endfacet
  facet normal 0 0 -1
    outer loop
      vertex 4.8 -9.6 0
      vertex 3.79061 -6.07721 0
      vertex 3.90648 -5.65988 0
    endloop
  endfacet
  facet normal 0 0 -1
    outer loop
      vertex 4.8 -9.6 0
      vertex 3.6303 -6.47956 0
      vertex 3.79061 -6.07721 0
    endloop
  endfacet
  facet normal 0 0 -1
    outer loop
      vertex 4.8 -9.6 0
      vertex 3.42743 -6.86221 0
      vertex 3.6303 -6.47956 0
    endloop
  endfacet
  facet normal 0 0 -1
    outer loop
      vertex 4.8 -9.6 0
      vertex 3.18437 -7.22069 0
      vertex 3.42743 -6.86221 0
    endloop
  endfacet
  facet normal 0 0 -1
    outer loop
      vertex 4.8 -9.6 0
      vertex 2.90398 -7.5508 0
      vertex 3.18437 -7.22069 0
    endloop
  endfacet
  facet normal 0 0 -1
    outer loop
      vertex 4.8 -9.6 0
      vertex 2.58955 -7.84865 0
      vertex 2.90398 -7.5508 0
    endloop
  endfacet
  facet normal 0 0 -1
    outer loop
      vertex 4.8 -9.6 0
      vertex 2.24475 -8.11076 0
      vertex 2.58955 -7.84865 0
    endloop
  endfacet
  facet normal 0 0 -1
    outer loop
      vertex 4.8 -9.6 0
      vertex 1.87363 -8.33405 0
      vertex 2.24475 -8.11076 0
    endloop
  endfacet
  facet normal 0 0 -1
    outer loop
      vertex 4.8 -9.6 0
      vertex 1.48055 -8.51591 0
      vertex 1.87363 -8.33405 0
    endloop
  endfacet
  facet normal 0 0 -1
    outer loop
      vertex 4.8 -9.6 0
      vertex 1.07011 -8.6542 0
      vertex 1.48055 -8.51591 0
    endloop
  endfacet
  facet normal 0 0 -1
    outer loop
      vertex 4.8 -9.6 0
      vertex 0.647127 -8.74731 0
      vertex 1.07011 -8.6542 0
    endloop
  endfacet
  facet normal 0 0 -1
    outer loop
      vertex 4.8 -9.6 0
      vertex 0.216556 -8.79414 0
      vertex 0.647127 -8.74731 0
    endloop
  endfacet
  facet normal 0 0 -1
    outer loop
      vertex 4.8 -9.6 0
      vertex -0.216555 -8.79414 0
      vertex 0.216556 -8.79414 0
    endloop
  endfacet
  facet normal 0 0 -1
    outer loop
      vertex -4.8 -9.6 0
      vertex -0.216555 -8.79414 0
      vertex 4.8 -9.6 0
    endloop
  endfacet
  facet normal -0 0 -1
    outer loop
      vertex -3.97655 -5.23248 0
      vertex -4.8 -9.6 0
      vertex -4 -4.8 0
    endloop
  endfacet
  facet normal -0 0 -1
    outer loop
      vertex -3.90648 -5.65988 0
      vertex -4.8 -9.6 0
      vertex -3.97655 -5.23248 0
    endloop
  endfacet
  facet normal -0 0 -1
    outer loop
      vertex -3.79061 -6.07721 0
      vertex -4.8 -9.6 0
      vertex -3.90648 -5.65988 0
    endloop
  endfacet
  facet normal -0 0 -1
    outer loop
      vertex -3.6303 -6.47956 0
      vertex -4.8 -9.6 0
      vertex -3.79061 -6.07721 0
    endloop
  endfacet
  facet normal -0 0 -1
    outer loop
      vertex -3.42743 -6.86221 0
      vertex -4.8 -9.6 0
      vertex -3.6303 -6.47956 0
    endloop
  endfacet
  facet normal -0 0 -1
    outer loop
      vertex -3.18437 -7.22069 0
      vertex -4.8 -9.6 0
      vertex -3.42743 -6.86221 0
    endloop
  endfacet
  facet normal -0 0 -1
    outer loop
      vertex -2.90398 -7.5508 0
      vertex -4.8 -9.6 0
      vertex -3.18437 -7.22069 0
    endloop
  endfacet
  facet normal -0 0 -1
    outer loop
      vertex -2.58955 -7.84865 0
      vertex -4.8 -9.6 0
      vertex -2.90398 -7.5508 0
    endloop
  endfacet
  facet normal -0 0 -1
    outer loop
      vertex -2.24475 -8.11076 0
      vertex -4.8 -9.6 0
      vertex -2.58955 -7.84865 0
    endloop
  endfacet
  facet normal -0 0 -1
    outer loop
      vertex -1.87363 -8.33405 0
      vertex -4.8 -9.6 0
      vertex -2.24475 -8.11076 0
    endloop
  endfacet
  facet normal -0 0 -1
    outer loop
      vertex -1.48055 -8.51591 0
      vertex -4.8 -9.6 0
      vertex -1.87363 -8.33405 0
    endloop
  endfacet
  facet normal -0 0 -1
    outer loop
      vertex -1.07011 -8.6542 0
      vertex -4.8 -9.6 0
      vertex -1.48055 -8.51591 0
    endloop
  endfacet
  facet normal -0 0 -1
    outer loop
      vertex -0.647127 -8.74731 0
      vertex -4.8 -9.6 0
      vertex -1.07011 -8.6542 0
    endloop
  endfacet
  facet normal -0 0 -1
    outer loop
      vertex -0.216555 -8.79414 0
      vertex -4.8 -9.6 0
      vertex -0.647127 -8.74731 0
    endloop
  endfacet
  facet normal 0 0 -1
    outer loop
      vertex 3.97655 -4.36753 0
      vertex 4.8 0 0
      vertex 4 -4.8 0
    endloop
  endfacet
  facet normal 0 0 -1
    outer loop
      vertex 3.90648 -3.94012 0
      vertex 4.8 0 0
      vertex 3.97655 -4.36753 0
    endloop
  endfacet
  facet normal 0 0 -1
    outer loop
      vertex 3.79061 -3.52279 0
      vertex 4.8 0 0
      vertex 3.90648 -3.94012 0
    endloop
  endfacet
  facet normal 0 0 -1
    outer loop
      vertex 3.6303 -3.12044 0
      vertex 4.8 0 0
      vertex 3.79061 -3.52279 0
    endloop
  endfacet
  facet normal 0 0 -1
    outer loop
      vertex 3.42743 -2.73778 0
      vertex 4.8 0 0
      vertex 3.6303 -3.12044 0
    endloop
  endfacet
  facet normal 0 0 -1
    outer loop
      vertex 3.18437 -2.3793 0
      vertex 4.8 0 0
      vertex 3.42743 -2.73778 0
    endloop
  endfacet
  facet normal 0 0 -1
    outer loop
      vertex 2.90398 -2.0492 0
      vertex 4.8 0 0
      vertex 3.18437 -2.3793 0
    endloop
  endfacet
  facet normal -0 0 -1
    outer loop
      vertex 4.8 0 0
      vertex 2.90398 -2.0492 0
      vertex 3 0 0
    endloop
  endfacet
  facet normal 0 0 -1
    outer loop
      vertex 2.58955 -1.75135 0
      vertex 3 0 0
      vertex 2.90398 -2.0492 0
    endloop
  endfacet
  facet normal 0 0 -1
    outer loop
      vertex 2.24475 -1.48924 0
      vertex 3 0 0
      vertex 2.58955 -1.75135 0
    endloop
  endfacet
  facet normal 0 0 -1
    outer loop
      vertex 1.87363 -1.26595 0
      vertex 3 0 0
      vertex 2.24475 -1.48924 0
    endloop
  endfacet
  facet normal 0 0 -1
    outer loop
      vertex 1.48055 -1.08409 0
      vertex 3 0 0
      vertex 1.87363 -1.26595 0
    endloop
  endfacet
  facet normal 0 0 -1
    outer loop
      vertex 1.07011 -0.945799 0
      vertex 3 0 0
      vertex 1.48055 -1.08409 0
    endloop
  endfacet
  facet normal 0 0 -1
    outer loop
      vertex 1.07011 -0.945799 0
      vertex 1 2 0
      vertex 3 0 0
    endloop
  endfacet
  facet normal 0 0 -1
    outer loop
      vertex 0 0 0
      vertex 1.07011 -0.945799 0
      vertex 0.647127 -0.852693 0
    endloop
  endfacet
  facet normal 0 0 -1
    outer loop
      vertex 0 0 0
      vertex 0.647127 -0.852693 0
      vertex 0.216556 -0.805866 0
    endloop
  endfacet
  facet normal 0 0 -1
    outer loop
      vertex 1.07011 -0.945799 0
      vertex 0 0 0
      vertex 1 2 0
    endloop
  endfacet
  facet normal -0 0 -1
    outer loop
      vertex 1 2 0
      vertex 0 0 0
      vertex 0 2 0
    endloop
  endfacet
  facet normal 0.707107 0.707107 0
    outer loop
      vertex 3 0 0.599999
      vertex 1 2 0
      vertex 1 2 0.599999
    endloop
  endfacet
  facet normal 0.707107 0.707107 0
    outer loop
      vertex 1 2 0
      vertex 3 0 0.599999
      vertex 3 0 0
    endloop
  endfacet
  facet normal 0 0 1
    outer loop
      vertex 4.8 0 2.4
      vertex 3.2 -4.8 2.4
      vertex 4.8 -9.6 2.4
    endloop
  endfacet
  facet normal 0 0 1
    outer loop
      vertex 4.8 0 2.4
      vertex 3.18124 -4.45402 2.4
      vertex 3.2 -4.8 2.4
    endloop
  endfacet
  facet normal 0 0 1
    outer loop
      vertex 4.8 0 2.4
      vertex 3.12519 -4.11209 2.4
      vertex 3.18124 -4.45402 2.4
    endloop
  endfacet
  facet normal 0 0 1
    outer loop
      vertex 4.8 0 2.4
      vertex 3.03249 -3.77823 2.4
      vertex 3.12519 -4.11209 2.4
    endloop
  endfacet
  facet normal 0 0 1
    outer loop
      vertex 2.5475 -2.86344 2.4
      vertex 4.8 0 2.4
      vertex 3 0 2.4
    endloop
  endfacet
  facet normal 0 0 1
    outer loop
      vertex 4.8 0 2.4
      vertex 2.90424 -3.45635 2.4
      vertex 3.03249 -3.77823 2.4
    endloop
  endfacet
  facet normal 0 0 1
    outer loop
      vertex 4.8 0 2.4
      vertex 2.74194 -3.15023 2.4
      vertex 2.90424 -3.45635 2.4
    endloop
  endfacet
  facet normal 0 0 1
    outer loop
      vertex 4.8 0 2.4
      vertex 2.5475 -2.86344 2.4
      vertex 2.74194 -3.15023 2.4
    endloop
  endfacet
  facet normal 0 0 1
    outer loop
      vertex 3 0 2.4
      vertex 2.32318 -2.59936 2.4
      vertex 2.5475 -2.86344 2.4
    endloop
  endfacet
  facet normal 0 0 1
    outer loop
      vertex 3 0 2.4
      vertex 2.07164 -2.36108 2.4
      vertex 2.32318 -2.59936 2.4
    endloop
  endfacet
  facet normal 0 0 1
    outer loop
      vertex 3 0 2.4
      vertex 1.7958 -2.15139 2.4
      vertex 2.07164 -2.36108 2.4
    endloop
  endfacet
  facet normal 0 0 1
    outer loop
      vertex 3 0 2.4
      vertex 1.49891 -1.97276 2.4
      vertex 1.7958 -2.15139 2.4
    endloop
  endfacet
  facet normal 0 0 1
    outer loop
      vertex 3 0 2.4
      vertex 1.18444 -1.82727 2.4
      vertex 1.49891 -1.97276 2.4
    endloop
  endfacet
  facet normal 0 0 1
    outer loop
      vertex 0 0 2.4
      vertex 3 0 2.4
      vertex 1 2 2.4
    endloop
  endfacet
  facet normal 0 0 1
    outer loop
      vertex 3 0 2.4
      vertex 0 0 2.4
      vertex 1.18444 -1.82727 2.4
    endloop
  endfacet
  facet normal 0 0 1
    outer loop
      vertex 1.18444 -1.82727 2.4
      vertex 0 0 2.4
      vertex 0.856091 -1.71664 2.4
    endloop
  endfacet
  facet normal 0 0 1
    outer loop
      vertex 0.856091 -1.71664 2.4
      vertex 0 0 2.4
      vertex 0.517702 -1.64215 2.4
    endloop
  endfacet
  facet normal 0 0 1
    outer loop
      vertex 0 0 2.4
      vertex 1 2 2.4
      vertex 0 2 2.4
    endloop
  endfacet
  facet normal 0 0 1
    outer loop
      vertex 0.517702 -1.64215 2.4
      vertex 0 0 2.4
      vertex 0.173244 -1.60469 2.4
    endloop
  endfacet
  facet normal 0 0 1
    outer loop
      vertex 0 0 2.4
      vertex -0.173244 -1.60469 2.4
      vertex 0.173244 -1.60469 2.4
    endloop
  endfacet
  facet normal 0 0 1
    outer loop
      vertex 0 0 2.4
      vertex -0.517702 -1.64215 2.4
      vertex -0.173244 -1.60469 2.4
    endloop
  endfacet
  facet normal 0 0 1
    outer loop
      vertex 0 0 2.4
      vertex -0.856091 -1.71664 2.4
      vertex -0.517702 -1.64215 2.4
    endloop
  endfacet
  facet normal 0 0 1
    outer loop
      vertex 0 0 2.4
      vertex -1.18444 -1.82727 2.4
      vertex -0.856091 -1.71664 2.4
    endloop
  endfacet
  facet normal 0 0 1
    outer loop
      vertex 0 0 2.4
      vertex -1.49891 -1.97276 2.4
      vertex -1.18444 -1.82727 2.4
    endloop
  endfacet
  facet normal -0 0 1
    outer loop
      vertex -4.8 0 2.4
      vertex -1.49891 -1.97276 2.4
      vertex 0 0 2.4
    endloop
  endfacet
  facet normal 0 0 1
    outer loop
      vertex -1.49891 -1.97276 2.4
      vertex -4.8 0 2.4
      vertex -1.7958 -2.15139 2.4
    endloop
  endfacet
  facet normal 0 0 1
    outer loop
      vertex -1.7958 -2.15139 2.4
      vertex -4.8 0 2.4
      vertex -2.07164 -2.36108 2.4
    endloop
  endfacet
  facet normal 0 0 1
    outer loop
      vertex -3.18124 -4.45402 2.4
      vertex -4.8 0 2.4
      vertex -3.2 -4.8 2.4
    endloop
  endfacet
  facet normal 0 0 1
    outer loop
      vertex -3.12519 -4.11209 2.4
      vertex -4.8 0 2.4
      vertex -3.18124 -4.45402 2.4
    endloop
  endfacet
  facet normal 0 0 1
    outer loop
      vertex -3.03249 -3.77823 2.4
      vertex -4.8 0 2.4
      vertex -3.12519 -4.11209 2.4
    endloop
  endfacet
  facet normal 0 0 1
    outer loop
      vertex -2.90424 -3.45635 2.4
      vertex -4.8 0 2.4
      vertex -3.03249 -3.77823 2.4
    endloop
  endfacet
  facet normal 0 0 1
    outer loop
      vertex -2.74194 -3.15023 2.4
      vertex -4.8 0 2.4
      vertex -2.90424 -3.45635 2.4
    endloop
  endfacet
  facet normal 0 0 1
    outer loop
      vertex -2.5475 -2.86344 2.4
      vertex -4.8 0 2.4
      vertex -2.74194 -3.15023 2.4
    endloop
  endfacet
  facet normal 0 0 1
    outer loop
      vertex -2.32318 -2.59936 2.4
      vertex -4.8 0 2.4
      vertex -2.5475 -2.86344 2.4
    endloop
  endfacet
  facet normal 0 0 1
    outer loop
      vertex -2.07164 -2.36108 2.4
      vertex -4.8 0 2.4
      vertex -2.32318 -2.59936 2.4
    endloop
  endfacet
  facet normal -0 0 1
    outer loop
      vertex 3.18124 -5.14598 2.4
      vertex 4.8 -9.6 2.4
      vertex 3.2 -4.8 2.4
    endloop
  endfacet
  facet normal -0 0 1
    outer loop
      vertex 3.12519 -5.48791 2.4
      vertex 4.8 -9.6 2.4
      vertex 3.18124 -5.14598 2.4
    endloop
  endfacet
  facet normal -0 0 1
    outer loop
      vertex 3.03249 -5.82177 2.4
      vertex 4.8 -9.6 2.4
      vertex 3.12519 -5.48791 2.4
    endloop
  endfacet
  facet normal -0 0 1
    outer loop
      vertex 2.90424 -6.14365 2.4
      vertex 4.8 -9.6 2.4
      vertex 3.03249 -5.82177 2.4
    endloop
  endfacet
  facet normal -0 0 1
    outer loop
      vertex 2.74194 -6.44977 2.4
      vertex 4.8 -9.6 2.4
      vertex 2.90424 -6.14365 2.4
    endloop
  endfacet
  facet normal -0 0 1
    outer loop
      vertex 2.5475 -6.73656 2.4
      vertex 4.8 -9.6 2.4
      vertex 2.74194 -6.44977 2.4
    endloop
  endfacet
  facet normal -0 0 1
    outer loop
      vertex 2.32318 -7.00064 2.4
      vertex 4.8 -9.6 2.4
      vertex 2.5475 -6.73656 2.4
    endloop
  endfacet
  facet normal -0 0 1
    outer loop
      vertex 2.07164 -7.23892 2.4
      vertex 4.8 -9.6 2.4
      vertex 2.32318 -7.00064 2.4
    endloop
  endfacet
  facet normal -0 0 1
    outer loop
      vertex 1.7958 -7.4486 2.4
      vertex 4.8 -9.6 2.4
      vertex 2.07164 -7.23892 2.4
    endloop
  endfacet
  facet normal -0 0 1
    outer loop
      vertex 1.49891 -7.62724 2.4
      vertex 4.8 -9.6 2.4
      vertex 1.7958 -7.4486 2.4
    endloop
  endfacet
  facet normal -0 0 1
    outer loop
      vertex 1.18444 -7.77273 2.4
      vertex 4.8 -9.6 2.4
      vertex 1.49891 -7.62724 2.4
    endloop
  endfacet
  facet normal -0 0 1
    outer loop
      vertex 0.856091 -7.88336 2.4
      vertex 4.8 -9.6 2.4
      vertex 1.18444 -7.77273 2.4
    endloop
  endfacet
  facet normal -0 0 1
    outer loop
      vertex 0.517702 -7.95784 2.4
      vertex 4.8 -9.6 2.4
      vertex 0.856091 -7.88336 2.4
    endloop
  endfacet
  facet normal -0 0 1
    outer loop
      vertex 0.173244 -7.99531 2.4
      vertex 4.8 -9.6 2.4
      vertex 0.517702 -7.95784 2.4
    endloop
  endfacet
  facet normal -0 0 1
    outer loop
      vertex -0.173244 -7.99531 2.4
      vertex 4.8 -9.6 2.4
      vertex 0.173244 -7.99531 2.4
    endloop
  endfacet
  facet normal 0 0 1
    outer loop
      vertex -4.8 -9.6 2.4
      vertex -0.173244 -7.99531 2.4
      vertex -0.517702 -7.95784 2.4
    endloop
  endfacet
  facet normal 0 0 1
    outer loop
      vertex -4.8 -9.6 2.4
      vertex -0.517702 -7.95784 2.4
      vertex -0.856091 -7.88336 2.4
    endloop
  endfacet
  facet normal 0 0 1
    outer loop
      vertex -4.8 -9.6 2.4
      vertex -3.2 -4.8 2.4
      vertex -4.8 0 2.4
    endloop
  endfacet
  facet normal 0 0 1
    outer loop
      vertex -3.2 -4.8 2.4
      vertex -4.8 -9.6 2.4
      vertex -3.18124 -5.14598 2.4
    endloop
  endfacet
  facet normal 0 0 1
    outer loop
      vertex -3.18124 -5.14598 2.4
      vertex -4.8 -9.6 2.4
      vertex -3.12519 -5.48791 2.4
    endloop
  endfacet
  facet normal 0 0 1
    outer loop
      vertex -0.173244 -7.99531 2.4
      vertex -4.8 -9.6 2.4
      vertex 4.8 -9.6 2.4
    endloop
  endfacet
  facet normal 0 0 1
    outer loop
      vertex -1.18444 -7.77273 2.4
      vertex -4.8 -9.6 2.4
      vertex -0.856091 -7.88336 2.4
    endloop
  endfacet
  facet normal 0 0 1
    outer loop
      vertex -1.49891 -7.62724 2.4
      vertex -4.8 -9.6 2.4
      vertex -1.18444 -7.77273 2.4
    endloop
  endfacet
  facet normal 0 0 1
    outer loop
      vertex -1.7958 -7.4486 2.4
      vertex -4.8 -9.6 2.4
      vertex -1.49891 -7.62724 2.4
    endloop
  endfacet
  facet normal 0 0 1
    outer loop
      vertex -2.07164 -7.23892 2.4
      vertex -4.8 -9.6 2.4
      vertex -1.7958 -7.4486 2.4
    endloop
  endfacet
  facet normal 0 0 1
    outer loop
      vertex -2.32318 -7.00064 2.4
      vertex -4.8 -9.6 2.4
      vertex -2.07164 -7.23892 2.4
    endloop
  endfacet
  facet normal 0 0 1
    outer loop
      vertex -2.5475 -6.73656 2.4
      vertex -4.8 -9.6 2.4
      vertex -2.32318 -7.00064 2.4
    endloop
  endfacet
  facet normal 0 0 1
    outer loop
      vertex -2.74194 -6.44977 2.4
      vertex -4.8 -9.6 2.4
      vertex -2.5475 -6.73656 2.4
    endloop
  endfacet
  facet normal 0 0 1
    outer loop
      vertex -2.90424 -6.14365 2.4
      vertex -4.8 -9.6 2.4
      vertex -2.74194 -6.44977 2.4
    endloop
  endfacet
  facet normal 0 0 1
    outer loop
      vertex -3.03249 -5.82177 2.4
      vertex -4.8 -9.6 2.4
      vertex -2.90424 -6.14365 2.4
    endloop
  endfacet
  facet normal 0 0 1
    outer loop
      vertex -3.12519 -5.48791 2.4
      vertex -4.8 -9.6 2.4
      vertex -3.03249 -5.82177 2.4
    endloop
  endfacet
  facet normal 0 1 0
    outer loop
      vertex 4.8 0 2.4
      vertex 3 0 1.8
      vertex 3 0 2.4
    endloop
  endfacet
  facet normal 0 1 0
    outer loop
      vertex 3 0 1.8
      vertex 3 0 0.599999
      vertex 1 0 1.8
    endloop
  endfacet
  facet normal 0 1 0
    outer loop
      vertex 4.8 0 2.4
      vertex 3 0 0.599999
      vertex 3 0 1.8
    endloop
  endfacet
  facet normal 0 1 -0
    outer loop
      vertex 4.8 0 0
      vertex 3 0 0.599999
      vertex 4.8 0 2.4
    endloop
  endfacet
  facet normal 0 1 0
    outer loop
      vertex 3 0 0.599999
      vertex 4.8 0 0
      vertex 3 0 0
    endloop
  endfacet
  facet normal 0 1 0
    outer loop
      vertex 1 0 1.8
      vertex 3 0 0.599999
      vertex 1 0 0.599999
    endloop
  endfacet
  facet normal 0 1 -0
    outer loop
      vertex 0 0 0
      vertex -4.8 0 2.4
      vertex 0 0 2.4
    endloop
  endfacet
  facet normal 0 1 0
    outer loop
      vertex -4.8 0 2.4
      vertex 0 0 0
      vertex -4.8 0 0
    endloop
  endfacet
  facet normal 0.707107 0.707107 0
    outer loop
      vertex 3 0 2.4
      vertex 1 2 1.8
      vertex 1 2 2.4
    endloop
  endfacet
  facet normal 0.707107 0.707107 0
    outer loop
      vertex 1 2 1.8
      vertex 3 0 2.4
      vertex 3 0 1.8
    endloop
  endfacet
  facet normal 0 1 -0
    outer loop
      vertex 1 2 1.8
      vertex 0 2 2.4
      vertex 1 2 2.4
    endloop
  endfacet
  facet normal 0 1 -0
    outer loop
      vertex 1 2 0.599999
      vertex 0 2 2.4
      vertex 1 2 1.8
    endloop
  endfacet
  facet normal 0 1 0
    outer loop
      vertex 0 2 0
      vertex 1 2 0.599999
      vertex 1 2 0
    endloop
  endfacet
  facet normal 0 1 0
    outer loop
      vertex 1 2 0.599999
      vertex 0 2 0
      vertex 0 2 2.4
    endloop
  endfacet
  facet normal -1 0 0
    outer loop
      vertex 0 0 0
      vertex 0 2 2.4
      vertex 0 2 0
    endloop
  endfacet
  facet normal -1 -0 0
    outer loop
      vertex 0 2 2.4
      vertex 0 0 0
      vertex 0 0 2.4
    endloop
  endfacet
  facet normal -1 0 0
    outer loop
      vertex -4.8 -9.6 0
      vertex -4.8 0 2.4
      vertex -4.8 0 0
    endloop
  endfacet
  facet normal -1 -0 0
    outer loop
      vertex -4.8 0 2.4
      vertex -4.8 -9.6 0
      vertex -4.8 -9.6 2.4
    endloop
  endfacet
  facet normal -0.936326 0.153485 -0.315811
    outer loop
      vertex 3.18124 -5.14598 2.4
      vertex 3.97655 -5.23248 0
      vertex 3.12519 -5.48791 2.4
    endloop
  endfacet
  facet normal -0.936323 0.153505 -0.315808
    outer loop
      vertex 3.97655 -5.23248 0
      vertex 3.90648 -5.65988 0
      vertex 3.12519 -5.48791 2.4
    endloop
  endfacet
  facet normal -0.914236 0.253848 -0.315807
    outer loop
      vertex 3.12519 -5.48791 2.4
      vertex 3.90648 -5.65988 0
      vertex 3.03249 -5.82177 2.4
    endloop
  endfacet
  facet normal -0.914239 0.253835 -0.315809
    outer loop
      vertex 3.90648 -5.65988 0
      vertex 3.79061 -6.07721 0
      vertex 3.03249 -5.82177 2.4
    endloop
  endfacet
  facet normal -0.881433 0.351199 -0.315809
    outer loop
      vertex 3.03249 -5.82177 2.4
      vertex 3.79061 -6.07721 0
      vertex 2.90424 -6.14365 2.4
    endloop
  endfacet
  facet normal -0.881435 0.351194 -0.31581
    outer loop
      vertex 3.79061 -6.07721 0
      vertex 3.6303 -6.47956 0
      vertex 2.90424 -6.14365 2.4
    endloop
  endfacet
  facet normal -0.83829 0.444448 -0.31581
    outer loop
      vertex 2.90424 -6.14365 2.4
      vertex 3.6303 -6.47956 0
      vertex 2.74194 -6.44977 2.4
    endloop
  endfacet
  facet normal -0.838294 0.444439 -0.315811
    outer loop
      vertex 3.6303 -6.47956 0
      vertex 3.42743 -6.86221 0
      vertex 2.74194 -6.44977 2.4
    endloop
  endfacet
  facet normal -0.78534 0.532451 -0.315811
    outer loop
      vertex 2.74194 -6.44977 2.4
      vertex 3.42743 -6.86221 0
      vertex 2.5475 -6.73656 2.4
    endloop
  endfacet
  facet normal -0.785326 0.532474 -0.315807
    outer loop
      vertex 3.42743 -6.86221 0
      vertex 3.18437 -7.22069 0
      vertex 2.5475 -6.73656 2.4
    endloop
  endfacet
  facet normal -0.723146 0.614269 -0.315807
    outer loop
      vertex 2.5475 -6.73656 2.4
      vertex 3.18437 -7.22069 0
      vertex 2.32318 -7.00064 2.4
    endloop
  endfacet
  facet normal -0.723165 0.614244 -0.315811
    outer loop
      vertex 3.18437 -7.22069 0
      vertex 2.90398 -7.5508 0
      vertex 2.32318 -7.00064 2.4
    endloop
  endfacet
  facet normal -0.652517 0.688829 -0.315812
    outer loop
      vertex 2.32318 -7.00064 2.4
      vertex 2.90398 -7.5508 0
      vertex 2.07164 -7.23892 2.4
    endloop
  endfacet
  facet normal -0.652512 0.688834 -0.31581
    outer loop
      vertex 2.90398 -7.5508 0
      vertex 2.58955 -7.84865 0
      vertex 2.07164 -7.23892 2.4
    endloop
  endfacet
  facet normal -0.574189 0.755362 -0.31581
    outer loop
      vertex 2.07164 -7.23892 2.4
      vertex 2.58955 -7.84865 0
      vertex 1.7958 -7.4486 2.4
    endloop
  endfacet
  facet normal -0.574202 0.75535 -0.315813
    outer loop
      vertex 2.58955 -7.84865 0
      vertex 2.24475 -8.11076 0
      vertex 1.7958 -7.4486 2.4
    endloop
  endfacet
  facet normal -0.489183 0.812996 -0.315813
    outer loop
      vertex 1.7958 -7.4486 2.4
      vertex 2.24475 -8.11076 0
      vertex 1.49891 -7.62724 2.4
    endloop
  endfacet
  facet normal -0.48916 0.813011 -0.315809
    outer loop
      vertex 2.24475 -8.11076 0
      vertex 1.87363 -8.33405 0
      vertex 1.49891 -7.62724 2.4
    endloop
  endfacet
  facet normal -0.398402 0.861127 -0.315809
    outer loop
      vertex 1.49891 -7.62724 2.4
      vertex 1.87363 -8.33405 0
      vertex 1.18444 -7.77273 2.4
    endloop
  endfacet
  facet normal -0.398404 0.861127 -0.31581
    outer loop
      vertex 1.87363 -8.33405 0
      vertex 1.48055 -8.51591 0
      vertex 1.18444 -7.77273 2.4
    endloop
  endfacet
  facet normal -0.302952 0.899158 -0.31581
    outer loop
      vertex 1.18444 -7.77273 2.4
      vertex 1.48055 -8.51591 0
      vertex 0.856091 -7.88336 2.4
    endloop
  endfacet
  facet normal -0.302954 0.899157 -0.31581
    outer loop
      vertex 1.48055 -8.51591 0
      vertex 1.07011 -8.6542 0
      vertex 0.856091 -7.88336 2.4
    endloop
  endfacet
  facet normal -0.203956 0.926642 -0.31581
    outer loop
      vertex 0.856091 -7.88336 2.4
      vertex 1.07011 -8.6542 0
      vertex 0.517702 -7.95784 2.4
    endloop
  endfacet
  facet normal -0.203978 0.926636 -0.315813
    outer loop
      vertex 1.07011 -8.6542 0
      vertex 0.647127 -8.74731 0
      vertex 0.517702 -7.95784 2.4
    endloop
  endfacet
  facet normal -0.102607 0.943257 -0.315814
    outer loop
      vertex 0.517702 -7.95784 2.4
      vertex 0.647127 -8.74731 0
      vertex 0.173244 -7.99531 2.4
    endloop
  endfacet
  facet normal -0.102591 0.943259 -0.315811
    outer loop
      vertex 0.647127 -8.74731 0
      vertex 0.216556 -8.79414 0
      vertex 0.173244 -7.99531 2.4
    endloop
  endfacet
  facet normal 0 0.948822 -0.315811
    outer loop
      vertex 0.216556 -8.79414 0
      vertex -0.173244 -7.99531 2.4
      vertex 0.173244 -7.99531 2.4
    endloop
  endfacet
  facet normal 0 0.948822 -0.315811
    outer loop
      vertex -0.173244 -7.99531 2.4
      vertex 0.216556 -8.79414 0
      vertex -0.216555 -8.79414 0
    endloop
  endfacet
  facet normal 0.102607 0.943258 -0.315811
    outer loop
      vertex -0.173244 -7.99531 2.4
      vertex -0.216555 -8.79414 0
      vertex -0.517702 -7.95784 2.4
    endloop
  endfacet
  facet normal 0.102591 0.943259 -0.315813
    outer loop
      vertex -0.517702 -7.95784 2.4
      vertex -0.216555 -8.79414 0
      vertex -0.647127 -8.74731 0
    endloop
  endfacet
  facet normal 0.203955 0.926641 -0.315814
    outer loop
      vertex -0.517702 -7.95784 2.4
      vertex -0.647127 -8.74731 0
      vertex -0.856091 -7.88336 2.4
    endloop
  endfacet
  facet normal 0.203978 0.926637 -0.31581
    outer loop
      vertex -0.856091 -7.88336 2.4
      vertex -0.647127 -8.74731 0
      vertex -1.07011 -8.6542 0
    endloop
  endfacet
  facet normal 0.302951 0.899158 -0.31581
    outer loop
      vertex -0.856091 -7.88336 2.4
      vertex -1.07011 -8.6542 0
      vertex -1.18444 -7.77273 2.4
    endloop
  endfacet
  facet normal 0.302954 0.899157 -0.31581
    outer loop
      vertex -1.18444 -7.77273 2.4
      vertex -1.07011 -8.6542 0
      vertex -1.48055 -8.51591 0
    endloop
  endfacet
  facet normal 0.398402 0.861127 -0.31581
    outer loop
      vertex -1.18444 -7.77273 2.4
      vertex -1.48055 -8.51591 0
      vertex -1.49891 -7.62724 2.4
    endloop
  endfacet
  facet normal 0.398404 0.861127 -0.315809
    outer loop
      vertex -1.49891 -7.62724 2.4
      vertex -1.48055 -8.51591 0
      vertex -1.87363 -8.33405 0
    endloop
  endfacet
  facet normal 0.489184 0.812997 -0.315809
    outer loop
      vertex -1.7958 -7.4486 2.4
      vertex -1.49891 -7.62724 2.4
      vertex -1.87363 -8.33405 0
    endloop
  endfacet
  facet normal 0.48916 0.81301 -0.315813
    outer loop
      vertex -1.7958 -7.4486 2.4
      vertex -1.87363 -8.33405 0
      vertex -2.24475 -8.11076 0
    endloop
  endfacet
  facet normal 0.574188 0.755361 -0.315813
    outer loop
      vertex -2.07164 -7.23892 2.4
      vertex -1.7958 -7.4486 2.4
      vertex -2.24475 -8.11076 0
    endloop
  endfacet
  facet normal 0.574203 0.755351 -0.315811
    outer loop
      vertex -2.07164 -7.23892 2.4
      vertex -2.24475 -8.11076 0
      vertex -2.58955 -7.84865 0
    endloop
  endfacet
  facet normal 0.652517 0.688829 -0.31581
    outer loop
      vertex -2.32318 -7.00064 2.4
      vertex -2.07164 -7.23892 2.4
      vertex -2.58955 -7.84865 0
    endloop
  endfacet
  facet normal 0.652511 0.688834 -0.315811
    outer loop
      vertex -2.32318 -7.00064 2.4
      vertex -2.58955 -7.84865 0
      vertex -2.90398 -7.5508 0
    endloop
  endfacet
  facet normal 0.723145 0.614268 -0.315812
    outer loop
      vertex -2.5475 -6.73656 2.4
      vertex -2.32318 -7.00064 2.4
      vertex -2.90398 -7.5508 0
    endloop
  endfacet
  facet normal 0.723166 0.614245 -0.315807
    outer loop
      vertex -2.5475 -6.73656 2.4
      vertex -2.90398 -7.5508 0
      vertex -3.18437 -7.22069 0
    endloop
  endfacet
  facet normal 0.785342 0.532452 -0.315807
    outer loop
      vertex -2.74194 -6.44977 2.4
      vertex -2.5475 -6.73656 2.4
      vertex -3.18437 -7.22069 0
    endloop
  endfacet
  facet normal 0.785325 0.532474 -0.315811
    outer loop
      vertex -2.74194 -6.44977 2.4
      vertex -3.18437 -7.22069 0
      vertex -3.42743 -6.86221 0
    endloop
  endfacet
  facet normal 0.83829 0.444448 -0.315811
    outer loop
      vertex -2.90424 -6.14365 2.4
      vertex -2.74194 -6.44977 2.4
      vertex -3.42743 -6.86221 0
    endloop
  endfacet
  facet normal 0.838294 0.44444 -0.31581
    outer loop
      vertex -2.90424 -6.14365 2.4
      vertex -3.42743 -6.86221 0
      vertex -3.6303 -6.47956 0
    endloop
  endfacet
  facet normal 0.881433 0.351198 -0.31581
    outer loop
      vertex -3.03249 -5.82177 2.4
      vertex -2.90424 -6.14365 2.4
      vertex -3.6303 -6.47956 0
    endloop
  endfacet
  facet normal 0.881435 0.351194 -0.315809
    outer loop
      vertex -3.03249 -5.82177 2.4
      vertex -3.6303 -6.47956 0
      vertex -3.79061 -6.07721 0
    endloop
  endfacet
  facet normal 0.914235 0.253848 -0.315809
    outer loop
      vertex -3.12519 -5.48791 2.4
      vertex -3.03249 -5.82177 2.4
      vertex -3.79061 -6.07721 0
    endloop
  endfacet
  facet normal 0.914239 0.253835 -0.315807
    outer loop
      vertex -3.12519 -5.48791 2.4
      vertex -3.79061 -6.07721 0
      vertex -3.90648 -5.65988 0
    endloop
  endfacet
  facet normal 0.936327 0.153485 -0.315807
    outer loop
      vertex -3.18124 -5.14598 2.4
      vertex -3.12519 -5.48791 2.4
      vertex -3.90648 -5.65988 0
    endloop
  endfacet
  facet normal 0.936323 0.153505 -0.31581
    outer loop
      vertex -3.18124 -5.14598 2.4
      vertex -3.90648 -5.65988 0
      vertex -3.97655 -5.23248 0
    endloop
  endfacet
  facet normal 0.947431 0.0513723 -0.31581
    outer loop
      vertex -3.2 -4.8 2.4
      vertex -3.18124 -5.14598 2.4
      vertex -3.97655 -5.23248 0
    endloop
  endfacet
  facet normal 0.947431 0.0513717 -0.31581
    outer loop
      vertex -3.2 -4.8 2.4
      vertex -3.97655 -5.23248 0
      vertex -4 -4.8 0
    endloop
  endfacet
  facet normal 0.947431 -0.0513723 -0.31581
    outer loop
      vertex -3.18124 -4.45402 2.4
      vertex -3.2 -4.8 2.4
      vertex -4 -4.8 0
    endloop
  endfacet
  facet normal 0.947431 -0.0513729 -0.31581
    outer loop
      vertex -3.97655 -4.36753 0
      vertex -3.18124 -4.45402 2.4
      vertex -4 -4.8 0
    endloop
  endfacet
  facet normal 0.936326 -0.153485 -0.31581
    outer loop
      vertex -3.12519 -4.11209 2.4
      vertex -3.18124 -4.45402 2.4
      vertex -3.97655 -4.36753 0
    endloop
  endfacet
  facet normal 0.936324 -0.153502 -0.315808
    outer loop
      vertex -3.90648 -3.94012 0
      vertex -3.12519 -4.11209 2.4
      vertex -3.97655 -4.36753 0
    endloop
  endfacet
  facet normal 0.914236 -0.253848 -0.315807
    outer loop
      vertex -3.03249 -3.77823 2.4
      vertex -3.12519 -4.11209 2.4
      vertex -3.90648 -3.94012 0
    endloop
  endfacet
  facet normal 0.914239 -0.253835 -0.315809
    outer loop
      vertex -3.79061 -3.52279 0
      vertex -3.03249 -3.77823 2.4
      vertex -3.90648 -3.94012 0
    endloop
  endfacet
  facet normal 0.881433 -0.351199 -0.315809
    outer loop
      vertex -2.90424 -3.45635 2.4
      vertex -3.03249 -3.77823 2.4
      vertex -3.79061 -3.52279 0
    endloop
  endfacet
  facet normal 0.881435 -0.351194 -0.31581
    outer loop
      vertex -3.6303 -3.12044 0
      vertex -2.90424 -3.45635 2.4
      vertex -3.79061 -3.52279 0
    endloop
  endfacet
  facet normal 0.83829 -0.444448 -0.31581
    outer loop
      vertex -2.74194 -3.15023 2.4
      vertex -2.90424 -3.45635 2.4
      vertex -3.6303 -3.12044 0
    endloop
  endfacet
  facet normal 0.838298 -0.44443 -0.315813
    outer loop
      vertex -3.42743 -2.73778 0
      vertex -2.74194 -3.15023 2.4
      vertex -3.6303 -3.12044 0
    endloop
  endfacet
  facet normal 0.78534 -0.53245 -0.315813
    outer loop
      vertex -2.5475 -2.86344 2.4
      vertex -2.74194 -3.15023 2.4
      vertex -3.42743 -2.73778 0
    endloop
  endfacet
  facet normal 0.785326 -0.532474 -0.315809
    outer loop
      vertex -3.18437 -2.3793 0
      vertex -2.5475 -2.86344 2.4
      vertex -3.42743 -2.73778 0
    endloop
  endfacet
  facet normal 0.723145 -0.614268 -0.315809
    outer loop
      vertex -2.32318 -2.59936 2.4
      vertex -2.5475 -2.86344 2.4
      vertex -3.18437 -2.3793 0
    endloop
  endfacet
  facet normal 0.723156 -0.614255 -0.315811
    outer loop
      vertex -2.90398 -2.0492 0
      vertex -2.32318 -2.59936 2.4
      vertex -3.18437 -2.3793 0
    endloop
  endfacet
  facet normal 0.652517 -0.688829 -0.315812
    outer loop
      vertex -2.07164 -2.36108 2.4
      vertex -2.32318 -2.59936 2.4
      vertex -2.90398 -2.0492 0
    endloop
  endfacet
  facet normal 0.652512 -0.688834 -0.31581
    outer loop
      vertex -2.58955 -1.75135 0
      vertex -2.07164 -2.36108 2.4
      vertex -2.90398 -2.0492 0
    endloop
  endfacet
  facet normal 0.574206 -0.755348 -0.315811
    outer loop
      vertex -1.7958 -2.15139 2.4
      vertex -2.07164 -2.36108 2.4
      vertex -2.58955 -1.75135 0
    endloop
  endfacet
  facet normal 0.574203 -0.755351 -0.31581
    outer loop
      vertex -2.24475 -1.48924 0
      vertex -1.7958 -2.15139 2.4
      vertex -2.58955 -1.75135 0
    endloop
  endfacet
  facet normal 0.489163 -0.813009 -0.31581
    outer loop
      vertex -1.49891 -1.97276 2.4
      vertex -1.7958 -2.15139 2.4
      vertex -2.24475 -1.48924 0
    endloop
  endfacet
  facet normal 0.48916 -0.813011 -0.315809
    outer loop
      vertex -1.87363 -1.26595 0
      vertex -1.49891 -1.97276 2.4
      vertex -2.24475 -1.48924 0
    endloop
  endfacet
  facet normal 0.398402 -0.861127 -0.315809
    outer loop
      vertex -1.18444 -1.82727 2.4
      vertex -1.49891 -1.97276 2.4
      vertex -1.87363 -1.26595 0
    endloop
  endfacet
  facet normal 0.398404 -0.861127 -0.31581
    outer loop
      vertex -1.48055 -1.08409 0
      vertex -1.18444 -1.82727 2.4
      vertex -1.87363 -1.26595 0
    endloop
  endfacet
  facet normal 0.302952 -0.899158 -0.31581
    outer loop
      vertex -0.856091 -1.71664 2.4
      vertex -1.18444 -1.82727 2.4
      vertex -1.48055 -1.08409 0
    endloop
  endfacet
  facet normal 0.302956 -0.899156 -0.31581
    outer loop
      vertex -1.07011 -0.945799 0
      vertex -0.856091 -1.71664 2.4
      vertex -1.48055 -1.08409 0
    endloop
  endfacet
  facet normal 0.203982 -0.926636 -0.315811
    outer loop
      vertex -0.517702 -1.64215 2.4
      vertex -0.856091 -1.71664 2.4
      vertex -1.07011 -0.945799 0
    endloop
  endfacet
  facet normal 0.20397 -0.92664 -0.315809
    outer loop
      vertex -0.647127 -0.852693 0
      vertex -0.517702 -1.64215 2.4
      vertex -1.07011 -0.945799 0
    endloop
  endfacet
  facet normal 0.10258 -0.943261 -0.315809
    outer loop
      vertex -0.173244 -1.60469 2.4
      vertex -0.517702 -1.64215 2.4
      vertex -0.647127 -0.852693 0
    endloop
  endfacet
  facet normal 0.102585 -0.943261 -0.315809
    outer loop
      vertex -0.216555 -0.805866 0
      vertex -0.173244 -1.60469 2.4
      vertex -0.647127 -0.852693 0
    endloop
  endfacet
  facet normal 0 -0.948823 -0.315809
    outer loop
      vertex -0.216555 -0.805866 0
      vertex 0.173244 -1.60469 2.4
      vertex -0.173244 -1.60469 2.4
    endloop
  endfacet
  facet normal 0 -0.948823 -0.315809
    outer loop
      vertex 0.173244 -1.60469 2.4
      vertex -0.216555 -0.805866 0
      vertex 0.216556 -0.805866 0
    endloop
  endfacet
  facet normal -0.10258 -0.943261 -0.315809
    outer loop
      vertex 0.216556 -0.805866 0
      vertex 0.517702 -1.64215 2.4
      vertex 0.173244 -1.60469 2.4
    endloop
  endfacet
  facet normal -0.102585 -0.943261 -0.315809
    outer loop
      vertex 0.647127 -0.852693 0
      vertex 0.517702 -1.64215 2.4
      vertex 0.216556 -0.805866 0
    endloop
  endfacet
  facet normal -0.203982 -0.926637 -0.315809
    outer loop
      vertex 0.647127 -0.852693 0
      vertex 0.856091 -1.71664 2.4
      vertex 0.517702 -1.64215 2.4
    endloop
  endfacet
  facet normal -0.20397 -0.926639 -0.31581
    outer loop
      vertex 1.07011 -0.945799 0
      vertex 0.856091 -1.71664 2.4
      vertex 0.647127 -0.852693 0
    endloop
  endfacet
  facet normal -0.302951 -0.899158 -0.31581
    outer loop
      vertex 1.07011 -0.945799 0
      vertex 1.18444 -1.82727 2.4
      vertex 0.856091 -1.71664 2.4
    endloop
  endfacet
  facet normal -0.302956 -0.899156 -0.31581
    outer loop
      vertex 1.48055 -1.08409 0
      vertex 1.18444 -1.82727 2.4
      vertex 1.07011 -0.945799 0
    endloop
  endfacet
  facet normal -0.398402 -0.861127 -0.31581
    outer loop
      vertex 1.48055 -1.08409 0
      vertex 1.49891 -1.97276 2.4
      vertex 1.18444 -1.82727 2.4
    endloop
  endfacet
  facet normal -0.398404 -0.861127 -0.315809
    outer loop
      vertex 1.87363 -1.26595 0
      vertex 1.49891 -1.97276 2.4
      vertex 1.48055 -1.08409 0
    endloop
  endfacet
  facet normal -0.489164 -0.813009 -0.315809
    outer loop
      vertex 1.87363 -1.26595 0
      vertex 1.7958 -2.15139 2.4
      vertex 1.49891 -1.97276 2.4
    endloop
  endfacet
  facet normal -0.48916 -0.813011 -0.31581
    outer loop
      vertex 1.87363 -1.26595 0
      vertex 2.24475 -1.48924 0
      vertex 1.7958 -2.15139 2.4
    endloop
  endfacet
  facet normal -0.574206 -0.755349 -0.31581
    outer loop
      vertex 2.24475 -1.48924 0
      vertex 2.07164 -2.36108 2.4
      vertex 1.7958 -2.15139 2.4
    endloop
  endfacet
  facet normal -0.574203 -0.755351 -0.315811
    outer loop
      vertex 2.24475 -1.48924 0
      vertex 2.58955 -1.75135 0
      vertex 2.07164 -2.36108 2.4
    endloop
  endfacet
  facet normal -0.652517 -0.688829 -0.31581
    outer loop
      vertex 2.58955 -1.75135 0
      vertex 2.32318 -2.59936 2.4
      vertex 2.07164 -2.36108 2.4
    endloop
  endfacet
  facet normal -0.652511 -0.688834 -0.315811
    outer loop
      vertex 2.58955 -1.75135 0
      vertex 2.90398 -2.0492 0
      vertex 2.32318 -2.59936 2.4
    endloop
  endfacet
  facet normal -0.723145 -0.614268 -0.315812
    outer loop
      vertex 2.90398 -2.0492 0
      vertex 2.5475 -2.86344 2.4
      vertex 2.32318 -2.59936 2.4
    endloop
  endfacet
  facet normal -0.723156 -0.614255 -0.315809
    outer loop
      vertex 2.90398 -2.0492 0
      vertex 3.18437 -2.3793 0
      vertex 2.5475 -2.86344 2.4
    endloop
  endfacet
  facet normal -0.785341 -0.532451 -0.315809
    outer loop
      vertex 3.18437 -2.3793 0
      vertex 2.74194 -3.15023 2.4
      vertex 2.5475 -2.86344 2.4
    endloop
  endfacet
  facet normal -0.785325 -0.532473 -0.315813
    outer loop
      vertex 3.18437 -2.3793 0
      vertex 3.42743 -2.73778 0
      vertex 2.74194 -3.15023 2.4
    endloop
  endfacet
  facet normal -0.838289 -0.444448 -0.315813
    outer loop
      vertex 3.42743 -2.73778 0
      vertex 2.90424 -3.45635 2.4
      vertex 2.74194 -3.15023 2.4
    endloop
  endfacet
  facet normal -0.838299 -0.44443 -0.31581
    outer loop
      vertex 3.42743 -2.73778 0
      vertex 3.6303 -3.12044 0
      vertex 2.90424 -3.45635 2.4
    endloop
  endfacet
  facet normal -0.881433 -0.351198 -0.31581
    outer loop
      vertex 3.6303 -3.12044 0
      vertex 3.03249 -3.77823 2.4
      vertex 2.90424 -3.45635 2.4
    endloop
  endfacet
  facet normal -0.881435 -0.351194 -0.315809
    outer loop
      vertex 3.6303 -3.12044 0
      vertex 3.79061 -3.52279 0
      vertex 3.03249 -3.77823 2.4
    endloop
  endfacet
  facet normal -0.914235 -0.253848 -0.315809
    outer loop
      vertex 3.79061 -3.52279 0
      vertex 3.12519 -4.11209 2.4
      vertex 3.03249 -3.77823 2.4
    endloop
  endfacet
  facet normal -0.914239 -0.253835 -0.315807
    outer loop
      vertex 3.79061 -3.52279 0
      vertex 3.90648 -3.94012 0
      vertex 3.12519 -4.11209 2.4
    endloop
  endfacet
  facet normal -0.936327 -0.153485 -0.315807
    outer loop
      vertex 3.90648 -3.94012 0
      vertex 3.18124 -4.45402 2.4
      vertex 3.12519 -4.11209 2.4
    endloop
  endfacet
  facet normal -0.936323 -0.153502 -0.31581
    outer loop
      vertex 3.90648 -3.94012 0
      vertex 3.97655 -4.36753 0
      vertex 3.18124 -4.45402 2.4
    endloop
  endfacet
  facet normal -0.947431 -0.0513723 -0.31581
    outer loop
      vertex 3.97655 -4.36753 0
      vertex 3.2 -4.8 2.4
      vertex 3.18124 -4.45402 2.4
    endloop
  endfacet
  facet normal -0.947431 -0.0513729 -0.31581
    outer loop
      vertex 3.97655 -4.36753 0
      vertex 4 -4.8 0
      vertex 3.2 -4.8 2.4
    endloop
  endfacet
  facet normal -0.947431 0.0513723 -0.31581
    outer loop
      vertex 3.2 -4.8 2.4
      vertex 4 -4.8 0
      vertex 3.18124 -5.14598 2.4
    endloop
  endfacet
  facet normal -0.947431 0.0513717 -0.31581
    outer loop
      vertex 4 -4.8 0
      vertex 3.97655 -5.23248 0
      vertex 3.18124 -5.14598 2.4
    endloop
  endfacet
  facet normal 0 -1 0
    outer loop
      vertex -4.8 -9.6 0
      vertex 4.8 -9.6 2.4
      vertex -4.8 -9.6 2.4
    endloop
  endfacet
  facet normal 0 -1 -0
    outer loop
      vertex 4.8 -9.6 2.4
      vertex -4.8 -9.6 0
      vertex 4.8 -9.6 0
    endloop
  endfacet
  facet normal 1 -0 0
    outer loop
      vertex 4.8 -9.6 2.4
      vertex 4.8 0 0
      vertex 4.8 0 2.4
    endloop
  endfacet
  facet normal 1 0 0
    outer loop
      vertex 4.8 0 0
      vertex 4.8 -9.6 2.4
      vertex 4.8 -9.6 0
    endloop
  endfacet
endsolid OpenSCAD_Model
