solid OpenSCAD_Model
  facet normal 0 1 0
    outer loop
      vertex 16.8 0 2.4
      vertex 3 0 1.8
      vertex 3 0 2.4
    endloop
  endfacet
  facet normal 0 1 0
    outer loop
      vertex 3 0 1.8
      vertex 3 0 0.599999
      vertex 1 0 1.8
    endloop
  endfacet
  facet normal 0 1 0
    outer loop
      vertex 16.8 0 2.4
      vertex 3 0 0.599999
      vertex 3 0 1.8
    endloop
  endfacet
  facet normal 0 1 -0
    outer loop
      vertex 16.8 0 0
      vertex 3 0 0.599999
      vertex 16.8 0 2.4
    endloop
  endfacet
  facet normal 0 1 0
    outer loop
      vertex 3 0 0.599999
      vertex 16.8 0 0
      vertex 3 0 0
    endloop
  endfacet
  facet normal 0 1 0
    outer loop
      vertex 1 0 1.8
      vertex 3 0 0.599999
      vertex 1 0 0.599999
    endloop
  endfacet
  facet normal 0 1 -0
    outer loop
      vertex 0 0 0
      vertex -2.4 0 2.4
      vertex 0 0 2.4
    endloop
  endfacet
  facet normal 0 1 0
    outer loop
      vertex -2.4 0 2.4
      vertex 0 0 0
      vertex -2.4 0 0
    endloop
  endfacet
  facet normal 0 0 1
    outer loop
      vertex 16.8 0 2.4
      vertex 15.2 -4.8 2.4
      vertex 16.8 -9.6 2.4
    endloop
  endfacet
  facet normal 0 0 1
    outer loop
      vertex 16.8 0 2.4
      vertex 15.1812 -4.45402 2.4
      vertex 15.2 -4.8 2.4
    endloop
  endfacet
  facet normal 0 0 1
    outer loop
      vertex 16.8 0 2.4
      vertex 15.1252 -4.11209 2.4
      vertex 15.1812 -4.45402 2.4
    endloop
  endfacet
  facet normal 0 0 1
    outer loop
      vertex 16.8 0 2.4
      vertex 15.0325 -3.77823 2.4
      vertex 15.1252 -4.11209 2.4
    endloop
  endfacet
  facet normal 0 0 1
    outer loop
      vertex 16.8 0 2.4
      vertex 14.9042 -3.45635 2.4
      vertex 15.0325 -3.77823 2.4
    endloop
  endfacet
  facet normal 0 0 1
    outer loop
      vertex 16.8 0 2.4
      vertex 14.7419 -3.15023 2.4
      vertex 14.9042 -3.45635 2.4
    endloop
  endfacet
  facet normal 0 0 1
    outer loop
      vertex 16.8 0 2.4
      vertex 14.5475 -2.86344 2.4
      vertex 14.7419 -3.15023 2.4
    endloop
  endfacet
  facet normal 0 0 1
    outer loop
      vertex 16.8 0 2.4
      vertex 14.3232 -2.59936 2.4
      vertex 14.5475 -2.86344 2.4
    endloop
  endfacet
  facet normal 0 0 1
    outer loop
      vertex 16.8 0 2.4
      vertex 14.0716 -2.36108 2.4
      vertex 14.3232 -2.59936 2.4
    endloop
  endfacet
  facet normal 0 0 1
    outer loop
      vertex 16.8 0 2.4
      vertex 13.7958 -2.15139 2.4
      vertex 14.0716 -2.36108 2.4
    endloop
  endfacet
  facet normal 0 0 1
    outer loop
      vertex 16.8 0 2.4
      vertex 13.4989 -1.97276 2.4
      vertex 13.7958 -2.15139 2.4
    endloop
  endfacet
  facet normal 0 0 1
    outer loop
      vertex 16.8 0 2.4
      vertex 13.1844 -1.82727 2.4
      vertex 13.4989 -1.97276 2.4
    endloop
  endfacet
  facet normal 0 0 1
    outer loop
      vertex 16.8 0 2.4
      vertex 12.8561 -1.71664 2.4
      vertex 13.1844 -1.82727 2.4
    endloop
  endfacet
  facet normal 0 0 1
    outer loop
      vertex 16.8 0 2.4
      vertex 12.5177 -1.64215 2.4
      vertex 12.8561 -1.71664 2.4
    endloop
  endfacet
  facet normal 0 0 1
    outer loop
      vertex 16.8 0 2.4
      vertex 12.1732 -1.60469 2.4
      vertex 12.5177 -1.64215 2.4
    endloop
  endfacet
  facet normal 0 0 1
    outer loop
      vertex 16.8 0 2.4
      vertex 11.8268 -1.60469 2.4
      vertex 12.1732 -1.60469 2.4
    endloop
  endfacet
  facet normal 0 0 1
    outer loop
      vertex 16.8 0 2.4
      vertex 11.4823 -1.64215 2.4
      vertex 11.8268 -1.60469 2.4
    endloop
  endfacet
  facet normal -0 0 1
    outer loop
      vertex 3 0 2.4
      vertex 11.4823 -1.64215 2.4
      vertex 16.8 0 2.4
    endloop
  endfacet
  facet normal 0 0 1
    outer loop
      vertex 8.81876 -4.45402 2.4
      vertex 5.6 -4.8 2.4
      vertex 8.8 -4.8 2.4
    endloop
  endfacet
  facet normal 0 0 1
    outer loop
      vertex 5.58124 -4.45402 2.4
      vertex 8.81876 -4.45402 2.4
      vertex 8.87481 -4.11209 2.4
    endloop
  endfacet
  facet normal 0 0 1
    outer loop
      vertex 5.52519 -4.11209 2.4
      vertex 8.87481 -4.11209 2.4
      vertex 8.96751 -3.77823 2.4
    endloop
  endfacet
  facet normal 0 0 1
    outer loop
      vertex 5.43249 -3.77823 2.4
      vertex 8.96751 -3.77823 2.4
      vertex 9.09576 -3.45635 2.4
    endloop
  endfacet
  facet normal 0 0 1
    outer loop
      vertex 5.30424 -3.45635 2.4
      vertex 9.09576 -3.45635 2.4
      vertex 9.25806 -3.15023 2.4
    endloop
  endfacet
  facet normal 0 0 1
    outer loop
      vertex 5.14194 -3.15023 2.4
      vertex 9.25806 -3.15023 2.4
      vertex 9.4525 -2.86344 2.4
    endloop
  endfacet
  facet normal 0 0 1
    outer loop
      vertex 4.9475 -2.86344 2.4
      vertex 9.4525 -2.86344 2.4
      vertex 9.67681 -2.59936 2.4
    endloop
  endfacet
  facet normal 0 0 1
    outer loop
      vertex 4.72319 -2.59936 2.4
      vertex 9.67681 -2.59936 2.4
      vertex 9.92836 -2.36108 2.4
    endloop
  endfacet
  facet normal 0 0 1
    outer loop
      vertex 3 0 2.4
      vertex 9.92836 -2.36108 2.4
      vertex 10.2042 -2.15139 2.4
    endloop
  endfacet
  facet normal 0 0 1
    outer loop
      vertex 3 0 2.4
      vertex 10.2042 -2.15139 2.4
      vertex 10.5011 -1.97276 2.4
    endloop
  endfacet
  facet normal 0 0 1
    outer loop
      vertex 8.81876 -4.45402 2.4
      vertex 5.58124 -4.45402 2.4
      vertex 5.6 -4.8 2.4
    endloop
  endfacet
  facet normal 0 0 1
    outer loop
      vertex 8.87481 -4.11209 2.4
      vertex 5.52519 -4.11209 2.4
      vertex 5.58124 -4.45402 2.4
    endloop
  endfacet
  facet normal 0 0 1
    outer loop
      vertex 3 0 2.4
      vertex 10.5011 -1.97276 2.4
      vertex 10.8156 -1.82727 2.4
    endloop
  endfacet
  facet normal 0 0 1
    outer loop
      vertex 8.96751 -3.77823 2.4
      vertex 5.43249 -3.77823 2.4
      vertex 5.52519 -4.11209 2.4
    endloop
  endfacet
  facet normal 0 0 1
    outer loop
      vertex 9.09576 -3.45635 2.4
      vertex 5.30424 -3.45635 2.4
      vertex 5.43249 -3.77823 2.4
    endloop
  endfacet
  facet normal 0 0 1
    outer loop
      vertex 3 0 2.4
      vertex 10.8156 -1.82727 2.4
      vertex 11.1439 -1.71664 2.4
    endloop
  endfacet
  facet normal 0 0 1
    outer loop
      vertex 11.4823 -1.64215 2.4
      vertex 3 0 2.4
      vertex 11.1439 -1.71664 2.4
    endloop
  endfacet
  facet normal 0 0 1
    outer loop
      vertex 9.25806 -3.15023 2.4
      vertex 5.14194 -3.15023 2.4
      vertex 5.30424 -3.45635 2.4
    endloop
  endfacet
  facet normal 0 0 1
    outer loop
      vertex 9.4525 -2.86344 2.4
      vertex 4.9475 -2.86344 2.4
      vertex 5.14194 -3.15023 2.4
    endloop
  endfacet
  facet normal 0 0 1
    outer loop
      vertex 9.67681 -2.59936 2.4
      vertex 4.72319 -2.59936 2.4
      vertex 4.9475 -2.86344 2.4
    endloop
  endfacet
  facet normal 0 0 1
    outer loop
      vertex 9.92836 -2.36108 2.4
      vertex 3 0 2.4
      vertex 4.47164 -2.36108 2.4
    endloop
  endfacet
  facet normal 0 0 1
    outer loop
      vertex 9.92836 -2.36108 2.4
      vertex 4.47164 -2.36108 2.4
      vertex 4.72319 -2.59936 2.4
    endloop
  endfacet
  facet normal 0 0 1
    outer loop
      vertex 4.47164 -2.36108 2.4
      vertex 3 0 2.4
      vertex 4.1958 -2.15139 2.4
    endloop
  endfacet
  facet normal 0 0 1
    outer loop
      vertex 4.1958 -2.15139 2.4
      vertex 3 0 2.4
      vertex 3.89891 -1.97276 2.4
    endloop
  endfacet
  facet normal 0 0 1
    outer loop
      vertex 3.89891 -1.97276 2.4
      vertex 3 0 2.4
      vertex 3.58444 -1.82727 2.4
    endloop
  endfacet
  facet normal 0 0 1
    outer loop
      vertex 3.58444 -1.82727 2.4
      vertex 3 0 2.4
      vertex 3.25609 -1.71664 2.4
    endloop
  endfacet
  facet normal 0 0 1
    outer loop
      vertex 3 0 2.4
      vertex 2.9177 -1.64215 2.4
      vertex 3.25609 -1.71664 2.4
    endloop
  endfacet
  facet normal 0 0 1
    outer loop
      vertex 3 0 2.4
      vertex 2.57324 -1.60469 2.4
      vertex 2.9177 -1.64215 2.4
    endloop
  endfacet
  facet normal 0 0 1
    outer loop
      vertex 3 0 2.4
      vertex 2.22676 -1.60469 2.4
      vertex 2.57324 -1.60469 2.4
    endloop
  endfacet
  facet normal 0 0 1
    outer loop
      vertex 3 0 2.4
      vertex 1.8823 -1.64215 2.4
      vertex 2.22676 -1.60469 2.4
    endloop
  endfacet
  facet normal -0 0 1
    outer loop
      vertex 0 0 2.4
      vertex 1.8823 -1.64215 2.4
      vertex 3 0 2.4
    endloop
  endfacet
  facet normal 0 0 1
    outer loop
      vertex 1.8823 -1.64215 2.4
      vertex 0 0 2.4
      vertex 1.54391 -1.71664 2.4
    endloop
  endfacet
  facet normal 0 0 1
    outer loop
      vertex 0 0 2.4
      vertex 3 0 2.4
      vertex 1 2 2.4
    endloop
  endfacet
  facet normal 0 0 1
    outer loop
      vertex 1.54391 -1.71664 2.4
      vertex 0 0 2.4
      vertex 1.21556 -1.82727 2.4
    endloop
  endfacet
  facet normal 0 0 1
    outer loop
      vertex 1.21556 -1.82727 2.4
      vertex 0 0 2.4
      vertex 0.901093 -1.97276 2.4
    endloop
  endfacet
  facet normal 0 0 1
    outer loop
      vertex 0.901093 -1.97276 2.4
      vertex 0 0 2.4
      vertex 0.604201 -2.15139 2.4
    endloop
  endfacet
  facet normal 0 0 1
    outer loop
      vertex 0.604201 -2.15139 2.4
      vertex 0 0 2.4
      vertex 0.328363 -2.36108 2.4
    endloop
  endfacet
  facet normal 0 0 1
    outer loop
      vertex 0 0 2.4
      vertex 1 2 2.4
      vertex 0 2 2.4
    endloop
  endfacet
  facet normal 0 0 1
    outer loop
      vertex 0.328363 -2.36108 2.4
      vertex 0 0 2.4
      vertex 0.0768137 -2.59936 2.4
    endloop
  endfacet
  facet normal -0 0 1
    outer loop
      vertex -2.4 0 2.4
      vertex 0.0768137 -2.59936 2.4
      vertex 0 0 2.4
    endloop
  endfacet
  facet normal 0 0 1
    outer loop
      vertex 0.0768137 -2.59936 2.4
      vertex -2.4 0 2.4
      vertex -0.147497 -2.86344 2.4
    endloop
  endfacet
  facet normal 0 0 1
    outer loop
      vertex -0.147497 -2.86344 2.4
      vertex -2.4 0 2.4
      vertex -0.341943 -3.15023 2.4
    endloop
  endfacet
  facet normal 0 0 1
    outer loop
      vertex -0.341943 -3.15023 2.4
      vertex -2.4 0 2.4
      vertex -0.504241 -3.45635 2.4
    endloop
  endfacet
  facet normal 0 0 1
    outer loop
      vertex -0.504241 -3.45635 2.4
      vertex -2.4 0 2.4
      vertex -0.63249 -3.77823 2.4
    endloop
  endfacet
  facet normal 0 0 1
    outer loop
      vertex -0.781241 -4.45402 2.4
      vertex -2.4 0 2.4
      vertex -0.799999 -4.8 2.4
    endloop
  endfacet
  facet normal 0 0 1
    outer loop
      vertex -0.725185 -4.11209 2.4
      vertex -2.4 0 2.4
      vertex -0.781241 -4.45402 2.4
    endloop
  endfacet
  facet normal 0 0 1
    outer loop
      vertex -0.63249 -3.77823 2.4
      vertex -2.4 0 2.4
      vertex -0.725185 -4.11209 2.4
    endloop
  endfacet
  facet normal -0 0 1
    outer loop
      vertex 15.1812 -5.14598 2.4
      vertex 16.8 -9.6 2.4
      vertex 15.2 -4.8 2.4
    endloop
  endfacet
  facet normal -0 0 1
    outer loop
      vertex 15.1252 -5.48791 2.4
      vertex 16.8 -9.6 2.4
      vertex 15.1812 -5.14598 2.4
    endloop
  endfacet
  facet normal -0 0 1
    outer loop
      vertex 15.0325 -5.82177 2.4
      vertex 16.8 -9.6 2.4
      vertex 15.1252 -5.48791 2.4
    endloop
  endfacet
  facet normal -0 0 1
    outer loop
      vertex 14.9042 -6.14365 2.4
      vertex 16.8 -9.6 2.4
      vertex 15.0325 -5.82177 2.4
    endloop
  endfacet
  facet normal -0 0 1
    outer loop
      vertex 14.7419 -6.44977 2.4
      vertex 16.8 -9.6 2.4
      vertex 14.9042 -6.14365 2.4
    endloop
  endfacet
  facet normal -0 0 1
    outer loop
      vertex 14.5475 -6.73656 2.4
      vertex 16.8 -9.6 2.4
      vertex 14.7419 -6.44977 2.4
    endloop
  endfacet
  facet normal -0 0 1
    outer loop
      vertex 14.3232 -7.00064 2.4
      vertex 16.8 -9.6 2.4
      vertex 14.5475 -6.73656 2.4
    endloop
  endfacet
  facet normal -0 0 1
    outer loop
      vertex 14.0716 -7.23892 2.4
      vertex 16.8 -9.6 2.4
      vertex 14.3232 -7.00064 2.4
    endloop
  endfacet
  facet normal -0 0 1
    outer loop
      vertex 13.7958 -7.4486 2.4
      vertex 16.8 -9.6 2.4
      vertex 14.0716 -7.23892 2.4
    endloop
  endfacet
  facet normal -0 0 1
    outer loop
      vertex 13.4989 -7.62724 2.4
      vertex 16.8 -9.6 2.4
      vertex 13.7958 -7.4486 2.4
    endloop
  endfacet
  facet normal -0 0 1
    outer loop
      vertex 13.1844 -7.77273 2.4
      vertex 16.8 -9.6 2.4
      vertex 13.4989 -7.62724 2.4
    endloop
  endfacet
  facet normal -0 0 1
    outer loop
      vertex 12.8561 -7.88336 2.4
      vertex 16.8 -9.6 2.4
      vertex 13.1844 -7.77273 2.4
    endloop
  endfacet
  facet normal -0 0 1
    outer loop
      vertex 12.5177 -7.95784 2.4
      vertex 16.8 -9.6 2.4
      vertex 12.8561 -7.88336 2.4
    endloop
  endfacet
  facet normal -0 0 1
    outer loop
      vertex 12.1732 -7.99531 2.4
      vertex 16.8 -9.6 2.4
      vertex 12.5177 -7.95784 2.4
    endloop
  endfacet
  facet normal -0 0 1
    outer loop
      vertex 11.8268 -7.99531 2.4
      vertex 16.8 -9.6 2.4
      vertex 12.1732 -7.99531 2.4
    endloop
  endfacet
  facet normal 0 0 1
    outer loop
      vertex 11.4823 -7.95784 2.4
      vertex 16.8 -9.6 2.4
      vertex 11.8268 -7.99531 2.4
    endloop
  endfacet
  facet normal 0 0 1
    outer loop
      vertex 2.9177 -7.95784 2.4
      vertex 11.4823 -7.95784 2.4
      vertex 11.1439 -7.88336 2.4
    endloop
  endfacet
  facet normal -0 0 1
    outer loop
      vertex 5.6 -4.8 2.4
      vertex 8.81876 -5.14598 2.4
      vertex 8.8 -4.8 2.4
    endloop
  endfacet
  facet normal 0 0 1
    outer loop
      vertex 5.58124 -5.14598 2.4
      vertex 8.81876 -5.14598 2.4
      vertex 5.6 -4.8 2.4
    endloop
  endfacet
  facet normal 0 0 1
    outer loop
      vertex 8.81876 -5.14598 2.4
      vertex 5.58124 -5.14598 2.4
      vertex 8.87481 -5.48791 2.4
    endloop
  endfacet
  facet normal 0 0 1
    outer loop
      vertex 5.52519 -5.48791 2.4
      vertex 8.87481 -5.48791 2.4
      vertex 5.58124 -5.14598 2.4
    endloop
  endfacet
  facet normal 0 0 1
    outer loop
      vertex 8.87481 -5.48791 2.4
      vertex 5.52519 -5.48791 2.4
      vertex 8.96751 -5.82177 2.4
    endloop
  endfacet
  facet normal 0 0 1
    outer loop
      vertex 5.43249 -5.82177 2.4
      vertex 8.96751 -5.82177 2.4
      vertex 5.52519 -5.48791 2.4
    endloop
  endfacet
  facet normal 0 0 1
    outer loop
      vertex 8.96751 -5.82177 2.4
      vertex 5.43249 -5.82177 2.4
      vertex 9.09576 -6.14365 2.4
    endloop
  endfacet
  facet normal 0 0 1
    outer loop
      vertex 5.30424 -6.14365 2.4
      vertex 9.09576 -6.14365 2.4
      vertex 5.43249 -5.82177 2.4
    endloop
  endfacet
  facet normal 0 0 1
    outer loop
      vertex 9.09576 -6.14365 2.4
      vertex 5.30424 -6.14365 2.4
      vertex 9.25806 -6.44977 2.4
    endloop
  endfacet
  facet normal 0 0 1
    outer loop
      vertex 5.14194 -6.44977 2.4
      vertex 9.25806 -6.44977 2.4
      vertex 5.30424 -6.14365 2.4
    endloop
  endfacet
  facet normal 0 0 1
    outer loop
      vertex 9.25806 -6.44977 2.4
      vertex 5.14194 -6.44977 2.4
      vertex 9.4525 -6.73656 2.4
    endloop
  endfacet
  facet normal 0 0 1
    outer loop
      vertex 4.9475 -6.73656 2.4
      vertex 9.4525 -6.73656 2.4
      vertex 5.14194 -6.44977 2.4
    endloop
  endfacet
  facet normal 0 0 1
    outer loop
      vertex 9.4525 -6.73656 2.4
      vertex 4.9475 -6.73656 2.4
      vertex 9.67681 -7.00064 2.4
    endloop
  endfacet
  facet normal 0 0 1
    outer loop
      vertex 4.72319 -7.00064 2.4
      vertex 9.67681 -7.00064 2.4
      vertex 4.9475 -6.73656 2.4
    endloop
  endfacet
  facet normal 0 0 1
    outer loop
      vertex 9.67681 -7.00064 2.4
      vertex 4.72319 -7.00064 2.4
      vertex 9.92836 -7.23892 2.4
    endloop
  endfacet
  facet normal 0 0 1
    outer loop
      vertex 4.47164 -7.23892 2.4
      vertex 9.92836 -7.23892 2.4
      vertex 4.72319 -7.00064 2.4
    endloop
  endfacet
  facet normal 0 0 1
    outer loop
      vertex 9.92836 -7.23892 2.4
      vertex 4.47164 -7.23892 2.4
      vertex 10.2042 -7.4486 2.4
    endloop
  endfacet
  facet normal 0 0 1
    outer loop
      vertex 4.1958 -7.4486 2.4
      vertex 10.2042 -7.4486 2.4
      vertex 4.47164 -7.23892 2.4
    endloop
  endfacet
  facet normal 0 0 1
    outer loop
      vertex 10.2042 -7.4486 2.4
      vertex 4.1958 -7.4486 2.4
      vertex 10.5011 -7.62724 2.4
    endloop
  endfacet
  facet normal 0 0 1
    outer loop
      vertex 3.89891 -7.62724 2.4
      vertex 10.5011 -7.62724 2.4
      vertex 4.1958 -7.4486 2.4
    endloop
  endfacet
  facet normal 0 0 1
    outer loop
      vertex 10.5011 -7.62724 2.4
      vertex 3.89891 -7.62724 2.4
      vertex 10.8156 -7.77273 2.4
    endloop
  endfacet
  facet normal 0 0 1
    outer loop
      vertex 3.58444 -7.77273 2.4
      vertex 10.8156 -7.77273 2.4
      vertex 3.89891 -7.62724 2.4
    endloop
  endfacet
  facet normal 0 0 1
    outer loop
      vertex 10.8156 -7.77273 2.4
      vertex 3.58444 -7.77273 2.4
      vertex 11.1439 -7.88336 2.4
    endloop
  endfacet
  facet normal 0 0 1
    outer loop
      vertex 3.25609 -7.88336 2.4
      vertex 11.1439 -7.88336 2.4
      vertex 3.58444 -7.77273 2.4
    endloop
  endfacet
  facet normal 0 0 1
    outer loop
      vertex 2.9177 -7.95784 2.4
      vertex 11.1439 -7.88336 2.4
      vertex 3.25609 -7.88336 2.4
    endloop
  endfacet
  facet normal 0 0 1
    outer loop
      vertex 11.4823 -7.95784 2.4
      vertex 2.9177 -7.95784 2.4
      vertex 16.8 -9.6 2.4
    endloop
  endfacet
  facet normal 0 0 1
    outer loop
      vertex -2.4 -9.6 2.4
      vertex 2.9177 -7.95784 2.4
      vertex 2.57324 -7.99531 2.4
    endloop
  endfacet
  facet normal 0 0 1
    outer loop
      vertex -2.4 -9.6 2.4
      vertex 2.57324 -7.99531 2.4
      vertex 2.22676 -7.99531 2.4
    endloop
  endfacet
  facet normal 0 0 1
    outer loop
      vertex -2.4 -9.6 2.4
      vertex 2.22676 -7.99531 2.4
      vertex 1.8823 -7.95784 2.4
    endloop
  endfacet
  facet normal 0 0 1
    outer loop
      vertex -2.4 -9.6 2.4
      vertex -0.799999 -4.8 2.4
      vertex -2.4 0 2.4
    endloop
  endfacet
  facet normal 0 0 1
    outer loop
      vertex -0.799999 -4.8 2.4
      vertex -2.4 -9.6 2.4
      vertex -0.781241 -5.14598 2.4
    endloop
  endfacet
  facet normal 0 0 1
    outer loop
      vertex -0.781241 -5.14598 2.4
      vertex -2.4 -9.6 2.4
      vertex -0.725185 -5.48791 2.4
    endloop
  endfacet
  facet normal 0 0 1
    outer loop
      vertex 2.9177 -7.95784 2.4
      vertex -2.4 -9.6 2.4
      vertex 16.8 -9.6 2.4
    endloop
  endfacet
  facet normal 0 0 1
    outer loop
      vertex 1.54391 -7.88336 2.4
      vertex -2.4 -9.6 2.4
      vertex 1.8823 -7.95784 2.4
    endloop
  endfacet
  facet normal 0 0 1
    outer loop
      vertex 1.21556 -7.77273 2.4
      vertex -2.4 -9.6 2.4
      vertex 1.54391 -7.88336 2.4
    endloop
  endfacet
  facet normal 0 0 1
    outer loop
      vertex 0.901093 -7.62724 2.4
      vertex -2.4 -9.6 2.4
      vertex 1.21556 -7.77273 2.4
    endloop
  endfacet
  facet normal 0 0 1
    outer loop
      vertex 0.604201 -7.4486 2.4
      vertex -2.4 -9.6 2.4
      vertex 0.901093 -7.62724 2.4
    endloop
  endfacet
  facet normal 0 0 1
    outer loop
      vertex 0.328363 -7.23892 2.4
      vertex -2.4 -9.6 2.4
      vertex 0.604201 -7.4486 2.4
    endloop
  endfacet
  facet normal 0 0 1
    outer loop
      vertex 0.0768137 -7.00064 2.4
      vertex -2.4 -9.6 2.4
      vertex 0.328363 -7.23892 2.4
    endloop
  endfacet
  facet normal 0 0 1
    outer loop
      vertex -0.147497 -6.73656 2.4
      vertex -2.4 -9.6 2.4
      vertex 0.0768137 -7.00064 2.4
    endloop
  endfacet
  facet normal 0 0 1
    outer loop
      vertex -0.341943 -6.44977 2.4
      vertex -2.4 -9.6 2.4
      vertex -0.147497 -6.73656 2.4
    endloop
  endfacet
  facet normal 0 0 1
    outer loop
      vertex -0.504241 -6.14365 2.4
      vertex -2.4 -9.6 2.4
      vertex -0.341943 -6.44977 2.4
    endloop
  endfacet
  facet normal 0 0 1
    outer loop
      vertex -0.63249 -5.82177 2.4
      vertex -2.4 -9.6 2.4
      vertex -0.504241 -6.14365 2.4
    endloop
  endfacet
  facet normal 0 0 1
    outer loop
      vertex -0.725185 -5.48791 2.4
      vertex -2.4 -9.6 2.4
      vertex -0.63249 -5.82177 2.4
    endloop
  endfacet
  facet normal -1 0 0
    outer loop
      vertex -2.4 -9.6 0
      vertex -2.4 0 2.4
      vertex -2.4 0 0
    endloop
  endfacet
  facet normal -1 -0 0
    outer loop
      vertex -2.4 0 2.4
      vertex -2.4 -9.6 0
      vertex -2.4 -9.6 2.4
    endloop
  endfacet
  facet normal 0 0 -1
    outer loop
      vertex -0.189545 -1.75135 0
      vertex 0 0 0
      vertex 0.155252 -1.48924 0
    endloop
  endfacet
  facet normal 0 0 -1
    outer loop
      vertex -2.4 0 0
      vertex -0.189545 -1.75135 0
      vertex -0.503982 -2.0492 0
    endloop
  endfacet
  facet normal 0 0 -1
    outer loop
      vertex -2.4 0 0
      vertex -0.503982 -2.0492 0
      vertex -0.784372 -2.3793 0
    endloop
  endfacet
  facet normal 0 0 -1
    outer loop
      vertex -2.4 0 0
      vertex -0.784372 -2.3793 0
      vertex -1.02743 -2.73778 0
    endloop
  endfacet
  facet normal 0 0 -1
    outer loop
      vertex -2.4 0 0
      vertex -1.02743 -2.73778 0
      vertex -1.2303 -3.12044 0
    endloop
  endfacet
  facet normal 0 0 -1
    outer loop
      vertex -2.4 0 0
      vertex -1.2303 -3.12044 0
      vertex -1.39061 -3.52279 0
    endloop
  endfacet
  facet normal 0 0 -1
    outer loop
      vertex -2.4 0 0
      vertex -1.6 -4.8 0
      vertex -2.4 -9.6 0
    endloop
  endfacet
  facet normal 0 0 -1
    outer loop
      vertex -0.189545 -1.75135 0
      vertex -2.4 0 0
      vertex 0 0 0
    endloop
  endfacet
  facet normal 0 0 -1
    outer loop
      vertex -1.50648 -3.94012 0
      vertex -2.4 0 0
      vertex -1.39061 -3.52279 0
    endloop
  endfacet
  facet normal 0 0 -1
    outer loop
      vertex -1.57655 -4.36753 0
      vertex -2.4 0 0
      vertex -1.50648 -3.94012 0
    endloop
  endfacet
  facet normal 0 0 -1
    outer loop
      vertex -1.6 -4.8 0
      vertex -2.4 0 0
      vertex -1.57655 -4.36753 0
    endloop
  endfacet
  facet normal 0 0 -1
    outer loop
      vertex 16.8 -9.6 0
      vertex 16 -4.8 0
      vertex 16.8 0 0
    endloop
  endfacet
  facet normal 0 0 -1
    outer loop
      vertex 16.8 -9.6 0
      vertex 15.9766 -5.23248 0
      vertex 16 -4.8 0
    endloop
  endfacet
  facet normal 0 0 -1
    outer loop
      vertex 16.8 -9.6 0
      vertex 15.9065 -5.65988 0
      vertex 15.9766 -5.23248 0
    endloop
  endfacet
  facet normal 0 0 -1
    outer loop
      vertex 16.8 -9.6 0
      vertex 15.7906 -6.07721 0
      vertex 15.9065 -5.65988 0
    endloop
  endfacet
  facet normal 0 0 -1
    outer loop
      vertex 16.8 -9.6 0
      vertex 15.6303 -6.47956 0
      vertex 15.7906 -6.07721 0
    endloop
  endfacet
  facet normal 0 0 -1
    outer loop
      vertex 16.8 -9.6 0
      vertex 15.4274 -6.86221 0
      vertex 15.6303 -6.47956 0
    endloop
  endfacet
  facet normal 0 0 -1
    outer loop
      vertex 16.8 -9.6 0
      vertex 15.1844 -7.22069 0
      vertex 15.4274 -6.86221 0
    endloop
  endfacet
  facet normal 0 0 -1
    outer loop
      vertex 16.8 -9.6 0
      vertex 14.904 -7.5508 0
      vertex 15.1844 -7.22069 0
    endloop
  endfacet
  facet normal 0 0 -1
    outer loop
      vertex 16.8 -9.6 0
      vertex 14.5895 -7.84865 0
      vertex 14.904 -7.5508 0
    endloop
  endfacet
  facet normal 0 0 -1
    outer loop
      vertex 16.8 -9.6 0
      vertex 14.2447 -8.11076 0
      vertex 14.5895 -7.84865 0
    endloop
  endfacet
  facet normal 0 0 -1
    outer loop
      vertex 16.8 -9.6 0
      vertex 13.8736 -8.33405 0
      vertex 14.2447 -8.11076 0
    endloop
  endfacet
  facet normal 0 0 -1
    outer loop
      vertex 16.8 -9.6 0
      vertex 13.4806 -8.51591 0
      vertex 13.8736 -8.33405 0
    endloop
  endfacet
  facet normal 0 0 -1
    outer loop
      vertex 16.8 -9.6 0
      vertex 13.0701 -8.6542 0
      vertex 13.4806 -8.51591 0
    endloop
  endfacet
  facet normal 0 0 -1
    outer loop
      vertex 16.8 -9.6 0
      vertex 12.6471 -8.74731 0
      vertex 13.0701 -8.6542 0
    endloop
  endfacet
  facet normal 0 0 -1
    outer loop
      vertex 16.8 -9.6 0
      vertex 12.2166 -8.79414 0
      vertex 12.6471 -8.74731 0
    endloop
  endfacet
  facet normal 0 0 -1
    outer loop
      vertex 16.8 -9.6 0
      vertex 11.7834 -8.79414 0
      vertex 12.2166 -8.79414 0
    endloop
  endfacet
  facet normal 0 0 -1
    outer loop
      vertex 2.61656 -8.79414 0
      vertex 11.7834 -8.79414 0
      vertex 16.8 -9.6 0
    endloop
  endfacet
  facet normal 0 0 -1
    outer loop
      vertex 8.02345 -5.23248 0
      vertex 6.4 -4.8 0
      vertex 8 -4.8 0
    endloop
  endfacet
  facet normal 0 0 -1
    outer loop
      vertex 6.37655 -5.23248 0
      vertex 8.02345 -5.23248 0
      vertex 8.09352 -5.65988 0
    endloop
  endfacet
  facet normal 0 0 -1
    outer loop
      vertex 6.30648 -5.65988 0
      vertex 8.09352 -5.65988 0
      vertex 8.20939 -6.07721 0
    endloop
  endfacet
  facet normal 0 0 -1
    outer loop
      vertex 6.19061 -6.07721 0
      vertex 8.20939 -6.07721 0
      vertex 8.3697 -6.47956 0
    endloop
  endfacet
  facet normal 0 0 -1
    outer loop
      vertex 6.0303 -6.47956 0
      vertex 8.3697 -6.47956 0
      vertex 8.57257 -6.86221 0
    endloop
  endfacet
  facet normal 0 0 -1
    outer loop
      vertex 5.82743 -6.86221 0
      vertex 8.57257 -6.86221 0
      vertex 8.81563 -7.22069 0
    endloop
  endfacet
  facet normal 0 0 -1
    outer loop
      vertex 5.58437 -7.22069 0
      vertex 8.81563 -7.22069 0
      vertex 9.09602 -7.5508 0
    endloop
  endfacet
  facet normal 0 0 -1
    outer loop
      vertex 8.02345 -5.23248 0
      vertex 6.37655 -5.23248 0
      vertex 6.4 -4.8 0
    endloop
  endfacet
  facet normal 0 0 -1
    outer loop
      vertex 5.30398 -7.5508 0
      vertex 9.09602 -7.5508 0
      vertex 9.41045 -7.84865 0
    endloop
  endfacet
  facet normal 0 0 -1
    outer loop
      vertex 8.09352 -5.65988 0
      vertex 6.30648 -5.65988 0
      vertex 6.37655 -5.23248 0
    endloop
  endfacet
  facet normal 0 0 -1
    outer loop
      vertex 4.98954 -7.84865 0
      vertex 9.41045 -7.84865 0
      vertex 9.75525 -8.11076 0
    endloop
  endfacet
  facet normal 0 0 -1
    outer loop
      vertex 8.20939 -6.07721 0
      vertex 6.19061 -6.07721 0
      vertex 6.30648 -5.65988 0
    endloop
  endfacet
  facet normal 0 0 -1
    outer loop
      vertex 4.64475 -8.11076 0
      vertex 9.75525 -8.11076 0
      vertex 10.1264 -8.33405 0
    endloop
  endfacet
  facet normal 0 0 -1
    outer loop
      vertex 8.3697 -6.47956 0
      vertex 6.0303 -6.47956 0
      vertex 6.19061 -6.07721 0
    endloop
  endfacet
  facet normal 0 0 -1
    outer loop
      vertex 4.27363 -8.33405 0
      vertex 10.1264 -8.33405 0
      vertex 10.5194 -8.51591 0
    endloop
  endfacet
  facet normal 0 0 -1
    outer loop
      vertex 8.57257 -6.86221 0
      vertex 5.82743 -6.86221 0
      vertex 6.0303 -6.47956 0
    endloop
  endfacet
  facet normal 0 0 -1
    outer loop
      vertex 8.81563 -7.22069 0
      vertex 5.58437 -7.22069 0
      vertex 5.82743 -6.86221 0
    endloop
  endfacet
  facet normal 0 0 -1
    outer loop
      vertex 3.88055 -8.51591 0
      vertex 10.5194 -8.51591 0
      vertex 10.9299 -8.6542 0
    endloop
  endfacet
  facet normal 0 0 -1
    outer loop
      vertex 9.09602 -7.5508 0
      vertex 5.30398 -7.5508 0
      vertex 5.58437 -7.22069 0
    endloop
  endfacet
  facet normal 0 0 -1
    outer loop
      vertex 3.47011 -8.6542 0
      vertex 10.9299 -8.6542 0
      vertex 11.3529 -8.74731 0
    endloop
  endfacet
  facet normal 0 0 -1
    outer loop
      vertex 9.41045 -7.84865 0
      vertex 4.98954 -7.84865 0
      vertex 5.30398 -7.5508 0
    endloop
  endfacet
  facet normal 0 0 -1
    outer loop
      vertex 11.7834 -8.79414 0
      vertex 3.04713 -8.74731 0
      vertex 11.3529 -8.74731 0
    endloop
  endfacet
  facet normal 0 0 -1
    outer loop
      vertex 9.75525 -8.11076 0
      vertex 4.64475 -8.11076 0
      vertex 4.98954 -7.84865 0
    endloop
  endfacet
  facet normal 0 0 -1
    outer loop
      vertex 10.1264 -8.33405 0
      vertex 4.27363 -8.33405 0
      vertex 4.64475 -8.11076 0
    endloop
  endfacet
  facet normal 0 0 -1
    outer loop
      vertex 10.5194 -8.51591 0
      vertex 3.88055 -8.51591 0
      vertex 4.27363 -8.33405 0
    endloop
  endfacet
  facet normal 0 0 -1
    outer loop
      vertex 10.9299 -8.6542 0
      vertex 3.47011 -8.6542 0
      vertex 3.88055 -8.51591 0
    endloop
  endfacet
  facet normal 0 0 -1
    outer loop
      vertex 11.3529 -8.74731 0
      vertex 3.04713 -8.74731 0
      vertex 3.47011 -8.6542 0
    endloop
  endfacet
  facet normal 0 0 -1
    outer loop
      vertex 11.7834 -8.79414 0
      vertex 2.61656 -8.79414 0
      vertex 3.04713 -8.74731 0
    endloop
  endfacet
  facet normal 0 0 -1
    outer loop
      vertex -2.4 -9.6 0
      vertex 2.61656 -8.79414 0
      vertex 16.8 -9.6 0
    endloop
  endfacet
  facet normal -0 0 -1
    outer loop
      vertex -1.57655 -5.23248 0
      vertex -2.4 -9.6 0
      vertex -1.6 -4.8 0
    endloop
  endfacet
  facet normal -0 0 -1
    outer loop
      vertex -1.50648 -5.65988 0
      vertex -2.4 -9.6 0
      vertex -1.57655 -5.23248 0
    endloop
  endfacet
  facet normal -0 0 -1
    outer loop
      vertex -1.39061 -6.07721 0
      vertex -2.4 -9.6 0
      vertex -1.50648 -5.65988 0
    endloop
  endfacet
  facet normal -0 0 -1
    outer loop
      vertex -1.2303 -6.47956 0
      vertex -2.4 -9.6 0
      vertex -1.39061 -6.07721 0
    endloop
  endfacet
  facet normal -0 0 -1
    outer loop
      vertex -1.02743 -6.86221 0
      vertex -2.4 -9.6 0
      vertex -1.2303 -6.47956 0
    endloop
  endfacet
  facet normal -0 0 -1
    outer loop
      vertex -0.784372 -7.22069 0
      vertex -2.4 -9.6 0
      vertex -1.02743 -6.86221 0
    endloop
  endfacet
  facet normal -0 0 -1
    outer loop
      vertex -0.503982 -7.5508 0
      vertex -2.4 -9.6 0
      vertex -0.784372 -7.22069 0
    endloop
  endfacet
  facet normal -0 0 -1
    outer loop
      vertex -0.189545 -7.84865 0
      vertex -2.4 -9.6 0
      vertex -0.503982 -7.5508 0
    endloop
  endfacet
  facet normal -0 0 -1
    outer loop
      vertex 0.155252 -8.11076 0
      vertex -2.4 -9.6 0
      vertex -0.189545 -7.84865 0
    endloop
  endfacet
  facet normal -0 0 -1
    outer loop
      vertex 0.526366 -8.33405 0
      vertex -2.4 -9.6 0
      vertex 0.155252 -8.11076 0
    endloop
  endfacet
  facet normal -0 0 -1
    outer loop
      vertex 0.919447 -8.51591 0
      vertex -2.4 -9.6 0
      vertex 0.526366 -8.33405 0
    endloop
  endfacet
  facet normal -0 0 -1
    outer loop
      vertex 1.32989 -8.6542 0
      vertex -2.4 -9.6 0
      vertex 0.919447 -8.51591 0
    endloop
  endfacet
  facet normal -0 0 -1
    outer loop
      vertex 1.75287 -8.74731 0
      vertex -2.4 -9.6 0
      vertex 1.32989 -8.6542 0
    endloop
  endfacet
  facet normal -0 0 -1
    outer loop
      vertex 2.18344 -8.79414 0
      vertex -2.4 -9.6 0
      vertex 1.75287 -8.74731 0
    endloop
  endfacet
  facet normal -0 0 -1
    outer loop
      vertex 2.61656 -8.79414 0
      vertex -2.4 -9.6 0
      vertex 2.18344 -8.79414 0
    endloop
  endfacet
  facet normal 0 0 -1
    outer loop
      vertex 15.9766 -4.36753 0
      vertex 16.8 0 0
      vertex 16 -4.8 0
    endloop
  endfacet
  facet normal 0 0 -1
    outer loop
      vertex 15.9065 -3.94012 0
      vertex 16.8 0 0
      vertex 15.9766 -4.36753 0
    endloop
  endfacet
  facet normal 0 0 -1
    outer loop
      vertex 15.7906 -3.52279 0
      vertex 16.8 0 0
      vertex 15.9065 -3.94012 0
    endloop
  endfacet
  facet normal 0 0 -1
    outer loop
      vertex 15.6303 -3.12044 0
      vertex 16.8 0 0
      vertex 15.7906 -3.52279 0
    endloop
  endfacet
  facet normal 0 0 -1
    outer loop
      vertex 15.4274 -2.73778 0
      vertex 16.8 0 0
      vertex 15.6303 -3.12044 0
    endloop
  endfacet
  facet normal 0 0 -1
    outer loop
      vertex 15.1844 -2.3793 0
      vertex 16.8 0 0
      vertex 15.4274 -2.73778 0
    endloop
  endfacet
  facet normal 0 0 -1
    outer loop
      vertex 14.904 -2.0492 0
      vertex 16.8 0 0
      vertex 15.1844 -2.3793 0
    endloop
  endfacet
  facet normal 0 0 -1
    outer loop
      vertex 14.5895 -1.75135 0
      vertex 16.8 0 0
      vertex 14.904 -2.0492 0
    endloop
  endfacet
  facet normal 0 0 -1
    outer loop
      vertex 14.2447 -1.48924 0
      vertex 16.8 0 0
      vertex 14.5895 -1.75135 0
    endloop
  endfacet
  facet normal 0 0 -1
    outer loop
      vertex 13.8736 -1.26595 0
      vertex 16.8 0 0
      vertex 14.2447 -1.48924 0
    endloop
  endfacet
  facet normal 0 0 -1
    outer loop
      vertex 13.4806 -1.08409 0
      vertex 16.8 0 0
      vertex 13.8736 -1.26595 0
    endloop
  endfacet
  facet normal 0 0 -1
    outer loop
      vertex 13.0701 -0.945799 0
      vertex 16.8 0 0
      vertex 13.4806 -1.08409 0
    endloop
  endfacet
  facet normal 0 0 -1
    outer loop
      vertex 12.6471 -0.852693 0
      vertex 16.8 0 0
      vertex 13.0701 -0.945799 0
    endloop
  endfacet
  facet normal 0 0 -1
    outer loop
      vertex 12.2166 -0.805866 0
      vertex 16.8 0 0
      vertex 12.6471 -0.852693 0
    endloop
  endfacet
  facet normal 0 0 -1
    outer loop
      vertex 11.7834 -0.805866 0
      vertex 16.8 0 0
      vertex 12.2166 -0.805866 0
    endloop
  endfacet
  facet normal 0 0 -1
    outer loop
      vertex 3 0 0
      vertex 11.7834 -0.805866 0
      vertex 11.3529 -0.852693 0
    endloop
  endfacet
  facet normal 0 0 -1
    outer loop
      vertex 6.4 -4.8 0
      vertex 8.02345 -4.36753 0
      vertex 8 -4.8 0
    endloop
  endfacet
  facet normal 0 0 -1
    outer loop
      vertex 6.37655 -4.36753 0
      vertex 8.02345 -4.36753 0
      vertex 6.4 -4.8 0
    endloop
  endfacet
  facet normal 0 0 -1
    outer loop
      vertex 8.02345 -4.36753 0
      vertex 6.37655 -4.36753 0
      vertex 8.09352 -3.94012 0
    endloop
  endfacet
  facet normal 0 0 -1
    outer loop
      vertex 6.30648 -3.94012 0
      vertex 8.09352 -3.94012 0
      vertex 6.37655 -4.36753 0
    endloop
  endfacet
  facet normal 0 0 -1
    outer loop
      vertex 8.09352 -3.94012 0
      vertex 6.30648 -3.94012 0
      vertex 8.20939 -3.52279 0
    endloop
  endfacet
  facet normal 0 0 -1
    outer loop
      vertex 6.19061 -3.52279 0
      vertex 8.20939 -3.52279 0
      vertex 6.30648 -3.94012 0
    endloop
  endfacet
  facet normal 0 0 -1
    outer loop
      vertex 8.20939 -3.52279 0
      vertex 6.19061 -3.52279 0
      vertex 8.3697 -3.12044 0
    endloop
  endfacet
  facet normal 0 0 -1
    outer loop
      vertex 6.0303 -3.12044 0
      vertex 8.3697 -3.12044 0
      vertex 6.19061 -3.52279 0
    endloop
  endfacet
  facet normal 0 0 -1
    outer loop
      vertex 8.3697 -3.12044 0
      vertex 6.0303 -3.12044 0
      vertex 8.57257 -2.73778 0
    endloop
  endfacet
  facet normal 0 0 -1
    outer loop
      vertex 5.82743 -2.73778 0
      vertex 8.57257 -2.73778 0
      vertex 6.0303 -3.12044 0
    endloop
  endfacet
  facet normal 0 0 -1
    outer loop
      vertex 8.57257 -2.73778 0
      vertex 5.82743 -2.73778 0
      vertex 8.81563 -2.3793 0
    endloop
  endfacet
  facet normal 0 0 -1
    outer loop
      vertex 5.58437 -2.3793 0
      vertex 8.81563 -2.3793 0
      vertex 5.82743 -2.73778 0
    endloop
  endfacet
  facet normal 0 0 -1
    outer loop
      vertex 8.81563 -2.3793 0
      vertex 5.58437 -2.3793 0
      vertex 9.09602 -2.0492 0
    endloop
  endfacet
  facet normal 0 0 -1
    outer loop
      vertex 5.30398 -2.0492 0
      vertex 9.09602 -2.0492 0
      vertex 5.58437 -2.3793 0
    endloop
  endfacet
  facet normal 0 0 -1
    outer loop
      vertex 9.09602 -2.0492 0
      vertex 5.30398 -2.0492 0
      vertex 9.41045 -1.75135 0
    endloop
  endfacet
  facet normal 0 0 -1
    outer loop
      vertex 4.98954 -1.75135 0
      vertex 9.41045 -1.75135 0
      vertex 5.30398 -2.0492 0
    endloop
  endfacet
  facet normal 0 0 -1
    outer loop
      vertex 9.41045 -1.75135 0
      vertex 4.98954 -1.75135 0
      vertex 9.75525 -1.48924 0
    endloop
  endfacet
  facet normal 0 0 -1
    outer loop
      vertex 4.64475 -1.48924 0
      vertex 9.75525 -1.48924 0
      vertex 4.98954 -1.75135 0
    endloop
  endfacet
  facet normal 0 0 -1
    outer loop
      vertex 3 0 0
      vertex 9.75525 -1.48924 0
      vertex 4.64475 -1.48924 0
    endloop
  endfacet
  facet normal 0 0 -1
    outer loop
      vertex 9.75525 -1.48924 0
      vertex 3 0 0
      vertex 10.1264 -1.26595 0
    endloop
  endfacet
  facet normal 0 0 -1
    outer loop
      vertex 10.1264 -1.26595 0
      vertex 3 0 0
      vertex 10.5194 -1.08409 0
    endloop
  endfacet
  facet normal 0 0 -1
    outer loop
      vertex 10.5194 -1.08409 0
      vertex 3 0 0
      vertex 10.9299 -0.945799 0
    endloop
  endfacet
  facet normal 0 0 -1
    outer loop
      vertex 10.9299 -0.945799 0
      vertex 3 0 0
      vertex 11.3529 -0.852693 0
    endloop
  endfacet
  facet normal 0 0 -1
    outer loop
      vertex 3 0 0
      vertex 4.64475 -1.48924 0
      vertex 4.27363 -1.26595 0
    endloop
  endfacet
  facet normal 0 0 -1
    outer loop
      vertex 3 0 0
      vertex 4.27363 -1.26595 0
      vertex 3.88055 -1.08409 0
    endloop
  endfacet
  facet normal 0 0 -1
    outer loop
      vertex 3 0 0
      vertex 3.88055 -1.08409 0
      vertex 3.47011 -0.945799 0
    endloop
  endfacet
  facet normal 0 0 -1
    outer loop
      vertex 3 0 0
      vertex 3.47011 -0.945799 0
      vertex 3.04713 -0.852693 0
    endloop
  endfacet
  facet normal 0 0 -1
    outer loop
      vertex 11.7834 -0.805866 0
      vertex 3 0 0
      vertex 16.8 0 0
    endloop
  endfacet
  facet normal 0 0 -1
    outer loop
      vertex 2.61656 -0.805866 0
      vertex 3 0 0
      vertex 3.04713 -0.852693 0
    endloop
  endfacet
  facet normal 0 0 -1
    outer loop
      vertex 2.18344 -0.805866 0
      vertex 3 0 0
      vertex 2.61656 -0.805866 0
    endloop
  endfacet
  facet normal 0 0 -1
    outer loop
      vertex 1.75287 -0.852693 0
      vertex 3 0 0
      vertex 2.18344 -0.805866 0
    endloop
  endfacet
  facet normal 0 0 -1
    outer loop
      vertex 0 0 0
      vertex 1.75287 -0.852693 0
      vertex 1.32989 -0.945799 0
    endloop
  endfacet
  facet normal 0 0 -1
    outer loop
      vertex 1.75287 -0.852693 0
      vertex 1 2 0
      vertex 3 0 0
    endloop
  endfacet
  facet normal 0 0 -1
    outer loop
      vertex 0 0 0
      vertex 1.32989 -0.945799 0
      vertex 0.919447 -1.08409 0
    endloop
  endfacet
  facet normal 0 0 -1
    outer loop
      vertex 0 0 0
      vertex 0.919447 -1.08409 0
      vertex 0.526366 -1.26595 0
    endloop
  endfacet
  facet normal 0 0 -1
    outer loop
      vertex 0 0 0
      vertex 0.526366 -1.26595 0
      vertex 0.155252 -1.48924 0
    endloop
  endfacet
  facet normal 0 0 -1
    outer loop
      vertex 1.75287 -0.852693 0
      vertex 0 0 0
      vertex 1 2 0
    endloop
  endfacet
  facet normal -0 0 -1
    outer loop
      vertex 1 2 0
      vertex 0 0 0
      vertex 0 2 0
    endloop
  endfacet
  facet normal -0.936326 0.153485 -0.315811
    outer loop
      vertex 5.58124 -5.14598 2.4
      vertex 6.37655 -5.23248 0
      vertex 5.52519 -5.48791 2.4
    endloop
  endfacet
  facet normal -0.936323 0.153505 -0.315808
    outer loop
      vertex 6.37655 -5.23248 0
      vertex 6.30648 -5.65988 0
      vertex 5.52519 -5.48791 2.4
    endloop
  endfacet
  facet normal -0.914236 0.253848 -0.315807
    outer loop
      vertex 5.52519 -5.48791 2.4
      vertex 6.30648 -5.65988 0
      vertex 5.43249 -5.82177 2.4
    endloop
  endfacet
  facet normal -0.914239 0.253835 -0.315809
    outer loop
      vertex 6.30648 -5.65988 0
      vertex 6.19061 -6.07721 0
      vertex 5.43249 -5.82177 2.4
    endloop
  endfacet
  facet normal -0.881433 0.351199 -0.315809
    outer loop
      vertex 5.43249 -5.82177 2.4
      vertex 6.19061 -6.07721 0
      vertex 5.30424 -6.14365 2.4
    endloop
  endfacet
  facet normal -0.881435 0.351194 -0.31581
    outer loop
      vertex 6.19061 -6.07721 0
      vertex 6.0303 -6.47956 0
      vertex 5.30424 -6.14365 2.4
    endloop
  endfacet
  facet normal -0.83829 0.444448 -0.31581
    outer loop
      vertex 5.30424 -6.14365 2.4
      vertex 6.0303 -6.47956 0
      vertex 5.14194 -6.44977 2.4
    endloop
  endfacet
  facet normal -0.838294 0.444439 -0.315811
    outer loop
      vertex 6.0303 -6.47956 0
      vertex 5.82743 -6.86221 0
      vertex 5.14194 -6.44977 2.4
    endloop
  endfacet
  facet normal -0.78534 0.532451 -0.315811
    outer loop
      vertex 5.14194 -6.44977 2.4
      vertex 5.82743 -6.86221 0
      vertex 4.9475 -6.73656 2.4
    endloop
  endfacet
  facet normal -0.785326 0.532474 -0.315807
    outer loop
      vertex 5.82743 -6.86221 0
      vertex 5.58437 -7.22069 0
      vertex 4.9475 -6.73656 2.4
    endloop
  endfacet
  facet normal -0.723159 0.614253 -0.315807
    outer loop
      vertex 4.9475 -6.73656 2.4
      vertex 5.58437 -7.22069 0
      vertex 4.72319 -7.00064 2.4
    endloop
  endfacet
  facet normal -0.723165 0.614245 -0.315808
    outer loop
      vertex 5.58437 -7.22069 0
      vertex 5.30398 -7.5508 0
      vertex 4.72319 -7.00064 2.4
    endloop
  endfacet
  facet normal -0.652504 0.688842 -0.315809
    outer loop
      vertex 4.72319 -7.00064 2.4
      vertex 5.30398 -7.5508 0
      vertex 4.47164 -7.23892 2.4
    endloop
  endfacet
  facet normal -0.652501 0.688845 -0.315808
    outer loop
      vertex 5.30398 -7.5508 0
      vertex 4.98954 -7.84865 0
      vertex 4.47164 -7.23892 2.4
    endloop
  endfacet
  facet normal -0.574189 0.755362 -0.315808
    outer loop
      vertex 4.47164 -7.23892 2.4
      vertex 4.98954 -7.84865 0
      vertex 4.1958 -7.4486 2.4
    endloop
  endfacet
  facet normal -0.574213 0.755342 -0.315813
    outer loop
      vertex 4.98954 -7.84865 0
      vertex 4.64475 -8.11076 0
      vertex 4.1958 -7.4486 2.4
    endloop
  endfacet
  facet normal -0.489183 0.812996 -0.315813
    outer loop
      vertex 4.1958 -7.4486 2.4
      vertex 4.64475 -8.11076 0
      vertex 3.89891 -7.62724 2.4
    endloop
  endfacet
  facet normal -0.48916 0.813011 -0.315809
    outer loop
      vertex 4.64475 -8.11076 0
      vertex 4.27363 -8.33405 0
      vertex 3.89891 -7.62724 2.4
    endloop
  endfacet
  facet normal -0.398402 0.861127 -0.315809
    outer loop
      vertex 3.89891 -7.62724 2.4
      vertex 4.27363 -8.33405 0
      vertex 3.58444 -7.77273 2.4
    endloop
  endfacet
  facet normal -0.398404 0.861127 -0.31581
    outer loop
      vertex 4.27363 -8.33405 0
      vertex 3.88055 -8.51591 0
      vertex 3.58444 -7.77273 2.4
    endloop
  endfacet
  facet normal -0.302951 0.899158 -0.31581
    outer loop
      vertex 3.58444 -7.77273 2.4
      vertex 3.88055 -8.51591 0
      vertex 3.25609 -7.88336 2.4
    endloop
  endfacet
  facet normal -0.302954 0.899157 -0.31581
    outer loop
      vertex 3.88055 -8.51591 0
      vertex 3.47011 -8.6542 0
      vertex 3.25609 -7.88336 2.4
    endloop
  endfacet
  facet normal -0.203955 0.926643 -0.31581
    outer loop
      vertex 3.25609 -7.88336 2.4
      vertex 3.47011 -8.6542 0
      vertex 2.9177 -7.95784 2.4
    endloop
  endfacet
  facet normal -0.203979 0.926636 -0.315813
    outer loop
      vertex 3.47011 -8.6542 0
      vertex 3.04713 -8.74731 0
      vertex 2.9177 -7.95784 2.4
    endloop
  endfacet
  facet normal -0.102606 0.943257 -0.315814
    outer loop
      vertex 2.9177 -7.95784 2.4
      vertex 3.04713 -8.74731 0
      vertex 2.57324 -7.99531 2.4
    endloop
  endfacet
  facet normal -0.102592 0.943259 -0.315812
    outer loop
      vertex 3.04713 -8.74731 0
      vertex 2.61656 -8.79414 0
      vertex 2.57324 -7.99531 2.4
    endloop
  endfacet
  facet normal 0 0.948822 -0.315811
    outer loop
      vertex 2.61656 -8.79414 0
      vertex 2.22676 -7.99531 2.4
      vertex 2.57324 -7.99531 2.4
    endloop
  endfacet
  facet normal 0 0.948822 -0.315811
    outer loop
      vertex 2.22676 -7.99531 2.4
      vertex 2.61656 -8.79414 0
      vertex 2.18344 -8.79414 0
    endloop
  endfacet
  facet normal 0.102607 0.943258 -0.315811
    outer loop
      vertex 2.22676 -7.99531 2.4
      vertex 2.18344 -8.79414 0
      vertex 1.8823 -7.95784 2.4
    endloop
  endfacet
  facet normal 0.102591 0.943259 -0.315814
    outer loop
      vertex 1.8823 -7.95784 2.4
      vertex 2.18344 -8.79414 0
      vertex 1.75287 -8.74731 0
    endloop
  endfacet
  facet normal 0.203955 0.926641 -0.315814
    outer loop
      vertex 1.8823 -7.95784 2.4
      vertex 1.75287 -8.74731 0
      vertex 1.54391 -7.88336 2.4
    endloop
  endfacet
  facet normal 0.203979 0.926637 -0.31581
    outer loop
      vertex 1.54391 -7.88336 2.4
      vertex 1.75287 -8.74731 0
      vertex 1.32989 -8.6542 0
    endloop
  endfacet
  facet normal 0.302951 0.899158 -0.31581
    outer loop
      vertex 1.54391 -7.88336 2.4
      vertex 1.32989 -8.6542 0
      vertex 1.21556 -7.77273 2.4
    endloop
  endfacet
  facet normal 0.302952 0.899158 -0.31581
    outer loop
      vertex 1.21556 -7.77273 2.4
      vertex 1.32989 -8.6542 0
      vertex 0.919447 -8.51591 0
    endloop
  endfacet
  facet normal 0.398405 0.861126 -0.31581
    outer loop
      vertex 1.21556 -7.77273 2.4
      vertex 0.919447 -8.51591 0
      vertex 0.901093 -7.62724 2.4
    endloop
  endfacet
  facet normal 0.398403 0.861127 -0.31581
    outer loop
      vertex 0.901093 -7.62724 2.4
      vertex 0.919447 -8.51591 0
      vertex 0.526366 -8.33405 0
    endloop
  endfacet
  facet normal 0.489181 0.812998 -0.31581
    outer loop
      vertex 0.604201 -7.4486 2.4
      vertex 0.901093 -7.62724 2.4
      vertex 0.526366 -8.33405 0
    endloop
  endfacet
  facet normal 0.489166 0.813006 -0.315813
    outer loop
      vertex 0.604201 -7.4486 2.4
      vertex 0.526366 -8.33405 0
      vertex 0.155252 -8.11076 0
    endloop
  endfacet
  facet normal 0.574191 0.755359 -0.315813
    outer loop
      vertex 0.328363 -7.23892 2.4
      vertex 0.604201 -7.4486 2.4
      vertex 0.155252 -8.11076 0
    endloop
  endfacet
  facet normal 0.574206 0.755349 -0.31581
    outer loop
      vertex 0.328363 -7.23892 2.4
      vertex 0.155252 -8.11076 0
      vertex -0.189545 -7.84865 0
    endloop
  endfacet
  facet normal 0.652504 0.688841 -0.31581
    outer loop
      vertex 0.0768137 -7.00064 2.4
      vertex 0.328363 -7.23892 2.4
      vertex -0.189545 -7.84865 0
    endloop
  endfacet
  facet normal 0.652504 0.688841 -0.31581
    outer loop
      vertex 0.0768137 -7.00064 2.4
      vertex -0.189545 -7.84865 0
      vertex -0.503982 -7.5508 0
    endloop
  endfacet
  facet normal 0.723158 0.614253 -0.31581
    outer loop
      vertex -0.147497 -6.73656 2.4
      vertex 0.0768137 -7.00064 2.4
      vertex -0.503982 -7.5508 0
    endloop
  endfacet
  facet normal 0.723165 0.614245 -0.315808
    outer loop
      vertex -0.147497 -6.73656 2.4
      vertex -0.503982 -7.5508 0
      vertex -0.784372 -7.22069 0
    endloop
  endfacet
  facet normal 0.785333 0.532463 -0.315808
    outer loop
      vertex -0.341943 -6.44977 2.4
      vertex -0.147497 -6.73656 2.4
      vertex -0.784372 -7.22069 0
    endloop
  endfacet
  facet normal 0.785327 0.532471 -0.31581
    outer loop
      vertex -0.341943 -6.44977 2.4
      vertex -0.784372 -7.22069 0
      vertex -1.02743 -6.86221 0
    endloop
  endfacet
  facet normal 0.838292 0.444444 -0.31581
    outer loop
      vertex -0.504241 -6.14365 2.4
      vertex -0.341943 -6.44977 2.4
      vertex -1.02743 -6.86221 0
    endloop
  endfacet
  facet normal 0.838295 0.44444 -0.31581
    outer loop
      vertex -0.504241 -6.14365 2.4
      vertex -1.02743 -6.86221 0
      vertex -1.2303 -6.47956 0
    endloop
  endfacet
  facet normal 0.881434 0.351196 -0.31581
    outer loop
      vertex -0.63249 -5.82177 2.4
      vertex -0.504241 -6.14365 2.4
      vertex -1.2303 -6.47956 0
    endloop
  endfacet
  facet normal 0.881435 0.351194 -0.315809
    outer loop
      vertex -0.63249 -5.82177 2.4
      vertex -1.2303 -6.47956 0
      vertex -1.39061 -6.07721 0
    endloop
  endfacet
  facet normal 0.914239 0.253835 -0.315809
    outer loop
      vertex -0.725185 -5.48791 2.4
      vertex -0.63249 -5.82177 2.4
      vertex -1.39061 -6.07721 0
    endloop
  endfacet
  facet normal 0.914239 0.253835 -0.315809
    outer loop
      vertex -0.725185 -5.48791 2.4
      vertex -1.39061 -6.07721 0
      vertex -1.50648 -5.65988 0
    endloop
  endfacet
  facet normal 0.936324 0.153501 -0.315809
    outer loop
      vertex -0.781241 -5.14598 2.4
      vertex -0.725185 -5.48791 2.4
      vertex -1.50648 -5.65988 0
    endloop
  endfacet
  facet normal 0.936323 0.153505 -0.31581
    outer loop
      vertex -0.781241 -5.14598 2.4
      vertex -1.50648 -5.65988 0
      vertex -1.57655 -5.23248 0
    endloop
  endfacet
  facet normal 0.947431 0.0513669 -0.31581
    outer loop
      vertex -0.799999 -4.8 2.4
      vertex -0.781241 -5.14598 2.4
      vertex -1.57655 -5.23248 0
    endloop
  endfacet
  facet normal 0.947431 0.0513717 -0.315811
    outer loop
      vertex -0.799999 -4.8 2.4
      vertex -1.57655 -5.23248 0
      vertex -1.6 -4.8 0
    endloop
  endfacet
  facet normal 0.947431 -0.0513669 -0.315811
    outer loop
      vertex -0.781241 -4.45402 2.4
      vertex -0.799999 -4.8 2.4
      vertex -1.6 -4.8 0
    endloop
  endfacet
  facet normal 0.947431 -0.0513729 -0.31581
    outer loop
      vertex -1.57655 -4.36753 0
      vertex -0.781241 -4.45402 2.4
      vertex -1.6 -4.8 0
    endloop
  endfacet
  facet normal 0.936324 -0.153501 -0.31581
    outer loop
      vertex -0.725185 -4.11209 2.4
      vertex -0.781241 -4.45402 2.4
      vertex -1.57655 -4.36753 0
    endloop
  endfacet
  facet normal 0.936323 -0.153502 -0.315809
    outer loop
      vertex -1.50648 -3.94012 0
      vertex -0.725185 -4.11209 2.4
      vertex -1.57655 -4.36753 0
    endloop
  endfacet
  facet normal 0.914239 -0.253835 -0.315809
    outer loop
      vertex -0.63249 -3.77823 2.4
      vertex -0.725185 -4.11209 2.4
      vertex -1.50648 -3.94012 0
    endloop
  endfacet
  facet normal 0.914239 -0.253835 -0.315809
    outer loop
      vertex -1.39061 -3.52279 0
      vertex -0.63249 -3.77823 2.4
      vertex -1.50648 -3.94012 0
    endloop
  endfacet
  facet normal 0.881434 -0.351196 -0.315809
    outer loop
      vertex -0.504241 -3.45635 2.4
      vertex -0.63249 -3.77823 2.4
      vertex -1.39061 -3.52279 0
    endloop
  endfacet
  facet normal 0.881435 -0.351194 -0.31581
    outer loop
      vertex -1.2303 -3.12044 0
      vertex -0.504241 -3.45635 2.4
      vertex -1.39061 -3.52279 0
    endloop
  endfacet
  facet normal 0.838292 -0.444444 -0.31581
    outer loop
      vertex -0.341943 -3.15023 2.4
      vertex -0.504241 -3.45635 2.4
      vertex -1.2303 -3.12044 0
    endloop
  endfacet
  facet normal 0.838299 -0.44443 -0.315812
    outer loop
      vertex -1.02743 -2.73778 0
      vertex -0.341943 -3.15023 2.4
      vertex -1.2303 -3.12044 0
    endloop
  endfacet
  facet normal 0.785332 -0.532462 -0.315812
    outer loop
      vertex -0.147497 -2.86344 2.4
      vertex -0.341943 -3.15023 2.4
      vertex -1.02743 -2.73778 0
    endloop
  endfacet
  facet normal 0.785327 -0.532471 -0.315811
    outer loop
      vertex -0.784372 -2.3793 0
      vertex -0.147497 -2.86344 2.4
      vertex -1.02743 -2.73778 0
    endloop
  endfacet
  facet normal 0.723157 -0.614253 -0.315811
    outer loop
      vertex 0.0768137 -2.59936 2.4
      vertex -0.147497 -2.86344 2.4
      vertex -0.784372 -2.3793 0
    endloop
  endfacet
  facet normal 0.723156 -0.614255 -0.31581
    outer loop
      vertex -0.503982 -2.0492 0
      vertex 0.0768137 -2.59936 2.4
      vertex -0.784372 -2.3793 0
    endloop
  endfacet
  facet normal 0.652504 -0.688841 -0.31581
    outer loop
      vertex 0.328363 -2.36108 2.4
      vertex 0.0768137 -2.59936 2.4
      vertex -0.503982 -2.0492 0
    endloop
  endfacet
  facet normal 0.652504 -0.688841 -0.31581
    outer loop
      vertex -0.189545 -1.75135 0
      vertex 0.328363 -2.36108 2.4
      vertex -0.503982 -2.0492 0
    endloop
  endfacet
  facet normal 0.574209 -0.755346 -0.31581
    outer loop
      vertex 0.604201 -2.15139 2.4
      vertex 0.328363 -2.36108 2.4
      vertex -0.189545 -1.75135 0
    endloop
  endfacet
  facet normal 0.574206 -0.755349 -0.31581
    outer loop
      vertex 0.155252 -1.48924 0
      vertex 0.604201 -2.15139 2.4
      vertex -0.189545 -1.75135 0
    endloop
  endfacet
  facet normal 0.489161 -0.81301 -0.31581
    outer loop
      vertex 0.901093 -1.97276 2.4
      vertex 0.604201 -2.15139 2.4
      vertex 0.155252 -1.48924 0
    endloop
  endfacet
  facet normal 0.489166 -0.813007 -0.31581
    outer loop
      vertex 0.526366 -1.26595 0
      vertex 0.901093 -1.97276 2.4
      vertex 0.155252 -1.48924 0
    endloop
  endfacet
  facet normal 0.398405 -0.861126 -0.315811
    outer loop
      vertex 1.21556 -1.82727 2.4
      vertex 0.901093 -1.97276 2.4
      vertex 0.526366 -1.26595 0
    endloop
  endfacet
  facet normal 0.398403 -0.861127 -0.31581
    outer loop
      vertex 0.919447 -1.08409 0
      vertex 1.21556 -1.82727 2.4
      vertex 0.526366 -1.26595 0
    endloop
  endfacet
  facet normal 0.302951 -0.899158 -0.31581
    outer loop
      vertex 1.54391 -1.71664 2.4
      vertex 1.21556 -1.82727 2.4
      vertex 0.919447 -1.08409 0
    endloop
  endfacet
  facet normal 0.302954 -0.899157 -0.31581
    outer loop
      vertex 1.32989 -0.945799 0
      vertex 1.54391 -1.71664 2.4
      vertex 0.919447 -1.08409 0
    endloop
  endfacet
  facet normal 0.203981 -0.926637 -0.315811
    outer loop
      vertex 1.8823 -1.64215 2.4
      vertex 1.54391 -1.71664 2.4
      vertex 1.32989 -0.945799 0
    endloop
  endfacet
  facet normal 0.203971 -0.926639 -0.315809
    outer loop
      vertex 1.75287 -0.852693 0
      vertex 1.8823 -1.64215 2.4
      vertex 1.32989 -0.945799 0
    endloop
  endfacet
  facet normal 0.10258 -0.943261 -0.315809
    outer loop
      vertex 2.22676 -1.60469 2.4
      vertex 1.8823 -1.64215 2.4
      vertex 1.75287 -0.852693 0
    endloop
  endfacet
  facet normal 0.102585 -0.943261 -0.31581
    outer loop
      vertex 2.18344 -0.805866 0
      vertex 2.22676 -1.60469 2.4
      vertex 1.75287 -0.852693 0
    endloop
  endfacet
  facet normal 0 -0.948823 -0.315809
    outer loop
      vertex 2.18344 -0.805866 0
      vertex 2.57324 -1.60469 2.4
      vertex 2.22676 -1.60469 2.4
    endloop
  endfacet
  facet normal 0 -0.948823 -0.315809
    outer loop
      vertex 2.57324 -1.60469 2.4
      vertex 2.18344 -0.805866 0
      vertex 2.61656 -0.805866 0
    endloop
  endfacet
  facet normal -0.10258 -0.943261 -0.31581
    outer loop
      vertex 2.61656 -0.805866 0
      vertex 2.9177 -1.64215 2.4
      vertex 2.57324 -1.60469 2.4
    endloop
  endfacet
  facet normal -0.102585 -0.943261 -0.315809
    outer loop
      vertex 3.04713 -0.852693 0
      vertex 2.9177 -1.64215 2.4
      vertex 2.61656 -0.805866 0
    endloop
  endfacet
  facet normal -0.203981 -0.926637 -0.315809
    outer loop
      vertex 3.04713 -0.852693 0
      vertex 3.25609 -1.71664 2.4
      vertex 2.9177 -1.64215 2.4
    endloop
  endfacet
  facet normal -0.203971 -0.926639 -0.31581
    outer loop
      vertex 3.47011 -0.945799 0
      vertex 3.25609 -1.71664 2.4
      vertex 3.04713 -0.852693 0
    endloop
  endfacet
  facet normal -0.302951 -0.899158 -0.31581
    outer loop
      vertex 3.47011 -0.945799 0
      vertex 3.58444 -1.82727 2.4
      vertex 3.25609 -1.71664 2.4
    endloop
  endfacet
  facet normal -0.302956 -0.899156 -0.31581
    outer loop
      vertex 3.88055 -1.08409 0
      vertex 3.58444 -1.82727 2.4
      vertex 3.47011 -0.945799 0
    endloop
  endfacet
  facet normal -0.398402 -0.861127 -0.31581
    outer loop
      vertex 3.88055 -1.08409 0
      vertex 3.89891 -1.97276 2.4
      vertex 3.58444 -1.82727 2.4
    endloop
  endfacet
  facet normal -0.398404 -0.861127 -0.315809
    outer loop
      vertex 4.27363 -1.26595 0
      vertex 3.89891 -1.97276 2.4
      vertex 3.88055 -1.08409 0
    endloop
  endfacet
  facet normal -0.489164 -0.813009 -0.315809
    outer loop
      vertex 4.27363 -1.26595 0
      vertex 4.1958 -2.15139 2.4
      vertex 3.89891 -1.97276 2.4
    endloop
  endfacet
  facet normal -0.48916 -0.813011 -0.31581
    outer loop
      vertex 4.27363 -1.26595 0
      vertex 4.64475 -1.48924 0
      vertex 4.1958 -2.15139 2.4
    endloop
  endfacet
  facet normal -0.574206 -0.755349 -0.31581
    outer loop
      vertex 4.64475 -1.48924 0
      vertex 4.47164 -2.36108 2.4
      vertex 4.1958 -2.15139 2.4
    endloop
  endfacet
  facet normal -0.574214 -0.755343 -0.315809
    outer loop
      vertex 4.64475 -1.48924 0
      vertex 4.98954 -1.75135 0
      vertex 4.47164 -2.36108 2.4
    endloop
  endfacet
  facet normal -0.652504 -0.688842 -0.315808
    outer loop
      vertex 4.98954 -1.75135 0
      vertex 4.72319 -2.59936 2.4
      vertex 4.47164 -2.36108 2.4
    endloop
  endfacet
  facet normal -0.652501 -0.688845 -0.315809
    outer loop
      vertex 4.98954 -1.75135 0
      vertex 5.30398 -2.0492 0
      vertex 4.72319 -2.59936 2.4
    endloop
  endfacet
  facet normal -0.723156 -0.614256 -0.315809
    outer loop
      vertex 5.58437 -2.3793 0
      vertex 4.72319 -2.59936 2.4
      vertex 5.30398 -2.0492 0
    endloop
  endfacet
  facet normal -0.723159 -0.614252 -0.315809
    outer loop
      vertex 4.72319 -2.59936 2.4
      vertex 5.58437 -2.3793 0
      vertex 4.9475 -2.86344 2.4
    endloop
  endfacet
  facet normal -0.785341 -0.532451 -0.315809
    outer loop
      vertex 5.58437 -2.3793 0
      vertex 5.14194 -3.15023 2.4
      vertex 4.9475 -2.86344 2.4
    endloop
  endfacet
  facet normal -0.785325 -0.532473 -0.315813
    outer loop
      vertex 5.58437 -2.3793 0
      vertex 5.82743 -2.73778 0
      vertex 5.14194 -3.15023 2.4
    endloop
  endfacet
  facet normal -0.838289 -0.444448 -0.315813
    outer loop
      vertex 5.82743 -2.73778 0
      vertex 5.30424 -3.45635 2.4
      vertex 5.14194 -3.15023 2.4
    endloop
  endfacet
  facet normal -0.838299 -0.44443 -0.31581
    outer loop
      vertex 5.82743 -2.73778 0
      vertex 6.0303 -3.12044 0
      vertex 5.30424 -3.45635 2.4
    endloop
  endfacet
  facet normal -0.881433 -0.351198 -0.31581
    outer loop
      vertex 6.0303 -3.12044 0
      vertex 5.43249 -3.77823 2.4
      vertex 5.30424 -3.45635 2.4
    endloop
  endfacet
  facet normal -0.881435 -0.351194 -0.315809
    outer loop
      vertex 6.0303 -3.12044 0
      vertex 6.19061 -3.52279 0
      vertex 5.43249 -3.77823 2.4
    endloop
  endfacet
  facet normal -0.914235 -0.253848 -0.315809
    outer loop
      vertex 6.19061 -3.52279 0
      vertex 5.52519 -4.11209 2.4
      vertex 5.43249 -3.77823 2.4
    endloop
  endfacet
  facet normal -0.914239 -0.253835 -0.315807
    outer loop
      vertex 6.19061 -3.52279 0
      vertex 6.30648 -3.94012 0
      vertex 5.52519 -4.11209 2.4
    endloop
  endfacet
  facet normal -0.936327 -0.153485 -0.315807
    outer loop
      vertex 6.30648 -3.94012 0
      vertex 5.58124 -4.45402 2.4
      vertex 5.52519 -4.11209 2.4
    endloop
  endfacet
  facet normal -0.936323 -0.153502 -0.31581
    outer loop
      vertex 6.30648 -3.94012 0
      vertex 6.37655 -4.36753 0
      vertex 5.58124 -4.45402 2.4
    endloop
  endfacet
  facet normal -0.947431 -0.0513723 -0.31581
    outer loop
      vertex 6.37655 -4.36753 0
      vertex 5.6 -4.8 2.4
      vertex 5.58124 -4.45402 2.4
    endloop
  endfacet
  facet normal -0.947431 -0.0513729 -0.31581
    outer loop
      vertex 6.37655 -4.36753 0
      vertex 6.4 -4.8 0
      vertex 5.6 -4.8 2.4
    endloop
  endfacet
  facet normal -0.947431 0.0513723 -0.31581
    outer loop
      vertex 5.6 -4.8 2.4
      vertex 6.4 -4.8 0
      vertex 5.58124 -5.14598 2.4
    endloop
  endfacet
  facet normal -0.947431 0.0513717 -0.31581
    outer loop
      vertex 6.4 -4.8 0
      vertex 6.37655 -5.23248 0
      vertex 5.58124 -5.14598 2.4
    endloop
  endfacet
  facet normal 0 -1 0
    outer loop
      vertex -2.4 -9.6 0
      vertex 16.8 -9.6 2.4
      vertex -2.4 -9.6 2.4
    endloop
  endfacet
  facet normal 0 -1 -0
    outer loop
      vertex 16.8 -9.6 2.4
      vertex -2.4 -9.6 0
      vertex 16.8 -9.6 0
    endloop
  endfacet
  facet normal -0.936337 0.15335 -0.315845
    outer loop
      vertex 15.1812 -5.14598 2.4
      vertex 15.9766 -5.23248 0
      vertex 15.1252 -5.48791 2.4
    endloop
  endfacet
  facet normal -0.936311 0.153569 -0.315812
    outer loop
      vertex 15.9766 -5.23248 0
      vertex 15.9065 -5.65988 0
      vertex 15.1252 -5.48791 2.4
    endloop
  endfacet
  facet normal -0.914235 0.253848 -0.315811
    outer loop
      vertex 15.1252 -5.48791 2.4
      vertex 15.9065 -5.65988 0
      vertex 15.0325 -5.82177 2.4
    endloop
  endfacet
  facet normal -0.914224 0.253896 -0.315803
    outer loop
      vertex 15.9065 -5.65988 0
      vertex 15.7906 -6.07721 0
      vertex 15.0325 -5.82177 2.4
    endloop
  endfacet
  facet normal -0.881389 0.351318 -0.315801
    outer loop
      vertex 15.0325 -5.82177 2.4
      vertex 15.7906 -6.07721 0
      vertex 14.9042 -6.14365 2.4
    endloop
  endfacet
  facet normal -0.881438 0.351173 -0.315823
    outer loop
      vertex 15.7906 -6.07721 0
      vertex 15.6303 -6.47956 0
      vertex 14.9042 -6.14365 2.4
    endloop
  endfacet
  facet normal -0.838286 0.444446 -0.315822
    outer loop
      vertex 14.9042 -6.14365 2.4
      vertex 15.6303 -6.47956 0
      vertex 14.7419 -6.44977 2.4
    endloop
  endfacet
  facet normal -0.838266 0.44449 -0.315815
    outer loop
      vertex 15.6303 -6.47956 0
      vertex 15.4274 -6.86221 0
      vertex 14.7419 -6.44977 2.4
    endloop
  endfacet
  facet normal -0.78539 0.532375 -0.315816
    outer loop
      vertex 14.7419 -6.44977 2.4
      vertex 15.4274 -6.86221 0
      vertex 14.5475 -6.73656 2.4
    endloop
  endfacet
  facet normal -0.785385 0.532383 -0.315814
    outer loop
      vertex 15.4274 -6.86221 0
      vertex 15.1844 -7.22069 0
      vertex 14.5475 -6.73656 2.4
    endloop
  endfacet
  facet normal -0.723171 0.614235 -0.315815
    outer loop
      vertex 14.5475 -6.73656 2.4
      vertex 15.1844 -7.22069 0
      vertex 14.3232 -7.00064 2.4
    endloop
  endfacet
  facet normal -0.723154 0.614257 -0.315811
    outer loop
      vertex 15.1844 -7.22069 0
      vertex 14.904 -7.5508 0
      vertex 14.3232 -7.00064 2.4
    endloop
  endfacet
  facet normal -0.652435 0.688907 -0.31581
    outer loop
      vertex 14.3232 -7.00064 2.4
      vertex 14.904 -7.5508 0
      vertex 14.0716 -7.23892 2.4
    endloop
  endfacet
  facet normal -0.652435 0.688907 -0.31581
    outer loop
      vertex 14.904 -7.5508 0
      vertex 14.5895 -7.84865 0
      vertex 14.0716 -7.23892 2.4
    endloop
  endfacet
  facet normal -0.574242 0.755322 -0.315809
    outer loop
      vertex 14.0716 -7.23892 2.4
      vertex 14.5895 -7.84865 0
      vertex 13.7958 -7.4486 2.4
    endloop
  endfacet
  facet normal -0.574204 0.755353 -0.315802
    outer loop
      vertex 14.5895 -7.84865 0
      vertex 14.2447 -8.11076 0
      vertex 13.7958 -7.4486 2.4
    endloop
  endfacet
  facet normal -0.489173 0.813006 -0.315804
    outer loop
      vertex 13.7958 -7.4486 2.4
      vertex 14.2447 -8.11076 0
      vertex 13.4989 -7.62724 2.4
    endloop
  endfacet
  facet normal -0.48918 0.813 -0.315805
    outer loop
      vertex 14.2447 -8.11076 0
      vertex 13.8736 -8.33405 0
      vertex 13.4989 -7.62724 2.4
    endloop
  endfacet
  facet normal -0.398371 0.861143 -0.315806
    outer loop
      vertex 13.4989 -7.62724 2.4
      vertex 13.8736 -8.33405 0
      vertex 13.1844 -7.77273 2.4
    endloop
  endfacet
  facet normal -0.398469 0.861092 -0.315822
    outer loop
      vertex 13.8736 -8.33405 0
      vertex 13.4806 -8.51591 0
      vertex 13.1844 -7.77273 2.4
    endloop
  endfacet
  facet normal -0.302991 0.899141 -0.315821
    outer loop
      vertex 13.1844 -7.77273 2.4
      vertex 13.4806 -8.51591 0
      vertex 12.8561 -7.88336 2.4
    endloop
  endfacet
  facet normal -0.302914 0.899171 -0.315808
    outer loop
      vertex 13.4806 -8.51591 0
      vertex 13.0701 -8.6542 0
      vertex 12.8561 -7.88336 2.4
    endloop
  endfacet
  facet normal -0.203949 0.926644 -0.315808
    outer loop
      vertex 12.8561 -7.88336 2.4
      vertex 13.0701 -8.6542 0
      vertex 12.5177 -7.95784 2.4
    endloop
  endfacet
  facet normal -0.20397 0.926639 -0.315811
    outer loop
      vertex 13.0701 -8.6542 0
      vertex 12.6471 -8.74731 0
      vertex 12.5177 -7.95784 2.4
    endloop
  endfacet
  facet normal -0.102595 0.943259 -0.315813
    outer loop
      vertex 12.5177 -7.95784 2.4
      vertex 12.6471 -8.74731 0
      vertex 12.1732 -7.99531 2.4
    endloop
  endfacet
  facet normal -0.102608 0.943257 -0.315814
    outer loop
      vertex 12.6471 -8.74731 0
      vertex 12.2166 -8.79414 0
      vertex 12.1732 -7.99531 2.4
    endloop
  endfacet
  facet normal 0 0.948822 -0.315811
    outer loop
      vertex 12.2166 -8.79414 0
      vertex 11.8268 -7.99531 2.4
      vertex 12.1732 -7.99531 2.4
    endloop
  endfacet
  facet normal 0 0.948822 -0.315811
    outer loop
      vertex 11.8268 -7.99531 2.4
      vertex 12.2166 -8.79414 0
      vertex 11.7834 -8.79414 0
    endloop
  endfacet
  facet normal 0.102595 0.943258 -0.315815
    outer loop
      vertex 11.8268 -7.99531 2.4
      vertex 11.7834 -8.79414 0
      vertex 11.4823 -7.95784 2.4
    endloop
  endfacet
  facet normal 0.102608 0.943257 -0.315813
    outer loop
      vertex 11.4823 -7.95784 2.4
      vertex 11.7834 -8.79414 0
      vertex 11.3529 -8.74731 0
    endloop
  endfacet
  facet normal 0.203949 0.926643 -0.315812
    outer loop
      vertex 11.4823 -7.95784 2.4
      vertex 11.3529 -8.74731 0
      vertex 11.1439 -7.88336 2.4
    endloop
  endfacet
  facet normal 0.20397 0.92664 -0.315809
    outer loop
      vertex 11.1439 -7.88336 2.4
      vertex 11.3529 -8.74731 0
      vertex 10.9299 -8.6542 0
    endloop
  endfacet
  facet normal 0.302992 0.899145 -0.315807
    outer loop
      vertex 11.1439 -7.88336 2.4
      vertex 10.9299 -8.6542 0
      vertex 10.8156 -7.77273 2.4
    endloop
  endfacet
  facet normal 0.302913 0.899167 -0.315819
    outer loop
      vertex 10.8156 -7.77273 2.4
      vertex 10.9299 -8.6542 0
      vertex 10.5194 -8.51591 0
    endloop
  endfacet
  facet normal 0.398369 0.861138 -0.315824
    outer loop
      vertex 10.8156 -7.77273 2.4
      vertex 10.5194 -8.51591 0
      vertex 10.5011 -7.62724 2.4
    endloop
  endfacet
  facet normal 0.398471 0.861096 -0.315808
    outer loop
      vertex 10.5011 -7.62724 2.4
      vertex 10.5194 -8.51591 0
      vertex 10.1264 -8.33405 0
    endloop
  endfacet
  facet normal 0.489172 0.813005 -0.315805
    outer loop
      vertex 10.2042 -7.4486 2.4
      vertex 10.5011 -7.62724 2.4
      vertex 10.1264 -8.33405 0
    endloop
  endfacet
  facet normal 0.489131 0.813027 -0.315812
    outer loop
      vertex 10.2042 -7.4486 2.4
      vertex 10.1264 -8.33405 0
      vertex 9.75525 -8.11076 0
    endloop
  endfacet
  facet normal 0.574188 0.755361 -0.315813
    outer loop
      vertex 9.92836 -7.23892 2.4
      vertex 10.2042 -7.4486 2.4
      vertex 9.75525 -8.11076 0
    endloop
  endfacet
  facet normal 0.574203 0.755351 -0.315811
    outer loop
      vertex 9.92836 -7.23892 2.4
      vertex 9.75525 -8.11076 0
      vertex 9.41045 -7.84865 0
    endloop
  endfacet
  facet normal 0.652503 0.688842 -0.315811
    outer loop
      vertex 9.67681 -7.00064 2.4
      vertex 9.92836 -7.23892 2.4
      vertex 9.41045 -7.84865 0
    endloop
  endfacet
  facet normal 0.652512 0.688834 -0.315809
    outer loop
      vertex 9.67681 -7.00064 2.4
      vertex 9.41045 -7.84865 0
      vertex 9.09602 -7.5508 0
    endloop
  endfacet
  facet normal 0.723159 0.614252 -0.315809
    outer loop
      vertex 9.4525 -6.73656 2.4
      vertex 9.67681 -7.00064 2.4
      vertex 9.09602 -7.5508 0
    endloop
  endfacet
  facet normal 0.723166 0.614245 -0.315807
    outer loop
      vertex 9.4525 -6.73656 2.4
      vertex 9.09602 -7.5508 0
      vertex 8.81563 -7.22069 0
    endloop
  endfacet
  facet normal 0.785342 0.532452 -0.315807
    outer loop
      vertex 9.25806 -6.44977 2.4
      vertex 9.4525 -6.73656 2.4
      vertex 8.81563 -7.22069 0
    endloop
  endfacet
  facet normal 0.785325 0.532474 -0.315811
    outer loop
      vertex 9.25806 -6.44977 2.4
      vertex 8.81563 -7.22069 0
      vertex 8.57257 -6.86221 0
    endloop
  endfacet
  facet normal 0.83829 0.444448 -0.315811
    outer loop
      vertex 9.09576 -6.14365 2.4
      vertex 9.25806 -6.44977 2.4
      vertex 8.57257 -6.86221 0
    endloop
  endfacet
  facet normal 0.838294 0.44444 -0.31581
    outer loop
      vertex 9.09576 -6.14365 2.4
      vertex 8.57257 -6.86221 0
      vertex 8.3697 -6.47956 0
    endloop
  endfacet
  facet normal 0.881433 0.351198 -0.31581
    outer loop
      vertex 8.96751 -5.82177 2.4
      vertex 9.09576 -6.14365 2.4
      vertex 8.3697 -6.47956 0
    endloop
  endfacet
  facet normal 0.881435 0.351194 -0.315809
    outer loop
      vertex 8.96751 -5.82177 2.4
      vertex 8.3697 -6.47956 0
      vertex 8.20939 -6.07721 0
    endloop
  endfacet
  facet normal 0.914235 0.253848 -0.315809
    outer loop
      vertex 8.87481 -5.48791 2.4
      vertex 8.96751 -5.82177 2.4
      vertex 8.20939 -6.07721 0
    endloop
  endfacet
  facet normal 0.914239 0.253835 -0.315807
    outer loop
      vertex 8.87481 -5.48791 2.4
      vertex 8.20939 -6.07721 0
      vertex 8.09352 -5.65988 0
    endloop
  endfacet
  facet normal 0.936327 0.153485 -0.315807
    outer loop
      vertex 8.81876 -5.14598 2.4
      vertex 8.87481 -5.48791 2.4
      vertex 8.09352 -5.65988 0
    endloop
  endfacet
  facet normal 0.936323 0.153505 -0.31581
    outer loop
      vertex 8.81876 -5.14598 2.4
      vertex 8.09352 -5.65988 0
      vertex 8.02345 -5.23248 0
    endloop
  endfacet
  facet normal 0.947431 0.0513723 -0.31581
    outer loop
      vertex 8.8 -4.8 2.4
      vertex 8.81876 -5.14598 2.4
      vertex 8.02345 -5.23248 0
    endloop
  endfacet
  facet normal 0.947431 0.0513717 -0.31581
    outer loop
      vertex 8.8 -4.8 2.4
      vertex 8.02345 -5.23248 0
      vertex 8 -4.8 0
    endloop
  endfacet
  facet normal 0.947431 -0.0513723 -0.31581
    outer loop
      vertex 8.81876 -4.45402 2.4
      vertex 8.8 -4.8 2.4
      vertex 8 -4.8 0
    endloop
  endfacet
  facet normal 0.947431 -0.0513729 -0.31581
    outer loop
      vertex 8.02345 -4.36753 0
      vertex 8.81876 -4.45402 2.4
      vertex 8 -4.8 0
    endloop
  endfacet
  facet normal 0.936326 -0.153485 -0.31581
    outer loop
      vertex 8.87481 -4.11209 2.4
      vertex 8.81876 -4.45402 2.4
      vertex 8.02345 -4.36753 0
    endloop
  endfacet
  facet normal 0.936324 -0.153502 -0.315808
    outer loop
      vertex 8.09352 -3.94012 0
      vertex 8.87481 -4.11209 2.4
      vertex 8.02345 -4.36753 0
    endloop
  endfacet
  facet normal 0.914236 -0.253848 -0.315807
    outer loop
      vertex 8.96751 -3.77823 2.4
      vertex 8.87481 -4.11209 2.4
      vertex 8.09352 -3.94012 0
    endloop
  endfacet
  facet normal 0.914239 -0.253835 -0.315809
    outer loop
      vertex 8.20939 -3.52279 0
      vertex 8.96751 -3.77823 2.4
      vertex 8.09352 -3.94012 0
    endloop
  endfacet
  facet normal 0.881433 -0.351199 -0.315809
    outer loop
      vertex 9.09576 -3.45635 2.4
      vertex 8.96751 -3.77823 2.4
      vertex 8.20939 -3.52279 0
    endloop
  endfacet
  facet normal 0.881435 -0.351194 -0.31581
    outer loop
      vertex 8.3697 -3.12044 0
      vertex 9.09576 -3.45635 2.4
      vertex 8.20939 -3.52279 0
    endloop
  endfacet
  facet normal 0.83829 -0.444448 -0.31581
    outer loop
      vertex 9.25806 -3.15023 2.4
      vertex 9.09576 -3.45635 2.4
      vertex 8.3697 -3.12044 0
    endloop
  endfacet
  facet normal 0.838298 -0.44443 -0.315813
    outer loop
      vertex 8.57257 -2.73778 0
      vertex 9.25806 -3.15023 2.4
      vertex 8.3697 -3.12044 0
    endloop
  endfacet
  facet normal 0.78534 -0.53245 -0.315813
    outer loop
      vertex 9.4525 -2.86344 2.4
      vertex 9.25806 -3.15023 2.4
      vertex 8.57257 -2.73778 0
    endloop
  endfacet
  facet normal 0.785326 -0.532474 -0.315809
    outer loop
      vertex 8.81563 -2.3793 0
      vertex 9.4525 -2.86344 2.4
      vertex 8.57257 -2.73778 0
    endloop
  endfacet
  facet normal 0.723159 -0.614252 -0.315809
    outer loop
      vertex 9.67681 -2.59936 2.4
      vertex 9.4525 -2.86344 2.4
      vertex 8.81563 -2.3793 0
    endloop
  endfacet
  facet normal 0.723156 -0.614256 -0.315809
    outer loop
      vertex 9.09602 -2.0492 0
      vertex 9.67681 -2.59936 2.4
      vertex 8.81563 -2.3793 0
    endloop
  endfacet
  facet normal 0.652504 -0.688842 -0.315809
    outer loop
      vertex 9.92836 -2.36108 2.4
      vertex 9.67681 -2.59936 2.4
      vertex 9.09602 -2.0492 0
    endloop
  endfacet
  facet normal 0.652512 -0.688834 -0.31581
    outer loop
      vertex 9.41045 -1.75135 0
      vertex 9.92836 -2.36108 2.4
      vertex 9.09602 -2.0492 0
    endloop
  endfacet
  facet normal 0.574206 -0.755348 -0.315811
    outer loop
      vertex 10.2042 -2.15139 2.4
      vertex 9.92836 -2.36108 2.4
      vertex 9.41045 -1.75135 0
    endloop
  endfacet
  facet normal 0.574203 -0.755351 -0.31581
    outer loop
      vertex 9.75525 -1.48924 0
      vertex 10.2042 -2.15139 2.4
      vertex 9.41045 -1.75135 0
    endloop
  endfacet
  facet normal 0.489151 -0.813016 -0.31581
    outer loop
      vertex 10.5011 -1.97276 2.4
      vertex 10.2042 -2.15139 2.4
      vertex 9.75525 -1.48924 0
    endloop
  endfacet
  facet normal 0.489132 -0.813029 -0.315806
    outer loop
      vertex 10.1264 -1.26595 0
      vertex 10.5011 -1.97276 2.4
      vertex 9.75525 -1.48924 0
    endloop
  endfacet
  facet normal 0.398371 -0.861143 -0.315806
    outer loop
      vertex 10.8156 -1.82727 2.4
      vertex 10.5011 -1.97276 2.4
      vertex 10.1264 -1.26595 0
    endloop
  endfacet
  facet normal 0.398469 -0.861092 -0.315822
    outer loop
      vertex 10.5194 -1.08409 0
      vertex 10.8156 -1.82727 2.4
      vertex 10.1264 -1.26595 0
    endloop
  endfacet
  facet normal 0.302991 -0.899141 -0.315821
    outer loop
      vertex 11.1439 -1.71664 2.4
      vertex 10.8156 -1.82727 2.4
      vertex 10.5194 -1.08409 0
    endloop
  endfacet
  facet normal 0.302916 -0.89917 -0.315809
    outer loop
      vertex 10.9299 -0.945799 0
      vertex 11.1439 -1.71664 2.4
      vertex 10.5194 -1.08409 0
    endloop
  endfacet
  facet normal 0.203975 -0.926638 -0.315809
    outer loop
      vertex 11.4823 -1.64215 2.4
      vertex 11.1439 -1.71664 2.4
      vertex 10.9299 -0.945799 0
    endloop
  endfacet
  facet normal 0.203962 -0.926642 -0.315807
    outer loop
      vertex 11.3529 -0.852693 0
      vertex 11.4823 -1.64215 2.4
      vertex 10.9299 -0.945799 0
    endloop
  endfacet
  facet normal 0.102568 -0.943263 -0.315808
    outer loop
      vertex 11.8268 -1.60469 2.4
      vertex 11.4823 -1.64215 2.4
      vertex 11.3529 -0.852693 0
    endloop
  endfacet
  facet normal 0.102601 -0.943258 -0.315812
    outer loop
      vertex 11.7834 -0.805866 0
      vertex 11.8268 -1.60469 2.4
      vertex 11.3529 -0.852693 0
    endloop
  endfacet
  facet normal 0 -0.948823 -0.315809
    outer loop
      vertex 11.7834 -0.805866 0
      vertex 12.1732 -1.60469 2.4
      vertex 11.8268 -1.60469 2.4
    endloop
  endfacet
  facet normal 0 -0.948823 -0.315809
    outer loop
      vertex 12.1732 -1.60469 2.4
      vertex 11.7834 -0.805866 0
      vertex 12.2166 -0.805866 0
    endloop
  endfacet
  facet normal -0.102568 -0.943261 -0.315813
    outer loop
      vertex 12.2166 -0.805866 0
      vertex 12.5177 -1.64215 2.4
      vertex 12.1732 -1.60469 2.4
    endloop
  endfacet
  facet normal -0.102602 -0.943259 -0.315808
    outer loop
      vertex 12.6471 -0.852693 0
      vertex 12.5177 -1.64215 2.4
      vertex 12.2166 -0.805866 0
    endloop
  endfacet
  facet normal -0.203976 -0.926639 -0.315807
    outer loop
      vertex 12.6471 -0.852693 0
      vertex 12.8561 -1.71664 2.4
      vertex 12.5177 -1.64215 2.4
    endloop
  endfacet
  facet normal -0.203962 -0.926641 -0.315809
    outer loop
      vertex 13.0701 -0.945799 0
      vertex 12.8561 -1.71664 2.4
      vertex 12.6471 -0.852693 0
    endloop
  endfacet
  facet normal -0.302992 -0.899145 -0.315807
    outer loop
      vertex 13.0701 -0.945799 0
      vertex 13.1844 -1.82727 2.4
      vertex 12.8561 -1.71664 2.4
    endloop
  endfacet
  facet normal -0.302915 -0.899167 -0.315819
    outer loop
      vertex 13.4806 -1.08409 0
      vertex 13.1844 -1.82727 2.4
      vertex 13.0701 -0.945799 0
    endloop
  endfacet
  facet normal -0.398369 -0.861138 -0.315824
    outer loop
      vertex 13.4806 -1.08409 0
      vertex 13.4989 -1.97276 2.4
      vertex 13.1844 -1.82727 2.4
    endloop
  endfacet
  facet normal -0.398471 -0.861096 -0.315808
    outer loop
      vertex 13.8736 -1.26595 0
      vertex 13.4989 -1.97276 2.4
      vertex 13.4806 -1.08409 0
    endloop
  endfacet
  facet normal -0.489152 -0.813017 -0.315806
    outer loop
      vertex 13.8736 -1.26595 0
      vertex 13.7958 -2.15139 2.4
      vertex 13.4989 -1.97276 2.4
    endloop
  endfacet
  facet normal -0.489181 -0.813002 -0.315801
    outer loop
      vertex 13.8736 -1.26595 0
      vertex 14.2447 -1.48924 0
      vertex 13.7958 -2.15139 2.4
    endloop
  endfacet
  facet normal -0.574261 -0.755312 -0.315798
    outer loop
      vertex 14.2447 -1.48924 0
      vertex 14.0716 -2.36108 2.4
      vertex 13.7958 -2.15139 2.4
    endloop
  endfacet
  facet normal -0.574203 -0.755352 -0.315808
    outer loop
      vertex 14.2447 -1.48924 0
      vertex 14.5895 -1.75135 0
      vertex 14.0716 -2.36108 2.4
    endloop
  endfacet
  facet normal -0.652435 -0.688907 -0.31581
    outer loop
      vertex 14.5895 -1.75135 0
      vertex 14.3232 -2.59936 2.4
      vertex 14.0716 -2.36108 2.4
    endloop
  endfacet
  facet normal -0.652435 -0.688907 -0.31581
    outer loop
      vertex 14.5895 -1.75135 0
      vertex 14.904 -2.0492 0
      vertex 14.3232 -2.59936 2.4
    endloop
  endfacet
  facet normal -0.723172 -0.614236 -0.315811
    outer loop
      vertex 14.904 -2.0492 0
      vertex 14.5475 -2.86344 2.4
      vertex 14.3232 -2.59936 2.4
    endloop
  endfacet
  facet normal -0.723143 -0.614267 -0.315817
    outer loop
      vertex 14.904 -2.0492 0
      vertex 15.1844 -2.3793 0
      vertex 14.5475 -2.86344 2.4
    endloop
  endfacet
  facet normal -0.78539 -0.532375 -0.315816
    outer loop
      vertex 15.1844 -2.3793 0
      vertex 14.7419 -3.15023 2.4
      vertex 14.5475 -2.86344 2.4
    endloop
  endfacet
  facet normal -0.785384 -0.532382 -0.315817
    outer loop
      vertex 15.1844 -2.3793 0
      vertex 15.4274 -2.73778 0
      vertex 14.7419 -3.15023 2.4
    endloop
  endfacet
  facet normal -0.838288 -0.444447 -0.315816
    outer loop
      vertex 15.4274 -2.73778 0
      vertex 14.9042 -3.45635 2.4
      vertex 14.7419 -3.15023 2.4
    endloop
  endfacet
  facet normal -0.838269 -0.44448 -0.315822
    outer loop
      vertex 15.4274 -2.73778 0
      vertex 15.6303 -3.12044 0
      vertex 14.9042 -3.45635 2.4
    endloop
  endfacet
  facet normal -0.881381 -0.351315 -0.315825
    outer loop
      vertex 15.6303 -3.12044 0
      vertex 15.0325 -3.77823 2.4
      vertex 14.9042 -3.45635 2.4
    endloop
  endfacet
  facet normal -0.881444 -0.351176 -0.315803
    outer loop
      vertex 15.6303 -3.12044 0
      vertex 15.7906 -3.52279 0
      vertex 15.0325 -3.77823 2.4
    endloop
  endfacet
  facet normal -0.914237 -0.253848 -0.315803
    outer loop
      vertex 15.7906 -3.52279 0
      vertex 15.1252 -4.11209 2.4
      vertex 15.0325 -3.77823 2.4
    endloop
  endfacet
  facet normal -0.914222 -0.253896 -0.31581
    outer loop
      vertex 15.7906 -3.52279 0
      vertex 15.9065 -3.94012 0
      vertex 15.1252 -4.11209 2.4
    endloop
  endfacet
  facet normal -0.936348 -0.153352 -0.315809
    outer loop
      vertex 15.9065 -3.94012 0
      vertex 15.1812 -4.45402 2.4
      vertex 15.1252 -4.11209 2.4
    endloop
  endfacet
  facet normal -0.936303 -0.153564 -0.31584
    outer loop
      vertex 15.9065 -3.94012 0
      vertex 15.9766 -4.36753 0
      vertex 15.1812 -4.45402 2.4
    endloop
  endfacet
  facet normal -0.947414 -0.0514809 -0.315844
    outer loop
      vertex 15.9766 -4.36753 0
      vertex 15.2 -4.8 2.4
      vertex 15.1812 -4.45402 2.4
    endloop
  endfacet
  facet normal -0.947436 -0.0512637 -0.315812
    outer loop
      vertex 15.9766 -4.36753 0
      vertex 16 -4.8 0
      vertex 15.2 -4.8 2.4
    endloop
  endfacet
  facet normal -0.947425 0.0514816 -0.315808
    outer loop
      vertex 15.2 -4.8 2.4
      vertex 16 -4.8 0
      vertex 15.1812 -5.14598 2.4
    endloop
  endfacet
  facet normal -0.947427 0.051262 -0.315841
    outer loop
      vertex 16 -4.8 0
      vertex 15.9766 -5.23248 0
      vertex 15.1812 -5.14598 2.4
    endloop
  endfacet
  facet normal 1 -0 0
    outer loop
      vertex 16.8 -9.6 2.4
      vertex 16.8 0 0
      vertex 16.8 0 2.4
    endloop
  endfacet
  facet normal 1 0 0
    outer loop
      vertex 16.8 0 0
      vertex 16.8 -9.6 2.4
      vertex 16.8 -9.6 0
    endloop
  endfacet
  facet normal 1 -0 0
    outer loop
      vertex 1 0 1.8
      vertex 1 2 0.599999
      vertex 1 2 1.8
    endloop
  endfacet
  facet normal 1 0 0
    outer loop
      vertex 1 2 0.599999
      vertex 1 0 1.8
      vertex 1 0 0.599999
    endloop
  endfacet
  facet normal 0 0 1
    outer loop
      vertex 3 0 0.599999
      vertex 1 2 0.599999
      vertex 1 0 0.599999
    endloop
  endfacet
  facet normal 0 0 -1
    outer loop
      vertex 1 2 1.8
      vertex 3 0 1.8
      vertex 1 0 1.8
    endloop
  endfacet
  facet normal 0.707107 0.707107 0
    outer loop
      vertex 3 0 0.599999
      vertex 1 2 0
      vertex 1 2 0.599999
    endloop
  endfacet
  facet normal 0.707107 0.707107 0
    outer loop
      vertex 1 2 0
      vertex 3 0 0.599999
      vertex 3 0 0
    endloop
  endfacet
  facet normal 0.707107 0.707107 0
    outer loop
      vertex 3 0 2.4
      vertex 1 2 1.8
      vertex 1 2 2.4
    endloop
  endfacet
  facet normal 0.707107 0.707107 0
    outer loop
      vertex 1 2 1.8
      vertex 3 0 2.4
      vertex 3 0 1.8
    endloop
  endfacet
  facet normal 0 1 -0
    outer loop
      vertex 1 2 1.8
      vertex 0 2 2.4
      vertex 1 2 2.4
    endloop
  endfacet
  facet normal 0 1 -0
    outer loop
      vertex 1 2 0.599999
      vertex 0 2 2.4
      vertex 1 2 1.8
    endloop
  endfacet
  facet normal 0 1 0
    outer loop
      vertex 0 2 0
      vertex 1 2 0.599999
      vertex 1 2 0
    endloop
  endfacet
  facet normal 0 1 0
    outer loop
      vertex 1 2 0.599999
      vertex 0 2 0
      vertex 0 2 2.4
    endloop
  endfacet
  facet normal -1 0 0
    outer loop
      vertex 0 0 0
      vertex 0 2 2.4
      vertex 0 2 0
    endloop
  endfacet
  facet normal -1 -0 0
    outer loop
      vertex 0 2 2.4
      vertex 0 0 0
      vertex 0 0 2.4
    endloop
  endfacet
endsolid OpenSCAD_Model
