solid OpenSCAD_Model
  facet normal 1 -0 0
    outer loop
      vertex 1 0 3.2
      vertex 1 3 1.6
      vertex 1 3 3.2
    endloop
  endfacet
  facet normal 1 0 0
    outer loop
      vertex 1 3 1.6
      vertex 1 0 3.2
      vertex 1 0 1.6
    endloop
  endfacet
  facet normal 0 0 1
    outer loop
      vertex 4 0 1.6
      vertex 1 3 1.6
      vertex 1 0 1.6
    endloop
  endfacet
  facet normal 0 0 -1
    outer loop
      vertex 1 3 3.2
      vertex 4 0 3.2
      vertex 1 0 3.2
    endloop
  endfacet
  facet normal 0 0 -1
    outer loop
      vertex -0.216555 -0.805865 0
      vertex 0 0 0
      vertex 0.216556 -0.805865 0
    endloop
  endfacet
  facet normal 0 0 -1
    outer loop
      vertex -0.647127 -0.852695 0
      vertex 0 0 0
      vertex -0.216555 -0.805865 0
    endloop
  endfacet
  facet normal 0 0 -1
    outer loop
      vertex -1.07011 -0.9458 0
      vertex 0 0 0
      vertex -0.647127 -0.852695 0
    endloop
  endfacet
  facet normal 0 0 -1
    outer loop
      vertex -1.48055 -1.08409 0
      vertex 0 0 0
      vertex -1.07011 -0.9458 0
    endloop
  endfacet
  facet normal 0 0 -1
    outer loop
      vertex -4.8 0 0
      vertex -1.48055 -1.08409 0
      vertex -1.87363 -1.26595 0
    endloop
  endfacet
  facet normal 0 0 -1
    outer loop
      vertex -4.8 0 0
      vertex -1.87363 -1.26595 0
      vertex -2.24475 -1.48924 0
    endloop
  endfacet
  facet normal 0 0 -1
    outer loop
      vertex -4.8 0 0
      vertex -4 -4.8 0
      vertex -4.8 -9.6 0
    endloop
  endfacet
  facet normal 0 0 -1
    outer loop
      vertex -1.48055 -1.08409 0
      vertex -4.8 0 0
      vertex 0 0 0
    endloop
  endfacet
  facet normal 0 0 -1
    outer loop
      vertex -2.58955 -1.75135 0
      vertex -4.8 0 0
      vertex -2.24475 -1.48924 0
    endloop
  endfacet
  facet normal 0 0 -1
    outer loop
      vertex -2.90398 -2.0492 0
      vertex -4.8 0 0
      vertex -2.58955 -1.75135 0
    endloop
  endfacet
  facet normal 0 0 -1
    outer loop
      vertex -3.18437 -2.3793 0
      vertex -4.8 0 0
      vertex -2.90398 -2.0492 0
    endloop
  endfacet
  facet normal 0 0 -1
    outer loop
      vertex -3.42743 -2.73778 0
      vertex -4.8 0 0
      vertex -3.18437 -2.3793 0
    endloop
  endfacet
  facet normal 0 0 -1
    outer loop
      vertex -3.6303 -3.12044 0
      vertex -4.8 0 0
      vertex -3.42743 -2.73778 0
    endloop
  endfacet
  facet normal 0 0 -1
    outer loop
      vertex -3.79061 -3.52279 0
      vertex -4.8 0 0
      vertex -3.6303 -3.12044 0
    endloop
  endfacet
  facet normal 0 0 -1
    outer loop
      vertex -3.90648 -3.94012 0
      vertex -4.8 0 0
      vertex -3.79061 -3.52279 0
    endloop
  endfacet
  facet normal 0 0 -1
    outer loop
      vertex -3.97655 -4.36752 0
      vertex -4.8 0 0
      vertex -3.90648 -3.94012 0
    endloop
  endfacet
  facet normal 0 0 -1
    outer loop
      vertex -4 -4.8 0
      vertex -4.8 0 0
      vertex -3.97655 -4.36752 0
    endloop
  endfacet
  facet normal 0 0 -1
    outer loop
      vertex 4.8 -9.6 0
      vertex 4 -4.8 0
      vertex 4.8 0 0
    endloop
  endfacet
  facet normal 0 0 -1
    outer loop
      vertex 4.8 -9.6 0
      vertex 3.97655 -5.23248 0
      vertex 4 -4.8 0
    endloop
  endfacet
  facet normal 0 0 -1
    outer loop
      vertex 4.8 -9.6 0
      vertex 3.90648 -5.65988 0
      vertex 3.97655 -5.23248 0
    endloop
  endfacet
  facet normal 0 0 -1
    outer loop
      vertex 4.8 -9.6 0
      vertex 3.79061 -6.07721 0
      vertex 3.90648 -5.65988 0
    endloop
  endfacet
  facet normal 0 0 -1
    outer loop
      vertex 4.8 -9.6 0
      vertex 3.6303 -6.47956 0
      vertex 3.79061 -6.07721 0
    endloop
  endfacet
  facet normal 0 0 -1
    outer loop
      vertex 4.8 -9.6 0
      vertex 3.42743 -6.86222 0
      vertex 3.6303 -6.47956 0
    endloop
  endfacet
  facet normal 0 0 -1
    outer loop
      vertex 4.8 -9.6 0
      vertex 3.18437 -7.2207 0
      vertex 3.42743 -6.86222 0
    endloop
  endfacet
  facet normal 0 0 -1
    outer loop
      vertex 4.8 -9.6 0
      vertex 2.90398 -7.5508 0
      vertex 3.18437 -7.2207 0
    endloop
  endfacet
  facet normal 0 0 -1
    outer loop
      vertex 4.8 -9.6 0
      vertex 2.58955 -7.84865 0
      vertex 2.90398 -7.5508 0
    endloop
  endfacet
  facet normal 0 0 -1
    outer loop
      vertex 4.8 -9.6 0
      vertex 2.24475 -8.11076 0
      vertex 2.58955 -7.84865 0
    endloop
  endfacet
  facet normal 0 0 -1
    outer loop
      vertex 4.8 -9.6 0
      vertex 1.87363 -8.33405 0
      vertex 2.24475 -8.11076 0
    endloop
  endfacet
  facet normal 0 0 -1
    outer loop
      vertex 4.8 -9.6 0
      vertex 1.48055 -8.51591 0
      vertex 1.87363 -8.33405 0
    endloop
  endfacet
  facet normal 0 0 -1
    outer loop
      vertex 4.8 -9.6 0
      vertex 1.07011 -8.6542 0
      vertex 1.48055 -8.51591 0
    endloop
  endfacet
  facet normal 0 0 -1
    outer loop
      vertex 4.8 -9.6 0
      vertex 0.647127 -8.7473 0
      vertex 1.07011 -8.6542 0
    endloop
  endfacet
  facet normal 0 0 -1
    outer loop
      vertex 4.8 -9.6 0
      vertex 0.216556 -8.79413 0
      vertex 0.647127 -8.7473 0
    endloop
  endfacet
  facet normal 0 0 -1
    outer loop
      vertex 4.8 -9.6 0
      vertex -0.216555 -8.79413 0
      vertex 0.216556 -8.79413 0
    endloop
  endfacet
  facet normal 0 0 -1
    outer loop
      vertex -4.8 -9.6 0
      vertex -0.216555 -8.79413 0
      vertex 4.8 -9.6 0
    endloop
  endfacet
  facet normal -0 0 -1
    outer loop
      vertex -3.97655 -5.23248 0
      vertex -4.8 -9.6 0
      vertex -4 -4.8 0
    endloop
  endfacet
  facet normal -0 0 -1
    outer loop
      vertex -3.90648 -5.65988 0
      vertex -4.8 -9.6 0
      vertex -3.97655 -5.23248 0
    endloop
  endfacet
  facet normal -0 0 -1
    outer loop
      vertex -3.79061 -6.07721 0
      vertex -4.8 -9.6 0
      vertex -3.90648 -5.65988 0
    endloop
  endfacet
  facet normal -0 0 -1
    outer loop
      vertex -3.6303 -6.47956 0
      vertex -4.8 -9.6 0
      vertex -3.79061 -6.07721 0
    endloop
  endfacet
  facet normal -0 0 -1
    outer loop
      vertex -3.42743 -6.86222 0
      vertex -4.8 -9.6 0
      vertex -3.6303 -6.47956 0
    endloop
  endfacet
  facet normal -0 0 -1
    outer loop
      vertex -3.18437 -7.2207 0
      vertex -4.8 -9.6 0
      vertex -3.42743 -6.86222 0
    endloop
  endfacet
  facet normal -0 0 -1
    outer loop
      vertex -2.90398 -7.5508 0
      vertex -4.8 -9.6 0
      vertex -3.18437 -7.2207 0
    endloop
  endfacet
  facet normal -0 0 -1
    outer loop
      vertex -2.58955 -7.84865 0
      vertex -4.8 -9.6 0
      vertex -2.90398 -7.5508 0
    endloop
  endfacet
  facet normal -0 0 -1
    outer loop
      vertex -2.24475 -8.11076 0
      vertex -4.8 -9.6 0
      vertex -2.58955 -7.84865 0
    endloop
  endfacet
  facet normal -0 0 -1
    outer loop
      vertex -1.87363 -8.33405 0
      vertex -4.8 -9.6 0
      vertex -2.24475 -8.11076 0
    endloop
  endfacet
  facet normal -0 0 -1
    outer loop
      vertex -1.48055 -8.51591 0
      vertex -4.8 -9.6 0
      vertex -1.87363 -8.33405 0
    endloop
  endfacet
  facet normal -0 0 -1
    outer loop
      vertex -1.07011 -8.6542 0
      vertex -4.8 -9.6 0
      vertex -1.48055 -8.51591 0
    endloop
  endfacet
  facet normal -0 0 -1
    outer loop
      vertex -0.647127 -8.7473 0
      vertex -4.8 -9.6 0
      vertex -1.07011 -8.6542 0
    endloop
  endfacet
  facet normal -0 0 -1
    outer loop
      vertex -0.216555 -8.79413 0
      vertex -4.8 -9.6 0
      vertex -0.647127 -8.7473 0
    endloop
  endfacet
  facet normal 0 0 -1
    outer loop
      vertex 3.97655 -4.36752 0
      vertex 4.8 0 0
      vertex 4 -4.8 0
    endloop
  endfacet
  facet normal 0 0 -1
    outer loop
      vertex 3.90648 -3.94012 0
      vertex 4.8 0 0
      vertex 3.97655 -4.36752 0
    endloop
  endfacet
  facet normal 0 0 -1
    outer loop
      vertex 3.79061 -3.52279 0
      vertex 4.8 0 0
      vertex 3.90648 -3.94012 0
    endloop
  endfacet
  facet normal 0 0 -1
    outer loop
      vertex 3.6303 -3.12044 0
      vertex 4.8 0 0
      vertex 3.79061 -3.52279 0
    endloop
  endfacet
  facet normal 0 0 -1
    outer loop
      vertex 3.42743 -2.73778 0
      vertex 4.8 0 0
      vertex 3.6303 -3.12044 0
    endloop
  endfacet
  facet normal 0 0 -1
    outer loop
      vertex 3.18437 -2.3793 0
      vertex 4.8 0 0
      vertex 3.42743 -2.73778 0
    endloop
  endfacet
  facet normal -0 0 -1
    outer loop
      vertex 4.8 0 0
      vertex 3.18437 -2.3793 0
      vertex 4 0 0
    endloop
  endfacet
  facet normal 0 0 -1
    outer loop
      vertex 2.90398 -2.0492 0
      vertex 4 0 0
      vertex 3.18437 -2.3793 0
    endloop
  endfacet
  facet normal 0 0 -1
    outer loop
      vertex 2.58955 -1.75135 0
      vertex 4 0 0
      vertex 2.90398 -2.0492 0
    endloop
  endfacet
  facet normal 0 0 -1
    outer loop
      vertex 2.24475 -1.48924 0
      vertex 4 0 0
      vertex 2.58955 -1.75135 0
    endloop
  endfacet
  facet normal 0 0 -1
    outer loop
      vertex 1.87363 -1.26595 0
      vertex 4 0 0
      vertex 2.24475 -1.48924 0
    endloop
  endfacet
  facet normal 0 0 -1
    outer loop
      vertex 1.48055 -1.08409 0
      vertex 4 0 0
      vertex 1.87363 -1.26595 0
    endloop
  endfacet
  facet normal 0 0 -1
    outer loop
      vertex 1 3 0
      vertex 1.48055 -1.08409 0
      vertex 1.07011 -0.9458 0
    endloop
  endfacet
  facet normal 0 0 -1
    outer loop
      vertex 1.48055 -1.08409 0
      vertex 1 3 0
      vertex 4 0 0
    endloop
  endfacet
  facet normal 0 0 -1
    outer loop
      vertex 0 0 0
      vertex 1.07011 -0.9458 0
      vertex 0.647127 -0.852695 0
    endloop
  endfacet
  facet normal 0 0 -1
    outer loop
      vertex 0 0 0
      vertex 0.647127 -0.852695 0
      vertex 0.216556 -0.805865 0
    endloop
  endfacet
  facet normal 0 0 -1
    outer loop
      vertex 1.07011 -0.9458 0
      vertex 0 0 0
      vertex 1 3 0
    endloop
  endfacet
  facet normal -0 0 -1
    outer loop
      vertex 1 3 0
      vertex 0 0 0
      vertex 0 3 0
    endloop
  endfacet
  facet normal 0.707107 0.707107 0
    outer loop
      vertex 4 0 1.6
      vertex 1 3 0
      vertex 1 3 1.6
    endloop
  endfacet
  facet normal 0.707107 0.707107 0
    outer loop
      vertex 1 3 0
      vertex 4 0 1.6
      vertex 4 0 0
    endloop
  endfacet
  facet normal 0 1 0
    outer loop
      vertex 4.8 0 4.8
      vertex 4 0 3.2
      vertex 4 0 4.8
    endloop
  endfacet
  facet normal 0 1 0
    outer loop
      vertex 4 0 3.2
      vertex 4 0 1.6
      vertex 1 0 3.2
    endloop
  endfacet
  facet normal 0 1 0
    outer loop
      vertex 4.8 0 4.8
      vertex 4 0 1.6
      vertex 4 0 3.2
    endloop
  endfacet
  facet normal 0 1 -0
    outer loop
      vertex 4.8 0 0
      vertex 4 0 1.6
      vertex 4.8 0 4.8
    endloop
  endfacet
  facet normal 0 1 0
    outer loop
      vertex 4 0 1.6
      vertex 4.8 0 0
      vertex 4 0 0
    endloop
  endfacet
  facet normal 0 1 0
    outer loop
      vertex 1 0 3.2
      vertex 4 0 1.6
      vertex 1 0 1.6
    endloop
  endfacet
  facet normal 0 1 -0
    outer loop
      vertex 0 0 0
      vertex -4.8 0 4.8
      vertex 0 0 4.8
    endloop
  endfacet
  facet normal 0 1 0
    outer loop
      vertex -4.8 0 4.8
      vertex 0 0 0
      vertex -4.8 0 0
    endloop
  endfacet
  facet normal -1 0 0
    outer loop
      vertex 0 0 0
      vertex 0 3 4.8
      vertex 0 3 0
    endloop
  endfacet
  facet normal -1 -0 0
    outer loop
      vertex 0 3 4.8
      vertex 0 0 0
      vertex 0 0 4.8
    endloop
  endfacet
  facet normal 0 1 -0
    outer loop
      vertex 1 3 3.2
      vertex 0 3 4.8
      vertex 1 3 4.8
    endloop
  endfacet
  facet normal 0 1 -0
    outer loop
      vertex 1 3 1.6
      vertex 0 3 4.8
      vertex 1 3 3.2
    endloop
  endfacet
  facet normal 0 1 0
    outer loop
      vertex 0 3 0
      vertex 1 3 1.6
      vertex 1 3 0
    endloop
  endfacet
  facet normal 0 1 0
    outer loop
      vertex 1 3 1.6
      vertex 0 3 0
      vertex 0 3 4.8
    endloop
  endfacet
  facet normal 0.707107 0.707107 0
    outer loop
      vertex 4 0 4.8
      vertex 1 3 3.2
      vertex 1 3 4.8
    endloop
  endfacet
  facet normal 0.707107 0.707107 0
    outer loop
      vertex 1 3 3.2
      vertex 4 0 4.8
      vertex 4 0 3.2
    endloop
  endfacet
  facet normal 0 0 1
    outer loop
      vertex 4.8 0 4.8
      vertex 3.97655 -4.36752 4.8
      vertex 4 -4.8 4.8
    endloop
  endfacet
  facet normal 0 0 1
    outer loop
      vertex 4.8 0 4.8
      vertex 3.90648 -3.94012 4.8
      vertex 3.97655 -4.36752 4.8
    endloop
  endfacet
  facet normal 0 0 1
    outer loop
      vertex 4.8 0 4.8
      vertex 3.79061 -3.52279 4.8
      vertex 3.90648 -3.94012 4.8
    endloop
  endfacet
  facet normal 0 0 1
    outer loop
      vertex 4.8 0 4.8
      vertex 3.6303 -3.12044 4.8
      vertex 3.79061 -3.52279 4.8
    endloop
  endfacet
  facet normal 0 0 1
    outer loop
      vertex 4.8 0 4.8
      vertex 3.42743 -2.73778 4.8
      vertex 3.6303 -3.12044 4.8
    endloop
  endfacet
  facet normal 0 0 1
    outer loop
      vertex 4.8 0 4.8
      vertex 3.18437 -2.3793 4.8
      vertex 3.42743 -2.73778 4.8
    endloop
  endfacet
  facet normal 0 0 1
    outer loop
      vertex 4 0 4.8
      vertex 2.90398 -2.0492 4.8
      vertex 3.18437 -2.3793 4.8
    endloop
  endfacet
  facet normal 0 0 1
    outer loop
      vertex 4 0 4.8
      vertex 2.58955 -1.75135 4.8
      vertex 2.90398 -2.0492 4.8
    endloop
  endfacet
  facet normal 0 0 1
    outer loop
      vertex 4 0 4.8
      vertex 2.24475 -1.48924 4.8
      vertex 2.58955 -1.75135 4.8
    endloop
  endfacet
  facet normal 0 0 1
    outer loop
      vertex 4 0 4.8
      vertex 1.87363 -1.26595 4.8
      vertex 2.24475 -1.48924 4.8
    endloop
  endfacet
  facet normal 0 0 1
    outer loop
      vertex 4 0 4.8
      vertex 1.48055 -1.08409 4.8
      vertex 1.87363 -1.26595 4.8
    endloop
  endfacet
  facet normal 0 0 1
    outer loop
      vertex 1 3 4.8
      vertex 1.48055 -1.08409 4.8
      vertex 4 0 4.8
    endloop
  endfacet
  facet normal 0 0 1
    outer loop
      vertex 1.48055 -1.08409 4.8
      vertex 1 3 4.8
      vertex 1.07011 -0.9458 4.8
    endloop
  endfacet
  facet normal -0 0 1
    outer loop
      vertex 0 0 4.8
      vertex 1.07011 -0.9458 4.8
      vertex 1 3 4.8
    endloop
  endfacet
  facet normal 0 0 1
    outer loop
      vertex 1.07011 -0.9458 4.8
      vertex 0 0 4.8
      vertex 0.647127 -0.852695 4.8
    endloop
  endfacet
  facet normal 0 0 1
    outer loop
      vertex 0 0 4.8
      vertex 1 3 4.8
      vertex 0 3 4.8
    endloop
  endfacet
  facet normal 0 0 1
    outer loop
      vertex 0.647127 -0.852695 4.8
      vertex 0 0 4.8
      vertex 0.216556 -0.805865 4.8
    endloop
  endfacet
  facet normal 0 0 1
    outer loop
      vertex 0 0 4.8
      vertex -0.216555 -0.805865 4.8
      vertex 0.216556 -0.805865 4.8
    endloop
  endfacet
  facet normal 0 0 1
    outer loop
      vertex 0 0 4.8
      vertex -0.647127 -0.852695 4.8
      vertex -0.216555 -0.805865 4.8
    endloop
  endfacet
  facet normal 0 0 1
    outer loop
      vertex 0 0 4.8
      vertex -1.07011 -0.9458 4.8
      vertex -0.647127 -0.852695 4.8
    endloop
  endfacet
  facet normal 0 0 1
    outer loop
      vertex 0 0 4.8
      vertex -1.48055 -1.08409 4.8
      vertex -1.07011 -0.9458 4.8
    endloop
  endfacet
  facet normal -0 0 1
    outer loop
      vertex -4.8 0 4.8
      vertex -1.48055 -1.08409 4.8
      vertex 0 0 4.8
    endloop
  endfacet
  facet normal 0 0 1
    outer loop
      vertex -1.48055 -1.08409 4.8
      vertex -4.8 0 4.8
      vertex -1.87363 -1.26595 4.8
    endloop
  endfacet
  facet normal 0 0 1
    outer loop
      vertex -3.97655 -4.36752 4.8
      vertex -4.8 0 4.8
      vertex -4 -4.8 4.8
    endloop
  endfacet
  facet normal 0 0 1
    outer loop
      vertex -3.90648 -3.94012 4.8
      vertex -4.8 0 4.8
      vertex -3.97655 -4.36752 4.8
    endloop
  endfacet
  facet normal 0 0 1
    outer loop
      vertex -3.79061 -3.52279 4.8
      vertex -4.8 0 4.8
      vertex -3.90648 -3.94012 4.8
    endloop
  endfacet
  facet normal 0 0 1
    outer loop
      vertex -3.6303 -3.12044 4.8
      vertex -4.8 0 4.8
      vertex -3.79061 -3.52279 4.8
    endloop
  endfacet
  facet normal 0 0 1
    outer loop
      vertex -3.42743 -2.73778 4.8
      vertex -4.8 0 4.8
      vertex -3.6303 -3.12044 4.8
    endloop
  endfacet
  facet normal 0 0 1
    outer loop
      vertex -3.18437 -2.3793 4.8
      vertex -4.8 0 4.8
      vertex -3.42743 -2.73778 4.8
    endloop
  endfacet
  facet normal 0 0 1
    outer loop
      vertex -2.90398 -2.0492 4.8
      vertex -4.8 0 4.8
      vertex -3.18437 -2.3793 4.8
    endloop
  endfacet
  facet normal 0 0 1
    outer loop
      vertex -2.58955 -1.75135 4.8
      vertex -4.8 0 4.8
      vertex -2.90398 -2.0492 4.8
    endloop
  endfacet
  facet normal 0 0 1
    outer loop
      vertex -2.24475 -1.48924 4.8
      vertex -4.8 0 4.8
      vertex -2.58955 -1.75135 4.8
    endloop
  endfacet
  facet normal 0 0 1
    outer loop
      vertex -1.87363 -1.26595 4.8
      vertex -4.8 0 4.8
      vertex -2.24475 -1.48924 4.8
    endloop
  endfacet
  facet normal 0 0 1
    outer loop
      vertex 3.18437 -2.3793 4.8
      vertex 4.8 0 4.8
      vertex 4 0 4.8
    endloop
  endfacet
  facet normal 0 0 1
    outer loop
      vertex 4.8 0 4.8
      vertex 4 -4.8 4.8
      vertex 4.8 -9.6 4.8
    endloop
  endfacet
  facet normal -0 0 1
    outer loop
      vertex 3.97655 -5.23248 4.8
      vertex 4.8 -9.6 4.8
      vertex 4 -4.8 4.8
    endloop
  endfacet
  facet normal -0 0 1
    outer loop
      vertex 3.90648 -5.65988 4.8
      vertex 4.8 -9.6 4.8
      vertex 3.97655 -5.23248 4.8
    endloop
  endfacet
  facet normal -0 0 1
    outer loop
      vertex 3.79061 -6.07721 4.8
      vertex 4.8 -9.6 4.8
      vertex 3.90648 -5.65988 4.8
    endloop
  endfacet
  facet normal -0 0 1
    outer loop
      vertex 3.6303 -6.47956 4.8
      vertex 4.8 -9.6 4.8
      vertex 3.79061 -6.07721 4.8
    endloop
  endfacet
  facet normal -0 0 1
    outer loop
      vertex 3.42743 -6.86222 4.8
      vertex 4.8 -9.6 4.8
      vertex 3.6303 -6.47956 4.8
    endloop
  endfacet
  facet normal -0 0 1
    outer loop
      vertex 3.18437 -7.2207 4.8
      vertex 4.8 -9.6 4.8
      vertex 3.42743 -6.86222 4.8
    endloop
  endfacet
  facet normal -0 0 1
    outer loop
      vertex 2.90398 -7.5508 4.8
      vertex 4.8 -9.6 4.8
      vertex 3.18437 -7.2207 4.8
    endloop
  endfacet
  facet normal -0 0 1
    outer loop
      vertex 2.58955 -7.84865 4.8
      vertex 4.8 -9.6 4.8
      vertex 2.90398 -7.5508 4.8
    endloop
  endfacet
  facet normal -0 0 1
    outer loop
      vertex 2.24475 -8.11076 4.8
      vertex 4.8 -9.6 4.8
      vertex 2.58955 -7.84865 4.8
    endloop
  endfacet
  facet normal -0 0 1
    outer loop
      vertex 1.87363 -8.33405 4.8
      vertex 4.8 -9.6 4.8
      vertex 2.24475 -8.11076 4.8
    endloop
  endfacet
  facet normal -0 0 1
    outer loop
      vertex 1.48055 -8.51591 4.8
      vertex 4.8 -9.6 4.8
      vertex 1.87363 -8.33405 4.8
    endloop
  endfacet
  facet normal -0 0 1
    outer loop
      vertex 1.07011 -8.6542 4.8
      vertex 4.8 -9.6 4.8
      vertex 1.48055 -8.51591 4.8
    endloop
  endfacet
  facet normal -0 0 1
    outer loop
      vertex 0.647127 -8.7473 4.8
      vertex 4.8 -9.6 4.8
      vertex 1.07011 -8.6542 4.8
    endloop
  endfacet
  facet normal -0 0 1
    outer loop
      vertex 0.216556 -8.79413 4.8
      vertex 4.8 -9.6 4.8
      vertex 0.647127 -8.7473 4.8
    endloop
  endfacet
  facet normal -0 0 1
    outer loop
      vertex -0.216555 -8.79413 4.8
      vertex 4.8 -9.6 4.8
      vertex 0.216556 -8.79413 4.8
    endloop
  endfacet
  facet normal 0 0 1
    outer loop
      vertex -4.8 -9.6 4.8
      vertex -0.216555 -8.79413 4.8
      vertex -0.647127 -8.7473 4.8
    endloop
  endfacet
  facet normal 0 0 1
    outer loop
      vertex -4.8 -9.6 4.8
      vertex -4 -4.8 4.8
      vertex -4.8 0 4.8
    endloop
  endfacet
  facet normal 0 0 1
    outer loop
      vertex -0.216555 -8.79413 4.8
      vertex -4.8 -9.6 4.8
      vertex 4.8 -9.6 4.8
    endloop
  endfacet
  facet normal 0 0 1
    outer loop
      vertex -1.07011 -8.6542 4.8
      vertex -4.8 -9.6 4.8
      vertex -0.647127 -8.7473 4.8
    endloop
  endfacet
  facet normal 0 0 1
    outer loop
      vertex -1.48055 -8.51591 4.8
      vertex -4.8 -9.6 4.8
      vertex -1.07011 -8.6542 4.8
    endloop
  endfacet
  facet normal 0 0 1
    outer loop
      vertex -1.87363 -8.33405 4.8
      vertex -4.8 -9.6 4.8
      vertex -1.48055 -8.51591 4.8
    endloop
  endfacet
  facet normal 0 0 1
    outer loop
      vertex -2.24475 -8.11076 4.8
      vertex -4.8 -9.6 4.8
      vertex -1.87363 -8.33405 4.8
    endloop
  endfacet
  facet normal 0 0 1
    outer loop
      vertex -2.58955 -7.84865 4.8
      vertex -4.8 -9.6 4.8
      vertex -2.24475 -8.11076 4.8
    endloop
  endfacet
  facet normal 0 0 1
    outer loop
      vertex -2.90398 -7.5508 4.8
      vertex -4.8 -9.6 4.8
      vertex -2.58955 -7.84865 4.8
    endloop
  endfacet
  facet normal 0 0 1
    outer loop
      vertex -3.18437 -7.2207 4.8
      vertex -4.8 -9.6 4.8
      vertex -2.90398 -7.5508 4.8
    endloop
  endfacet
  facet normal 0 0 1
    outer loop
      vertex -3.42743 -6.86222 4.8
      vertex -4.8 -9.6 4.8
      vertex -3.18437 -7.2207 4.8
    endloop
  endfacet
  facet normal 0 0 1
    outer loop
      vertex -3.6303 -6.47956 4.8
      vertex -4.8 -9.6 4.8
      vertex -3.42743 -6.86222 4.8
    endloop
  endfacet
  facet normal 0 0 1
    outer loop
      vertex -3.79061 -6.07721 4.8
      vertex -4.8 -9.6 4.8
      vertex -3.6303 -6.47956 4.8
    endloop
  endfacet
  facet normal 0 0 1
    outer loop
      vertex -3.90648 -5.65988 4.8
      vertex -4.8 -9.6 4.8
      vertex -3.79061 -6.07721 4.8
    endloop
  endfacet
  facet normal 0 0 1
    outer loop
      vertex -3.97655 -5.23248 4.8
      vertex -4.8 -9.6 4.8
      vertex -3.90648 -5.65988 4.8
    endloop
  endfacet
  facet normal 0 0 1
    outer loop
      vertex -4 -4.8 4.8
      vertex -4.8 -9.6 4.8
      vertex -3.97655 -5.23248 4.8
    endloop
  endfacet
  facet normal -1 0 0
    outer loop
      vertex -4.8 -9.6 0
      vertex -4.8 0 4.8
      vertex -4.8 0 0
    endloop
  endfacet
  facet normal -1 -0 0
    outer loop
      vertex -4.8 0 4.8
      vertex -4.8 -9.6 0
      vertex -4.8 -9.6 4.8
    endloop
  endfacet
  facet normal 0 -1 0
    outer loop
      vertex -4.8 -9.6 0
      vertex 4.8 -9.6 4.8
      vertex -4.8 -9.6 4.8
    endloop
  endfacet
  facet normal 0 -1 -0
    outer loop
      vertex 4.8 -9.6 4.8
      vertex -4.8 -9.6 0
      vertex 4.8 -9.6 0
    endloop
  endfacet
  facet normal 0.936326 -0.153485 -0.315811
    outer loop
      vertex -3.12519 -4.11209 2.4
      vertex -3.18124 -4.45402 2.4
      vertex -3.97655 -4.36752 0
    endloop
  endfacet
  facet normal 0.936323 -0.153505 -0.315808
    outer loop
      vertex -3.90648 -3.94012 0
      vertex -3.12519 -4.11209 2.4
      vertex -3.97655 -4.36752 0
    endloop
  endfacet
  facet normal 0.914234 -0.253855 -0.315807
    outer loop
      vertex -3.03249 -3.77824 2.4
      vertex -3.12519 -4.11209 2.4
      vertex -3.90648 -3.94012 0
    endloop
  endfacet
  facet normal 0.914238 -0.253835 -0.31581
    outer loop
      vertex -3.79061 -3.52279 0
      vertex -3.03249 -3.77824 2.4
      vertex -3.90648 -3.94012 0
    endloop
  endfacet
  facet normal 0.881436 -0.351189 -0.315811
    outer loop
      vertex -2.90424 -3.45635 2.4
      vertex -3.03249 -3.77824 2.4
      vertex -3.79061 -3.52279 0
    endloop
  endfacet
  facet normal 0.881435 -0.351194 -0.31581
    outer loop
      vertex -3.6303 -3.12044 0
      vertex -2.90424 -3.45635 2.4
      vertex -3.79061 -3.52279 0
    endloop
  endfacet
  facet normal 0.83829 -0.444448 -0.31581
    outer loop
      vertex -2.74194 -3.15023 2.4
      vertex -2.90424 -3.45635 2.4
      vertex -3.6303 -3.12044 0
    endloop
  endfacet
  facet normal 0.838298 -0.44443 -0.315813
    outer loop
      vertex -3.42743 -2.73778 0
      vertex -2.74194 -3.15023 2.4
      vertex -3.6303 -3.12044 0
    endloop
  endfacet
  facet normal 0.78534 -0.53245 -0.315813
    outer loop
      vertex -2.5475 -2.86344 2.4
      vertex -2.74194 -3.15023 2.4
      vertex -3.42743 -2.73778 0
    endloop
  endfacet
  facet normal 0.785326 -0.532474 -0.315809
    outer loop
      vertex -3.18437 -2.3793 0
      vertex -2.5475 -2.86344 2.4
      vertex -3.42743 -2.73778 0
    endloop
  endfacet
  facet normal 0.723145 -0.614268 -0.315809
    outer loop
      vertex -2.32318 -2.59936 2.4
      vertex -2.5475 -2.86344 2.4
      vertex -3.18437 -2.3793 0
    endloop
  endfacet
  facet normal 0.723156 -0.614255 -0.315811
    outer loop
      vertex -2.90398 -2.0492 0
      vertex -2.32318 -2.59936 2.4
      vertex -3.18437 -2.3793 0
    endloop
  endfacet
  facet normal 0.652517 -0.688829 -0.315812
    outer loop
      vertex -2.07164 -2.36108 2.4
      vertex -2.32318 -2.59936 2.4
      vertex -2.90398 -2.0492 0
    endloop
  endfacet
  facet normal 0.652512 -0.688834 -0.31581
    outer loop
      vertex -2.58955 -1.75135 0
      vertex -2.07164 -2.36108 2.4
      vertex -2.90398 -2.0492 0
    endloop
  endfacet
  facet normal 0.574189 -0.755362 -0.31581
    outer loop
      vertex -1.7958 -2.1514 2.4
      vertex -2.07164 -2.36108 2.4
      vertex -2.58955 -1.75135 0
    endloop
  endfacet
  facet normal 0.574202 -0.75535 -0.315813
    outer loop
      vertex -2.24475 -1.48924 0
      vertex -1.7958 -2.1514 2.4
      vertex -2.58955 -1.75135 0
    endloop
  endfacet
  facet normal 0.489183 -0.812996 -0.315813
    outer loop
      vertex -1.49891 -1.97276 2.4
      vertex -1.7958 -2.1514 2.4
      vertex -2.24475 -1.48924 0
    endloop
  endfacet
  facet normal 0.48916 -0.813011 -0.315809
    outer loop
      vertex -1.87363 -1.26595 0
      vertex -1.49891 -1.97276 2.4
      vertex -2.24475 -1.48924 0
    endloop
  endfacet
  facet normal 0.398379 -0.861138 -0.315809
    outer loop
      vertex -1.18444 -1.82728 2.4
      vertex -1.49891 -1.97276 2.4
      vertex -1.87363 -1.26595 0
    endloop
  endfacet
  facet normal 0.398403 -0.861126 -0.315813
    outer loop
      vertex -1.48055 -1.08409 0
      vertex -1.18444 -1.82728 2.4
      vertex -1.87363 -1.26595 0
    endloop
  endfacet
  facet normal 0.302976 -0.899148 -0.315813
    outer loop
      vertex -0.856091 -1.71664 2.4
      vertex -1.18444 -1.82728 2.4
      vertex -1.48055 -1.08409 0
    endloop
  endfacet
  facet normal 0.302954 -0.899157 -0.31581
    outer loop
      vertex -1.07011 -0.9458 0
      vertex -0.856091 -1.71664 2.4
      vertex -1.48055 -1.08409 0
    endloop
  endfacet
  facet normal 0.203982 -0.926637 -0.31581
    outer loop
      vertex -0.517702 -1.64215 2.4
      vertex -0.856091 -1.71664 2.4
      vertex -1.07011 -0.9458 0
    endloop
  endfacet
  facet normal 0.203968 -0.92664 -0.315808
    outer loop
      vertex -0.647127 -0.852695 0
      vertex -0.517702 -1.64215 2.4
      vertex -1.07011 -0.9458 0
    endloop
  endfacet
  facet normal 0.10258 -0.943262 -0.315808
    outer loop
      vertex -0.173244 -1.60469 2.4
      vertex -0.517702 -1.64215 2.4
      vertex -0.647127 -0.852695 0
    endloop
  endfacet
  facet normal 0.102591 -0.94326 -0.31581
    outer loop
      vertex -0.216555 -0.805865 0
      vertex -0.173244 -1.60469 2.4
      vertex -0.647127 -0.852695 0
    endloop
  endfacet
  facet normal 0 -0.948823 -0.31581
    outer loop
      vertex -0.216555 -0.805865 0
      vertex 0.173244 -1.60469 2.4
      vertex -0.173244 -1.60469 2.4
    endloop
  endfacet
  facet normal 0 -0.948823 -0.31581
    outer loop
      vertex 0.173244 -1.60469 2.4
      vertex -0.216555 -0.805865 0
      vertex 0.216556 -0.805865 0
    endloop
  endfacet
  facet normal -0.10258 -0.943261 -0.31581
    outer loop
      vertex 0.216556 -0.805865 0
      vertex 0.517702 -1.64215 2.4
      vertex 0.173244 -1.60469 2.4
    endloop
  endfacet
  facet normal -0.102591 -0.94326 -0.315808
    outer loop
      vertex 0.647127 -0.852695 0
      vertex 0.517702 -1.64215 2.4
      vertex 0.216556 -0.805865 0
    endloop
  endfacet
  facet normal -0.203982 -0.926637 -0.315808
    outer loop
      vertex 0.647127 -0.852695 0
      vertex 0.856091 -1.71664 2.4
      vertex 0.517702 -1.64215 2.4
    endloop
  endfacet
  facet normal -0.203968 -0.92664 -0.31581
    outer loop
      vertex 1.07011 -0.9458 0
      vertex 0.856091 -1.71664 2.4
      vertex 0.647127 -0.852695 0
    endloop
  endfacet
  facet normal -0.302976 -0.899149 -0.31581
    outer loop
      vertex 1.07011 -0.9458 0
      vertex 1.18444 -1.82728 2.4
      vertex 0.856091 -1.71664 2.4
    endloop
  endfacet
  facet normal -0.302954 -0.899156 -0.315813
    outer loop
      vertex 1.48055 -1.08409 0
      vertex 1.18444 -1.82728 2.4
      vertex 1.07011 -0.9458 0
    endloop
  endfacet
  facet normal -0.398379 -0.861137 -0.315813
    outer loop
      vertex 1.48055 -1.08409 0
      vertex 1.49891 -1.97276 2.4
      vertex 1.18444 -1.82728 2.4
    endloop
  endfacet
  facet normal -0.398404 -0.861127 -0.315809
    outer loop
      vertex 1.87363 -1.26595 0
      vertex 1.49891 -1.97276 2.4
      vertex 1.48055 -1.08409 0
    endloop
  endfacet
  facet normal -0.489184 -0.812997 -0.315809
    outer loop
      vertex 1.87363 -1.26595 0
      vertex 1.7958 -2.1514 2.4
      vertex 1.49891 -1.97276 2.4
    endloop
  endfacet
  facet normal -0.48916 -0.81301 -0.315813
    outer loop
      vertex 1.87363 -1.26595 0
      vertex 2.24475 -1.48924 0
      vertex 1.7958 -2.1514 2.4
    endloop
  endfacet
  facet normal -0.574188 -0.755361 -0.315813
    outer loop
      vertex 2.24475 -1.48924 0
      vertex 2.07164 -2.36108 2.4
      vertex 1.7958 -2.1514 2.4
    endloop
  endfacet
  facet normal -0.574203 -0.755351 -0.315811
    outer loop
      vertex 2.24475 -1.48924 0
      vertex 2.58955 -1.75135 0
      vertex 2.07164 -2.36108 2.4
    endloop
  endfacet
  facet normal -0.652517 -0.688829 -0.31581
    outer loop
      vertex 2.58955 -1.75135 0
      vertex 2.32318 -2.59936 2.4
      vertex 2.07164 -2.36108 2.4
    endloop
  endfacet
  facet normal -0.652511 -0.688834 -0.315811
    outer loop
      vertex 2.58955 -1.75135 0
      vertex 2.90398 -2.0492 0
      vertex 2.32318 -2.59936 2.4
    endloop
  endfacet
  facet normal -0.723145 -0.614268 -0.315812
    outer loop
      vertex 2.90398 -2.0492 0
      vertex 2.5475 -2.86344 2.4
      vertex 2.32318 -2.59936 2.4
    endloop
  endfacet
  facet normal -0.723156 -0.614255 -0.315809
    outer loop
      vertex 2.90398 -2.0492 0
      vertex 3.18437 -2.3793 0
      vertex 2.5475 -2.86344 2.4
    endloop
  endfacet
  facet normal -0.785341 -0.532451 -0.315809
    outer loop
      vertex 3.18437 -2.3793 0
      vertex 2.74194 -3.15023 2.4
      vertex 2.5475 -2.86344 2.4
    endloop
  endfacet
  facet normal -0.785325 -0.532473 -0.315813
    outer loop
      vertex 3.18437 -2.3793 0
      vertex 3.42743 -2.73778 0
      vertex 2.74194 -3.15023 2.4
    endloop
  endfacet
  facet normal -0.838289 -0.444448 -0.315813
    outer loop
      vertex 3.42743 -2.73778 0
      vertex 2.90424 -3.45635 2.4
      vertex 2.74194 -3.15023 2.4
    endloop
  endfacet
  facet normal -0.838299 -0.44443 -0.31581
    outer loop
      vertex 3.42743 -2.73778 0
      vertex 3.6303 -3.12044 0
      vertex 2.90424 -3.45635 2.4
    endloop
  endfacet
  facet normal -0.881437 -0.351189 -0.31581
    outer loop
      vertex 3.6303 -3.12044 0
      vertex 3.03249 -3.77824 2.4
      vertex 2.90424 -3.45635 2.4
    endloop
  endfacet
  facet normal -0.881434 -0.351194 -0.315811
    outer loop
      vertex 3.6303 -3.12044 0
      vertex 3.79061 -3.52279 0
      vertex 3.03249 -3.77824 2.4
    endloop
  endfacet
  facet normal -0.914233 -0.253855 -0.315811
    outer loop
      vertex 3.79061 -3.52279 0
      vertex 3.12519 -4.11209 2.4
      vertex 3.03249 -3.77824 2.4
    endloop
  endfacet
  facet normal -0.914239 -0.253835 -0.315807
    outer loop
      vertex 3.79061 -3.52279 0
      vertex 3.90648 -3.94012 0
      vertex 3.12519 -4.11209 2.4
    endloop
  endfacet
  facet normal -0.936327 -0.153485 -0.315807
    outer loop
      vertex 3.90648 -3.94012 0
      vertex 3.18124 -4.45402 2.4
      vertex 3.12519 -4.11209 2.4
    endloop
  endfacet
  facet normal -0.936323 -0.153505 -0.31581
    outer loop
      vertex 3.90648 -3.94012 0
      vertex 3.97655 -4.36752 0
      vertex 3.18124 -4.45402 2.4
    endloop
  endfacet
  facet normal -0.947431 -0.0513723 -0.31581
    outer loop
      vertex 3.97655 -4.36752 0
      vertex 3.2 -4.8 2.4
      vertex 3.18124 -4.45402 2.4
    endloop
  endfacet
  facet normal -0.947431 -0.0513717 -0.31581
    outer loop
      vertex 3.97655 -4.36752 0
      vertex 4 -4.8 0
      vertex 3.2 -4.8 2.4
    endloop
  endfacet
  facet normal -0.947431 0.0513723 -0.31581
    outer loop
      vertex 3.2 -4.8 2.4
      vertex 4 -4.8 0
      vertex 3.18124 -5.14598 2.4
    endloop
  endfacet
  facet normal -0.947431 0.0513717 -0.31581
    outer loop
      vertex 4 -4.8 0
      vertex 3.97655 -5.23248 0
      vertex 3.18124 -5.14598 2.4
    endloop
  endfacet
  facet normal -0.936326 0.153485 -0.315811
    outer loop
      vertex 3.18124 -5.14598 2.4
      vertex 3.97655 -5.23248 0
      vertex 3.12519 -5.48791 2.4
    endloop
  endfacet
  facet normal -0.936323 0.153505 -0.315808
    outer loop
      vertex 3.97655 -5.23248 0
      vertex 3.90648 -5.65988 0
      vertex 3.12519 -5.48791 2.4
    endloop
  endfacet
  facet normal -0.914234 0.253855 -0.315807
    outer loop
      vertex 3.12519 -5.48791 2.4
      vertex 3.90648 -5.65988 0
      vertex 3.03249 -5.82176 2.4
    endloop
  endfacet
  facet normal -0.914238 0.253835 -0.31581
    outer loop
      vertex 3.90648 -5.65988 0
      vertex 3.79061 -6.07721 0
      vertex 3.03249 -5.82176 2.4
    endloop
  endfacet
  facet normal -0.881436 0.351189 -0.315811
    outer loop
      vertex 3.03249 -5.82176 2.4
      vertex 3.79061 -6.07721 0
      vertex 2.90424 -6.14365 2.4
    endloop
  endfacet
  facet normal -0.881435 0.351194 -0.31581
    outer loop
      vertex 3.79061 -6.07721 0
      vertex 3.6303 -6.47956 0
      vertex 2.90424 -6.14365 2.4
    endloop
  endfacet
  facet normal -0.83829 0.444448 -0.31581
    outer loop
      vertex 2.90424 -6.14365 2.4
      vertex 3.6303 -6.47956 0
      vertex 2.74194 -6.44977 2.4
    endloop
  endfacet
  facet normal -0.838298 0.44443 -0.315813
    outer loop
      vertex 3.6303 -6.47956 0
      vertex 3.42743 -6.86222 0
      vertex 2.74194 -6.44977 2.4
    endloop
  endfacet
  facet normal -0.78534 0.53245 -0.315813
    outer loop
      vertex 2.74194 -6.44977 2.4
      vertex 3.42743 -6.86222 0
      vertex 2.5475 -6.73656 2.4
    endloop
  endfacet
  facet normal -0.785326 0.532474 -0.315809
    outer loop
      vertex 3.42743 -6.86222 0
      vertex 3.18437 -7.2207 0
      vertex 2.5475 -6.73656 2.4
    endloop
  endfacet
  facet normal -0.723145 0.614268 -0.315809
    outer loop
      vertex 2.5475 -6.73656 2.4
      vertex 3.18437 -7.2207 0
      vertex 2.32318 -7.00064 2.4
    endloop
  endfacet
  facet normal -0.723156 0.614255 -0.315811
    outer loop
      vertex 3.18437 -7.2207 0
      vertex 2.90398 -7.5508 0
      vertex 2.32318 -7.00064 2.4
    endloop
  endfacet
  facet normal -0.652517 0.688829 -0.315812
    outer loop
      vertex 2.32318 -7.00064 2.4
      vertex 2.90398 -7.5508 0
      vertex 2.07164 -7.23892 2.4
    endloop
  endfacet
  facet normal -0.652512 0.688834 -0.31581
    outer loop
      vertex 2.90398 -7.5508 0
      vertex 2.58955 -7.84865 0
      vertex 2.07164 -7.23892 2.4
    endloop
  endfacet
  facet normal -0.574189 0.755362 -0.31581
    outer loop
      vertex 2.07164 -7.23892 2.4
      vertex 2.58955 -7.84865 0
      vertex 1.7958 -7.4486 2.4
    endloop
  endfacet
  facet normal -0.574202 0.75535 -0.315813
    outer loop
      vertex 2.58955 -7.84865 0
      vertex 2.24475 -8.11076 0
      vertex 1.7958 -7.4486 2.4
    endloop
  endfacet
  facet normal -0.489183 0.812996 -0.315813
    outer loop
      vertex 1.7958 -7.4486 2.4
      vertex 2.24475 -8.11076 0
      vertex 1.49891 -7.62724 2.4
    endloop
  endfacet
  facet normal -0.48916 0.813011 -0.315809
    outer loop
      vertex 2.24475 -8.11076 0
      vertex 1.87363 -8.33405 0
      vertex 1.49891 -7.62724 2.4
    endloop
  endfacet
  facet normal -0.398402 0.861127 -0.315809
    outer loop
      vertex 1.49891 -7.62724 2.4
      vertex 1.87363 -8.33405 0
      vertex 1.18444 -7.77273 2.4
    endloop
  endfacet
  facet normal -0.398404 0.861127 -0.31581
    outer loop
      vertex 1.87363 -8.33405 0
      vertex 1.48055 -8.51591 0
      vertex 1.18444 -7.77273 2.4
    endloop
  endfacet
  facet normal -0.302952 0.899158 -0.31581
    outer loop
      vertex 1.18444 -7.77273 2.4
      vertex 1.48055 -8.51591 0
      vertex 0.856091 -7.88336 2.4
    endloop
  endfacet
  facet normal -0.302954 0.899157 -0.31581
    outer loop
      vertex 1.48055 -8.51591 0
      vertex 1.07011 -8.6542 0
      vertex 0.856091 -7.88336 2.4
    endloop
  endfacet
  facet normal -0.203956 0.926642 -0.31581
    outer loop
      vertex 0.856091 -7.88336 2.4
      vertex 1.07011 -8.6542 0
      vertex 0.517702 -7.95784 2.4
    endloop
  endfacet
  facet normal -0.203957 0.926642 -0.31581
    outer loop
      vertex 1.07011 -8.6542 0
      vertex 0.647127 -8.7473 0
      vertex 0.517702 -7.95784 2.4
    endloop
  endfacet
  facet normal -0.102607 0.943258 -0.31581
    outer loop
      vertex 0.517702 -7.95784 2.4
      vertex 0.647127 -8.7473 0
      vertex 0.173244 -7.99531 2.4
    endloop
  endfacet
  facet normal -0.102591 0.943261 -0.315808
    outer loop
      vertex 0.647127 -8.7473 0
      vertex 0.216556 -8.79413 0
      vertex 0.173244 -7.99531 2.4
    endloop
  endfacet
  facet normal 0 0.948823 -0.315808
    outer loop
      vertex 0.216556 -8.79413 0
      vertex -0.173244 -7.99531 2.4
      vertex 0.173244 -7.99531 2.4
    endloop
  endfacet
  facet normal 0 0.948823 -0.315808
    outer loop
      vertex -0.173244 -7.99531 2.4
      vertex 0.216556 -8.79413 0
      vertex -0.216555 -8.79413 0
    endloop
  endfacet
  facet normal 0.102607 0.943259 -0.315808
    outer loop
      vertex -0.173244 -7.99531 2.4
      vertex -0.216555 -8.79413 0
      vertex -0.517702 -7.95784 2.4
    endloop
  endfacet
  facet normal 0.102591 0.94326 -0.31581
    outer loop
      vertex -0.517702 -7.95784 2.4
      vertex -0.216555 -8.79413 0
      vertex -0.647127 -8.7473 0
    endloop
  endfacet
  facet normal 0.203956 0.926642 -0.31581
    outer loop
      vertex -0.517702 -7.95784 2.4
      vertex -0.647127 -8.7473 0
      vertex -0.856091 -7.88336 2.4
    endloop
  endfacet
  facet normal 0.203957 0.926642 -0.31581
    outer loop
      vertex -0.856091 -7.88336 2.4
      vertex -0.647127 -8.7473 0
      vertex -1.07011 -8.6542 0
    endloop
  endfacet
  facet normal 0.302951 0.899158 -0.31581
    outer loop
      vertex -0.856091 -7.88336 2.4
      vertex -1.07011 -8.6542 0
      vertex -1.18444 -7.77273 2.4
    endloop
  endfacet
  facet normal 0.302954 0.899157 -0.31581
    outer loop
      vertex -1.18444 -7.77273 2.4
      vertex -1.07011 -8.6542 0
      vertex -1.48055 -8.51591 0
    endloop
  endfacet
  facet normal 0.398402 0.861127 -0.31581
    outer loop
      vertex -1.18444 -7.77273 2.4
      vertex -1.48055 -8.51591 0
      vertex -1.49891 -7.62724 2.4
    endloop
  endfacet
  facet normal 0.398404 0.861127 -0.315809
    outer loop
      vertex -1.49891 -7.62724 2.4
      vertex -1.48055 -8.51591 0
      vertex -1.87363 -8.33405 0
    endloop
  endfacet
  facet normal 0.489184 0.812997 -0.315809
    outer loop
      vertex -1.7958 -7.4486 2.4
      vertex -1.49891 -7.62724 2.4
      vertex -1.87363 -8.33405 0
    endloop
  endfacet
  facet normal 0.48916 0.81301 -0.315813
    outer loop
      vertex -1.7958 -7.4486 2.4
      vertex -1.87363 -8.33405 0
      vertex -2.24475 -8.11076 0
    endloop
  endfacet
  facet normal 0.574188 0.755361 -0.315813
    outer loop
      vertex -2.07164 -7.23892 2.4
      vertex -1.7958 -7.4486 2.4
      vertex -2.24475 -8.11076 0
    endloop
  endfacet
  facet normal 0.574203 0.755351 -0.315811
    outer loop
      vertex -2.07164 -7.23892 2.4
      vertex -2.24475 -8.11076 0
      vertex -2.58955 -7.84865 0
    endloop
  endfacet
  facet normal 0.652517 0.688829 -0.31581
    outer loop
      vertex -2.32318 -7.00064 2.4
      vertex -2.07164 -7.23892 2.4
      vertex -2.58955 -7.84865 0
    endloop
  endfacet
  facet normal 0.652511 0.688834 -0.315811
    outer loop
      vertex -2.32318 -7.00064 2.4
      vertex -2.58955 -7.84865 0
      vertex -2.90398 -7.5508 0
    endloop
  endfacet
  facet normal 0.723145 0.614268 -0.315812
    outer loop
      vertex -2.5475 -6.73656 2.4
      vertex -2.32318 -7.00064 2.4
      vertex -2.90398 -7.5508 0
    endloop
  endfacet
  facet normal 0.723156 0.614255 -0.315809
    outer loop
      vertex -2.5475 -6.73656 2.4
      vertex -2.90398 -7.5508 0
      vertex -3.18437 -7.2207 0
    endloop
  endfacet
  facet normal 0.785341 0.532451 -0.315809
    outer loop
      vertex -2.74194 -6.44977 2.4
      vertex -2.5475 -6.73656 2.4
      vertex -3.18437 -7.2207 0
    endloop
  endfacet
  facet normal 0.785325 0.532473 -0.315813
    outer loop
      vertex -2.74194 -6.44977 2.4
      vertex -3.18437 -7.2207 0
      vertex -3.42743 -6.86222 0
    endloop
  endfacet
  facet normal 0.838289 0.444448 -0.315813
    outer loop
      vertex -2.90424 -6.14365 2.4
      vertex -2.74194 -6.44977 2.4
      vertex -3.42743 -6.86222 0
    endloop
  endfacet
  facet normal 0.838299 0.44443 -0.31581
    outer loop
      vertex -2.90424 -6.14365 2.4
      vertex -3.42743 -6.86222 0
      vertex -3.6303 -6.47956 0
    endloop
  endfacet
  facet normal 0.881437 0.351189 -0.31581
    outer loop
      vertex -3.03249 -5.82176 2.4
      vertex -2.90424 -6.14365 2.4
      vertex -3.6303 -6.47956 0
    endloop
  endfacet
  facet normal 0.881434 0.351194 -0.315811
    outer loop
      vertex -3.03249 -5.82176 2.4
      vertex -3.6303 -6.47956 0
      vertex -3.79061 -6.07721 0
    endloop
  endfacet
  facet normal 0.914233 0.253855 -0.315811
    outer loop
      vertex -3.12519 -5.48791 2.4
      vertex -3.03249 -5.82176 2.4
      vertex -3.79061 -6.07721 0
    endloop
  endfacet
  facet normal 0.914239 0.253835 -0.315807
    outer loop
      vertex -3.12519 -5.48791 2.4
      vertex -3.79061 -6.07721 0
      vertex -3.90648 -5.65988 0
    endloop
  endfacet
  facet normal 0.936327 0.153485 -0.315807
    outer loop
      vertex -3.18124 -5.14598 2.4
      vertex -3.12519 -5.48791 2.4
      vertex -3.90648 -5.65988 0
    endloop
  endfacet
  facet normal 0.936323 0.153505 -0.31581
    outer loop
      vertex -3.18124 -5.14598 2.4
      vertex -3.90648 -5.65988 0
      vertex -3.97655 -5.23248 0
    endloop
  endfacet
  facet normal 0.947431 0.0513723 -0.31581
    outer loop
      vertex -3.2 -4.8 2.4
      vertex -3.18124 -5.14598 2.4
      vertex -3.97655 -5.23248 0
    endloop
  endfacet
  facet normal 0.947431 0.0513717 -0.31581
    outer loop
      vertex -3.2 -4.8 2.4
      vertex -3.97655 -5.23248 0
      vertex -4 -4.8 0
    endloop
  endfacet
  facet normal 0.947431 -0.0513723 -0.31581
    outer loop
      vertex -3.18124 -4.45402 2.4
      vertex -3.2 -4.8 2.4
      vertex -4 -4.8 0
    endloop
  endfacet
  facet normal 0.947431 -0.0513717 -0.31581
    outer loop
      vertex -3.97655 -4.36752 0
      vertex -3.18124 -4.45402 2.4
      vertex -4 -4.8 0
    endloop
  endfacet
  facet normal -0.936326 -0.153485 0.315811
    outer loop
      vertex 3.18124 -4.45402 2.4
      vertex 3.97655 -4.36752 4.8
      vertex 3.12519 -4.11209 2.4
    endloop
  endfacet
  facet normal -0.936323 -0.153505 0.315808
    outer loop
      vertex 3.97655 -4.36752 4.8
      vertex 3.90648 -3.94012 4.8
      vertex 3.12519 -4.11209 2.4
    endloop
  endfacet
  facet normal -0.914234 -0.253855 0.315807
    outer loop
      vertex 3.12519 -4.11209 2.4
      vertex 3.90648 -3.94012 4.8
      vertex 3.03249 -3.77824 2.4
    endloop
  endfacet
  facet normal -0.914238 -0.253835 0.31581
    outer loop
      vertex 3.90648 -3.94012 4.8
      vertex 3.79061 -3.52279 4.8
      vertex 3.03249 -3.77824 2.4
    endloop
  endfacet
  facet normal -0.881436 -0.351189 0.315811
    outer loop
      vertex 3.03249 -3.77824 2.4
      vertex 3.79061 -3.52279 4.8
      vertex 2.90424 -3.45635 2.4
    endloop
  endfacet
  facet normal -0.881435 -0.351194 0.31581
    outer loop
      vertex 3.79061 -3.52279 4.8
      vertex 3.6303 -3.12044 4.8
      vertex 2.90424 -3.45635 2.4
    endloop
  endfacet
  facet normal -0.83829 -0.444448 0.31581
    outer loop
      vertex 2.90424 -3.45635 2.4
      vertex 3.6303 -3.12044 4.8
      vertex 2.74194 -3.15023 2.4
    endloop
  endfacet
  facet normal -0.838298 -0.44443 0.315813
    outer loop
      vertex 3.6303 -3.12044 4.8
      vertex 3.42743 -2.73778 4.8
      vertex 2.74194 -3.15023 2.4
    endloop
  endfacet
  facet normal -0.78534 -0.53245 0.315813
    outer loop
      vertex 2.74194 -3.15023 2.4
      vertex 3.42743 -2.73778 4.8
      vertex 2.5475 -2.86344 2.4
    endloop
  endfacet
  facet normal -0.785326 -0.532474 0.315809
    outer loop
      vertex 3.42743 -2.73778 4.8
      vertex 3.18437 -2.3793 4.8
      vertex 2.5475 -2.86344 2.4
    endloop
  endfacet
  facet normal -0.723145 -0.614268 0.315809
    outer loop
      vertex 2.5475 -2.86344 2.4
      vertex 3.18437 -2.3793 4.8
      vertex 2.32318 -2.59936 2.4
    endloop
  endfacet
  facet normal -0.723156 -0.614255 0.315811
    outer loop
      vertex 3.18437 -2.3793 4.8
      vertex 2.90398 -2.0492 4.8
      vertex 2.32318 -2.59936 2.4
    endloop
  endfacet
  facet normal -0.652517 -0.688829 0.315812
    outer loop
      vertex 2.32318 -2.59936 2.4
      vertex 2.90398 -2.0492 4.8
      vertex 2.07164 -2.36108 2.4
    endloop
  endfacet
  facet normal -0.652512 -0.688834 0.31581
    outer loop
      vertex 2.90398 -2.0492 4.8
      vertex 2.58955 -1.75135 4.8
      vertex 2.07164 -2.36108 2.4
    endloop
  endfacet
  facet normal -0.574189 -0.755362 0.31581
    outer loop
      vertex 2.07164 -2.36108 2.4
      vertex 2.58955 -1.75135 4.8
      vertex 1.7958 -2.1514 2.4
    endloop
  endfacet
  facet normal -0.574202 -0.75535 0.315813
    outer loop
      vertex 2.58955 -1.75135 4.8
      vertex 2.24475 -1.48924 4.8
      vertex 1.7958 -2.1514 2.4
    endloop
  endfacet
  facet normal -0.489183 -0.812996 0.315813
    outer loop
      vertex 1.7958 -2.1514 2.4
      vertex 2.24475 -1.48924 4.8
      vertex 1.49891 -1.97276 2.4
    endloop
  endfacet
  facet normal -0.48916 -0.813011 0.315809
    outer loop
      vertex 2.24475 -1.48924 4.8
      vertex 1.87363 -1.26595 4.8
      vertex 1.49891 -1.97276 2.4
    endloop
  endfacet
  facet normal -0.398379 -0.861138 0.315809
    outer loop
      vertex 1.49891 -1.97276 2.4
      vertex 1.87363 -1.26595 4.8
      vertex 1.18444 -1.82728 2.4
    endloop
  endfacet
  facet normal -0.398403 -0.861126 0.315813
    outer loop
      vertex 1.87363 -1.26595 4.8
      vertex 1.48055 -1.08409 4.8
      vertex 1.18444 -1.82728 2.4
    endloop
  endfacet
  facet normal -0.302976 -0.899148 0.315813
    outer loop
      vertex 1.18444 -1.82728 2.4
      vertex 1.48055 -1.08409 4.8
      vertex 0.856091 -1.71664 2.4
    endloop
  endfacet
  facet normal -0.302954 -0.899157 0.31581
    outer loop
      vertex 1.48055 -1.08409 4.8
      vertex 1.07011 -0.9458 4.8
      vertex 0.856091 -1.71664 2.4
    endloop
  endfacet
  facet normal -0.203982 -0.926637 0.31581
    outer loop
      vertex 0.856091 -1.71664 2.4
      vertex 1.07011 -0.9458 4.8
      vertex 0.517702 -1.64215 2.4
    endloop
  endfacet
  facet normal -0.203968 -0.92664 0.315808
    outer loop
      vertex 1.07011 -0.9458 4.8
      vertex 0.647127 -0.852695 4.8
      vertex 0.517702 -1.64215 2.4
    endloop
  endfacet
  facet normal -0.10258 -0.943262 0.315808
    outer loop
      vertex 0.517702 -1.64215 2.4
      vertex 0.647127 -0.852695 4.8
      vertex 0.173244 -1.60469 2.4
    endloop
  endfacet
  facet normal -0.102591 -0.94326 0.31581
    outer loop
      vertex 0.647127 -0.852695 4.8
      vertex 0.216556 -0.805865 4.8
      vertex 0.173244 -1.60469 2.4
    endloop
  endfacet
  facet normal 0 -0.948823 0.31581
    outer loop
      vertex -0.173244 -1.60469 2.4
      vertex 0.216556 -0.805865 4.8
      vertex -0.216555 -0.805865 4.8
    endloop
  endfacet
  facet normal 0 -0.948823 0.31581
    outer loop
      vertex 0.216556 -0.805865 4.8
      vertex -0.173244 -1.60469 2.4
      vertex 0.173244 -1.60469 2.4
    endloop
  endfacet
  facet normal 0.10258 -0.943261 0.31581
    outer loop
      vertex -0.173244 -1.60469 2.4
      vertex -0.216555 -0.805865 4.8
      vertex -0.517702 -1.64215 2.4
    endloop
  endfacet
  facet normal 0.102591 -0.94326 0.315808
    outer loop
      vertex -0.517702 -1.64215 2.4
      vertex -0.216555 -0.805865 4.8
      vertex -0.647127 -0.852695 4.8
    endloop
  endfacet
  facet normal 0.203982 -0.926637 0.315808
    outer loop
      vertex -0.517702 -1.64215 2.4
      vertex -0.647127 -0.852695 4.8
      vertex -0.856091 -1.71664 2.4
    endloop
  endfacet
  facet normal 0.203968 -0.92664 0.31581
    outer loop
      vertex -0.856091 -1.71664 2.4
      vertex -0.647127 -0.852695 4.8
      vertex -1.07011 -0.9458 4.8
    endloop
  endfacet
  facet normal 0.302976 -0.899149 0.31581
    outer loop
      vertex -0.856091 -1.71664 2.4
      vertex -1.07011 -0.9458 4.8
      vertex -1.18444 -1.82728 2.4
    endloop
  endfacet
  facet normal 0.302954 -0.899156 0.315813
    outer loop
      vertex -1.18444 -1.82728 2.4
      vertex -1.07011 -0.9458 4.8
      vertex -1.48055 -1.08409 4.8
    endloop
  endfacet
  facet normal 0.398379 -0.861137 0.315813
    outer loop
      vertex -1.18444 -1.82728 2.4
      vertex -1.48055 -1.08409 4.8
      vertex -1.49891 -1.97276 2.4
    endloop
  endfacet
  facet normal 0.398404 -0.861127 0.315809
    outer loop
      vertex -1.49891 -1.97276 2.4
      vertex -1.48055 -1.08409 4.8
      vertex -1.87363 -1.26595 4.8
    endloop
  endfacet
  facet normal 0.489184 -0.812997 0.315809
    outer loop
      vertex -1.7958 -2.1514 2.4
      vertex -1.49891 -1.97276 2.4
      vertex -1.87363 -1.26595 4.8
    endloop
  endfacet
  facet normal 0.48916 -0.81301 0.315813
    outer loop
      vertex -1.7958 -2.1514 2.4
      vertex -1.87363 -1.26595 4.8
      vertex -2.24475 -1.48924 4.8
    endloop
  endfacet
  facet normal 0.574188 -0.755361 0.315813
    outer loop
      vertex -2.07164 -2.36108 2.4
      vertex -1.7958 -2.1514 2.4
      vertex -2.24475 -1.48924 4.8
    endloop
  endfacet
  facet normal 0.574203 -0.755351 0.315811
    outer loop
      vertex -2.07164 -2.36108 2.4
      vertex -2.24475 -1.48924 4.8
      vertex -2.58955 -1.75135 4.8
    endloop
  endfacet
  facet normal 0.652517 -0.688829 0.31581
    outer loop
      vertex -2.32318 -2.59936 2.4
      vertex -2.07164 -2.36108 2.4
      vertex -2.58955 -1.75135 4.8
    endloop
  endfacet
  facet normal 0.652511 -0.688834 0.315811
    outer loop
      vertex -2.32318 -2.59936 2.4
      vertex -2.58955 -1.75135 4.8
      vertex -2.90398 -2.0492 4.8
    endloop
  endfacet
  facet normal 0.723145 -0.614268 0.315812
    outer loop
      vertex -2.5475 -2.86344 2.4
      vertex -2.32318 -2.59936 2.4
      vertex -2.90398 -2.0492 4.8
    endloop
  endfacet
  facet normal 0.723156 -0.614255 0.315809
    outer loop
      vertex -2.5475 -2.86344 2.4
      vertex -2.90398 -2.0492 4.8
      vertex -3.18437 -2.3793 4.8
    endloop
  endfacet
  facet normal 0.785341 -0.532451 0.315809
    outer loop
      vertex -2.74194 -3.15023 2.4
      vertex -2.5475 -2.86344 2.4
      vertex -3.18437 -2.3793 4.8
    endloop
  endfacet
  facet normal 0.785325 -0.532473 0.315813
    outer loop
      vertex -2.74194 -3.15023 2.4
      vertex -3.18437 -2.3793 4.8
      vertex -3.42743 -2.73778 4.8
    endloop
  endfacet
  facet normal 0.838289 -0.444448 0.315813
    outer loop
      vertex -2.90424 -3.45635 2.4
      vertex -2.74194 -3.15023 2.4
      vertex -3.42743 -2.73778 4.8
    endloop
  endfacet
  facet normal 0.838299 -0.44443 0.31581
    outer loop
      vertex -2.90424 -3.45635 2.4
      vertex -3.42743 -2.73778 4.8
      vertex -3.6303 -3.12044 4.8
    endloop
  endfacet
  facet normal 0.881437 -0.351189 0.31581
    outer loop
      vertex -3.03249 -3.77824 2.4
      vertex -2.90424 -3.45635 2.4
      vertex -3.6303 -3.12044 4.8
    endloop
  endfacet
  facet normal 0.881434 -0.351194 0.315811
    outer loop
      vertex -3.03249 -3.77824 2.4
      vertex -3.6303 -3.12044 4.8
      vertex -3.79061 -3.52279 4.8
    endloop
  endfacet
  facet normal 0.914233 -0.253855 0.315811
    outer loop
      vertex -3.12519 -4.11209 2.4
      vertex -3.03249 -3.77824 2.4
      vertex -3.79061 -3.52279 4.8
    endloop
  endfacet
  facet normal 0.914239 -0.253835 0.315807
    outer loop
      vertex -3.12519 -4.11209 2.4
      vertex -3.79061 -3.52279 4.8
      vertex -3.90648 -3.94012 4.8
    endloop
  endfacet
  facet normal 0.936327 -0.153485 0.315807
    outer loop
      vertex -3.18124 -4.45402 2.4
      vertex -3.12519 -4.11209 2.4
      vertex -3.90648 -3.94012 4.8
    endloop
  endfacet
  facet normal 0.936323 -0.153505 0.31581
    outer loop
      vertex -3.18124 -4.45402 2.4
      vertex -3.90648 -3.94012 4.8
      vertex -3.97655 -4.36752 4.8
    endloop
  endfacet
  facet normal 0.947431 -0.0513723 0.31581
    outer loop
      vertex -3.2 -4.8 2.4
      vertex -3.18124 -4.45402 2.4
      vertex -3.97655 -4.36752 4.8
    endloop
  endfacet
  facet normal 0.947431 -0.0513717 0.31581
    outer loop
      vertex -3.2 -4.8 2.4
      vertex -3.97655 -4.36752 4.8
      vertex -4 -4.8 4.8
    endloop
  endfacet
  facet normal 0.947431 0.0513723 0.31581
    outer loop
      vertex -3.18124 -5.14598 2.4
      vertex -3.2 -4.8 2.4
      vertex -4 -4.8 4.8
    endloop
  endfacet
  facet normal 0.947431 0.0513717 0.31581
    outer loop
      vertex -3.97655 -5.23248 4.8
      vertex -3.18124 -5.14598 2.4
      vertex -4 -4.8 4.8
    endloop
  endfacet
  facet normal 0.936326 0.153485 0.315811
    outer loop
      vertex -3.12519 -5.48791 2.4
      vertex -3.18124 -5.14598 2.4
      vertex -3.97655 -5.23248 4.8
    endloop
  endfacet
  facet normal 0.936323 0.153505 0.315808
    outer loop
      vertex -3.90648 -5.65988 4.8
      vertex -3.12519 -5.48791 2.4
      vertex -3.97655 -5.23248 4.8
    endloop
  endfacet
  facet normal 0.914234 0.253855 0.315807
    outer loop
      vertex -3.03249 -5.82176 2.4
      vertex -3.12519 -5.48791 2.4
      vertex -3.90648 -5.65988 4.8
    endloop
  endfacet
  facet normal 0.914238 0.253835 0.31581
    outer loop
      vertex -3.79061 -6.07721 4.8
      vertex -3.03249 -5.82176 2.4
      vertex -3.90648 -5.65988 4.8
    endloop
  endfacet
  facet normal 0.881436 0.351189 0.315811
    outer loop
      vertex -2.90424 -6.14365 2.4
      vertex -3.03249 -5.82176 2.4
      vertex -3.79061 -6.07721 4.8
    endloop
  endfacet
  facet normal 0.881435 0.351194 0.31581
    outer loop
      vertex -3.6303 -6.47956 4.8
      vertex -2.90424 -6.14365 2.4
      vertex -3.79061 -6.07721 4.8
    endloop
  endfacet
  facet normal 0.83829 0.444448 0.31581
    outer loop
      vertex -2.74194 -6.44977 2.4
      vertex -2.90424 -6.14365 2.4
      vertex -3.6303 -6.47956 4.8
    endloop
  endfacet
  facet normal 0.838298 0.44443 0.315813
    outer loop
      vertex -3.42743 -6.86222 4.8
      vertex -2.74194 -6.44977 2.4
      vertex -3.6303 -6.47956 4.8
    endloop
  endfacet
  facet normal 0.78534 0.53245 0.315813
    outer loop
      vertex -2.5475 -6.73656 2.4
      vertex -2.74194 -6.44977 2.4
      vertex -3.42743 -6.86222 4.8
    endloop
  endfacet
  facet normal 0.785326 0.532474 0.315809
    outer loop
      vertex -3.18437 -7.2207 4.8
      vertex -2.5475 -6.73656 2.4
      vertex -3.42743 -6.86222 4.8
    endloop
  endfacet
  facet normal 0.723145 0.614268 0.315809
    outer loop
      vertex -2.32318 -7.00064 2.4
      vertex -2.5475 -6.73656 2.4
      vertex -3.18437 -7.2207 4.8
    endloop
  endfacet
  facet normal 0.723156 0.614255 0.315811
    outer loop
      vertex -2.90398 -7.5508 4.8
      vertex -2.32318 -7.00064 2.4
      vertex -3.18437 -7.2207 4.8
    endloop
  endfacet
  facet normal 0.652517 0.688829 0.315812
    outer loop
      vertex -2.07164 -7.23892 2.4
      vertex -2.32318 -7.00064 2.4
      vertex -2.90398 -7.5508 4.8
    endloop
  endfacet
  facet normal 0.652512 0.688834 0.31581
    outer loop
      vertex -2.58955 -7.84865 4.8
      vertex -2.07164 -7.23892 2.4
      vertex -2.90398 -7.5508 4.8
    endloop
  endfacet
  facet normal 0.574189 0.755362 0.31581
    outer loop
      vertex -1.7958 -7.4486 2.4
      vertex -2.07164 -7.23892 2.4
      vertex -2.58955 -7.84865 4.8
    endloop
  endfacet
  facet normal 0.574202 0.75535 0.315813
    outer loop
      vertex -2.24475 -8.11076 4.8
      vertex -1.7958 -7.4486 2.4
      vertex -2.58955 -7.84865 4.8
    endloop
  endfacet
  facet normal 0.489183 0.812996 0.315813
    outer loop
      vertex -1.49891 -7.62724 2.4
      vertex -1.7958 -7.4486 2.4
      vertex -2.24475 -8.11076 4.8
    endloop
  endfacet
  facet normal 0.48916 0.813011 0.315809
    outer loop
      vertex -1.87363 -8.33405 4.8
      vertex -1.49891 -7.62724 2.4
      vertex -2.24475 -8.11076 4.8
    endloop
  endfacet
  facet normal 0.398402 0.861127 0.315809
    outer loop
      vertex -1.18444 -7.77273 2.4
      vertex -1.49891 -7.62724 2.4
      vertex -1.87363 -8.33405 4.8
    endloop
  endfacet
  facet normal 0.398404 0.861127 0.31581
    outer loop
      vertex -1.48055 -8.51591 4.8
      vertex -1.18444 -7.77273 2.4
      vertex -1.87363 -8.33405 4.8
    endloop
  endfacet
  facet normal 0.302952 0.899158 0.31581
    outer loop
      vertex -0.856091 -7.88336 2.4
      vertex -1.18444 -7.77273 2.4
      vertex -1.48055 -8.51591 4.8
    endloop
  endfacet
  facet normal 0.302954 0.899157 0.31581
    outer loop
      vertex -1.07011 -8.6542 4.8
      vertex -0.856091 -7.88336 2.4
      vertex -1.48055 -8.51591 4.8
    endloop
  endfacet
  facet normal 0.203956 0.926642 0.31581
    outer loop
      vertex -0.517702 -7.95784 2.4
      vertex -0.856091 -7.88336 2.4
      vertex -1.07011 -8.6542 4.8
    endloop
  endfacet
  facet normal 0.203957 0.926642 0.31581
    outer loop
      vertex -0.647127 -8.7473 4.8
      vertex -0.517702 -7.95784 2.4
      vertex -1.07011 -8.6542 4.8
    endloop
  endfacet
  facet normal 0.102607 0.943258 0.31581
    outer loop
      vertex -0.173244 -7.99531 2.4
      vertex -0.517702 -7.95784 2.4
      vertex -0.647127 -8.7473 4.8
    endloop
  endfacet
  facet normal 0.102591 0.943261 0.315808
    outer loop
      vertex -0.216555 -8.79413 4.8
      vertex -0.173244 -7.99531 2.4
      vertex -0.647127 -8.7473 4.8
    endloop
  endfacet
  facet normal 0 0.948823 0.315808
    outer loop
      vertex 0.173244 -7.99531 2.4
      vertex -0.216555 -8.79413 4.8
      vertex 0.216556 -8.79413 4.8
    endloop
  endfacet
  facet normal 0 0.948823 0.315808
    outer loop
      vertex -0.216555 -8.79413 4.8
      vertex 0.173244 -7.99531 2.4
      vertex -0.173244 -7.99531 2.4
    endloop
  endfacet
  facet normal -0.102607 0.943259 0.315808
    outer loop
      vertex 0.216556 -8.79413 4.8
      vertex 0.517702 -7.95784 2.4
      vertex 0.173244 -7.99531 2.4
    endloop
  endfacet
  facet normal -0.102591 0.94326 0.31581
    outer loop
      vertex 0.647127 -8.7473 4.8
      vertex 0.517702 -7.95784 2.4
      vertex 0.216556 -8.79413 4.8
    endloop
  endfacet
  facet normal -0.203956 0.926642 0.31581
    outer loop
      vertex 0.647127 -8.7473 4.8
      vertex 0.856091 -7.88336 2.4
      vertex 0.517702 -7.95784 2.4
    endloop
  endfacet
  facet normal -0.203957 0.926642 0.31581
    outer loop
      vertex 1.07011 -8.6542 4.8
      vertex 0.856091 -7.88336 2.4
      vertex 0.647127 -8.7473 4.8
    endloop
  endfacet
  facet normal -0.302951 0.899158 0.31581
    outer loop
      vertex 1.07011 -8.6542 4.8
      vertex 1.18444 -7.77273 2.4
      vertex 0.856091 -7.88336 2.4
    endloop
  endfacet
  facet normal -0.302954 0.899157 0.31581
    outer loop
      vertex 1.48055 -8.51591 4.8
      vertex 1.18444 -7.77273 2.4
      vertex 1.07011 -8.6542 4.8
    endloop
  endfacet
  facet normal -0.398402 0.861127 0.31581
    outer loop
      vertex 1.48055 -8.51591 4.8
      vertex 1.49891 -7.62724 2.4
      vertex 1.18444 -7.77273 2.4
    endloop
  endfacet
  facet normal -0.398404 0.861127 0.315809
    outer loop
      vertex 1.87363 -8.33405 4.8
      vertex 1.49891 -7.62724 2.4
      vertex 1.48055 -8.51591 4.8
    endloop
  endfacet
  facet normal -0.489184 0.812997 0.315809
    outer loop
      vertex 1.87363 -8.33405 4.8
      vertex 1.7958 -7.4486 2.4
      vertex 1.49891 -7.62724 2.4
    endloop
  endfacet
  facet normal -0.48916 0.81301 0.315813
    outer loop
      vertex 1.87363 -8.33405 4.8
      vertex 2.24475 -8.11076 4.8
      vertex 1.7958 -7.4486 2.4
    endloop
  endfacet
  facet normal -0.574188 0.755361 0.315813
    outer loop
      vertex 2.24475 -8.11076 4.8
      vertex 2.07164 -7.23892 2.4
      vertex 1.7958 -7.4486 2.4
    endloop
  endfacet
  facet normal -0.574203 0.755351 0.315811
    outer loop
      vertex 2.24475 -8.11076 4.8
      vertex 2.58955 -7.84865 4.8
      vertex 2.07164 -7.23892 2.4
    endloop
  endfacet
  facet normal -0.652517 0.688829 0.31581
    outer loop
      vertex 2.58955 -7.84865 4.8
      vertex 2.32318 -7.00064 2.4
      vertex 2.07164 -7.23892 2.4
    endloop
  endfacet
  facet normal -0.652511 0.688834 0.315811
    outer loop
      vertex 2.58955 -7.84865 4.8
      vertex 2.90398 -7.5508 4.8
      vertex 2.32318 -7.00064 2.4
    endloop
  endfacet
  facet normal -0.723145 0.614268 0.315812
    outer loop
      vertex 2.90398 -7.5508 4.8
      vertex 2.5475 -6.73656 2.4
      vertex 2.32318 -7.00064 2.4
    endloop
  endfacet
  facet normal -0.723156 0.614255 0.315809
    outer loop
      vertex 2.90398 -7.5508 4.8
      vertex 3.18437 -7.2207 4.8
      vertex 2.5475 -6.73656 2.4
    endloop
  endfacet
  facet normal -0.785341 0.532451 0.315809
    outer loop
      vertex 3.18437 -7.2207 4.8
      vertex 2.74194 -6.44977 2.4
      vertex 2.5475 -6.73656 2.4
    endloop
  endfacet
  facet normal -0.785325 0.532473 0.315813
    outer loop
      vertex 3.18437 -7.2207 4.8
      vertex 3.42743 -6.86222 4.8
      vertex 2.74194 -6.44977 2.4
    endloop
  endfacet
  facet normal -0.838289 0.444448 0.315813
    outer loop
      vertex 3.42743 -6.86222 4.8
      vertex 2.90424 -6.14365 2.4
      vertex 2.74194 -6.44977 2.4
    endloop
  endfacet
  facet normal -0.838299 0.44443 0.31581
    outer loop
      vertex 3.42743 -6.86222 4.8
      vertex 3.6303 -6.47956 4.8
      vertex 2.90424 -6.14365 2.4
    endloop
  endfacet
  facet normal -0.881437 0.351189 0.31581
    outer loop
      vertex 3.6303 -6.47956 4.8
      vertex 3.03249 -5.82176 2.4
      vertex 2.90424 -6.14365 2.4
    endloop
  endfacet
  facet normal -0.881434 0.351194 0.315811
    outer loop
      vertex 3.6303 -6.47956 4.8
      vertex 3.79061 -6.07721 4.8
      vertex 3.03249 -5.82176 2.4
    endloop
  endfacet
  facet normal -0.914233 0.253855 0.315811
    outer loop
      vertex 3.79061 -6.07721 4.8
      vertex 3.12519 -5.48791 2.4
      vertex 3.03249 -5.82176 2.4
    endloop
  endfacet
  facet normal -0.914239 0.253835 0.315807
    outer loop
      vertex 3.79061 -6.07721 4.8
      vertex 3.90648 -5.65988 4.8
      vertex 3.12519 -5.48791 2.4
    endloop
  endfacet
  facet normal -0.936327 0.153485 0.315807
    outer loop
      vertex 3.90648 -5.65988 4.8
      vertex 3.18124 -5.14598 2.4
      vertex 3.12519 -5.48791 2.4
    endloop
  endfacet
  facet normal -0.936323 0.153505 0.31581
    outer loop
      vertex 3.90648 -5.65988 4.8
      vertex 3.97655 -5.23248 4.8
      vertex 3.18124 -5.14598 2.4
    endloop
  endfacet
  facet normal -0.947431 0.0513723 0.31581
    outer loop
      vertex 3.97655 -5.23248 4.8
      vertex 3.2 -4.8 2.4
      vertex 3.18124 -5.14598 2.4
    endloop
  endfacet
  facet normal -0.947431 0.0513717 0.31581
    outer loop
      vertex 3.97655 -5.23248 4.8
      vertex 4 -4.8 4.8
      vertex 3.2 -4.8 2.4
    endloop
  endfacet
  facet normal -0.947431 -0.0513723 0.31581
    outer loop
      vertex 3.2 -4.8 2.4
      vertex 4 -4.8 4.8
      vertex 3.18124 -4.45402 2.4
    endloop
  endfacet
  facet normal -0.947431 -0.0513717 0.31581
    outer loop
      vertex 4 -4.8 4.8
      vertex 3.97655 -4.36752 4.8
      vertex 3.18124 -4.45402 2.4
    endloop
  endfacet
  facet normal 1 -0 0
    outer loop
      vertex 4.8 -9.6 4.8
      vertex 4.8 0 0
      vertex 4.8 0 4.8
    endloop
  endfacet
  facet normal 1 0 0
    outer loop
      vertex 4.8 0 0
      vertex 4.8 -9.6 4.8
      vertex 4.8 -9.6 0
    endloop
  endfacet
endsolid OpenSCAD_Model
