solid OpenSCAD_Model
  facet normal -0.743138 0.669138 0
    outer loop
      vertex -5.66312 46.6145 0
      vertex -4.68391 47.702 2
      vertex -4.68391 47.702 0
    endloop
  endfacet
  facet normal -0.743138 0.669138 0
    outer loop
      vertex -4.68391 47.702 2
      vertex -5.66312 46.6145 0
      vertex -5.66312 46.6145 2
    endloop
  endfacet
  facet normal 0.951059 0.309009 0
    outer loop
      vertex 6.84703 43.9554 2
      vertex 6.39482 45.3472 0
      vertex 6.39482 45.3472 2
    endloop
  endfacet
  facet normal 0.951059 0.309009 0
    outer loop
      vertex 6.39482 45.3472 0
      vertex 6.84703 43.9554 2
      vertex 6.84703 43.9554 0
    endloop
  endfacet
  facet normal 0.994522 0.104529 0
    outer loop
      vertex 7 42.5 2
      vertex 6.84703 43.9554 0
      vertex 6.84703 43.9554 2
    endloop
  endfacet
  facet normal 0.994522 0.104529 0
    outer loop
      vertex 6.84703 43.9554 0
      vertex 7 42.5 2
      vertex 7 42.5 0
    endloop
  endfacet
  facet normal 0.866018 0.500012 0
    outer loop
      vertex 6.39482 45.3472 2
      vertex 5.66312 46.6145 0
      vertex 5.66312 46.6145 2
    endloop
  endfacet
  facet normal 0.866018 0.500012 0
    outer loop
      vertex 5.66312 46.6145 0
      vertex 6.39482 45.3472 2
      vertex 6.39482 45.3472 0
    endloop
  endfacet
  facet normal 0.951059 -0.309009 0
    outer loop
      vertex 6.39482 39.6528 2
      vertex 6.84703 41.0446 0
      vertex 6.84703 41.0446 2
    endloop
  endfacet
  facet normal 0.951059 -0.309009 0
    outer loop
      vertex 6.84703 41.0446 0
      vertex 6.39482 39.6528 2
      vertex 6.39482 39.6528 0
    endloop
  endfacet
  facet normal -0.866018 -0.500012 0
    outer loop
      vertex -5.66312 38.3855 0
      vertex -6.39482 39.6528 2
      vertex -6.39482 39.6528 0
    endloop
  endfacet
  facet normal -0.866018 -0.500012 0
    outer loop
      vertex -6.39482 39.6528 2
      vertex -5.66312 38.3855 0
      vertex -5.66312 38.3855 2
    endloop
  endfacet
  facet normal 0.994522 -0.104529 0
    outer loop
      vertex 6.84703 41.0446 2
      vertex 7 42.5 0
      vertex 7 42.5 2
    endloop
  endfacet
  facet normal 0.994522 -0.104529 0
    outer loop
      vertex 7 42.5 0
      vertex 6.84703 41.0446 2
      vertex 6.84703 41.0446 0
    endloop
  endfacet
  facet normal -0.587803 0.809004 0
    outer loop
      vertex -3.5 48.5622 0
      vertex -4.68391 47.702 2
      vertex -3.5 48.5622 2
    endloop
  endfacet
  facet normal -0.587803 0.809004 0
    outer loop
      vertex -4.68391 47.702 2
      vertex -3.5 48.5622 0
      vertex -4.68391 47.702 0
    endloop
  endfacet
  facet normal 0.743138 0.669138 0
    outer loop
      vertex 5.66312 46.6145 2
      vertex 4.68391 47.702 0
      vertex 4.68391 47.702 2
    endloop
  endfacet
  facet normal 0.743138 0.669138 0
    outer loop
      vertex 4.68391 47.702 0
      vertex 5.66312 46.6145 2
      vertex 5.66312 46.6145 0
    endloop
  endfacet
  facet normal 0.406727 0.91355 -0
    outer loop
      vertex 3.5 48.5622 0
      vertex 2.16312 49.1574 2
      vertex 3.5 48.5622 2
    endloop
  endfacet
  facet normal 0.406727 0.91355 0
    outer loop
      vertex 2.16312 49.1574 2
      vertex 3.5 48.5622 0
      vertex 2.16312 49.1574 0
    endloop
  endfacet
  facet normal 0 1 -0
    outer loop
      vertex 0.731699 49.4617 0
      vertex -0.731699 49.4617 2
      vertex 0.731699 49.4617 2
    endloop
  endfacet
  facet normal 0 1 0
    outer loop
      vertex -0.731699 49.4617 2
      vertex 0.731699 49.4617 0
      vertex -0.731699 49.4617 0
    endloop
  endfacet
  facet normal 0.743138 -0.669138 0
    outer loop
      vertex 4.68391 37.298 2
      vertex 5.66312 38.3855 0
      vertex 5.66312 38.3855 2
    endloop
  endfacet
  facet normal 0.743138 -0.669138 0
    outer loop
      vertex 5.66312 38.3855 0
      vertex 4.68391 37.298 2
      vertex 4.68391 37.298 0
    endloop
  endfacet
  facet normal -0.207939 -0.978142 0
    outer loop
      vertex -2.16312 35.8426 0
      vertex -0.731699 35.5383 2
      vertex -2.16312 35.8426 2
    endloop
  endfacet
  facet normal -0.207939 -0.978142 -0
    outer loop
      vertex -0.731699 35.5383 2
      vertex -2.16312 35.8426 0
      vertex -0.731699 35.5383 0
    endloop
  endfacet
  facet normal 0.866018 -0.500012 0
    outer loop
      vertex 5.66312 38.3855 2
      vertex 6.39482 39.6528 0
      vertex 6.39482 39.6528 2
    endloop
  endfacet
  facet normal 0.866018 -0.500012 0
    outer loop
      vertex 6.39482 39.6528 0
      vertex 5.66312 38.3855 2
      vertex 5.66312 38.3855 0
    endloop
  endfacet
  facet normal -0.406727 -0.91355 0
    outer loop
      vertex -3.5 36.4378 0
      vertex -2.16312 35.8426 2
      vertex -3.5 36.4378 2
    endloop
  endfacet
  facet normal -0.406727 -0.91355 -0
    outer loop
      vertex -2.16312 35.8426 2
      vertex -3.5 36.4378 0
      vertex -2.16312 35.8426 0
    endloop
  endfacet
  facet normal -0.406727 0.91355 0
    outer loop
      vertex -2.16312 49.1574 0
      vertex -3.5 48.5622 2
      vertex -2.16312 49.1574 2
    endloop
  endfacet
  facet normal -0.406727 0.91355 0
    outer loop
      vertex -3.5 48.5622 2
      vertex -2.16312 49.1574 0
      vertex -3.5 48.5622 0
    endloop
  endfacet
  facet normal -0.951059 0.309009 0
    outer loop
      vertex -6.84703 43.9554 0
      vertex -6.39482 45.3472 2
      vertex -6.39482 45.3472 0
    endloop
  endfacet
  facet normal -0.951059 0.309009 0
    outer loop
      vertex -6.39482 45.3472 2
      vertex -6.84703 43.9554 0
      vertex -6.84703 43.9554 2
    endloop
  endfacet
  facet normal 0.207939 -0.978142 0
    outer loop
      vertex 0.731699 35.5383 0
      vertex 2.16312 35.8426 2
      vertex 0.731699 35.5383 2
    endloop
  endfacet
  facet normal 0.207939 -0.978142 0
    outer loop
      vertex 2.16312 35.8426 2
      vertex 0.731699 35.5383 0
      vertex 2.16312 35.8426 0
    endloop
  endfacet
  facet normal 0.207939 0.978142 -0
    outer loop
      vertex 2.16312 49.1574 0
      vertex 0.731699 49.4617 2
      vertex 2.16312 49.1574 2
    endloop
  endfacet
  facet normal 0.207939 0.978142 0
    outer loop
      vertex 0.731699 49.4617 2
      vertex 2.16312 49.1574 0
      vertex 0.731699 49.4617 0
    endloop
  endfacet
  facet normal 0.406727 -0.91355 0
    outer loop
      vertex 2.16312 35.8426 0
      vertex 3.5 36.4378 2
      vertex 2.16312 35.8426 2
    endloop
  endfacet
  facet normal 0.406727 -0.91355 0
    outer loop
      vertex 3.5 36.4378 2
      vertex 2.16312 35.8426 0
      vertex 3.5 36.4378 0
    endloop
  endfacet
  facet normal -0.951059 -0.309009 0
    outer loop
      vertex -6.39482 39.6528 0
      vertex -6.84703 41.0446 2
      vertex -6.84703 41.0446 0
    endloop
  endfacet
  facet normal -0.951059 -0.309009 0
    outer loop
      vertex -6.84703 41.0446 2
      vertex -6.39482 39.6528 0
      vertex -6.39482 39.6528 2
    endloop
  endfacet
  facet normal -0.994522 0.104529 0
    outer loop
      vertex -7 42.5 0
      vertex -6.84703 43.9554 2
      vertex -6.84703 43.9554 0
    endloop
  endfacet
  facet normal -0.994522 0.104529 0
    outer loop
      vertex -6.84703 43.9554 2
      vertex -7 42.5 0
      vertex -7 42.5 2
    endloop
  endfacet
  facet normal -0.207939 0.978142 0
    outer loop
      vertex -0.731699 49.4617 0
      vertex -2.16312 49.1574 2
      vertex -0.731699 49.4617 2
    endloop
  endfacet
  facet normal -0.207939 0.978142 0
    outer loop
      vertex -2.16312 49.1574 2
      vertex -0.731699 49.4617 0
      vertex -2.16312 49.1574 0
    endloop
  endfacet
  facet normal 0.587803 0.809004 -0
    outer loop
      vertex 4.68391 47.702 0
      vertex 3.5 48.5622 2
      vertex 4.68391 47.702 2
    endloop
  endfacet
  facet normal 0.587803 0.809004 0
    outer loop
      vertex 3.5 48.5622 2
      vertex 4.68391 47.702 0
      vertex 3.5 48.5622 0
    endloop
  endfacet
  facet normal 0 0 1
    outer loop
      vertex 3.6 42.5 2
      vertex 7 42.5 2
      vertex 6.84703 43.9554 2
    endloop
  endfacet
  facet normal 0 0 1
    outer loop
      vertex 3.52133 43.2485 2
      vertex 6.84703 43.9554 2
      vertex 6.39482 45.3472 2
    endloop
  endfacet
  facet normal 0 0 1
    outer loop
      vertex 7 42.5 2
      vertex 3.6 42.5 2
      vertex 6.84703 41.0446 2
    endloop
  endfacet
  facet normal 0 0 1
    outer loop
      vertex 3.28876 43.9643 2
      vertex 6.39482 45.3472 2
      vertex 5.66312 46.6145 2
    endloop
  endfacet
  facet normal -0 0 1
    outer loop
      vertex 3.52133 41.7515 2
      vertex 6.84703 41.0446 2
      vertex 3.6 42.5 2
    endloop
  endfacet
  facet normal 0 0 1
    outer loop
      vertex 2.91246 44.616 2
      vertex 5.66312 46.6145 2
      vertex 4.68391 47.702 2
    endloop
  endfacet
  facet normal 0 0 1
    outer loop
      vertex 6.84703 41.0446 2
      vertex 3.52133 41.7515 2
      vertex 6.39482 39.6528 2
    endloop
  endfacet
  facet normal -0 0 1
    outer loop
      vertex 3.28876 41.0357 2
      vertex 6.39482 39.6528 2
      vertex 3.52133 41.7515 2
    endloop
  endfacet
  facet normal 0 0 1
    outer loop
      vertex 6.84703 43.9554 2
      vertex 3.52133 43.2485 2
      vertex 3.6 42.5 2
    endloop
  endfacet
  facet normal 0 0 1
    outer loop
      vertex 2.40887 45.1753 2
      vertex 4.68391 47.702 2
      vertex 3.5 48.5622 2
    endloop
  endfacet
  facet normal 0 0 1
    outer loop
      vertex 6.39482 45.3472 2
      vertex 3.28876 43.9643 2
      vertex 3.52133 43.2485 2
    endloop
  endfacet
  facet normal 0 0 1
    outer loop
      vertex 5.66312 46.6145 2
      vertex 2.91246 44.616 2
      vertex 3.28876 43.9643 2
    endloop
  endfacet
  facet normal 0 0 1
    outer loop
      vertex 4.68391 47.702 2
      vertex 2.40887 45.1753 2
      vertex 2.91246 44.616 2
    endloop
  endfacet
  facet normal 0 0 1
    outer loop
      vertex 1.8 45.6177 2
      vertex 3.5 48.5622 2
      vertex 2.16312 49.1574 2
    endloop
  endfacet
  facet normal 0 0 1
    outer loop
      vertex 3.5 48.5622 2
      vertex 1.8 45.6177 2
      vertex 2.40887 45.1753 2
    endloop
  endfacet
  facet normal 0 0 1
    outer loop
      vertex 2.16312 49.1574 2
      vertex 1.11246 45.9238 2
      vertex 1.8 45.6177 2
    endloop
  endfacet
  facet normal 0 0 1
    outer loop
      vertex 0.731699 49.4617 2
      vertex 1.11246 45.9238 2
      vertex 2.16312 49.1574 2
    endloop
  endfacet
  facet normal 0 0 1
    outer loop
      vertex 0.731699 49.4617 2
      vertex 0.376302 46.0803 2
      vertex 1.11246 45.9238 2
    endloop
  endfacet
  facet normal 0 0 1
    outer loop
      vertex 0.731699 49.4617 2
      vertex -0.376302 46.0803 2
      vertex 0.376302 46.0803 2
    endloop
  endfacet
  facet normal -0 0 1
    outer loop
      vertex -0.731699 49.4617 2
      vertex -0.376302 46.0803 2
      vertex 0.731699 49.4617 2
    endloop
  endfacet
  facet normal 0 0 1
    outer loop
      vertex -0.731699 49.4617 2
      vertex -1.11246 45.9238 2
      vertex -0.376302 46.0803 2
    endloop
  endfacet
  facet normal -0 0 1
    outer loop
      vertex -2.16312 49.1574 2
      vertex -1.11246 45.9238 2
      vertex -0.731699 49.4617 2
    endloop
  endfacet
  facet normal 0 0 1
    outer loop
      vertex -1.11246 45.9238 2
      vertex -2.16312 49.1574 2
      vertex -1.8 45.6177 2
    endloop
  endfacet
  facet normal -0 0 1
    outer loop
      vertex -3.5 48.5622 2
      vertex -1.8 45.6177 2
      vertex -2.16312 49.1574 2
    endloop
  endfacet
  facet normal 0 0 1
    outer loop
      vertex -1.8 45.6177 2
      vertex -3.5 48.5622 2
      vertex -2.40887 45.1753 2
    endloop
  endfacet
  facet normal -0 0 1
    outer loop
      vertex -4.68391 47.702 2
      vertex -2.40887 45.1753 2
      vertex -3.5 48.5622 2
    endloop
  endfacet
  facet normal 0 0 1
    outer loop
      vertex -2.40887 45.1753 2
      vertex -4.68391 47.702 2
      vertex -2.91246 44.616 2
    endloop
  endfacet
  facet normal -0 0 1
    outer loop
      vertex -5.66312 46.6145 2
      vertex -2.91246 44.616 2
      vertex -4.68391 47.702 2
    endloop
  endfacet
  facet normal 0 0 1
    outer loop
      vertex -2.91246 44.616 2
      vertex -5.66312 46.6145 2
      vertex -3.28876 43.9643 2
    endloop
  endfacet
  facet normal -0 0 1
    outer loop
      vertex -6.39482 45.3472 2
      vertex -3.28876 43.9643 2
      vertex -5.66312 46.6145 2
    endloop
  endfacet
  facet normal 0 0 1
    outer loop
      vertex 6.39482 39.6528 2
      vertex 3.28876 41.0357 2
      vertex 5.66312 38.3855 2
    endloop
  endfacet
  facet normal -0 0 1
    outer loop
      vertex 2.91246 40.384 2
      vertex 5.66312 38.3855 2
      vertex 3.28876 41.0357 2
    endloop
  endfacet
  facet normal 0 0 1
    outer loop
      vertex 5.66312 38.3855 2
      vertex 2.91246 40.384 2
      vertex 4.68391 37.298 2
    endloop
  endfacet
  facet normal -0 0 1
    outer loop
      vertex 2.40887 39.8247 2
      vertex 4.68391 37.298 2
      vertex 2.91246 40.384 2
    endloop
  endfacet
  facet normal 0 0 1
    outer loop
      vertex 4.68391 37.298 2
      vertex 2.40887 39.8247 2
      vertex 3.5 36.4378 2
    endloop
  endfacet
  facet normal -0 0 1
    outer loop
      vertex 1.8 39.3823 2
      vertex 3.5 36.4378 2
      vertex 2.40887 39.8247 2
    endloop
  endfacet
  facet normal 0 0 1
    outer loop
      vertex 3.5 36.4378 2
      vertex 1.8 39.3823 2
      vertex 2.16312 35.8426 2
    endloop
  endfacet
  facet normal -0 0 1
    outer loop
      vertex 1.11246 39.0762 2
      vertex 2.16312 35.8426 2
      vertex 1.8 39.3823 2
    endloop
  endfacet
  facet normal 0 0 1
    outer loop
      vertex 1.11246 39.0762 2
      vertex 0.731699 35.5383 2
      vertex 2.16312 35.8426 2
    endloop
  endfacet
  facet normal -0 0 1
    outer loop
      vertex 0.376302 38.9197 2
      vertex 0.731699 35.5383 2
      vertex 1.11246 39.0762 2
    endloop
  endfacet
  facet normal -0 0 1
    outer loop
      vertex -0.376302 38.9197 2
      vertex 0.731699 35.5383 2
      vertex 0.376302 38.9197 2
    endloop
  endfacet
  facet normal 0 0 1
    outer loop
      vertex -0.376302 38.9197 2
      vertex -0.731699 35.5383 2
      vertex 0.731699 35.5383 2
    endloop
  endfacet
  facet normal 0 0 1
    outer loop
      vertex -1.11246 39.0762 2
      vertex -0.731699 35.5383 2
      vertex -0.376302 38.9197 2
    endloop
  endfacet
  facet normal 0 0 1
    outer loop
      vertex -2.16312 35.8426 2
      vertex -1.11246 39.0762 2
      vertex -1.8 39.3823 2
    endloop
  endfacet
  facet normal 0 0 1
    outer loop
      vertex -1.11246 39.0762 2
      vertex -2.16312 35.8426 2
      vertex -0.731699 35.5383 2
    endloop
  endfacet
  facet normal 0 0 1
    outer loop
      vertex -3.5 36.4378 2
      vertex -1.8 39.3823 2
      vertex -2.40887 39.8247 2
    endloop
  endfacet
  facet normal 0 0 1
    outer loop
      vertex -4.68391 37.298 2
      vertex -2.40887 39.8247 2
      vertex -2.91246 40.384 2
    endloop
  endfacet
  facet normal 0 0 1
    outer loop
      vertex -5.66312 38.3855 2
      vertex -2.91246 40.384 2
      vertex -3.28876 41.0357 2
    endloop
  endfacet
  facet normal 0 0 1
    outer loop
      vertex -1.8 39.3823 2
      vertex -3.5 36.4378 2
      vertex -2.16312 35.8426 2
    endloop
  endfacet
  facet normal 0 0 1
    outer loop
      vertex -6.39482 39.6528 2
      vertex -3.28876 41.0357 2
      vertex -3.52133 41.7515 2
    endloop
  endfacet
  facet normal 0 0 1
    outer loop
      vertex -6.84703 41.0446 2
      vertex -3.52133 41.7515 2
      vertex -3.6 42.5 2
    endloop
  endfacet
  facet normal 0 0 1
    outer loop
      vertex -3.28876 43.9643 2
      vertex -6.39482 45.3472 2
      vertex -3.52133 43.2485 2
    endloop
  endfacet
  facet normal 0 0 1
    outer loop
      vertex -2.40887 39.8247 2
      vertex -4.68391 37.298 2
      vertex -3.5 36.4378 2
    endloop
  endfacet
  facet normal -0 0 1
    outer loop
      vertex -6.84703 43.9554 2
      vertex -3.52133 43.2485 2
      vertex -6.39482 45.3472 2
    endloop
  endfacet
  facet normal 0 0 1
    outer loop
      vertex -2.91246 40.384 2
      vertex -5.66312 38.3855 2
      vertex -4.68391 37.298 2
    endloop
  endfacet
  facet normal 0 0 1
    outer loop
      vertex -3.52133 43.2485 2
      vertex -6.84703 43.9554 2
      vertex -3.6 42.5 2
    endloop
  endfacet
  facet normal 0 0 1
    outer loop
      vertex -3.28876 41.0357 2
      vertex -6.39482 39.6528 2
      vertex -5.66312 38.3855 2
    endloop
  endfacet
  facet normal 0 0 1
    outer loop
      vertex -7 42.5 2
      vertex -3.6 42.5 2
      vertex -6.84703 43.9554 2
    endloop
  endfacet
  facet normal 0 0 1
    outer loop
      vertex -3.52133 41.7515 2
      vertex -6.84703 41.0446 2
      vertex -6.39482 39.6528 2
    endloop
  endfacet
  facet normal 0 0 1
    outer loop
      vertex -3.6 42.5 2
      vertex -7 42.5 2
      vertex -6.84703 41.0446 2
    endloop
  endfacet
  facet normal 0.587803 -0.809004 0
    outer loop
      vertex 3.5 36.4378 0
      vertex 4.68391 37.298 2
      vertex 3.5 36.4378 2
    endloop
  endfacet
  facet normal 0.587803 -0.809004 0
    outer loop
      vertex 4.68391 37.298 2
      vertex 3.5 36.4378 0
      vertex 4.68391 37.298 0
    endloop
  endfacet
  facet normal -0.994522 -0.104529 0
    outer loop
      vertex -6.84703 41.0446 0
      vertex -7 42.5 2
      vertex -7 42.5 0
    endloop
  endfacet
  facet normal -0.994522 -0.104529 0
    outer loop
      vertex -7 42.5 2
      vertex -6.84703 41.0446 0
      vertex -6.84703 41.0446 2
    endloop
  endfacet
  facet normal 0 -1 0
    outer loop
      vertex -0.731699 35.5383 0
      vertex 0.731699 35.5383 2
      vertex -0.731699 35.5383 2
    endloop
  endfacet
  facet normal 0 -1 -0
    outer loop
      vertex 0.731699 35.5383 2
      vertex -0.731699 35.5383 0
      vertex 0.731699 35.5383 0
    endloop
  endfacet
  facet normal 0 0 -1
    outer loop
      vertex 3.6 42.5 0
      vertex 7 42.5 0
      vertex 6.84703 41.0446 0
    endloop
  endfacet
  facet normal 0 0 -1
    outer loop
      vertex 3.52133 41.7515 0
      vertex 6.84703 41.0446 0
      vertex 6.39482 39.6528 0
    endloop
  endfacet
  facet normal 0 0 -1
    outer loop
      vertex 7 42.5 0
      vertex 3.6 42.5 0
      vertex 6.84703 43.9554 0
    endloop
  endfacet
  facet normal 0 0 -1
    outer loop
      vertex 3.28876 41.0357 0
      vertex 6.39482 39.6528 0
      vertex 5.66312 38.3855 0
    endloop
  endfacet
  facet normal 0 0 -1
    outer loop
      vertex 3.52133 43.2485 0
      vertex 6.84703 43.9554 0
      vertex 3.6 42.5 0
    endloop
  endfacet
  facet normal 0 0 -1
    outer loop
      vertex 2.91246 40.384 0
      vertex 5.66312 38.3855 0
      vertex 4.68391 37.298 0
    endloop
  endfacet
  facet normal -0 0 -1
    outer loop
      vertex 6.84703 43.9554 0
      vertex 3.52133 43.2485 0
      vertex 6.39482 45.3472 0
    endloop
  endfacet
  facet normal 0 0 -1
    outer loop
      vertex 3.28876 43.9643 0
      vertex 6.39482 45.3472 0
      vertex 3.52133 43.2485 0
    endloop
  endfacet
  facet normal 0 0 -1
    outer loop
      vertex 6.84703 41.0446 0
      vertex 3.52133 41.7515 0
      vertex 3.6 42.5 0
    endloop
  endfacet
  facet normal 0 0 -1
    outer loop
      vertex 2.40887 39.8247 0
      vertex 4.68391 37.298 0
      vertex 3.5 36.4378 0
    endloop
  endfacet
  facet normal 0 0 -1
    outer loop
      vertex 6.39482 39.6528 0
      vertex 3.28876 41.0357 0
      vertex 3.52133 41.7515 0
    endloop
  endfacet
  facet normal 0 0 -1
    outer loop
      vertex 5.66312 38.3855 0
      vertex 2.91246 40.384 0
      vertex 3.28876 41.0357 0
    endloop
  endfacet
  facet normal 0 0 -1
    outer loop
      vertex 4.68391 37.298 0
      vertex 2.40887 39.8247 0
      vertex 2.91246 40.384 0
    endloop
  endfacet
  facet normal 0 0 -1
    outer loop
      vertex 1.8 39.3823 0
      vertex 3.5 36.4378 0
      vertex 2.16312 35.8426 0
    endloop
  endfacet
  facet normal 0 0 -1
    outer loop
      vertex 3.5 36.4378 0
      vertex 1.8 39.3823 0
      vertex 2.40887 39.8247 0
    endloop
  endfacet
  facet normal 0 0 -1
    outer loop
      vertex 2.16312 35.8426 0
      vertex 1.11246 39.0762 0
      vertex 1.8 39.3823 0
    endloop
  endfacet
  facet normal 0 0 -1
    outer loop
      vertex 0.731699 35.5383 0
      vertex 1.11246 39.0762 0
      vertex 2.16312 35.8426 0
    endloop
  endfacet
  facet normal 0 0 -1
    outer loop
      vertex 0.731699 35.5383 0
      vertex 0.376302 38.9197 0
      vertex 1.11246 39.0762 0
    endloop
  endfacet
  facet normal 0 0 -1
    outer loop
      vertex 0.731699 35.5383 0
      vertex -0.376302 38.9197 0
      vertex 0.376302 38.9197 0
    endloop
  endfacet
  facet normal 0 0 -1
    outer loop
      vertex -0.731699 35.5383 0
      vertex -0.376302 38.9197 0
      vertex 0.731699 35.5383 0
    endloop
  endfacet
  facet normal 0 0 -1
    outer loop
      vertex -0.731699 35.5383 0
      vertex -1.11246 39.0762 0
      vertex -0.376302 38.9197 0
    endloop
  endfacet
  facet normal 0 0 -1
    outer loop
      vertex -2.16312 35.8426 0
      vertex -1.11246 39.0762 0
      vertex -0.731699 35.5383 0
    endloop
  endfacet
  facet normal -0 0 -1
    outer loop
      vertex -1.11246 39.0762 0
      vertex -2.16312 35.8426 0
      vertex -1.8 39.3823 0
    endloop
  endfacet
  facet normal 0 0 -1
    outer loop
      vertex -3.5 36.4378 0
      vertex -1.8 39.3823 0
      vertex -2.16312 35.8426 0
    endloop
  endfacet
  facet normal -0 0 -1
    outer loop
      vertex -1.8 39.3823 0
      vertex -3.5 36.4378 0
      vertex -2.40887 39.8247 0
    endloop
  endfacet
  facet normal 0 0 -1
    outer loop
      vertex -4.68391 37.298 0
      vertex -2.40887 39.8247 0
      vertex -3.5 36.4378 0
    endloop
  endfacet
  facet normal -0 0 -1
    outer loop
      vertex -2.40887 39.8247 0
      vertex -4.68391 37.298 0
      vertex -2.91246 40.384 0
    endloop
  endfacet
  facet normal 0 0 -1
    outer loop
      vertex -5.66312 38.3855 0
      vertex -2.91246 40.384 0
      vertex -4.68391 37.298 0
    endloop
  endfacet
  facet normal -0 0 -1
    outer loop
      vertex -2.91246 40.384 0
      vertex -5.66312 38.3855 0
      vertex -3.28876 41.0357 0
    endloop
  endfacet
  facet normal 0 0 -1
    outer loop
      vertex -6.39482 39.6528 0
      vertex -3.28876 41.0357 0
      vertex -5.66312 38.3855 0
    endloop
  endfacet
  facet normal -0 0 -1
    outer loop
      vertex 6.39482 45.3472 0
      vertex 3.28876 43.9643 0
      vertex 5.66312 46.6145 0
    endloop
  endfacet
  facet normal 0 0 -1
    outer loop
      vertex 2.91246 44.616 0
      vertex 5.66312 46.6145 0
      vertex 3.28876 43.9643 0
    endloop
  endfacet
  facet normal -0 0 -1
    outer loop
      vertex 5.66312 46.6145 0
      vertex 2.91246 44.616 0
      vertex 4.68391 47.702 0
    endloop
  endfacet
  facet normal 0 0 -1
    outer loop
      vertex 2.40887 45.1753 0
      vertex 4.68391 47.702 0
      vertex 2.91246 44.616 0
    endloop
  endfacet
  facet normal -0 0 -1
    outer loop
      vertex 4.68391 47.702 0
      vertex 2.40887 45.1753 0
      vertex 3.5 48.5622 0
    endloop
  endfacet
  facet normal 0 0 -1
    outer loop
      vertex 1.8 45.6177 0
      vertex 3.5 48.5622 0
      vertex 2.40887 45.1753 0
    endloop
  endfacet
  facet normal -0 0 -1
    outer loop
      vertex 3.5 48.5622 0
      vertex 1.8 45.6177 0
      vertex 2.16312 49.1574 0
    endloop
  endfacet
  facet normal 0 0 -1
    outer loop
      vertex 1.11246 45.9238 0
      vertex 2.16312 49.1574 0
      vertex 1.8 45.6177 0
    endloop
  endfacet
  facet normal 0 0 -1
    outer loop
      vertex 1.11246 45.9238 0
      vertex 0.731699 49.4617 0
      vertex 2.16312 49.1574 0
    endloop
  endfacet
  facet normal 0 0 -1
    outer loop
      vertex 0.376302 46.0803 0
      vertex 0.731699 49.4617 0
      vertex 1.11246 45.9238 0
    endloop
  endfacet
  facet normal 0 0 -1
    outer loop
      vertex -0.376302 46.0803 0
      vertex 0.731699 49.4617 0
      vertex 0.376302 46.0803 0
    endloop
  endfacet
  facet normal 0 0 -1
    outer loop
      vertex -0.376302 46.0803 0
      vertex -0.731699 49.4617 0
      vertex 0.731699 49.4617 0
    endloop
  endfacet
  facet normal 0 0 -1
    outer loop
      vertex -1.11246 45.9238 0
      vertex -0.731699 49.4617 0
      vertex -0.376302 46.0803 0
    endloop
  endfacet
  facet normal 0 0 -1
    outer loop
      vertex -2.16312 49.1574 0
      vertex -1.11246 45.9238 0
      vertex -1.8 45.6177 0
    endloop
  endfacet
  facet normal 0 0 -1
    outer loop
      vertex -1.11246 45.9238 0
      vertex -2.16312 49.1574 0
      vertex -0.731699 49.4617 0
    endloop
  endfacet
  facet normal 0 0 -1
    outer loop
      vertex -3.5 48.5622 0
      vertex -1.8 45.6177 0
      vertex -2.40887 45.1753 0
    endloop
  endfacet
  facet normal 0 0 -1
    outer loop
      vertex -4.68391 47.702 0
      vertex -2.40887 45.1753 0
      vertex -2.91246 44.616 0
    endloop
  endfacet
  facet normal 0 0 -1
    outer loop
      vertex -5.66312 46.6145 0
      vertex -2.91246 44.616 0
      vertex -3.28876 43.9643 0
    endloop
  endfacet
  facet normal 0 0 -1
    outer loop
      vertex -1.8 45.6177 0
      vertex -3.5 48.5622 0
      vertex -2.16312 49.1574 0
    endloop
  endfacet
  facet normal 0 0 -1
    outer loop
      vertex -6.39482 45.3472 0
      vertex -3.28876 43.9643 0
      vertex -3.52133 43.2485 0
    endloop
  endfacet
  facet normal 0 0 -1
    outer loop
      vertex -6.84703 43.9554 0
      vertex -3.52133 43.2485 0
      vertex -3.6 42.5 0
    endloop
  endfacet
  facet normal -0 0 -1
    outer loop
      vertex -3.28876 41.0357 0
      vertex -6.39482 39.6528 0
      vertex -3.52133 41.7515 0
    endloop
  endfacet
  facet normal 0 0 -1
    outer loop
      vertex -2.40887 45.1753 0
      vertex -4.68391 47.702 0
      vertex -3.5 48.5622 0
    endloop
  endfacet
  facet normal 0 0 -1
    outer loop
      vertex -6.84703 41.0446 0
      vertex -3.52133 41.7515 0
      vertex -6.39482 39.6528 0
    endloop
  endfacet
  facet normal 0 0 -1
    outer loop
      vertex -2.91246 44.616 0
      vertex -5.66312 46.6145 0
      vertex -4.68391 47.702 0
    endloop
  endfacet
  facet normal -0 0 -1
    outer loop
      vertex -3.52133 41.7515 0
      vertex -6.84703 41.0446 0
      vertex -3.6 42.5 0
    endloop
  endfacet
  facet normal 0 0 -1
    outer loop
      vertex -3.28876 43.9643 0
      vertex -6.39482 45.3472 0
      vertex -5.66312 46.6145 0
    endloop
  endfacet
  facet normal 0 0 -1
    outer loop
      vertex -7 42.5 0
      vertex -3.6 42.5 0
      vertex -6.84703 41.0446 0
    endloop
  endfacet
  facet normal 0 0 -1
    outer loop
      vertex -3.52133 43.2485 0
      vertex -6.84703 43.9554 0
      vertex -6.39482 45.3472 0
    endloop
  endfacet
  facet normal 0 0 -1
    outer loop
      vertex -3.6 42.5 0
      vertex -7 42.5 0
      vertex -6.84703 43.9554 0
    endloop
  endfacet
  facet normal -0.743138 -0.669138 0
    outer loop
      vertex -4.68391 37.298 0
      vertex -5.66312 38.3855 2
      vertex -5.66312 38.3855 0
    endloop
  endfacet
  facet normal -0.743138 -0.669138 0
    outer loop
      vertex -5.66312 38.3855 2
      vertex -4.68391 37.298 0
      vertex -4.68391 37.298 2
    endloop
  endfacet
  facet normal -0.587803 -0.809004 0
    outer loop
      vertex -4.68391 37.298 0
      vertex -3.5 36.4378 2
      vertex -4.68391 37.298 2
    endloop
  endfacet
  facet normal -0.587803 -0.809004 -0
    outer loop
      vertex -3.5 36.4378 2
      vertex -4.68391 37.298 0
      vertex -3.5 36.4378 0
    endloop
  endfacet
  facet normal -0.866018 0.500012 0
    outer loop
      vertex -6.39482 45.3472 0
      vertex -5.66312 46.6145 2
      vertex -5.66312 46.6145 0
    endloop
  endfacet
  facet normal -0.866018 0.500012 0
    outer loop
      vertex -5.66312 46.6145 2
      vertex -6.39482 45.3472 0
      vertex -6.39482 45.3472 2
    endloop
  endfacet
  facet normal -0.951059 -0.309008 0
    outer loop
      vertex 3.52133 43.2485 0
      vertex 3.28876 43.9643 2
      vertex 3.28876 43.9643 0
    endloop
  endfacet
  facet normal -0.951059 -0.309008 0
    outer loop
      vertex 3.28876 43.9643 2
      vertex 3.52133 43.2485 0
      vertex 3.52133 43.2485 2
    endloop
  endfacet
  facet normal -0.994522 -0.104528 0
    outer loop
      vertex 3.6 42.5 0
      vertex 3.52133 43.2485 2
      vertex 3.52133 43.2485 0
    endloop
  endfacet
  facet normal -0.994522 -0.104528 0
    outer loop
      vertex 3.52133 43.2485 2
      vertex 3.6 42.5 0
      vertex 3.6 42.5 2
    endloop
  endfacet
  facet normal -0.866002 -0.500041 0
    outer loop
      vertex 3.28876 43.9643 0
      vertex 2.91246 44.616 2
      vertex 2.91246 44.616 0
    endloop
  endfacet
  facet normal -0.866002 -0.500041 0
    outer loop
      vertex 2.91246 44.616 2
      vertex 3.28876 43.9643 0
      vertex 3.28876 43.9643 2
    endloop
  endfacet
  facet normal -0.743149 -0.669126 0
    outer loop
      vertex 2.91246 44.616 0
      vertex 2.40887 45.1753 2
      vertex 2.40887 45.1753 0
    endloop
  endfacet
  facet normal -0.743149 -0.669126 0
    outer loop
      vertex 2.40887 45.1753 2
      vertex 2.91246 44.616 0
      vertex 2.91246 44.616 2
    endloop
  endfacet
  facet normal 0 1 -0
    outer loop
      vertex 0.376302 38.9197 0
      vertex -0.376302 38.9197 2
      vertex 0.376302 38.9197 2
    endloop
  endfacet
  facet normal 0 1 0
    outer loop
      vertex -0.376302 38.9197 2
      vertex 0.376302 38.9197 0
      vertex -0.376302 38.9197 0
    endloop
  endfacet
  facet normal -0.207943 0.978141 0
    outer loop
      vertex 1.11246 39.0762 0
      vertex 0.376302 38.9197 2
      vertex 1.11246 39.0762 2
    endloop
  endfacet
  facet normal -0.207943 0.978141 0
    outer loop
      vertex 0.376302 38.9197 2
      vertex 1.11246 39.0762 0
      vertex 0.376302 38.9197 0
    endloop
  endfacet
  facet normal 0.994522 0.104528 0
    outer loop
      vertex -3.52133 41.7515 2
      vertex -3.6 42.5 0
      vertex -3.6 42.5 2
    endloop
  endfacet
  facet normal 0.994522 0.104528 0
    outer loop
      vertex -3.6 42.5 0
      vertex -3.52133 41.7515 2
      vertex -3.52133 41.7515 0
    endloop
  endfacet
  facet normal 0.587811 0.808998 -0
    outer loop
      vertex -1.8 39.3823 0
      vertex -2.40887 39.8247 2
      vertex -1.8 39.3823 2
    endloop
  endfacet
  facet normal 0.587811 0.808998 0
    outer loop
      vertex -2.40887 39.8247 2
      vertex -1.8 39.3823 0
      vertex -2.40887 39.8247 0
    endloop
  endfacet
  facet normal -0.866002 0.500041 0
    outer loop
      vertex 2.91246 40.384 0
      vertex 3.28876 41.0357 2
      vertex 3.28876 41.0357 0
    endloop
  endfacet
  facet normal -0.866002 0.500041 0
    outer loop
      vertex 3.28876 41.0357 2
      vertex 2.91246 40.384 0
      vertex 2.91246 40.384 2
    endloop
  endfacet
  facet normal -0.743149 0.669126 0
    outer loop
      vertex 2.40887 39.8247 0
      vertex 2.91246 40.384 2
      vertex 2.91246 40.384 0
    endloop
  endfacet
  facet normal -0.743149 0.669126 0
    outer loop
      vertex 2.91246 40.384 2
      vertex 2.40887 39.8247 0
      vertex 2.40887 39.8247 2
    endloop
  endfacet
  facet normal -0.406723 -0.913552 0
    outer loop
      vertex 1.11246 45.9238 0
      vertex 1.8 45.6177 2
      vertex 1.11246 45.9238 2
    endloop
  endfacet
  facet normal -0.406723 -0.913552 -0
    outer loop
      vertex 1.8 45.6177 2
      vertex 1.11246 45.9238 0
      vertex 1.8 45.6177 0
    endloop
  endfacet
  facet normal 0.866002 -0.500041 0
    outer loop
      vertex -3.28876 43.9643 2
      vertex -2.91246 44.616 0
      vertex -2.91246 44.616 2
    endloop
  endfacet
  facet normal 0.866002 -0.500041 0
    outer loop
      vertex -2.91246 44.616 0
      vertex -3.28876 43.9643 2
      vertex -3.28876 43.9643 0
    endloop
  endfacet
  facet normal -0.587811 0.808998 0
    outer loop
      vertex 2.40887 39.8247 0
      vertex 1.8 39.3823 2
      vertex 2.40887 39.8247 2
    endloop
  endfacet
  facet normal -0.587811 0.808998 0
    outer loop
      vertex 1.8 39.3823 2
      vertex 2.40887 39.8247 0
      vertex 1.8 39.3823 0
    endloop
  endfacet
  facet normal -0.207943 -0.978141 0
    outer loop
      vertex 0.376302 46.0803 0
      vertex 1.11246 45.9238 2
      vertex 0.376302 46.0803 2
    endloop
  endfacet
  facet normal -0.207943 -0.978141 -0
    outer loop
      vertex 1.11246 45.9238 2
      vertex 0.376302 46.0803 0
      vertex 1.11246 45.9238 0
    endloop
  endfacet
  facet normal -0.587811 -0.808998 0
    outer loop
      vertex 1.8 45.6177 0
      vertex 2.40887 45.1753 2
      vertex 1.8 45.6177 2
    endloop
  endfacet
  facet normal -0.587811 -0.808998 -0
    outer loop
      vertex 2.40887 45.1753 2
      vertex 1.8 45.6177 0
      vertex 2.40887 45.1753 0
    endloop
  endfacet
  facet normal -0.951059 0.309008 0
    outer loop
      vertex 3.28876 41.0357 0
      vertex 3.52133 41.7515 2
      vertex 3.52133 41.7515 0
    endloop
  endfacet
  facet normal -0.951059 0.309008 0
    outer loop
      vertex 3.52133 41.7515 2
      vertex 3.28876 41.0357 0
      vertex 3.28876 41.0357 2
    endloop
  endfacet
  facet normal -0.994522 0.104528 0
    outer loop
      vertex 3.52133 41.7515 0
      vertex 3.6 42.5 2
      vertex 3.6 42.5 0
    endloop
  endfacet
  facet normal -0.994522 0.104528 0
    outer loop
      vertex 3.6 42.5 2
      vertex 3.52133 41.7515 0
      vertex 3.52133 41.7515 2
    endloop
  endfacet
  facet normal 0.743149 -0.669126 0
    outer loop
      vertex -2.91246 44.616 2
      vertex -2.40887 45.1753 0
      vertex -2.40887 45.1753 2
    endloop
  endfacet
  facet normal 0.743149 -0.669126 0
    outer loop
      vertex -2.40887 45.1753 0
      vertex -2.91246 44.616 2
      vertex -2.91246 44.616 0
    endloop
  endfacet
  facet normal 0.866002 0.500041 0
    outer loop
      vertex -2.91246 40.384 2
      vertex -3.28876 41.0357 0
      vertex -3.28876 41.0357 2
    endloop
  endfacet
  facet normal 0.866002 0.500041 0
    outer loop
      vertex -3.28876 41.0357 0
      vertex -2.91246 40.384 2
      vertex -2.91246 40.384 0
    endloop
  endfacet
  facet normal 0.587811 -0.808998 0
    outer loop
      vertex -2.40887 45.1753 0
      vertex -1.8 45.6177 2
      vertex -2.40887 45.1753 2
    endloop
  endfacet
  facet normal 0.587811 -0.808998 0
    outer loop
      vertex -1.8 45.6177 2
      vertex -2.40887 45.1753 0
      vertex -1.8 45.6177 0
    endloop
  endfacet
  facet normal 0 -1 0
    outer loop
      vertex -0.376302 46.0803 0
      vertex 0.376302 46.0803 2
      vertex -0.376302 46.0803 2
    endloop
  endfacet
  facet normal 0 -1 -0
    outer loop
      vertex 0.376302 46.0803 2
      vertex -0.376302 46.0803 0
      vertex 0.376302 46.0803 0
    endloop
  endfacet
  facet normal 0.406723 -0.913552 0
    outer loop
      vertex -1.8 45.6177 0
      vertex -1.11246 45.9238 2
      vertex -1.8 45.6177 2
    endloop
  endfacet
  facet normal 0.406723 -0.913552 0
    outer loop
      vertex -1.11246 45.9238 2
      vertex -1.8 45.6177 0
      vertex -1.11246 45.9238 0
    endloop
  endfacet
  facet normal -0.406723 0.913552 0
    outer loop
      vertex 1.8 39.3823 0
      vertex 1.11246 39.0762 2
      vertex 1.8 39.3823 2
    endloop
  endfacet
  facet normal -0.406723 0.913552 0
    outer loop
      vertex 1.11246 39.0762 2
      vertex 1.8 39.3823 0
      vertex 1.11246 39.0762 0
    endloop
  endfacet
  facet normal 0.994522 -0.104528 0
    outer loop
      vertex -3.6 42.5 2
      vertex -3.52133 43.2485 0
      vertex -3.52133 43.2485 2
    endloop
  endfacet
  facet normal 0.994522 -0.104528 0
    outer loop
      vertex -3.52133 43.2485 0
      vertex -3.6 42.5 2
      vertex -3.6 42.5 0
    endloop
  endfacet
  facet normal 0.951059 0.309008 0
    outer loop
      vertex -3.28876 41.0357 2
      vertex -3.52133 41.7515 0
      vertex -3.52133 41.7515 2
    endloop
  endfacet
  facet normal 0.951059 0.309008 0
    outer loop
      vertex -3.52133 41.7515 0
      vertex -3.28876 41.0357 2
      vertex -3.28876 41.0357 0
    endloop
  endfacet
  facet normal 0.951059 -0.309008 0
    outer loop
      vertex -3.52133 43.2485 2
      vertex -3.28876 43.9643 0
      vertex -3.28876 43.9643 2
    endloop
  endfacet
  facet normal 0.951059 -0.309008 0
    outer loop
      vertex -3.28876 43.9643 0
      vertex -3.52133 43.2485 2
      vertex -3.52133 43.2485 0
    endloop
  endfacet
  facet normal 0.207943 -0.978141 0
    outer loop
      vertex -1.11246 45.9238 0
      vertex -0.376302 46.0803 2
      vertex -1.11246 45.9238 2
    endloop
  endfacet
  facet normal 0.207943 -0.978141 0
    outer loop
      vertex -0.376302 46.0803 2
      vertex -1.11246 45.9238 0
      vertex -0.376302 46.0803 0
    endloop
  endfacet
  facet normal 0.743149 0.669126 0
    outer loop
      vertex -2.40887 39.8247 2
      vertex -2.91246 40.384 0
      vertex -2.91246 40.384 2
    endloop
  endfacet
  facet normal 0.743149 0.669126 0
    outer loop
      vertex -2.91246 40.384 0
      vertex -2.40887 39.8247 2
      vertex -2.40887 39.8247 0
    endloop
  endfacet
  facet normal 0.207943 0.978141 -0
    outer loop
      vertex -0.376302 38.9197 0
      vertex -1.11246 39.0762 2
      vertex -0.376302 38.9197 2
    endloop
  endfacet
  facet normal 0.207943 0.978141 0
    outer loop
      vertex -1.11246 39.0762 2
      vertex -0.376302 38.9197 0
      vertex -1.11246 39.0762 0
    endloop
  endfacet
  facet normal 0.406723 0.913552 -0
    outer loop
      vertex -1.11246 39.0762 0
      vertex -1.8 39.3823 2
      vertex -1.11246 39.0762 2
    endloop
  endfacet
  facet normal 0.406723 0.913552 0
    outer loop
      vertex -1.8 39.3823 2
      vertex -1.11246 39.0762 0
      vertex -1.8 39.3823 0
    endloop
  endfacet
endsolid OpenSCAD_Model
