solid OpenSCAD_Model
  facet normal 0 0 -1
    outer loop
      vertex 8.79413 -5.01656 0
      vertex 9.6 0 0
      vertex 9.6 -9.6 0
    endloop
  endfacet
  facet normal 0 0 -1
    outer loop
      vertex 8.7473 -4.15287 0
      vertex 9.6 0 0
      vertex 8.79413 -4.58344 0
    endloop
  endfacet
  facet normal 0 0 -1
    outer loop
      vertex 8.79413 -4.58344 0
      vertex 9.6 0 0
      vertex 8.79413 -5.01656 0
    endloop
  endfacet
  facet normal 0 0 -1
    outer loop
      vertex 9.6 -9.6 0
      vertex 8.7473 -5.44713 0
      vertex 8.79413 -5.01656 0
    endloop
  endfacet
  facet normal 0 0 -1
    outer loop
      vertex 9.6 -9.6 0
      vertex 8.6542 -5.87011 0
      vertex 8.7473 -5.44713 0
    endloop
  endfacet
  facet normal 0 0 -1
    outer loop
      vertex 9.6 -9.6 0
      vertex 8.51591 -6.28055 0
      vertex 8.6542 -5.87011 0
    endloop
  endfacet
  facet normal 0 0 -1
    outer loop
      vertex 9.6 -9.6 0
      vertex 8.33405 -6.67363 0
      vertex 8.51591 -6.28055 0
    endloop
  endfacet
  facet normal 0 0 -1
    outer loop
      vertex 9.6 -9.6 0
      vertex 8.11076 -7.04475 0
      vertex 8.33405 -6.67363 0
    endloop
  endfacet
  facet normal 0 0 -1
    outer loop
      vertex 9.6 -9.6 0
      vertex 7.84865 -7.38955 0
      vertex 8.11076 -7.04475 0
    endloop
  endfacet
  facet normal 0 0 -1
    outer loop
      vertex 9.6 -9.6 0
      vertex 7.5508 -7.70398 0
      vertex 7.84865 -7.38955 0
    endloop
  endfacet
  facet normal 0 0 -1
    outer loop
      vertex 9.6 -9.6 0
      vertex 7.2207 -7.98437 0
      vertex 7.5508 -7.70398 0
    endloop
  endfacet
  facet normal 0 0 -1
    outer loop
      vertex 9.6 -9.6 0
      vertex 6.86222 -8.22743 0
      vertex 7.2207 -7.98437 0
    endloop
  endfacet
  facet normal 0 0 -1
    outer loop
      vertex 9.6 -9.6 0
      vertex 6.47956 -8.4303 0
      vertex 6.86222 -8.22743 0
    endloop
  endfacet
  facet normal 0 0 -1
    outer loop
      vertex 9.6 -9.6 0
      vertex 6.0772 -8.59061 0
      vertex 6.47956 -8.4303 0
    endloop
  endfacet
  facet normal 0 0 -1
    outer loop
      vertex 9.6 -9.6 0
      vertex 5.65988 -8.70648 0
      vertex 6.0772 -8.59061 0
    endloop
  endfacet
  facet normal 0 0 -1
    outer loop
      vertex 9.6 -9.6 0
      vertex 5.23248 -8.77655 0
      vertex 5.65988 -8.70648 0
    endloop
  endfacet
  facet normal 0 0 -1
    outer loop
      vertex 9.6 -9.6 0
      vertex 4.8 -8.8 0
      vertex 5.23248 -8.77655 0
    endloop
  endfacet
  facet normal 0 0 -1
    outer loop
      vertex 0 -9.6 0
      vertex 4.8 -8.8 0
      vertex 9.6 -9.6 0
    endloop
  endfacet
  facet normal -0 0 -1
    outer loop
      vertex 0.805866 -5.01656 0
      vertex 0 -9.6 0
      vertex 0.805866 -4.58344 0
    endloop
  endfacet
  facet normal -0 0 -1
    outer loop
      vertex 0.852694 -5.44713 0
      vertex 0 -9.6 0
      vertex 0.805866 -5.01656 0
    endloop
  endfacet
  facet normal -0 0 -1
    outer loop
      vertex 0.945799 -5.87011 0
      vertex 0 -9.6 0
      vertex 0.852694 -5.44713 0
    endloop
  endfacet
  facet normal -0 0 -1
    outer loop
      vertex 1.08409 -6.28055 0
      vertex 0 -9.6 0
      vertex 0.945799 -5.87011 0
    endloop
  endfacet
  facet normal -0 0 -1
    outer loop
      vertex 1.26595 -6.67363 0
      vertex 0 -9.6 0
      vertex 1.08409 -6.28055 0
    endloop
  endfacet
  facet normal -0 0 -1
    outer loop
      vertex 1.48924 -7.04475 0
      vertex 0 -9.6 0
      vertex 1.26595 -6.67363 0
    endloop
  endfacet
  facet normal -0 0 -1
    outer loop
      vertex 1.75135 -7.38955 0
      vertex 0 -9.6 0
      vertex 1.48924 -7.04475 0
    endloop
  endfacet
  facet normal -0 0 -1
    outer loop
      vertex 2.0492 -7.70398 0
      vertex 0 -9.6 0
      vertex 1.75135 -7.38955 0
    endloop
  endfacet
  facet normal -0 0 -1
    outer loop
      vertex 2.3793 -7.98437 0
      vertex 0 -9.6 0
      vertex 2.0492 -7.70398 0
    endloop
  endfacet
  facet normal -0 0 -1
    outer loop
      vertex 2.73778 -8.22743 0
      vertex 0 -9.6 0
      vertex 2.3793 -7.98437 0
    endloop
  endfacet
  facet normal -0 0 -1
    outer loop
      vertex 3.12044 -8.4303 0
      vertex 0 -9.6 0
      vertex 2.73778 -8.22743 0
    endloop
  endfacet
  facet normal -0 0 -1
    outer loop
      vertex 3.52279 -8.59061 0
      vertex 0 -9.6 0
      vertex 3.12044 -8.4303 0
    endloop
  endfacet
  facet normal -0 0 -1
    outer loop
      vertex 3.94012 -8.70648 0
      vertex 0 -9.6 0
      vertex 3.52279 -8.59061 0
    endloop
  endfacet
  facet normal -0 0 -1
    outer loop
      vertex 4.36752 -8.77655 0
      vertex 0 -9.6 0
      vertex 3.94012 -8.70648 0
    endloop
  endfacet
  facet normal -0 0 -1
    outer loop
      vertex 4.8 -8.8 0
      vertex 0 -9.6 0
      vertex 4.36752 -8.77655 0
    endloop
  endfacet
  facet normal 0 0 -1
    outer loop
      vertex 8.6542 -3.72989 0
      vertex 9.6 0 0
      vertex 8.7473 -4.15287 0
    endloop
  endfacet
  facet normal 0 0 -1
    outer loop
      vertex 8.51591 -3.31945 0
      vertex 9.6 0 0
      vertex 8.6542 -3.72989 0
    endloop
  endfacet
  facet normal 0 0 -1
    outer loop
      vertex 8.33405 -2.92637 0
      vertex 9.6 0 0
      vertex 8.51591 -3.31945 0
    endloop
  endfacet
  facet normal 0 0 -1
    outer loop
      vertex 8.11076 -2.55525 0
      vertex 9.6 0 0
      vertex 8.33405 -2.92637 0
    endloop
  endfacet
  facet normal 0 0 -1
    outer loop
      vertex 7.84865 -2.21045 0
      vertex 9.6 0 0
      vertex 8.11076 -2.55525 0
    endloop
  endfacet
  facet normal 0 0 -1
    outer loop
      vertex 7.5508 -1.89602 0
      vertex 9.6 0 0
      vertex 7.84865 -2.21045 0
    endloop
  endfacet
  facet normal 0 0 -1
    outer loop
      vertex 7.2207 -1.61563 0
      vertex 9.6 0 0
      vertex 7.5508 -1.89602 0
    endloop
  endfacet
  facet normal 0 0 -1
    outer loop
      vertex 9.6 0 0
      vertex 7.59999 1 0
      vertex 9.6 1 0
    endloop
  endfacet
  facet normal -0 0 -1
    outer loop
      vertex 9.6 0 0
      vertex 7.2207 -1.61563 0
      vertex 7.59999 1 0
    endloop
  endfacet
  facet normal 0 0 -1
    outer loop
      vertex 6.86222 -1.37257 0
      vertex 7.59999 1 0
      vertex 7.2207 -1.61563 0
    endloop
  endfacet
  facet normal 0 0 -1
    outer loop
      vertex 6.47956 -1.1697 0
      vertex 7.59999 1 0
      vertex 6.86222 -1.37257 0
    endloop
  endfacet
  facet normal 0 0 -1
    outer loop
      vertex 6.0772 -1.00939 0
      vertex 7.59999 1 0
      vertex 6.47956 -1.1697 0
    endloop
  endfacet
  facet normal 0 0 -1
    outer loop
      vertex 5.65988 -0.893517 0
      vertex 7.59999 1 0
      vertex 6.0772 -1.00939 0
    endloop
  endfacet
  facet normal 0 0 -1
    outer loop
      vertex 5.23248 -0.823448 0
      vertex 7.59999 1 0
      vertex 5.65988 -0.893517 0
    endloop
  endfacet
  facet normal 0 0 -1
    outer loop
      vertex 4.8 -0.799999 0
      vertex 7.59999 1 0
      vertex 5.23248 -0.823448 0
    endloop
  endfacet
  facet normal 0 0 -1
    outer loop
      vertex 4 4.59999 0
      vertex 4.8 -0.799999 0
      vertex 4.36752 -0.823448 0
    endloop
  endfacet
  facet normal 0 0 -1
    outer loop
      vertex 4.8 -0.799999 0
      vertex 4 4.59999 0
      vertex 7.59999 1 0
    endloop
  endfacet
  facet normal 0 0 -1
    outer loop
      vertex 3.94012 -0.893517 0
      vertex 4 4.59999 0
      vertex 4.36752 -0.823448 0
    endloop
  endfacet
  facet normal 0 0 -1
    outer loop
      vertex 3.52279 -1.00939 0
      vertex 4 4.59999 0
      vertex 3.94012 -0.893517 0
    endloop
  endfacet
  facet normal 0 0 -1
    outer loop
      vertex 3.12044 -1.1697 0
      vertex 4 4.59999 0
      vertex 3.52279 -1.00939 0
    endloop
  endfacet
  facet normal 0 0 -1
    outer loop
      vertex 0 4.6 0
      vertex 4 4.59999 0
      vertex 3.12044 -1.1697 0
    endloop
  endfacet
  facet normal 0 0 -1
    outer loop
      vertex 0 4.6 0
      vertex 3.12044 -1.1697 0
      vertex 2.73778 -1.37257 0
    endloop
  endfacet
  facet normal 0 0 -1
    outer loop
      vertex 0 4.6 0
      vertex 2.73778 -1.37257 0
      vertex 2.3793 -1.61563 0
    endloop
  endfacet
  facet normal 0 0 -1
    outer loop
      vertex 0 4.6 0
      vertex 2.3793 -1.61563 0
      vertex 2.0492 -1.89602 0
    endloop
  endfacet
  facet normal 0 0 -1
    outer loop
      vertex 0 4.6 0
      vertex 2.0492 -1.89602 0
      vertex 1.75135 -2.21045 0
    endloop
  endfacet
  facet normal 0 0 -1
    outer loop
      vertex 0 4.6 0
      vertex 1.75135 -2.21045 0
      vertex 1.48924 -2.55525 0
    endloop
  endfacet
  facet normal 0 0 -1
    outer loop
      vertex 0 4.6 0
      vertex 1.48924 -2.55525 0
      vertex 1.26595 -2.92637 0
    endloop
  endfacet
  facet normal 0 0 -1
    outer loop
      vertex 0 4.6 0
      vertex 1.26595 -2.92637 0
      vertex 1.08409 -3.31945 0
    endloop
  endfacet
  facet normal 0 0 -1
    outer loop
      vertex 0 4.6 0
      vertex 0.805866 -4.58344 0
      vertex 0 -9.6 0
    endloop
  endfacet
  facet normal 0 0 -1
    outer loop
      vertex 4 4.59999 0
      vertex 0 4.6 0
      vertex 4 4.6 0
    endloop
  endfacet
  facet normal 0 0 -1
    outer loop
      vertex 0.945799 -3.72989 0
      vertex 0 4.6 0
      vertex 1.08409 -3.31945 0
    endloop
  endfacet
  facet normal 0 0 -1
    outer loop
      vertex 0.852694 -4.15287 0
      vertex 0 4.6 0
      vertex 0.945799 -3.72989 0
    endloop
  endfacet
  facet normal 0 0 -1
    outer loop
      vertex 0.805866 -4.58344 0
      vertex 0 4.6 0
      vertex 0.852694 -4.15287 0
    endloop
  endfacet
  facet normal 1 -0 0
    outer loop
      vertex 4 1 3.2
      vertex 4 4.59999 1.6
      vertex 4 4.59999 3.2
    endloop
  endfacet
  facet normal 1 0 0
    outer loop
      vertex 4 4.59999 1.6
      vertex 4 1 3.2
      vertex 4 1 1.6
    endloop
  endfacet
  facet normal 1 0 0
    outer loop
      vertex 4 4.59999 3.2
      vertex 4 4.6 4.8
      vertex 4 4.59999 4.8
    endloop
  endfacet
  facet normal 1 0 0
    outer loop
      vertex 4 4.6 4.8
      vertex 4 4.59999 3.2
      vertex 4 4.6 0
    endloop
  endfacet
  facet normal 1 -0 0
    outer loop
      vertex 4 4.59999 1.6
      vertex 4 4.6 0
      vertex 4 4.59999 3.2
    endloop
  endfacet
  facet normal 1 0 0
    outer loop
      vertex 4 4.6 0
      vertex 4 4.59999 1.6
      vertex 4 4.59999 0
    endloop
  endfacet
  facet normal 0 1 0
    outer loop
      vertex 9.6 1 4.8
      vertex 7.59999 1 3.2
      vertex 7.59999 1 4.8
    endloop
  endfacet
  facet normal 0 1 0
    outer loop
      vertex 7.59999 1 3.2
      vertex 7.59999 1 1.6
      vertex 4 1 3.2
    endloop
  endfacet
  facet normal 0 1 0
    outer loop
      vertex 9.6 1 4.8
      vertex 7.59999 1 1.6
      vertex 7.59999 1 3.2
    endloop
  endfacet
  facet normal 0 1 -0
    outer loop
      vertex 9.6 1 0
      vertex 7.59999 1 1.6
      vertex 9.6 1 4.8
    endloop
  endfacet
  facet normal 0 1 0
    outer loop
      vertex 7.59999 1 1.6
      vertex 9.6 1 0
      vertex 7.59999 1 0
    endloop
  endfacet
  facet normal 0 1 0
    outer loop
      vertex 4 1 3.2
      vertex 7.59999 1 1.6
      vertex 4 1 1.6
    endloop
  endfacet
  facet normal 0 0 1
    outer loop
      vertex 7.59999 1 1.6
      vertex 4 4.59999 1.6
      vertex 4 1 1.6
    endloop
  endfacet
  facet normal 0.707107 0.707107 0
    outer loop
      vertex 7.59999 1 1.6
      vertex 4 4.59999 0
      vertex 4 4.59999 1.6
    endloop
  endfacet
  facet normal 0.707107 0.707107 0
    outer loop
      vertex 4 4.59999 0
      vertex 7.59999 1 1.6
      vertex 7.59999 1 0
    endloop
  endfacet
  facet normal 0 0 -1
    outer loop
      vertex 4 1 3.2
      vertex 4 4.59999 3.2
      vertex 7.59999 1 3.2
    endloop
  endfacet
  facet normal 0 0 1
    outer loop
      vertex 4 4.6 4.8
      vertex 0 4.6 4.8
      vertex 4 4.59999 4.8
    endloop
  endfacet
  facet normal -0 0 1
    outer loop
      vertex 7.59999 1 4.8
      vertex 9.6 0 4.8
      vertex 9.6 1 4.8
    endloop
  endfacet
  facet normal 0 0 1
    outer loop
      vertex 0 0 4.8
      vertex 4 4.59999 4.8
      vertex 0 4.6 4.8
    endloop
  endfacet
  facet normal 0 0 1
    outer loop
      vertex 4 4.59999 4.8
      vertex 0 0 4.8
      vertex 7.59999 1 4.8
    endloop
  endfacet
  facet normal 0 0 1
    outer loop
      vertex 7.59999 1 4.8
      vertex 0 0 4.8
      vertex 9.6 0 4.8
    endloop
  endfacet
  facet normal 0.707107 0.707107 0
    outer loop
      vertex 7.59999 1 4.8
      vertex 4 4.59999 3.2
      vertex 4 4.59999 4.8
    endloop
  endfacet
  facet normal 0.707107 0.707107 0
    outer loop
      vertex 4 4.59999 3.2
      vertex 7.59999 1 4.8
      vertex 7.59999 1 3.2
    endloop
  endfacet
  facet normal 0 1 -0
    outer loop
      vertex 4 4.6 0
      vertex 0 4.6 4.8
      vertex 4 4.6 4.8
    endloop
  endfacet
  facet normal 0 1 0
    outer loop
      vertex 0 4.6 4.8
      vertex 4 4.6 0
      vertex 0 4.6 0
    endloop
  endfacet
  facet normal -1 0 0
    outer loop
      vertex 0 4.6 0
      vertex 0 0 4.8
      vertex 0 4.6 4.8
    endloop
  endfacet
  facet normal -1 0 0
    outer loop
      vertex 0 -9.6 0
      vertex 0 0 4.8
      vertex 0 4.6 0
    endloop
  endfacet
  facet normal -1 0 0
    outer loop
      vertex 0 -9.6 4.8
      vertex 0 0 4.8
      vertex 0 -9.6 0
    endloop
  endfacet
  facet normal 0 0 1
    outer loop
      vertex 9.6 0 4.8
      vertex 8.79413 -4.58344 4.8
      vertex 9.6 -9.6 4.8
    endloop
  endfacet
  facet normal 0 0 1
    outer loop
      vertex 9.6 0 4.8
      vertex 8.7473 -4.15287 4.8
      vertex 8.79413 -4.58344 4.8
    endloop
  endfacet
  facet normal 0 0 1
    outer loop
      vertex 9.6 0 4.8
      vertex 8.6542 -3.72989 4.8
      vertex 8.7473 -4.15287 4.8
    endloop
  endfacet
  facet normal 0 0 1
    outer loop
      vertex 9.6 0 4.8
      vertex 8.51591 -3.31945 4.8
      vertex 8.6542 -3.72989 4.8
    endloop
  endfacet
  facet normal 0 0 1
    outer loop
      vertex 9.6 0 4.8
      vertex 8.33405 -2.92637 4.8
      vertex 8.51591 -3.31945 4.8
    endloop
  endfacet
  facet normal 0 0 1
    outer loop
      vertex 9.6 0 4.8
      vertex 8.11076 -2.55525 4.8
      vertex 8.33405 -2.92637 4.8
    endloop
  endfacet
  facet normal 0 0 1
    outer loop
      vertex 9.6 0 4.8
      vertex 7.84865 -2.21045 4.8
      vertex 8.11076 -2.55525 4.8
    endloop
  endfacet
  facet normal 0 0 1
    outer loop
      vertex 9.6 0 4.8
      vertex 7.5508 -1.89602 4.8
      vertex 7.84865 -2.21045 4.8
    endloop
  endfacet
  facet normal 0 0 1
    outer loop
      vertex 9.6 0 4.8
      vertex 7.2207 -1.61563 4.8
      vertex 7.5508 -1.89602 4.8
    endloop
  endfacet
  facet normal 0 0 1
    outer loop
      vertex 9.6 0 4.8
      vertex 6.86222 -1.37257 4.8
      vertex 7.2207 -1.61563 4.8
    endloop
  endfacet
  facet normal 0 0 1
    outer loop
      vertex 9.6 0 4.8
      vertex 6.47956 -1.1697 4.8
      vertex 6.86222 -1.37257 4.8
    endloop
  endfacet
  facet normal 0 0 1
    outer loop
      vertex 9.6 0 4.8
      vertex 6.0772 -1.00939 4.8
      vertex 6.47956 -1.1697 4.8
    endloop
  endfacet
  facet normal 0 0 1
    outer loop
      vertex 9.6 0 4.8
      vertex 5.65988 -0.893517 4.8
      vertex 6.0772 -1.00939 4.8
    endloop
  endfacet
  facet normal 0 0 1
    outer loop
      vertex 9.6 0 4.8
      vertex 5.23248 -0.823448 4.8
      vertex 5.65988 -0.893517 4.8
    endloop
  endfacet
  facet normal 0 0 1
    outer loop
      vertex 9.6 0 4.8
      vertex 4.8 -0.799999 4.8
      vertex 5.23248 -0.823448 4.8
    endloop
  endfacet
  facet normal -0 0 1
    outer loop
      vertex 0 0 4.8
      vertex 4.8 -0.799999 4.8
      vertex 9.6 0 4.8
    endloop
  endfacet
  facet normal 0 0 1
    outer loop
      vertex 0.805866 -4.58344 4.8
      vertex 0 0 4.8
      vertex 0.805866 -5.01656 4.8
    endloop
  endfacet
  facet normal 0 0 1
    outer loop
      vertex 0.852694 -4.15287 4.8
      vertex 0 0 4.8
      vertex 0.805866 -4.58344 4.8
    endloop
  endfacet
  facet normal 0 0 1
    outer loop
      vertex 0.945799 -3.72989 4.8
      vertex 0 0 4.8
      vertex 0.852694 -4.15287 4.8
    endloop
  endfacet
  facet normal 0 0 1
    outer loop
      vertex 1.08409 -3.31945 4.8
      vertex 0 0 4.8
      vertex 0.945799 -3.72989 4.8
    endloop
  endfacet
  facet normal 0 0 1
    outer loop
      vertex 1.26595 -2.92637 4.8
      vertex 0 0 4.8
      vertex 1.08409 -3.31945 4.8
    endloop
  endfacet
  facet normal 0 0 1
    outer loop
      vertex 1.48924 -2.55525 4.8
      vertex 0 0 4.8
      vertex 1.26595 -2.92637 4.8
    endloop
  endfacet
  facet normal 0 0 1
    outer loop
      vertex 1.75135 -2.21045 4.8
      vertex 0 0 4.8
      vertex 1.48924 -2.55525 4.8
    endloop
  endfacet
  facet normal 0 0 1
    outer loop
      vertex 2.0492 -1.89602 4.8
      vertex 0 0 4.8
      vertex 1.75135 -2.21045 4.8
    endloop
  endfacet
  facet normal 0 0 1
    outer loop
      vertex 2.3793 -1.61563 4.8
      vertex 0 0 4.8
      vertex 2.0492 -1.89602 4.8
    endloop
  endfacet
  facet normal 0 0 1
    outer loop
      vertex 2.73778 -1.37257 4.8
      vertex 0 0 4.8
      vertex 2.3793 -1.61563 4.8
    endloop
  endfacet
  facet normal 0 0 1
    outer loop
      vertex 3.12044 -1.1697 4.8
      vertex 0 0 4.8
      vertex 2.73778 -1.37257 4.8
    endloop
  endfacet
  facet normal 0 0 1
    outer loop
      vertex 3.52279 -1.00939 4.8
      vertex 0 0 4.8
      vertex 3.12044 -1.1697 4.8
    endloop
  endfacet
  facet normal 0 0 1
    outer loop
      vertex 3.94012 -0.893517 4.8
      vertex 0 0 4.8
      vertex 3.52279 -1.00939 4.8
    endloop
  endfacet
  facet normal 0 0 1
    outer loop
      vertex 4.36752 -0.823448 4.8
      vertex 0 0 4.8
      vertex 3.94012 -0.893517 4.8
    endloop
  endfacet
  facet normal 0 0 1
    outer loop
      vertex 4.8 -0.799999 4.8
      vertex 0 0 4.8
      vertex 4.36752 -0.823448 4.8
    endloop
  endfacet
  facet normal -0 0 1
    outer loop
      vertex 8.79413 -5.01656 4.8
      vertex 9.6 -9.6 4.8
      vertex 8.79413 -4.58344 4.8
    endloop
  endfacet
  facet normal -0 0 1
    outer loop
      vertex 8.7473 -5.44713 4.8
      vertex 9.6 -9.6 4.8
      vertex 8.79413 -5.01656 4.8
    endloop
  endfacet
  facet normal -0 0 1
    outer loop
      vertex 8.6542 -5.87011 4.8
      vertex 9.6 -9.6 4.8
      vertex 8.7473 -5.44713 4.8
    endloop
  endfacet
  facet normal -0 0 1
    outer loop
      vertex 8.51591 -6.28055 4.8
      vertex 9.6 -9.6 4.8
      vertex 8.6542 -5.87011 4.8
    endloop
  endfacet
  facet normal -0 0 1
    outer loop
      vertex 8.33405 -6.67363 4.8
      vertex 9.6 -9.6 4.8
      vertex 8.51591 -6.28055 4.8
    endloop
  endfacet
  facet normal -0 0 1
    outer loop
      vertex 8.11076 -7.04475 4.8
      vertex 9.6 -9.6 4.8
      vertex 8.33405 -6.67363 4.8
    endloop
  endfacet
  facet normal -0 0 1
    outer loop
      vertex 7.84865 -7.38955 4.8
      vertex 9.6 -9.6 4.8
      vertex 8.11076 -7.04475 4.8
    endloop
  endfacet
  facet normal -0 0 1
    outer loop
      vertex 7.5508 -7.70398 4.8
      vertex 9.6 -9.6 4.8
      vertex 7.84865 -7.38955 4.8
    endloop
  endfacet
  facet normal -0 0 1
    outer loop
      vertex 7.2207 -7.98437 4.8
      vertex 9.6 -9.6 4.8
      vertex 7.5508 -7.70398 4.8
    endloop
  endfacet
  facet normal -0 0 1
    outer loop
      vertex 6.86222 -8.22743 4.8
      vertex 9.6 -9.6 4.8
      vertex 7.2207 -7.98437 4.8
    endloop
  endfacet
  facet normal -0 0 1
    outer loop
      vertex 6.47956 -8.4303 4.8
      vertex 9.6 -9.6 4.8
      vertex 6.86222 -8.22743 4.8
    endloop
  endfacet
  facet normal -0 0 1
    outer loop
      vertex 6.0772 -8.59061 4.8
      vertex 9.6 -9.6 4.8
      vertex 6.47956 -8.4303 4.8
    endloop
  endfacet
  facet normal -0 0 1
    outer loop
      vertex 5.65988 -8.70648 4.8
      vertex 9.6 -9.6 4.8
      vertex 6.0772 -8.59061 4.8
    endloop
  endfacet
  facet normal -0 0 1
    outer loop
      vertex 5.23248 -8.77655 4.8
      vertex 9.6 -9.6 4.8
      vertex 5.65988 -8.70648 4.8
    endloop
  endfacet
  facet normal -0 0 1
    outer loop
      vertex 4.8 -8.8 4.8
      vertex 9.6 -9.6 4.8
      vertex 5.23248 -8.77655 4.8
    endloop
  endfacet
  facet normal 0 0 1
    outer loop
      vertex 0 -9.6 4.8
      vertex 4.8 -8.8 4.8
      vertex 4.36752 -8.77655 4.8
    endloop
  endfacet
  facet normal 0 0 1
    outer loop
      vertex 0 -9.6 4.8
      vertex 0.805866 -5.01656 4.8
      vertex 0 0 4.8
    endloop
  endfacet
  facet normal 0 0 1
    outer loop
      vertex 4.8 -8.8 4.8
      vertex 0 -9.6 4.8
      vertex 9.6 -9.6 4.8
    endloop
  endfacet
  facet normal 0 0 1
    outer loop
      vertex 3.94012 -8.70648 4.8
      vertex 0 -9.6 4.8
      vertex 4.36752 -8.77655 4.8
    endloop
  endfacet
  facet normal 0 0 1
    outer loop
      vertex 3.52279 -8.59061 4.8
      vertex 0 -9.6 4.8
      vertex 3.94012 -8.70648 4.8
    endloop
  endfacet
  facet normal 0 0 1
    outer loop
      vertex 3.12044 -8.4303 4.8
      vertex 0 -9.6 4.8
      vertex 3.52279 -8.59061 4.8
    endloop
  endfacet
  facet normal 0 0 1
    outer loop
      vertex 2.73778 -8.22743 4.8
      vertex 0 -9.6 4.8
      vertex 3.12044 -8.4303 4.8
    endloop
  endfacet
  facet normal 0 0 1
    outer loop
      vertex 2.3793 -7.98437 4.8
      vertex 0 -9.6 4.8
      vertex 2.73778 -8.22743 4.8
    endloop
  endfacet
  facet normal 0 0 1
    outer loop
      vertex 2.0492 -7.70398 4.8
      vertex 0 -9.6 4.8
      vertex 2.3793 -7.98437 4.8
    endloop
  endfacet
  facet normal 0 0 1
    outer loop
      vertex 1.75135 -7.38955 4.8
      vertex 0 -9.6 4.8
      vertex 2.0492 -7.70398 4.8
    endloop
  endfacet
  facet normal 0 0 1
    outer loop
      vertex 1.48924 -7.04475 4.8
      vertex 0 -9.6 4.8
      vertex 1.75135 -7.38955 4.8
    endloop
  endfacet
  facet normal 0 0 1
    outer loop
      vertex 1.26595 -6.67363 4.8
      vertex 0 -9.6 4.8
      vertex 1.48924 -7.04475 4.8
    endloop
  endfacet
  facet normal 0 0 1
    outer loop
      vertex 1.08409 -6.28055 4.8
      vertex 0 -9.6 4.8
      vertex 1.26595 -6.67363 4.8
    endloop
  endfacet
  facet normal 0 0 1
    outer loop
      vertex 0.945799 -5.87011 4.8
      vertex 0 -9.6 4.8
      vertex 1.08409 -6.28055 4.8
    endloop
  endfacet
  facet normal 0 0 1
    outer loop
      vertex 0.852694 -5.44713 4.8
      vertex 0 -9.6 4.8
      vertex 0.945799 -5.87011 4.8
    endloop
  endfacet
  facet normal 0 0 1
    outer loop
      vertex 0.805866 -5.01656 4.8
      vertex 0 -9.6 4.8
      vertex 0.852694 -5.44713 4.8
    endloop
  endfacet
  facet normal -0.153485 -0.936326 -0.315811
    outer loop
      vertex 5.48791 -1.67481 2.4
      vertex 5.14598 -1.61876 2.4
      vertex 5.23248 -0.823448 0
    endloop
  endfacet
  facet normal -0.153503 -0.936323 -0.315809
    outer loop
      vertex 5.65988 -0.893517 0
      vertex 5.48791 -1.67481 2.4
      vertex 5.23248 -0.823448 0
    endloop
  endfacet
  facet normal -0.253855 -0.914234 -0.315808
    outer loop
      vertex 5.82176 -1.76751 2.4
      vertex 5.48791 -1.67481 2.4
      vertex 5.65988 -0.893517 0
    endloop
  endfacet
  facet normal -0.253846 -0.914235 -0.315809
    outer loop
      vertex 6.0772 -1.00939 0
      vertex 5.82176 -1.76751 2.4
      vertex 5.65988 -0.893517 0
    endloop
  endfacet
  facet normal -0.351189 -0.881437 -0.315809
    outer loop
      vertex 6.14365 -1.89576 2.4
      vertex 5.82176 -1.76751 2.4
      vertex 6.0772 -1.00939 0
    endloop
  endfacet
  facet normal -0.351186 -0.881438 -0.31581
    outer loop
      vertex 6.47956 -1.1697 0
      vertex 6.14365 -1.89576 2.4
      vertex 6.0772 -1.00939 0
    endloop
  endfacet
  facet normal -0.444448 -0.83829 -0.31581
    outer loop
      vertex 6.44977 -2.05806 2.4
      vertex 6.14365 -1.89576 2.4
      vertex 6.47956 -1.1697 0
    endloop
  endfacet
  facet normal -0.44443 -0.838298 -0.315813
    outer loop
      vertex 6.86222 -1.37257 0
      vertex 6.44977 -2.05806 2.4
      vertex 6.47956 -1.1697 0
    endloop
  endfacet
  facet normal -0.53245 -0.78534 -0.315813
    outer loop
      vertex 6.73656 -2.2525 2.4
      vertex 6.44977 -2.05806 2.4
      vertex 6.86222 -1.37257 0
    endloop
  endfacet
  facet normal -0.532474 -0.785326 -0.315809
    outer loop
      vertex 7.2207 -1.61563 0
      vertex 6.73656 -2.2525 2.4
      vertex 6.86222 -1.37257 0
    endloop
  endfacet
  facet normal -0.614252 -0.723159 -0.315809
    outer loop
      vertex 7.00064 -2.47681 2.4
      vertex 6.73656 -2.2525 2.4
      vertex 7.2207 -1.61563 0
    endloop
  endfacet
  facet normal -0.614256 -0.723156 -0.315809
    outer loop
      vertex 7.5508 -1.89602 0
      vertex 7.00064 -2.47681 2.4
      vertex 7.2207 -1.61563 0
    endloop
  endfacet
  facet normal -0.688842 -0.652504 -0.315809
    outer loop
      vertex 7.23892 -2.72836 2.4
      vertex 7.00064 -2.47681 2.4
      vertex 7.5508 -1.89602 0
    endloop
  endfacet
  facet normal -0.688834 -0.652512 -0.31581
    outer loop
      vertex 7.84865 -2.21045 0
      vertex 7.23892 -2.72836 2.4
      vertex 7.5508 -1.89602 0
    endloop
  endfacet
  facet normal -0.755362 -0.574189 -0.31581
    outer loop
      vertex 7.4486 -3.0042 2.4
      vertex 7.23892 -2.72836 2.4
      vertex 7.84865 -2.21045 0
    endloop
  endfacet
  facet normal -0.75535 -0.574202 -0.315813
    outer loop
      vertex 8.11076 -2.55525 0
      vertex 7.4486 -3.0042 2.4
      vertex 7.84865 -2.21045 0
    endloop
  endfacet
  facet normal -0.812996 -0.489183 -0.315813
    outer loop
      vertex 7.62724 -3.30109 2.4
      vertex 7.4486 -3.0042 2.4
      vertex 8.11076 -2.55525 0
    endloop
  endfacet
  facet normal -0.813011 -0.48916 -0.315809
    outer loop
      vertex 8.33405 -2.92637 0
      vertex 7.62724 -3.30109 2.4
      vertex 8.11076 -2.55525 0
    endloop
  endfacet
  facet normal -0.861138 -0.398379 -0.315809
    outer loop
      vertex 7.77272 -3.61556 2.4
      vertex 7.62724 -3.30109 2.4
      vertex 8.33405 -2.92637 0
    endloop
  endfacet
  facet normal -0.861126 -0.398403 -0.315813
    outer loop
      vertex 8.51591 -3.31945 0
      vertex 7.77272 -3.61556 2.4
      vertex 8.33405 -2.92637 0
    endloop
  endfacet
  facet normal -0.899149 -0.302975 -0.315813
    outer loop
      vertex 7.88336 -3.94391 2.4
      vertex 7.77272 -3.61556 2.4
      vertex 8.51591 -3.31945 0
    endloop
  endfacet
  facet normal -0.899157 -0.302954 -0.31581
    outer loop
      vertex 8.6542 -3.72989 0
      vertex 7.88336 -3.94391 2.4
      vertex 8.51591 -3.31945 0
    endloop
  endfacet
  facet normal -0.926637 -0.203981 -0.31581
    outer loop
      vertex 7.95785 -4.2823 2.4
      vertex 7.88336 -3.94391 2.4
      vertex 8.6542 -3.72989 0
    endloop
  endfacet
  facet normal -0.926643 -0.203959 -0.315807
    outer loop
      vertex 8.7473 -4.15287 0
      vertex 7.95785 -4.2823 2.4
      vertex 8.6542 -3.72989 0
    endloop
  endfacet
  facet normal -0.943262 -0.10258 -0.315806
    outer loop
      vertex 7.99531 -4.62676 2.4
      vertex 7.95785 -4.2823 2.4
      vertex 8.7473 -4.15287 0
    endloop
  endfacet
  facet normal -0.94326 -0.102592 -0.315808
    outer loop
      vertex 8.79413 -4.58344 0
      vertex 7.99531 -4.62676 2.4
      vertex 8.7473 -4.15287 0
    endloop
  endfacet
  facet normal -0.948823 0 -0.315808
    outer loop
      vertex 8.79413 -4.58344 0
      vertex 7.99531 -4.97324 2.4
      vertex 7.99531 -4.62676 2.4
    endloop
  endfacet
  facet normal -0.948823 0 -0.315808
    outer loop
      vertex 7.99531 -4.97324 2.4
      vertex 8.79413 -4.58344 0
      vertex 8.79413 -5.01656 0
    endloop
  endfacet
  facet normal -0.943262 0.10258 -0.315808
    outer loop
      vertex 8.79413 -5.01656 0
      vertex 7.95785 -5.3177 2.4
      vertex 7.99531 -4.97324 2.4
    endloop
  endfacet
  facet normal -0.943261 0.102592 -0.315807
    outer loop
      vertex 8.7473 -5.44713 0
      vertex 7.95785 -5.3177 2.4
      vertex 8.79413 -5.01656 0
    endloop
  endfacet
  facet normal -0.926638 0.203981 -0.315807
    outer loop
      vertex 8.7473 -5.44713 0
      vertex 7.88336 -5.65609 2.4
      vertex 7.95785 -5.3177 2.4
    endloop
  endfacet
  facet normal -0.926642 0.203958 -0.31581
    outer loop
      vertex 8.6542 -5.87011 0
      vertex 7.88336 -5.65609 2.4
      vertex 8.7473 -5.44713 0
    endloop
  endfacet
  facet normal -0.89915 0.302975 -0.31581
    outer loop
      vertex 8.6542 -5.87011 0
      vertex 7.77272 -5.98444 2.4
      vertex 7.88336 -5.65609 2.4
    endloop
  endfacet
  facet normal -0.899156 0.302954 -0.315813
    outer loop
      vertex 8.51591 -6.28055 0
      vertex 7.77272 -5.98444 2.4
      vertex 8.6542 -5.87011 0
    endloop
  endfacet
  facet normal -0.861137 0.398379 -0.315813
    outer loop
      vertex 8.51591 -6.28055 0
      vertex 7.62724 -6.29891 2.4
      vertex 7.77272 -5.98444 2.4
    endloop
  endfacet
  facet normal -0.861127 0.398404 -0.315809
    outer loop
      vertex 8.33405 -6.67363 0
      vertex 7.62724 -6.29891 2.4
      vertex 8.51591 -6.28055 0
    endloop
  endfacet
  facet normal -0.812997 0.489184 -0.315809
    outer loop
      vertex 8.33405 -6.67363 0
      vertex 7.4486 -6.5958 2.4
      vertex 7.62724 -6.29891 2.4
    endloop
  endfacet
  facet normal -0.81301 0.48916 -0.315813
    outer loop
      vertex 8.33405 -6.67363 0
      vertex 8.11076 -7.04475 0
      vertex 7.4486 -6.5958 2.4
    endloop
  endfacet
  facet normal -0.755361 0.574188 -0.315813
    outer loop
      vertex 8.11076 -7.04475 0
      vertex 7.23892 -6.87164 2.4
      vertex 7.4486 -6.5958 2.4
    endloop
  endfacet
  facet normal -0.755351 0.574203 -0.315811
    outer loop
      vertex 8.11076 -7.04475 0
      vertex 7.84865 -7.38955 0
      vertex 7.23892 -6.87164 2.4
    endloop
  endfacet
  facet normal -0.688842 0.652503 -0.315811
    outer loop
      vertex 7.84865 -7.38955 0
      vertex 7.00064 -7.12319 2.4
      vertex 7.23892 -6.87164 2.4
    endloop
  endfacet
  facet normal -0.688834 0.652512 -0.315809
    outer loop
      vertex 7.84865 -7.38955 0
      vertex 7.5508 -7.70398 0
      vertex 7.00064 -7.12319 2.4
    endloop
  endfacet
  facet normal -0.614252 0.723159 -0.315809
    outer loop
      vertex 7.5508 -7.70398 0
      vertex 6.73656 -7.3475 2.4
      vertex 7.00064 -7.12319 2.4
    endloop
  endfacet
  facet normal -0.614255 0.723156 -0.315809
    outer loop
      vertex 7.5508 -7.70398 0
      vertex 7.2207 -7.98437 0
      vertex 6.73656 -7.3475 2.4
    endloop
  endfacet
  facet normal -0.532451 0.785341 -0.315809
    outer loop
      vertex 7.2207 -7.98437 0
      vertex 6.44977 -7.54194 2.4
      vertex 6.73656 -7.3475 2.4
    endloop
  endfacet
  facet normal -0.532473 0.785325 -0.315813
    outer loop
      vertex 7.2207 -7.98437 0
      vertex 6.86222 -8.22743 0
      vertex 6.44977 -7.54194 2.4
    endloop
  endfacet
  facet normal -0.444448 0.838289 -0.315813
    outer loop
      vertex 6.86222 -8.22743 0
      vertex 6.14365 -7.70424 2.4
      vertex 6.44977 -7.54194 2.4
    endloop
  endfacet
  facet normal -0.44443 0.838299 -0.31581
    outer loop
      vertex 6.86222 -8.22743 0
      vertex 6.47956 -8.4303 0
      vertex 6.14365 -7.70424 2.4
    endloop
  endfacet
  facet normal -0.351189 0.881437 -0.31581
    outer loop
      vertex 6.47956 -8.4303 0
      vertex 5.82176 -7.83249 2.4
      vertex 6.14365 -7.70424 2.4
    endloop
  endfacet
  facet normal -0.351186 0.881438 -0.315809
    outer loop
      vertex 6.47956 -8.4303 0
      vertex 6.0772 -8.59061 0
      vertex 5.82176 -7.83249 2.4
    endloop
  endfacet
  facet normal -0.253855 0.914233 -0.31581
    outer loop
      vertex 6.0772 -8.59061 0
      vertex 5.48791 -7.92519 2.4
      vertex 5.82176 -7.83249 2.4
    endloop
  endfacet
  facet normal -0.253841 0.914238 -0.315807
    outer loop
      vertex 6.0772 -8.59061 0
      vertex 5.65988 -8.70648 0
      vertex 5.48791 -7.92519 2.4
    endloop
  endfacet
  facet normal -0.153485 0.936327 -0.315807
    outer loop
      vertex 5.65988 -8.70648 0
      vertex 5.14598 -7.98124 2.4
      vertex 5.48791 -7.92519 2.4
    endloop
  endfacet
  facet normal -0.153505 0.936323 -0.31581
    outer loop
      vertex 5.65988 -8.70648 0
      vertex 5.23248 -8.77655 0
      vertex 5.14598 -7.98124 2.4
    endloop
  endfacet
  facet normal -0.0513723 0.947431 -0.31581
    outer loop
      vertex 5.23248 -8.77655 0
      vertex 4.8 -8 2.4
      vertex 5.14598 -7.98124 2.4
    endloop
  endfacet
  facet normal -0.0513717 0.947431 -0.31581
    outer loop
      vertex 5.23248 -8.77655 0
      vertex 4.8 -8.8 0
      vertex 4.8 -8 2.4
    endloop
  endfacet
  facet normal 0.0513723 0.947431 -0.31581
    outer loop
      vertex 4.8 -8 2.4
      vertex 4.8 -8.8 0
      vertex 4.45402 -7.98124 2.4
    endloop
  endfacet
  facet normal 0.0513717 0.947431 -0.31581
    outer loop
      vertex 4.8 -8.8 0
      vertex 4.36752 -8.77655 0
      vertex 4.45402 -7.98124 2.4
    endloop
  endfacet
  facet normal 0.153485 0.936326 -0.315811
    outer loop
      vertex 4.45402 -7.98124 2.4
      vertex 4.36752 -8.77655 0
      vertex 4.11209 -7.92519 2.4
    endloop
  endfacet
  facet normal 0.153505 0.936323 -0.315808
    outer loop
      vertex 4.36752 -8.77655 0
      vertex 3.94012 -8.70648 0
      vertex 4.11209 -7.92519 2.4
    endloop
  endfacet
  facet normal 0.253848 0.914236 -0.315807
    outer loop
      vertex 4.11209 -7.92519 2.4
      vertex 3.94012 -8.70648 0
      vertex 3.77823 -7.83249 2.4
    endloop
  endfacet
  facet normal 0.253835 0.914239 -0.315809
    outer loop
      vertex 3.94012 -8.70648 0
      vertex 3.52279 -8.59061 0
      vertex 3.77823 -7.83249 2.4
    endloop
  endfacet
  facet normal 0.351199 0.881433 -0.315809
    outer loop
      vertex 3.77823 -7.83249 2.4
      vertex 3.52279 -8.59061 0
      vertex 3.45635 -7.70424 2.4
    endloop
  endfacet
  facet normal 0.351194 0.881435 -0.31581
    outer loop
      vertex 3.52279 -8.59061 0
      vertex 3.12044 -8.4303 0
      vertex 3.45635 -7.70424 2.4
    endloop
  endfacet
  facet normal 0.444448 0.83829 -0.31581
    outer loop
      vertex 3.45635 -7.70424 2.4
      vertex 3.12044 -8.4303 0
      vertex 3.15023 -7.54194 2.4
    endloop
  endfacet
  facet normal 0.44443 0.838298 -0.315813
    outer loop
      vertex 3.12044 -8.4303 0
      vertex 2.73778 -8.22743 0
      vertex 3.15023 -7.54194 2.4
    endloop
  endfacet
  facet normal 0.53245 0.78534 -0.315813
    outer loop
      vertex 3.15023 -7.54194 2.4
      vertex 2.73778 -8.22743 0
      vertex 2.86344 -7.3475 2.4
    endloop
  endfacet
  facet normal 0.532474 0.785326 -0.315809
    outer loop
      vertex 2.73778 -8.22743 0
      vertex 2.3793 -7.98437 0
      vertex 2.86344 -7.3475 2.4
    endloop
  endfacet
  facet normal 0.614252 0.723159 -0.315809
    outer loop
      vertex 2.86344 -7.3475 2.4
      vertex 2.3793 -7.98437 0
      vertex 2.59936 -7.12319 2.4
    endloop
  endfacet
  facet normal 0.614256 0.723156 -0.315809
    outer loop
      vertex 2.3793 -7.98437 0
      vertex 2.0492 -7.70398 0
      vertex 2.59936 -7.12319 2.4
    endloop
  endfacet
  facet normal 0.688842 0.652504 -0.315809
    outer loop
      vertex 2.59936 -7.12319 2.4
      vertex 2.0492 -7.70398 0
      vertex 2.36108 -6.87164 2.4
    endloop
  endfacet
  facet normal 0.688834 0.652512 -0.31581
    outer loop
      vertex 2.0492 -7.70398 0
      vertex 1.75135 -7.38955 0
      vertex 2.36108 -6.87164 2.4
    endloop
  endfacet
  facet normal 0.755348 0.574206 -0.315811
    outer loop
      vertex 2.36108 -6.87164 2.4
      vertex 1.75135 -7.38955 0
      vertex 2.15139 -6.5958 2.4
    endloop
  endfacet
  facet normal 0.755351 0.574203 -0.31581
    outer loop
      vertex 1.75135 -7.38955 0
      vertex 1.48924 -7.04475 0
      vertex 2.15139 -6.5958 2.4
    endloop
  endfacet
  facet normal 0.813009 0.489163 -0.31581
    outer loop
      vertex 2.15139 -6.5958 2.4
      vertex 1.48924 -7.04475 0
      vertex 1.97276 -6.29891 2.4
    endloop
  endfacet
  facet normal 0.813011 0.48916 -0.315809
    outer loop
      vertex 1.48924 -7.04475 0
      vertex 1.26595 -6.67363 0
      vertex 1.97276 -6.29891 2.4
    endloop
  endfacet
  facet normal 0.861127 0.398402 -0.315809
    outer loop
      vertex 1.97276 -6.29891 2.4
      vertex 1.26595 -6.67363 0
      vertex 1.82727 -5.98444 2.4
    endloop
  endfacet
  facet normal 0.861127 0.398404 -0.31581
    outer loop
      vertex 1.26595 -6.67363 0
      vertex 1.08409 -6.28055 0
      vertex 1.82727 -5.98444 2.4
    endloop
  endfacet
  facet normal 0.899158 0.302951 -0.31581
    outer loop
      vertex 1.82727 -5.98444 2.4
      vertex 1.08409 -6.28055 0
      vertex 1.71664 -5.65609 2.4
    endloop
  endfacet
  facet normal 0.899156 0.302956 -0.31581
    outer loop
      vertex 1.08409 -6.28055 0
      vertex 0.945799 -5.87011 0
      vertex 1.71664 -5.65609 2.4
    endloop
  endfacet
  facet normal 0.926637 0.203981 -0.315811
    outer loop
      vertex 1.71664 -5.65609 2.4
      vertex 0.945799 -5.87011 0
      vertex 1.64215 -5.3177 2.4
    endloop
  endfacet
  facet normal 0.92664 0.203969 -0.315809
    outer loop
      vertex 0.945799 -5.87011 0
      vertex 0.852694 -5.44713 0
      vertex 1.64215 -5.3177 2.4
    endloop
  endfacet
  facet normal 0.943262 0.10258 -0.315808
    outer loop
      vertex 1.64215 -5.3177 2.4
      vertex 0.852694 -5.44713 0
      vertex 1.60469 -4.97324 2.4
    endloop
  endfacet
  facet normal 0.94326 0.102587 -0.31581
    outer loop
      vertex 0.852694 -5.44713 0
      vertex 0.805866 -5.01656 0
      vertex 1.60469 -4.97324 2.4
    endloop
  endfacet
  facet normal 0.948823 0 -0.315809
    outer loop
      vertex 1.60469 -4.97324 2.4
      vertex 0.805866 -4.58344 0
      vertex 1.60469 -4.62676 2.4
    endloop
  endfacet
  facet normal 0.948823 0 -0.315809
    outer loop
      vertex 0.805866 -4.58344 0
      vertex 1.60469 -4.97324 2.4
      vertex 0.805866 -5.01656 0
    endloop
  endfacet
  facet normal 0.943261 -0.10258 -0.31581
    outer loop
      vertex 1.60469 -4.62676 2.4
      vertex 0.805866 -4.58344 0
      vertex 1.64215 -4.2823 2.4
    endloop
  endfacet
  facet normal 0.943261 -0.102587 -0.315809
    outer loop
      vertex 1.64215 -4.2823 2.4
      vertex 0.805866 -4.58344 0
      vertex 0.852694 -4.15287 0
    endloop
  endfacet
  facet normal 0.926637 -0.203981 -0.315809
    outer loop
      vertex 1.64215 -4.2823 2.4
      vertex 0.852694 -4.15287 0
      vertex 1.71664 -3.94391 2.4
    endloop
  endfacet
  facet normal 0.926639 -0.203969 -0.31581
    outer loop
      vertex 1.71664 -3.94391 2.4
      vertex 0.852694 -4.15287 0
      vertex 0.945799 -3.72989 0
    endloop
  endfacet
  facet normal 0.899158 -0.302951 -0.31581
    outer loop
      vertex 1.71664 -3.94391 2.4
      vertex 0.945799 -3.72989 0
      vertex 1.82727 -3.61556 2.4
    endloop
  endfacet
  facet normal 0.899156 -0.302956 -0.31581
    outer loop
      vertex 1.82727 -3.61556 2.4
      vertex 0.945799 -3.72989 0
      vertex 1.08409 -3.31945 0
    endloop
  endfacet
  facet normal 0.861127 -0.398402 -0.31581
    outer loop
      vertex 1.82727 -3.61556 2.4
      vertex 1.08409 -3.31945 0
      vertex 1.97276 -3.30109 2.4
    endloop
  endfacet
  facet normal 0.861127 -0.398404 -0.315809
    outer loop
      vertex 1.97276 -3.30109 2.4
      vertex 1.08409 -3.31945 0
      vertex 1.26595 -2.92637 0
    endloop
  endfacet
  facet normal 0.813009 -0.489164 -0.315809
    outer loop
      vertex 2.15139 -3.0042 2.4
      vertex 1.97276 -3.30109 2.4
      vertex 1.26595 -2.92637 0
    endloop
  endfacet
  facet normal 0.813011 -0.48916 -0.31581
    outer loop
      vertex 2.15139 -3.0042 2.4
      vertex 1.26595 -2.92637 0
      vertex 1.48924 -2.55525 0
    endloop
  endfacet
  facet normal 0.755349 -0.574206 -0.31581
    outer loop
      vertex 2.36108 -2.72836 2.4
      vertex 2.15139 -3.0042 2.4
      vertex 1.48924 -2.55525 0
    endloop
  endfacet
  facet normal 0.755351 -0.574203 -0.315811
    outer loop
      vertex 2.36108 -2.72836 2.4
      vertex 1.48924 -2.55525 0
      vertex 1.75135 -2.21045 0
    endloop
  endfacet
  facet normal 0.688842 -0.652503 -0.315811
    outer loop
      vertex 2.59936 -2.47681 2.4
      vertex 2.36108 -2.72836 2.4
      vertex 1.75135 -2.21045 0
    endloop
  endfacet
  facet normal 0.688834 -0.652512 -0.315809
    outer loop
      vertex 2.59936 -2.47681 2.4
      vertex 1.75135 -2.21045 0
      vertex 2.0492 -1.89602 0
    endloop
  endfacet
  facet normal 0.614252 -0.723159 -0.315809
    outer loop
      vertex 2.86344 -2.2525 2.4
      vertex 2.59936 -2.47681 2.4
      vertex 2.0492 -1.89602 0
    endloop
  endfacet
  facet normal 0.614255 -0.723156 -0.315809
    outer loop
      vertex 2.86344 -2.2525 2.4
      vertex 2.0492 -1.89602 0
      vertex 2.3793 -1.61563 0
    endloop
  endfacet
  facet normal 0.532451 -0.785341 -0.315809
    outer loop
      vertex 3.15023 -2.05806 2.4
      vertex 2.86344 -2.2525 2.4
      vertex 2.3793 -1.61563 0
    endloop
  endfacet
  facet normal 0.532473 -0.785325 -0.315813
    outer loop
      vertex 3.15023 -2.05806 2.4
      vertex 2.3793 -1.61563 0
      vertex 2.73778 -1.37257 0
    endloop
  endfacet
  facet normal 0.444448 -0.838289 -0.315813
    outer loop
      vertex 3.45635 -1.89576 2.4
      vertex 3.15023 -2.05806 2.4
      vertex 2.73778 -1.37257 0
    endloop
  endfacet
  facet normal 0.44443 -0.838299 -0.31581
    outer loop
      vertex 3.45635 -1.89576 2.4
      vertex 2.73778 -1.37257 0
      vertex 3.12044 -1.1697 0
    endloop
  endfacet
  facet normal 0.351198 -0.881433 -0.31581
    outer loop
      vertex 3.77823 -1.76751 2.4
      vertex 3.45635 -1.89576 2.4
      vertex 3.12044 -1.1697 0
    endloop
  endfacet
  facet normal 0.351194 -0.881435 -0.315809
    outer loop
      vertex 3.77823 -1.76751 2.4
      vertex 3.12044 -1.1697 0
      vertex 3.52279 -1.00939 0
    endloop
  endfacet
  facet normal 0.253848 -0.914235 -0.315809
    outer loop
      vertex 4.11209 -1.67481 2.4
      vertex 3.77823 -1.76751 2.4
      vertex 3.52279 -1.00939 0
    endloop
  endfacet
  facet normal 0.253841 -0.914237 -0.315808
    outer loop
      vertex 4.11209 -1.67481 2.4
      vertex 3.52279 -1.00939 0
      vertex 3.94012 -0.893517 0
    endloop
  endfacet
  facet normal 0.153485 -0.936327 -0.315808
    outer loop
      vertex 4.45402 -1.61876 2.4
      vertex 4.11209 -1.67481 2.4
      vertex 3.94012 -0.893517 0
    endloop
  endfacet
  facet normal 0.153503 -0.936323 -0.315811
    outer loop
      vertex 4.45402 -1.61876 2.4
      vertex 3.94012 -0.893517 0
      vertex 4.36752 -0.823448 0
    endloop
  endfacet
  facet normal 0.0513723 -0.94743 -0.315811
    outer loop
      vertex 4.8 -1.6 2.4
      vertex 4.45402 -1.61876 2.4
      vertex 4.36752 -0.823448 0
    endloop
  endfacet
  facet normal 0.0513695 -0.947431 -0.315811
    outer loop
      vertex 4.8 -1.6 2.4
      vertex 4.36752 -0.823448 0
      vertex 4.8 -0.799999 0
    endloop
  endfacet
  facet normal -0.0513723 -0.947431 -0.315811
    outer loop
      vertex 5.14598 -1.61876 2.4
      vertex 4.8 -1.6 2.4
      vertex 4.8 -0.799999 0
    endloop
  endfacet
  facet normal -0.0513695 -0.947431 -0.315811
    outer loop
      vertex 5.23248 -0.823448 0
      vertex 5.14598 -1.61876 2.4
      vertex 4.8 -0.799999 0
    endloop
  endfacet
  facet normal -0.153485 0.936326 0.315811
    outer loop
      vertex 5.14598 -7.98124 2.4
      vertex 5.23248 -8.77655 4.8
      vertex 5.48791 -7.92519 2.4
    endloop
  endfacet
  facet normal -0.153505 0.936323 0.315808
    outer loop
      vertex 5.23248 -8.77655 4.8
      vertex 5.65988 -8.70648 4.8
      vertex 5.48791 -7.92519 2.4
    endloop
  endfacet
  facet normal -0.253855 0.914234 0.315807
    outer loop
      vertex 5.48791 -7.92519 2.4
      vertex 5.65988 -8.70648 4.8
      vertex 5.82176 -7.83249 2.4
    endloop
  endfacet
  facet normal -0.25384 0.914237 0.315809
    outer loop
      vertex 5.65988 -8.70648 4.8
      vertex 6.0772 -8.59061 4.8
      vertex 5.82176 -7.83249 2.4
    endloop
  endfacet
  facet normal -0.351189 0.881437 0.315809
    outer loop
      vertex 5.82176 -7.83249 2.4
      vertex 6.0772 -8.59061 4.8
      vertex 6.14365 -7.70424 2.4
    endloop
  endfacet
  facet normal -0.351186 0.881438 0.31581
    outer loop
      vertex 6.0772 -8.59061 4.8
      vertex 6.47956 -8.4303 4.8
      vertex 6.14365 -7.70424 2.4
    endloop
  endfacet
  facet normal -0.444448 0.83829 0.31581
    outer loop
      vertex 6.14365 -7.70424 2.4
      vertex 6.47956 -8.4303 4.8
      vertex 6.44977 -7.54194 2.4
    endloop
  endfacet
  facet normal -0.44443 0.838298 0.315813
    outer loop
      vertex 6.47956 -8.4303 4.8
      vertex 6.86222 -8.22743 4.8
      vertex 6.44977 -7.54194 2.4
    endloop
  endfacet
  facet normal -0.53245 0.78534 0.315813
    outer loop
      vertex 6.44977 -7.54194 2.4
      vertex 6.86222 -8.22743 4.8
      vertex 6.73656 -7.3475 2.4
    endloop
  endfacet
  facet normal -0.532474 0.785326 0.315809
    outer loop
      vertex 6.86222 -8.22743 4.8
      vertex 7.2207 -7.98437 4.8
      vertex 6.73656 -7.3475 2.4
    endloop
  endfacet
  facet normal -0.614252 0.723159 0.315809
    outer loop
      vertex 6.73656 -7.3475 2.4
      vertex 7.2207 -7.98437 4.8
      vertex 7.00064 -7.12319 2.4
    endloop
  endfacet
  facet normal -0.614256 0.723156 0.315809
    outer loop
      vertex 7.2207 -7.98437 4.8
      vertex 7.5508 -7.70398 4.8
      vertex 7.00064 -7.12319 2.4
    endloop
  endfacet
  facet normal -0.688842 0.652504 0.315809
    outer loop
      vertex 7.00064 -7.12319 2.4
      vertex 7.5508 -7.70398 4.8
      vertex 7.23892 -6.87164 2.4
    endloop
  endfacet
  facet normal -0.688834 0.652512 0.31581
    outer loop
      vertex 7.5508 -7.70398 4.8
      vertex 7.84865 -7.38955 4.8
      vertex 7.23892 -6.87164 2.4
    endloop
  endfacet
  facet normal -0.755362 0.574189 0.31581
    outer loop
      vertex 7.23892 -6.87164 2.4
      vertex 7.84865 -7.38955 4.8
      vertex 7.4486 -6.5958 2.4
    endloop
  endfacet
  facet normal -0.75535 0.574202 0.315813
    outer loop
      vertex 7.84865 -7.38955 4.8
      vertex 8.11076 -7.04475 4.8
      vertex 7.4486 -6.5958 2.4
    endloop
  endfacet
  facet normal -0.812996 0.489183 0.315813
    outer loop
      vertex 7.4486 -6.5958 2.4
      vertex 8.11076 -7.04475 4.8
      vertex 7.62724 -6.29891 2.4
    endloop
  endfacet
  facet normal -0.813011 0.48916 0.315809
    outer loop
      vertex 8.11076 -7.04475 4.8
      vertex 8.33405 -6.67363 4.8
      vertex 7.62724 -6.29891 2.4
    endloop
  endfacet
  facet normal -0.861138 0.398379 0.315809
    outer loop
      vertex 7.62724 -6.29891 2.4
      vertex 8.33405 -6.67363 4.8
      vertex 7.77272 -5.98444 2.4
    endloop
  endfacet
  facet normal -0.861126 0.398403 0.315813
    outer loop
      vertex 8.33405 -6.67363 4.8
      vertex 8.51591 -6.28055 4.8
      vertex 7.77272 -5.98444 2.4
    endloop
  endfacet
  facet normal -0.899149 0.302975 0.315813
    outer loop
      vertex 7.77272 -5.98444 2.4
      vertex 8.51591 -6.28055 4.8
      vertex 7.88336 -5.65609 2.4
    endloop
  endfacet
  facet normal -0.899157 0.302954 0.31581
    outer loop
      vertex 8.51591 -6.28055 4.8
      vertex 8.6542 -5.87011 4.8
      vertex 7.88336 -5.65609 2.4
    endloop
  endfacet
  facet normal -0.926637 0.203981 0.31581
    outer loop
      vertex 7.88336 -5.65609 2.4
      vertex 8.6542 -5.87011 4.8
      vertex 7.95785 -5.3177 2.4
    endloop
  endfacet
  facet normal -0.926643 0.203959 0.315807
    outer loop
      vertex 8.6542 -5.87011 4.8
      vertex 8.7473 -5.44713 4.8
      vertex 7.95785 -5.3177 2.4
    endloop
  endfacet
  facet normal -0.943262 0.10258 0.315806
    outer loop
      vertex 7.95785 -5.3177 2.4
      vertex 8.7473 -5.44713 4.8
      vertex 7.99531 -4.97324 2.4
    endloop
  endfacet
  facet normal -0.94326 0.102592 0.315808
    outer loop
      vertex 8.7473 -5.44713 4.8
      vertex 8.79413 -5.01656 4.8
      vertex 7.99531 -4.97324 2.4
    endloop
  endfacet
  facet normal -0.948823 0 0.315808
    outer loop
      vertex 7.99531 -4.97324 2.4
      vertex 8.79413 -4.58344 4.8
      vertex 7.99531 -4.62676 2.4
    endloop
  endfacet
  facet normal -0.948823 0 0.315808
    outer loop
      vertex 8.79413 -4.58344 4.8
      vertex 7.99531 -4.97324 2.4
      vertex 8.79413 -5.01656 4.8
    endloop
  endfacet
  facet normal -0.943262 -0.10258 0.315808
    outer loop
      vertex 7.99531 -4.62676 2.4
      vertex 8.79413 -4.58344 4.8
      vertex 7.95785 -4.2823 2.4
    endloop
  endfacet
  facet normal -0.943261 -0.102592 0.315807
    outer loop
      vertex 7.95785 -4.2823 2.4
      vertex 8.79413 -4.58344 4.8
      vertex 8.7473 -4.15287 4.8
    endloop
  endfacet
  facet normal -0.926638 -0.203981 0.315807
    outer loop
      vertex 7.95785 -4.2823 2.4
      vertex 8.7473 -4.15287 4.8
      vertex 7.88336 -3.94391 2.4
    endloop
  endfacet
  facet normal -0.926642 -0.203958 0.31581
    outer loop
      vertex 7.88336 -3.94391 2.4
      vertex 8.7473 -4.15287 4.8
      vertex 8.6542 -3.72989 4.8
    endloop
  endfacet
  facet normal -0.89915 -0.302975 0.31581
    outer loop
      vertex 7.88336 -3.94391 2.4
      vertex 8.6542 -3.72989 4.8
      vertex 7.77272 -3.61556 2.4
    endloop
  endfacet
  facet normal -0.899156 -0.302954 0.315813
    outer loop
      vertex 7.77272 -3.61556 2.4
      vertex 8.6542 -3.72989 4.8
      vertex 8.51591 -3.31945 4.8
    endloop
  endfacet
  facet normal -0.861137 -0.398379 0.315813
    outer loop
      vertex 7.77272 -3.61556 2.4
      vertex 8.51591 -3.31945 4.8
      vertex 7.62724 -3.30109 2.4
    endloop
  endfacet
  facet normal -0.861127 -0.398404 0.315809
    outer loop
      vertex 7.62724 -3.30109 2.4
      vertex 8.51591 -3.31945 4.8
      vertex 8.33405 -2.92637 4.8
    endloop
  endfacet
  facet normal -0.812997 -0.489184 0.315809
    outer loop
      vertex 7.4486 -3.0042 2.4
      vertex 7.62724 -3.30109 2.4
      vertex 8.33405 -2.92637 4.8
    endloop
  endfacet
  facet normal -0.81301 -0.48916 0.315813
    outer loop
      vertex 7.4486 -3.0042 2.4
      vertex 8.33405 -2.92637 4.8
      vertex 8.11076 -2.55525 4.8
    endloop
  endfacet
  facet normal -0.755361 -0.574188 0.315813
    outer loop
      vertex 7.23892 -2.72836 2.4
      vertex 7.4486 -3.0042 2.4
      vertex 8.11076 -2.55525 4.8
    endloop
  endfacet
  facet normal -0.755351 -0.574203 0.315811
    outer loop
      vertex 7.23892 -2.72836 2.4
      vertex 8.11076 -2.55525 4.8
      vertex 7.84865 -2.21045 4.8
    endloop
  endfacet
  facet normal -0.688842 -0.652503 0.315811
    outer loop
      vertex 7.00064 -2.47681 2.4
      vertex 7.23892 -2.72836 2.4
      vertex 7.84865 -2.21045 4.8
    endloop
  endfacet
  facet normal -0.688834 -0.652512 0.315809
    outer loop
      vertex 7.00064 -2.47681 2.4
      vertex 7.84865 -2.21045 4.8
      vertex 7.5508 -1.89602 4.8
    endloop
  endfacet
  facet normal -0.614252 -0.723159 0.315809
    outer loop
      vertex 6.73656 -2.2525 2.4
      vertex 7.00064 -2.47681 2.4
      vertex 7.5508 -1.89602 4.8
    endloop
  endfacet
  facet normal -0.614255 -0.723156 0.315809
    outer loop
      vertex 6.73656 -2.2525 2.4
      vertex 7.5508 -1.89602 4.8
      vertex 7.2207 -1.61563 4.8
    endloop
  endfacet
  facet normal -0.532451 -0.785341 0.315809
    outer loop
      vertex 6.44977 -2.05806 2.4
      vertex 6.73656 -2.2525 2.4
      vertex 7.2207 -1.61563 4.8
    endloop
  endfacet
  facet normal -0.532473 -0.785325 0.315813
    outer loop
      vertex 6.44977 -2.05806 2.4
      vertex 7.2207 -1.61563 4.8
      vertex 6.86222 -1.37257 4.8
    endloop
  endfacet
  facet normal -0.444448 -0.838289 0.315813
    outer loop
      vertex 6.14365 -1.89576 2.4
      vertex 6.44977 -2.05806 2.4
      vertex 6.86222 -1.37257 4.8
    endloop
  endfacet
  facet normal -0.44443 -0.838299 0.31581
    outer loop
      vertex 6.14365 -1.89576 2.4
      vertex 6.86222 -1.37257 4.8
      vertex 6.47956 -1.1697 4.8
    endloop
  endfacet
  facet normal -0.351189 -0.881437 0.31581
    outer loop
      vertex 5.82176 -1.76751 2.4
      vertex 6.14365 -1.89576 2.4
      vertex 6.47956 -1.1697 4.8
    endloop
  endfacet
  facet normal -0.351186 -0.881438 0.315809
    outer loop
      vertex 5.82176 -1.76751 2.4
      vertex 6.47956 -1.1697 4.8
      vertex 6.0772 -1.00939 4.8
    endloop
  endfacet
  facet normal -0.253855 -0.914233 0.31581
    outer loop
      vertex 5.48791 -1.67481 2.4
      vertex 5.82176 -1.76751 2.4
      vertex 6.0772 -1.00939 4.8
    endloop
  endfacet
  facet normal -0.253847 -0.914236 0.315808
    outer loop
      vertex 5.48791 -1.67481 2.4
      vertex 6.0772 -1.00939 4.8
      vertex 5.65988 -0.893517 4.8
    endloop
  endfacet
  facet normal -0.153485 -0.936327 0.315808
    outer loop
      vertex 5.14598 -1.61876 2.4
      vertex 5.48791 -1.67481 2.4
      vertex 5.65988 -0.893517 4.8
    endloop
  endfacet
  facet normal -0.153503 -0.936323 0.315811
    outer loop
      vertex 5.14598 -1.61876 2.4
      vertex 5.65988 -0.893517 4.8
      vertex 5.23248 -0.823448 4.8
    endloop
  endfacet
  facet normal -0.0513723 -0.94743 0.315811
    outer loop
      vertex 4.8 -1.6 2.4
      vertex 5.14598 -1.61876 2.4
      vertex 5.23248 -0.823448 4.8
    endloop
  endfacet
  facet normal -0.0513695 -0.947431 0.315811
    outer loop
      vertex 4.8 -1.6 2.4
      vertex 5.23248 -0.823448 4.8
      vertex 4.8 -0.799999 4.8
    endloop
  endfacet
  facet normal 0.0513723 -0.947431 0.315811
    outer loop
      vertex 4.45402 -1.61876 2.4
      vertex 4.8 -1.6 2.4
      vertex 4.8 -0.799999 4.8
    endloop
  endfacet
  facet normal 0.0513695 -0.947431 0.315811
    outer loop
      vertex 4.36752 -0.823448 4.8
      vertex 4.45402 -1.61876 2.4
      vertex 4.8 -0.799999 4.8
    endloop
  endfacet
  facet normal 0.153485 -0.936326 0.315811
    outer loop
      vertex 4.11209 -1.67481 2.4
      vertex 4.45402 -1.61876 2.4
      vertex 4.36752 -0.823448 4.8
    endloop
  endfacet
  facet normal 0.153503 -0.936323 0.315809
    outer loop
      vertex 3.94012 -0.893517 4.8
      vertex 4.11209 -1.67481 2.4
      vertex 4.36752 -0.823448 4.8
    endloop
  endfacet
  facet normal 0.253848 -0.914235 0.315808
    outer loop
      vertex 3.77823 -1.76751 2.4
      vertex 4.11209 -1.67481 2.4
      vertex 3.94012 -0.893517 4.8
    endloop
  endfacet
  facet normal 0.253841 -0.914237 0.315809
    outer loop
      vertex 3.52279 -1.00939 4.8
      vertex 3.77823 -1.76751 2.4
      vertex 3.94012 -0.893517 4.8
    endloop
  endfacet
  facet normal 0.351199 -0.881433 0.315809
    outer loop
      vertex 3.45635 -1.89576 2.4
      vertex 3.77823 -1.76751 2.4
      vertex 3.52279 -1.00939 4.8
    endloop
  endfacet
  facet normal 0.351194 -0.881435 0.31581
    outer loop
      vertex 3.12044 -1.1697 4.8
      vertex 3.45635 -1.89576 2.4
      vertex 3.52279 -1.00939 4.8
    endloop
  endfacet
  facet normal 0.444448 -0.83829 0.31581
    outer loop
      vertex 3.15023 -2.05806 2.4
      vertex 3.45635 -1.89576 2.4
      vertex 3.12044 -1.1697 4.8
    endloop
  endfacet
  facet normal 0.44443 -0.838298 0.315813
    outer loop
      vertex 2.73778 -1.37257 4.8
      vertex 3.15023 -2.05806 2.4
      vertex 3.12044 -1.1697 4.8
    endloop
  endfacet
  facet normal 0.53245 -0.78534 0.315813
    outer loop
      vertex 2.86344 -2.2525 2.4
      vertex 3.15023 -2.05806 2.4
      vertex 2.73778 -1.37257 4.8
    endloop
  endfacet
  facet normal 0.532474 -0.785326 0.315809
    outer loop
      vertex 2.3793 -1.61563 4.8
      vertex 2.86344 -2.2525 2.4
      vertex 2.73778 -1.37257 4.8
    endloop
  endfacet
  facet normal 0.614252 -0.723159 0.315809
    outer loop
      vertex 2.59936 -2.47681 2.4
      vertex 2.86344 -2.2525 2.4
      vertex 2.3793 -1.61563 4.8
    endloop
  endfacet
  facet normal 0.614256 -0.723156 0.315809
    outer loop
      vertex 2.0492 -1.89602 4.8
      vertex 2.59936 -2.47681 2.4
      vertex 2.3793 -1.61563 4.8
    endloop
  endfacet
  facet normal 0.688842 -0.652504 0.315809
    outer loop
      vertex 2.36108 -2.72836 2.4
      vertex 2.59936 -2.47681 2.4
      vertex 2.0492 -1.89602 4.8
    endloop
  endfacet
  facet normal 0.688834 -0.652512 0.31581
    outer loop
      vertex 1.75135 -2.21045 4.8
      vertex 2.36108 -2.72836 2.4
      vertex 2.0492 -1.89602 4.8
    endloop
  endfacet
  facet normal 0.755348 -0.574206 0.315811
    outer loop
      vertex 2.15139 -3.0042 2.4
      vertex 2.36108 -2.72836 2.4
      vertex 1.75135 -2.21045 4.8
    endloop
  endfacet
  facet normal 0.755351 -0.574203 0.31581
    outer loop
      vertex 1.48924 -2.55525 4.8
      vertex 2.15139 -3.0042 2.4
      vertex 1.75135 -2.21045 4.8
    endloop
  endfacet
  facet normal 0.813009 -0.489163 0.31581
    outer loop
      vertex 1.97276 -3.30109 2.4
      vertex 2.15139 -3.0042 2.4
      vertex 1.48924 -2.55525 4.8
    endloop
  endfacet
  facet normal 0.813011 -0.48916 0.315809
    outer loop
      vertex 1.26595 -2.92637 4.8
      vertex 1.97276 -3.30109 2.4
      vertex 1.48924 -2.55525 4.8
    endloop
  endfacet
  facet normal 0.861127 -0.398402 0.315809
    outer loop
      vertex 1.82727 -3.61556 2.4
      vertex 1.97276 -3.30109 2.4
      vertex 1.26595 -2.92637 4.8
    endloop
  endfacet
  facet normal 0.861127 -0.398404 0.31581
    outer loop
      vertex 1.08409 -3.31945 4.8
      vertex 1.82727 -3.61556 2.4
      vertex 1.26595 -2.92637 4.8
    endloop
  endfacet
  facet normal 0.899158 -0.302951 0.31581
    outer loop
      vertex 1.71664 -3.94391 2.4
      vertex 1.82727 -3.61556 2.4
      vertex 1.08409 -3.31945 4.8
    endloop
  endfacet
  facet normal 0.899156 -0.302956 0.31581
    outer loop
      vertex 0.945799 -3.72989 4.8
      vertex 1.71664 -3.94391 2.4
      vertex 1.08409 -3.31945 4.8
    endloop
  endfacet
  facet normal 0.926637 -0.203981 0.315811
    outer loop
      vertex 1.64215 -4.2823 2.4
      vertex 1.71664 -3.94391 2.4
      vertex 0.945799 -3.72989 4.8
    endloop
  endfacet
  facet normal 0.92664 -0.203969 0.315809
    outer loop
      vertex 0.852694 -4.15287 4.8
      vertex 1.64215 -4.2823 2.4
      vertex 0.945799 -3.72989 4.8
    endloop
  endfacet
  facet normal 0.943262 -0.10258 0.315808
    outer loop
      vertex 1.60469 -4.62676 2.4
      vertex 1.64215 -4.2823 2.4
      vertex 0.852694 -4.15287 4.8
    endloop
  endfacet
  facet normal 0.94326 -0.102587 0.31581
    outer loop
      vertex 0.805866 -4.58344 4.8
      vertex 1.60469 -4.62676 2.4
      vertex 0.852694 -4.15287 4.8
    endloop
  endfacet
  facet normal 0.948823 0 0.315809
    outer loop
      vertex 0.805866 -4.58344 4.8
      vertex 1.60469 -4.97324 2.4
      vertex 1.60469 -4.62676 2.4
    endloop
  endfacet
  facet normal 0.948823 0 0.315809
    outer loop
      vertex 1.60469 -4.97324 2.4
      vertex 0.805866 -4.58344 4.8
      vertex 0.805866 -5.01656 4.8
    endloop
  endfacet
  facet normal 0.943261 0.10258 0.31581
    outer loop
      vertex 0.805866 -5.01656 4.8
      vertex 1.64215 -5.3177 2.4
      vertex 1.60469 -4.97324 2.4
    endloop
  endfacet
  facet normal 0.943261 0.102587 0.315809
    outer loop
      vertex 0.852694 -5.44713 4.8
      vertex 1.64215 -5.3177 2.4
      vertex 0.805866 -5.01656 4.8
    endloop
  endfacet
  facet normal 0.926637 0.203981 0.315809
    outer loop
      vertex 0.852694 -5.44713 4.8
      vertex 1.71664 -5.65609 2.4
      vertex 1.64215 -5.3177 2.4
    endloop
  endfacet
  facet normal 0.926639 0.203969 0.31581
    outer loop
      vertex 0.945799 -5.87011 4.8
      vertex 1.71664 -5.65609 2.4
      vertex 0.852694 -5.44713 4.8
    endloop
  endfacet
  facet normal 0.899158 0.302951 0.31581
    outer loop
      vertex 0.945799 -5.87011 4.8
      vertex 1.82727 -5.98444 2.4
      vertex 1.71664 -5.65609 2.4
    endloop
  endfacet
  facet normal 0.899156 0.302956 0.31581
    outer loop
      vertex 1.08409 -6.28055 4.8
      vertex 1.82727 -5.98444 2.4
      vertex 0.945799 -5.87011 4.8
    endloop
  endfacet
  facet normal 0.861127 0.398402 0.31581
    outer loop
      vertex 1.08409 -6.28055 4.8
      vertex 1.97276 -6.29891 2.4
      vertex 1.82727 -5.98444 2.4
    endloop
  endfacet
  facet normal 0.861127 0.398404 0.315809
    outer loop
      vertex 1.26595 -6.67363 4.8
      vertex 1.97276 -6.29891 2.4
      vertex 1.08409 -6.28055 4.8
    endloop
  endfacet
  facet normal 0.813009 0.489164 0.315809
    outer loop
      vertex 1.26595 -6.67363 4.8
      vertex 2.15139 -6.5958 2.4
      vertex 1.97276 -6.29891 2.4
    endloop
  endfacet
  facet normal 0.813011 0.48916 0.31581
    outer loop
      vertex 1.26595 -6.67363 4.8
      vertex 1.48924 -7.04475 4.8
      vertex 2.15139 -6.5958 2.4
    endloop
  endfacet
  facet normal 0.755349 0.574206 0.31581
    outer loop
      vertex 1.48924 -7.04475 4.8
      vertex 2.36108 -6.87164 2.4
      vertex 2.15139 -6.5958 2.4
    endloop
  endfacet
  facet normal 0.755351 0.574203 0.315811
    outer loop
      vertex 1.48924 -7.04475 4.8
      vertex 1.75135 -7.38955 4.8
      vertex 2.36108 -6.87164 2.4
    endloop
  endfacet
  facet normal 0.688842 0.652503 0.315811
    outer loop
      vertex 1.75135 -7.38955 4.8
      vertex 2.59936 -7.12319 2.4
      vertex 2.36108 -6.87164 2.4
    endloop
  endfacet
  facet normal 0.688834 0.652512 0.315809
    outer loop
      vertex 1.75135 -7.38955 4.8
      vertex 2.0492 -7.70398 4.8
      vertex 2.59936 -7.12319 2.4
    endloop
  endfacet
  facet normal 0.614252 0.723159 0.315809
    outer loop
      vertex 2.0492 -7.70398 4.8
      vertex 2.86344 -7.3475 2.4
      vertex 2.59936 -7.12319 2.4
    endloop
  endfacet
  facet normal 0.614255 0.723156 0.315809
    outer loop
      vertex 2.0492 -7.70398 4.8
      vertex 2.3793 -7.98437 4.8
      vertex 2.86344 -7.3475 2.4
    endloop
  endfacet
  facet normal 0.532451 0.785341 0.315809
    outer loop
      vertex 2.3793 -7.98437 4.8
      vertex 3.15023 -7.54194 2.4
      vertex 2.86344 -7.3475 2.4
    endloop
  endfacet
  facet normal 0.532473 0.785325 0.315813
    outer loop
      vertex 2.3793 -7.98437 4.8
      vertex 2.73778 -8.22743 4.8
      vertex 3.15023 -7.54194 2.4
    endloop
  endfacet
  facet normal 0.444448 0.838289 0.315813
    outer loop
      vertex 2.73778 -8.22743 4.8
      vertex 3.45635 -7.70424 2.4
      vertex 3.15023 -7.54194 2.4
    endloop
  endfacet
  facet normal 0.44443 0.838299 0.31581
    outer loop
      vertex 2.73778 -8.22743 4.8
      vertex 3.12044 -8.4303 4.8
      vertex 3.45635 -7.70424 2.4
    endloop
  endfacet
  facet normal 0.351198 0.881433 0.31581
    outer loop
      vertex 3.12044 -8.4303 4.8
      vertex 3.77823 -7.83249 2.4
      vertex 3.45635 -7.70424 2.4
    endloop
  endfacet
  facet normal 0.351194 0.881435 0.315809
    outer loop
      vertex 3.12044 -8.4303 4.8
      vertex 3.52279 -8.59061 4.8
      vertex 3.77823 -7.83249 2.4
    endloop
  endfacet
  facet normal 0.253848 0.914235 0.315809
    outer loop
      vertex 3.52279 -8.59061 4.8
      vertex 4.11209 -7.92519 2.4
      vertex 3.77823 -7.83249 2.4
    endloop
  endfacet
  facet normal 0.253835 0.914239 0.315807
    outer loop
      vertex 3.52279 -8.59061 4.8
      vertex 3.94012 -8.70648 4.8
      vertex 4.11209 -7.92519 2.4
    endloop
  endfacet
  facet normal 0.153485 0.936327 0.315807
    outer loop
      vertex 3.94012 -8.70648 4.8
      vertex 4.45402 -7.98124 2.4
      vertex 4.11209 -7.92519 2.4
    endloop
  endfacet
  facet normal 0.153505 0.936323 0.31581
    outer loop
      vertex 3.94012 -8.70648 4.8
      vertex 4.36752 -8.77655 4.8
      vertex 4.45402 -7.98124 2.4
    endloop
  endfacet
  facet normal 0.0513723 0.947431 0.31581
    outer loop
      vertex 4.36752 -8.77655 4.8
      vertex 4.8 -8 2.4
      vertex 4.45402 -7.98124 2.4
    endloop
  endfacet
  facet normal 0.0513717 0.947431 0.31581
    outer loop
      vertex 4.36752 -8.77655 4.8
      vertex 4.8 -8.8 4.8
      vertex 4.8 -8 2.4
    endloop
  endfacet
  facet normal -0.0513723 0.947431 0.31581
    outer loop
      vertex 4.8 -8 2.4
      vertex 4.8 -8.8 4.8
      vertex 5.14598 -7.98124 2.4
    endloop
  endfacet
  facet normal -0.0513717 0.947431 0.31581
    outer loop
      vertex 4.8 -8.8 4.8
      vertex 5.23248 -8.77655 4.8
      vertex 5.14598 -7.98124 2.4
    endloop
  endfacet
  facet normal 0 -1 0
    outer loop
      vertex 0 -9.6 0
      vertex 9.6 -9.6 4.8
      vertex 0 -9.6 4.8
    endloop
  endfacet
  facet normal 0 -1 -0
    outer loop
      vertex 9.6 -9.6 4.8
      vertex 0 -9.6 0
      vertex 9.6 -9.6 0
    endloop
  endfacet
  facet normal 1 -0 0
    outer loop
      vertex 9.6 -9.6 4.8
      vertex 9.6 0 0
      vertex 9.6 0 4.8
    endloop
  endfacet
  facet normal 1 0 0
    outer loop
      vertex 9.6 0 0
      vertex 9.6 -9.6 4.8
      vertex 9.6 -9.6 0
    endloop
  endfacet
  facet normal 1 -0 0
    outer loop
      vertex 9.6 0 4.8
      vertex 9.6 1 0
      vertex 9.6 1 4.8
    endloop
  endfacet
  facet normal 1 0 0
    outer loop
      vertex 9.6 1 0
      vertex 9.6 0 4.8
      vertex 9.6 0 0
    endloop
  endfacet
endsolid OpenSCAD_Model
