solid OpenSCAD_Model
  facet normal -0 0 1
    outer loop
      vertex -0.5 3.8 3.7
      vertex 0 1 3.7
      vertex 0 3.8 3.7
    endloop
  endfacet
  facet normal 0 0 1
    outer loop
      vertex 0 1 3.7
      vertex -0.5 3.8 3.7
      vertex -0.5 1 3.7
    endloop
  endfacet
  facet normal 0 -1 0
    outer loop
      vertex -0.5 3.8 3.7
      vertex 0 3.8 4.5
      vertex -0.5 3.8 4.5
    endloop
  endfacet
  facet normal 0 -1 -0
    outer loop
      vertex 0 3.8 4.5
      vertex -0.5 3.8 3.7
      vertex 0 3.8 3.7
    endloop
  endfacet
  facet normal 0 1 -0
    outer loop
      vertex 0 1 3.7
      vertex -0.5 1 4.5
      vertex 0 1 4.5
    endloop
  endfacet
  facet normal 0 1 0
    outer loop
      vertex -0.5 1 4.5
      vertex 0 1 3.7
      vertex -0.5 1 3.7
    endloop
  endfacet
  facet normal 0 0 -1
    outer loop
      vertex -0.5 1 4.5
      vertex 0 3.8 4.5
      vertex 0 1 4.5
    endloop
  endfacet
  facet normal -0 0 -1
    outer loop
      vertex 0 3.8 4.5
      vertex -0.5 1 4.5
      vertex -0.5 3.8 4.5
    endloop
  endfacet
  facet normal 1 -0 0
    outer loop
      vertex -0.5 1 4.5
      vertex -0.5 3.8 3.7
      vertex -0.5 3.8 4.5
    endloop
  endfacet
  facet normal 1 0 0
    outer loop
      vertex -0.5 3.8 3.7
      vertex -0.5 1 4.5
      vertex -0.5 1 3.7
    endloop
  endfacet
  facet normal -0 0 1
    outer loop
      vertex -0.5 3.8 2.1
      vertex 0 1 2.1
      vertex 0 3.8 2.1
    endloop
  endfacet
  facet normal 0 0 1
    outer loop
      vertex 0 1 2.1
      vertex -0.5 3.8 2.1
      vertex -0.5 1 2.1
    endloop
  endfacet
  facet normal 0 -1 0
    outer loop
      vertex -0.5 3.8 2.1
      vertex 0 3.8 2.9
      vertex -0.5 3.8 2.9
    endloop
  endfacet
  facet normal 0 -1 -0
    outer loop
      vertex 0 3.8 2.9
      vertex -0.5 3.8 2.1
      vertex 0 3.8 2.1
    endloop
  endfacet
  facet normal 0 1 -0
    outer loop
      vertex 0 1 2.1
      vertex -0.5 1 2.9
      vertex 0 1 2.9
    endloop
  endfacet
  facet normal 0 1 0
    outer loop
      vertex -0.5 1 2.9
      vertex 0 1 2.1
      vertex -0.5 1 2.1
    endloop
  endfacet
  facet normal 0 0 -1
    outer loop
      vertex -0.5 1 2.9
      vertex 0 3.8 2.9
      vertex 0 1 2.9
    endloop
  endfacet
  facet normal -0 0 -1
    outer loop
      vertex 0 3.8 2.9
      vertex -0.5 1 2.9
      vertex -0.5 3.8 2.9
    endloop
  endfacet
  facet normal 1 -0 0
    outer loop
      vertex -0.5 1 2.9
      vertex -0.5 3.8 2.1
      vertex -0.5 3.8 2.9
    endloop
  endfacet
  facet normal 1 0 0
    outer loop
      vertex -0.5 3.8 2.1
      vertex -0.5 1 2.9
      vertex -0.5 1 2.1
    endloop
  endfacet
  facet normal -0 0 1
    outer loop
      vertex -0.5 3.8 0.499999
      vertex 0 1 0.499999
      vertex 0 3.8 0.499999
    endloop
  endfacet
  facet normal 0 0 1
    outer loop
      vertex 0 1 0.499999
      vertex -0.5 3.8 0.499999
      vertex -0.5 1 0.499999
    endloop
  endfacet
  facet normal 0 -1 0
    outer loop
      vertex -0.5 3.8 0.499999
      vertex 0 3.8 1.3
      vertex -0.5 3.8 1.3
    endloop
  endfacet
  facet normal 0 -1 -0
    outer loop
      vertex 0 3.8 1.3
      vertex -0.5 3.8 0.499999
      vertex 0 3.8 0.499999
    endloop
  endfacet
  facet normal 0 1 -0
    outer loop
      vertex 0 1 0.499999
      vertex -0.5 1 1.3
      vertex 0 1 1.3
    endloop
  endfacet
  facet normal 0 1 0
    outer loop
      vertex -0.5 1 1.3
      vertex 0 1 0.499999
      vertex -0.5 1 0.499999
    endloop
  endfacet
  facet normal 0 0 -1
    outer loop
      vertex -0.5 1 1.3
      vertex 0 3.8 1.3
      vertex 0 1 1.3
    endloop
  endfacet
  facet normal -0 0 -1
    outer loop
      vertex 0 3.8 1.3
      vertex -0.5 1 1.3
      vertex -0.5 3.8 1.3
    endloop
  endfacet
  facet normal 1 -0 0
    outer loop
      vertex -0.5 1 1.3
      vertex -0.5 3.8 0.499999
      vertex -0.5 3.8 1.3
    endloop
  endfacet
  facet normal 1 0 0
    outer loop
      vertex -0.5 3.8 0.499999
      vertex -0.5 1 1.3
      vertex -0.5 1 0.499999
    endloop
  endfacet
  facet normal 0 -1 0
    outer loop
      vertex -1.3 3.8 -9.6
      vertex -0.5 3.8 -8.8
      vertex -1.3 3.8 -8.8
    endloop
  endfacet
  facet normal 0 -1 -0
    outer loop
      vertex -0.5 3.8 -8.8
      vertex -1.3 3.8 -9.6
      vertex -0.5 3.8 -9.6
    endloop
  endfacet
  facet normal 0 1 -0
    outer loop
      vertex -0.5 1 -9.6
      vertex -1.3 1 -8.8
      vertex -0.5 1 -8.8
    endloop
  endfacet
  facet normal 0 1 0
    outer loop
      vertex -1.3 1 -8.8
      vertex -0.5 1 -9.6
      vertex -1.3 1 -9.6
    endloop
  endfacet
  facet normal 0 0 -1
    outer loop
      vertex -1.3 1 -8.8
      vertex -0.5 3.8 -8.8
      vertex -0.5 1 -8.8
    endloop
  endfacet
  facet normal -0 0 -1
    outer loop
      vertex -0.5 3.8 -8.8
      vertex -1.3 1 -8.8
      vertex -1.3 3.8 -8.8
    endloop
  endfacet
  facet normal 1 -0 0
    outer loop
      vertex -1.3 1 -8.8
      vertex -1.3 3.8 -9.6
      vertex -1.3 3.8 -8.8
    endloop
  endfacet
  facet normal 1 0 0
    outer loop
      vertex -1.3 3.8 -9.6
      vertex -1.3 1 -8.8
      vertex -1.3 1 -9.6
    endloop
  endfacet
  facet normal -1 0 0
    outer loop
      vertex -0.5 1 -9.6
      vertex -0.5 3.8 -8.8
      vertex -0.5 3.8 -9.6
    endloop
  endfacet
  facet normal -1 -0 0
    outer loop
      vertex -0.5 3.8 -8.8
      vertex -0.5 1 -9.6
      vertex -0.5 1 -8.8
    endloop
  endfacet
  facet normal 0 -1 0
    outer loop
      vertex -9.6 0 0
      vertex -5.23248 0 -0.823448
      vertex -4.8 0 -0.799999
    endloop
  endfacet
  facet normal 0 -1 0
    outer loop
      vertex -9.6 0 0
      vertex -5.65988 0 -0.893517
      vertex -5.23248 0 -0.823448
    endloop
  endfacet
  facet normal 0 -1 0
    outer loop
      vertex -9.6 0 0
      vertex -6.0772 0 -1.00939
      vertex -5.65988 0 -0.893517
    endloop
  endfacet
  facet normal 0 -1 0
    outer loop
      vertex -9.6 0 0
      vertex -6.47956 0 -1.1697
      vertex -6.0772 0 -1.00939
    endloop
  endfacet
  facet normal 0 -1 0
    outer loop
      vertex -9.6 0 0
      vertex -6.86222 0 -1.37257
      vertex -6.47956 0 -1.1697
    endloop
  endfacet
  facet normal 0 -1 0
    outer loop
      vertex -9.6 0 0
      vertex -7.2207 0 -1.61563
      vertex -6.86222 0 -1.37257
    endloop
  endfacet
  facet normal 0 -1 0
    outer loop
      vertex -9.6 0 0
      vertex -7.5508 0 -1.89602
      vertex -7.2207 0 -1.61563
    endloop
  endfacet
  facet normal 0 -1 0
    outer loop
      vertex -9.6 0 0
      vertex -7.84865 0 -2.21045
      vertex -7.5508 0 -1.89602
    endloop
  endfacet
  facet normal 0 -1 0
    outer loop
      vertex -9.6 0 0
      vertex -8.11076 0 -2.55525
      vertex -7.84865 0 -2.21045
    endloop
  endfacet
  facet normal 0 -1 0
    outer loop
      vertex -9.6 0 0
      vertex -8.33405 0 -2.92637
      vertex -8.11076 0 -2.55525
    endloop
  endfacet
  facet normal 0 -1 0
    outer loop
      vertex -9.6 0 0
      vertex -8.51591 0 -3.31945
      vertex -8.33405 0 -2.92637
    endloop
  endfacet
  facet normal 0 -1 0
    outer loop
      vertex -9.6 0 0
      vertex -8.6542 0 -3.72989
      vertex -8.51591 0 -3.31945
    endloop
  endfacet
  facet normal 0 -1 0
    outer loop
      vertex -9.6 0 0
      vertex -8.7473 0 -4.15287
      vertex -8.6542 0 -3.72989
    endloop
  endfacet
  facet normal 0 -1 0
    outer loop
      vertex -9.6 0 0
      vertex -8.79413 0 -4.58344
      vertex -8.7473 0 -4.15287
    endloop
  endfacet
  facet normal 0 -1 0
    outer loop
      vertex -9.6 0 0
      vertex -8.79413 0 -5.01656
      vertex -8.79413 0 -4.58344
    endloop
  endfacet
  facet normal 0 -1 0
    outer loop
      vertex -9.6 0 -9.6
      vertex -8.79413 0 -5.01656
      vertex -9.6 0 0
    endloop
  endfacet
  facet normal 0 -1 -0
    outer loop
      vertex -5.23248 0 -8.77655
      vertex -9.6 0 -9.6
      vertex -4.8 0 -8.8
    endloop
  endfacet
  facet normal 0 -1 -0
    outer loop
      vertex -5.65988 0 -8.70648
      vertex -9.6 0 -9.6
      vertex -5.23248 0 -8.77655
    endloop
  endfacet
  facet normal 0 -1 -0
    outer loop
      vertex -6.0772 0 -8.59061
      vertex -9.6 0 -9.6
      vertex -5.65988 0 -8.70648
    endloop
  endfacet
  facet normal 0 -1 -0
    outer loop
      vertex -6.47956 0 -8.4303
      vertex -9.6 0 -9.6
      vertex -6.0772 0 -8.59061
    endloop
  endfacet
  facet normal 0 -1 -0
    outer loop
      vertex -6.86222 0 -8.22743
      vertex -9.6 0 -9.6
      vertex -6.47956 0 -8.4303
    endloop
  endfacet
  facet normal 0 -1 -0
    outer loop
      vertex -7.2207 0 -7.98437
      vertex -9.6 0 -9.6
      vertex -6.86222 0 -8.22743
    endloop
  endfacet
  facet normal 0 -1 -0
    outer loop
      vertex -7.5508 0 -7.70398
      vertex -9.6 0 -9.6
      vertex -7.2207 0 -7.98437
    endloop
  endfacet
  facet normal 0 -1 -0
    outer loop
      vertex -7.84865 0 -7.38955
      vertex -9.6 0 -9.6
      vertex -7.5508 0 -7.70398
    endloop
  endfacet
  facet normal 0 -1 -0
    outer loop
      vertex -8.11076 0 -7.04475
      vertex -9.6 0 -9.6
      vertex -7.84865 0 -7.38955
    endloop
  endfacet
  facet normal 0 -1 -0
    outer loop
      vertex -8.33405 0 -6.67363
      vertex -9.6 0 -9.6
      vertex -8.11076 0 -7.04475
    endloop
  endfacet
  facet normal 0 -1 -0
    outer loop
      vertex -8.51591 0 -6.28055
      vertex -9.6 0 -9.6
      vertex -8.33405 0 -6.67363
    endloop
  endfacet
  facet normal 0 -1 -0
    outer loop
      vertex -8.6542 0 -5.87011
      vertex -9.6 0 -9.6
      vertex -8.51591 0 -6.28055
    endloop
  endfacet
  facet normal 0 -1 -0
    outer loop
      vertex -8.7473 0 -5.44713
      vertex -9.6 0 -9.6
      vertex -8.6542 0 -5.87011
    endloop
  endfacet
  facet normal 0 -1 -0
    outer loop
      vertex -8.79413 0 -5.01656
      vertex -9.6 0 -9.6
      vertex -8.7473 0 -5.44713
    endloop
  endfacet
  facet normal 0 -1 0
    outer loop
      vertex -9.6 0 3
      vertex -9.6 0 0
      vertex -4.59999 0 3
    endloop
  endfacet
  facet normal 0 -1 0
    outer loop
      vertex -1 0 6.59999
      vertex 0 0 6.6
      vertex -1 0 6.6
    endloop
  endfacet
  facet normal 0 -1 0
    outer loop
      vertex -4.59999 0 3
      vertex 0 0 6.6
      vertex -1 0 6.59999
    endloop
  endfacet
  facet normal 0 -1 0
    outer loop
      vertex -4.8 0 -0.799999
      vertex -4.59999 0 3
      vertex -9.6 0 0
    endloop
  endfacet
  facet normal 0 -1 0
    outer loop
      vertex -4.36752 0 -0.823448
      vertex -4.59999 0 3
      vertex -4.8 0 -0.799999
    endloop
  endfacet
  facet normal 0 -1 0
    outer loop
      vertex -3.94012 0 -0.893517
      vertex -4.59999 0 3
      vertex -4.36752 0 -0.823448
    endloop
  endfacet
  facet normal 0 -1 0
    outer loop
      vertex -3.52279 0 -1.00939
      vertex -4.59999 0 3
      vertex -3.94012 0 -0.893517
    endloop
  endfacet
  facet normal 0 -1 0
    outer loop
      vertex -3.12044 0 -1.1697
      vertex -4.59999 0 3
      vertex -3.52279 0 -1.00939
    endloop
  endfacet
  facet normal 0 -1 0
    outer loop
      vertex -2.73778 0 -1.37257
      vertex -4.59999 0 3
      vertex -3.12044 0 -1.1697
    endloop
  endfacet
  facet normal 0 -1 0
    outer loop
      vertex -4.59999 0 3
      vertex -2.73778 0 -1.37257
      vertex 0 0 6.6
    endloop
  endfacet
  facet normal 0 -1 0
    outer loop
      vertex -2.3793 0 -1.61563
      vertex 0 0 6.6
      vertex -2.73778 0 -1.37257
    endloop
  endfacet
  facet normal 0 -1 0
    outer loop
      vertex -2.0492 0 -1.89602
      vertex 0 0 6.6
      vertex -2.3793 0 -1.61563
    endloop
  endfacet
  facet normal 0 -1 0
    outer loop
      vertex -1.75135 0 -2.21045
      vertex 0 0 6.6
      vertex -2.0492 0 -1.89602
    endloop
  endfacet
  facet normal 0 -1 0
    outer loop
      vertex -1.48924 0 -2.55525
      vertex 0 0 6.6
      vertex -1.75135 0 -2.21045
    endloop
  endfacet
  facet normal 0 -1 0
    outer loop
      vertex -1.26595 0 -2.92637
      vertex 0 0 6.6
      vertex -1.48924 0 -2.55525
    endloop
  endfacet
  facet normal 0 -1 0
    outer loop
      vertex -1.08409 0 -3.31945
      vertex 0 0 6.6
      vertex -1.26595 0 -2.92637
    endloop
  endfacet
  facet normal 0 -1 0
    outer loop
      vertex -0.945799 0 -3.72989
      vertex 0 0 6.6
      vertex -1.08409 0 -3.31945
    endloop
  endfacet
  facet normal 0 -1 0
    outer loop
      vertex -0.852694 0 -4.15287
      vertex 0 0 6.6
      vertex -0.945799 0 -3.72989
    endloop
  endfacet
  facet normal 0 -1 0
    outer loop
      vertex -0.805866 0 -4.58344
      vertex 0 0 6.6
      vertex -0.852694 0 -4.15287
    endloop
  endfacet
  facet normal 0 -1 0
    outer loop
      vertex 0 0 -9.6
      vertex -0.805866 0 -4.58344
      vertex -0.805866 0 -5.01656
    endloop
  endfacet
  facet normal 0 -1 0
    outer loop
      vertex 0 0 -9.6
      vertex -4.8 0 -8.8
      vertex -9.6 0 -9.6
    endloop
  endfacet
  facet normal 0 -1 0
    outer loop
      vertex -0.805866 0 -4.58344
      vertex 0 0 -9.6
      vertex 0 0 6.6
    endloop
  endfacet
  facet normal 0 -1 0
    outer loop
      vertex -0.852694 0 -5.44713
      vertex 0 0 -9.6
      vertex -0.805866 0 -5.01656
    endloop
  endfacet
  facet normal 0 -1 0
    outer loop
      vertex -0.945799 0 -5.87011
      vertex 0 0 -9.6
      vertex -0.852694 0 -5.44713
    endloop
  endfacet
  facet normal 0 -1 0
    outer loop
      vertex -1.08409 0 -6.28055
      vertex 0 0 -9.6
      vertex -0.945799 0 -5.87011
    endloop
  endfacet
  facet normal 0 -1 0
    outer loop
      vertex -1.26595 0 -6.67363
      vertex 0 0 -9.6
      vertex -1.08409 0 -6.28055
    endloop
  endfacet
  facet normal 0 -1 0
    outer loop
      vertex -1.48924 0 -7.04475
      vertex 0 0 -9.6
      vertex -1.26595 0 -6.67363
    endloop
  endfacet
  facet normal 0 -1 0
    outer loop
      vertex -1.75135 0 -7.38955
      vertex 0 0 -9.6
      vertex -1.48924 0 -7.04475
    endloop
  endfacet
  facet normal 0 -1 0
    outer loop
      vertex -2.0492 0 -7.70398
      vertex 0 0 -9.6
      vertex -1.75135 0 -7.38955
    endloop
  endfacet
  facet normal 0 -1 0
    outer loop
      vertex -2.3793 0 -7.98437
      vertex 0 0 -9.6
      vertex -2.0492 0 -7.70398
    endloop
  endfacet
  facet normal 0 -1 0
    outer loop
      vertex -2.73778 0 -8.22743
      vertex 0 0 -9.6
      vertex -2.3793 0 -7.98437
    endloop
  endfacet
  facet normal 0 -1 0
    outer loop
      vertex -3.12044 0 -8.4303
      vertex 0 0 -9.6
      vertex -2.73778 0 -8.22743
    endloop
  endfacet
  facet normal 0 -1 0
    outer loop
      vertex -3.52279 0 -8.59061
      vertex 0 0 -9.6
      vertex -3.12044 0 -8.4303
    endloop
  endfacet
  facet normal 0 -1 0
    outer loop
      vertex -3.94012 0 -8.70648
      vertex 0 0 -9.6
      vertex -3.52279 0 -8.59061
    endloop
  endfacet
  facet normal 0 -1 0
    outer loop
      vertex -4.36752 0 -8.77655
      vertex 0 0 -9.6
      vertex -3.94012 0 -8.70648
    endloop
  endfacet
  facet normal 0 -1 0
    outer loop
      vertex -4.8 0 -8.8
      vertex 0 0 -9.6
      vertex -4.36752 0 -8.77655
    endloop
  endfacet
  facet normal 0 1 0
    outer loop
      vertex 0 4.8 0
      vertex -4.8 4.8 -0.799999
      vertex -9.6 4.8 0
    endloop
  endfacet
  facet normal 0 1 0
    outer loop
      vertex 0 4.8 0
      vertex -4.36752 4.8 -0.823448
      vertex -4.8 4.8 -0.799999
    endloop
  endfacet
  facet normal 0 1 0
    outer loop
      vertex 0 4.8 0
      vertex -3.94012 4.8 -0.893517
      vertex -4.36752 4.8 -0.823448
    endloop
  endfacet
  facet normal 0 1 0
    outer loop
      vertex 0 4.8 0
      vertex -3.52279 4.8 -1.00939
      vertex -3.94012 4.8 -0.893517
    endloop
  endfacet
  facet normal 0 1 0
    outer loop
      vertex 0 4.8 0
      vertex -3.12044 4.8 -1.1697
      vertex -3.52279 4.8 -1.00939
    endloop
  endfacet
  facet normal 0 1 0
    outer loop
      vertex 0 4.8 0
      vertex -2.73778 4.8 -1.37257
      vertex -3.12044 4.8 -1.1697
    endloop
  endfacet
  facet normal 0 1 0
    outer loop
      vertex 0 4.8 0
      vertex -2.3793 4.8 -1.61563
      vertex -2.73778 4.8 -1.37257
    endloop
  endfacet
  facet normal 0 1 0
    outer loop
      vertex 0 4.8 0
      vertex -2.0492 4.8 -1.89602
      vertex -2.3793 4.8 -1.61563
    endloop
  endfacet
  facet normal 0 1 0
    outer loop
      vertex 0 4.8 0
      vertex -1.75135 4.8 -2.21045
      vertex -2.0492 4.8 -1.89602
    endloop
  endfacet
  facet normal 0 1 0
    outer loop
      vertex 0 4.8 0
      vertex -1.48924 4.8 -2.55525
      vertex -1.75135 4.8 -2.21045
    endloop
  endfacet
  facet normal 0 1 0
    outer loop
      vertex 0 4.8 0
      vertex -1.26595 4.8 -2.92637
      vertex -1.48924 4.8 -2.55525
    endloop
  endfacet
  facet normal 0 1 0
    outer loop
      vertex 0 4.8 0
      vertex -1.08409 4.8 -3.31945
      vertex -1.26595 4.8 -2.92637
    endloop
  endfacet
  facet normal 0 1 0
    outer loop
      vertex 0 4.8 0
      vertex -0.945799 4.8 -3.72989
      vertex -1.08409 4.8 -3.31945
    endloop
  endfacet
  facet normal 0 1 0
    outer loop
      vertex 0 4.8 0
      vertex -0.852694 4.8 -4.15287
      vertex -0.945799 4.8 -3.72989
    endloop
  endfacet
  facet normal 0 1 0
    outer loop
      vertex 0 4.8 0
      vertex -0.805866 4.8 -4.58344
      vertex -0.852694 4.8 -4.15287
    endloop
  endfacet
  facet normal 0 1 0
    outer loop
      vertex 0 4.8 0
      vertex -0.805866 4.8 -5.01656
      vertex -0.805866 4.8 -4.58344
    endloop
  endfacet
  facet normal 0 1 -0
    outer loop
      vertex 0 4.8 -9.6
      vertex -0.805866 4.8 -5.01656
      vertex 0 4.8 0
    endloop
  endfacet
  facet normal 0 1 0
    outer loop
      vertex -4.36752 4.8 -8.77655
      vertex 0 4.8 -9.6
      vertex -4.8 4.8 -8.8
    endloop
  endfacet
  facet normal 0 1 0
    outer loop
      vertex -3.94012 4.8 -8.70648
      vertex 0 4.8 -9.6
      vertex -4.36752 4.8 -8.77655
    endloop
  endfacet
  facet normal 0 1 0
    outer loop
      vertex -3.52279 4.8 -8.59061
      vertex 0 4.8 -9.6
      vertex -3.94012 4.8 -8.70648
    endloop
  endfacet
  facet normal 0 1 0
    outer loop
      vertex -3.12044 4.8 -8.4303
      vertex 0 4.8 -9.6
      vertex -3.52279 4.8 -8.59061
    endloop
  endfacet
  facet normal 0 1 0
    outer loop
      vertex -2.73778 4.8 -8.22743
      vertex 0 4.8 -9.6
      vertex -3.12044 4.8 -8.4303
    endloop
  endfacet
  facet normal 0 1 0
    outer loop
      vertex -2.3793 4.8 -7.98437
      vertex 0 4.8 -9.6
      vertex -2.73778 4.8 -8.22743
    endloop
  endfacet
  facet normal 0 1 0
    outer loop
      vertex -2.0492 4.8 -7.70398
      vertex 0 4.8 -9.6
      vertex -2.3793 4.8 -7.98437
    endloop
  endfacet
  facet normal 0 1 0
    outer loop
      vertex -1.75135 4.8 -7.38955
      vertex 0 4.8 -9.6
      vertex -2.0492 4.8 -7.70398
    endloop
  endfacet
  facet normal 0 1 0
    outer loop
      vertex -1.48924 4.8 -7.04475
      vertex 0 4.8 -9.6
      vertex -1.75135 4.8 -7.38955
    endloop
  endfacet
  facet normal 0 1 0
    outer loop
      vertex -1.26595 4.8 -6.67363
      vertex 0 4.8 -9.6
      vertex -1.48924 4.8 -7.04475
    endloop
  endfacet
  facet normal 0 1 0
    outer loop
      vertex -1.08409 4.8 -6.28055
      vertex 0 4.8 -9.6
      vertex -1.26595 4.8 -6.67363
    endloop
  endfacet
  facet normal 0 1 0
    outer loop
      vertex -0.945799 4.8 -5.87011
      vertex 0 4.8 -9.6
      vertex -1.08409 4.8 -6.28055
    endloop
  endfacet
  facet normal 0 1 0
    outer loop
      vertex -0.852694 4.8 -5.44713
      vertex 0 4.8 -9.6
      vertex -0.945799 4.8 -5.87011
    endloop
  endfacet
  facet normal 0 1 0
    outer loop
      vertex -0.805866 4.8 -5.01656
      vertex 0 4.8 -9.6
      vertex -0.852694 4.8 -5.44713
    endloop
  endfacet
  facet normal 0 1 -0
    outer loop
      vertex -5.23248 4.8 -0.823448
      vertex -9.6 4.8 0
      vertex -4.8 4.8 -0.799999
    endloop
  endfacet
  facet normal 0 1 -0
    outer loop
      vertex -5.65988 4.8 -0.893517
      vertex -9.6 4.8 0
      vertex -5.23248 4.8 -0.823448
    endloop
  endfacet
  facet normal 0 1 -0
    outer loop
      vertex -6.0772 4.8 -1.00939
      vertex -9.6 4.8 0
      vertex -5.65988 4.8 -0.893517
    endloop
  endfacet
  facet normal 0 1 -0
    outer loop
      vertex -6.47956 4.8 -1.1697
      vertex -9.6 4.8 0
      vertex -6.0772 4.8 -1.00939
    endloop
  endfacet
  facet normal 0 1 -0
    outer loop
      vertex -6.86222 4.8 -1.37257
      vertex -9.6 4.8 0
      vertex -6.47956 4.8 -1.1697
    endloop
  endfacet
  facet normal 0 1 -0
    outer loop
      vertex -7.2207 4.8 -1.61563
      vertex -9.6 4.8 0
      vertex -6.86222 4.8 -1.37257
    endloop
  endfacet
  facet normal 0 1 -0
    outer loop
      vertex -7.5508 4.8 -1.89602
      vertex -9.6 4.8 0
      vertex -7.2207 4.8 -1.61563
    endloop
  endfacet
  facet normal 0 1 -0
    outer loop
      vertex -7.84865 4.8 -2.21045
      vertex -9.6 4.8 0
      vertex -7.5508 4.8 -1.89602
    endloop
  endfacet
  facet normal 0 1 -0
    outer loop
      vertex -8.11076 4.8 -2.55525
      vertex -9.6 4.8 0
      vertex -7.84865 4.8 -2.21045
    endloop
  endfacet
  facet normal 0 1 -0
    outer loop
      vertex -8.33405 4.8 -2.92637
      vertex -9.6 4.8 0
      vertex -8.11076 4.8 -2.55525
    endloop
  endfacet
  facet normal 0 1 -0
    outer loop
      vertex -8.51591 4.8 -3.31945
      vertex -9.6 4.8 0
      vertex -8.33405 4.8 -2.92637
    endloop
  endfacet
  facet normal 0 1 -0
    outer loop
      vertex -8.6542 4.8 -3.72989
      vertex -9.6 4.8 0
      vertex -8.51591 4.8 -3.31945
    endloop
  endfacet
  facet normal 0 1 -0
    outer loop
      vertex -8.7473 4.8 -4.15287
      vertex -9.6 4.8 0
      vertex -8.6542 4.8 -3.72989
    endloop
  endfacet
  facet normal 0 1 -0
    outer loop
      vertex -8.79413 4.8 -4.58344
      vertex -9.6 4.8 0
      vertex -8.7473 4.8 -4.15287
    endloop
  endfacet
  facet normal 0 1 -0
    outer loop
      vertex -8.79413 4.8 -5.01656
      vertex -9.6 4.8 0
      vertex -8.79413 4.8 -4.58344
    endloop
  endfacet
  facet normal 0 1 0
    outer loop
      vertex -9.6 4.8 -9.6
      vertex -8.79413 4.8 -5.01656
      vertex -8.7473 4.8 -5.44713
    endloop
  endfacet
  facet normal 0 1 0
    outer loop
      vertex -9.6 4.8 -9.6
      vertex -4.8 4.8 -8.8
      vertex 0 4.8 -9.6
    endloop
  endfacet
  facet normal 0 1 0
    outer loop
      vertex -8.79413 4.8 -5.01656
      vertex -9.6 4.8 -9.6
      vertex -9.6 4.8 0
    endloop
  endfacet
  facet normal 0 1 0
    outer loop
      vertex -8.6542 4.8 -5.87011
      vertex -9.6 4.8 -9.6
      vertex -8.7473 4.8 -5.44713
    endloop
  endfacet
  facet normal 0 1 0
    outer loop
      vertex -8.51591 4.8 -6.28055
      vertex -9.6 4.8 -9.6
      vertex -8.6542 4.8 -5.87011
    endloop
  endfacet
  facet normal 0 1 0
    outer loop
      vertex -8.33405 4.8 -6.67363
      vertex -9.6 4.8 -9.6
      vertex -8.51591 4.8 -6.28055
    endloop
  endfacet
  facet normal 0 1 0
    outer loop
      vertex -8.11076 4.8 -7.04475
      vertex -9.6 4.8 -9.6
      vertex -8.33405 4.8 -6.67363
    endloop
  endfacet
  facet normal 0 1 0
    outer loop
      vertex -7.84865 4.8 -7.38955
      vertex -9.6 4.8 -9.6
      vertex -8.11076 4.8 -7.04475
    endloop
  endfacet
  facet normal 0 1 0
    outer loop
      vertex -7.5508 4.8 -7.70398
      vertex -9.6 4.8 -9.6
      vertex -7.84865 4.8 -7.38955
    endloop
  endfacet
  facet normal 0 1 0
    outer loop
      vertex -7.2207 4.8 -7.98437
      vertex -9.6 4.8 -9.6
      vertex -7.5508 4.8 -7.70398
    endloop
  endfacet
  facet normal 0 1 0
    outer loop
      vertex -6.86222 4.8 -8.22743
      vertex -9.6 4.8 -9.6
      vertex -7.2207 4.8 -7.98437
    endloop
  endfacet
  facet normal 0 1 0
    outer loop
      vertex -6.47956 4.8 -8.4303
      vertex -9.6 4.8 -9.6
      vertex -6.86222 4.8 -8.22743
    endloop
  endfacet
  facet normal 0 1 0
    outer loop
      vertex -6.0772 4.8 -8.59061
      vertex -9.6 4.8 -9.6
      vertex -6.47956 4.8 -8.4303
    endloop
  endfacet
  facet normal 0 1 0
    outer loop
      vertex -5.65988 4.8 -8.70648
      vertex -9.6 4.8 -9.6
      vertex -6.0772 4.8 -8.59061
    endloop
  endfacet
  facet normal 0 1 0
    outer loop
      vertex -5.23248 4.8 -8.77655
      vertex -9.6 4.8 -9.6
      vertex -5.65988 4.8 -8.70648
    endloop
  endfacet
  facet normal 0 1 0
    outer loop
      vertex -4.8 4.8 -8.8
      vertex -9.6 4.8 -9.6
      vertex -5.23248 4.8 -8.77655
    endloop
  endfacet
  facet normal 1 -0 0
    outer loop
      vertex 0 1 2.1
      vertex 0 3.8 1.3
      vertex 0 3.8 2.1
    endloop
  endfacet
  facet normal 1 0 0
    outer loop
      vertex 0 3.8 1.3
      vertex 0 1 2.1
      vertex 0 1 1.3
    endloop
  endfacet
  facet normal 1 -0 0
    outer loop
      vertex 0 1 3.7
      vertex 0 3.8 2.9
      vertex 0 3.8 3.7
    endloop
  endfacet
  facet normal 1 0 0
    outer loop
      vertex 0 3.8 2.9
      vertex 0 1 3.7
      vertex 0 1 2.9
    endloop
  endfacet
  facet normal 1 0 0
    outer loop
      vertex 0 3.8 3.7
      vertex 0 4.8 6.6
      vertex 0 3.8 4.5
    endloop
  endfacet
  facet normal 1 0 0
    outer loop
      vertex 0 4.8 6.6
      vertex 0 1 4.5
      vertex 0 3.8 4.5
    endloop
  endfacet
  facet normal 1 0 0
    outer loop
      vertex 0 0 6.6
      vertex 0 1 3.7
      vertex 0 1 4.5
    endloop
  endfacet
  facet normal 1 0 0
    outer loop
      vertex 0 1 3.7
      vertex 0 0 6.6
      vertex 0 1 2.9
    endloop
  endfacet
  facet normal 1 0 0
    outer loop
      vertex 0 1 2.9
      vertex 0 0 6.6
      vertex 0 1 2.1
    endloop
  endfacet
  facet normal 1 0 0
    outer loop
      vertex 0 1 2.1
      vertex 0 0 6.6
      vertex 0 1 1.3
    endloop
  endfacet
  facet normal 1 0 0
    outer loop
      vertex 0 1 1.3
      vertex 0 0 6.6
      vertex 0 1 0.499999
    endloop
  endfacet
  facet normal 1 -0 0
    outer loop
      vertex 0 0 6.6
      vertex 0 1 4.5
      vertex 0 4.8 6.6
    endloop
  endfacet
  facet normal 1 0 0
    outer loop
      vertex 0 4.8 6.6
      vertex 0 3.8 3.7
      vertex 0 4.8 0
    endloop
  endfacet
  facet normal 1 -0 0
    outer loop
      vertex 0 3.8 2.9
      vertex 0 4.8 0
      vertex 0 3.8 3.7
    endloop
  endfacet
  facet normal 1 -0 0
    outer loop
      vertex 0 3.8 2.1
      vertex 0 4.8 0
      vertex 0 3.8 2.9
    endloop
  endfacet
  facet normal 1 -0 0
    outer loop
      vertex 0 3.8 1.3
      vertex 0 4.8 0
      vertex 0 3.8 2.1
    endloop
  endfacet
  facet normal 1 -0 0
    outer loop
      vertex 0 3.8 0.499999
      vertex 0 4.8 0
      vertex 0 3.8 1.3
    endloop
  endfacet
  facet normal 1 -0 0
    outer loop
      vertex 0 1 0.499999
      vertex 0 4.8 0
      vertex 0 3.8 0.499999
    endloop
  endfacet
  facet normal 1 0 0
    outer loop
      vertex 0 0 -9.6
      vertex 0 4.8 0
      vertex 0 1 0.499999
    endloop
  endfacet
  facet normal 1 0 0
    outer loop
      vertex 0 4.8 0
      vertex 0 0 -9.6
      vertex 0 4.8 -9.6
    endloop
  endfacet
  facet normal 1 0 0
    outer loop
      vertex 0 0 -9.6
      vertex 0 1 0.499999
      vertex 0 0 6.6
    endloop
  endfacet
  facet normal 0.153485 -0.315811 -0.936326
    outer loop
      vertex -5.48791 2.4 -1.67481
      vertex -5.14598 2.4 -1.61876
      vertex -5.23248 0 -0.823448
    endloop
  endfacet
  facet normal 0.153503 -0.315809 -0.936323
    outer loop
      vertex -5.65988 0 -0.893517
      vertex -5.48791 2.4 -1.67481
      vertex -5.23248 0 -0.823448
    endloop
  endfacet
  facet normal 0.253855 -0.315808 -0.914234
    outer loop
      vertex -5.82176 2.4 -1.76751
      vertex -5.48791 2.4 -1.67481
      vertex -5.65988 0 -0.893517
    endloop
  endfacet
  facet normal 0.253846 -0.315809 -0.914235
    outer loop
      vertex -6.0772 0 -1.00939
      vertex -5.82176 2.4 -1.76751
      vertex -5.65988 0 -0.893517
    endloop
  endfacet
  facet normal 0.351189 -0.315809 -0.881437
    outer loop
      vertex -6.14365 2.4 -1.89576
      vertex -5.82176 2.4 -1.76751
      vertex -6.0772 0 -1.00939
    endloop
  endfacet
  facet normal 0.351186 -0.31581 -0.881438
    outer loop
      vertex -6.47956 0 -1.1697
      vertex -6.14365 2.4 -1.89576
      vertex -6.0772 0 -1.00939
    endloop
  endfacet
  facet normal 0.444448 -0.31581 -0.83829
    outer loop
      vertex -6.44977 2.4 -2.05806
      vertex -6.14365 2.4 -1.89576
      vertex -6.47956 0 -1.1697
    endloop
  endfacet
  facet normal 0.44443 -0.315813 -0.838298
    outer loop
      vertex -6.86222 0 -1.37257
      vertex -6.44977 2.4 -2.05806
      vertex -6.47956 0 -1.1697
    endloop
  endfacet
  facet normal 0.53245 -0.315813 -0.78534
    outer loop
      vertex -6.73656 2.4 -2.2525
      vertex -6.44977 2.4 -2.05806
      vertex -6.86222 0 -1.37257
    endloop
  endfacet
  facet normal 0.532474 -0.315809 -0.785326
    outer loop
      vertex -7.2207 0 -1.61563
      vertex -6.73656 2.4 -2.2525
      vertex -6.86222 0 -1.37257
    endloop
  endfacet
  facet normal 0.614252 -0.315809 -0.723159
    outer loop
      vertex -7.00064 2.4 -2.47681
      vertex -6.73656 2.4 -2.2525
      vertex -7.2207 0 -1.61563
    endloop
  endfacet
  facet normal 0.614256 -0.315809 -0.723156
    outer loop
      vertex -7.5508 0 -1.89602
      vertex -7.00064 2.4 -2.47681
      vertex -7.2207 0 -1.61563
    endloop
  endfacet
  facet normal 0.688842 -0.315809 -0.652504
    outer loop
      vertex -7.23892 2.4 -2.72836
      vertex -7.00064 2.4 -2.47681
      vertex -7.5508 0 -1.89602
    endloop
  endfacet
  facet normal 0.688834 -0.31581 -0.652512
    outer loop
      vertex -7.84865 0 -2.21045
      vertex -7.23892 2.4 -2.72836
      vertex -7.5508 0 -1.89602
    endloop
  endfacet
  facet normal 0.755362 -0.31581 -0.574189
    outer loop
      vertex -7.4486 2.4 -3.0042
      vertex -7.23892 2.4 -2.72836
      vertex -7.84865 0 -2.21045
    endloop
  endfacet
  facet normal 0.75535 -0.315813 -0.574202
    outer loop
      vertex -8.11076 0 -2.55525
      vertex -7.4486 2.4 -3.0042
      vertex -7.84865 0 -2.21045
    endloop
  endfacet
  facet normal 0.812996 -0.315813 -0.489183
    outer loop
      vertex -7.62724 2.4 -3.30109
      vertex -7.4486 2.4 -3.0042
      vertex -8.11076 0 -2.55525
    endloop
  endfacet
  facet normal 0.813011 -0.315809 -0.48916
    outer loop
      vertex -8.33405 0 -2.92637
      vertex -7.62724 2.4 -3.30109
      vertex -8.11076 0 -2.55525
    endloop
  endfacet
  facet normal 0.861138 -0.315809 -0.398379
    outer loop
      vertex -7.77272 2.4 -3.61556
      vertex -7.62724 2.4 -3.30109
      vertex -8.33405 0 -2.92637
    endloop
  endfacet
  facet normal 0.861126 -0.315813 -0.398403
    outer loop
      vertex -8.51591 0 -3.31945
      vertex -7.77272 2.4 -3.61556
      vertex -8.33405 0 -2.92637
    endloop
  endfacet
  facet normal 0.899149 -0.315813 -0.302975
    outer loop
      vertex -7.88336 2.4 -3.94391
      vertex -7.77272 2.4 -3.61556
      vertex -8.51591 0 -3.31945
    endloop
  endfacet
  facet normal 0.899157 -0.31581 -0.302954
    outer loop
      vertex -8.6542 0 -3.72989
      vertex -7.88336 2.4 -3.94391
      vertex -8.51591 0 -3.31945
    endloop
  endfacet
  facet normal 0.926637 -0.31581 -0.203981
    outer loop
      vertex -7.95785 2.4 -4.2823
      vertex -7.88336 2.4 -3.94391
      vertex -8.6542 0 -3.72989
    endloop
  endfacet
  facet normal 0.926643 -0.315807 -0.203959
    outer loop
      vertex -8.7473 0 -4.15287
      vertex -7.95785 2.4 -4.2823
      vertex -8.6542 0 -3.72989
    endloop
  endfacet
  facet normal 0.943262 -0.315806 -0.10258
    outer loop
      vertex -7.99531 2.4 -4.62676
      vertex -7.95785 2.4 -4.2823
      vertex -8.7473 0 -4.15287
    endloop
  endfacet
  facet normal 0.94326 -0.315808 -0.102592
    outer loop
      vertex -8.79413 0 -4.58344
      vertex -7.99531 2.4 -4.62676
      vertex -8.7473 0 -4.15287
    endloop
  endfacet
  facet normal 0.948823 -0.315808 0
    outer loop
      vertex -8.79413 0 -4.58344
      vertex -7.99531 2.4 -4.97324
      vertex -7.99531 2.4 -4.62676
    endloop
  endfacet
  facet normal 0.948823 -0.315808 0
    outer loop
      vertex -7.99531 2.4 -4.97324
      vertex -8.79413 0 -4.58344
      vertex -8.79413 0 -5.01656
    endloop
  endfacet
  facet normal 0.943262 -0.315808 0.10258
    outer loop
      vertex -8.79413 0 -5.01656
      vertex -7.95785 2.4 -5.3177
      vertex -7.99531 2.4 -4.97324
    endloop
  endfacet
  facet normal 0.943261 -0.315807 0.102592
    outer loop
      vertex -8.7473 0 -5.44713
      vertex -7.95785 2.4 -5.3177
      vertex -8.79413 0 -5.01656
    endloop
  endfacet
  facet normal 0.926638 -0.315807 0.203981
    outer loop
      vertex -8.7473 0 -5.44713
      vertex -7.88336 2.4 -5.65609
      vertex -7.95785 2.4 -5.3177
    endloop
  endfacet
  facet normal 0.926642 -0.31581 0.203958
    outer loop
      vertex -8.6542 0 -5.87011
      vertex -7.88336 2.4 -5.65609
      vertex -8.7473 0 -5.44713
    endloop
  endfacet
  facet normal 0.89915 -0.31581 0.302975
    outer loop
      vertex -8.6542 0 -5.87011
      vertex -7.77272 2.4 -5.98444
      vertex -7.88336 2.4 -5.65609
    endloop
  endfacet
  facet normal 0.899156 -0.315813 0.302954
    outer loop
      vertex -8.51591 0 -6.28055
      vertex -7.77272 2.4 -5.98444
      vertex -8.6542 0 -5.87011
    endloop
  endfacet
  facet normal 0.861137 -0.315813 0.398379
    outer loop
      vertex -8.51591 0 -6.28055
      vertex -7.62724 2.4 -6.29891
      vertex -7.77272 2.4 -5.98444
    endloop
  endfacet
  facet normal 0.861127 -0.315809 0.398404
    outer loop
      vertex -8.33405 0 -6.67363
      vertex -7.62724 2.4 -6.29891
      vertex -8.51591 0 -6.28055
    endloop
  endfacet
  facet normal 0.812997 -0.315809 0.489184
    outer loop
      vertex -8.33405 0 -6.67363
      vertex -7.4486 2.4 -6.5958
      vertex -7.62724 2.4 -6.29891
    endloop
  endfacet
  facet normal 0.81301 -0.315813 0.48916
    outer loop
      vertex -8.33405 0 -6.67363
      vertex -8.11076 0 -7.04475
      vertex -7.4486 2.4 -6.5958
    endloop
  endfacet
  facet normal 0.755361 -0.315813 0.574188
    outer loop
      vertex -8.11076 0 -7.04475
      vertex -7.23892 2.4 -6.87164
      vertex -7.4486 2.4 -6.5958
    endloop
  endfacet
  facet normal 0.755351 -0.315811 0.574203
    outer loop
      vertex -8.11076 0 -7.04475
      vertex -7.84865 0 -7.38955
      vertex -7.23892 2.4 -6.87164
    endloop
  endfacet
  facet normal 0.688842 -0.315811 0.652503
    outer loop
      vertex -7.84865 0 -7.38955
      vertex -7.00064 2.4 -7.12319
      vertex -7.23892 2.4 -6.87164
    endloop
  endfacet
  facet normal 0.688834 -0.315809 0.652512
    outer loop
      vertex -7.84865 0 -7.38955
      vertex -7.5508 0 -7.70398
      vertex -7.00064 2.4 -7.12319
    endloop
  endfacet
  facet normal 0.614252 -0.315809 0.723159
    outer loop
      vertex -7.5508 0 -7.70398
      vertex -6.73656 2.4 -7.3475
      vertex -7.00064 2.4 -7.12319
    endloop
  endfacet
  facet normal 0.614255 -0.315809 0.723156
    outer loop
      vertex -7.5508 0 -7.70398
      vertex -7.2207 0 -7.98437
      vertex -6.73656 2.4 -7.3475
    endloop
  endfacet
  facet normal 0.532451 -0.315809 0.785341
    outer loop
      vertex -7.2207 0 -7.98437
      vertex -6.44977 2.4 -7.54194
      vertex -6.73656 2.4 -7.3475
    endloop
  endfacet
  facet normal 0.532473 -0.315813 0.785325
    outer loop
      vertex -7.2207 0 -7.98437
      vertex -6.86222 0 -8.22743
      vertex -6.44977 2.4 -7.54194
    endloop
  endfacet
  facet normal 0.444448 -0.315813 0.838289
    outer loop
      vertex -6.86222 0 -8.22743
      vertex -6.14365 2.4 -7.70424
      vertex -6.44977 2.4 -7.54194
    endloop
  endfacet
  facet normal 0.44443 -0.31581 0.838299
    outer loop
      vertex -6.86222 0 -8.22743
      vertex -6.47956 0 -8.4303
      vertex -6.14365 2.4 -7.70424
    endloop
  endfacet
  facet normal 0.351189 -0.31581 0.881437
    outer loop
      vertex -6.47956 0 -8.4303
      vertex -5.82176 2.4 -7.83249
      vertex -6.14365 2.4 -7.70424
    endloop
  endfacet
  facet normal 0.351186 -0.315809 0.881438
    outer loop
      vertex -6.47956 0 -8.4303
      vertex -6.0772 0 -8.59061
      vertex -5.82176 2.4 -7.83249
    endloop
  endfacet
  facet normal 0.253855 -0.31581 0.914233
    outer loop
      vertex -6.0772 0 -8.59061
      vertex -5.48791 2.4 -7.92519
      vertex -5.82176 2.4 -7.83249
    endloop
  endfacet
  facet normal 0.253841 -0.315807 0.914238
    outer loop
      vertex -6.0772 0 -8.59061
      vertex -5.65988 0 -8.70648
      vertex -5.48791 2.4 -7.92519
    endloop
  endfacet
  facet normal 0.153485 -0.315807 0.936327
    outer loop
      vertex -5.65988 0 -8.70648
      vertex -5.14598 2.4 -7.98124
      vertex -5.48791 2.4 -7.92519
    endloop
  endfacet
  facet normal 0.153505 -0.31581 0.936323
    outer loop
      vertex -5.65988 0 -8.70648
      vertex -5.23248 0 -8.77655
      vertex -5.14598 2.4 -7.98124
    endloop
  endfacet
  facet normal 0.0513723 -0.31581 0.947431
    outer loop
      vertex -5.23248 0 -8.77655
      vertex -4.8 2.4 -8
      vertex -5.14598 2.4 -7.98124
    endloop
  endfacet
  facet normal 0.0513717 -0.31581 0.947431
    outer loop
      vertex -5.23248 0 -8.77655
      vertex -4.8 0 -8.8
      vertex -4.8 2.4 -8
    endloop
  endfacet
  facet normal -0.0513723 -0.31581 0.947431
    outer loop
      vertex -4.8 2.4 -8
      vertex -4.8 0 -8.8
      vertex -4.45402 2.4 -7.98124
    endloop
  endfacet
  facet normal -0.0513717 -0.31581 0.947431
    outer loop
      vertex -4.8 0 -8.8
      vertex -4.36752 0 -8.77655
      vertex -4.45402 2.4 -7.98124
    endloop
  endfacet
  facet normal -0.153485 -0.315811 0.936326
    outer loop
      vertex -4.45402 2.4 -7.98124
      vertex -4.36752 0 -8.77655
      vertex -4.11209 2.4 -7.92519
    endloop
  endfacet
  facet normal -0.153505 -0.315808 0.936323
    outer loop
      vertex -4.36752 0 -8.77655
      vertex -3.94012 0 -8.70648
      vertex -4.11209 2.4 -7.92519
    endloop
  endfacet
  facet normal -0.253848 -0.315807 0.914236
    outer loop
      vertex -4.11209 2.4 -7.92519
      vertex -3.94012 0 -8.70648
      vertex -3.77823 2.4 -7.83249
    endloop
  endfacet
  facet normal -0.253835 -0.315809 0.914239
    outer loop
      vertex -3.94012 0 -8.70648
      vertex -3.52279 0 -8.59061
      vertex -3.77823 2.4 -7.83249
    endloop
  endfacet
  facet normal -0.351199 -0.315809 0.881433
    outer loop
      vertex -3.77823 2.4 -7.83249
      vertex -3.52279 0 -8.59061
      vertex -3.45635 2.4 -7.70424
    endloop
  endfacet
  facet normal -0.351194 -0.31581 0.881435
    outer loop
      vertex -3.52279 0 -8.59061
      vertex -3.12044 0 -8.4303
      vertex -3.45635 2.4 -7.70424
    endloop
  endfacet
  facet normal -0.444448 -0.31581 0.83829
    outer loop
      vertex -3.45635 2.4 -7.70424
      vertex -3.12044 0 -8.4303
      vertex -3.15023 2.4 -7.54194
    endloop
  endfacet
  facet normal -0.44443 -0.315813 0.838298
    outer loop
      vertex -3.12044 0 -8.4303
      vertex -2.73778 0 -8.22743
      vertex -3.15023 2.4 -7.54194
    endloop
  endfacet
  facet normal -0.53245 -0.315813 0.78534
    outer loop
      vertex -3.15023 2.4 -7.54194
      vertex -2.73778 0 -8.22743
      vertex -2.86344 2.4 -7.3475
    endloop
  endfacet
  facet normal -0.532474 -0.315809 0.785326
    outer loop
      vertex -2.73778 0 -8.22743
      vertex -2.3793 0 -7.98437
      vertex -2.86344 2.4 -7.3475
    endloop
  endfacet
  facet normal -0.614252 -0.315809 0.723159
    outer loop
      vertex -2.86344 2.4 -7.3475
      vertex -2.3793 0 -7.98437
      vertex -2.59936 2.4 -7.12319
    endloop
  endfacet
  facet normal -0.614256 -0.315809 0.723156
    outer loop
      vertex -2.3793 0 -7.98437
      vertex -2.0492 0 -7.70398
      vertex -2.59936 2.4 -7.12319
    endloop
  endfacet
  facet normal -0.688842 -0.315809 0.652504
    outer loop
      vertex -2.59936 2.4 -7.12319
      vertex -2.0492 0 -7.70398
      vertex -2.36108 2.4 -6.87164
    endloop
  endfacet
  facet normal -0.688834 -0.31581 0.652512
    outer loop
      vertex -2.0492 0 -7.70398
      vertex -1.75135 0 -7.38955
      vertex -2.36108 2.4 -6.87164
    endloop
  endfacet
  facet normal -0.755348 -0.315811 0.574206
    outer loop
      vertex -2.36108 2.4 -6.87164
      vertex -1.75135 0 -7.38955
      vertex -2.15139 2.4 -6.5958
    endloop
  endfacet
  facet normal -0.755351 -0.31581 0.574203
    outer loop
      vertex -1.75135 0 -7.38955
      vertex -1.48924 0 -7.04475
      vertex -2.15139 2.4 -6.5958
    endloop
  endfacet
  facet normal -0.813009 -0.31581 0.489163
    outer loop
      vertex -2.15139 2.4 -6.5958
      vertex -1.48924 0 -7.04475
      vertex -1.97276 2.4 -6.29891
    endloop
  endfacet
  facet normal -0.813011 -0.315809 0.48916
    outer loop
      vertex -1.48924 0 -7.04475
      vertex -1.26595 0 -6.67363
      vertex -1.97276 2.4 -6.29891
    endloop
  endfacet
  facet normal -0.861127 -0.315809 0.398402
    outer loop
      vertex -1.97276 2.4 -6.29891
      vertex -1.26595 0 -6.67363
      vertex -1.82727 2.4 -5.98444
    endloop
  endfacet
  facet normal -0.861127 -0.31581 0.398404
    outer loop
      vertex -1.26595 0 -6.67363
      vertex -1.08409 0 -6.28055
      vertex -1.82727 2.4 -5.98444
    endloop
  endfacet
  facet normal -0.899158 -0.31581 0.302951
    outer loop
      vertex -1.82727 2.4 -5.98444
      vertex -1.08409 0 -6.28055
      vertex -1.71664 2.4 -5.65609
    endloop
  endfacet
  facet normal -0.899156 -0.31581 0.302956
    outer loop
      vertex -1.08409 0 -6.28055
      vertex -0.945799 0 -5.87011
      vertex -1.71664 2.4 -5.65609
    endloop
  endfacet
  facet normal -0.926637 -0.315811 0.203981
    outer loop
      vertex -1.71664 2.4 -5.65609
      vertex -0.945799 0 -5.87011
      vertex -1.64215 2.4 -5.3177
    endloop
  endfacet
  facet normal -0.92664 -0.315809 0.203969
    outer loop
      vertex -0.945799 0 -5.87011
      vertex -0.852694 0 -5.44713
      vertex -1.64215 2.4 -5.3177
    endloop
  endfacet
  facet normal -0.943262 -0.315808 0.10258
    outer loop
      vertex -1.64215 2.4 -5.3177
      vertex -0.852694 0 -5.44713
      vertex -1.60469 2.4 -4.97324
    endloop
  endfacet
  facet normal -0.94326 -0.31581 0.102587
    outer loop
      vertex -0.852694 0 -5.44713
      vertex -0.805866 0 -5.01656
      vertex -1.60469 2.4 -4.97324
    endloop
  endfacet
  facet normal -0.948823 -0.315809 0
    outer loop
      vertex -0.805866 0 -5.01656
      vertex -1.60469 2.4 -4.62676
      vertex -1.60469 2.4 -4.97324
    endloop
  endfacet
  facet normal -0.948823 -0.315809 0
    outer loop
      vertex -1.60469 2.4 -4.62676
      vertex -0.805866 0 -5.01656
      vertex -0.805866 0 -4.58344
    endloop
  endfacet
  facet normal -0.943261 -0.31581 -0.10258
    outer loop
      vertex -1.60469 2.4 -4.62676
      vertex -0.805866 0 -4.58344
      vertex -1.64215 2.4 -4.2823
    endloop
  endfacet
  facet normal -0.943261 -0.315809 -0.102587
    outer loop
      vertex -1.64215 2.4 -4.2823
      vertex -0.805866 0 -4.58344
      vertex -0.852694 0 -4.15287
    endloop
  endfacet
  facet normal -0.926637 -0.315809 -0.203981
    outer loop
      vertex -1.64215 2.4 -4.2823
      vertex -0.852694 0 -4.15287
      vertex -1.71664 2.4 -3.94391
    endloop
  endfacet
  facet normal -0.926639 -0.31581 -0.203969
    outer loop
      vertex -1.71664 2.4 -3.94391
      vertex -0.852694 0 -4.15287
      vertex -0.945799 0 -3.72989
    endloop
  endfacet
  facet normal -0.899158 -0.31581 -0.302951
    outer loop
      vertex -1.71664 2.4 -3.94391
      vertex -0.945799 0 -3.72989
      vertex -1.82727 2.4 -3.61556
    endloop
  endfacet
  facet normal -0.899156 -0.31581 -0.302956
    outer loop
      vertex -1.82727 2.4 -3.61556
      vertex -0.945799 0 -3.72989
      vertex -1.08409 0 -3.31945
    endloop
  endfacet
  facet normal -0.861127 -0.31581 -0.398402
    outer loop
      vertex -1.82727 2.4 -3.61556
      vertex -1.08409 0 -3.31945
      vertex -1.97276 2.4 -3.30109
    endloop
  endfacet
  facet normal -0.861127 -0.315809 -0.398404
    outer loop
      vertex -1.97276 2.4 -3.30109
      vertex -1.08409 0 -3.31945
      vertex -1.26595 0 -2.92637
    endloop
  endfacet
  facet normal -0.813009 -0.315809 -0.489164
    outer loop
      vertex -2.15139 2.4 -3.0042
      vertex -1.97276 2.4 -3.30109
      vertex -1.26595 0 -2.92637
    endloop
  endfacet
  facet normal -0.813011 -0.31581 -0.48916
    outer loop
      vertex -2.15139 2.4 -3.0042
      vertex -1.26595 0 -2.92637
      vertex -1.48924 0 -2.55525
    endloop
  endfacet
  facet normal -0.755349 -0.31581 -0.574206
    outer loop
      vertex -2.36108 2.4 -2.72836
      vertex -2.15139 2.4 -3.0042
      vertex -1.48924 0 -2.55525
    endloop
  endfacet
  facet normal -0.755351 -0.315811 -0.574203
    outer loop
      vertex -2.36108 2.4 -2.72836
      vertex -1.48924 0 -2.55525
      vertex -1.75135 0 -2.21045
    endloop
  endfacet
  facet normal -0.688842 -0.315811 -0.652503
    outer loop
      vertex -2.59936 2.4 -2.47681
      vertex -2.36108 2.4 -2.72836
      vertex -1.75135 0 -2.21045
    endloop
  endfacet
  facet normal -0.688834 -0.315809 -0.652512
    outer loop
      vertex -2.59936 2.4 -2.47681
      vertex -1.75135 0 -2.21045
      vertex -2.0492 0 -1.89602
    endloop
  endfacet
  facet normal -0.614252 -0.315809 -0.723159
    outer loop
      vertex -2.86344 2.4 -2.2525
      vertex -2.59936 2.4 -2.47681
      vertex -2.0492 0 -1.89602
    endloop
  endfacet
  facet normal -0.614255 -0.315809 -0.723156
    outer loop
      vertex -2.86344 2.4 -2.2525
      vertex -2.0492 0 -1.89602
      vertex -2.3793 0 -1.61563
    endloop
  endfacet
  facet normal -0.532451 -0.315809 -0.785341
    outer loop
      vertex -3.15023 2.4 -2.05806
      vertex -2.86344 2.4 -2.2525
      vertex -2.3793 0 -1.61563
    endloop
  endfacet
  facet normal -0.532473 -0.315813 -0.785325
    outer loop
      vertex -3.15023 2.4 -2.05806
      vertex -2.3793 0 -1.61563
      vertex -2.73778 0 -1.37257
    endloop
  endfacet
  facet normal -0.444448 -0.315813 -0.838289
    outer loop
      vertex -3.45635 2.4 -1.89576
      vertex -3.15023 2.4 -2.05806
      vertex -2.73778 0 -1.37257
    endloop
  endfacet
  facet normal -0.44443 -0.31581 -0.838299
    outer loop
      vertex -3.45635 2.4 -1.89576
      vertex -2.73778 0 -1.37257
      vertex -3.12044 0 -1.1697
    endloop
  endfacet
  facet normal -0.351198 -0.31581 -0.881433
    outer loop
      vertex -3.77823 2.4 -1.76751
      vertex -3.45635 2.4 -1.89576
      vertex -3.12044 0 -1.1697
    endloop
  endfacet
  facet normal -0.351194 -0.315809 -0.881435
    outer loop
      vertex -3.77823 2.4 -1.76751
      vertex -3.12044 0 -1.1697
      vertex -3.52279 0 -1.00939
    endloop
  endfacet
  facet normal -0.253848 -0.315809 -0.914235
    outer loop
      vertex -4.11209 2.4 -1.67481
      vertex -3.77823 2.4 -1.76751
      vertex -3.52279 0 -1.00939
    endloop
  endfacet
  facet normal -0.253841 -0.315808 -0.914237
    outer loop
      vertex -4.11209 2.4 -1.67481
      vertex -3.52279 0 -1.00939
      vertex -3.94012 0 -0.893517
    endloop
  endfacet
  facet normal -0.153485 -0.315808 -0.936327
    outer loop
      vertex -4.45402 2.4 -1.61876
      vertex -4.11209 2.4 -1.67481
      vertex -3.94012 0 -0.893517
    endloop
  endfacet
  facet normal -0.153503 -0.315811 -0.936323
    outer loop
      vertex -4.45402 2.4 -1.61876
      vertex -3.94012 0 -0.893517
      vertex -4.36752 0 -0.823448
    endloop
  endfacet
  facet normal -0.0513723 -0.315811 -0.94743
    outer loop
      vertex -4.8 2.4 -1.6
      vertex -4.45402 2.4 -1.61876
      vertex -4.36752 0 -0.823448
    endloop
  endfacet
  facet normal -0.0513695 -0.315811 -0.947431
    outer loop
      vertex -4.8 2.4 -1.6
      vertex -4.36752 0 -0.823448
      vertex -4.8 0 -0.799999
    endloop
  endfacet
  facet normal 0.0513723 -0.315811 -0.947431
    outer loop
      vertex -5.14598 2.4 -1.61876
      vertex -4.8 2.4 -1.6
      vertex -4.8 0 -0.799999
    endloop
  endfacet
  facet normal 0.0513695 -0.315811 -0.947431
    outer loop
      vertex -5.23248 0 -0.823448
      vertex -5.14598 2.4 -1.61876
      vertex -4.8 0 -0.799999
    endloop
  endfacet
  facet normal 0.153485 0.315811 0.936326
    outer loop
      vertex -5.14598 2.4 -7.98124
      vertex -5.23248 4.8 -8.77655
      vertex -5.48791 2.4 -7.92519
    endloop
  endfacet
  facet normal 0.153505 0.315808 0.936323
    outer loop
      vertex -5.23248 4.8 -8.77655
      vertex -5.65988 4.8 -8.70648
      vertex -5.48791 2.4 -7.92519
    endloop
  endfacet
  facet normal 0.253855 0.315807 0.914234
    outer loop
      vertex -5.48791 2.4 -7.92519
      vertex -5.65988 4.8 -8.70648
      vertex -5.82176 2.4 -7.83249
    endloop
  endfacet
  facet normal 0.25384 0.315809 0.914237
    outer loop
      vertex -5.65988 4.8 -8.70648
      vertex -6.0772 4.8 -8.59061
      vertex -5.82176 2.4 -7.83249
    endloop
  endfacet
  facet normal 0.351189 0.315809 0.881437
    outer loop
      vertex -5.82176 2.4 -7.83249
      vertex -6.0772 4.8 -8.59061
      vertex -6.14365 2.4 -7.70424
    endloop
  endfacet
  facet normal 0.351186 0.31581 0.881438
    outer loop
      vertex -6.0772 4.8 -8.59061
      vertex -6.47956 4.8 -8.4303
      vertex -6.14365 2.4 -7.70424
    endloop
  endfacet
  facet normal 0.444448 0.31581 0.83829
    outer loop
      vertex -6.14365 2.4 -7.70424
      vertex -6.47956 4.8 -8.4303
      vertex -6.44977 2.4 -7.54194
    endloop
  endfacet
  facet normal 0.44443 0.315813 0.838298
    outer loop
      vertex -6.47956 4.8 -8.4303
      vertex -6.86222 4.8 -8.22743
      vertex -6.44977 2.4 -7.54194
    endloop
  endfacet
  facet normal 0.53245 0.315813 0.78534
    outer loop
      vertex -6.44977 2.4 -7.54194
      vertex -6.86222 4.8 -8.22743
      vertex -6.73656 2.4 -7.3475
    endloop
  endfacet
  facet normal 0.532474 0.315809 0.785326
    outer loop
      vertex -6.86222 4.8 -8.22743
      vertex -7.2207 4.8 -7.98437
      vertex -6.73656 2.4 -7.3475
    endloop
  endfacet
  facet normal 0.614252 0.315809 0.723159
    outer loop
      vertex -6.73656 2.4 -7.3475
      vertex -7.2207 4.8 -7.98437
      vertex -7.00064 2.4 -7.12319
    endloop
  endfacet
  facet normal 0.614256 0.315809 0.723156
    outer loop
      vertex -7.2207 4.8 -7.98437
      vertex -7.5508 4.8 -7.70398
      vertex -7.00064 2.4 -7.12319
    endloop
  endfacet
  facet normal 0.688842 0.315809 0.652504
    outer loop
      vertex -7.00064 2.4 -7.12319
      vertex -7.5508 4.8 -7.70398
      vertex -7.23892 2.4 -6.87164
    endloop
  endfacet
  facet normal 0.688834 0.31581 0.652512
    outer loop
      vertex -7.5508 4.8 -7.70398
      vertex -7.84865 4.8 -7.38955
      vertex -7.23892 2.4 -6.87164
    endloop
  endfacet
  facet normal 0.755362 0.31581 0.574189
    outer loop
      vertex -7.23892 2.4 -6.87164
      vertex -7.84865 4.8 -7.38955
      vertex -7.4486 2.4 -6.5958
    endloop
  endfacet
  facet normal 0.75535 0.315813 0.574202
    outer loop
      vertex -7.84865 4.8 -7.38955
      vertex -8.11076 4.8 -7.04475
      vertex -7.4486 2.4 -6.5958
    endloop
  endfacet
  facet normal 0.812996 0.315813 0.489183
    outer loop
      vertex -7.4486 2.4 -6.5958
      vertex -8.11076 4.8 -7.04475
      vertex -7.62724 2.4 -6.29891
    endloop
  endfacet
  facet normal 0.813011 0.315809 0.48916
    outer loop
      vertex -8.11076 4.8 -7.04475
      vertex -8.33405 4.8 -6.67363
      vertex -7.62724 2.4 -6.29891
    endloop
  endfacet
  facet normal 0.861138 0.315809 0.398379
    outer loop
      vertex -7.62724 2.4 -6.29891
      vertex -8.33405 4.8 -6.67363
      vertex -7.77272 2.4 -5.98444
    endloop
  endfacet
  facet normal 0.861126 0.315813 0.398403
    outer loop
      vertex -8.33405 4.8 -6.67363
      vertex -8.51591 4.8 -6.28055
      vertex -7.77272 2.4 -5.98444
    endloop
  endfacet
  facet normal 0.899149 0.315813 0.302975
    outer loop
      vertex -7.77272 2.4 -5.98444
      vertex -8.51591 4.8 -6.28055
      vertex -7.88336 2.4 -5.65609
    endloop
  endfacet
  facet normal 0.899157 0.31581 0.302954
    outer loop
      vertex -8.51591 4.8 -6.28055
      vertex -8.6542 4.8 -5.87011
      vertex -7.88336 2.4 -5.65609
    endloop
  endfacet
  facet normal 0.926637 0.31581 0.203981
    outer loop
      vertex -7.88336 2.4 -5.65609
      vertex -8.6542 4.8 -5.87011
      vertex -7.95785 2.4 -5.3177
    endloop
  endfacet
  facet normal 0.926643 0.315807 0.203959
    outer loop
      vertex -8.6542 4.8 -5.87011
      vertex -8.7473 4.8 -5.44713
      vertex -7.95785 2.4 -5.3177
    endloop
  endfacet
  facet normal 0.943262 0.315806 0.10258
    outer loop
      vertex -7.95785 2.4 -5.3177
      vertex -8.7473 4.8 -5.44713
      vertex -7.99531 2.4 -4.97324
    endloop
  endfacet
  facet normal 0.94326 0.315808 0.102592
    outer loop
      vertex -8.7473 4.8 -5.44713
      vertex -8.79413 4.8 -5.01656
      vertex -7.99531 2.4 -4.97324
    endloop
  endfacet
  facet normal 0.948823 0.315808 0
    outer loop
      vertex -7.99531 2.4 -4.62676
      vertex -8.79413 4.8 -5.01656
      vertex -8.79413 4.8 -4.58344
    endloop
  endfacet
  facet normal 0.948823 0.315808 0
    outer loop
      vertex -8.79413 4.8 -5.01656
      vertex -7.99531 2.4 -4.62676
      vertex -7.99531 2.4 -4.97324
    endloop
  endfacet
  facet normal 0.943262 0.315808 -0.10258
    outer loop
      vertex -7.99531 2.4 -4.62676
      vertex -8.79413 4.8 -4.58344
      vertex -7.95785 2.4 -4.2823
    endloop
  endfacet
  facet normal 0.943261 0.315807 -0.102592
    outer loop
      vertex -7.95785 2.4 -4.2823
      vertex -8.79413 4.8 -4.58344
      vertex -8.7473 4.8 -4.15287
    endloop
  endfacet
  facet normal 0.926638 0.315807 -0.203981
    outer loop
      vertex -7.95785 2.4 -4.2823
      vertex -8.7473 4.8 -4.15287
      vertex -7.88336 2.4 -3.94391
    endloop
  endfacet
  facet normal 0.926642 0.31581 -0.203958
    outer loop
      vertex -7.88336 2.4 -3.94391
      vertex -8.7473 4.8 -4.15287
      vertex -8.6542 4.8 -3.72989
    endloop
  endfacet
  facet normal 0.89915 0.31581 -0.302975
    outer loop
      vertex -7.88336 2.4 -3.94391
      vertex -8.6542 4.8 -3.72989
      vertex -7.77272 2.4 -3.61556
    endloop
  endfacet
  facet normal 0.899156 0.315813 -0.302954
    outer loop
      vertex -7.77272 2.4 -3.61556
      vertex -8.6542 4.8 -3.72989
      vertex -8.51591 4.8 -3.31945
    endloop
  endfacet
  facet normal 0.861137 0.315813 -0.398379
    outer loop
      vertex -7.77272 2.4 -3.61556
      vertex -8.51591 4.8 -3.31945
      vertex -7.62724 2.4 -3.30109
    endloop
  endfacet
  facet normal 0.861127 0.315809 -0.398404
    outer loop
      vertex -7.62724 2.4 -3.30109
      vertex -8.51591 4.8 -3.31945
      vertex -8.33405 4.8 -2.92637
    endloop
  endfacet
  facet normal 0.812997 0.315809 -0.489184
    outer loop
      vertex -7.4486 2.4 -3.0042
      vertex -7.62724 2.4 -3.30109
      vertex -8.33405 4.8 -2.92637
    endloop
  endfacet
  facet normal 0.81301 0.315813 -0.48916
    outer loop
      vertex -7.4486 2.4 -3.0042
      vertex -8.33405 4.8 -2.92637
      vertex -8.11076 4.8 -2.55525
    endloop
  endfacet
  facet normal 0.755361 0.315813 -0.574188
    outer loop
      vertex -7.23892 2.4 -2.72836
      vertex -7.4486 2.4 -3.0042
      vertex -8.11076 4.8 -2.55525
    endloop
  endfacet
  facet normal 0.755351 0.315811 -0.574203
    outer loop
      vertex -7.23892 2.4 -2.72836
      vertex -8.11076 4.8 -2.55525
      vertex -7.84865 4.8 -2.21045
    endloop
  endfacet
  facet normal 0.688842 0.315811 -0.652503
    outer loop
      vertex -7.00064 2.4 -2.47681
      vertex -7.23892 2.4 -2.72836
      vertex -7.84865 4.8 -2.21045
    endloop
  endfacet
  facet normal 0.688834 0.315809 -0.652512
    outer loop
      vertex -7.00064 2.4 -2.47681
      vertex -7.84865 4.8 -2.21045
      vertex -7.5508 4.8 -1.89602
    endloop
  endfacet
  facet normal 0.614252 0.315809 -0.723159
    outer loop
      vertex -6.73656 2.4 -2.2525
      vertex -7.00064 2.4 -2.47681
      vertex -7.5508 4.8 -1.89602
    endloop
  endfacet
  facet normal 0.614255 0.315809 -0.723156
    outer loop
      vertex -6.73656 2.4 -2.2525
      vertex -7.5508 4.8 -1.89602
      vertex -7.2207 4.8 -1.61563
    endloop
  endfacet
  facet normal 0.532451 0.315809 -0.785341
    outer loop
      vertex -6.44977 2.4 -2.05806
      vertex -6.73656 2.4 -2.2525
      vertex -7.2207 4.8 -1.61563
    endloop
  endfacet
  facet normal 0.532473 0.315813 -0.785325
    outer loop
      vertex -6.44977 2.4 -2.05806
      vertex -7.2207 4.8 -1.61563
      vertex -6.86222 4.8 -1.37257
    endloop
  endfacet
  facet normal 0.444448 0.315813 -0.838289
    outer loop
      vertex -6.14365 2.4 -1.89576
      vertex -6.44977 2.4 -2.05806
      vertex -6.86222 4.8 -1.37257
    endloop
  endfacet
  facet normal 0.44443 0.31581 -0.838299
    outer loop
      vertex -6.14365 2.4 -1.89576
      vertex -6.86222 4.8 -1.37257
      vertex -6.47956 4.8 -1.1697
    endloop
  endfacet
  facet normal 0.351189 0.31581 -0.881437
    outer loop
      vertex -5.82176 2.4 -1.76751
      vertex -6.14365 2.4 -1.89576
      vertex -6.47956 4.8 -1.1697
    endloop
  endfacet
  facet normal 0.351186 0.315809 -0.881438
    outer loop
      vertex -5.82176 2.4 -1.76751
      vertex -6.47956 4.8 -1.1697
      vertex -6.0772 4.8 -1.00939
    endloop
  endfacet
  facet normal 0.253855 0.31581 -0.914233
    outer loop
      vertex -5.48791 2.4 -1.67481
      vertex -5.82176 2.4 -1.76751
      vertex -6.0772 4.8 -1.00939
    endloop
  endfacet
  facet normal 0.253847 0.315808 -0.914236
    outer loop
      vertex -5.48791 2.4 -1.67481
      vertex -6.0772 4.8 -1.00939
      vertex -5.65988 4.8 -0.893517
    endloop
  endfacet
  facet normal 0.153485 0.315808 -0.936327
    outer loop
      vertex -5.14598 2.4 -1.61876
      vertex -5.48791 2.4 -1.67481
      vertex -5.65988 4.8 -0.893517
    endloop
  endfacet
  facet normal 0.153503 0.315811 -0.936323
    outer loop
      vertex -5.14598 2.4 -1.61876
      vertex -5.65988 4.8 -0.893517
      vertex -5.23248 4.8 -0.823448
    endloop
  endfacet
  facet normal 0.0513723 0.315811 -0.94743
    outer loop
      vertex -4.8 2.4 -1.6
      vertex -5.14598 2.4 -1.61876
      vertex -5.23248 4.8 -0.823448
    endloop
  endfacet
  facet normal 0.0513695 0.315811 -0.947431
    outer loop
      vertex -4.8 2.4 -1.6
      vertex -5.23248 4.8 -0.823448
      vertex -4.8 4.8 -0.799999
    endloop
  endfacet
  facet normal -0.0513723 0.315811 -0.947431
    outer loop
      vertex -4.45402 2.4 -1.61876
      vertex -4.8 2.4 -1.6
      vertex -4.8 4.8 -0.799999
    endloop
  endfacet
  facet normal -0.0513695 0.315811 -0.947431
    outer loop
      vertex -4.36752 4.8 -0.823448
      vertex -4.45402 2.4 -1.61876
      vertex -4.8 4.8 -0.799999
    endloop
  endfacet
  facet normal -0.153485 0.315811 -0.936326
    outer loop
      vertex -4.11209 2.4 -1.67481
      vertex -4.45402 2.4 -1.61876
      vertex -4.36752 4.8 -0.823448
    endloop
  endfacet
  facet normal -0.153503 0.315809 -0.936323
    outer loop
      vertex -3.94012 4.8 -0.893517
      vertex -4.11209 2.4 -1.67481
      vertex -4.36752 4.8 -0.823448
    endloop
  endfacet
  facet normal -0.253848 0.315808 -0.914235
    outer loop
      vertex -3.77823 2.4 -1.76751
      vertex -4.11209 2.4 -1.67481
      vertex -3.94012 4.8 -0.893517
    endloop
  endfacet
  facet normal -0.253841 0.315809 -0.914237
    outer loop
      vertex -3.52279 4.8 -1.00939
      vertex -3.77823 2.4 -1.76751
      vertex -3.94012 4.8 -0.893517
    endloop
  endfacet
  facet normal -0.351199 0.315809 -0.881433
    outer loop
      vertex -3.45635 2.4 -1.89576
      vertex -3.77823 2.4 -1.76751
      vertex -3.52279 4.8 -1.00939
    endloop
  endfacet
  facet normal -0.351194 0.31581 -0.881435
    outer loop
      vertex -3.12044 4.8 -1.1697
      vertex -3.45635 2.4 -1.89576
      vertex -3.52279 4.8 -1.00939
    endloop
  endfacet
  facet normal -0.444448 0.31581 -0.83829
    outer loop
      vertex -3.15023 2.4 -2.05806
      vertex -3.45635 2.4 -1.89576
      vertex -3.12044 4.8 -1.1697
    endloop
  endfacet
  facet normal -0.44443 0.315813 -0.838298
    outer loop
      vertex -2.73778 4.8 -1.37257
      vertex -3.15023 2.4 -2.05806
      vertex -3.12044 4.8 -1.1697
    endloop
  endfacet
  facet normal -0.53245 0.315813 -0.78534
    outer loop
      vertex -2.86344 2.4 -2.2525
      vertex -3.15023 2.4 -2.05806
      vertex -2.73778 4.8 -1.37257
    endloop
  endfacet
  facet normal -0.532474 0.315809 -0.785326
    outer loop
      vertex -2.3793 4.8 -1.61563
      vertex -2.86344 2.4 -2.2525
      vertex -2.73778 4.8 -1.37257
    endloop
  endfacet
  facet normal -0.614252 0.315809 -0.723159
    outer loop
      vertex -2.59936 2.4 -2.47681
      vertex -2.86344 2.4 -2.2525
      vertex -2.3793 4.8 -1.61563
    endloop
  endfacet
  facet normal -0.614256 0.315809 -0.723156
    outer loop
      vertex -2.0492 4.8 -1.89602
      vertex -2.59936 2.4 -2.47681
      vertex -2.3793 4.8 -1.61563
    endloop
  endfacet
  facet normal -0.688842 0.315809 -0.652504
    outer loop
      vertex -2.36108 2.4 -2.72836
      vertex -2.59936 2.4 -2.47681
      vertex -2.0492 4.8 -1.89602
    endloop
  endfacet
  facet normal -0.688834 0.31581 -0.652512
    outer loop
      vertex -1.75135 4.8 -2.21045
      vertex -2.36108 2.4 -2.72836
      vertex -2.0492 4.8 -1.89602
    endloop
  endfacet
  facet normal -0.755348 0.315811 -0.574206
    outer loop
      vertex -2.15139 2.4 -3.0042
      vertex -2.36108 2.4 -2.72836
      vertex -1.75135 4.8 -2.21045
    endloop
  endfacet
  facet normal -0.755351 0.31581 -0.574203
    outer loop
      vertex -1.48924 4.8 -2.55525
      vertex -2.15139 2.4 -3.0042
      vertex -1.75135 4.8 -2.21045
    endloop
  endfacet
  facet normal -0.813009 0.31581 -0.489163
    outer loop
      vertex -1.97276 2.4 -3.30109
      vertex -2.15139 2.4 -3.0042
      vertex -1.48924 4.8 -2.55525
    endloop
  endfacet
  facet normal -0.813011 0.315809 -0.48916
    outer loop
      vertex -1.26595 4.8 -2.92637
      vertex -1.97276 2.4 -3.30109
      vertex -1.48924 4.8 -2.55525
    endloop
  endfacet
  facet normal -0.861127 0.315809 -0.398402
    outer loop
      vertex -1.82727 2.4 -3.61556
      vertex -1.97276 2.4 -3.30109
      vertex -1.26595 4.8 -2.92637
    endloop
  endfacet
  facet normal -0.861127 0.31581 -0.398404
    outer loop
      vertex -1.08409 4.8 -3.31945
      vertex -1.82727 2.4 -3.61556
      vertex -1.26595 4.8 -2.92637
    endloop
  endfacet
  facet normal -0.899158 0.31581 -0.302951
    outer loop
      vertex -1.71664 2.4 -3.94391
      vertex -1.82727 2.4 -3.61556
      vertex -1.08409 4.8 -3.31945
    endloop
  endfacet
  facet normal -0.899156 0.31581 -0.302956
    outer loop
      vertex -0.945799 4.8 -3.72989
      vertex -1.71664 2.4 -3.94391
      vertex -1.08409 4.8 -3.31945
    endloop
  endfacet
  facet normal -0.926637 0.315811 -0.203981
    outer loop
      vertex -1.64215 2.4 -4.2823
      vertex -1.71664 2.4 -3.94391
      vertex -0.945799 4.8 -3.72989
    endloop
  endfacet
  facet normal -0.92664 0.315809 -0.203969
    outer loop
      vertex -0.852694 4.8 -4.15287
      vertex -1.64215 2.4 -4.2823
      vertex -0.945799 4.8 -3.72989
    endloop
  endfacet
  facet normal -0.943262 0.315808 -0.10258
    outer loop
      vertex -1.60469 2.4 -4.62676
      vertex -1.64215 2.4 -4.2823
      vertex -0.852694 4.8 -4.15287
    endloop
  endfacet
  facet normal -0.94326 0.31581 -0.102587
    outer loop
      vertex -0.805866 4.8 -4.58344
      vertex -1.60469 2.4 -4.62676
      vertex -0.852694 4.8 -4.15287
    endloop
  endfacet
  facet normal -0.948823 0.315809 0
    outer loop
      vertex -1.60469 2.4 -4.97324
      vertex -0.805866 4.8 -4.58344
      vertex -0.805866 4.8 -5.01656
    endloop
  endfacet
  facet normal -0.948823 0.315809 0
    outer loop
      vertex -0.805866 4.8 -4.58344
      vertex -1.60469 2.4 -4.97324
      vertex -1.60469 2.4 -4.62676
    endloop
  endfacet
  facet normal -0.943261 0.31581 0.10258
    outer loop
      vertex -0.805866 4.8 -5.01656
      vertex -1.64215 2.4 -5.3177
      vertex -1.60469 2.4 -4.97324
    endloop
  endfacet
  facet normal -0.943261 0.315809 0.102587
    outer loop
      vertex -0.852694 4.8 -5.44713
      vertex -1.64215 2.4 -5.3177
      vertex -0.805866 4.8 -5.01656
    endloop
  endfacet
  facet normal -0.926637 0.315809 0.203981
    outer loop
      vertex -0.852694 4.8 -5.44713
      vertex -1.71664 2.4 -5.65609
      vertex -1.64215 2.4 -5.3177
    endloop
  endfacet
  facet normal -0.926639 0.31581 0.203969
    outer loop
      vertex -0.945799 4.8 -5.87011
      vertex -1.71664 2.4 -5.65609
      vertex -0.852694 4.8 -5.44713
    endloop
  endfacet
  facet normal -0.899158 0.31581 0.302951
    outer loop
      vertex -0.945799 4.8 -5.87011
      vertex -1.82727 2.4 -5.98444
      vertex -1.71664 2.4 -5.65609
    endloop
  endfacet
  facet normal -0.899156 0.31581 0.302956
    outer loop
      vertex -1.08409 4.8 -6.28055
      vertex -1.82727 2.4 -5.98444
      vertex -0.945799 4.8 -5.87011
    endloop
  endfacet
  facet normal -0.861127 0.31581 0.398402
    outer loop
      vertex -1.08409 4.8 -6.28055
      vertex -1.97276 2.4 -6.29891
      vertex -1.82727 2.4 -5.98444
    endloop
  endfacet
  facet normal -0.861127 0.315809 0.398404
    outer loop
      vertex -1.26595 4.8 -6.67363
      vertex -1.97276 2.4 -6.29891
      vertex -1.08409 4.8 -6.28055
    endloop
  endfacet
  facet normal -0.813009 0.315809 0.489164
    outer loop
      vertex -1.26595 4.8 -6.67363
      vertex -2.15139 2.4 -6.5958
      vertex -1.97276 2.4 -6.29891
    endloop
  endfacet
  facet normal -0.813011 0.31581 0.48916
    outer loop
      vertex -1.26595 4.8 -6.67363
      vertex -1.48924 4.8 -7.04475
      vertex -2.15139 2.4 -6.5958
    endloop
  endfacet
  facet normal -0.755349 0.31581 0.574206
    outer loop
      vertex -1.48924 4.8 -7.04475
      vertex -2.36108 2.4 -6.87164
      vertex -2.15139 2.4 -6.5958
    endloop
  endfacet
  facet normal -0.755351 0.315811 0.574203
    outer loop
      vertex -1.48924 4.8 -7.04475
      vertex -1.75135 4.8 -7.38955
      vertex -2.36108 2.4 -6.87164
    endloop
  endfacet
  facet normal -0.688842 0.315811 0.652503
    outer loop
      vertex -1.75135 4.8 -7.38955
      vertex -2.59936 2.4 -7.12319
      vertex -2.36108 2.4 -6.87164
    endloop
  endfacet
  facet normal -0.688834 0.315809 0.652512
    outer loop
      vertex -1.75135 4.8 -7.38955
      vertex -2.0492 4.8 -7.70398
      vertex -2.59936 2.4 -7.12319
    endloop
  endfacet
  facet normal -0.614252 0.315809 0.723159
    outer loop
      vertex -2.0492 4.8 -7.70398
      vertex -2.86344 2.4 -7.3475
      vertex -2.59936 2.4 -7.12319
    endloop
  endfacet
  facet normal -0.614255 0.315809 0.723156
    outer loop
      vertex -2.0492 4.8 -7.70398
      vertex -2.3793 4.8 -7.98437
      vertex -2.86344 2.4 -7.3475
    endloop
  endfacet
  facet normal -0.532451 0.315809 0.785341
    outer loop
      vertex -2.3793 4.8 -7.98437
      vertex -3.15023 2.4 -7.54194
      vertex -2.86344 2.4 -7.3475
    endloop
  endfacet
  facet normal -0.532473 0.315813 0.785325
    outer loop
      vertex -2.3793 4.8 -7.98437
      vertex -2.73778 4.8 -8.22743
      vertex -3.15023 2.4 -7.54194
    endloop
  endfacet
  facet normal -0.444448 0.315813 0.838289
    outer loop
      vertex -2.73778 4.8 -8.22743
      vertex -3.45635 2.4 -7.70424
      vertex -3.15023 2.4 -7.54194
    endloop
  endfacet
  facet normal -0.44443 0.31581 0.838299
    outer loop
      vertex -2.73778 4.8 -8.22743
      vertex -3.12044 4.8 -8.4303
      vertex -3.45635 2.4 -7.70424
    endloop
  endfacet
  facet normal -0.351198 0.31581 0.881433
    outer loop
      vertex -3.12044 4.8 -8.4303
      vertex -3.77823 2.4 -7.83249
      vertex -3.45635 2.4 -7.70424
    endloop
  endfacet
  facet normal -0.351194 0.315809 0.881435
    outer loop
      vertex -3.12044 4.8 -8.4303
      vertex -3.52279 4.8 -8.59061
      vertex -3.77823 2.4 -7.83249
    endloop
  endfacet
  facet normal -0.253848 0.315809 0.914235
    outer loop
      vertex -3.52279 4.8 -8.59061
      vertex -4.11209 2.4 -7.92519
      vertex -3.77823 2.4 -7.83249
    endloop
  endfacet
  facet normal -0.253835 0.315807 0.914239
    outer loop
      vertex -3.52279 4.8 -8.59061
      vertex -3.94012 4.8 -8.70648
      vertex -4.11209 2.4 -7.92519
    endloop
  endfacet
  facet normal -0.153485 0.315807 0.936327
    outer loop
      vertex -3.94012 4.8 -8.70648
      vertex -4.45402 2.4 -7.98124
      vertex -4.11209 2.4 -7.92519
    endloop
  endfacet
  facet normal -0.153505 0.31581 0.936323
    outer loop
      vertex -3.94012 4.8 -8.70648
      vertex -4.36752 4.8 -8.77655
      vertex -4.45402 2.4 -7.98124
    endloop
  endfacet
  facet normal -0.0513723 0.31581 0.947431
    outer loop
      vertex -4.36752 4.8 -8.77655
      vertex -4.8 2.4 -8
      vertex -4.45402 2.4 -7.98124
    endloop
  endfacet
  facet normal -0.0513717 0.31581 0.947431
    outer loop
      vertex -4.36752 4.8 -8.77655
      vertex -4.8 4.8 -8.8
      vertex -4.8 2.4 -8
    endloop
  endfacet
  facet normal 0.0513723 0.31581 0.947431
    outer loop
      vertex -4.8 2.4 -8
      vertex -4.8 4.8 -8.8
      vertex -5.14598 2.4 -7.98124
    endloop
  endfacet
  facet normal 0.0513717 0.31581 0.947431
    outer loop
      vertex -4.8 4.8 -8.8
      vertex -5.23248 4.8 -8.77655
      vertex -5.14598 2.4 -7.98124
    endloop
  endfacet
  facet normal 0 0 -1
    outer loop
      vertex 0 0 -9.6
      vertex -0.5 1 -9.6
      vertex 0 4.8 -9.6
    endloop
  endfacet
  facet normal 0 0 -1
    outer loop
      vertex 0 0 -9.6
      vertex -1.3 1 -9.6
      vertex -0.5 1 -9.6
    endloop
  endfacet
  facet normal -0 0 -1
    outer loop
      vertex -1.3 1 -9.6
      vertex -9.6 0 -9.6
      vertex -1.3 3.8 -9.6
    endloop
  endfacet
  facet normal 0 0 -1
    outer loop
      vertex -9.6 0 -9.6
      vertex -1.3 1 -9.6
      vertex 0 0 -9.6
    endloop
  endfacet
  facet normal 0 0 -1
    outer loop
      vertex -0.5 3.8 -9.6
      vertex 0 4.8 -9.6
      vertex -0.5 1 -9.6
    endloop
  endfacet
  facet normal 0 0 -1
    outer loop
      vertex -1.3 3.8 -9.6
      vertex 0 4.8 -9.6
      vertex -0.5 3.8 -9.6
    endloop
  endfacet
  facet normal 0 0 -1
    outer loop
      vertex -9.6 4.8 -9.6
      vertex -1.3 3.8 -9.6
      vertex -9.6 0 -9.6
    endloop
  endfacet
  facet normal 0 0 -1
    outer loop
      vertex -1.3 3.8 -9.6
      vertex -9.6 4.8 -9.6
      vertex 0 4.8 -9.6
    endloop
  endfacet
  facet normal -1 0 0
    outer loop
      vertex -9.6 0 -9.6
      vertex -9.6 4.8 0
      vertex -9.6 4.8 -9.6
    endloop
  endfacet
  facet normal -1 -0 0
    outer loop
      vertex -9.6 4.8 0
      vertex -9.6 0 -9.6
      vertex -9.6 0 0
    endloop
  endfacet
  facet normal 0 1 0
    outer loop
      vertex 0 4.8 6.6
      vertex -1 4.8 6.59999
      vertex -1 4.8 6.6
    endloop
  endfacet
  facet normal 0 1 -0
    outer loop
      vertex 0 4.8 0
      vertex -1 4.8 6.59999
      vertex 0 4.8 6.6
    endloop
  endfacet
  facet normal 0 1 0
    outer loop
      vertex -1 4.8 6.59999
      vertex 0 4.8 0
      vertex -4.59999 4.8 3
    endloop
  endfacet
  facet normal 0 1 0
    outer loop
      vertex -9.6 4.8 0
      vertex -4.59999 4.8 3
      vertex 0 4.8 0
    endloop
  endfacet
  facet normal 0 1 0
    outer loop
      vertex -4.59999 4.8 3
      vertex -9.6 4.8 0
      vertex -9.6 4.8 3
    endloop
  endfacet
  facet normal -0 0 1
    outer loop
      vertex -9.6 4.8 3
      vertex -4.59999 3.4 3
      vertex -4.59999 4.8 3
    endloop
  endfacet
  facet normal 0 0 1
    outer loop
      vertex -4.59999 3.4 3
      vertex -9.6 4.8 3
      vertex -4.59999 1.4 3
    endloop
  endfacet
  facet normal 0 0 1
    outer loop
      vertex -9.6 0 3
      vertex -4.59999 1.4 3
      vertex -9.6 4.8 3
    endloop
  endfacet
  facet normal 0 0 1
    outer loop
      vertex -4.59999 1.4 3
      vertex -9.6 0 3
      vertex -4.59999 0 3
    endloop
  endfacet
  facet normal -0 0 1
    outer loop
      vertex -4.59999 3.4 3
      vertex -1 1.4 3
      vertex -1 3.4 3
    endloop
  endfacet
  facet normal 0 0 1
    outer loop
      vertex -1 1.4 3
      vertex -4.59999 3.4 3
      vertex -4.59999 1.4 3
    endloop
  endfacet
  facet normal -1 0 0
    outer loop
      vertex -9.6 0 0
      vertex -9.6 4.8 3
      vertex -9.6 4.8 0
    endloop
  endfacet
  facet normal -1 -0 0
    outer loop
      vertex -9.6 4.8 3
      vertex -9.6 0 0
      vertex -9.6 0 3
    endloop
  endfacet
  facet normal -0 0 1
    outer loop
      vertex -1 4.8 6.6
      vertex 0 0 6.6
      vertex 0 4.8 6.6
    endloop
  endfacet
  facet normal 0 0 1
    outer loop
      vertex 0 0 6.6
      vertex -1 4.8 6.6
      vertex -1 0 6.6
    endloop
  endfacet
  facet normal -1 0 0
    outer loop
      vertex -1 3.4 3
      vertex -1 1.4 3
      vertex -1 3.4 6.59999
    endloop
  endfacet
  facet normal -1 0 0
    outer loop
      vertex -1 3.4 6.59999
      vertex -1 4.8 6.6
      vertex -1 4.8 6.59999
    endloop
  endfacet
  facet normal -1 0 0
    outer loop
      vertex -1 1.4 6.59999
      vertex -1 3.4 6.59999
      vertex -1 1.4 3
    endloop
  endfacet
  facet normal -1 0 0
    outer loop
      vertex -1 1.4 6.59999
      vertex -1 4.8 6.6
      vertex -1 3.4 6.59999
    endloop
  endfacet
  facet normal -1 0 0
    outer loop
      vertex -1 0 6.6
      vertex -1 1.4 6.59999
      vertex -1 0 6.59999
    endloop
  endfacet
  facet normal -1 0 0
    outer loop
      vertex -1 1.4 6.59999
      vertex -1 0 6.6
      vertex -1 4.8 6.6
    endloop
  endfacet
  facet normal 0 1 0
    outer loop
      vertex -4.59999 1.4 3
      vertex -1 1.4 6.59999
      vertex -1 1.4 3
    endloop
  endfacet
  facet normal -0.707107 0 0.707107
    outer loop
      vertex -4.59999 0 3
      vertex -1 1.4 6.59999
      vertex -4.59999 1.4 3
    endloop
  endfacet
  facet normal -0.707107 0 0.707107
    outer loop
      vertex -1 1.4 6.59999
      vertex -4.59999 0 3
      vertex -1 0 6.59999
    endloop
  endfacet
  facet normal 0 -1 0
    outer loop
      vertex -1 3.4 3
      vertex -1 3.4 6.59999
      vertex -4.59999 3.4 3
    endloop
  endfacet
  facet normal -0.707107 0 0.707107
    outer loop
      vertex -4.59999 3.4 3
      vertex -1 4.8 6.59999
      vertex -4.59999 4.8 3
    endloop
  endfacet
  facet normal -0.707107 0 0.707107
    outer loop
      vertex -1 4.8 6.59999
      vertex -4.59999 3.4 3
      vertex -1 3.4 6.59999
    endloop
  endfacet
endsolid OpenSCAD_Model
