solid OpenSCAD_Model
  facet normal 0 0 1
    outer loop
      vertex 3.6 47.5 1.5
      vertex 7 47.5 1.5
      vertex 6.84703 48.9554 1.5
    endloop
  endfacet
  facet normal 0 0 1
    outer loop
      vertex 3.52133 48.2485 1.5
      vertex 6.84703 48.9554 1.5
      vertex 6.39482 50.3472 1.5
    endloop
  endfacet
  facet normal 0 0 1
    outer loop
      vertex 7 47.5 1.5
      vertex 3.6 47.5 1.5
      vertex 6.84703 46.0446 1.5
    endloop
  endfacet
  facet normal 0 0 1
    outer loop
      vertex 3.28876 48.9643 1.5
      vertex 6.39482 50.3472 1.5
      vertex 5.66312 51.6145 1.5
    endloop
  endfacet
  facet normal -0 0 1
    outer loop
      vertex 3.52133 46.7515 1.5
      vertex 6.84703 46.0446 1.5
      vertex 3.6 47.5 1.5
    endloop
  endfacet
  facet normal 0 0 1
    outer loop
      vertex 2.91246 49.616 1.5
      vertex 5.66312 51.6145 1.5
      vertex 4.68391 52.702 1.5
    endloop
  endfacet
  facet normal 0 0 1
    outer loop
      vertex 6.84703 46.0446 1.5
      vertex 3.52133 46.7515 1.5
      vertex 6.39482 44.6528 1.5
    endloop
  endfacet
  facet normal -0 0 1
    outer loop
      vertex 3.28876 46.0357 1.5
      vertex 6.39482 44.6528 1.5
      vertex 3.52133 46.7515 1.5
    endloop
  endfacet
  facet normal 0 0 1
    outer loop
      vertex 6.84703 48.9554 1.5
      vertex 3.52133 48.2485 1.5
      vertex 3.6 47.5 1.5
    endloop
  endfacet
  facet normal 0 0 1
    outer loop
      vertex 2.40887 50.1753 1.5
      vertex 4.68391 52.702 1.5
      vertex 3.5 53.5622 1.5
    endloop
  endfacet
  facet normal 0 0 1
    outer loop
      vertex 6.39482 50.3472 1.5
      vertex 3.28876 48.9643 1.5
      vertex 3.52133 48.2485 1.5
    endloop
  endfacet
  facet normal 0 0 1
    outer loop
      vertex 5.66312 51.6145 1.5
      vertex 2.91246 49.616 1.5
      vertex 3.28876 48.9643 1.5
    endloop
  endfacet
  facet normal 0 0 1
    outer loop
      vertex 4.68391 52.702 1.5
      vertex 2.40887 50.1753 1.5
      vertex 2.91246 49.616 1.5
    endloop
  endfacet
  facet normal 0 0 1
    outer loop
      vertex 1.8 50.6177 1.5
      vertex 3.5 53.5622 1.5
      vertex 2.16312 54.1574 1.5
    endloop
  endfacet
  facet normal 0 0 1
    outer loop
      vertex 3.5 53.5622 1.5
      vertex 1.8 50.6177 1.5
      vertex 2.40887 50.1753 1.5
    endloop
  endfacet
  facet normal 0 0 1
    outer loop
      vertex 2.16312 54.1574 1.5
      vertex 1.11246 50.9238 1.5
      vertex 1.8 50.6177 1.5
    endloop
  endfacet
  facet normal 0 0 1
    outer loop
      vertex 0.731699 54.4617 1.5
      vertex 1.11246 50.9238 1.5
      vertex 2.16312 54.1574 1.5
    endloop
  endfacet
  facet normal 0 0 1
    outer loop
      vertex 0.731699 54.4617 1.5
      vertex 0.376302 51.0803 1.5
      vertex 1.11246 50.9238 1.5
    endloop
  endfacet
  facet normal 0 0 1
    outer loop
      vertex 0.731699 54.4617 1.5
      vertex -0.376302 51.0803 1.5
      vertex 0.376302 51.0803 1.5
    endloop
  endfacet
  facet normal -0 0 1
    outer loop
      vertex -0.731699 54.4617 1.5
      vertex -0.376302 51.0803 1.5
      vertex 0.731699 54.4617 1.5
    endloop
  endfacet
  facet normal 0 0 1
    outer loop
      vertex -0.731699 54.4617 1.5
      vertex -1.11246 50.9238 1.5
      vertex -0.376302 51.0803 1.5
    endloop
  endfacet
  facet normal -0 0 1
    outer loop
      vertex -2.16312 54.1574 1.5
      vertex -1.11246 50.9238 1.5
      vertex -0.731699 54.4617 1.5
    endloop
  endfacet
  facet normal 0 0 1
    outer loop
      vertex -1.11246 50.9238 1.5
      vertex -2.16312 54.1574 1.5
      vertex -1.8 50.6177 1.5
    endloop
  endfacet
  facet normal -0 0 1
    outer loop
      vertex -3.5 53.5622 1.5
      vertex -1.8 50.6177 1.5
      vertex -2.16312 54.1574 1.5
    endloop
  endfacet
  facet normal 0 0 1
    outer loop
      vertex -1.8 50.6177 1.5
      vertex -3.5 53.5622 1.5
      vertex -2.40887 50.1753 1.5
    endloop
  endfacet
  facet normal -0 0 1
    outer loop
      vertex -4.68391 52.702 1.5
      vertex -2.40887 50.1753 1.5
      vertex -3.5 53.5622 1.5
    endloop
  endfacet
  facet normal 0 0 1
    outer loop
      vertex -2.40887 50.1753 1.5
      vertex -4.68391 52.702 1.5
      vertex -2.91246 49.616 1.5
    endloop
  endfacet
  facet normal -0 0 1
    outer loop
      vertex -5.66312 51.6145 1.5
      vertex -2.91246 49.616 1.5
      vertex -4.68391 52.702 1.5
    endloop
  endfacet
  facet normal 0 0 1
    outer loop
      vertex -2.91246 49.616 1.5
      vertex -5.66312 51.6145 1.5
      vertex -3.28876 48.9643 1.5
    endloop
  endfacet
  facet normal -0 0 1
    outer loop
      vertex -6.39482 50.3472 1.5
      vertex -3.28876 48.9643 1.5
      vertex -5.66312 51.6145 1.5
    endloop
  endfacet
  facet normal 0 0 1
    outer loop
      vertex 6.39482 44.6528 1.5
      vertex 3.28876 46.0357 1.5
      vertex 5.66312 43.3855 1.5
    endloop
  endfacet
  facet normal -0 0 1
    outer loop
      vertex 2.91246 45.384 1.5
      vertex 5.66312 43.3855 1.5
      vertex 3.28876 46.0357 1.5
    endloop
  endfacet
  facet normal 0 0 1
    outer loop
      vertex 5.66312 43.3855 1.5
      vertex 2.91246 45.384 1.5
      vertex 4.68391 42.298 1.5
    endloop
  endfacet
  facet normal -0 0 1
    outer loop
      vertex 2.40887 44.8247 1.5
      vertex 4.68391 42.298 1.5
      vertex 2.91246 45.384 1.5
    endloop
  endfacet
  facet normal 0 0 1
    outer loop
      vertex 4.68391 42.298 1.5
      vertex 2.40887 44.8247 1.5
      vertex 3.5 41.4378 1.5
    endloop
  endfacet
  facet normal -0 0 1
    outer loop
      vertex 1.8 44.3823 1.5
      vertex 3.5 41.4378 1.5
      vertex 2.40887 44.8247 1.5
    endloop
  endfacet
  facet normal 0 0 1
    outer loop
      vertex 3.5 41.4378 1.5
      vertex 1.8 44.3823 1.5
      vertex 2.16312 40.8426 1.5
    endloop
  endfacet
  facet normal -0 0 1
    outer loop
      vertex 1.11246 44.0762 1.5
      vertex 2.16312 40.8426 1.5
      vertex 1.8 44.3823 1.5
    endloop
  endfacet
  facet normal 0 0 1
    outer loop
      vertex 1.11246 44.0762 1.5
      vertex 0.731699 40.5383 1.5
      vertex 2.16312 40.8426 1.5
    endloop
  endfacet
  facet normal -0 0 1
    outer loop
      vertex 0.376302 43.9197 1.5
      vertex 0.731699 40.5383 1.5
      vertex 1.11246 44.0762 1.5
    endloop
  endfacet
  facet normal -0 0 1
    outer loop
      vertex -0.376302 43.9197 1.5
      vertex 0.731699 40.5383 1.5
      vertex 0.376302 43.9197 1.5
    endloop
  endfacet
  facet normal 0 0 1
    outer loop
      vertex -0.376302 43.9197 1.5
      vertex -0.731699 40.5383 1.5
      vertex 0.731699 40.5383 1.5
    endloop
  endfacet
  facet normal 0 0 1
    outer loop
      vertex -1.11246 44.0762 1.5
      vertex -0.731699 40.5383 1.5
      vertex -0.376302 43.9197 1.5
    endloop
  endfacet
  facet normal 0 0 1
    outer loop
      vertex -2.16312 40.8426 1.5
      vertex -1.11246 44.0762 1.5
      vertex -1.8 44.3823 1.5
    endloop
  endfacet
  facet normal 0 0 1
    outer loop
      vertex -1.11246 44.0762 1.5
      vertex -2.16312 40.8426 1.5
      vertex -0.731699 40.5383 1.5
    endloop
  endfacet
  facet normal 0 0 1
    outer loop
      vertex -3.5 41.4378 1.5
      vertex -1.8 44.3823 1.5
      vertex -2.40887 44.8247 1.5
    endloop
  endfacet
  facet normal 0 0 1
    outer loop
      vertex -4.68391 42.298 1.5
      vertex -2.40887 44.8247 1.5
      vertex -2.91246 45.384 1.5
    endloop
  endfacet
  facet normal 0 0 1
    outer loop
      vertex -5.66312 43.3855 1.5
      vertex -2.91246 45.384 1.5
      vertex -3.28876 46.0357 1.5
    endloop
  endfacet
  facet normal 0 0 1
    outer loop
      vertex -1.8 44.3823 1.5
      vertex -3.5 41.4378 1.5
      vertex -2.16312 40.8426 1.5
    endloop
  endfacet
  facet normal 0 0 1
    outer loop
      vertex -6.39482 44.6528 1.5
      vertex -3.28876 46.0357 1.5
      vertex -3.52133 46.7515 1.5
    endloop
  endfacet
  facet normal 0 0 1
    outer loop
      vertex -6.84703 46.0446 1.5
      vertex -3.52133 46.7515 1.5
      vertex -3.6 47.5 1.5
    endloop
  endfacet
  facet normal 0 0 1
    outer loop
      vertex -3.28876 48.9643 1.5
      vertex -6.39482 50.3472 1.5
      vertex -3.52133 48.2485 1.5
    endloop
  endfacet
  facet normal 0 0 1
    outer loop
      vertex -2.40887 44.8247 1.5
      vertex -4.68391 42.298 1.5
      vertex -3.5 41.4378 1.5
    endloop
  endfacet
  facet normal -0 0 1
    outer loop
      vertex -6.84703 48.9554 1.5
      vertex -3.52133 48.2485 1.5
      vertex -6.39482 50.3472 1.5
    endloop
  endfacet
  facet normal 0 0 1
    outer loop
      vertex -2.91246 45.384 1.5
      vertex -5.66312 43.3855 1.5
      vertex -4.68391 42.298 1.5
    endloop
  endfacet
  facet normal 0 0 1
    outer loop
      vertex -3.52133 48.2485 1.5
      vertex -6.84703 48.9554 1.5
      vertex -3.6 47.5 1.5
    endloop
  endfacet
  facet normal 0 0 1
    outer loop
      vertex -3.28876 46.0357 1.5
      vertex -6.39482 44.6528 1.5
      vertex -5.66312 43.3855 1.5
    endloop
  endfacet
  facet normal 0 0 1
    outer loop
      vertex -7 47.5 1.5
      vertex -3.6 47.5 1.5
      vertex -6.84703 48.9554 1.5
    endloop
  endfacet
  facet normal 0 0 1
    outer loop
      vertex -3.52133 46.7515 1.5
      vertex -6.84703 46.0446 1.5
      vertex -6.39482 44.6528 1.5
    endloop
  endfacet
  facet normal 0 0 1
    outer loop
      vertex -3.6 47.5 1.5
      vertex -7 47.5 1.5
      vertex -6.84703 46.0446 1.5
    endloop
  endfacet
  facet normal 0.951059 0.309009 0
    outer loop
      vertex 6.84703 48.9554 1.5
      vertex 6.39482 50.3472 0
      vertex 6.39482 50.3472 1.5
    endloop
  endfacet
  facet normal 0.951059 0.309009 0
    outer loop
      vertex 6.39482 50.3472 0
      vertex 6.84703 48.9554 1.5
      vertex 6.84703 48.9554 0
    endloop
  endfacet
  facet normal 0.994522 0.104529 0
    outer loop
      vertex 7 47.5 1.5
      vertex 6.84703 48.9554 0
      vertex 6.84703 48.9554 1.5
    endloop
  endfacet
  facet normal 0.994522 0.104529 0
    outer loop
      vertex 6.84703 48.9554 0
      vertex 7 47.5 1.5
      vertex 7 47.5 0
    endloop
  endfacet
  facet normal 0.866018 0.500012 0
    outer loop
      vertex 6.39482 50.3472 1.5
      vertex 5.66312 51.6145 0
      vertex 5.66312 51.6145 1.5
    endloop
  endfacet
  facet normal 0.866018 0.500012 0
    outer loop
      vertex 5.66312 51.6145 0
      vertex 6.39482 50.3472 1.5
      vertex 6.39482 50.3472 0
    endloop
  endfacet
  facet normal 0.207939 0.978142 -0
    outer loop
      vertex 2.16312 54.1574 0
      vertex 0.731699 54.4617 1.5
      vertex 2.16312 54.1574 1.5
    endloop
  endfacet
  facet normal 0.207939 0.978142 0
    outer loop
      vertex 0.731699 54.4617 1.5
      vertex 2.16312 54.1574 0
      vertex 0.731699 54.4617 0
    endloop
  endfacet
  facet normal -0.866018 -0.500012 0
    outer loop
      vertex -5.66312 43.3855 0
      vertex -6.39482 44.6528 1.5
      vertex -6.39482 44.6528 0
    endloop
  endfacet
  facet normal -0.866018 -0.500012 0
    outer loop
      vertex -6.39482 44.6528 1.5
      vertex -5.66312 43.3855 0
      vertex -5.66312 43.3855 1.5
    endloop
  endfacet
  facet normal 0.994522 -0.104529 0
    outer loop
      vertex 6.84703 46.0446 1.5
      vertex 7 47.5 0
      vertex 7 47.5 1.5
    endloop
  endfacet
  facet normal 0.994522 -0.104529 0
    outer loop
      vertex 7 47.5 0
      vertex 6.84703 46.0446 1.5
      vertex 6.84703 46.0446 0
    endloop
  endfacet
  facet normal -0.587803 0.809004 0
    outer loop
      vertex -3.5 53.5622 0
      vertex -4.68391 52.702 1.5
      vertex -3.5 53.5622 1.5
    endloop
  endfacet
  facet normal -0.587803 0.809004 0
    outer loop
      vertex -4.68391 52.702 1.5
      vertex -3.5 53.5622 0
      vertex -4.68391 52.702 0
    endloop
  endfacet
  facet normal 0.743138 0.669138 0
    outer loop
      vertex 5.66312 51.6145 1.5
      vertex 4.68391 52.702 0
      vertex 4.68391 52.702 1.5
    endloop
  endfacet
  facet normal 0.743138 0.669138 0
    outer loop
      vertex 4.68391 52.702 0
      vertex 5.66312 51.6145 1.5
      vertex 5.66312 51.6145 0
    endloop
  endfacet
  facet normal 0.951059 -0.309009 0
    outer loop
      vertex 6.39482 44.6528 1.5
      vertex 6.84703 46.0446 0
      vertex 6.84703 46.0446 1.5
    endloop
  endfacet
  facet normal 0.951059 -0.309009 0
    outer loop
      vertex 6.84703 46.0446 0
      vertex 6.39482 44.6528 1.5
      vertex 6.39482 44.6528 0
    endloop
  endfacet
  facet normal 0.406727 0.91355 -0
    outer loop
      vertex 3.5 53.5622 0
      vertex 2.16312 54.1574 1.5
      vertex 3.5 53.5622 1.5
    endloop
  endfacet
  facet normal 0.406727 0.91355 0
    outer loop
      vertex 2.16312 54.1574 1.5
      vertex 3.5 53.5622 0
      vertex 2.16312 54.1574 0
    endloop
  endfacet
  facet normal 0 -1 0
    outer loop
      vertex -0.731699 40.5383 0
      vertex 0.731699 40.5383 1.5
      vertex -0.731699 40.5383 1.5
    endloop
  endfacet
  facet normal 0 -1 -0
    outer loop
      vertex 0.731699 40.5383 1.5
      vertex -0.731699 40.5383 0
      vertex 0.731699 40.5383 0
    endloop
  endfacet
  facet normal -0.207939 -0.978142 0
    outer loop
      vertex -2.16312 40.8426 0
      vertex -0.731699 40.5383 1.5
      vertex -2.16312 40.8426 1.5
    endloop
  endfacet
  facet normal -0.207939 -0.978142 -0
    outer loop
      vertex -0.731699 40.5383 1.5
      vertex -2.16312 40.8426 0
      vertex -0.731699 40.5383 0
    endloop
  endfacet
  facet normal 0 1 -0
    outer loop
      vertex 0.731699 54.4617 0
      vertex -0.731699 54.4617 1.5
      vertex 0.731699 54.4617 1.5
    endloop
  endfacet
  facet normal 0 1 0
    outer loop
      vertex -0.731699 54.4617 1.5
      vertex 0.731699 54.4617 0
      vertex -0.731699 54.4617 0
    endloop
  endfacet
  facet normal 0.866018 -0.500012 0
    outer loop
      vertex 5.66312 43.3855 1.5
      vertex 6.39482 44.6528 0
      vertex 6.39482 44.6528 1.5
    endloop
  endfacet
  facet normal 0.866018 -0.500012 0
    outer loop
      vertex 6.39482 44.6528 0
      vertex 5.66312 43.3855 1.5
      vertex 5.66312 43.3855 0
    endloop
  endfacet
  facet normal -0.406727 0.91355 0
    outer loop
      vertex -2.16312 54.1574 0
      vertex -3.5 53.5622 1.5
      vertex -2.16312 54.1574 1.5
    endloop
  endfacet
  facet normal -0.406727 0.91355 0
    outer loop
      vertex -3.5 53.5622 1.5
      vertex -2.16312 54.1574 0
      vertex -3.5 53.5622 0
    endloop
  endfacet
  facet normal 0.587803 -0.809004 0
    outer loop
      vertex 3.5 41.4378 0
      vertex 4.68391 42.298 1.5
      vertex 3.5 41.4378 1.5
    endloop
  endfacet
  facet normal 0.587803 -0.809004 0
    outer loop
      vertex 4.68391 42.298 1.5
      vertex 3.5 41.4378 0
      vertex 4.68391 42.298 0
    endloop
  endfacet
  facet normal 0.207939 -0.978142 0
    outer loop
      vertex 0.731699 40.5383 0
      vertex 2.16312 40.8426 1.5
      vertex 0.731699 40.5383 1.5
    endloop
  endfacet
  facet normal 0.207939 -0.978142 0
    outer loop
      vertex 2.16312 40.8426 1.5
      vertex 0.731699 40.5383 0
      vertex 2.16312 40.8426 0
    endloop
  endfacet
  facet normal -0.743138 0.669138 0
    outer loop
      vertex -5.66312 51.6145 0
      vertex -4.68391 52.702 1.5
      vertex -4.68391 52.702 0
    endloop
  endfacet
  facet normal -0.743138 0.669138 0
    outer loop
      vertex -4.68391 52.702 1.5
      vertex -5.66312 51.6145 0
      vertex -5.66312 51.6145 1.5
    endloop
  endfacet
  facet normal 0.406727 -0.91355 0
    outer loop
      vertex 2.16312 40.8426 0
      vertex 3.5 41.4378 1.5
      vertex 2.16312 40.8426 1.5
    endloop
  endfacet
  facet normal 0.406727 -0.91355 0
    outer loop
      vertex 3.5 41.4378 1.5
      vertex 2.16312 40.8426 0
      vertex 3.5 41.4378 0
    endloop
  endfacet
  facet normal -0.994522 0.104529 0
    outer loop
      vertex -7 47.5 0
      vertex -6.84703 48.9554 1.5
      vertex -6.84703 48.9554 0
    endloop
  endfacet
  facet normal -0.994522 0.104529 0
    outer loop
      vertex -6.84703 48.9554 1.5
      vertex -7 47.5 0
      vertex -7 47.5 1.5
    endloop
  endfacet
  facet normal -0.951059 -0.309009 0
    outer loop
      vertex -6.39482 44.6528 0
      vertex -6.84703 46.0446 1.5
      vertex -6.84703 46.0446 0
    endloop
  endfacet
  facet normal -0.951059 -0.309009 0
    outer loop
      vertex -6.84703 46.0446 1.5
      vertex -6.39482 44.6528 0
      vertex -6.39482 44.6528 1.5
    endloop
  endfacet
  facet normal -0.994522 -0.104529 0
    outer loop
      vertex -6.84703 46.0446 0
      vertex -7 47.5 1.5
      vertex -7 47.5 0
    endloop
  endfacet
  facet normal -0.994522 -0.104529 0
    outer loop
      vertex -7 47.5 1.5
      vertex -6.84703 46.0446 0
      vertex -6.84703 46.0446 1.5
    endloop
  endfacet
  facet normal -0.207939 0.978142 0
    outer loop
      vertex -0.731699 54.4617 0
      vertex -2.16312 54.1574 1.5
      vertex -0.731699 54.4617 1.5
    endloop
  endfacet
  facet normal -0.207939 0.978142 0
    outer loop
      vertex -2.16312 54.1574 1.5
      vertex -0.731699 54.4617 0
      vertex -2.16312 54.1574 0
    endloop
  endfacet
  facet normal -0.951059 0.309009 0
    outer loop
      vertex -6.84703 48.9554 0
      vertex -6.39482 50.3472 1.5
      vertex -6.39482 50.3472 0
    endloop
  endfacet
  facet normal -0.951059 0.309009 0
    outer loop
      vertex -6.39482 50.3472 1.5
      vertex -6.84703 48.9554 0
      vertex -6.84703 48.9554 1.5
    endloop
  endfacet
  facet normal -0.587803 -0.809004 0
    outer loop
      vertex -4.68391 42.298 0
      vertex -3.5 41.4378 1.5
      vertex -4.68391 42.298 1.5
    endloop
  endfacet
  facet normal -0.587803 -0.809004 -0
    outer loop
      vertex -3.5 41.4378 1.5
      vertex -4.68391 42.298 0
      vertex -3.5 41.4378 0
    endloop
  endfacet
  facet normal 0.587803 0.809004 -0
    outer loop
      vertex 4.68391 52.702 0
      vertex 3.5 53.5622 1.5
      vertex 4.68391 52.702 1.5
    endloop
  endfacet
  facet normal 0.587803 0.809004 0
    outer loop
      vertex 3.5 53.5622 1.5
      vertex 4.68391 52.702 0
      vertex 3.5 53.5622 0
    endloop
  endfacet
  facet normal 0.743138 -0.669138 0
    outer loop
      vertex 4.68391 42.298 1.5
      vertex 5.66312 43.3855 0
      vertex 5.66312 43.3855 1.5
    endloop
  endfacet
  facet normal 0.743138 -0.669138 0
    outer loop
      vertex 5.66312 43.3855 0
      vertex 4.68391 42.298 1.5
      vertex 4.68391 42.298 0
    endloop
  endfacet
  facet normal -0.743138 -0.669138 0
    outer loop
      vertex -4.68391 42.298 0
      vertex -5.66312 43.3855 1.5
      vertex -5.66312 43.3855 0
    endloop
  endfacet
  facet normal -0.743138 -0.669138 0
    outer loop
      vertex -5.66312 43.3855 1.5
      vertex -4.68391 42.298 0
      vertex -4.68391 42.298 1.5
    endloop
  endfacet
  facet normal -0.406727 -0.91355 0
    outer loop
      vertex -3.5 41.4378 0
      vertex -2.16312 40.8426 1.5
      vertex -3.5 41.4378 1.5
    endloop
  endfacet
  facet normal -0.406727 -0.91355 -0
    outer loop
      vertex -2.16312 40.8426 1.5
      vertex -3.5 41.4378 0
      vertex -2.16312 40.8426 0
    endloop
  endfacet
  facet normal 0 0 -1
    outer loop
      vertex 3.6 47.5 0
      vertex 7 47.5 0
      vertex 6.84703 46.0446 0
    endloop
  endfacet
  facet normal 0 0 -1
    outer loop
      vertex 3.52133 46.7515 0
      vertex 6.84703 46.0446 0
      vertex 6.39482 44.6528 0
    endloop
  endfacet
  facet normal 0 0 -1
    outer loop
      vertex 7 47.5 0
      vertex 3.6 47.5 0
      vertex 6.84703 48.9554 0
    endloop
  endfacet
  facet normal 0 0 -1
    outer loop
      vertex 3.28876 46.0357 0
      vertex 6.39482 44.6528 0
      vertex 5.66312 43.3855 0
    endloop
  endfacet
  facet normal 0 0 -1
    outer loop
      vertex 3.52133 48.2485 0
      vertex 6.84703 48.9554 0
      vertex 3.6 47.5 0
    endloop
  endfacet
  facet normal 0 0 -1
    outer loop
      vertex 2.91246 45.384 0
      vertex 5.66312 43.3855 0
      vertex 4.68391 42.298 0
    endloop
  endfacet
  facet normal -0 0 -1
    outer loop
      vertex 6.84703 48.9554 0
      vertex 3.52133 48.2485 0
      vertex 6.39482 50.3472 0
    endloop
  endfacet
  facet normal 0 0 -1
    outer loop
      vertex 3.28876 48.9643 0
      vertex 6.39482 50.3472 0
      vertex 3.52133 48.2485 0
    endloop
  endfacet
  facet normal 0 0 -1
    outer loop
      vertex 6.84703 46.0446 0
      vertex 3.52133 46.7515 0
      vertex 3.6 47.5 0
    endloop
  endfacet
  facet normal 0 0 -1
    outer loop
      vertex 2.40887 44.8247 0
      vertex 4.68391 42.298 0
      vertex 3.5 41.4378 0
    endloop
  endfacet
  facet normal 0 0 -1
    outer loop
      vertex 6.39482 44.6528 0
      vertex 3.28876 46.0357 0
      vertex 3.52133 46.7515 0
    endloop
  endfacet
  facet normal 0 0 -1
    outer loop
      vertex 5.66312 43.3855 0
      vertex 2.91246 45.384 0
      vertex 3.28876 46.0357 0
    endloop
  endfacet
  facet normal 0 0 -1
    outer loop
      vertex 4.68391 42.298 0
      vertex 2.40887 44.8247 0
      vertex 2.91246 45.384 0
    endloop
  endfacet
  facet normal 0 0 -1
    outer loop
      vertex 1.8 44.3823 0
      vertex 3.5 41.4378 0
      vertex 2.16312 40.8426 0
    endloop
  endfacet
  facet normal 0 0 -1
    outer loop
      vertex 3.5 41.4378 0
      vertex 1.8 44.3823 0
      vertex 2.40887 44.8247 0
    endloop
  endfacet
  facet normal 0 0 -1
    outer loop
      vertex 2.16312 40.8426 0
      vertex 1.11246 44.0762 0
      vertex 1.8 44.3823 0
    endloop
  endfacet
  facet normal 0 0 -1
    outer loop
      vertex 0.731699 40.5383 0
      vertex 1.11246 44.0762 0
      vertex 2.16312 40.8426 0
    endloop
  endfacet
  facet normal 0 0 -1
    outer loop
      vertex 0.731699 40.5383 0
      vertex 0.376302 43.9197 0
      vertex 1.11246 44.0762 0
    endloop
  endfacet
  facet normal 0 0 -1
    outer loop
      vertex 0.731699 40.5383 0
      vertex -0.376302 43.9197 0
      vertex 0.376302 43.9197 0
    endloop
  endfacet
  facet normal 0 0 -1
    outer loop
      vertex -0.731699 40.5383 0
      vertex -0.376302 43.9197 0
      vertex 0.731699 40.5383 0
    endloop
  endfacet
  facet normal 0 0 -1
    outer loop
      vertex -0.731699 40.5383 0
      vertex -1.11246 44.0762 0
      vertex -0.376302 43.9197 0
    endloop
  endfacet
  facet normal 0 0 -1
    outer loop
      vertex -2.16312 40.8426 0
      vertex -1.11246 44.0762 0
      vertex -0.731699 40.5383 0
    endloop
  endfacet
  facet normal -0 0 -1
    outer loop
      vertex -1.11246 44.0762 0
      vertex -2.16312 40.8426 0
      vertex -1.8 44.3823 0
    endloop
  endfacet
  facet normal 0 0 -1
    outer loop
      vertex -3.5 41.4378 0
      vertex -1.8 44.3823 0
      vertex -2.16312 40.8426 0
    endloop
  endfacet
  facet normal -0 0 -1
    outer loop
      vertex -1.8 44.3823 0
      vertex -3.5 41.4378 0
      vertex -2.40887 44.8247 0
    endloop
  endfacet
  facet normal 0 0 -1
    outer loop
      vertex -4.68391 42.298 0
      vertex -2.40887 44.8247 0
      vertex -3.5 41.4378 0
    endloop
  endfacet
  facet normal -0 0 -1
    outer loop
      vertex -2.40887 44.8247 0
      vertex -4.68391 42.298 0
      vertex -2.91246 45.384 0
    endloop
  endfacet
  facet normal 0 0 -1
    outer loop
      vertex -5.66312 43.3855 0
      vertex -2.91246 45.384 0
      vertex -4.68391 42.298 0
    endloop
  endfacet
  facet normal -0 0 -1
    outer loop
      vertex -2.91246 45.384 0
      vertex -5.66312 43.3855 0
      vertex -3.28876 46.0357 0
    endloop
  endfacet
  facet normal 0 0 -1
    outer loop
      vertex -6.39482 44.6528 0
      vertex -3.28876 46.0357 0
      vertex -5.66312 43.3855 0
    endloop
  endfacet
  facet normal -0 0 -1
    outer loop
      vertex 6.39482 50.3472 0
      vertex 3.28876 48.9643 0
      vertex 5.66312 51.6145 0
    endloop
  endfacet
  facet normal 0 0 -1
    outer loop
      vertex 2.91246 49.616 0
      vertex 5.66312 51.6145 0
      vertex 3.28876 48.9643 0
    endloop
  endfacet
  facet normal -0 0 -1
    outer loop
      vertex 5.66312 51.6145 0
      vertex 2.91246 49.616 0
      vertex 4.68391 52.702 0
    endloop
  endfacet
  facet normal 0 0 -1
    outer loop
      vertex 2.40887 50.1753 0
      vertex 4.68391 52.702 0
      vertex 2.91246 49.616 0
    endloop
  endfacet
  facet normal -0 0 -1
    outer loop
      vertex 4.68391 52.702 0
      vertex 2.40887 50.1753 0
      vertex 3.5 53.5622 0
    endloop
  endfacet
  facet normal 0 0 -1
    outer loop
      vertex 1.8 50.6177 0
      vertex 3.5 53.5622 0
      vertex 2.40887 50.1753 0
    endloop
  endfacet
  facet normal -0 0 -1
    outer loop
      vertex 3.5 53.5622 0
      vertex 1.8 50.6177 0
      vertex 2.16312 54.1574 0
    endloop
  endfacet
  facet normal 0 0 -1
    outer loop
      vertex 1.11246 50.9238 0
      vertex 2.16312 54.1574 0
      vertex 1.8 50.6177 0
    endloop
  endfacet
  facet normal 0 0 -1
    outer loop
      vertex 1.11246 50.9238 0
      vertex 0.731699 54.4617 0
      vertex 2.16312 54.1574 0
    endloop
  endfacet
  facet normal 0 0 -1
    outer loop
      vertex 0.376302 51.0803 0
      vertex 0.731699 54.4617 0
      vertex 1.11246 50.9238 0
    endloop
  endfacet
  facet normal 0 0 -1
    outer loop
      vertex -0.376302 51.0803 0
      vertex 0.731699 54.4617 0
      vertex 0.376302 51.0803 0
    endloop
  endfacet
  facet normal 0 0 -1
    outer loop
      vertex -0.376302 51.0803 0
      vertex -0.731699 54.4617 0
      vertex 0.731699 54.4617 0
    endloop
  endfacet
  facet normal 0 0 -1
    outer loop
      vertex -1.11246 50.9238 0
      vertex -0.731699 54.4617 0
      vertex -0.376302 51.0803 0
    endloop
  endfacet
  facet normal 0 0 -1
    outer loop
      vertex -2.16312 54.1574 0
      vertex -1.11246 50.9238 0
      vertex -1.8 50.6177 0
    endloop
  endfacet
  facet normal 0 0 -1
    outer loop
      vertex -1.11246 50.9238 0
      vertex -2.16312 54.1574 0
      vertex -0.731699 54.4617 0
    endloop
  endfacet
  facet normal 0 0 -1
    outer loop
      vertex -3.5 53.5622 0
      vertex -1.8 50.6177 0
      vertex -2.40887 50.1753 0
    endloop
  endfacet
  facet normal 0 0 -1
    outer loop
      vertex -4.68391 52.702 0
      vertex -2.40887 50.1753 0
      vertex -2.91246 49.616 0
    endloop
  endfacet
  facet normal 0 0 -1
    outer loop
      vertex -5.66312 51.6145 0
      vertex -2.91246 49.616 0
      vertex -3.28876 48.9643 0
    endloop
  endfacet
  facet normal 0 0 -1
    outer loop
      vertex -1.8 50.6177 0
      vertex -3.5 53.5622 0
      vertex -2.16312 54.1574 0
    endloop
  endfacet
  facet normal 0 0 -1
    outer loop
      vertex -6.39482 50.3472 0
      vertex -3.28876 48.9643 0
      vertex -3.52133 48.2485 0
    endloop
  endfacet
  facet normal 0 0 -1
    outer loop
      vertex -6.84703 48.9554 0
      vertex -3.52133 48.2485 0
      vertex -3.6 47.5 0
    endloop
  endfacet
  facet normal -0 0 -1
    outer loop
      vertex -3.28876 46.0357 0
      vertex -6.39482 44.6528 0
      vertex -3.52133 46.7515 0
    endloop
  endfacet
  facet normal 0 0 -1
    outer loop
      vertex -2.40887 50.1753 0
      vertex -4.68391 52.702 0
      vertex -3.5 53.5622 0
    endloop
  endfacet
  facet normal 0 0 -1
    outer loop
      vertex -6.84703 46.0446 0
      vertex -3.52133 46.7515 0
      vertex -6.39482 44.6528 0
    endloop
  endfacet
  facet normal 0 0 -1
    outer loop
      vertex -2.91246 49.616 0
      vertex -5.66312 51.6145 0
      vertex -4.68391 52.702 0
    endloop
  endfacet
  facet normal -0 0 -1
    outer loop
      vertex -3.52133 46.7515 0
      vertex -6.84703 46.0446 0
      vertex -3.6 47.5 0
    endloop
  endfacet
  facet normal 0 0 -1
    outer loop
      vertex -3.28876 48.9643 0
      vertex -6.39482 50.3472 0
      vertex -5.66312 51.6145 0
    endloop
  endfacet
  facet normal 0 0 -1
    outer loop
      vertex -7 47.5 0
      vertex -3.6 47.5 0
      vertex -6.84703 46.0446 0
    endloop
  endfacet
  facet normal 0 0 -1
    outer loop
      vertex -3.52133 48.2485 0
      vertex -6.84703 48.9554 0
      vertex -6.39482 50.3472 0
    endloop
  endfacet
  facet normal 0 0 -1
    outer loop
      vertex -3.6 47.5 0
      vertex -7 47.5 0
      vertex -6.84703 48.9554 0
    endloop
  endfacet
  facet normal -0.866018 0.500012 0
    outer loop
      vertex -6.39482 50.3472 0
      vertex -5.66312 51.6145 1.5
      vertex -5.66312 51.6145 0
    endloop
  endfacet
  facet normal -0.866018 0.500012 0
    outer loop
      vertex -5.66312 51.6145 1.5
      vertex -6.39482 50.3472 0
      vertex -6.39482 50.3472 1.5
    endloop
  endfacet
  facet normal -0.951059 -0.309008 0
    outer loop
      vertex 3.52133 48.2485 0
      vertex 3.28876 48.9643 1.5
      vertex 3.28876 48.9643 0
    endloop
  endfacet
  facet normal -0.951059 -0.309008 0
    outer loop
      vertex 3.28876 48.9643 1.5
      vertex 3.52133 48.2485 0
      vertex 3.52133 48.2485 1.5
    endloop
  endfacet
  facet normal -0.994522 -0.104528 0
    outer loop
      vertex 3.6 47.5 0
      vertex 3.52133 48.2485 1.5
      vertex 3.52133 48.2485 0
    endloop
  endfacet
  facet normal -0.994522 -0.104528 0
    outer loop
      vertex 3.52133 48.2485 1.5
      vertex 3.6 47.5 0
      vertex 3.6 47.5 1.5
    endloop
  endfacet
  facet normal -0.866002 -0.500041 0
    outer loop
      vertex 3.28876 48.9643 0
      vertex 2.91246 49.616 1.5
      vertex 2.91246 49.616 0
    endloop
  endfacet
  facet normal -0.866002 -0.500041 0
    outer loop
      vertex 2.91246 49.616 1.5
      vertex 3.28876 48.9643 0
      vertex 3.28876 48.9643 1.5
    endloop
  endfacet
  facet normal -0.743149 -0.669126 0
    outer loop
      vertex 2.91246 49.616 0
      vertex 2.40887 50.1753 1.5
      vertex 2.40887 50.1753 0
    endloop
  endfacet
  facet normal -0.743149 -0.669126 0
    outer loop
      vertex 2.40887 50.1753 1.5
      vertex 2.91246 49.616 0
      vertex 2.91246 49.616 1.5
    endloop
  endfacet
  facet normal -0.207943 0.978141 0
    outer loop
      vertex 1.11246 44.0762 0
      vertex 0.376302 43.9197 1.5
      vertex 1.11246 44.0762 1.5
    endloop
  endfacet
  facet normal -0.207943 0.978141 0
    outer loop
      vertex 0.376302 43.9197 1.5
      vertex 1.11246 44.0762 0
      vertex 0.376302 43.9197 0
    endloop
  endfacet
  facet normal 0.994522 0.104528 0
    outer loop
      vertex -3.52133 46.7515 1.5
      vertex -3.6 47.5 0
      vertex -3.6 47.5 1.5
    endloop
  endfacet
  facet normal 0.994522 0.104528 0
    outer loop
      vertex -3.6 47.5 0
      vertex -3.52133 46.7515 1.5
      vertex -3.52133 46.7515 0
    endloop
  endfacet
  facet normal 0.587811 0.808998 -0
    outer loop
      vertex -1.8 44.3823 0
      vertex -2.40887 44.8247 1.5
      vertex -1.8 44.3823 1.5
    endloop
  endfacet
  facet normal 0.587811 0.808998 0
    outer loop
      vertex -2.40887 44.8247 1.5
      vertex -1.8 44.3823 0
      vertex -2.40887 44.8247 0
    endloop
  endfacet
  facet normal -0.866002 0.500041 0
    outer loop
      vertex 2.91246 45.384 0
      vertex 3.28876 46.0357 1.5
      vertex 3.28876 46.0357 0
    endloop
  endfacet
  facet normal -0.866002 0.500041 0
    outer loop
      vertex 3.28876 46.0357 1.5
      vertex 2.91246 45.384 0
      vertex 2.91246 45.384 1.5
    endloop
  endfacet
  facet normal -0.743149 0.669126 0
    outer loop
      vertex 2.40887 44.8247 0
      vertex 2.91246 45.384 1.5
      vertex 2.91246 45.384 0
    endloop
  endfacet
  facet normal -0.743149 0.669126 0
    outer loop
      vertex 2.91246 45.384 1.5
      vertex 2.40887 44.8247 0
      vertex 2.40887 44.8247 1.5
    endloop
  endfacet
  facet normal -0.406723 -0.913552 0
    outer loop
      vertex 1.11246 50.9238 0
      vertex 1.8 50.6177 1.5
      vertex 1.11246 50.9238 1.5
    endloop
  endfacet
  facet normal -0.406723 -0.913552 -0
    outer loop
      vertex 1.8 50.6177 1.5
      vertex 1.11246 50.9238 0
      vertex 1.8 50.6177 0
    endloop
  endfacet
  facet normal 0.866002 -0.500041 0
    outer loop
      vertex -3.28876 48.9643 1.5
      vertex -2.91246 49.616 0
      vertex -2.91246 49.616 1.5
    endloop
  endfacet
  facet normal 0.866002 -0.500041 0
    outer loop
      vertex -2.91246 49.616 0
      vertex -3.28876 48.9643 1.5
      vertex -3.28876 48.9643 0
    endloop
  endfacet
  facet normal -0.587811 0.808998 0
    outer loop
      vertex 2.40887 44.8247 0
      vertex 1.8 44.3823 1.5
      vertex 2.40887 44.8247 1.5
    endloop
  endfacet
  facet normal -0.587811 0.808998 0
    outer loop
      vertex 1.8 44.3823 1.5
      vertex 2.40887 44.8247 0
      vertex 1.8 44.3823 0
    endloop
  endfacet
  facet normal -0.207943 -0.978141 0
    outer loop
      vertex 0.376302 51.0803 0
      vertex 1.11246 50.9238 1.5
      vertex 0.376302 51.0803 1.5
    endloop
  endfacet
  facet normal -0.207943 -0.978141 -0
    outer loop
      vertex 1.11246 50.9238 1.5
      vertex 0.376302 51.0803 0
      vertex 1.11246 50.9238 0
    endloop
  endfacet
  facet normal -0.587811 -0.808998 0
    outer loop
      vertex 1.8 50.6177 0
      vertex 2.40887 50.1753 1.5
      vertex 1.8 50.6177 1.5
    endloop
  endfacet
  facet normal -0.587811 -0.808998 -0
    outer loop
      vertex 2.40887 50.1753 1.5
      vertex 1.8 50.6177 0
      vertex 2.40887 50.1753 0
    endloop
  endfacet
  facet normal -0.951059 0.309008 0
    outer loop
      vertex 3.28876 46.0357 0
      vertex 3.52133 46.7515 1.5
      vertex 3.52133 46.7515 0
    endloop
  endfacet
  facet normal -0.951059 0.309008 0
    outer loop
      vertex 3.52133 46.7515 1.5
      vertex 3.28876 46.0357 0
      vertex 3.28876 46.0357 1.5
    endloop
  endfacet
  facet normal -0.994522 0.104528 0
    outer loop
      vertex 3.52133 46.7515 0
      vertex 3.6 47.5 1.5
      vertex 3.6 47.5 0
    endloop
  endfacet
  facet normal -0.994522 0.104528 0
    outer loop
      vertex 3.6 47.5 1.5
      vertex 3.52133 46.7515 0
      vertex 3.52133 46.7515 1.5
    endloop
  endfacet
  facet normal 0.743149 -0.669126 0
    outer loop
      vertex -2.91246 49.616 1.5
      vertex -2.40887 50.1753 0
      vertex -2.40887 50.1753 1.5
    endloop
  endfacet
  facet normal 0.743149 -0.669126 0
    outer loop
      vertex -2.40887 50.1753 0
      vertex -2.91246 49.616 1.5
      vertex -2.91246 49.616 0
    endloop
  endfacet
  facet normal 0.866002 0.500041 0
    outer loop
      vertex -2.91246 45.384 1.5
      vertex -3.28876 46.0357 0
      vertex -3.28876 46.0357 1.5
    endloop
  endfacet
  facet normal 0.866002 0.500041 0
    outer loop
      vertex -3.28876 46.0357 0
      vertex -2.91246 45.384 1.5
      vertex -2.91246 45.384 0
    endloop
  endfacet
  facet normal 0.587811 -0.808998 0
    outer loop
      vertex -2.40887 50.1753 0
      vertex -1.8 50.6177 1.5
      vertex -2.40887 50.1753 1.5
    endloop
  endfacet
  facet normal 0.587811 -0.808998 0
    outer loop
      vertex -1.8 50.6177 1.5
      vertex -2.40887 50.1753 0
      vertex -1.8 50.6177 0
    endloop
  endfacet
  facet normal 0 -1 0
    outer loop
      vertex -0.376302 51.0803 0
      vertex 0.376302 51.0803 1.5
      vertex -0.376302 51.0803 1.5
    endloop
  endfacet
  facet normal 0 -1 -0
    outer loop
      vertex 0.376302 51.0803 1.5
      vertex -0.376302 51.0803 0
      vertex 0.376302 51.0803 0
    endloop
  endfacet
  facet normal 0.406723 -0.913552 0
    outer loop
      vertex -1.8 50.6177 0
      vertex -1.11246 50.9238 1.5
      vertex -1.8 50.6177 1.5
    endloop
  endfacet
  facet normal 0.406723 -0.913552 0
    outer loop
      vertex -1.11246 50.9238 1.5
      vertex -1.8 50.6177 0
      vertex -1.11246 50.9238 0
    endloop
  endfacet
  facet normal -0.406723 0.913552 0
    outer loop
      vertex 1.8 44.3823 0
      vertex 1.11246 44.0762 1.5
      vertex 1.8 44.3823 1.5
    endloop
  endfacet
  facet normal -0.406723 0.913552 0
    outer loop
      vertex 1.11246 44.0762 1.5
      vertex 1.8 44.3823 0
      vertex 1.11246 44.0762 0
    endloop
  endfacet
  facet normal 0.994522 -0.104528 0
    outer loop
      vertex -3.6 47.5 1.5
      vertex -3.52133 48.2485 0
      vertex -3.52133 48.2485 1.5
    endloop
  endfacet
  facet normal 0.994522 -0.104528 0
    outer loop
      vertex -3.52133 48.2485 0
      vertex -3.6 47.5 1.5
      vertex -3.6 47.5 0
    endloop
  endfacet
  facet normal 0.951059 0.309008 0
    outer loop
      vertex -3.28876 46.0357 1.5
      vertex -3.52133 46.7515 0
      vertex -3.52133 46.7515 1.5
    endloop
  endfacet
  facet normal 0.951059 0.309008 0
    outer loop
      vertex -3.52133 46.7515 0
      vertex -3.28876 46.0357 1.5
      vertex -3.28876 46.0357 0
    endloop
  endfacet
  facet normal 0.951059 -0.309008 0
    outer loop
      vertex -3.52133 48.2485 1.5
      vertex -3.28876 48.9643 0
      vertex -3.28876 48.9643 1.5
    endloop
  endfacet
  facet normal 0.951059 -0.309008 0
    outer loop
      vertex -3.28876 48.9643 0
      vertex -3.52133 48.2485 1.5
      vertex -3.52133 48.2485 0
    endloop
  endfacet
  facet normal 0.207943 -0.978141 0
    outer loop
      vertex -1.11246 50.9238 0
      vertex -0.376302 51.0803 1.5
      vertex -1.11246 50.9238 1.5
    endloop
  endfacet
  facet normal 0.207943 -0.978141 0
    outer loop
      vertex -0.376302 51.0803 1.5
      vertex -1.11246 50.9238 0
      vertex -0.376302 51.0803 0
    endloop
  endfacet
  facet normal 0.743149 0.669126 0
    outer loop
      vertex -2.40887 44.8247 1.5
      vertex -2.91246 45.384 0
      vertex -2.91246 45.384 1.5
    endloop
  endfacet
  facet normal 0.743149 0.669126 0
    outer loop
      vertex -2.91246 45.384 0
      vertex -2.40887 44.8247 1.5
      vertex -2.40887 44.8247 0
    endloop
  endfacet
  facet normal 0 1 -0
    outer loop
      vertex 0.376302 43.9197 0
      vertex -0.376302 43.9197 1.5
      vertex 0.376302 43.9197 1.5
    endloop
  endfacet
  facet normal 0 1 0
    outer loop
      vertex -0.376302 43.9197 1.5
      vertex 0.376302 43.9197 0
      vertex -0.376302 43.9197 0
    endloop
  endfacet
  facet normal 0.207943 0.978141 -0
    outer loop
      vertex -0.376302 43.9197 0
      vertex -1.11246 44.0762 1.5
      vertex -0.376302 43.9197 1.5
    endloop
  endfacet
  facet normal 0.207943 0.978141 0
    outer loop
      vertex -1.11246 44.0762 1.5
      vertex -0.376302 43.9197 0
      vertex -1.11246 44.0762 0
    endloop
  endfacet
  facet normal 0.406723 0.913552 -0
    outer loop
      vertex -1.11246 44.0762 0
      vertex -1.8 44.3823 1.5
      vertex -1.11246 44.0762 1.5
    endloop
  endfacet
  facet normal 0.406723 0.913552 0
    outer loop
      vertex -1.8 44.3823 1.5
      vertex -1.11246 44.0762 0
      vertex -1.8 44.3823 0
    endloop
  endfacet
endsolid OpenSCAD_Model
