solid Mesh
  facet normal 1 0 0
    outer loop
      vertex 28.8 38.4 4.8
      vertex 28.8 1.73472e-15 4.8
      vertex 28.8 38.4 0
    endloop
  endfacet
  facet normal 1 0 0
    outer loop
      vertex 28.8 1.73472e-15 4.8
      vertex 28.8 1.73472e-15 0
      vertex 28.8 38.4 0
    endloop
  endfacet
  facet normal 6.02335e-17 -1 0
    outer loop
      vertex 28.8 1.73472e-15 4.8
      vertex 0 -1.71581e-32 4.8
      vertex 28.8 1.73472e-15 0
    endloop
  endfacet
  facet normal 6.02335e-17 -1 0
    outer loop
      vertex 0 -1.71581e-32 4.8
      vertex 0 -1.71581e-32 0
      vertex 28.8 1.73472e-15 0
    endloop
  endfacet
  facet normal -1 -3.0037e-17 0
    outer loop
      vertex 0 -1.71581e-32 4.8
      vertex -1.15342e-15 38.4 4.8
      vertex 0 -1.71581e-32 0
    endloop
  endfacet
  facet normal -1 -3.0037e-17 0
    outer loop
      vertex -1.15342e-15 38.4 4.8
      vertex -1.15342e-15 38.4 0
      vertex 0 -1.71581e-32 0
    endloop
  endfacet
  facet normal 0 0 1
    outer loop
      vertex 27.7634 5.1 1
      vertex 27.8 33.3 1
      vertex 7.16337 5.1 1
    endloop
  endfacet
  facet normal 0 0 1
    outer loop
      vertex 27.8 33.3 1
      vertex 7.16337 33.3 1
      vertex 7.16337 5.1 1
    endloop
  endfacet
  facet normal 1 0 0
    outer loop
      vertex 7.16337 33.3 1
      vertex 7.16337 33.3 4.8
      vertex 7.16337 5.1 1
    endloop
  endfacet
  facet normal 1 0 0
    outer loop
      vertex 7.16337 33.3 4.8
      vertex 7.16337 5.1 4.8
      vertex 7.16337 5.1 1
    endloop
  endfacet
  facet normal 0 0 -1
    outer loop
      vertex 28.8 1.73472e-15 0
      vertex 0 -1.71581e-32 0
      vertex 28.8 38.4 0
    endloop
  endfacet
  facet normal 0 0 -1
    outer loop
      vertex 0 -1.71581e-32 0
      vertex -1.15342e-15 38.4 0
      vertex 28.8 38.4 0
    endloop
  endfacet
  facet normal 0 1 0
    outer loop
      vertex 7.16337 5.1 4.8
      vertex 27.7634 5.1 4.8
      vertex 7.16337 5.1 1
    endloop
  endfacet
  facet normal 0 1 0
    outer loop
      vertex 27.7634 5.1 4.8
      vertex 27.7634 5.1 1
      vertex 7.16337 5.1 1
    endloop
  endfacet
  facet normal 0 0 1
    outer loop
      vertex 7.16337 33.3 4.8
      vertex -1.15342e-15 38.4 4.8
      vertex 7.16337 5.1 4.8
    endloop
  endfacet
  facet normal 0 0 1
    outer loop
      vertex -1.15342e-15 38.4 4.8
      vertex 0 -1.71581e-32 4.8
      vertex 7.16337 5.1 4.8
    endloop
  endfacet
  facet normal 0 0 1
    outer loop
      vertex 7.16337 5.1 4.8
      vertex 0 -1.71581e-32 4.8
      vertex 27.7634 5.1 4.8
    endloop
  endfacet
  facet normal 0 0 1
    outer loop
      vertex 0 -1.71581e-32 4.8
      vertex 28.8 1.73472e-15 4.8
      vertex 27.7634 5.1 4.8
    endloop
  endfacet
  facet normal 0 0 1
    outer loop
      vertex 27.7634 5.1 4.8
      vertex 28.8 1.73472e-15 4.8
      vertex 27.8 33.3 4.8
    endloop
  endfacet
  facet normal 0 0 1
    outer loop
      vertex 28.8 1.73472e-15 4.8
      vertex 28.8 38.4 4.8
      vertex 27.8 33.3 4.8
    endloop
  endfacet
  facet normal 0 0 1
    outer loop
      vertex 27.8 33.3 4.8
      vertex 28.8 38.4 4.8
      vertex 7.16337 33.3 4.8
    endloop
  endfacet
  facet normal 0 0 1
    outer loop
      vertex 28.8 38.4 4.8
      vertex -1.15342e-15 38.4 4.8
      vertex 7.16337 33.3 4.8
    endloop
  endfacet
  facet normal -0.999999 0.00129909 0
    outer loop
      vertex 27.7634 5.1 1
      vertex 27.7634 5.1 4.8
      vertex 27.8 33.3 1
    endloop
  endfacet
  facet normal -0.999999 0.00129909 0
    outer loop
      vertex 27.7634 5.1 4.8
      vertex 27.8 33.3 4.8
      vertex 27.8 33.3 1
    endloop
  endfacet
  facet normal 0 -1 0
    outer loop
      vertex 27.8 33.3 1
      vertex 27.8 33.3 4.8
      vertex 7.16337 33.3 1
    endloop
  endfacet
  facet normal 0 -1 0
    outer loop
      vertex 27.8 33.3 4.8
      vertex 7.16337 33.3 4.8
      vertex 7.16337 33.3 1
    endloop
  endfacet
  facet normal 0 1 0
    outer loop
      vertex -1.15342e-15 38.4 4.8
      vertex 28.8 38.4 4.8
      vertex -1.15342e-15 38.4 0
    endloop
  endfacet
  facet normal 0 1 0
    outer loop
      vertex 28.8 38.4 4.8
      vertex 28.8 38.4 0
      vertex -1.15342e-15 38.4 0
    endloop
  endfacet
endsolid Mesh
