solid Mesh
  facet normal -1 0 0
    outer loop
      vertex 10.5294 22.1 0.6
      vertex 10.5294 30.6 0.6
      vertex 10.5294 22.1 0
    endloop
  endfacet
  facet normal -1 0 0
    outer loop
      vertex 10.5294 30.6 0.6
      vertex 10.5294 30.6 0
      vertex 10.5294 22.1 0
    endloop
  endfacet
  facet normal 1 0 0
    outer loop
      vertex 12.5 31.85 0.6
      vertex 12.5 20.85 0.6
      vertex 12.5 31.85 0
    endloop
  endfacet
  facet normal 1 0 0
    outer loop
      vertex 12.5 20.85 0.6
      vertex 12.5 20.85 0
      vertex 12.5 31.85 0
    endloop
  endfacet
  facet normal 0 1 0
    outer loop
      vertex 12.5 20.85 0.6
      vertex 23.5 20.85 0.6
      vertex 12.5 20.85 0
    endloop
  endfacet
  facet normal 0 1 0
    outer loop
      vertex 23.5 20.85 0.6
      vertex 23.5 20.85 0
      vertex 12.5 20.85 0
    endloop
  endfacet
  facet normal -1 0 0
    outer loop
      vertex 23.5 20.85 0.6
      vertex 23.5 31.85 0.6
      vertex 23.5 20.85 0
    endloop
  endfacet
  facet normal -1 0 0
    outer loop
      vertex 23.5 31.85 0.6
      vertex 23.5 31.85 0
      vertex 23.5 20.85 0
    endloop
  endfacet
  facet normal 0 1 0
    outer loop
      vertex 12.5 6.55 0.6
      vertex 23.5 6.55 0.6
      vertex 12.5 6.55 0
    endloop
  endfacet
  facet normal 0 1 0
    outer loop
      vertex 23.5 6.55 0.6
      vertex 23.5 6.55 0
      vertex 12.5 6.55 0
    endloop
  endfacet
  facet normal 0 -1 0
    outer loop
      vertex 23.5 31.85 0.6
      vertex 12.5 31.85 0.6
      vertex 23.5 31.85 0
    endloop
  endfacet
  facet normal 0 -1 0
    outer loop
      vertex 12.5 31.85 0.6
      vertex 12.5 31.85 0
      vertex 23.5 31.85 0
    endloop
  endfacet
  facet normal 0 0 1
    outer loop
      vertex -0.0109513 22.1 2.4
      vertex 0.0109513 16.3 2.4
      vertex 7.2 22.1 2.4
    endloop
  endfacet
  facet normal 0 0 1
    outer loop
      vertex 0.0109513 16.3 2.4
      vertex 7.2 16.3 2.4
      vertex 7.2 22.1 2.4
    endloop
  endfacet
  facet normal 0 -1 0
    outer loop
      vertex 10.5075 16.3 0
      vertex 10.5075 16.3 0.6
      vertex 7.2 16.3 0.6
    endloop
  endfacet
  facet normal 0 -1 0
    outer loop
      vertex 7.2 16.3 2.4
      vertex 0.0109513 16.3 2.4
      vertex 7.2 16.3 0.6
    endloop
  endfacet
  facet normal 0 -1 0
    outer loop
      vertex 0.0109513 16.3 2.4
      vertex 0.0109513 16.3 0
      vertex 7.2 16.3 0.6
    endloop
  endfacet
  facet normal 0 -1 0
    outer loop
      vertex 7.2 16.3 0.6
      vertex 0.0109513 16.3 0
      vertex 10.5075 16.3 0
    endloop
  endfacet
  facet normal -1 0 0
    outer loop
      vertex 10.5075 7.8 0.6
      vertex 10.5075 16.3 0.6
      vertex 10.5075 7.8 0
    endloop
  endfacet
  facet normal -1 0 0
    outer loop
      vertex 10.5075 16.3 0.6
      vertex 10.5075 16.3 0
      vertex 10.5075 7.8 0
    endloop
  endfacet
  facet normal -0.999993 -0.00377628 0
    outer loop
      vertex 0.0109513 16.3 2.4
      vertex -0.0109513 22.1 2.4
      vertex 0.0109513 16.3 0
    endloop
  endfacet
  facet normal -0.999993 -0.00377628 0
    outer loop
      vertex -0.0109513 22.1 2.4
      vertex -0.0109513 22.1 0
      vertex 0.0109513 16.3 0
    endloop
  endfacet
  facet normal 0 -1 0
    outer loop
      vertex 23.5 17.55 0.6
      vertex 12.5 17.55 0.6
      vertex 23.5 17.55 0
    endloop
  endfacet
  facet normal 0 -1 0
    outer loop
      vertex 12.5 17.55 0.6
      vertex 12.5 17.55 0
      vertex 23.5 17.55 0
    endloop
  endfacet
  facet normal 0 1 0
    outer loop
      vertex 0 38.4 2.4
      vertex 28.8 38.4 2.4
      vertex 0 38.4 0
    endloop
  endfacet
  facet normal 0 1 0
    outer loop
      vertex 28.8 38.4 2.4
      vertex 28.8 38.4 0
      vertex 0 38.4 0
    endloop
  endfacet
  facet normal 1 0 0
    outer loop
      vertex 12.5 17.55 0.6
      vertex 12.5 6.55 0.6
      vertex 12.5 17.55 0
    endloop
  endfacet
  facet normal 1 0 0
    outer loop
      vertex 12.5 6.55 0.6
      vertex 12.5 6.55 0
      vertex 12.5 17.55 0
    endloop
  endfacet
  facet normal 1 0 0
    outer loop
      vertex 28.8 38.4 2.4
      vertex 28.8 6.92817e-31 2.4
      vertex 28.8 38.4 0
    endloop
  endfacet
  facet normal 1 0 0
    outer loop
      vertex 28.8 6.92817e-31 2.4
      vertex 28.8 6.92817e-31 0
      vertex 28.8 38.4 0
    endloop
  endfacet
  facet normal -0.999999 0.00140401 0
    outer loop
      vertex -1.69407e-18 -1.30104e-15 2.4
      vertex 0.0109513 7.8 2.4
      vertex -1.69407e-18 -1.30104e-15 0
    endloop
  endfacet
  facet normal -0.999999 0.00140401 0
    outer loop
      vertex 0.0109513 7.8 2.4
      vertex 0.0109513 7.8 0
      vertex -1.69407e-18 -1.30104e-15 0
    endloop
  endfacet
  facet normal 0 0 1
    outer loop
      vertex 7.2 7.8 2.4
      vertex 0.0109513 7.8 2.4
      vertex 7.2 4.9 2.4
    endloop
  endfacet
  facet normal 0 0 1
    outer loop
      vertex 0.0109513 7.8 2.4
      vertex -1.69407e-18 -1.30104e-15 2.4
      vertex 7.2 4.9 2.4
    endloop
  endfacet
  facet normal 0 0 1
    outer loop
      vertex 7.2 4.9 2.4
      vertex -1.69407e-18 -1.30104e-15 2.4
      vertex 27.8 4.9 2.4
    endloop
  endfacet
  facet normal 0 0 1
    outer loop
      vertex -1.69407e-18 -1.30104e-15 2.4
      vertex 28.8 6.92817e-31 2.4
      vertex 27.8 4.9 2.4
    endloop
  endfacet
  facet normal 0 0 1
    outer loop
      vertex 27.8 4.9 2.4
      vertex 28.8 6.92817e-31 2.4
      vertex 27.8 33.5 2.4
    endloop
  endfacet
  facet normal 0 0 1
    outer loop
      vertex 28.8 6.92817e-31 2.4
      vertex 28.8 38.4 2.4
      vertex 27.8 33.5 2.4
    endloop
  endfacet
  facet normal 0 0 1
    outer loop
      vertex 27.8 33.5 2.4
      vertex 28.8 38.4 2.4
      vertex 7.2 33.5 2.4
    endloop
  endfacet
  facet normal 0 0 1
    outer loop
      vertex 28.8 38.4 2.4
      vertex 0 38.4 2.4
      vertex 7.2 33.5 2.4
    endloop
  endfacet
  facet normal 0 0 1
    outer loop
      vertex 7.2 33.5 2.4
      vertex 0 38.4 2.4
      vertex 7.2 30.6 2.4
    endloop
  endfacet
  facet normal 0 0 1
    outer loop
      vertex 0 38.4 2.4
      vertex -0.0109513 30.6 2.4
      vertex 7.2 30.6 2.4
    endloop
  endfacet
  facet normal 1 0 0
    outer loop
      vertex 7.2 7.8 2.4
      vertex 7.2 4.9 2.4
      vertex 7.2 7.8 0.6
    endloop
  endfacet
  facet normal 1 0 0
    outer loop
      vertex 7.2 4.9 2.4
      vertex 7.2 4.9 0.6
      vertex 7.2 7.8 0.6
    endloop
  endfacet
  facet normal -1 0 0
    outer loop
      vertex 23.5 6.55 0.6
      vertex 23.5 17.55 0.6
      vertex 23.5 6.55 0
    endloop
  endfacet
  facet normal -1 0 0
    outer loop
      vertex 23.5 17.55 0.6
      vertex 23.5 17.55 0
      vertex 23.5 6.55 0
    endloop
  endfacet
  facet normal 4.51751e-17 -1 0
    outer loop
      vertex 28.8 6.92817e-31 2.4
      vertex -1.69407e-18 -1.30104e-15 2.4
      vertex 28.8 6.92817e-31 0
    endloop
  endfacet
  facet normal 4.51751e-17 -1 0
    outer loop
      vertex -1.69407e-18 -1.30104e-15 2.4
      vertex -1.69407e-18 -1.30104e-15 0
      vertex 28.8 6.92817e-31 0
    endloop
  endfacet
  facet normal 0 1 0
    outer loop
      vertex 10.5075 7.8 0.6
      vertex 10.5075 7.8 0
      vertex 7.2 7.8 0.6
    endloop
  endfacet
  facet normal 0 1 0
    outer loop
      vertex 10.5075 7.8 0
      vertex 0.0109513 7.8 0
      vertex 7.2 7.8 0.6
    endloop
  endfacet
  facet normal 0 1 0
    outer loop
      vertex 7.2 7.8 0.6
      vertex 0.0109513 7.8 0
      vertex 7.2 7.8 2.4
    endloop
  endfacet
  facet normal 0 1 0
    outer loop
      vertex 0.0109513 7.8 0
      vertex 0.0109513 7.8 2.4
      vertex 7.2 7.8 2.4
    endloop
  endfacet
  facet normal -0.999999 0.00140401 0
    outer loop
      vertex -0.0109513 30.6 2.4
      vertex 0 38.4 2.4
      vertex -0.0109513 30.6 0
    endloop
  endfacet
  facet normal -0.999999 0.00140401 0
    outer loop
      vertex 0 38.4 2.4
      vertex 0 38.4 0
      vertex -0.0109513 30.6 0
    endloop
  endfacet
  facet normal 0 -1 0
    outer loop
      vertex 10.5294 30.6 0
      vertex 10.5294 30.6 0.6
      vertex 7.2 30.6 0.6
    endloop
  endfacet
  facet normal 0 -1 0
    outer loop
      vertex 7.2 30.6 2.4
      vertex -0.0109513 30.6 2.4
      vertex 7.2 30.6 0.6
    endloop
  endfacet
  facet normal 0 -1 0
    outer loop
      vertex -0.0109513 30.6 2.4
      vertex -0.0109513 30.6 0
      vertex 7.2 30.6 0.6
    endloop
  endfacet
  facet normal 0 -1 0
    outer loop
      vertex 7.2 30.6 0.6
      vertex -0.0109513 30.6 0
      vertex 10.5294 30.6 0
    endloop
  endfacet
  facet normal 1 0 0
    outer loop
      vertex 7.2 33.5 2.4
      vertex 7.2 30.6 2.4
      vertex 7.2 33.5 0.6
    endloop
  endfacet
  facet normal 1 0 0
    outer loop
      vertex 7.2 30.6 2.4
      vertex 7.2 30.6 0.6
      vertex 7.2 33.5 0.6
    endloop
  endfacet
  facet normal 0 0 1
    outer loop
      vertex 23.5 17.55 0.6
      vertex 23.5 6.55 0.6
      vertex 27.8 4.9 0.6
    endloop
  endfacet
  facet normal 0 0 1
    outer loop
      vertex 23.5 6.55 0.6
      vertex 12.5 6.55 0.6
      vertex 27.8 4.9 0.6
    endloop
  endfacet
  facet normal 0 0 1
    outer loop
      vertex 27.8 4.9 0.6
      vertex 12.5 6.55 0.6
      vertex 7.2 4.9 0.6
    endloop
  endfacet
  facet normal 0 0 1
    outer loop
      vertex 12.5 6.55 0.6
      vertex 7.2 7.8 0.6
      vertex 7.2 4.9 0.6
    endloop
  endfacet
  facet normal 0 0 1
    outer loop
      vertex 12.5 31.85 0.6
      vertex 10.5294 30.6 0.6
      vertex 12.5 20.85 0.6
    endloop
  endfacet
  facet normal 0 0 1
    outer loop
      vertex 10.5294 30.6 0.6
      vertex 10.5294 22.1 0.6
      vertex 12.5 20.85 0.6
    endloop
  endfacet
  facet normal 0 0 1
    outer loop
      vertex 7.2 30.6 0.6
      vertex 10.5294 30.6 0.6
      vertex 7.2 33.5 0.6
    endloop
  endfacet
  facet normal 0 0 1
    outer loop
      vertex 10.5294 30.6 0.6
      vertex 12.5 31.85 0.6
      vertex 7.2 33.5 0.6
    endloop
  endfacet
  facet normal 0 0 1
    outer loop
      vertex 7.2 33.5 0.6
      vertex 12.5 31.85 0.6
      vertex 27.8 33.5 0.6
    endloop
  endfacet
  facet normal 0 0 1
    outer loop
      vertex 12.5 31.85 0.6
      vertex 23.5 31.85 0.6
      vertex 27.8 33.5 0.6
    endloop
  endfacet
  facet normal 0 0 1
    outer loop
      vertex 27.8 33.5 0.6
      vertex 23.5 31.85 0.6
      vertex 23.5 20.85 0.6
    endloop
  endfacet
  facet normal 0 0 1
    outer loop
      vertex 12.5 17.55 0.6
      vertex 10.5075 16.3 0.6
      vertex 12.5 6.55 0.6
    endloop
  endfacet
  facet normal 0 0 1
    outer loop
      vertex 10.5075 16.3 0.6
      vertex 10.5075 7.8 0.6
      vertex 12.5 6.55 0.6
    endloop
  endfacet
  facet normal 0 0 1
    outer loop
      vertex 12.5 6.55 0.6
      vertex 10.5075 7.8 0.6
      vertex 7.2 7.8 0.6
    endloop
  endfacet
  facet normal 0 0 1
    outer loop
      vertex 7.2 22.1 0.6
      vertex 7.2 16.3 0.6
      vertex 10.5294 22.1 0.6
    endloop
  endfacet
  facet normal 0 0 1
    outer loop
      vertex 7.2 16.3 0.6
      vertex 10.5075 16.3 0.6
      vertex 10.5294 22.1 0.6
    endloop
  endfacet
  facet normal 0 0 1
    outer loop
      vertex 10.5294 22.1 0.6
      vertex 10.5075 16.3 0.6
      vertex 12.5 20.85 0.6
    endloop
  endfacet
  facet normal 0 0 1
    outer loop
      vertex 10.5075 16.3 0.6
      vertex 12.5 17.55 0.6
      vertex 12.5 20.85 0.6
    endloop
  endfacet
  facet normal 0 0 1
    outer loop
      vertex 12.5 20.85 0.6
      vertex 12.5 17.55 0.6
      vertex 23.5 20.85 0.6
    endloop
  endfacet
  facet normal 0 0 1
    outer loop
      vertex 12.5 17.55 0.6
      vertex 23.5 17.55 0.6
      vertex 23.5 20.85 0.6
    endloop
  endfacet
  facet normal 0 0 1
    outer loop
      vertex 23.5 20.85 0.6
      vertex 23.5 17.55 0.6
      vertex 27.8 33.5 0.6
    endloop
  endfacet
  facet normal 0 0 1
    outer loop
      vertex 23.5 17.55 0.6
      vertex 27.8 4.9 0.6
      vertex 27.8 33.5 0.6
    endloop
  endfacet
  facet normal 0 -1 0
    outer loop
      vertex 27.8 33.5 0.6
      vertex 27.8 33.5 2.4
      vertex 7.2 33.5 0.6
    endloop
  endfacet
  facet normal 0 -1 0
    outer loop
      vertex 27.8 33.5 2.4
      vertex 7.2 33.5 2.4
      vertex 7.2 33.5 0.6
    endloop
  endfacet
  facet normal -1 0 0
    outer loop
      vertex 27.8 4.9 0.6
      vertex 27.8 4.9 2.4
      vertex 27.8 33.5 0.6
    endloop
  endfacet
  facet normal -1 0 0
    outer loop
      vertex 27.8 4.9 2.4
      vertex 27.8 33.5 2.4
      vertex 27.8 33.5 0.6
    endloop
  endfacet
  facet normal 0 1 0
    outer loop
      vertex 7.2 4.9 2.4
      vertex 27.8 4.9 2.4
      vertex 7.2 4.9 0.6
    endloop
  endfacet
  facet normal 0 1 0
    outer loop
      vertex 27.8 4.9 2.4
      vertex 27.8 4.9 0.6
      vertex 7.2 4.9 0.6
    endloop
  endfacet
  facet normal 0 0 -1
    outer loop
      vertex 10.5294 30.6 0
      vertex -0.0109513 30.6 0
      vertex 0 38.4 0
    endloop
  endfacet
  facet normal 0 0 -1
    outer loop
      vertex 12.5 6.55 0
      vertex 10.5075 7.8 0
      vertex 12.5 17.55 0
    endloop
  endfacet
  facet normal 0 0 -1
    outer loop
      vertex 10.5075 7.8 0
      vertex 10.5075 16.3 0
      vertex 12.5 17.55 0
    endloop
  endfacet
  facet normal 0 0 -1
    outer loop
      vertex 12.5 31.85 0
      vertex 12.5 20.85 0
      vertex 10.5294 22.1 0
    endloop
  endfacet
  facet normal 0 0 -1
    outer loop
      vertex 23.5 6.55 0
      vertex 28.8 6.92817e-31 0
      vertex 12.5 6.55 0
    endloop
  endfacet
  facet normal 0 0 -1
    outer loop
      vertex 28.8 6.92817e-31 0
      vertex -1.69407e-18 -1.30104e-15 0
      vertex 12.5 6.55 0
    endloop
  endfacet
  facet normal 0 0 -1
    outer loop
      vertex 12.5 6.55 0
      vertex -1.69407e-18 -1.30104e-15 0
      vertex 10.5075 7.8 0
    endloop
  endfacet
  facet normal 0 0 -1
    outer loop
      vertex -1.69407e-18 -1.30104e-15 0
      vertex 0.0109513 7.8 0
      vertex 10.5075 7.8 0
    endloop
  endfacet
  facet normal 0 0 -1
    outer loop
      vertex 0.0109513 16.3 0
      vertex -0.0109513 22.1 0
      vertex 10.5075 16.3 0
    endloop
  endfacet
  facet normal 0 0 -1
    outer loop
      vertex -0.0109513 22.1 0
      vertex 10.5294 22.1 0
      vertex 10.5075 16.3 0
    endloop
  endfacet
  facet normal 0 0 -1
    outer loop
      vertex 10.5075 16.3 0
      vertex 10.5294 22.1 0
      vertex 12.5 17.55 0
    endloop
  endfacet
  facet normal 0 0 -1
    outer loop
      vertex 10.5294 22.1 0
      vertex 12.5 20.85 0
      vertex 12.5 17.55 0
    endloop
  endfacet
  facet normal 0 0 -1
    outer loop
      vertex 12.5 17.55 0
      vertex 12.5 20.85 0
      vertex 23.5 17.55 0
    endloop
  endfacet
  facet normal 0 0 -1
    outer loop
      vertex 12.5 20.85 0
      vertex 23.5 20.85 0
      vertex 23.5 17.55 0
    endloop
  endfacet
  facet normal 0 0 -1
    outer loop
      vertex 10.5294 22.1 0
      vertex 10.5294 30.6 0
      vertex 12.5 31.85 0
    endloop
  endfacet
  facet normal 0 0 -1
    outer loop
      vertex 10.5294 30.6 0
      vertex 0 38.4 0
      vertex 12.5 31.85 0
    endloop
  endfacet
  facet normal 0 0 -1
    outer loop
      vertex 12.5 31.85 0
      vertex 0 38.4 0
      vertex 23.5 31.85 0
    endloop
  endfacet
  facet normal 0 0 -1
    outer loop
      vertex 0 38.4 0
      vertex 28.8 38.4 0
      vertex 23.5 31.85 0
    endloop
  endfacet
  facet normal 0 0 -1
    outer loop
      vertex 23.5 31.85 0
      vertex 28.8 38.4 0
      vertex 23.5 20.85 0
    endloop
  endfacet
  facet normal 0 0 -1
    outer loop
      vertex 28.8 38.4 0
      vertex 28.8 6.92817e-31 0
      vertex 23.5 20.85 0
    endloop
  endfacet
  facet normal 0 0 -1
    outer loop
      vertex 23.5 20.85 0
      vertex 28.8 6.92817e-31 0
      vertex 23.5 17.55 0
    endloop
  endfacet
  facet normal 0 0 -1
    outer loop
      vertex 28.8 6.92817e-31 0
      vertex 23.5 6.55 0
      vertex 23.5 17.55 0
    endloop
  endfacet
  facet normal 1 0 0
    outer loop
      vertex 7.2 22.1 2.4
      vertex 7.2 16.3 2.4
      vertex 7.2 22.1 0.6
    endloop
  endfacet
  facet normal 1 0 0
    outer loop
      vertex 7.2 16.3 2.4
      vertex 7.2 16.3 0.6
      vertex 7.2 22.1 0.6
    endloop
  endfacet
  facet normal 0 1 0
    outer loop
      vertex 10.5294 22.1 0.6
      vertex 10.5294 22.1 0
      vertex 7.2 22.1 0.6
    endloop
  endfacet
  facet normal 0 1 0
    outer loop
      vertex 10.5294 22.1 0
      vertex -0.0109513 22.1 0
      vertex 7.2 22.1 0.6
    endloop
  endfacet
  facet normal 0 1 0
    outer loop
      vertex 7.2 22.1 0.6
      vertex -0.0109513 22.1 0
      vertex 7.2 22.1 2.4
    endloop
  endfacet
  facet normal 0 1 0
    outer loop
      vertex -0.0109513 22.1 0
      vertex -0.0109513 22.1 2.4
      vertex 7.2 22.1 2.4
    endloop
  endfacet
endsolid Mesh
